<?xml version="1.0" encoding="UTF-8" standalone="no"?>
<!-- Created with Inkscape (http://www.inkscape.org/) -->

<svg
   version="1.1"
   id="svg1"
   width="133.63211"
   height="129.30495"
   viewBox="0 0 133.63211 129.30495"
   xmlns="http://www.w3.org/2000/svg"
   xmlns:svg="http://www.w3.org/2000/svg">
  <defs
     id="defs1">
    <clipPath
       clipPathUnits="userSpaceOnUse"
       id="clipPath2">
      <path
         d="M 0,0 H 167.76659 V 167.76659 H 0 Z"
         id="path2" />
    </clipPath>
  </defs>
  <g
     id="g1"
     transform="translate(-48.646973,-46.830971)">
    <path
       id="path1"
       d="m 37.13222,84.69934 -0.03121,-0.81605 -0.01663,-0.81687 -0.002,-0.81746 0.01267,-0.81775 0.02745,-0.81776 0.04222,-0.81751 0.05707,-0.81697 0.07196,-0.81616 0.08687,-0.81505 0.10176,-0.81366 0.11668,-0.81198 0.13162,-0.81 0.14652,-0.80773 0.16139,-0.80518 0.17622,-0.80235 0.19101,-0.79923 0.20574,-0.79581 0.22039,-0.79211 0.23498,-0.78815 0.24942,-0.7839 0.2638,-0.77939 0.27805,-0.77464 0.29216,-0.76959 0.30617,-0.76432 0.32001,-0.7588 0.33372,-0.75304 0.34724,-0.74704 0.36066,-0.74081 0.37384,-0.73438 0.38692,-0.72775 0.39979,-0.72089 0.41248,-0.71383 0.42502,-0.70658 0.43738,-0.69915 0.44954,-0.69152 0.46153,-0.68371 0.47337,-0.67572 0.48502,-0.66759 0.49652,-0.65923 0.50781,-0.65074 0.51897,-0.64206 0.52997,-0.63321 0.54077,-0.62419 0.55143,-0.61498 0.56195,-0.60563 0.57232,-0.59608 0.5825,-0.58639 0.59253,-0.57649 0.60243,-0.5664 0.61215,-0.55619 0.62175,-0.54572 0.63115,-0.53515 0.64041,-0.52433 0.64953,-0.51337 0.65844,-0.5022 0.66722,-0.49086 0.67579,-0.47935 0.6842,-0.46765 0.69243,-0.45577 0.70044,-0.44376 0.70831,-0.43151 0.71593,-0.41918 0.72333,-0.40666 0.73057,-0.39398 0.73756,-0.38121 0.74434,-0.36827 0.75087,-0.35523 0.75718,-0.34207 0.76324,-0.32881 0.76909,-0.31549 0.77466,-0.30208 0.78,-0.28859 0.78509,-0.27507 0.78993,-0.26149 0.79454,-0.24789 0.79888,-0.23427 0.80299,-0.22063 0.80683,-0.20698 0.81045,-0.19338 0.81385,-0.17975 0.81696,-0.16615 0.8199,-0.15262 0.82259,-0.13908 0.82507,-0.1256 0.82732,-0.11215 0.82938,-0.09877 0.8312,-0.08542 0.83288,-0.07213 0.83431,-0.05885 0.83559,-0.04564 0.83669,-0.03245 0.83757,-0.01934 0.83831,-0.0062 0.83887,0.0069 0.83923,0.01993 0.83947,0.03292 0.8395,0.046 0.83938,0.05902 0.83911,0.07205 0.8386,0.0851 0.83802,0.09816 0.83719,0.11123 0.83621,0.12438 0.83505,0.13748 0.8337,0.15068 0.83215,0.16392 0.83041,0.17718 0.82851,0.1905 0.82634,0.20387 0.82399,0.21729 0.82144,0.23074 0.81865,0.24425 0.81561,0.25783 0.81238,0.27142 0.80888,0.28505 0.80516,0.29874 0.80115,0.31241 0.79695,0.32615 0.79244,0.33987 0.7877,0.35363 0.7827,0.36737 0.77742,0.3811 0.77187,0.39482 0.76608,0.40853 0.75999,0.42218 0.75367,0.4358 0.74705,0.44937 0.74018,0.46289 0.733,0.47634 0.7256,0.48968 0.71792,0.50301 0.70998,0.51619 0.70175,0.52928 0.69327,0.54228 0.68452,0.55516 0.67551,0.56795 0.66625,0.58058 0.6567,0.59311 0.64688,0.60548 0.63685,0.61774 0.62649,0.62985 0.61591,0.6418 0.60504,0.6536 0.59391,0.66522 0.58248,0.67672 0.57083,0.68801 0.55887,0.69916 0.54663,0.7101 0.53416,0.72088 0.52135,0.73145 0.50828,0.7418 0.49496,0.75197 0.48132,0.76192 0.46741,0.77165 0.4532,0.78115 0.43872,0.79037 0.42398,0.79939 0.40892,0.80815 0.39362,0.81661 0.37802,0.8248 0.36216,0.8327 0.34606,0.8403 0.32965,0.84759 0.31306,0.85455 0.29616,0.86119 0.2791,0.86749 0.26176,0.87341 0.24425,0.87898 0.22652,0.88421 0.20863,0.889 0.19055,0.89345 0.17234,0.89748 0.15399,0.90112 0.13547,0.90434 0.11692,0.90714 0.0982,0.90953 0.0794,0.9115 0.0607,0.91302 0.0418,0.91413 0.0229,0.91481 0.004,0.91504 -0.004,0.91503 -0.0229,0.91481 -0.0418,0.91413 -0.0607,0.91302 -0.0794,0.9115 -0.0982,0.90953 -0.11692,0.90714 -0.13547,0.90434 -0.15399,0.90112 -0.17234,0.89748 -0.19055,0.89345 -0.20863,0.88901 -0.22652,0.8842 -0.24425,0.87898 -0.26176,0.87341 -0.2791,0.86749 -0.29616,0.8612 -0.31306,0.85455 -0.32965,0.84758 -0.34606,0.8403 -0.36216,0.8327 -0.37802,0.8248 -0.39362,0.81661 -0.40892,0.80815 -0.42398,0.79939 -0.43872,0.79037 -0.4532,0.78115 -0.46741,0.77165 -0.48132,0.76192 -0.49496,0.75197 -0.50828,0.7418 -0.52135,0.73145 -0.53416,0.72088 -0.54663,0.7101 -0.55887,0.69916 -0.57083,0.68802 -0.58248,0.67671 -0.59391,0.66522 -0.60504,0.65359 -0.61591,0.6418 -0.62649,0.62986 -0.63685,0.61774 -0.64688,0.60548 -0.6567,0.59311 -0.66625,0.58058 -0.67551,0.56795 -0.68452,0.55516 -0.69327,0.54228 -0.70175,0.52928 -0.70998,0.51619 -0.71792,0.50301 -0.7256,0.48968 -0.733,0.47634 -0.74018,0.46289 -0.74705,0.44937 -0.75367,0.4358 -0.75999,0.42218 -0.76608,0.40853 -0.77187,0.39482 -0.77742,0.3811 -0.7827,0.36737 -0.7877,0.35363 -0.79244,0.33987 -0.79695,0.32616 -0.80115,0.31241 -0.80516,0.29873 -0.80888,0.28505 -0.81238,0.27143 -0.81561,0.25782 -0.81865,0.24425 -0.82144,0.23074 -0.82399,0.21729 -0.82634,0.20387 -0.82851,0.19051 -0.83041,0.17717 -0.83215,0.16392 -0.8337,0.15068 -0.83505,0.13748 -0.83621,0.12438 -0.83719,0.11124 -0.83802,0.0982 -0.8386,0.0851 -0.83911,0.0721 -0.83938,0.059 -0.8395,0.046 -0.83947,0.0329 -0.83923,0.0199 -0.83887,0.007 -0.83831,-0.006 -0.83757,-0.0193 -0.83669,-0.0325 -0.83559,-0.0456 -0.83431,-0.0589 -0.83288,-0.0721 -0.8312,-0.0854 -0.82938,-0.0988 -0.82732,-0.11215 -0.82507,-0.1256 -0.82259,-0.13908 -0.8199,-0.15262 -0.81696,-0.16615 -0.81385,-0.17975 -0.81045,-0.19337 -0.80683,-0.20699 -0.80299,-0.22063 -0.79888,-0.23426 -0.79454,-0.2479 -0.78993,-0.26149 -0.78509,-0.27507 -0.78,-0.28859 -0.77466,-0.30208 -0.76909,-0.31549 -0.76324,-0.32881 -0.75718,-0.34207 -0.75087,-0.35523 -0.74434,-0.36827 -0.73756,-0.38121 -0.73057,-0.39398 -0.72333,-0.40666 -0.71593,-0.41917 -0.70831,-0.43153 -0.70044,-0.44375 -0.69243,-0.45576 -0.6842,-0.46766 -0.67579,-0.47935 -0.66722,-0.49086 -0.65844,-0.5022 -0.64953,-0.51336 -0.64041,-0.52434 -0.63115,-0.53514 -0.62175,-0.54573 -0.61215,-0.55619 -0.60243,-0.5664 -0.59253,-0.5765 -0.5825,-0.58638 -0.57232,-0.59608 -0.56195,-0.60564 -0.55143,-0.61497 -0.54077,-0.62419 -0.52997,-0.63321 -0.51897,-0.64206 -0.50781,-0.65074 -0.49652,-0.65923 -0.48502,-0.66759 -0.47337,-0.67572 -0.46153,-0.68371 -0.44954,-0.69153 -0.43738,-0.69914 -0.42502,-0.70657 -0.41248,-0.71384 -0.39979,-0.72089 -0.38692,-0.72775 -0.37384,-0.73438 -0.36066,-0.74081 -0.34724,-0.74704 -0.33372,-0.75304 -0.32001,-0.7588 -0.30617,-0.76431 -0.29216,-0.7696 -0.27805,-0.77464 -0.2638,-0.77939 -0.24942,-0.78391 -0.23498,-0.78814 -0.22039,-0.79211 -0.20574,-0.79581 -0.19101,-0.79923 -0.17622,-0.80235 -0.16139,-0.80517 -0.14652,-0.80774 -0.13162,-0.81 -0.11668,-0.81198 -0.10176,-0.81366 -0.08687,-0.81505 -0.07196,-0.81616 -0.05707,-0.81697 -0.04222,-0.81751 -0.02745,-0.81776 -0.01267,-0.81775 0.002,-0.81746 0.01663,-0.81686 0.03121,-0.81606"
       style="fill:#0072bd;fill-opacity:0.15;fill-rule:nonzero;stroke:#0072bd;stroke-width:0.99628;stroke-linecap:butt;stroke-linejoin:miter;stroke-miterlimit:10;stroke-dasharray:none;stroke-opacity:1"
       transform="matrix(1.3333333,0,0,-1.3333333,-0.132,223.328)"
       clip-path="url(#clipPath2)" />
    <path
       id="path3"
       d="m 85.87584,83.88329 c 0,1.10047 -0.89208,1.99255 -1.99255,1.99255 -1.10047,0 -1.99256,-0.89208 -1.99256,-1.99255 0,-1.10047 0.89209,-1.99256 1.99256,-1.99256 1.10047,0 1.99255,0.89209 1.99255,1.99256 z"
       style="fill:#d9d9d9;fill-opacity:1;fill-rule:nonzero;stroke:#d9d9d9;stroke-width:0.99628;stroke-linecap:butt;stroke-linejoin:miter;stroke-miterlimit:10;stroke-dasharray:none;stroke-opacity:1"
       transform="matrix(1.3333333,0,0,-1.3333333,-0.132,223.328)" />
  </g>
</svg>
