<?xml version="1.0" encoding="UTF-8" standalone="no"?>
<!-- Created with Inkscape (http://www.inkscape.org/) -->

<svg
   version="1.1"
   id="svg1"
   width="105.07236"
   height="80.937721"
   viewBox="0 0 105.07236 80.93772"
   xmlns="http://www.w3.org/2000/svg"
   xmlns:svg="http://www.w3.org/2000/svg">
  <defs
     id="defs1">
    <clipPath
       clipPathUnits="userSpaceOnUse"
       id="clipPath8">
      <path
         d="M 0,0 H 167.76659 V 167.76659 H 0 Z"
         transform="translate(-2.5000001e-6)"
         id="path8" />
    </clipPath>
  </defs>
  <g
     id="g6"
     transform="translate(-566.77365,-71.01481)">
    <path
       id="path7"
       d="m 60.18698,84.2969 -0.03497,-0.41361 0.05183,-0.41332 0.13814,-0.40875 0.22298,-0.4 0.30542,-0.38714 0.3845,-0.37053 0.45951,-0.35031 0.52951,-0.32694 0.59391,-0.30076 0.65199,-0.27227 0.7033,-0.24189 0.74731,-0.21022 0.78376,-0.17771 0.81239,-0.14499 0.83308,-0.11248 0.84586,-0.08086 0.85081,-0.05054 0.84816,-0.02198 0.83822,0.0043 0.82141,0.028 0.79818,0.04873 0.76917,0.06624 0.73495,0.08039 0.69628,0.09091 0.65382,0.09787 0.6084,0.10122 0.56073,0.10106 0.51167,0.09752 0.46193,0.09087 0.41229,0.08133 0.36347,0.06924 0.31607,0.05501 0.27081,0.03905 0.22817,0.02176 0.18867,0.0037 0.15267,-0.01478 0.12048,-0.03313 0.09244,-0.05084 0.06857,-0.0676 0.04901,-0.08285 0.03372,-0.09633 0.02263,-0.10765 0.01552,-0.11658 0.01219,-0.12283 0.01232,-0.12636 0.01554,-0.12702 0.02152,-0.1248 0.02972,-0.11982 0.03977,-0.11217 0.05118,-0.10208 0.06347,-0.0898 0.07616,-0.07567 0.08885,-0.06004 0.10108,-0.0434 0.11244,-0.02617 0.12266,-0.0089 0.13143,0.008 0.13842,0.02399 0.14356,0.03848 0.14665,0.05101 0.14769,0.0611 0.1466,0.06831 0.14352,0.07222 0.13853,0.07253 0.13182,0.06888 0.12357,0.06114 0.11412,0.04909 0.1037,0.0327 0.09265,0.01196 0.08136,-0.01299 0.07014,-0.04208 0.05941,-0.07495 0.04948,-0.11133 0.0407,-0.15083 0.03341,-0.19297 0.02794,-0.23724 0.02449,-0.28308 0.0233,-0.3299 0.02455,-0.37707 0.0284,-0.42392 0.03483,-0.46983 0.04398,-0.51416 0.05571,-0.5563 0.06998,-0.59559 0.08664,-0.63153 0.10553,-0.66365 0.1264,-0.69141 0.14897,-0.71452 0.17301,-0.73264 0.19812,-0.74556 0.22403,-0.75314 0.25035,-0.75531 0.27676,-0.75214 0.30295,-0.74371 0.32855,-0.73027 0.35327,-0.7121 0.37691,-0.68953 0.39912,-0.66304 0.41983,-0.63305 0.43886,-0.60018 0.45607,-0.56495 0.47151,-0.52802 0.48511,-0.48999 0.49701,-0.45149 0.50732,-0.41319 0.51618,-0.37566 0.52385,-0.33953 0.53055,-0.30529 0.53665,-0.27347 0.54237,-0.24452 0.54817,-0.21877 0.55432,-0.19655 0.56125,-0.17806 0.56928,-0.16346 0.57875,-0.15274 0.59001,-0.1459 0.60332,-0.14284 0.61894,-0.1433 0.63709,-0.14701 0.65788,-0.15361 0.68138,-0.16275 0.70767,-0.1738 0.73665,-0.18636 0.76819,-0.1998 0.80212,-0.21356 0.8382,-0.22697 0.87602,-0.23946 0.91527,-0.25043 0.95541,-0.25925 0.99602,-0.26542 1.03645,-0.26838 1.07619,-0.26774 1.11456,-0.26294 1.15096,-0.25382 1.18475,-0.24004 1.21527,-0.22142 1.24196,-0.19791 1.26418,-0.1694 1.28145,-0.13611 1.29319,-0.09807 1.29909,-0.05559 1.29869,-0.009 1.2918,0.04137 1.27818,0.09498 1.25775,0.1514 1.23056,0.21004 1.19662,0.27028 1.15621,0.33153 1.10957,0.39312 1.05716,0.45449 0.99939,0.5149 0.93691,0.57381 0.87026,0.63065 0.80027,0.68481 0.72758,0.73587 0.65313,0.78337 0.57765,0.82695 0.50204,0.86626 0.42719,0.90118 0.35394,0.93151 0.28308,0.95712 0.21545,0.9782 0.15175,0.99464 0.0927,1.00674 0.0389,1.01474 -0.009,1.01885 -0.0511,1.0195 -0.0866,1.01707 -0.11533,1.01201 -0.1373,1.00479 -0.15246,0.99588 -0.16101,0.98581 -0.16313,0.9751 -0.15922,0.96413 -0.14967,0.95347 -0.13504,0.94348 -0.11599,0.93457 -0.0932,0.92705 -0.0675,0.92121 -0.0396,0.91725 -0.0105,0.9153 0.0105,0.91529 0.0396,0.91726 0.0675,0.9212 0.0932,0.92705 0.11599,0.93457 0.13504,0.94348 0.14967,0.95347 0.15922,0.96413 0.16313,0.9751 0.16101,0.98581 0.15246,0.99588 0.1373,1.00479 0.11533,1.01201 0.0866,1.01707 0.0511,1.0195 0.009,1.01885 -0.0389,1.01472 -0.0927,1.00676 -0.15175,0.99465 -0.21545,0.97819 -0.28308,0.95713 -0.35394,0.9315 -0.42719,0.90118 -0.50204,0.86626 -0.57765,0.82695 -0.65313,0.78337 -0.72758,0.73587 -0.80027,0.68481 -0.87026,0.63065 -0.93691,0.57381 -0.99939,0.5149 -1.05716,0.45449 -1.10957,0.39313 -1.15621,0.33152 -1.19662,0.27028 -1.23056,0.21004 -1.25775,0.1514 -1.27818,0.095 -1.2918,0.0414 -1.29869,-0.009 -1.29909,-0.0556 -1.29319,-0.0981 -1.28145,-0.13611 -1.26418,-0.1694 -1.24196,-0.19791 -1.21527,-0.22142 -1.18475,-0.24003 -1.15096,-0.25383 -1.11456,-0.26295 -1.07619,-0.26772 -1.03645,-0.26839 -0.99602,-0.26541 -0.95541,-0.25926 -0.91527,-0.25043 -0.87602,-0.23946 -0.8382,-0.22697 -0.80212,-0.21356 -0.76819,-0.1998 -0.73665,-0.18636 -0.70767,-0.1738 -0.68138,-0.16274 -0.65788,-0.15362 -0.63709,-0.14701 -0.61894,-0.1433 -0.60332,-0.14284 -0.59001,-0.1459 -0.57875,-0.15274 -0.56928,-0.16345 -0.56125,-0.17807 -0.55432,-0.19655 -0.54817,-0.21877 -0.54237,-0.24452 -0.53665,-0.27348 -0.53055,-0.30529 -0.52385,-0.33952 -0.51618,-0.37566 -0.50732,-0.41319 -0.49701,-0.45149 -0.48511,-0.48999 -0.47151,-0.52803 -0.45607,-0.56494 -0.43886,-0.60018 -0.41983,-0.63306 -0.39912,-0.66303 -0.37691,-0.68953 -0.35327,-0.7121 -0.32855,-0.73027 -0.30295,-0.74371 -0.27676,-0.75214 -0.25035,-0.75531 -0.22403,-0.75314 -0.19812,-0.74557 -0.17301,-0.73263 -0.14897,-0.71452 -0.1264,-0.69141 -0.10553,-0.66365 -0.08664,-0.63153 -0.06998,-0.5956 -0.05571,-0.55629 -0.04398,-0.51416 -0.03483,-0.46983 -0.0284,-0.42392 -0.02455,-0.37707 -0.0233,-0.3299 -0.02449,-0.28308 -0.02794,-0.23724 -0.03341,-0.19297 -0.0407,-0.15083 -0.04948,-0.11133 -0.05941,-0.07495 -0.07014,-0.04208 -0.08136,-0.01299 -0.09265,0.01197 -0.1037,0.03269 -0.11412,0.04909 -0.12357,0.06114 -0.13182,0.06889 -0.13853,0.07252 -0.14352,0.07222 -0.1466,0.06831 -0.14769,0.0611 -0.14665,0.05101 -0.14356,0.03848 -0.13842,0.02399 -0.13143,0.008 -0.12266,-0.0089 -0.11244,-0.02617 -0.10108,-0.0434 L 80.02562,88.64697 79.94946,88.5713 79.88599,88.4815 79.83481,88.37956 79.79504,88.2674 79.76532,88.14757 79.7438,88.02277 79.72826,87.89575 79.71594,87.7694 79.70375,87.64656 79.68823,87.52998 79.6656,87.42233 79.63188,87.326 79.58287,87.24315 79.5143,87.17555 79.42186,87.12471 79.30138,87.09158 79.14871,87.0768 l -0.18867,0.0037 -0.22817,0.02176 -0.27081,0.03905 -0.31607,0.05501 -0.36347,0.06924 -0.41229,0.08133 -0.46193,0.09087 -0.51167,0.09752 -0.56073,0.10105 -0.6084,0.10123 -0.65382,0.09787 -0.69628,0.09092 -0.73495,0.08038 -0.76917,0.06624 -0.79818,0.04873 -0.82141,0.028 L 69.91447,88.154 69.06631,88.13199 68.2155,88.08145 67.36964,88.0006 66.53656,87.8881 65.72417,87.74312 64.94041,87.56541 64.1931,87.3552 63.4898,87.1133 62.83781,86.84103 62.2439,86.54027 l -0.52951,-0.32694 -0.45951,-0.35031 -0.3845,-0.37052 -0.30542,-0.38715 -0.22298,-0.4 -0.13814,-0.40875 -0.05183,-0.41331 0.03497,-0.41362"
       style="fill:#0072bd;fill-opacity:0.15;fill-rule:nonzero;stroke:#0072bd;stroke-width:0.99628;stroke-linecap:butt;stroke-linejoin:miter;stroke-miterlimit:10;stroke-dasharray:none;stroke-opacity:1"
       transform="matrix(1.3333333,0,0,-1.3333333,487.23867,223.328)"
       clip-path="url(#clipPath8)" />
    <path
       id="path9"
       d="m 85.87584,83.88329 c 0,1.10047 -0.89208,1.99255 -1.99255,1.99255 -1.10047,0 -1.99256,-0.89208 -1.99256,-1.99255 0,-1.10047 0.89209,-1.99256 1.99256,-1.99256 1.10047,0 1.99255,0.89209 1.99255,1.99256 z"
       style="fill:#d9d9d9;fill-opacity:1;fill-rule:nonzero;stroke:#d9d9d9;stroke-width:0.99628;stroke-linecap:butt;stroke-linejoin:miter;stroke-miterlimit:10;stroke-dasharray:none;stroke-opacity:1"
       transform="matrix(1.3333333,0,0,-1.3333333,487.23867,223.328)" />
  </g>
</svg>
