<?xml version="1.0" encoding="UTF-8" standalone="no"?>
<!-- Created with Inkscape (http://www.inkscape.org/) -->

<svg
   version="1.1"
   id="svg1"
   width="114.12914"
   height="142.47543"
   viewBox="0 0 114.12914 142.47543"
   xmlns="http://www.w3.org/2000/svg"
   xmlns:svg="http://www.w3.org/2000/svg">
  <defs
     id="defs1">
    <clipPath
       clipPathUnits="userSpaceOnUse"
       id="clipPath26">
      <path
         d="M 0,0 H 167.76659 V 167.76659 H 0 Z"
         transform="translate(-2.5000001e-5)"
         id="path26" />
    </clipPath>
  </defs>
  <g
     id="g24"
     transform="translate(-2054.1216,-40.245822)">
    <path
       id="path25"
       d="m 79.09857,83.9668 -0.0166,-0.08351 0.0096,-0.08364 0.03552,-0.08245 0.06081,-0.08 0.08494,-0.07632 0.10741,-0.07156 0.12784,-0.06589 0.14578,-0.05945 0.16096,-0.05247 0.17304,-0.0452 0.18182,-0.03784 0.18717,-0.03067 0.18897,-0.02393 0.18725,-0.01787 0.18202,-0.01277 0.17348,-0.0088 0.16172,-0.0062 0.14713,-0.005 0.12993,-0.0055 0.11053,-0.0077 0.08934,-0.01158 0.06676,-0.01727 0.04332,-0.02461 0.01947,-0.03359 L 81.85245,82.9791 81.82492,82.92346 81.7752,82.8551 81.70476,82.77327 81.61548,82.67747 81.50954,82.5675 81.3895,82.4435 81.25816,82.30595 81.1185,82.15565 80.97359,81.9937 80.8266,81.82152 80.6807,81.64081 80.53893,81.45348 80.40422,81.26161 80.27925,81.0675 80.1665,80.87349 80.06805,80.68195 79.9857,80.49516 79.92079,80.31544 79.87425,80.1448 l -0.02766,-0.15971 -0.0088,-0.14725 0.0098,-0.1336 0.02746,-0.11922 0.04395,-0.10447 0.0588,-0.08995 0.07172,-0.07616 0.08244,-0.0636 0.09073,-0.05286 0.09637,-0.04451 0.09937,-0.03909 0.09964,-0.03706 0.09722,-0.03899 0.09222,-0.04524 0.0849,-0.05617 0.07542,-0.07212 0.06412,-0.0933 0.05139,-0.11978 0.03759,-0.15167 0.02317,-0.18889 0.0087,-0.23122 -0.0055,-0.27846 -0.0188,-0.3302 -0.03079,-0.38601 -0.0409,-0.4453 -0.04875,-0.50742 -0.05388,-0.57168 -0.05595,-0.63729 -0.05466,-0.70337 -0.0497,-0.76907 -0.04094,-0.83348 -0.02824,-0.89566 -0.0116,-0.95473 0.009,-1.00978 0.03337,-1.05993 0.06134,-1.10444 0.09263,-1.1425 0.12691,-1.17358 0.16377,-1.19704 0.20276,-1.21249 0.24339,-1.21959 0.28512,-1.21816 0.32739,-1.20822 0.36969,-1.18973 0.41147,-1.16301 0.45213,-1.12838 0.49123,-1.08638 0.5283,-1.03758 0.56296,-0.98276 0.59482,-0.92278 0.62367,-0.85853 0.64929,-0.79108 0.67162,-0.72151 0.69065,-0.65093 0.70652,-0.5805 0.71936,-0.51137 0.72946,-0.44467 0.73729,-0.38152 0.74319,-0.32292 0.74782,-0.26987 0.75166,-0.22317 0.75548,-0.18369 0.75994,-0.1519 0.76571,-0.12838 0.77355,-0.11341 0.78421,-0.10716 0.79837,-0.10962 0.81664,-0.12061 0.83964,-0.13978 0.86789,-0.16664 0.90177,-0.2005 0.94163,-0.24054 0.98761,-0.28582 1.03982,-0.3352 1.09813,-0.38756 1.16231,-0.4416 1.232,-0.496 1.30662,-0.54935 1.38554,-0.60028 1.46787,-0.6474 1.55267,-0.68933 1.63887,-0.7248 1.72521,-0.75256 1.81041,-0.7715 1.89309,-0.78064 1.97182,-0.77908 2.04512,-0.76618 2.1115,-0.74137 2.16951,-0.70435 2.21771,-0.65495 2.25473,-0.59323 2.27934,-0.51946 2.29036,-0.43406 2.2868,-0.33774 2.26783,-0.23126 2.23274,-0.11565 2.18112,0.0079 2.11269,0.1381 2.02751,0.27355 1.92572,0.41271 1.80783,0.554 1.67458,0.69576 1.52684,0.83635 1.36587,0.97411 1.19304,1.10744 1.00992,1.23474 0.81842,1.35457 0.62039,1.4656 0.41801,1.56656 0.21346,1.65645 0.009,1.7343 -0.19277,1.79945 -0.3897,1.85141 -0.5794,1.88989 -0.75952,1.91477 -0.92783,1.92622 -1.08221,1.92462 -1.22072,1.91045 -1.34158,1.88454 -1.44319,1.84779 -1.52431,1.8013 -1.58375,1.74635 -1.62081,1.6843 -1.63495,1.61662 -1.62596,1.54488 -1.59401,1.4707 -1.53943,1.39568 -1.46302,1.32144 -1.3658,1.24954 -1.24907,1.18152 -1.11443,1.11883 -0.96373,1.0627 -0.79899,1.01435 -0.62256,0.97477 -0.43678,0.9448 -0.24428,0.92503 -0.0477,0.91596 0.0477,0.91595 0.24428,0.92503 0.43678,0.9448 0.62256,0.97476 0.79899,1.01436 0.96373,1.0627 1.11443,1.11883 1.24907,1.18152 1.3658,1.24954 1.46302,1.32144 1.53943,1.39568 1.59401,1.4707 1.62596,1.54488 1.63495,1.61662 1.62081,1.6843 1.58375,1.74635 1.52431,1.8013 1.44319,1.84779 1.34158,1.88454 1.22072,1.91045 1.08221,1.92462 0.92783,1.92622 0.75952,1.91477 0.5794,1.88989 0.3897,1.85141 0.19277,1.79946 -0.009,1.73429 -0.21346,1.65645 -0.41801,1.56656 -0.62039,1.4656 -0.81842,1.35457 -1.00992,1.23475 -1.19304,1.10743 -1.36587,0.97411 -1.52684,0.83635 -1.67458,0.69577 -1.80783,0.55398 -1.92572,0.41272 -2.02751,0.27355 -2.11269,0.13811 -2.18112,0.008 -2.23274,-0.11564 -2.26783,-0.23126 -2.2868,-0.33774 -2.29036,-0.43407 -2.27934,-0.51945 -2.25473,-0.59324 -2.21771,-0.65495 -2.16951,-0.70434 -2.1115,-0.74138 -2.04512,-0.76618 -1.97182,-0.77908 -1.89309,-0.78064 -1.81041,-0.7715 -1.72521,-0.75256 -1.63887,-0.72479 -1.55267,-0.68934 -1.46787,-0.6474 -1.38554,-0.60028 -1.30662,-0.54934 -1.232,-0.49601 -1.16231,-0.4416 -1.09813,-0.38756 -1.03982,-0.3352 -0.98761,-0.28582 -0.94163,-0.24054 -0.90177,-0.2005 -0.86789,-0.16664 -0.83964,-0.13978 -0.81664,-0.12061 -0.79837,-0.10962 -0.78421,-0.10716 -0.77355,-0.1134 -0.76571,-0.12839 -0.75994,-0.15191 -0.75548,-0.18368 -0.75166,-0.22317 -0.74782,-0.26987 -0.74319,-0.32292 -0.73729,-0.38152 -0.72946,-0.44467 -0.71936,-0.51137 -0.70652,-0.5805 -0.69065,-0.65093 -0.67162,-0.72151 -0.64929,-0.79108 -0.62367,-0.85853 -0.59482,-0.92278 -0.56296,-0.98275 -0.5283,-1.03759 -0.49123,-1.08638 -0.45213,-1.12838 -0.41147,-1.16301 -0.36969,-1.18973 -0.32739,-1.20823 -0.28512,-1.21815 -0.24339,-1.2196 -0.20276,-1.21248 -0.16377,-1.19704 -0.12691,-1.17358 -0.09263,-1.1425 -0.06134,-1.10443 -0.03337,-1.05994 -0.009,-1.00978 0.0116,-0.95473 0.02824,-0.89566 0.04094,-0.83348 0.0497,-0.76907 0.05466,-0.70337 0.05595,-0.63729 0.05388,-0.57168 0.04875,-0.50742 0.0409,-0.4453 0.03079,-0.38601 0.0188,-0.3302 0.0055,-0.27846 -0.0087,-0.23122 -0.02317,-0.18888 -0.03759,-0.15168 -0.05139,-0.11978 -0.06412,-0.09331 -0.07542,-0.07211 -0.0849,-0.05617 -0.09222,-0.04524 -0.09722,-0.03899 -0.09964,-0.03706 -0.09937,-0.03909 -0.09637,-0.04451 -0.09073,-0.05286 -0.08244,-0.0636 -0.07172,-0.07615 -0.0588,-0.08995 -0.04395,-0.10448 -0.02746,-0.11922 -0.0098,-0.1336 0.0088,-0.14725 0.02766,-0.15971 0.04654,-0.17064 0.06491,-0.17972 0.08235,-0.18678 0.09845,-0.19155 0.11275,-0.19401 0.12497,-0.19411 0.13471,-0.19186 0.14177,-0.18734 0.1459,-0.18071 0.14699,-0.17218 0.14491,-0.16195 0.13966,-0.1503 0.13134,-0.13755 0.12004,-0.124 0.10594,-0.10997 0.08928,-0.0958 0.07044,-0.08183 0.04972,-0.06836 0.02753,-0.05563 0.0043,-0.04398 -0.01947,-0.03358 -0.04332,-0.02462 -0.06676,-0.01727 -0.08934,-0.01158 -0.11053,-0.0077 -0.12993,-0.0055 -0.14713,-0.005 -0.16172,-0.0062 -0.17348,-0.0088 -0.18202,-0.01277 -0.18725,-0.01787 -0.18897,-0.02393 -0.18717,-0.03067 -0.18182,-0.03784 -0.17304,-0.0452 -0.16096,-0.05247 -0.14578,-0.05945 -0.12784,-0.06589 -0.10741,-0.07156 -0.08494,-0.07633 -0.06081,-0.07998 -0.03552,-0.08246 -0.0096,-0.08363 0.0166,-0.08352"
       style="fill:#0072bd;fill-opacity:0.15;fill-rule:nonzero;stroke:#0072bd;stroke-width:0.99628;stroke-linecap:butt;stroke-linejoin:miter;stroke-miterlimit:10;stroke-dasharray:none;stroke-opacity:1"
       transform="matrix(1.3333333,0,0,-1.3333333,1949.3507,223.328)"
       clip-path="url(#clipPath26)" />
    <path
       id="path27"
       d="m 85.87584,83.88329 c 0,1.10047 -0.89208,1.99255 -1.99255,1.99255 -1.10047,0 -1.99256,-0.89208 -1.99256,-1.99255 0,-1.10047 0.89209,-1.99256 1.99256,-1.99256 1.10047,0 1.99255,0.89209 1.99255,1.99256 z"
       style="fill:#d9d9d9;fill-opacity:1;fill-rule:nonzero;stroke:#d9d9d9;stroke-width:0.99628;stroke-linecap:butt;stroke-linejoin:miter;stroke-miterlimit:10;stroke-dasharray:none;stroke-opacity:1"
       transform="matrix(1.3333333,0,0,-1.3333333,1949.3507,223.328)" />
  </g>
</svg>
