<?xml version="1.0" encoding="UTF-8" standalone="no"?>
<!-- Created with Inkscape (http://www.inkscape.org/) -->

<svg
   version="1.1"
   id="svg1"
   width="223.68533"
   height="223.68533"
   viewBox="0 0 223.68533 223.68533"
   xmlns="http://www.w3.org/2000/svg"
   xmlns:svg="http://www.w3.org/2000/svg">
  <defs
     id="defs1">
    <clipPath
       clipPathUnits="userSpaceOnUse"
       id="clipPath14">
      <path
         d="M 0,0 H 167.76659 V 167.76659 H 0 Z"
         transform="translate(2.4999999e-6)"
         id="path14" />
    </clipPath>
  </defs>
  <g
     id="g12"
     transform="translate(-974.74139)">
    <path
       id="path13"
       d="m 78.11903,83.9839 -0.01433,-0.10061 -0.0066,-0.10099 0.0012,-0.101 0.0089,-0.10066 0.01675,-0.10002 0.02456,-0.09898 0.03233,-0.0976 0.0401,-0.09587 0.04783,-0.09381 0.05553,-0.09137 0.0631,-0.08859 0.07058,-0.08548 0.07793,-0.08203 0.08508,-0.07827 0.09208,-0.07415 0.09877,-0.0698 0.10522,-0.06514 0.11131,-0.06023 0.11705,-0.0551 0.12235,-0.04981 0.12717,-0.04436 0.1315,-0.03879 0.13525,-0.03317 0.13841,-0.02756 0.14093,-0.02199 0.14276,-0.01649 0.14388,-0.0112 0.14426,-0.0062 0.14387,-0.0014 0.14272,0.003 0.14077,0.007 0.13805,0.01047 0.13451,0.01335 0.13023,0.01561 0.12519,0.01717 0.11944,0.01796 0.11301,0.01797 0.10594,0.01711 0.09829,0.01532 0.09014,0.01263 0.08153,0.009 0.07254,0.0043 0.06327,-0.0014 0.05378,-0.008 0.04416,-0.01564 0.03451,-0.02426 0.02492,-0.03383 0.01549,-0.04431 0.0063,-0.05567 -0.0025,-0.0678 -0.011,-0.08072 -0.0189,-0.09433 -0.02623,-0.10852 -0.03286,-0.12325 -0.0388,-0.13841 -0.04388,-0.15389 -0.04814,-0.16963 -0.05149,-0.18553 -0.05388,-0.20145 -0.05528,-0.2173 -0.05571,-0.23303 -0.05511,-0.24847 -0.0535,-0.26363 -0.05091,-0.2782 -0.04729,-0.29245 -0.04266,-0.30603 -0.03715,-0.31895 -0.0307,-0.33113 -0.02336,-0.34256 -0.01524,-0.35314 -0.0063,-0.3629 0.0033,-0.37176 0.01355,-0.37976 0.0244,-0.38681 0.03581,-0.39306 0.04768,-0.39834 0.05994,-0.40285 0.07259,-0.40651 0.08552,-0.40942 0.09871,-0.41156 0.11211,-0.41307 0.12564,-0.41391 0.13933,-0.41428 0.15307,-0.41406 0.16692,-0.41348 0.1808,-0.41254 0.19471,-0.41127 0.20866,-0.40981 0.22264,-0.40814 0.23663,-0.4064 0.25066,-0.40459 0.26477,-0.40277 0.2789,-0.40095 0.29318,-0.39923 0.30754,-0.39757 0.32207,-0.39605 0.33675,-0.3946 0.35162,-0.39327 0.36671,-0.39203 0.38204,-0.3909 0.39767,-0.38977 0.41356,-0.3887 0.42975,-0.38759 0.44625,-0.38638 0.4631,-0.38506 0.4802,-0.38352 0.49767,-0.38172 0.51541,-0.37958 0.53342,-0.37698 0.55168,-0.37392 0.57017,-0.37027 0.5888,-0.36598 0.60759,-0.36091 0.62641,-0.35508 0.64525,-0.34834 0.66405,-0.34064 0.68266,-0.33195 0.70113,-0.32218 0.71924,-0.31129 0.73701,-0.29923 0.75431,-0.28598 0.77105,-0.27146 0.78715,-0.25579 0.80253,-0.2388 0.81707,-0.22061 0.83072,-0.20116 0.8434,-0.18052 0.855,-0.15868 0.86545,-0.13569 0.87469,-0.11168 0.88271,-0.08657 0.88934,-0.06051 0.89464,-0.03357 0.8985,-0.0058 0.90094,0.02267 0.90188,0.05184 0.90134,0.08151 0.89932,0.11165 0.89577,0.14214 0.8908,0.17289 0.8843,0.20378 0.87637,0.23474 0.86705,0.26563 0.85639,0.29642 0.84439,0.32693 0.83111,0.35713 0.81667,0.38695 0.80107,0.41623 0.78443,0.44495 0.76678,0.47303 0.74823,0.50043 0.72884,0.52705 0.70866,0.55288 0.68785,0.57783 0.6664,0.6019 0.64447,0.62503 0.62205,0.64722 0.59929,0.66845 0.57622,0.68874 0.55293,0.70798 0.52945,0.7263 0.50586,0.74359 0.48219,0.75995 0.45855,0.77537 0.43487,0.78985 0.41132,0.80339 0.38778,0.81605 0.3644,0.8279 0.34113,0.83884 0.31796,0.84899 0.29497,0.8584 0.27206,0.86701 0.24931,0.87489 0.22667,0.8821 0.20408,0.88858 0.18156,0.8944 0.15909,0.89957 0.13661,0.90412 0.1141,0.908 0.0915,0.91127 0.0689,0.91393 -0.0689,0.91392 -0.0915,0.91127 -0.1141,0.90801 -0.13661,0.90411 -0.15909,0.89957 -0.18156,0.89441 -0.20408,0.88858 -0.22667,0.88209 -0.24931,0.87489 -0.27206,0.86701 -0.29497,0.8584 -0.31796,0.849 -0.34113,0.83883 -0.3644,0.8279 -0.38778,0.81605 -0.41132,0.80339 -0.43487,0.78985 -0.45855,0.77537 -0.48219,0.75995 -0.50586,0.74359 -0.52945,0.7263 -0.55293,0.70798 -0.57622,0.68874 -0.59929,0.66845 -0.62205,0.64722 -0.64447,0.62503 -0.6664,0.6019 -0.68785,0.57783 -0.70866,0.55287 -0.72884,0.52706 -0.74823,0.50043 -0.76678,0.47304 -0.78443,0.44494 -0.80107,0.41623 -0.81667,0.38695 -0.83111,0.35713 -0.84439,0.32694 -0.85639,0.29641 -0.86705,0.26563 -0.87637,0.23474 -0.8843,0.20378 -0.8908,0.1729 -0.89577,0.14213 -0.89932,0.11165 -0.90134,0.0815 -0.90188,0.0518 -0.90094,0.0227 -0.8985,-0.006 -0.89464,-0.0336 -0.88934,-0.0605 -0.88271,-0.0866 -0.87469,-0.11168 -0.86545,-0.1357 -0.855,-0.15868 -0.8434,-0.18052 -0.83072,-0.20116 -0.81707,-0.22061 -0.80253,-0.2388 -0.78715,-0.25579 -0.77105,-0.27146 -0.75431,-0.28598 -0.73701,-0.29923 -0.71924,-0.31129 -0.70113,-0.32218 -0.68266,-0.33196 -0.66405,-0.34063 -0.64525,-0.34834 -0.62641,-0.35507 -0.60759,-0.36092 -0.5888,-0.36598 -0.57017,-0.37027 -0.55168,-0.37392 -0.53342,-0.37698 -0.51541,-0.37958 -0.49767,-0.38171 -0.4802,-0.38353 -0.4631,-0.38506 -0.44625,-0.38638 -0.42975,-0.38759 -0.41356,-0.3887 -0.39767,-0.38977 -0.38204,-0.3909 -0.36671,-0.39203 -0.35162,-0.39327 -0.33675,-0.3946 -0.32207,-0.39605 -0.30754,-0.39756 -0.29318,-0.39924 -0.2789,-0.40095 -0.26477,-0.40277 -0.25066,-0.40459 -0.23663,-0.4064 -0.22264,-0.40814 -0.20866,-0.40981 -0.19471,-0.41127 -0.1808,-0.41253 -0.16692,-0.41349 -0.15307,-0.41406 -0.13933,-0.41428 -0.12564,-0.41391 -0.11211,-0.41307 -0.09871,-0.41157 -0.08552,-0.40941 -0.07259,-0.40651 -0.05994,-0.40285 -0.04768,-0.39834 -0.03581,-0.39305 -0.0244,-0.38682 -0.01355,-0.37976 -0.0033,-0.37176 0.0063,-0.3629 0.01524,-0.35313 0.02336,-0.34256 0.0307,-0.33114 0.03715,-0.31895 0.04266,-0.30603 0.04729,-0.29245 0.05087,-0.27829 0.0535,-0.26363 0.05511,-0.24847 0.05571,-0.23303 0.05528,-0.2173 0.05388,-0.20145 0.05149,-0.18553 0.04814,-0.16963 0.04388,-0.15389 0.0388,-0.13841 0.03286,-0.12325 0.02623,-0.10852 0.0189,-0.09432 0.011,-0.08072 0.0025,-0.06781 -0.0063,-0.05567 -0.01549,-0.04431 -0.02492,-0.03383 -0.03451,-0.02426 -0.04416,-0.01564 -0.05378,-0.008 -0.06327,-0.0014 -0.07254,0.0043 -0.08153,0.0089 -0.09014,0.01263 -0.09829,0.01532 -0.10594,0.01711 -0.11301,0.01797 -0.11944,0.01796 -0.12519,0.01717 -0.13023,0.01561 -0.13451,0.01335 -0.13805,0.01047 -0.14077,0.007 -0.14272,0.003 -0.14387,-0.0014 -0.14426,-0.0062 -0.14388,-0.0112 -0.14276,-0.01649 -0.14093,-0.02199 -0.13841,-0.02756 -0.13525,-0.03317 -0.1315,-0.0388 -0.12717,-0.04435 -0.12235,-0.0498 -0.11705,-0.05512 -0.11131,-0.06022 -0.10522,-0.06514 -0.09877,-0.0698 -0.09208,-0.07415 -0.08508,-0.07827 -0.07793,-0.08203 -0.07058,-0.08548 -0.0631,-0.08859 -0.05553,-0.09137 -0.04783,-0.09381 -0.0401,-0.09587 -0.03233,-0.0976 -0.02456,-0.09898 -0.01675,-0.10002 -0.0089,-0.10066 -0.0012,-0.101 0.0066,-0.10098 0.01433,-0.10062"
       style="fill:#0072bd;fill-opacity:0.15;fill-rule:nonzero;stroke:#0072bd;stroke-width:0.99628;stroke-linecap:butt;stroke-linejoin:miter;stroke-miterlimit:10;stroke-dasharray:none;stroke-opacity:1"
       transform="matrix(1.3333333,0,0,-1.3333333,974.60933,223.328)"
       clip-path="url(#clipPath14)" />
    <path
       id="path15"
       d="m 85.87584,83.88329 c 0,1.10047 -0.89208,1.99255 -1.99255,1.99255 -1.10047,0 -1.99256,-0.89208 -1.99256,-1.99255 0,-1.10047 0.89209,-1.99256 1.99256,-1.99256 1.10047,0 1.99255,0.89209 1.99255,1.99256 z"
       style="fill:#d9d9d9;fill-opacity:1;fill-rule:nonzero;stroke:#d9d9d9;stroke-width:0.99628;stroke-linecap:butt;stroke-linejoin:miter;stroke-miterlimit:10;stroke-dasharray:none;stroke-opacity:1"
       transform="matrix(1.3333333,0,0,-1.3333333,974.60933,223.328)" />
  </g>
</svg>
