<?xml version="1.0" encoding="UTF-8" standalone="no"?>
<!-- Created with Inkscape (http://www.inkscape.org/) -->

<svg
   version="1.1"
   id="svg1"
   width="223.68533"
   height="223.68533"
   viewBox="0 0 223.68533 223.68533"
   xmlns="http://www.w3.org/2000/svg"
   xmlns:svg="http://www.w3.org/2000/svg">
  <defs
     id="defs1">
    <clipPath
       clipPathUnits="userSpaceOnUse"
       id="clipPath23">
      <path
         d="M 0,0 H 167.76659 V 167.76659 H 0 Z"
         transform="translate(2.5000001e-5)"
         id="path23" />
    </clipPath>
  </defs>
  <g
     id="g21"
     transform="translate(-1705.7973)">
    <path
       id="path22"
       d="m 79.3354,83.96266 -0.0065,-0.07937 0.0095,-0.07933 0.02539,-0.0785 0.04097,-0.07689 0.05593,-0.07453 0.07,-0.07155 0.08296,-0.06797 0.09456,-0.06385 0.10464,-0.05944 0.11305,-0.05473 0.11956,-0.04993 0.12416,-0.04513 0.12677,-0.04056 0.12732,-0.03628 0.12588,-0.03249 0.12247,-0.02925 0.11716,-0.02676 0.11009,-0.02509 0.10143,-0.02429 0.09133,-0.02451 0.08,-0.02571 0.06766,-0.02795 0.05458,-0.03125 0.04096,-0.03557 0.02707,-0.04082 0.0132,-0.04698 -4.3e-4,-0.05394 -0.0136,-0.06159 -0.02606,-0.06979 -0.03758,-0.07841 -0.04807,-0.08732 -0.05728,-0.09634 -0.06517,-0.1053 -0.07156,-0.11411 -0.0765,-0.12257 -0.07991,-0.13058 -0.08178,-0.138 L 80.73544,81.51122 80.65417,81.36043 80.57516,81.20442 80.4995,81.04395 80.42819,80.87982 80.36205,80.71275 80.30168,80.54338 80.24751,80.37225 80.19974,80.19974 80.15837,80.02602 80.1232,79.8511 80.0939,79.67473 80.06985,79.49644 80.05043,79.31546 80.03476,79.13075 80.02194,78.94098 80.01099,78.74457 80.00087,78.5396 79.99062,78.32396 79.9792,78.09525 79.96577,77.85085 79.94951,77.58794 79.92981,77.30359 79.90619,76.99475 79.87837,76.65823 79.84636,76.29092 79.81035,75.8897 79.77083,75.45152 79.72856,74.97346 79.68459,74.45284 79.6402,73.88718 79.59698,73.27432 79.55681,72.61244 79.52176,71.90005 79.49411,71.13618 79.4764,70.32024 l -0.0052,-0.86811 0.01021,-0.9199 0.02842,-0.97078 0.04955,-1.02025 0.07361,-1.06783 0.10054,-1.11296 0.13029,-1.1553 0.16271,-1.19434 0.1977,-1.22967 0.23499,-1.26099 0.27446,-1.28798 0.31581,-1.31039 0.35873,-1.32808 0.40307,-1.34087 0.44841,-1.34874 0.49453,-1.35173 0.54111,-1.34987 0.58791,-1.34333 0.63459,-1.33232 0.68099,-1.31714 0.72683,-1.29804 0.77193,-1.27544 0.81615,-1.24966 0.85934,-1.22127 0.90148,-1.19064 0.94241,-1.15821 0.98227,-1.12454 1.02101,-1.09002 1.05867,-1.05518 1.09548,-1.02037 1.13145,-0.98604 1.16679,-0.9525 1.20172,-0.92004 1.23638,-0.88898 1.27095,-0.85939 1.30567,-0.83145 1.3407,-0.80518 1.37624,-0.78054 1.41237,-0.75742 1.44927,-0.73563 1.4869,-0.71493 1.52539,-0.69502 1.56464,-0.67549 1.60455,-0.65593 1.64498,-0.63587 1.68566,-0.61478 1.72637,-0.59211 1.76671,-0.56737 1.80617,-0.53993 1.84437,-0.50929 1.88071,-0.47492 1.91457,-0.43634 1.94531,-0.39305 1.97221,-0.34473 1.99458,-0.29101 2.01168,-0.23165 2.02275,-0.16649 2.02707,-0.09548 2.02388,-0.01862 2.01256,0.06396 1.99244,0.15201 1.96298,0.24522 1.92368,0.34313 1.87413,0.44521 1.81404,0.55082 1.74319,0.65927 1.66158,0.76975 1.56922,0.88136 1.46632,0.99326 1.35321,1.10437 1.23044,1.21382 1.09857,1.3205 0.95837,1.42344 0.81079,1.52167 0.65686,1.61421 0.4977,1.70017 0.33461,1.77862 0.16895,1.84891 0.002,1.91029 -0.16417,1.96224 -0.3285,2.00419 -0.48934,2.03592 -0.64493,2.05718 -0.79374,2.06788 -0.93425,2.06813 -1.06488,2.05811 -1.18422,2.03818 -1.29089,2.00882 -1.38379,1.97065 -1.46172,1.92441 -1.52371,1.87091 -1.56914,1.81119 -1.59729,1.74616 -1.60779,1.67701 -1.60046,1.60492 -1.57527,1.53102 -1.53245,1.45659 -1.47243,1.38286 -1.39582,1.31097 -1.30337,1.24216 -1.19622,1.17755 -1.07548,1.11814 -0.94252,1.06492 -0.79889,1.0188 -0.64615,0.98045 -0.48616,0.95054 -0.32071,0.92952 -0.1517,0.91777 0.1517,0.91777 0.32071,0.92952 0.48616,0.95052 0.64615,0.98046 0.79889,1.0188 0.94252,1.06493 1.07548,1.11813 1.19622,1.17755 1.30337,1.24216 1.39582,1.31097 1.47243,1.38286 1.53245,1.45659 1.57527,1.53102 1.60046,1.60492 1.60779,1.67701 1.59729,1.74616 1.56914,1.81119 1.52371,1.87091 1.46172,1.92441 1.38379,1.97065 1.29089,2.00882 1.18422,2.03818 1.06488,2.05811 0.93425,2.06813 0.79374,2.06788 0.64493,2.05718 0.48934,2.03592 0.3285,2.00419 0.16417,1.96224 -0.002,1.91029 -0.16895,1.84891 -0.33461,1.77863 -0.4977,1.70016 -0.65686,1.61421 -0.81079,1.52167 -0.95837,1.42345 -1.09857,1.32049 -1.23044,1.21382 -1.35321,1.10437 -1.46632,0.99326 -1.56922,0.88136 -1.66158,0.76975 -1.74319,0.65926 -1.81404,0.55083 -1.87413,0.44521 -1.92368,0.34312 -1.96298,0.24523 -1.99244,0.15201 -2.01256,0.064 -2.02388,-0.0186 -2.02707,-0.0955 -2.02275,-0.16649 -2.01168,-0.23165 -1.99458,-0.29101 -1.97221,-0.34473 -1.94531,-0.39305 -1.91457,-0.43634 -1.88071,-0.47491 -1.84437,-0.5093 -1.80617,-0.53993 -1.76671,-0.56737 -1.72637,-0.59211 -1.68566,-0.61478 -1.64498,-0.63586 -1.60455,-0.65593 -1.56464,-0.6755 -1.52539,-0.69502 -1.4869,-0.71493 -1.44927,-0.73563 -1.41237,-0.75742 -1.37624,-0.78054 -1.3407,-0.80518 -1.30567,-0.83145 -1.27095,-0.85939 -1.23638,-0.88898 -1.20172,-0.92004 -1.16679,-0.9525 -1.13145,-0.98604 -1.09548,-1.02037 -1.05867,-1.05518 -1.02101,-1.09003 -0.98227,-1.12454 -0.94241,-1.1582 -0.90148,-1.19064 -0.85934,-1.22127 -0.81615,-1.24968 -0.77193,-1.27542 -0.72683,-1.29803 -0.68099,-1.31714 -0.63459,-1.33232 -0.58791,-1.34334 -0.54111,-1.34987 -0.49453,-1.35173 -0.44841,-1.34874 -0.40307,-1.34087 -0.35873,-1.32808 -0.31581,-1.31039 -0.27446,-1.28798 -0.23499,-1.261 -0.1977,-1.22966 -0.16271,-1.19434 -0.13029,-1.1553 -0.10054,-1.11296 -0.07361,-1.06783 -0.04955,-1.02025 -0.02842,-0.97078 -0.01021,-0.9199 0.0052,-0.86811 0.01771,-0.81594 0.02765,-0.76387 0.03505,-0.71239 0.04017,-0.66188 0.04322,-0.61285 0.04439,-0.56566 0.04397,-0.52064 0.04227,-0.47805 0.03952,-0.43817 0.03601,-0.40123 0.03201,-0.36731 0.02782,-0.33652 0.02362,-0.30884 0.0197,-0.28435 0.01626,-0.2629 0.01343,-0.2444 0.01142,-0.22872 0.01025,-0.21564 0.01012,-0.20497 0.01095,-0.19641 0.01282,-0.18977 0.01567,-0.18471 0.01942,-0.18098 0.02405,-0.17829 0.0293,-0.17637 0.03517,-0.17492 0.04137,-0.17372 0.04777,-0.17251 0.05417,-0.17113 0.06037,-0.16937 0.06614,-0.16707 0.07131,-0.16412 0.07566,-0.16048 0.07901,-0.15601 0.08127,-0.15078 0.08222,-0.14476 0.08178,-0.138 0.07991,-0.13059 0.0765,-0.12257 0.07156,-0.11411 0.06517,-0.1053 0.05728,-0.09634 0.04807,-0.08731 0.03758,-0.07842 0.02606,-0.06979 0.0136,-0.06159 4.3e-4,-0.05394 -0.0132,-0.04698 -0.02707,-0.04082 -0.04096,-0.03556 -0.05458,-0.03125 -0.06766,-0.02796 -0.08,-0.02571 L 81.0008,84.81985 80.89937,84.79556 80.78928,84.77048 80.67212,84.74371 80.54965,84.71446 80.42377,84.68198 80.29645,84.64569 80.16968,84.60513 80.04552,84.56 79.92596,84.51007 79.81291,84.45534 79.70827,84.3959 l -0.09456,-0.06385 -0.08296,-0.06797 -0.07,-0.07154 -0.05593,-0.07454 -0.04097,-0.0769 -0.02539,-0.07848 -0.0095,-0.07933 0.0065,-0.07938"
       style="fill:#0072bd;fill-opacity:0.15;fill-rule:nonzero;stroke:#0072bd;stroke-width:0.99628;stroke-linecap:butt;stroke-linejoin:miter;stroke-miterlimit:10;stroke-dasharray:none;stroke-opacity:1"
       transform="matrix(1.3333333,0,0,-1.3333333,1705.6653,223.328)"
       clip-path="url(#clipPath23)" />
    <path
       id="path24"
       d="m 85.87584,83.88329 c 0,1.10047 -0.89208,1.99255 -1.99255,1.99255 -1.10047,0 -1.99256,-0.89208 -1.99256,-1.99255 0,-1.10047 0.89209,-1.99256 1.99256,-1.99256 1.10047,0 1.99255,0.89209 1.99255,1.99256 z"
       style="fill:#d9d9d9;fill-opacity:1;fill-rule:nonzero;stroke:#d9d9d9;stroke-width:0.99628;stroke-linecap:butt;stroke-linejoin:miter;stroke-miterlimit:10;stroke-dasharray:none;stroke-opacity:1"
       transform="matrix(1.3333333,0,0,-1.3333333,1705.6653,223.328)" />
  </g>
</svg>
