<?xml version="1.0" encoding="UTF-8" standalone="no"?>
<!-- Created with Inkscape (http://www.inkscape.org/) -->

<svg
   version="1.1"
   id="svg1"
   width="223.68533"
   height="223.68533"
   viewBox="0 0 223.68533 223.68533"
   xmlns="http://www.w3.org/2000/svg"
   xmlns:svg="http://www.w3.org/2000/svg">
  <defs
     id="defs1">
    <clipPath
       clipPathUnits="userSpaceOnUse"
       id="clipPath11">
      <path
         d="M 0,0 H 167.76659 V 167.76659 H 0 Z"
         id="path11" />
    </clipPath>
  </defs>
  <g
     id="g9"
     transform="translate(-731.05605)">
    <path
       id="path10"
       d="m 78.72769,83.97327 0.02229,-0.08998 0.01478,-0.08934 0.0073,-0.08916 v -0.08937 l -0.0068,-0.09003 -0.01306,-0.09102 -0.01848,-0.09233 -0.02293,-0.09386 -0.02628,-0.09555 -0.02836,-0.09726 -0.02912,-0.09892 -0.02844,-0.10042 -0.02634,-0.10165 -0.0227,-0.10249 -0.01761,-0.10286 -0.01108,-0.10262 -0.0032,-0.1017 0.006,-0.10004 0.01637,-0.09751 0.02772,-0.09416 0.04,-0.08985 0.0529,-0.08465 0.06631,-0.07851 0.08004,-0.07147 0.09381,-0.06359 0.10741,-0.05493 0.12072,-0.04558 0.13341,-0.03564 0.14534,-0.02524 0.15625,-0.01451 0.16606,-0.0036 0.17452,0.0072 0.18148,0.01789 0.18691,0.0282 0.19061,0.03793 0.19255,0.04695 0.1927,0.05501 0.19101,0.06198 0.18752,0.06766 0.18224,0.07187 0.17528,0.07455 0.16668,0.0755 0.15657,0.07466 0.14513,0.07189 0.13246,0.06723 0.11879,0.06053 0.10427,0.05187 0.08912,0.04125 0.07353,0.02869 0.05775,0.01428 0.04197,-0.0019 0.02641,-0.01968 0.01128,-0.03898 -0.0032,-0.05961 -0.01693,-0.08138 -0.0296,-0.10412 -0.04114,-0.12763 -0.05139,-0.15165 -0.06022,-0.176 -0.0676,-0.20051 -0.07327,-0.22482 -0.07734,-0.24883 -0.07975,-0.27231 -0.08047,-0.29505 -0.07947,-0.3169 -0.07686,-0.33765 -0.07263,-0.35723 -0.06685,-0.37542 -0.05964,-0.39218 -0.05105,-0.40741 -0.04122,-0.42108 -0.03025,-0.43312 -0.01822,-0.44356 -0.0053,-0.45239 0.0084,-0.45966 0.02269,-0.46543 0.03755,-0.46979 0.05286,-0.47281 0.06851,-0.47461 0.08435,-0.47533 0.10035,-0.47509 0.11648,-0.474 0.13255,-0.47226 0.14865,-0.46996 0.16467,-0.46725 0.18061,-0.46428 0.19644,-0.46115 0.21222,-0.45801 0.22793,-0.45491 0.24355,-0.45197 0.25919,-0.44925 0.27482,-0.44677 0.29051,-0.44468 0.30632,-0.44281 0.32224,-0.4413 0.33833,-0.44003 0.35466,-0.43904 0.3712,-0.4382 0.38803,-0.43747 0.40516,-0.43674 0.42253,-0.4359 0.44017,-0.43483 0.45813,-0.43345 0.47628,-0.43158 0.49468,-0.42914 0.51317,-0.42595 0.5318,-0.42191 0.5504,-0.4169 0.56897,-0.41082 0.58737,-0.40352 0.60553,-0.39496 0.62333,-0.38504 0.64072,-0.3737 0.65752,-0.36093 0.67367,-0.34665 0.68909,-0.33092 0.70364,-0.31369 0.71727,-0.29506 0.72989,-0.27502 0.74143,-0.25367 0.75181,-0.23111 0.76104,-0.20741 0.76905,-0.18269 0.77585,-0.15712 0.78142,-0.13077 0.78575,-0.10377 0.78897,-0.07639 0.791,-0.04861 0.79199,-0.0207 0.79197,0.0073 0.79104,0.03516 0.78926,0.06282 0.78678,0.09012 0.78364,0.117 0.78,0.14333 0.77594,0.16902 0.77158,0.19409 0.76698,0.2184 0.76228,0.24199 0.75759,0.26481 0.75287,0.28687 0.7483,0.3082 0.74387,0.32884 0.73961,0.34882 0.73553,0.36821 0.73163,0.38706 0.7279,0.4055 0.7243,0.42349 0.72068,0.44123 0.7171,0.45881 0.71335,0.47617 0.70937,0.49357 0.70502,0.51093 0.70018,0.5284 0.69464,0.546 0.68832,0.56376 0.68103,0.58176 0.67262,0.59996 0.66291,0.61834 0.65176,0.63694 0.63902,0.65571 0.62458,0.67458 0.6083,0.69348 0.59008,0.71233 0.5698,0.73108 0.54747,0.74957 0.523,0.76773 0.49637,0.78538 0.46759,0.80248 0.43672,0.81879 0.40379,0.83427 0.3689,0.84872 0.33217,0.86205 0.29371,0.87411 0.25371,0.8848 0.21234,0.89404 0.1698,0.90168 0.12627,0.9077 0.082,0.91198 0.0373,0.91451 -0.008,0.91524 0.008,0.91523 -0.0373,0.91451 -0.082,0.91199 -0.12627,0.90769 -0.1698,0.90168 -0.21234,0.89404 -0.25371,0.8848 -0.29371,0.87411 -0.33217,0.86205 -0.3689,0.84872 -0.40379,0.83428 -0.43672,0.81878 -0.46759,0.80248 -0.49637,0.78538 -0.523,0.76773 -0.54747,0.74958 -0.5698,0.73107 -0.59008,0.71233 -0.6083,0.69348 -0.62458,0.67458 -0.63902,0.65571 -0.65176,0.63694 -0.66291,0.61835 -0.67262,0.59995 -0.68103,0.58176 -0.68832,0.56377 -0.69464,0.54599 -0.70018,0.52841 -0.70502,0.51092 -0.70937,0.49356 -0.71335,0.47619 -0.7171,0.4588 -0.72068,0.44124 -0.7243,0.42349 -0.7279,0.40547 -0.73163,0.38708 -0.73553,0.36821 -0.73961,0.34882 -0.74387,0.32884 -0.7483,0.3082 -0.75287,0.28686 -0.75759,0.26482 -0.76228,0.24199 -0.76698,0.2184 -0.77158,0.19409 -0.77594,0.16902 -0.78,0.14333 -0.78364,0.117 -0.78678,0.0901 -0.78926,0.0628 -0.79104,0.0352 -0.79197,0.007 -0.79199,-0.0207 -0.791,-0.0486 -0.78897,-0.0764 -0.78575,-0.10378 -0.78142,-0.13077 -0.77585,-0.15712 -0.76905,-0.18269 -0.76104,-0.20741 -0.75181,-0.23111 -0.74143,-0.25366 -0.72989,-0.27503 -0.71727,-0.29506 -0.70364,-0.31369 -0.68909,-0.33091 -0.67367,-0.34665 -0.65752,-0.36094 -0.64072,-0.3737 -0.62333,-0.38504 -0.60553,-0.39496 -0.58737,-0.40351 -0.56897,-0.41083 -0.5504,-0.41691 -0.5318,-0.4219 -0.51317,-0.42595 -0.49468,-0.42914 -0.47628,-0.43157 -0.45813,-0.43346 -0.44017,-0.43484 -0.42253,-0.43589 -0.40516,-0.43674 -0.38803,-0.43747 -0.3712,-0.4382 -0.35466,-0.43904 -0.33833,-0.44003 -0.32224,-0.4413 -0.30632,-0.44281 -0.2906,-0.44435 L 83.88329,99.18117 83.6241,98.73192 83.38055,98.27995 83.15262,97.82504 82.9404,97.36703 82.74396,96.90588 82.56335,96.4416 82.39868,95.97435 82.25003,95.5044 82.11748,95.03214 82.001,94.55814 81.90065,94.08304 81.8163,93.60771 81.74779,93.1331 l -0.05286,-0.4728 -0.03755,-0.4698 -0.02269,-0.46543 -0.0084,-0.45966 0.0053,-0.45239 0.01822,-0.44356 0.03025,-0.43312 0.04122,-0.42108 0.05105,-0.40741 0.05964,-0.39218 0.06685,-0.37541 0.07263,-0.35724 0.07686,-0.33765 0.07947,-0.31689 0.08047,-0.29506 0.07975,-0.27231 0.07734,-0.24883 0.07327,-0.22482 0.06756,-0.20047 0.06022,-0.17599 0.05139,-0.15166 0.04114,-0.12763 0.0296,-0.10412 0.01693,-0.08138 0.0032,-0.05961 -0.01128,-0.03897 -0.02641,-0.01969 -0.04197,-0.0019 -0.05775,0.01428 -0.07353,0.02869 -0.08912,0.04126 -0.10427,0.05186 -0.11879,0.06053 -0.13246,0.06723 -0.14513,0.07189 -0.15657,0.07466 -0.16668,0.0755 -0.17528,0.07455 -0.18224,0.07187 -0.18752,0.06766 -0.19101,0.06198 -0.1927,0.05501 -0.19255,0.04695 -0.19061,0.03793 -0.18691,0.0282 -0.18148,0.01789 -0.17452,0.0072 -0.16606,-0.0036 -0.15625,-0.01451 -0.14534,-0.02523 -0.13341,-0.03565 -0.12072,-0.04558 -0.10741,-0.05493 -0.09381,-0.06358 -0.08004,-0.07148 -0.06631,-0.07852 -0.0529,-0.08464 -0.04,-0.08984 -0.02772,-0.09416 -0.01637,-0.09752 -0.006,-0.10004 0.0032,-0.1017 0.01108,-0.10262 0.01761,-0.10285 0.0227,-0.1025 0.02634,-0.10165 0.02844,-0.10044 0.02912,-0.0989 0.02836,-0.09726 0.02628,-0.09555 0.02293,-0.09386 0.01848,-0.09233 0.01306,-0.09102 0.0068,-0.09003 v -0.08937 l -0.0073,-0.08915 -0.01478,-0.08934 -0.02229,-0.08999"
       style="fill:#0072bd;fill-opacity:0.15;fill-rule:nonzero;stroke:#0072bd;stroke-width:0.99628;stroke-linecap:butt;stroke-linejoin:miter;stroke-miterlimit:10;stroke-dasharray:none;stroke-opacity:1"
       transform="matrix(1.3333333,0,0,-1.3333333,730.924,223.328)"
       clip-path="url(#clipPath11)" />
    <path
       id="path12"
       d="m 85.87584,83.88329 c 0,1.10047 -0.89208,1.99255 -1.99255,1.99255 -1.10047,0 -1.99256,-0.89208 -1.99256,-1.99255 0,-1.10047 0.89209,-1.99256 1.99256,-1.99256 1.10047,0 1.99255,0.89209 1.99255,1.99256 z"
       style="fill:#d9d9d9;fill-opacity:1;fill-rule:nonzero;stroke:#d9d9d9;stroke-width:0.99628;stroke-linecap:butt;stroke-linejoin:miter;stroke-miterlimit:10;stroke-dasharray:none;stroke-opacity:1"
       transform="matrix(1.3333333,0,0,-1.3333333,730.924,223.328)" />
  </g>
</svg>
