<?xml version="1.0" encoding="UTF-8" standalone="no"?>
<!-- Created with Inkscape (http://www.inkscape.org/) -->

<svg
   version="1.1"
   id="svg1"
   width="223.68533"
   height="223.68533"
   viewBox="0 0 223.68533 223.68533"
   xmlns="http://www.w3.org/2000/svg"
   xmlns:svg="http://www.w3.org/2000/svg">
  <defs
     id="defs1">
    <clipPath
       clipPathUnits="userSpaceOnUse"
       id="clipPath17">
      <path
         d="M 0,0 H 167.76659 V 167.76659 H 0 Z"
         transform="translate(-2.5000001e-5)"
         id="path17" />
    </clipPath>
  </defs>
  <g
     id="g15"
     transform="translate(-1218.4268)">
    <path
       id="path16"
       d="m 79.00938,83.96837 0.0035,-0.08508 0.0045,-0.08493 0.0054,-0.08481 0.0062,-0.08467 0.0071,-0.08454 0.008,-0.08444 0.0089,-0.0843 0.0098,-0.0842 0.01086,-0.08406 0.01204,-0.08391 0.01334,-0.08374 0.01474,-0.0835 0.01633,-0.08323 0.01806,-0.08288 0.01999,-0.08242 0.0221,-0.0819 0.02433,-0.0812 0.0268,-0.08046 0.02939,-0.07952 0.0321,-0.07846 0.03499,-0.07725 0.03792,-0.07587 0.04095,-0.07434 0.04405,-0.07263 0.04712,-0.07079 0.05019,-0.06884 0.05319,-0.06673 0.05608,-0.06452 0.05882,-0.06225 0.0614,-0.05991 0.06374,-0.05757 0.06584,-0.05525 0.0676,-0.05298 0.06904,-0.05081 0.07012,-0.04883 0.07077,-0.04707 0.071,-0.04555 0.07078,-0.04437 0.07012,-0.04358 0.06894,-0.04328 0.06729,-0.04344 0.06515,-0.0442 0.06252,-0.04561 0.05944,-0.04773 0.05591,-0.05063 0.05196,-0.05432 0.04763,-0.05889 0.04293,-0.0644 0.03793,-0.07088 0.0327,-0.07835 0.02724,-0.0869 0.0217,-0.0965 0.01603,-0.10718 0.01041,-0.11898 0.0049,-0.13189 -5.3e-4,-0.14592 -0.0057,-0.16102 L 81.06248,79.53964 81.04756,79.34518 81.0287,79.13246 81.00647,78.9005 80.98154,78.64839 80.95462,78.37526 80.92654,78.08035 80.89818,77.7629 80.87048,77.42232 80.8445,77.05803 80.82126,76.66959 80.80193,76.25667 80.7877,75.819 80.7798,75.35646 80.77943,74.869 l 0.0085,-0.51223 0.01867,-0.53688 0.03016,-0.56112 0.04295,-0.58496 0.05709,-0.6082 0.07252,-0.63078 0.08925,-0.65254 0.10724,-0.67337 0.12645,-0.69319 0.14684,-0.71187 0.16836,-0.7293 0.19096,-0.74536 0.21458,-0.75996 0.23911,-0.77307 0.26455,-0.78453 0.29074,-0.7943 0.31762,-0.80231 0.34514,-0.80844 0.37313,-0.81273 0.40155,-0.81503 0.43025,-0.81541 0.45918,-0.81371 0.48821,-0.81001 0.51719,-0.80423 0.54607,-0.7964 0.57474,-0.7865 0.60302,-0.77455 0.63086,-0.76055 0.65819,-0.74455 0.68482,-0.72656 0.7107,-0.70666 0.73572,-0.68482 0.7598,-0.66121 0.78281,-0.63584 0.8047,-0.60873 0.82538,-0.58003 0.84477,-0.54981 0.86282,-0.51814 0.87944,-0.48515 0.89459,-0.45092 0.90819,-0.41552 0.92027,-0.37915 0.93074,-0.34183 0.93958,-0.30374 0.94678,-0.26496 0.95231,-0.22563 0.9562,-0.18583 0.95846,-0.14576 0.95905,-0.10547 0.95802,-0.06507 0.95544,-0.02475 0.95128,0.01542 0.94564,0.05538 0.93849,0.09492 0.92997,0.134 0.92011,0.17251 0.90895,0.21037 0.89659,0.24748 0.8831,0.28375 0.86856,0.31913 0.85305,0.35351 0.83662,0.38689 0.8194,0.41919 0.80147,0.45031 0.78288,0.48034 0.76375,0.50909 0.74414,0.53671 0.72415,0.56304 0.70386,0.58815 0.6833,0.612 0.66261,0.63464 0.64184,0.65607 0.62098,0.67626 0.60019,0.69532 0.57947,0.71319 0.55885,0.72997 0.53844,0.74567 0.51822,0.76033 0.49821,0.77397 0.47847,0.7867 0.459,0.79852 0.43984,0.80948 0.42094,0.81965 0.40236,0.82903 0.38405,0.83774 0.36606,0.84575 0.34831,0.85316 0.33082,0.86002 0.3136,0.8663 0.2966,0.8721 0.27977,0.87743 0.26314,0.88234 0.24664,0.88683 0.23032,0.89095 0.21404,0.89472 0.19786,0.89813 0.18173,0.90123 0.16565,0.90399 0.14956,0.90651 0.13349,0.90871 0.11739,0.91058 0.10122,0.91218 0.085,0.91355 0.0688,0.91456 0.0525,0.91533 0.0362,0.91576 0.0197,0.91594 0.003,0.9158 -0.0133,0.91535 0.0133,0.91534 -0.003,0.9158 -0.0197,0.91594 -0.0362,0.91576 -0.0525,0.91533 -0.0688,0.91456 -0.085,0.91355 -0.10122,0.91218 -0.11739,0.91059 -0.13349,0.9087 -0.14956,0.90651 -0.16565,0.90399 -0.18173,0.90123 -0.19786,0.89813 -0.21404,0.89472 -0.23032,0.89094 -0.24664,0.88684 -0.26314,0.88235 -0.27977,0.87742 -0.2966,0.8721 -0.3136,0.8663 -0.33082,0.86002 -0.34831,0.85317 -0.36606,0.84574 -0.38405,0.83774 -0.40236,0.82903 -0.42094,0.81965 -0.43984,0.80948 -0.459,0.79853 -0.47847,0.78669 -0.49821,0.77398 -0.51822,0.76032 -0.53844,0.74567 -0.55885,0.72997 -0.57947,0.71319 -0.60019,0.69531 -0.62098,0.67627 -0.64184,0.65607 -0.66261,0.63464 -0.6833,0.612 -0.70386,0.58816 -0.72415,0.56303 -0.74414,0.53671 -0.76375,0.5091 -0.78288,0.48033 -0.80147,0.45031 -0.8194,0.41919 -0.83662,0.38689 -0.85305,0.35352 -0.86856,0.31912 -0.8831,0.28375 -0.89659,0.24748 -0.90895,0.21036 -0.92011,0.17251 -0.92997,0.13401 -0.93849,0.0949 -0.94564,0.0554 -0.95128,0.0154 -0.95544,-0.0247 -0.95802,-0.0651 -0.95905,-0.10546 -0.95846,-0.14575 -0.9562,-0.18584 -0.95231,-0.22563 -0.94678,-0.26496 -0.93958,-0.30374 -0.93074,-0.34182 -0.92027,-0.37916 -0.90819,-0.41552 -0.89459,-0.45092 -0.87944,-0.48515 -0.86282,-0.51814 -0.84477,-0.54981 -0.82538,-0.58003 -0.8047,-0.60873 -0.78281,-0.63584 -0.7598,-0.6612 -0.73572,-0.68484 -0.7107,-0.70665 -0.68482,-0.72656 -0.65819,-0.74455 -0.63086,-0.76054 -0.60302,-0.77456 -0.57474,-0.7865 -0.54607,-0.7964 -0.51719,-0.80423 -0.48821,-0.81001 -0.45918,-0.8137 -0.43025,-0.81542 -0.40155,-0.81503 -0.37313,-0.81273 -0.34514,-0.80844 -0.31762,-0.80231 -0.29074,-0.7943 L 82.29211,102.0704 82.053,101.29733 81.83842,100.53737 81.64746,99.792 81.4791,99.06271 81.33226,98.35085 81.20581,97.65765 81.09857,96.98428 81.00932,96.33174 80.9368,95.70096 80.87971,95.09276 80.83676,94.5078 80.8066,93.94669 80.78793,93.4098 l -0.0085,-0.51223 3.7e-4,-0.48746 0.0079,-0.46254 0.01423,-0.43767 0.01933,-0.41292 0.02324,-0.38844 0.02598,-0.36429 0.0277,-0.34057 0.02836,-0.31746 0.02808,-0.29491 0.02692,-0.27313 0.02493,-0.25211 0.02223,-0.23196 0.01886,-0.21272 0.01492,-0.19446 0.01053,-0.17722 0.0057,-0.16102 5.3e-4,-0.14592 -0.0049,-0.13188 -0.01041,-0.11899 -0.01603,-0.10718 -0.0217,-0.0965 -0.02724,-0.0869 -0.0327,-0.07835 L 80.92833,87.0521 80.8854,86.98769 80.83777,86.9288 80.78581,86.87448 80.7299,86.82385 80.67046,86.77612 80.60794,86.73051 80.54279,86.68631 80.4755,86.64287 80.40656,86.5996 80.33644,86.55602 80.26566,86.51164 80.19466,86.4661 80.12389,86.41902 80.05377,86.3702 79.98473,86.31938 79.91713,86.2664 79.85129,86.21115 79.78755,86.15358 79.72615,86.09367 79.66733,86.03142 79.61125,85.9669 79.55806,85.90018 79.50787,85.83133 79.46075,85.76054 79.4167,85.68791 79.37575,85.61357 79.33783,85.5377 l -0.03499,-0.07725 -0.0321,-0.07846 -0.02939,-0.07952 -0.0268,-0.08045 -0.02433,-0.08121 -0.0221,-0.0819 -0.01999,-0.08242 -0.01806,-0.08287 -0.01633,-0.08324 -0.01474,-0.0835 -0.01334,-0.08374 -0.01204,-0.08391 -0.01086,-0.08406 -0.0098,-0.08419 -0.0089,-0.08431 -0.008,-0.08444 -0.0071,-0.08453 -0.0062,-0.08468 -0.0054,-0.0848 -0.0045,-0.08493 -0.0035,-0.08509"
       style="fill:#0072bd;fill-opacity:0.15;fill-rule:nonzero;stroke:#0072bd;stroke-width:0.99628;stroke-linecap:butt;stroke-linejoin:miter;stroke-miterlimit:10;stroke-dasharray:none;stroke-opacity:1"
       transform="matrix(1.3333333,0,0,-1.3333333,1218.2947,223.328)"
       clip-path="url(#clipPath17)" />
    <path
       id="path18"
       d="m 85.87584,83.88329 c 0,1.10047 -0.89208,1.99255 -1.99255,1.99255 -1.10047,0 -1.99256,-0.89208 -1.99256,-1.99255 0,-1.10047 0.89209,-1.99256 1.99256,-1.99256 1.10047,0 1.99255,0.89209 1.99255,1.99256 z"
       style="fill:#d9d9d9;fill-opacity:1;fill-rule:nonzero;stroke:#d9d9d9;stroke-width:0.99628;stroke-linecap:butt;stroke-linejoin:miter;stroke-miterlimit:10;stroke-dasharray:none;stroke-opacity:1"
       transform="matrix(1.3333333,0,0,-1.3333333,1218.2947,223.328)" />
  </g>
</svg>
