<?xml version="1.0" encoding="UTF-8" standalone="no"?>
<!-- Created with Inkscape (http://www.inkscape.org/) -->

<svg
   version="1.1"
   id="svg1"
   width="223.68533"
   height="223.68533"
   viewBox="0 0 223.68533 223.68533"
   xmlns="http://www.w3.org/2000/svg"
   xmlns:svg="http://www.w3.org/2000/svg">
  <defs
     id="defs1">
    <clipPath
       clipPathUnits="userSpaceOnUse"
       id="clipPath20">
      <path
         d="M 0,0 H 167.76659 V 167.76659 H 0 Z"
         id="path20" />
    </clipPath>
  </defs>
  <g
     id="g18"
     transform="translate(-1462.1121)">
    <path
       id="path19"
       d="m 81.40556,83.92653 0.01192,-0.04324 -0.0017,-0.04308 -0.0152,-0.04362 -0.02841,-0.04491 -0.04104,-0.04686 -0.05298,-0.04946 -0.06403,-0.05262 -0.07399,-0.05628 -0.0827,-0.06033 L 80.9673,83.42145 80.87123,83.35219 80.77078,83.27827 80.6675,83.19975 80.56302,83.11674 80.45897,83.02951 80.35696,82.93842 80.25853,82.8439 80.16516,82.74654 80.07822,82.64694 79.999,82.54582 79.92856,82.44388 79.8679,82.34193 79.81781,82.24074 79.77888,82.14107 79.75153,82.0437 l -0.01558,-0.09436 -0.0038,-0.0907 0.0078,-0.08647 0.01906,-0.08179 0.02968,-0.07675 0.03959,-0.07149 0.04857,-0.06614 0.05651,-0.06088 0.06324,-0.05584 0.06873,-0.05122 0.07275,-0.04716 0.0754,-0.04386 0.07655,-0.04144 0.07619,-0.04013 0.07435,-0.04001 0.07106,-0.04131 0.06639,-0.04406 0.0604,-0.04847 0.05319,-0.05459 0.04491,-0.0625 0.03566,-0.07231 0.02563,-0.08399 0.01495,-0.09763 0.0038,-0.11315 -0.0076,-0.13063 -0.01906,-0.14995 -0.03044,-0.17104 -0.04153,-0.19386 -0.05217,-0.21832 -0.06212,-0.24425 -0.07127,-0.27156 -0.07943,-0.30008 -0.08645,-0.32968 -0.0922,-0.3602 -0.09654,-0.39145 -0.09942,-0.42333 -0.10068,-0.45555 -0.10027,-0.48806 -0.09816,-0.52066 -0.09428,-0.5532 -0.08862,-0.58551 -0.08114,-0.61749 -0.07186,-0.64895 -0.0608,-0.67988 -0.04798,-0.7101 -0.03344,-0.73953 -0.01721,-0.76814 6.7e-4,-0.79581 0.02012,-0.82254 0.04107,-0.84825 0.06351,-0.87297 0.08737,-0.89662 0.11255,-0.91924 0.13902,-0.94078 0.16673,-0.96128 0.19562,-0.98073 0.22566,-0.99911 0.25675,-1.01643 0.28891,-1.03271 0.32204,-1.04786 0.3561,-1.06197 0.39118,-1.07495 0.42708,-1.08673 0.46381,-1.09731 0.5014,-1.10658 0.53969,-1.11452 0.57871,-1.121 0.61838,-1.1259 0.65865,-1.12914 0.6994,-1.13055 0.74057,-1.13007 0.78209,-1.12744 0.82381,-1.12264 0.86558,-1.11535 0.90734,-1.10559 0.94885,-1.09305 0.99,-1.07767 1.0306,-1.05926 1.07037,-1.03769 1.10926,-1.01286 1.14688,-0.98464 1.18309,-0.95293 1.21766,-0.91766 1.25031,-0.8788 1.28079,-0.83633 1.3089,-0.79024 1.33435,-0.74062 1.35687,-0.68747 1.37636,-0.6309 1.39244,-0.57114 1.40503,-0.5082 1.41388,-0.4424 1.41884,-0.37394 1.41978,-0.30304 1.41657,-0.22996 1.40913,-0.15514 1.39742,-0.07878 1.3814,-0.0013 1.36107,0.077 1.33651,0.15567 1.30777,0.23434 1.27496,0.31264 1.23825,0.39015 1.1978,0.46649 1.15385,0.54129 1.10665,0.61414 1.05641,0.68472 1.00353,0.75267 0.94825,0.81769 0.89095,0.87948 0.83197,0.93776 0.77169,0.99236 0.71053,1.04298 0.64881,1.08956 0.58695,1.1319 0.52538,1.16992 0.46437,1.20359 0.40442,1.23291 0.34578,1.25783 0.28883,1.27846 0.23392,1.29486 0.18129,1.30715 0.13122,1.31548 0.084,1.32006 0.0398,1.32104 -0.001,1.31865 -0.0389,1.31319 -0.0731,1.30484 -0.10371,1.29393 -0.13072,1.2807 -0.15412,1.26544 -0.17387,1.24852 -0.19006,1.23006 -0.20276,1.21054 -0.21201,1.19009 -0.21797,1.16907 -0.22076,1.14772 -0.22055,1.12627 -0.2175,1.10496 -0.21179,1.08408 -0.20366,1.0637 -0.19326,1.04416 -0.18083,1.02553 -0.16661,1.00797 -0.15077,0.99165 -0.13359,0.97665 -0.11518,0.96311 -0.0959,0.95108 -0.0758,0.94059 -0.0552,0.9318 -0.0343,0.92462 -0.0131,0.91911 0.008,0.91533 0.0289,0.9132 0.0495,0.91272 0.0696,0.91391 -0.0696,0.91391 -0.0495,0.91272 -0.0289,0.91319 -0.008,0.91533 0.0131,0.91911 0.0343,0.92462 0.0552,0.93179 0.0758,0.9406 0.0959,0.95108 0.11518,0.96311 0.13359,0.97665 0.15077,0.99165 0.16661,1.00797 0.18083,1.02553 0.19326,1.04415 0.20366,1.06371 0.21179,1.08408 0.2175,1.10496 0.22055,1.12627 0.22076,1.14772 0.21797,1.16906 0.21201,1.1901 0.20276,1.21054 0.19006,1.23006 0.17387,1.24852 0.15412,1.26544 0.13072,1.2807 0.10371,1.29393 0.0731,1.30484 0.0389,1.31319 0.001,1.31865 -0.0398,1.32104 -0.084,1.32006 -0.13122,1.31549 -0.18129,1.30714 -0.23392,1.29486 -0.28883,1.27846 -0.34578,1.25783 -0.40442,1.23291 -0.46437,1.20359 -0.52538,1.16993 -0.58695,1.13189 -0.64881,1.08956 -0.71053,1.04298 -0.77169,0.99236 -0.83197,0.93776 -0.89095,0.87948 -0.94825,0.81769 -1.00353,0.75267 -1.05641,0.68471 -1.10665,0.61415 -1.15385,0.54129 -1.1978,0.46649 -1.23825,0.39015 -1.27496,0.31264 -1.30777,0.23434 -1.33651,0.15567 -1.36107,0.077 -1.3814,-0.001 -1.39742,-0.0788 -1.40913,-0.15514 -1.41657,-0.22996 -1.41978,-0.30305 -1.41884,-0.37392 -1.41388,-0.4424 -1.40503,-0.50821 -1.39244,-0.57114 -1.37636,-0.6309 -1.35687,-0.68747 -1.33435,-0.74062 -1.3089,-0.79024 -1.28079,-0.83633 -1.25031,-0.8788 -1.21766,-0.91767 -1.18309,-0.95292 -1.14688,-0.98463 -1.10926,-1.01287 -1.07037,-1.03768 -1.0306,-1.05927 -0.99,-1.07767 -0.94885,-1.09305 -0.90734,-1.10559 -0.86558,-1.11535 -0.82381,-1.12264 -0.78209,-1.12744 -0.74057,-1.13007 -0.6994,-1.13055 -0.65865,-1.12914 -0.61838,-1.1259 -0.57871,-1.121 -0.53969,-1.11452 -0.5014,-1.10658 -0.46381,-1.0973 -0.42708,-1.08673 -0.39118,-1.07496 -0.3561,-1.06196 -0.32204,-1.04787 -0.28891,-1.03271 -0.25675,-1.01642 -0.22566,-0.99913 -0.19562,-0.98072 -0.16673,-0.96128 -0.13902,-0.94078 -0.11255,-0.91924 -0.08737,-0.89662 -0.06351,-0.87297 -0.04107,-0.84825 -0.02012,-0.82254 -6.7e-4,-0.79581 0.01721,-0.76814 0.03344,-0.73954 0.04798,-0.71009 0.0608,-0.67987 0.07186,-0.64896 0.08114,-0.61749 0.08862,-0.58551 0.09428,-0.5532 0.09816,-0.52066 0.10027,-0.48806 0.10068,-0.45557 0.09942,-0.42331 0.09654,-0.39145 0.0922,-0.36019 0.08645,-0.32969 0.07943,-0.30009 0.07127,-0.27155 0.06212,-0.24425 0.05217,-0.21832 0.04153,-0.19386 0.03044,-0.17104 0.01906,-0.14995 0.0076,-0.13063 -0.0038,-0.11316 -0.01495,-0.09762 -0.02563,-0.08399 -0.03566,-0.07231 -0.04491,-0.0625 -0.05319,-0.05459 -0.0604,-0.04847 -0.06639,-0.04406 -0.07106,-0.04131 -0.07435,-0.04001 -0.07619,-0.04013 -0.07655,-0.04146 -0.0754,-0.04383 -0.07275,-0.04717 -0.06873,-0.05122 -0.06324,-0.05583 -0.05651,-0.06089 -0.04857,-0.06614 -0.03959,-0.07149 -0.02968,-0.07675 -0.01906,-0.08179 -0.0078,-0.08647 0.0038,-0.0907 0.01558,-0.09436 0.02735,-0.09737 0.03893,-0.09967 0.05009,-0.10119 0.06066,-0.10194 0.07044,-0.10195 0.07922,-0.10112 0.08694,-0.0996 0.09337,-0.09736 0.09843,-0.09451 0.10201,-0.0911 0.10405,-0.08723 0.10448,-0.08301 0.10328,-0.07852 0.10045,-0.07392 0.09607,-0.06926 0.09012,-0.06468 0.0827,-0.06033 0.07399,-0.05628 0.06403,-0.05263 0.05298,-0.04945 0.04104,-0.04685 0.02841,-0.04491 0.0152,-0.04363 0.0017,-0.04307 -0.01192,-0.04325"
       style="fill:#0072bd;fill-opacity:0.15;fill-rule:nonzero;stroke:#0072bd;stroke-width:0.99628;stroke-linecap:butt;stroke-linejoin:miter;stroke-miterlimit:10;stroke-dasharray:none;stroke-opacity:1"
       transform="matrix(1.3333333,0,0,-1.3333333,1461.98,223.328)"
       clip-path="url(#clipPath20)" />
    <path
       id="path21"
       d="m 85.87584,83.88329 c 0,1.10047 -0.89208,1.99255 -1.99255,1.99255 -1.10047,0 -1.99256,-0.89208 -1.99256,-1.99255 0,-1.10047 0.89209,-1.99256 1.99256,-1.99256 1.10047,0 1.99255,0.89209 1.99255,1.99256 z"
       style="fill:#d9d9d9;fill-opacity:1;fill-rule:nonzero;stroke:#d9d9d9;stroke-width:0.99628;stroke-linecap:butt;stroke-linejoin:miter;stroke-miterlimit:10;stroke-dasharray:none;stroke-opacity:1"
       transform="matrix(1.3333333,0,0,-1.3333333,1461.98,223.328)" />
  </g>
</svg>
