<?xml version="1.0" encoding="UTF-8" standalone="no"?>
<!-- Created with Inkscape (http://www.inkscape.org/) -->

<svg
   version="1.1"
   id="svg1"
   width="223.68533"
   height="223.68533"
   viewBox="0 0 223.68533 223.68533"
   xmlns="http://www.w3.org/2000/svg"
   xmlns:svg="http://www.w3.org/2000/svg">
  <defs
     id="defs1">
    <clipPath
       clipPathUnits="userSpaceOnUse"
       id="clipPath5">
      <path
         d="M 0,0 H 167.76659 V 167.76659 H 0 Z"
         transform="translate(2.5e-6)"
         id="path5" />
    </clipPath>
  </defs>
  <g
     id="g3"
     transform="translate(-243.68534)">
    <path
       id="path4"
       d="m 28.99417,84.84138 0.01145,-0.95809 0.05303,-0.95697 0.09452,-0.95424 0.13577,-0.94997 0.17671,-0.94408 0.21718,-0.93667 0.25707,-0.92775 0.29626,-0.91736 0.3347,-0.90553 0.37222,-0.89234 0.4088,-0.87779 0.44432,-0.86201 0.47872,-0.84499 0.51195,-0.82683 0.54391,-0.80763 0.57465,-0.78737 0.60405,-0.76619 0.63209,-0.74412 0.65881,-0.72124 0.68418,-0.69761 0.70814,-0.67329 0.73078,-0.64834 0.75202,-0.62281 0.77198,-0.59675 0.79059,-0.57022 0.8079,-0.54328 0.82395,-0.51591 0.83873,-0.48824 0.85229,-0.46025 0.86466,-0.43199 0.87584,-0.40347 0.88585,-0.3748 0.89471,-0.34597 0.9025,-0.31695 0.90909,-0.28789 0.91464,-0.25876 0.91908,-0.22963 0.92239,-0.20051 0.92461,-0.1715 0.92577,-0.14261 0.92575,-0.1139 0.92462,-0.08547 0.92239,-0.05734 0.91898,-0.02965 0.91443,-0.0024 0.9087,0.02427 0.90181,0.05028 0.89374,0.07552 0.88449,0.09994 0.87407,0.12337 0.86244,0.14575 0.8497,0.16695 0.83587,0.18684 0.82084,0.20537 0.80481,0.22237 0.78778,0.23777 0.76981,0.25145 0.7509,0.26332 0.7312,0.27329 0.7108,0.28129 0.68976,0.28722 0.66817,0.29105 0.64617,0.29267 0.62391,0.29214 0.60144,0.28936 0.57891,0.28435 0.55653,0.27712 0.53431,0.26768 0.51249,0.25607 0.49119,0.24234 0.47051,0.22663 0.4506,0.20891 0.43163,0.18934 0.41367,0.16808 0.39689,0.14523 0.38138,0.1209 0.36723,0.09529 0.35457,0.06856 0.34347,0.04089 0.33397,0.01248 0.32617,-0.01654 0.3201,-0.04588 0.3158,-0.07538 0.31323,-0.10491 0.31247,-0.13412 0.31349,-0.16297 0.31624,-0.19114 0.32071,-0.21853 0.32681,-0.2449 0.33452,-0.27011 0.34374,-0.29402 0.3544,-0.31645 0.36639,-0.33725 0.37962,-0.35635 0.39396,-0.3736 0.40933,-0.3889 0.4256,-0.40225 0.44261,-0.41349 0.46023,-0.42262 0.47843,-0.42964 0.49694,-0.4345 0.51578,-0.43721 0.53473,-0.4378 0.55369,-0.43626 0.5726,-0.43271 0.59126,-0.42713 0.60964,-0.4196 0.62763,-0.41023 0.64514,-0.39909 0.6621,-0.38625 0.67843,-0.37183 0.69405,-0.35592 0.70894,-0.33863 0.72303,-0.32006 0.73632,-0.30034 0.7487,-0.27957 0.76026,-0.25782 0.77085,-0.23527 0.78061,-0.21193 0.78942,-0.18797 0.79732,-0.16347 0.8043,-0.13849 0.8104,-0.11314 0.8156,-0.08751 0.81997,-0.06165 0.82345,-0.0356 0.8261,-0.0095 0.82794,0.01669 0.82897,0.04288 0.82922,0.06898 0.8287,0.09503 0.82744,0.12095 0.82546,0.14672 0.82272,0.17234 0.81932,0.1977 0.81519,0.22294 0.81036,0.24789 0.80489,0.27261 0.79869,0.29712 0.79185,0.32131 0.78435,0.34523 0.77615,0.36889 0.76731,0.39223 0.75776,0.41528 0.74759,0.43802 0.73677,0.4604 0.72524,0.48247 0.71306,0.50417 0.70025,0.52547 0.68677,0.54643 0.67264,0.56695 0.6579,0.58709 0.6425,0.60676 0.62648,0.62598 0.60989,0.64471 0.5927,0.66295 0.57492,0.68071 0.55658,0.69788 0.53778,0.71452 0.51839,0.73059 0.49856,0.74606 0.47826,0.76093 0.45753,0.77516 0.43639,0.78877 0.41489,0.8017 0.39302,0.81401 0.37086,0.82559 0.34841,0.83654 0.32566,0.84674 0.30275,0.85627 0.27959,0.8651 0.25627,0.87322 0.23281,0.88061 0.20922,0.88733 0.18557,0.89329 0.16178,0.89856 0.13801,0.90314 0.11419,0.90698 0.0904,0.91014 0.0666,0.9126 0.0428,0.91439 -0.0428,0.91438 -0.0666,0.9126 -0.0904,0.91013 -0.11419,0.90699 -0.13801,0.90314 -0.16178,0.89856 -0.18557,0.89329 -0.20922,0.88733 -0.23281,0.88062 -0.25627,0.87321 -0.27959,0.8651 -0.30275,0.85628 -0.32566,0.84674 -0.34841,0.83653 -0.37086,0.82559 -0.39302,0.81401 -0.41489,0.8017 -0.43639,0.78877 -0.45753,0.77516 -0.47826,0.76093 -0.49856,0.74606 -0.51839,0.73059 -0.53778,0.71452 -0.55658,0.69788 -0.57492,0.68071 -0.5927,0.66295 -0.60989,0.64471 -0.62648,0.62598 -0.6425,0.60677 -0.6579,0.58708 -0.67264,0.56695 -0.68677,0.54644 -0.70025,0.52546 -0.71306,0.50417 -0.72524,0.48247 -0.73677,0.4604 -0.74759,0.43802 -0.75776,0.41528 -0.76731,0.39223 -0.77615,0.3689 -0.78435,0.34523 -0.79185,0.3213 -0.79869,0.29712 -0.80489,0.27261 -0.81036,0.2479 -0.81519,0.22292 -0.81932,0.19772 -0.82272,0.17233 -0.82546,0.14673 -0.82744,0.12094 -0.8287,0.095 -0.82922,0.069 -0.82897,0.0429 -0.82794,0.0167 -0.8261,-0.009 -0.82345,-0.0356 -0.81997,-0.0616 -0.8156,-0.0875 -0.8104,-0.11315 -0.8043,-0.13849 -0.79732,-0.16346 -0.78942,-0.18798 -0.78061,-0.21193 -0.77085,-0.23527 -0.76026,-0.25783 -0.7487,-0.27956 -0.73632,-0.30033 -0.72303,-0.32008 -0.70894,-0.33862 -0.69405,-0.35592 -0.67843,-0.37183 -0.6621,-0.38624 -0.64514,-0.3991 -0.62763,-0.41023 -0.60964,-0.4196 -0.59126,-0.42713 -0.5726,-0.4327 -0.55369,-0.43627 -0.53473,-0.4378 -0.51578,-0.43721 -0.49694,-0.4345 -0.47843,-0.42964 -0.46023,-0.42262 -0.44261,-0.41349 -0.4256,-0.40225 -0.40933,-0.3889 -0.39396,-0.37359 -0.37962,-0.35636 -0.36639,-0.33725 -0.3544,-0.31645 -0.34374,-0.29402 -0.33452,-0.27011 -0.32681,-0.24491 -0.32071,-0.21852 -0.31624,-0.19114 -0.31349,-0.16297 -0.31247,-0.13413 -0.31323,-0.1049 -0.3158,-0.0754 -0.3201,-0.0459 -0.32617,-0.0165 -0.33397,0.0125 -0.34347,0.0409 -0.35457,0.0685 -0.36723,0.0953 -0.38138,0.12089 -0.39689,0.14523 -0.41367,0.16808 -0.43163,0.18935 -0.4506,0.2089 -0.47051,0.22662 -0.49119,0.24235 -0.51249,0.25607 -0.53431,0.26768 -0.55653,0.27712 -0.57891,0.28435 -0.60144,0.28937 -0.62391,0.29212 -0.64617,0.29268 -0.66817,0.29105 -0.68976,0.28721 -0.7108,0.2813 -0.7312,0.27329 -0.7509,0.26332 -0.76981,0.25145 -0.78778,0.23777 -0.80481,0.22237 -0.82084,0.20537 -0.83587,0.18684 -0.8497,0.16695 -0.86244,0.14575 -0.87407,0.12337 -0.88449,0.0999 -0.89374,0.0755 -0.90181,0.0503 -0.9087,0.0243 -0.91443,-0.002 -0.91898,-0.0297 -0.92239,-0.0573 -0.92462,-0.0855 -0.92575,-0.1139 -0.92577,-0.14261 -0.92461,-0.1715 -0.92239,-0.20051 -0.91908,-0.22963 -0.91464,-0.25876 -0.90909,-0.28789 -0.9025,-0.31697 -0.89471,-0.34594 -0.88585,-0.37481 -0.87584,-0.40347 -0.86466,-0.43199 -0.85229,-0.46025 -0.83873,-0.48824 -0.82395,-0.51591 -0.8079,-0.54328 -0.79059,-0.57022 -0.77198,-0.59676 -0.75202,-0.6228 -0.73078,-0.64834 -0.70814,-0.6733 -0.68418,-0.6976 L 35.14157,98.78513 34.50948,98.041 33.90543,97.27481 33.33078,96.48744 32.78687,95.67981 32.27492,94.85298 31.7962,94.008 31.35188,93.14598 30.94308,92.26819 30.57086,91.37585 30.23616,90.47032 29.9399,89.55296 29.68283,88.62521 29.46565,87.68854 29.28894,86.74446 29.15317,85.7945 29.05865,84.84026 29.00562,83.88329 28.99417,82.92519"
       style="fill:#0072bd;fill-opacity:0.15;fill-rule:nonzero;stroke:#0072bd;stroke-width:0.99628;stroke-linecap:butt;stroke-linejoin:miter;stroke-miterlimit:10;stroke-dasharray:none;stroke-opacity:1"
       transform="matrix(1.3333333,0,0,-1.3333333,243.55333,223.328)"
       clip-path="url(#clipPath5)" />
    <path
       id="path6"
       d="m 85.87584,83.88329 c 0,1.10047 -0.89208,1.99255 -1.99255,1.99255 -1.10047,0 -1.99256,-0.89208 -1.99256,-1.99255 0,-1.10047 0.89209,-1.99256 1.99256,-1.99256 1.10047,0 1.99255,0.89209 1.99255,1.99256 z"
       style="fill:#d9d9d9;fill-opacity:1;fill-rule:nonzero;stroke:#d9d9d9;stroke-width:0.99628;stroke-linecap:butt;stroke-linejoin:miter;stroke-miterlimit:10;stroke-dasharray:none;stroke-opacity:1"
       transform="matrix(1.3333333,0,0,-1.3333333,243.55333,223.328)" />
  </g>
</svg>
