<?xml version="1.0" encoding="UTF-8" standalone="no"?>
<!-- Created with Inkscape (http://www.inkscape.org/) -->

<svg
   version="1.1"
   id="svg1"
   width="482.716"
   height="166.16267"
   viewBox="0 0 482.716 166.16267"
   xmlns="http://www.w3.org/2000/svg"
   xmlns:svg="http://www.w3.org/2000/svg">
  <defs
     id="defs1" />
  <g
     id="g1">
    <path
       id="path1"
       d="m 117.10635,-64.99556 h 42.5202 v 16.6039 h -42.5202 z"
       style="fill:none;stroke:#d9d9d9;stroke-width:0.3985;stroke-linecap:butt;stroke-linejoin:miter;stroke-miterlimit:10;stroke-dasharray:none;stroke-opacity:1"
       transform="matrix(1.3333333,0,0,-1.3333333,4.2946667,-53.278667)" />
    <g
       id="g2"
       aria-label="+δ&#10;1&#10;(ψ)"
       transform="matrix(1.3333333,0,0,1.3333333,167.95333,25.633333)">
      <path
         id="path2"
         d="m 4.0779687,-2.2972656 h 2.7773438 c 0.140625,0 0.328125,0 0.328125,-0.1992188 0,-0.1992187 -0.1875,-0.1992187 -0.328125,-0.1992187 H 4.0779687 v -2.7890625 c 0,-0.1289063 0,-0.328125 -0.1992187,-0.328125 -0.1992188,0 -0.1992188,0.1992187 -0.1992188,0.328125 v 2.7890625 H 0.89046875 c -0.140625,0 -0.328125,0 -0.328125,0.1992187 0,0.1992188 0.1875,0.1992188 0.328125,0.1992188 H 3.6795312 v 2.80078123 c 0,0.12890625 0,0.328125 0.1992188,0.328125 0.1992187,0 0.1992187,-0.19921875 0.1992187,-0.328125 z m 0,0"
         style="fill:#d9d9d9;fill-opacity:1;fill-rule:nonzero;stroke:none" />
      <path
         id="path3"
         d="m 10.373867,-4.3480469 c -1.2421873,0.2929688 -2.2031248,1.59375 -2.2031248,2.7890625 0,0.96093753 0.6328125,1.67578128 1.5703125,1.67578128 1.1601563,0 1.9921873,-1.55859378 1.9921873,-2.94140628 0,-0.9023437 -0.398437,-1.3945312 -0.738281,-1.8515625 -0.351563,-0.4453125 -0.949219,-1.1953125 -0.949219,-1.6289062 0,-0.2226563 0.199219,-0.4570313 0.550781,-0.4570313 0.304688,0 0.503907,0.1289063 0.703125,0.2695313 0.199219,0.1171875 0.398438,0.2460937 0.550782,0.2460937 0.246093,0 0.398437,-0.234375 0.398437,-0.3984375 0,-0.2226562 -0.152344,-0.2460937 -0.515625,-0.328125 -0.515625,-0.1054687 -0.65625,-0.1054687 -0.820312,-0.1054687 -0.773438,0 -1.1367191,0.421875 -1.1367191,1.0195312 0,0.5390625 0.2929691,1.1015625 0.5976561,1.7109375 z m 0.128906,0.2109375 c 0.246094,0.4570313 0.539063,0.9960938 0.539063,1.7109375 0,0.6679688 -0.375,2.32031253 -1.3007813,2.32031253 -0.5507813,0 -0.9609375,-0.41015625 -0.9609375,-1.17187503 0,-0.6210937 0.375,-2.4960937 1.7226558,-2.859375 z m 0,0"
         style="fill:#d9d9d9;fill-opacity:1;fill-rule:nonzero;stroke:none" />
      <path
         id="path4"
         d="m 14.507656,-2.9359375 c 0,-0.1875 -0.01172,-0.1992187 -0.210937,-0.1992187 -0.445313,0.4335937 -1.078125,0.4453125 -1.359375,0.4453125 V -2.44375 c 0.164062,0 0.621093,0 1.007812,-0.1875 v 3.55078125 c 0,0.23437505 0,0.32812505 -0.691406,0.32812505 H 12.984219 V 1.49375 c 0.128906,-0.011719 0.984375,-0.023437 1.242187,-0.023437 0.210938,0 1.089844,0.011719 1.242188,0.023437 V 1.2476563 h -0.257813 c -0.703125,0 -0.703125,-0.09375 -0.703125,-0.32812505 z m 0,0"
         style="fill:#d9d9d9;fill-opacity:1;fill-rule:nonzero;stroke:none" />
      <path
         id="path5"
         d="m 19.939297,2.3902344 c 0,-0.035156 0,-0.046875 -0.164063,-0.2226563 -1.242187,-1.25390622 -1.570312,-3.12890622 -1.570312,-4.6640625 0,-1.7226562 0.386719,-3.4570312 1.605469,-4.7109375 0.128906,-0.1171875 0.128906,-0.1289062 0.128906,-0.1640625 0,-0.070312 -0.03516,-0.1054687 -0.09375,-0.1054687 -0.105469,0 -0.996094,0.6796875 -1.582031,1.9453125 -0.515625,1.1015625 -0.632813,2.203125 -0.632813,3.0351562 0,0.7851563 0.117188,1.99218753 0.65625,3.11718753 0.597656,1.21874997 1.453125,1.87499997 1.558594,1.87499997 0.05859,0 0.09375,-0.035156 0.09375,-0.1054687 z m 0,0"
         style="fill:#d9d9d9;fill-opacity:1;fill-rule:nonzero;stroke:none" />
      <path
         id="path6"
         d="m 25.324062,-6.6566406 c 0.01172,-0.035156 0.02344,-0.09375 0.02344,-0.1523438 0,-0.09375 -0.07031,-0.1054687 -0.117188,-0.1054687 -0.09375,0 -0.105468,0.023437 -0.152343,0.1992187 l -1.652344,6.58593753 c -0.75,-0.09375 -1.136719,-0.45703125 -1.136719,-1.11328123 0,-0.1992188 0,-0.4570313 0.539063,-1.8515625 0.04687,-0.1289063 0.117187,-0.2929688 0.117187,-0.4921875 0,-0.4453125 -0.328125,-0.8203125 -0.820312,-0.8203125 -0.949219,0 -1.3125,1.453125 -1.3125,1.5351562 0,0.1054688 0.09375,0.1054688 0.117187,0.1054688 0.09375,0 0.105469,-0.023437 0.152344,-0.1875 0.269531,-0.9375 0.667969,-1.2304688 1.007812,-1.2304688 0.08203,0 0.257813,0 0.257813,0.3164063 0,0.2578125 -0.105469,0.515625 -0.234375,0.8554687 -0.480469,1.2539063 -0.480469,1.5117188 -0.480469,1.6875 0,0.94921878 0.785156,1.35937503 1.734375,1.41796878 -0.08203,0.3515625 -0.08203,0.375 -0.222656,0.90234375 -0.02344,0.10546877 -0.222656,0.91406247 -0.222656,0.94921877 0,0.011719 0,0.09375 0.117187,0.09375 0.02344,0 0.07031,0 0.09375,-0.035156 0.02344,-0.023437 0.08203,-0.2695312 0.117188,-0.4101562 l 0.375,-1.48828127 c 0.375,0 1.242187,0 2.179687,-1.06640625 0.410156,-0.45703128 0.621094,-0.89062498 0.726563,-1.19531248 0.09375,-0.2460938 0.316406,-1.1132813 0.316406,-1.546875 0,-0.5625 -0.269531,-0.703125 -0.445313,-0.703125 -0.246093,0 -0.492187,0.2578125 -0.492187,0.4804687 0,0.1289063 0.05859,0.1875 0.152344,0.2695313 0.105468,0.1054687 0.351562,0.3632812 0.351562,0.84375 0,0.6445312 -0.515625,1.453125 -0.867187,1.81640623 -0.878907,0.890625 -1.511719,0.890625 -1.875,0.890625 z m 0,0"
         style="fill:#d9d9d9;fill-opacity:1;fill-rule:nonzero;stroke:none" />
      <path
         id="path7"
         d="m 30.248867,-2.4964844 c 0,-0.7734375 -0.117187,-1.9804687 -0.65625,-3.1054687 -0.597656,-1.21875 -1.464844,-1.875 -1.558594,-1.875 -0.05859,0 -0.105468,0.046875 -0.105468,0.1054687 0,0.035156 0,0.046875 0.199218,0.234375 0.972657,0.984375 1.535157,2.5664063 1.535157,4.640625 0,1.71093753 -0.363282,3.45703128 -1.59375,4.7226563 -0.140625,0.1171875 -0.140625,0.1289062 -0.140625,0.1640625 0,0.058594 0.04687,0.1054687 0.105468,0.1054687 0.09375,0 0.996094,-0.6796875 1.582032,-1.94531247 0.503906,-1.1015625 0.632812,-2.20312503 0.632812,-3.04687503 z m 0,0"
         style="fill:#d9d9d9;fill-opacity:1;fill-rule:nonzero;stroke:none" />
    </g>
    <path
       id="path8"
       d="m 117.10635,-100.38202 h 42.5202 v 16.6039 h -42.5202 z"
       style="fill:none;stroke:#d9d9d9;stroke-width:0.3985;stroke-linecap:butt;stroke-linejoin:miter;stroke-miterlimit:10;stroke-dasharray:none;stroke-opacity:1"
       transform="matrix(1.3333333,0,0,-1.3333333,4.2946667,-53.278667)" />
    <g
       id="g8"
       aria-label="+δ&#10;2&#10;(ψ)"
       transform="matrix(1.3333333,0,0,1.3333333,167.95333,72.814667)">
      <path
         id="path9"
         d="m 4.0779687,-2.2955703 h 2.7773438 c 0.140625,0 0.328125,0 0.328125,-0.1992188 0,-0.1992187 -0.1875,-0.1992187 -0.328125,-0.1992187 H 4.0779687 v -2.7890625 c 0,-0.1289063 0,-0.328125 -0.1992187,-0.328125 -0.1992188,0 -0.1992188,0.1992187 -0.1992188,0.328125 v 2.7890625 H 0.89046875 c -0.140625,0 -0.328125,0 -0.328125,0.1992187 0,0.1992188 0.1875,0.1992188 0.328125,0.1992188 H 3.6795312 v 2.80078124 c 0,0.12890625 0,0.328125 0.1992188,0.328125 0.1992187,0 0.1992187,-0.19921875 0.1992187,-0.328125 z m 0,0"
         style="fill:#d9d9d9;fill-opacity:1;fill-rule:nonzero;stroke:none" />
      <path
         id="path10"
         d="m 10.373867,-4.3463516 c -1.2421873,0.2929688 -2.2031248,1.59375 -2.2031248,2.7890625 0,0.96093754 0.6328125,1.67578129 1.5703125,1.67578129 1.1601563,0 1.9921873,-1.55859379 1.9921873,-2.94140629 0,-0.9023437 -0.398437,-1.3945312 -0.738281,-1.8515625 -0.351563,-0.4453125 -0.949219,-1.1953125 -0.949219,-1.6289062 0,-0.2226563 0.199219,-0.4570313 0.550781,-0.4570313 0.304688,0 0.503907,0.1289063 0.703125,0.2695313 0.199219,0.1171875 0.398438,0.2460937 0.550782,0.2460937 0.246093,0 0.398437,-0.234375 0.398437,-0.3984375 0,-0.2226562 -0.152344,-0.2460937 -0.515625,-0.328125 -0.515625,-0.1054687 -0.65625,-0.1054687 -0.820312,-0.1054687 -0.773438,0 -1.1367191,0.421875 -1.1367191,1.0195312 0,0.5390625 0.2929691,1.1015625 0.5976561,1.7109375 z m 0.128906,0.2109375 c 0.246094,0.4570313 0.539063,0.9960938 0.539063,1.7109375 0,0.6679688 -0.375,2.32031254 -1.3007813,2.32031254 -0.5507813,0 -0.9609375,-0.41015625 -0.9609375,-1.17187504 0,-0.6210937 0.375,-2.4960937 1.7226558,-2.859375 z m 0,0"
         style="fill:#d9d9d9;fill-opacity:1;fill-rule:nonzero;stroke:none" />
      <path
         id="path11"
         d="m 15.69125,0.22982031 h -0.234375 c -0.02344,0.15234375 -0.08203,0.5625 -0.175781,0.6328125 -0.05859,0.0351563 -0.597657,0.0351563 -0.691407,0.0351563 h -1.289062 c 0.738281,-0.64453125 0.984375,-0.84375 1.394531,-1.171875 0.515625,-0.41015625 0.996094,-0.84374991 0.996094,-1.50000001 0,-0.84375 -0.738281,-1.359375 -1.628906,-1.359375 -0.867188,0 -1.453125,0.609375 -1.453125,1.2421875 0,0.3632813 0.304687,0.3984375 0.375,0.3984375 0.164062,0 0.375,-0.1171875 0.375,-0.375 0,-0.1289062 -0.05859,-0.3632813 -0.421875,-0.3632813 0.222656,-0.5039062 0.691406,-0.65625 1.019531,-0.65625 0.703125,0 1.066406,0.5507813 1.066406,1.1132813 0,0.609375 -0.433594,1.08984376 -0.65625,1.33593751 l -1.6875,1.66406249 c -0.07031,0.058594 -0.07031,0.070312 -0.07031,0.2695312 h 2.882812 z m 0,0"
         style="fill:#d9d9d9;fill-opacity:1;fill-rule:nonzero;stroke:none" />
      <path
         id="path12"
         d="m 19.939297,2.3919297 c 0,-0.035156 0,-0.046875 -0.164063,-0.2226563 -1.242187,-1.25390621 -1.570312,-3.12890621 -1.570312,-4.6640625 0,-1.7226562 0.386719,-3.4570312 1.605469,-4.7109375 0.128906,-0.1171875 0.128906,-0.1289062 0.128906,-0.1640625 0,-0.070312 -0.03516,-0.1054687 -0.09375,-0.1054687 -0.105469,0 -0.996094,0.6796875 -1.582031,1.9453125 -0.515625,1.1015625 -0.632813,2.203125 -0.632813,3.0351562 0,0.7851563 0.117188,1.99218754 0.65625,3.11718754 0.597656,1.21874996 1.453125,1.87499996 1.558594,1.87499996 0.05859,0 0.09375,-0.035156 0.09375,-0.1054687 z m 0,0"
         style="fill:#d9d9d9;fill-opacity:1;fill-rule:nonzero;stroke:none" />
      <path
         id="path13"
         d="m 25.324062,-6.6549453 c 0.01172,-0.035156 0.02344,-0.09375 0.02344,-0.1523438 0,-0.09375 -0.07031,-0.1054687 -0.117188,-0.1054687 -0.09375,0 -0.105468,0.023437 -0.152343,0.1992187 l -1.652344,6.58593754 c -0.75,-0.09375 -1.136719,-0.45703125 -1.136719,-1.11328124 0,-0.1992188 0,-0.4570313 0.539063,-1.8515625 0.04687,-0.1289063 0.117187,-0.2929688 0.117187,-0.4921875 0,-0.4453125 -0.328125,-0.8203125 -0.820312,-0.8203125 -0.949219,0 -1.3125,1.453125 -1.3125,1.5351562 0,0.1054688 0.09375,0.1054688 0.117187,0.1054688 0.09375,0 0.105469,-0.023437 0.152344,-0.1875 0.269531,-0.9375 0.667969,-1.2304688 1.007812,-1.2304688 0.08203,0 0.257813,0 0.257813,0.3164063 0,0.2578125 -0.105469,0.515625 -0.234375,0.8554687 -0.480469,1.2539063 -0.480469,1.5117188 -0.480469,1.6875 0,0.94921879 0.785156,1.35937504 1.734375,1.41796879 -0.08203,0.3515625 -0.08203,0.375 -0.222656,0.90234375 -0.02344,0.10546876 -0.222656,0.91406246 -0.222656,0.94921876 0,0.011719 0,0.09375 0.117187,0.09375 0.02344,0 0.07031,0 0.09375,-0.035156 0.02344,-0.023437 0.08203,-0.2695312 0.117188,-0.4101562 l 0.375,-1.48828126 c 0.375,0 1.242187,0 2.179687,-1.06640625 0.410156,-0.45703129 0.621094,-0.89062499 0.726563,-1.19531249 0.09375,-0.2460938 0.316406,-1.1132813 0.316406,-1.546875 0,-0.5625 -0.269531,-0.703125 -0.445313,-0.703125 -0.246093,0 -0.492187,0.2578125 -0.492187,0.4804687 0,0.1289063 0.05859,0.1875 0.152344,0.2695313 0.105468,0.1054687 0.351562,0.3632812 0.351562,0.84375 0,0.6445312 -0.515625,1.453125 -0.867187,1.81640624 -0.878907,0.890625 -1.511719,0.890625 -1.875,0.890625 z m 0,0"
         style="fill:#d9d9d9;fill-opacity:1;fill-rule:nonzero;stroke:none" />
      <path
         id="path14"
         d="m 30.248867,-2.4947891 c 0,-0.7734375 -0.117187,-1.9804687 -0.65625,-3.1054687 -0.597656,-1.21875 -1.464844,-1.875 -1.558594,-1.875 -0.05859,0 -0.105468,0.046875 -0.105468,0.1054687 0,0.035156 0,0.046875 0.199218,0.234375 0.972657,0.984375 1.535157,2.5664063 1.535157,4.640625 0,1.71093754 -0.363282,3.45703129 -1.59375,4.7226563 -0.140625,0.1171875 -0.140625,0.1289062 -0.140625,0.1640625 0,0.058594 0.04687,0.1054687 0.105468,0.1054687 0.09375,0 0.996094,-0.6796875 1.582032,-1.94531246 0.503906,-1.1015625 0.632812,-2.20312504 0.632812,-3.04687504 z m 0,0"
         style="fill:#d9d9d9;fill-opacity:1;fill-rule:nonzero;stroke:none" />
    </g>
    <path
       id="path15"
       d="m 117.10635,-164.11528 h 42.5202 v 16.6039 h -42.5202 z"
       style="fill:none;stroke:#d9d9d9;stroke-width:0.3985;stroke-linecap:butt;stroke-linejoin:miter;stroke-miterlimit:10;stroke-dasharray:none;stroke-opacity:1"
       transform="matrix(1.3333333,0,0,-1.3333333,4.2946667,-53.278667)" />
    <g
       id="g15"
       aria-label="+δ&#10;M&#10;(ψ)"
       transform="matrix(1.3333333,0,0,1.3333333,165.03733,157.79067)">
      <path
         id="path16"
         d="m 4.0794219,-2.2980781 h 2.7773437 c 0.140625,0 0.328125,0 0.328125,-0.1992188 0,-0.1992187 -0.1875,-0.1992187 -0.328125,-0.1992187 H 4.0794219 v -2.7890625 c 0,-0.1289063 0,-0.328125 -0.1992188,-0.328125 -0.1992187,0 -0.1992187,0.1992187 -0.1992187,0.328125 v 2.7890625 H 0.89192188 c -0.140625,0 -0.328125,0 -0.328125,0.1992187 0,0.1992188 0.1875,0.1992188 0.328125,0.1992188 H 3.6809844 v 2.80078123 c 0,0.12890625 0,0.328125 0.1992187,0.328125 0.1992188,0 0.1992188,-0.19921875 0.1992188,-0.328125 z m 0,0"
         style="fill:#d9d9d9;fill-opacity:1;fill-rule:nonzero;stroke:none" />
      <path
         id="path17"
         d="m 10.37532,-4.3488594 c -1.2421872,0.2929688 -2.2031247,1.59375 -2.2031247,2.7890625 0,0.96093753 0.6328125,1.67578128 1.5703125,1.67578128 1.1601562,0 1.9921872,-1.55859378 1.9921872,-2.94140628 0,-0.9023437 -0.398437,-1.3945312 -0.738281,-1.8515625 -0.351562,-0.4453125 -0.949219,-1.1953125 -0.949219,-1.6289062 0,-0.2226563 0.199219,-0.4570313 0.550782,-0.4570313 0.304687,0 0.503906,0.1289063 0.703125,0.2695313 0.199218,0.1171875 0.398437,0.2460937 0.550781,0.2460937 0.246094,0 0.398437,-0.234375 0.398437,-0.3984375 0,-0.2226562 -0.152343,-0.2460937 -0.515625,-0.328125 -0.515625,-0.1054687 -0.65625,-0.1054687 -0.820312,-0.1054687 -0.773438,0 -1.1367189,0.421875 -1.1367189,1.0195312 0,0.5390625 0.2929689,1.1015625 0.5976559,1.7109375 z m 0.128907,0.2109375 c 0.246093,0.4570313 0.539062,0.9960938 0.539062,1.7109375 0,0.6679688 -0.375,2.32031253 -1.3007812,2.32031253 -0.5507812,0 -0.9609375,-0.41015625 -0.9609375,-1.17187503 0,-0.6210937 0.375,-2.4960937 1.7226567,-2.859375 z m 0,0"
         style="fill:#d9d9d9;fill-opacity:1;fill-rule:nonzero;stroke:none" />
      <path
         id="path18"
         d="m 19.290359,-2.6994453 c 0.07031,-0.2578125 0.08203,-0.3164063 0.597657,-0.3164063 0.152343,0 0.234375,0 0.234375,-0.140625 0,-0.1054687 -0.08203,-0.1054687 -0.210938,-0.1054687 h -0.9375 c -0.210937,0 -0.210937,0 -0.304687,0.140625 L 15.973953,0.85133594 15.282547,-3.0744453 c -0.03516,-0.1875 -0.03516,-0.1875 -0.234375,-0.1875 h -1.007813 c -0.128906,0 -0.222656,0 -0.222656,0.1523437 0,0.09375 0.08203,0.09375 0.234375,0.09375 0.117188,0 0.140625,0 0.269531,0.011719 0.140625,0.011719 0.152344,0.035156 0.152344,0.1054687 0,0 0,0.046875 -0.03516,0.1523438 l -0.878906,3.49218749 c -0.05859,0.24609375 -0.164063,0.48046871 -0.714844,0.50390621 -0.05859,0 -0.152344,0 -0.152344,0.1523438 0,0 0.01172,0.09375 0.105469,0.09375 0.210937,0 0.503906,-0.023437 0.726562,-0.023437 0.164063,0 0.574219,0.023437 0.738282,0.023437 0.03516,0 0.140625,0 0.140625,-0.1523438 0,-0.09375 -0.09375,-0.09375 -0.152344,-0.09375 C 13.80598,1.2263366 13.80598,1.0505549 13.80598,0.95680489 c 0,-0.0351563 0,-0.0703125 0.02344,-0.17578125 l 0.925781,-3.71484374 h 0.01172 l 0.738281,4.2421875 c 0.02344,0.1289062 0.03516,0.1875 0.140625,0.1875 0.105469,0 0.152344,-0.082031 0.210938,-0.1523438 l 2.917968,-4.3476562 0.01172,0.011719 -0.984375,3.94921879 c -0.05859,0.23437501 -0.07031,0.29296871 -0.609375,0.29296871 -0.128906,0 -0.210937,0 -0.210937,0.1523438 0,0 0,0.09375 0.105468,0.09375 0.140625,0 0.292969,-0.023437 0.433594,-0.023437 0.140625,0 0.304688,0 0.445313,0 0.199218,0 0.691406,0.023437 0.878906,0.023437 0.04687,0 0.152344,0 0.152344,-0.1523438 0,-0.09375 -0.08203,-0.09375 -0.222657,-0.09375 -0.01172,0 -0.140625,0 -0.269531,-0.023437 -0.152344,-0.011719 -0.152344,-0.035156 -0.152344,-0.1054687 0,-0.035156 0.01172,-0.1054688 0.02344,-0.15234376 z m 0,0"
         style="fill:#d9d9d9;fill-opacity:1;fill-rule:nonzero;stroke:none" />
      <path
         id="path19"
         d="m 24.311844,2.3894219 c 0,-0.035156 0,-0.046875 -0.164063,-0.2226563 -1.242187,-1.25390622 -1.570312,-3.12890622 -1.570312,-4.6640625 0,-1.7226562 0.386719,-3.4570312 1.605469,-4.7109375 0.128906,-0.1171875 0.128906,-0.1289062 0.128906,-0.1640625 0,-0.070312 -0.03516,-0.1054687 -0.09375,-0.1054687 -0.105469,0 -0.996094,0.6796875 -1.582031,1.9453125 -0.515625,1.1015625 -0.632813,2.203125 -0.632813,3.0351562 0,0.7851563 0.117188,1.99218753 0.65625,3.11718753 0.597656,1.21874997 1.453125,1.87499997 1.558594,1.87499997 0.05859,0 0.09375,-0.035156 0.09375,-0.1054687 z m 0,0"
         style="fill:#d9d9d9;fill-opacity:1;fill-rule:nonzero;stroke:none" />
      <path
         id="path20"
         d="m 29.699539,-6.6574531 c 0.01172,-0.035156 0.02344,-0.09375 0.02344,-0.1523438 0,-0.09375 -0.07031,-0.1054687 -0.117188,-0.1054687 -0.09375,0 -0.105469,0.023437 -0.152344,0.1992187 l -1.652343,6.58593753 c -0.75,-0.09375 -1.136719,-0.45703125 -1.136719,-1.11328123 0,-0.1992188 0,-0.4570313 0.539062,-1.8515625 0.04687,-0.1289063 0.117188,-0.2929688 0.117188,-0.4921875 0,-0.4453125 -0.328125,-0.8203125 -0.820313,-0.8203125 -0.949218,0 -1.3125,1.453125 -1.3125,1.5351562 0,0.1054688 0.09375,0.1054688 0.117188,0.1054688 0.09375,0 0.105469,-0.023437 0.152344,-0.1875 0.269531,-0.9375 0.667968,-1.2304688 1.007812,-1.2304688 0.08203,0 0.257813,0 0.257813,0.3164063 0,0.2578125 -0.105469,0.515625 -0.234375,0.8554687 -0.480469,1.2539063 -0.480469,1.5117188 -0.480469,1.6875 0,0.94921878 0.785156,1.35937503 1.734375,1.41796878 -0.08203,0.3515625 -0.08203,0.375 -0.222656,0.90234375 -0.02344,0.10546877 -0.222657,0.91406247 -0.222657,0.94921877 0,0.011719 0,0.09375 0.117188,0.09375 0.02344,0 0.07031,0 0.09375,-0.035156 0.02344,-0.023438 0.08203,-0.2695312 0.117187,-0.4101562 l 0.375,-1.48828127 c 0.375,0 1.242188,0 2.179688,-1.06640625 0.410156,-0.45703128 0.621094,-0.89062498 0.726562,-1.19531248 0.09375,-0.2460938 0.316407,-1.1132813 0.316407,-1.546875 0,-0.5625 -0.269532,-0.703125 -0.445313,-0.703125 -0.246094,0 -0.492187,0.2578125 -0.492187,0.4804687 0,0.1289063 0.05859,0.1875 0.152343,0.2695313 0.105469,0.1054687 0.351563,0.3632812 0.351563,0.84375 0,0.6445312 -0.515625,1.453125 -0.867188,1.81640623 -0.878906,0.890625 -1.511718,0.890625 -1.875,0.890625 z m 0,0"
         style="fill:#d9d9d9;fill-opacity:1;fill-rule:nonzero;stroke:none" />
      <path
         id="path21"
         d="m 34.624344,-2.4972969 c 0,-0.7734375 -0.117188,-1.9804687 -0.65625,-3.1054687 -0.597656,-1.21875 -1.464844,-1.875 -1.558594,-1.875 -0.05859,0 -0.105469,0.046875 -0.105469,0.1054687 0,0.035156 0,0.046875 0.199219,0.234375 0.972656,0.984375 1.535156,2.5664063 1.535156,4.640625 0,1.71093753 -0.363281,3.45703128 -1.59375,4.7226563 -0.140625,0.1171875 -0.140625,0.1289062 -0.140625,0.1640625 0,0.058594 0.04687,0.1054687 0.105469,0.1054687 0.09375,0 0.996094,-0.6796875 1.582031,-1.94531247 0.503907,-1.1015625 0.632813,-2.20312503 0.632813,-3.04687503 z m 0,0"
         style="fill:#d9d9d9;fill-opacity:1;fill-rule:nonzero;stroke:none" />
    </g>
    <path
       id="path22"
       d="m 212.37445,-92.08006 c 0,6.62822 -5.37308,12.00129 -12.00128,12.00129 -6.62822,0 -12.0013,-5.37307 -12.0013,-12.00129 0,-6.62822 5.37308,-12.0013 12.0013,-12.0013 6.6282,0 12.00128,5.37308 12.00128,12.0013 z"
       style="fill:none;stroke:#d9d9d9;stroke-width:0.3985;stroke-linecap:butt;stroke-linejoin:miter;stroke-miterlimit:10;stroke-dasharray:none;stroke-opacity:1"
       transform="matrix(1.3333333,0,0,-1.3333333,4.2946667,-53.278667)" />
    <path
       id="path23"
       d="m 3.7042422,-3.2466562 c 0.09375,-0.1054688 0.09375,-0.140625 0.09375,-0.1640625 0,-0.046875 -0.046875,-0.09375 -0.070312,-0.140625 L 1.6886172,-6.49275 h 2.296875 c 1.6875,0 2.1796875,0.3515625 2.390625,1.9335938 h 0.2460937 l -0.28125,-2.25 H 0.82142969 c -0.24609375,0 -0.2578125,0 -0.2578125,0.234375 l 2.47265621,3.609375 -2.36718746,2.69531245 c -0.10546875,0.10546875 -0.10546875,0.12890625 -0.10546875,0.1640625 0,0.10546875 0.10546875,0.10546875 0.2578125,0.10546875 H 6.3409609 l 0.28125,-2.3554687 H 6.3761172 C 6.2003359,-0.69196875 5.5206484,-0.4224375 3.9503359,-0.4224375 H 1.2081484 Z m 0,0"
       style="fill:#d9d9d9;fill-opacity:1;fill-rule:nonzero;stroke:none"
       aria-label="Σ"
       transform="matrix(1.3333333,0,0,1.3333333,266.65867,74.032)" />
    <path
       id="path24"
       d="m 241.11977,-101.32689 h 42.5202 v 18.49365 h -42.5202 z"
       style="fill:none;stroke:#d9d9d9;stroke-width:0.3985;stroke-linecap:butt;stroke-linejoin:miter;stroke-miterlimit:10;stroke-dasharray:none;stroke-opacity:1"
       transform="matrix(1.3333333,0,0,-1.3333333,4.2946667,-53.278667)" />
    <path
       id="path25"
       d="m 2.3333125,-4.4282344 c 0,-0.1875 -0.011719,-0.1992187 -0.2109375,-0.1992187 C 1.6770625,-4.1938594 1.04425,-4.1821406 0.763,-4.1821406 v 0.2460937 c 0.1640625,0 0.6210937,0 1.0078125,-0.1875 v 3.55078128 c 0,0.234375 0,0.328125 -0.6914063,0.328125 H 0.809875 v 0.24609375 c 0.12890625,-0.01171875 0.984375,-0.0234375 1.2421875,-0.0234375 0.2109375,0 1.0898437,0.01171875 1.2421875,0.0234375 V -0.24464062 H 3.0364375 c -0.703125,0 -0.703125,-0.09375 -0.703125,-0.328125 z m 0,0"
       style="fill:#d9d9d9;fill-opacity:1;fill-rule:nonzero;stroke:none"
       aria-label="1"
       transform="matrix(1.3333333,0,0,1.3333333,351.48267,67.584)" />
    <path
       id="path26"
       d="M 0,0 H 8.345"
       style="fill:none;stroke:#d9d9d9;stroke-width:0.398;stroke-linecap:butt;stroke-linejoin:miter;stroke-miterlimit:10;stroke-dasharray:none;stroke-opacity:1"
       transform="matrix(1.3333333,0,0,-1.3333333,348.56667,69.493333)" />
    <path
       id="path27"
       d="m 7.1130859,-4.1954141 c 0.070312,-0.2578125 0.082031,-0.3164062 0.5976563,-0.3164062 0.1523437,0 0.234375,0 0.234375,-0.140625 0,-0.1054688 -0.082031,-0.1054688 -0.2109375,-0.1054688 h -0.9375 c -0.2109375,0 -0.2109375,0 -0.3046875,0.140625 L 3.7966797,-0.64463281 3.1052734,-4.5704141 c -0.035156,-0.1875 -0.035156,-0.1875 -0.234375,-0.1875 H 1.8630859 c -0.1289062,0 -0.2226562,0 -0.2226562,0.1523438 0,0.09375 0.082031,0.09375 0.234375,0.09375 0.1171875,0 0.140625,0 0.2695312,0.011719 0.140625,0.011719 0.1523438,0.035156 0.1523438,0.1054688 0,0 0,0.046875 -0.035156,0.1523437 l -0.8789062,3.49218754 c -0.058594,0.24609375 -0.1640625,0.48046875 -0.71484376,0.50390625 -0.0585938,0 -0.15234375,0 -0.15234375,0.15234375 0,0 0.0117188,0.0937499975 0.10546875,0.0937499975 0.2109375,0 0.50390626,-0.0234374975 0.72656246,-0.0234374975 0.1640625,0 0.5742188,0.0234374975 0.7382813,0.0234374975 0.035156,0 0.140625,0 0.140625,-0.1523437475 0,-0.09375 -0.09375,-0.09375 -0.1523438,-0.09375 -0.4453125,-0.0234375 -0.4453125,-0.19921875 -0.4453125,-0.29296875 0,-0.0351563 0,-0.0703125 0.023437,-0.17578125 L 2.5779297,-4.4297891 h 0.011719 L 3.32793,-0.18760156 c 0.023437,0.12890625 0.035156,0.1874999975 0.140625,0.1874999975 0.1054687,0 0.1523437,-0.0820312475 0.2109375,-0.1523437475 l 2.9179687,-4.34765629 0.011719,0.011719 -0.984375,3.94921874 c -0.058594,0.234375 -0.070312,0.29296875 -0.609375,0.29296875 -0.1289063,0 -0.2109375,0 -0.2109375,0.15234375 0,0 0,0.0937499975 0.1054687,0.0937499975 0.140625,0 0.2929688,-0.0234374975 0.4335938,-0.0234374975 0.140625,0 0.3046875,0 0.4453125,0 0.1992187,0 0.6914062,0.0234374975 0.8789062,0.0234374975 0.046875,0 0.1523438,0 0.1523438,-0.1523437475 0,-0.09375 -0.082031,-0.09375 -0.2226563,-0.09375 -0.011719,0 -0.140625,0 -0.2695312,-0.0234375 -0.1523438,-0.0117188 -0.1523438,-0.0351563 -0.1523438,-0.10546875 0,-0.0351563 0.011719,-0.10546875 0.023437,-0.15234375 z m 0,0"
       style="fill:#d9d9d9;fill-opacity:1;fill-rule:nonzero;stroke:none"
       aria-label="M"
       transform="matrix(1.3333333,0,0,1.3333333,348.56667,77.394667)" />
    <g
       id="g27"
       aria-label="y&#10;DS&#10;[k,ψ]"
       transform="matrix(1.3333333,0,0,1.3333333,425.23067,72.814667)">
      <path
         id="path28"
         d="m 4.8396953,-3.7955703 c 0.046875,-0.140625 0.046875,-0.1523438 0.046875,-0.2226563 0,-0.1875 -0.140625,-0.2695312 -0.2929687,-0.2695312 -0.1054688,0 -0.2578125,0.058594 -0.3515625,0.1992187 -0.023437,0.058594 -0.09375,0.3632813 -0.140625,0.5390625 -0.070312,0.2578125 -0.140625,0.5273438 -0.1992188,0.796875 l -0.4453125,1.79296879 c -0.035156,0.15234375 -0.46875,0.85546875 -1.125,0.85546875 -0.5039062,0 -0.6210937,-0.4453125 -0.6210937,-0.80859375 0,-0.45703129 0.1757812,-1.07812499 0.515625,-1.95703129 0.1523437,-0.4101562 0.1992187,-0.515625 0.1992187,-0.7148437 0,-0.4453125 -0.328125,-0.8203125 -0.8203125,-0.8203125 -0.94921874,0 -1.31249999,1.453125 -1.31249999,1.5351562 0,0.1054688 0.09375,0.1054688 0.1171875,0.1054688 0.09375,0 0.10546875,-0.023437 0.15234375,-0.1875 0.26953125,-0.9375 0.66796874,-1.2304688 1.00781254,-1.2304688 0.082031,0 0.2578125,0 0.2578125,0.3164063 0,0.2460937 -0.1054688,0.515625 -0.1757813,0.703125 -0.3984375,1.0546875 -0.5742187,1.6171875 -0.5742187,2.0859375 0,0.89062499 0.6210937,1.18359374 1.21875,1.18359374 0.3867187,0 0.7265625,-0.1640625 0.9960937,-0.4453125 -0.1289062,0.515625 -0.2460937,1.0078125 -0.6445312,1.53515626 -0.2578125,0.3398437 -0.6328125,0.6328125 -1.0898438,0.6328125 -0.140625,0 -0.59765624,-0.035156 -0.76171874,-0.421875 0.1640625,0 0.29296874,0 0.43359374,-0.1171875 0.09375,-0.09375 0.1992188,-0.2226563 0.1992188,-0.41015626 0,-0.31640625 -0.2695313,-0.3515625 -0.375,-0.3515625 -0.22265629,0 -0.55078129,0.1640625 -0.55078129,0.64453126 0,0.5039062 0.43359375,0.8671875 1.05468749,0.8671875 1.0195313,0 2.0507813,-0.9023438 2.3320313,-2.02734376 z m 0,0"
         style="fill:#d9d9d9;fill-opacity:1;fill-rule:nonzero;stroke:none" />
      <path
         id="path29"
         d="M 6.1961406,0.95638281 C 6.1492656,1.1907578 6.1375469,1.2493516 5.5867656,1.2493516 c -0.1289062,0 -0.2109375,0 -0.2109375,0.1523437 0,0.09375 0.082031,0.09375 0.2109375,0.09375 h 2.4960938 c 1.546875,0 3.0234376,-1.41796874 3.0234376,-2.9414062 0,-1.0195313 -0.703125,-1.8164063 -1.8398439,-1.8164063 h -2.53125 c -0.140625,0 -0.2226562,0 -0.2226562,0.1523438 0,0.09375 0.070312,0.09375 0.2226562,0.09375 0.1171875,0 0.140625,0 0.2695313,0.011719 0.140625,0.011719 0.1523437,0.035156 0.1523437,0.1054688 0,0.011719 0,0.046875 -0.023437,0.1523437 z M 7.7664531,-2.7818984 c 0.046875,-0.2109375 0.058594,-0.234375 0.3515625,-0.234375 h 0.890625 c 0.7851563,0 1.4414064,0.3867187 1.4414064,1.3359375 0,0.1640625 -0.07031,1.37109371 -0.7734376,2.16796871 C 9.4070781,0.79232031 8.8094219,1.2493516 7.9539531,1.2493516 H 7.0047344 c -0.2226563,0 -0.2226563,-0.011719 -0.2226563,-0.070312 0,-0.011719 0,-0.046875 0.023437,-0.1523438 z m 8.7919919,-0.5390625 c 0,-0.035156 -0.01172,-0.082031 -0.08203,-0.082031 -0.04687,0 -0.04687,0 -0.140625,0.09375 l -0.339844,0.3984375 c -0.269531,-0.375 -0.703125,-0.4921875 -1.136718,-0.4921875 -0.984375,0 -1.851563,0.796875 -1.851563,1.59375 0,0.1054688 0.02344,0.3867188 0.234375,0.6445313 0.234375,0.28124996 0.492188,0.33984371 0.960938,0.44531246 0.140625,0.0351563 0.492187,0.1171875 0.597656,0.140625 0.222656,0.0585938 0.644531,0.2109375 0.644531,0.73828125 0,0.5625 -0.585937,1.21874999 -1.382812,1.21874999 -0.621094,0 -1.359375,-0.2109375 -1.359375,-0.98437499 0,-0.0703125 0.02344,-0.22265625 0.04687,-0.3515625 0.01172,-0.0234375 0.01172,-0.03515625 0.01172,-0.03515625 0,-0.09375 -0.09375,-0.09375 -0.117187,-0.09375 -0.09375,0 -0.105469,0.01171875 -0.128906,0.140625 l -0.36328,1.39453094 c 0,0.023437 -0.01172,0.070312 -0.01172,0.1054688 0,0.035156 0.02344,0.082031 0.09375,0.082031 0.04687,0 0.04687,-0.011719 0.140625,-0.09375 0.07031,-0.09375 0.257812,-0.3164062 0.328125,-0.3984375 0.375,0.4101563 0.914062,0.4921875 1.335937,0.4921875 1.054688,0 1.898438,-0.90234374 1.898438,-1.73437499 0,-0.3046875 -0.117188,-0.5859375 -0.269532,-0.73828125 -0.246093,-0.25781246 -0.351562,-0.28124996 -1.253906,-0.49218746 -0.140625,-0.035156 -0.375,-0.09375 -0.433594,-0.1054688 -0.175781,-0.070312 -0.46875,-0.2460937 -0.46875,-0.6445312 0,-0.5507813 0.621094,-1.1015625 1.347657,-1.1015625 0.75,0 1.113281,0.421875 1.113281,1.0898437 0,0.082031 -0.03516,0.2460938 -0.03516,0.3046875 0,0.1054688 0.09375,0.1054688 0.128906,0.1054688 0.105469,0 0.105469,-0.035156 0.140625,-0.1523438 z m 0,0"
         style="fill:#d9d9d9;fill-opacity:1;fill-rule:nonzero;stroke:none" />
      <path
         id="path30"
         d="M 19.927586,2.4973984 V 2.0989609 H 18.95493 v -9.1757812 h 0.972656 v -0.3984375 h -1.371094 v 9.9726562 z m 0,0"
         style="fill:#d9d9d9;fill-opacity:1;fill-rule:nonzero;stroke:none" />
      <path
         id="path31"
         d="m 23.012547,-6.8072891 c 0,0 0,-0.1054687 -0.128906,-0.1054687 -0.234375,0 -0.960938,0.082031 -1.21875,0.1054687 -0.08203,0 -0.1875,0.011719 -0.1875,0.1992188 0,0.1171875 0.09375,0.1171875 0.234375,0.1171875 0.480468,0 0.503906,0.070312 0.503906,0.1640625 l -0.03516,0.1992187 -1.441407,5.74218754 c -0.03516,0.140625 -0.03516,0.15234375 -0.03516,0.22265625 0,0.22265625 0.199219,0.26953125 0.28125,0.26953125 0.128906,0 0.28125,-0.08203125 0.339844,-0.2109375 0.05859,-0.0820313 0.503906,-1.92187504 0.5625,-2.17968754 0.339844,0.035156 1.160156,0.1875 1.160156,0.8554688 0,0.070312 0,0.1054687 -0.03516,0.1992187 -0.02344,0.1289063 -0.03516,0.24609379 -0.03516,0.35156254 0,0.5859375 0.398437,0.984375 0.914062,0.984375 0.292969,0 0.5625,-0.15234375 0.785156,-0.52734375 0.246094,-0.43359375 0.363282,-0.98437499 0.363282,-1.00781249 0,-0.09375 -0.09375,-0.09375 -0.128907,-0.09375 -0.09375,0 -0.105468,0.035156 -0.140625,0.1757812 -0.199218,0.72656254 -0.421875,1.24218754 -0.867187,1.24218754 -0.1875,0 -0.316406,-0.1171875 -0.316406,-0.46875 0,-0.17578125 0.04687,-0.3984375 0.08203,-0.56250004 0.03516,-0.1640625 0.03516,-0.2109375 0.03516,-0.3046875 0,-0.65625 -0.621094,-0.9375 -1.464844,-1.0546875 0.304688,-0.1757812 0.621094,-0.4921875 0.855469,-0.7265625 0.480469,-0.5273437 0.9375,-0.9609375 1.417969,-0.9609375 0.05859,0 0.07031,0 0.09375,0.011719 0.117187,0.023437 0.128906,0.023437 0.210937,0.082031 0.02344,0 0.02344,0.011719 0.03516,0.035156 -0.480469,0.035156 -0.5625,0.421875 -0.5625,0.5390625 0,0.1640625 0.105468,0.3515625 0.375,0.3515625 0.257812,0 0.550781,-0.2226563 0.550781,-0.609375 0,-0.3046875 -0.234375,-0.6328125 -0.679688,-0.6328125 -0.28125,0 -0.738281,0.082031 -1.453125,0.8789062 -0.339843,0.375 -0.726562,0.7734375 -1.101562,0.9257813 z m 4.661133,6.79687504 c 0,-0.65625 -0.257813,-1.04296874 -0.644532,-1.04296874 -0.328125,0 -0.527343,0.24609374 -0.527343,0.52734374 0,0.26953125 0.199218,0.52734375 0.527343,0.52734375 0.117188,0 0.246094,-0.03515625 0.351563,-0.12890625 0.02344,-0.0234375 0.03516,-0.0351563 0.04687,-0.0351563 0.01172,0 0.02344,0.0117188 0.02344,0.15234375 0,0.73828125 -0.351562,1.33593741 -0.679687,1.66406241 -0.105469,0.1054688 -0.105469,0.1289063 -0.105469,0.1640625 0,0.070312 0.04687,0.1054688 0.09375,0.1054688 0.117188,0 0.914063,-0.7617188 0.914063,-1.93359371 z m 7.209961,-6.64453124 c 0.01172,-0.035156 0.02344,-0.09375 0.02344,-0.1523438 0,-0.09375 -0.07031,-0.1054687 -0.117187,-0.1054687 -0.09375,0 -0.105469,0.023437 -0.152344,0.1992187 l -1.652344,6.58593754 c -0.75,-0.09375 -1.136719,-0.45703125 -1.136719,-1.11328124 0,-0.1992188 0,-0.4570313 0.539063,-1.8515625 0.04687,-0.1289063 0.117187,-0.2929688 0.117187,-0.4921875 0,-0.4453125 -0.328125,-0.8203125 -0.820312,-0.8203125 -0.949219,0 -1.3125,1.453125 -1.3125,1.5351562 0,0.1054688 0.09375,0.1054688 0.117187,0.1054688 0.09375,0 0.105469,-0.023437 0.152344,-0.1875 0.269531,-0.9375 0.667969,-1.2304688 1.007813,-1.2304688 0.08203,0 0.257812,0 0.257812,0.3164063 0,0.2578125 -0.105469,0.515625 -0.234375,0.8554687 -0.480469,1.2539063 -0.480469,1.5117188 -0.480469,1.6875 0,0.94921879 0.785157,1.35937504 1.734375,1.41796879 -0.08203,0.3515625 -0.08203,0.375 -0.222656,0.90234375 C 32.680516,1.1028672 32.4813,1.9114609 32.4813,1.9466172 c 0,0.011719 0,0.09375 0.117187,0.09375 0.02344,0 0.07031,0 0.09375,-0.035156 0.02344,-0.023437 0.08203,-0.2695312 0.117188,-0.4101562 l 0.375,-1.48828126 c 0.375,0 1.242187,0 2.179687,-1.06640625 0.410157,-0.45703129 0.621094,-0.89062499 0.726563,-1.19531249 0.09375,-0.2460938 0.316406,-1.1132813 0.316406,-1.546875 0,-0.5625 -0.269531,-0.703125 -0.445312,-0.703125 -0.246094,0 -0.492188,0.2578125 -0.492188,0.4804687 0,0.1289063 0.05859,0.1875 0.152344,0.2695313 0.105469,0.1054687 0.351562,0.3632812 0.351562,0.84375 0,0.6445312 -0.515625,1.453125 -0.867187,1.81640624 -0.878906,0.890625 -1.511719,0.890625 -1.875,0.890625 z m 0,0"
         style="fill:#d9d9d9;fill-opacity:1;fill-rule:nonzero;stroke:none" />
      <path
         id="path32"
         d="m 38.507664,-7.4752578 h -1.359375 v 0.3984375 h 0.960938 v 9.1757812 h -0.960938 v 0.3984375 h 1.359375 z m 0,0"
         style="fill:#d9d9d9;fill-opacity:1;fill-rule:nonzero;stroke:none" />
    </g>
    <path
       id="path33"
       d="M 3.5198,-56.69362 H 114.31683"
       style="fill:none;stroke:#d9d9d9;stroke-width:0.79701;stroke-linecap:butt;stroke-linejoin:miter;stroke-miterlimit:10;stroke-dasharray:none;stroke-opacity:1"
       transform="matrix(1.3333333,0,0,-1.3333333,4.2946667,-53.278667)" />
    <path
       id="path34"
       d="M 2.59026,0 -1.55415,2.0722 0,0 -1.55415,-2.0722"
       style="fill:#d9d9d9;fill-opacity:1;fill-rule:nonzero;stroke:none"
       transform="matrix(1.3333333,0,0,-1.3333333,156.71711,22.312827)" />
    <g
       id="g34"
       aria-label="s[k−δ&#10;1&#10;(ψ)]+e&#10;1&#10;[k]"
       transform="matrix(1.3333333,0,0,1.3333333,28.782667,14.033333)">
      <path
         id="path35"
         d="m 3.8895625,-3.7251953 c -0.2695312,0.011719 -0.46875,0.234375 -0.46875,0.4453125 0,0.140625 0.082031,0.2929687 0.3046875,0.2929687 0.2226563,0 0.4570313,-0.1640625 0.4570313,-0.5625 0,-0.4453125 -0.4335938,-0.8554687 -1.1835938,-0.8554687 -1.3125,0 -1.6875,1.0195312 -1.6875,1.453125 0,0.7851562 0.7382813,0.9257812 1.03125,0.9960937 0.515625,0.09375 1.03125,0.1992188 1.03125,0.75 0,0.25781254 -0.2226562,1.10156254 -1.4179687,1.10156254 -0.140625,0 -0.9140625,0 -1.1367188,-0.52734375 0.375,0.046875 0.6210938,-0.2578125 0.6210938,-0.52734379 0,-0.234375 -0.1523438,-0.3515625 -0.3632813,-0.3515625 -0.2578125,0 -0.5625,0.2109375 -0.5625,0.65625004 0,0.5625 0.5742188,0.9609375 1.4296875,0.9609375 1.6054688,0 2.0039063,-1.20703124 2.0039063,-1.65234374 0,-0.3515625 -0.1992188,-0.609375 -0.3164063,-0.7265625 -0.2695312,-0.28125 -0.5507812,-0.328125 -0.9960937,-0.421875 -0.3515625,-0.070312 -0.75,-0.140625 -0.75,-0.5976563 0,-0.28125 0.234375,-0.890625 1.1132812,-0.890625 0.2460938,0 0.75,0.070312 0.890625,0.4570313 z m 0,0"
         style="fill:#d9d9d9;fill-opacity:1;fill-rule:nonzero;stroke:none" />
      <path
         id="path36"
         d="M 7.2118281,2.4974609 V 2.0990234 H 6.2391719 V -7.0767578 H 7.2118281 V -7.4751953 H 5.8407344 v 9.9726562 z m 0,0"
         style="fill:#d9d9d9;fill-opacity:1;fill-rule:nonzero;stroke:none" />
      <path
         id="path37"
         d="m 10.296789,-6.8072266 c 0,0 0,-0.1054687 -0.128906,-0.1054687 -0.2343752,0 -0.9609377,0.082031 -1.2187502,0.1054687 -0.082031,0 -0.1875,0.011719 -0.1875,0.1992188 0,0.1171875 0.09375,0.1171875 0.234375,0.1171875 0.4804688,0 0.5039063,0.070312 0.5039063,0.1640625 l -0.035156,0.1992187 -1.4414062,5.74218754 c -0.035156,0.140625 -0.035156,0.15234375 -0.035156,0.22265625 0,0.22265625 0.1992188,0.26953125 0.28125,0.26953125 0.1289063,0 0.28125,-0.08203125 0.3398438,-0.2109375 0.058594,-0.0820313 0.5039062,-1.92187504 0.5625,-2.17968754 0.3398437,0.035156 1.1601563,0.1875 1.1601563,0.8554688 0,0.070312 0,0.1054687 -0.03516,0.1992187 -0.02344,0.1289063 -0.03516,0.24609379 -0.03516,0.35156254 0,0.5859375 0.398437,0.984375 0.914062,0.984375 0.292969,0 0.5625,-0.15234375 0.785157,-0.52734375 0.246093,-0.43359375 0.363281,-0.98437499 0.363281,-1.00781249 0,-0.09375 -0.09375,-0.09375 -0.128906,-0.09375 -0.09375,0 -0.105469,0.035156 -0.140625,0.1757812 -0.199219,0.72656254 -0.421875,1.24218754 -0.867188,1.24218754 -0.1875,0 -0.316406,-0.1171875 -0.316406,-0.46875 0,-0.17578125 0.04687,-0.3984375 0.08203,-0.56250004 0.03516,-0.1640625 0.03516,-0.2109375 0.03516,-0.3046875 0,-0.65625 -0.621093,-0.9375 -1.4648438,-1.0546875 0.3046875,-0.1757812 0.6210938,-0.4921875 0.8554688,-0.7265625 0.480469,-0.5273437 0.9375,-0.9609375 1.417969,-0.9609375 0.05859,0 0.07031,0 0.09375,0.011719 0.117188,0.023437 0.128906,0.023437 0.210938,0.082031 0.02344,0 0.02344,0.011719 0.03516,0.035156 -0.480469,0.035156 -0.5625,0.421875 -0.5625,0.5390625 0,0.1640625 0.105469,0.3515625 0.375,0.3515625 0.257812,0 0.550781,-0.2226563 0.550781,-0.609375 0,-0.3046875 -0.234375,-0.6328125 -0.679687,-0.6328125 -0.28125,0 -0.738282,0.082031 -1.453125,0.8789062 -0.339844,0.375 -0.7265633,0.7734375 -1.1015633,0.9257813 z m 0,0"
         style="fill:#d9d9d9;fill-opacity:1;fill-rule:nonzero;stroke:none" />
      <path
         id="path38"
         d="m 21.713781,-2.2955078 c 0.175782,0 0.351563,0 0.351563,-0.1992188 0,-0.1992187 -0.175781,-0.1992187 -0.351563,-0.1992187 h -5.390625 c -0.164062,0 -0.339843,0 -0.339843,0.1992187 0,0.1992188 0.175781,0.1992188 0.339843,0.1992188 z m 0,0"
         style="fill:#d9d9d9;fill-opacity:1;fill-rule:nonzero;stroke:none" />
      <path
         id="path39"
         d="m 27.740148,-4.3462891 c -1.242187,0.2929688 -2.203125,1.59375 -2.203125,2.7890625 0,0.96093754 0.632813,1.67578129 1.570313,1.67578129 1.160156,0 1.992187,-1.55859379 1.992187,-2.94140629 0,-0.9023437 -0.398437,-1.3945312 -0.738281,-1.8515625 -0.351562,-0.4453125 -0.949219,-1.1953125 -0.949219,-1.6289062 0,-0.2226563 0.199219,-0.4570313 0.550782,-0.4570313 0.304687,0 0.503906,0.1289063 0.703125,0.2695313 0.199218,0.1171875 0.398437,0.2460937 0.550781,0.2460937 0.246094,0 0.398437,-0.234375 0.398437,-0.3984375 0,-0.2226562 -0.152343,-0.2460937 -0.515625,-0.328125 -0.515625,-0.1054687 -0.65625,-0.1054687 -0.820312,-0.1054687 -0.773438,0 -1.136719,0.421875 -1.136719,1.0195312 0,0.5390625 0.292969,1.1015625 0.597656,1.7109375 z m 0.128907,0.2109375 c 0.246093,0.4570313 0.539062,0.9960938 0.539062,1.7109375 0,0.6679688 -0.375,2.32031254 -1.300781,2.32031254 -0.550781,0 -0.960938,-0.41015625 -0.960938,-1.17187504 0,-0.6210937 0.375,-2.4960937 1.722657,-2.859375 z m 0,0"
         style="fill:#d9d9d9;fill-opacity:1;fill-rule:nonzero;stroke:none" />
      <path
         id="path40"
         d="m 31.873938,-2.9371094 c 0,-0.1875 -0.01172,-0.1992187 -0.210938,-0.1992187 -0.445312,0.4335937 -1.078125,0.4453125 -1.359375,0.4453125 v 0.2460937 c 0.164063,0 0.621094,0 1.007813,-0.1875 v 3.55078128 c 0,0.23437502 0,0.32812502 -0.691407,0.32812502 H 30.3505 v 0.2460937 c 0.128906,-0.011719 0.984375,-0.023437 1.242188,-0.023437 0.210937,0 1.089843,0.011719 1.242187,0.023437 V 1.2464844 h -0.257812 c -0.703125,0 -0.703125,-0.09375 -0.703125,-0.32812502 z m 0,0"
         style="fill:#d9d9d9;fill-opacity:1;fill-rule:nonzero;stroke:none" />
      <path
         id="path41"
         d="m 37.302648,2.3919922 c 0,-0.035156 0,-0.046875 -0.164062,-0.2226563 -1.242188,-1.25390621 -1.570313,-3.12890621 -1.570313,-4.6640625 0,-1.7226562 0.386719,-3.4570312 1.605469,-4.7109375 0.128906,-0.1171875 0.128906,-0.1289062 0.128906,-0.1640625 0,-0.070312 -0.03516,-0.1054687 -0.09375,-0.1054687 -0.105468,0 -0.996093,0.6796875 -1.582031,1.9453125 -0.515625,1.1015625 -0.632812,2.203125 -0.632812,3.0351562 0,0.7851563 0.117187,1.99218754 0.65625,3.11718754 0.597656,1.21874996 1.453125,1.87499996 1.558593,1.87499996 0.05859,0 0.09375,-0.035156 0.09375,-0.1054687 z m 0,0"
         style="fill:#d9d9d9;fill-opacity:1;fill-rule:nonzero;stroke:none" />
      <path
         id="path42"
         d="m 42.690344,-6.6548828 c 0.01172,-0.035156 0.02344,-0.09375 0.02344,-0.1523438 0,-0.09375 -0.07031,-0.1054687 -0.117187,-0.1054687 -0.09375,0 -0.105469,0.023437 -0.152344,0.1992187 l -1.652344,6.58593754 c -0.75,-0.09375 -1.136718,-0.45703125 -1.136718,-1.11328124 0,-0.1992188 0,-0.4570313 0.539062,-1.8515625 0.04687,-0.1289063 0.117188,-0.2929688 0.117188,-0.4921875 0,-0.4453125 -0.328125,-0.8203125 -0.820313,-0.8203125 -0.949219,0 -1.3125,1.453125 -1.3125,1.5351562 0,0.1054688 0.09375,0.1054688 0.117188,0.1054688 0.09375,0 0.105468,-0.023437 0.152343,-0.1875 0.269532,-0.9375 0.667969,-1.2304688 1.007813,-1.2304688 0.08203,0 0.257812,0 0.257812,0.3164063 0,0.2578125 -0.105468,0.515625 -0.234375,0.8554687 -0.480468,1.2539063 -0.480468,1.5117188 -0.480468,1.6875 0,0.94921879 0.785156,1.35937504 1.734375,1.41796879 -0.08203,0.3515625 -0.08203,0.375 -0.222657,0.90234375 C 40.487219,1.1029297 40.288,1.9115234 40.288,1.9466797 c 0,0.011719 0,0.09375 0.117188,0.09375 0.02344,0 0.07031,0 0.09375,-0.035156 0.02344,-0.023437 0.08203,-0.2695312 0.117187,-0.4101562 l 0.375,-1.48828126 c 0.375,0 1.242188,0 2.179688,-1.06640625 0.410156,-0.45703129 0.621093,-0.89062499 0.726562,-1.19531249 0.09375,-0.2460938 0.316406,-1.1132813 0.316406,-1.546875 0,-0.5625 -0.269531,-0.703125 -0.445312,-0.703125 -0.246094,0 -0.492188,0.2578125 -0.492188,0.4804687 0,0.1289063 0.05859,0.1875 0.152344,0.2695313 0.105469,0.1054687 0.351563,0.3632812 0.351563,0.84375 0,0.6445312 -0.515625,1.453125 -0.867188,1.81640624 -0.878906,0.890625 -1.511719,0.890625 -1.875,0.890625 z m 0,0"
         style="fill:#d9d9d9;fill-opacity:1;fill-rule:nonzero;stroke:none" />
      <path
         id="path43"
         d="m 47.615148,-2.4947266 c 0,-0.7734375 -0.117187,-1.9804687 -0.65625,-3.1054687 -0.597656,-1.21875 -1.464843,-1.875 -1.558593,-1.875 -0.05859,0 -0.105469,0.046875 -0.105469,0.1054687 0,0.035156 0,0.046875 0.199219,0.234375 0.972656,0.984375 1.535156,2.5664063 1.535156,4.640625 0,1.71093754 -0.363281,3.45703129 -1.59375,4.7226563 -0.140625,0.1171875 -0.140625,0.1289062 -0.140625,0.1640625 0,0.058594 0.04687,0.1054687 0.105469,0.1054687 0.09375,0 0.996093,-0.6796875 1.582031,-1.94531246 0.503906,-1.1015625 0.632812,-2.20312504 0.632812,-3.04687504 z m 2.572266,-4.9804687 h -1.359375 v 0.3984375 h 0.960938 v 9.1757812 h -0.960938 v 0.3984375 h 1.359375 z m 7.476563,5.1796875 h 2.777343 c 0.140625,0 0.328125,0 0.328125,-0.1992188 0,-0.1992187 -0.1875,-0.1992187 -0.328125,-0.1992187 h -2.777343 v -2.7890625 c 0,-0.1289063 0,-0.328125 -0.199219,-0.328125 -0.199219,0 -0.199219,0.1992187 -0.199219,0.328125 v 2.7890625 h -2.789062 c -0.140625,0 -0.328125,0 -0.328125,0.1992187 0,0.1992188 0.1875,0.1992188 0.328125,0.1992188 h 2.789062 v 2.80078124 c 0,0.12890625 0,0.328125 0.199219,0.328125 0.199219,0 0.199219,-0.19921875 0.199219,-0.328125 z m 0,0"
         style="fill:#d9d9d9;fill-opacity:1;fill-rule:nonzero;stroke:none" />
      <path
         id="path44"
         d="m 65.413,-2.2955078 c 0.292969,0 1.03125,-0.023437 1.523438,-0.234375 0.703125,-0.2929688 0.75,-0.890625 0.75,-1.0195313 0,-0.4453125 -0.386719,-0.8554687 -1.066407,-0.8554687 -1.113281,0 -2.613281,0.9726562 -2.613281,2.7070312 0,1.01953129 0.585938,1.80468754 1.570313,1.80468754 1.417968,0 2.261718,-1.0546875 2.261718,-1.17187504 0,-0.058594 -0.07031,-0.1289062 -0.128906,-0.1289062 -0.04687,0 -0.07031,0.023437 -0.128906,0.09375 -0.785156,0.99609374 -1.875,0.99609374 -1.992188,0.99609374 -0.773437,0 -0.867187,-0.84375 -0.867187,-1.16015624 0,-0.1171875 0.01172,-0.4335938 0.164062,-1.03125 z m -0.46875,-0.2226563 c 0.386719,-1.5117187 1.417969,-1.6640625 1.675781,-1.6640625 0.46875,0 0.738282,0.2929688 0.738282,0.6328125 0,1.03125 -1.59375,1.03125 -2.003907,1.03125 z m 0,0"
         style="fill:#d9d9d9;fill-opacity:1;fill-rule:nonzero;stroke:none" />
      <path
         id="path45"
         d="m 70.522375,-2.9371094 c 0,-0.1875 -0.01172,-0.1992187 -0.210937,-0.1992187 -0.445313,0.4335937 -1.078125,0.4453125 -1.359375,0.4453125 v 0.2460937 c 0.164062,0 0.621093,0 1.007812,-0.1875 v 3.55078128 c 0,0.23437502 0,0.32812502 -0.691406,0.32812502 h -0.269531 v 0.2460937 c 0.128906,-0.011719 0.984375,-0.023437 1.242187,-0.023437 0.210938,0 1.089844,0.011719 1.242188,0.023437 V 1.2464844 H 71.2255 c -0.703125,0 -0.703125,-0.09375 -0.703125,-0.32812502 z m 0,0"
         style="fill:#d9d9d9;fill-opacity:1;fill-rule:nonzero;stroke:none" />
      <path
         id="path46"
         d="M 75.201086,2.4974609 V 2.0990234 H 74.22843 v -9.1757812 h 0.972656 v -0.3984375 h -1.371094 v 9.9726562 z m 0,0"
         style="fill:#d9d9d9;fill-opacity:1;fill-rule:nonzero;stroke:none" />
      <path
         id="path47"
         d="m 78.286047,-6.8072266 c 0,0 0,-0.1054687 -0.128906,-0.1054687 -0.234375,0 -0.960938,0.082031 -1.21875,0.1054687 -0.08203,0 -0.1875,0.011719 -0.1875,0.1992188 0,0.1171875 0.09375,0.1171875 0.234375,0.1171875 0.480468,0 0.503906,0.070312 0.503906,0.1640625 l -0.03516,0.1992187 -1.441407,5.74218754 c -0.03516,0.140625 -0.03516,0.15234375 -0.03516,0.22265625 0,0.22265625 0.199219,0.26953125 0.28125,0.26953125 0.128906,0 0.28125,-0.08203125 0.339844,-0.2109375 0.05859,-0.0820313 0.503906,-1.92187504 0.5625,-2.17968754 0.339844,0.035156 1.160156,0.1875 1.160156,0.8554688 0,0.070312 0,0.1054687 -0.03516,0.1992187 -0.02344,0.1289063 -0.03516,0.24609379 -0.03516,0.35156254 0,0.5859375 0.398437,0.984375 0.914062,0.984375 0.292969,0 0.5625,-0.15234375 0.785156,-0.52734375 0.246094,-0.43359375 0.363282,-0.98437499 0.363282,-1.00781249 0,-0.09375 -0.09375,-0.09375 -0.128907,-0.09375 -0.09375,0 -0.105468,0.035156 -0.140625,0.1757812 -0.199218,0.72656254 -0.421875,1.24218754 -0.867187,1.24218754 -0.1875,0 -0.316406,-0.1171875 -0.316406,-0.46875 0,-0.17578125 0.04687,-0.3984375 0.08203,-0.56250004 0.03516,-0.1640625 0.03516,-0.2109375 0.03516,-0.3046875 0,-0.65625 -0.621094,-0.9375 -1.464844,-1.0546875 0.304688,-0.1757812 0.621094,-0.4921875 0.855469,-0.7265625 0.480469,-0.5273437 0.9375,-0.9609375 1.417969,-0.9609375 0.05859,0 0.07031,0 0.09375,0.011719 0.117187,0.023437 0.128906,0.023437 0.210937,0.082031 0.02344,0 0.02344,0.011719 0.03516,0.035156 -0.480469,0.035156 -0.5625,0.421875 -0.5625,0.5390625 0,0.1640625 0.105468,0.3515625 0.375,0.3515625 0.257812,0 0.550781,-0.2226563 0.550781,-0.609375 0,-0.3046875 -0.234375,-0.6328125 -0.679688,-0.6328125 -0.28125,0 -0.738281,0.082031 -1.453125,0.8789062 -0.339843,0.375 -0.726562,0.7734375 -1.101562,0.9257813 z m 0,0"
         style="fill:#d9d9d9;fill-opacity:1;fill-rule:nonzero;stroke:none" />
      <path
         id="path48"
         d="m 82.507727,-7.4751953 h -1.359375 v 0.3984375 h 0.960937 v 9.1757812 h -0.960937 v 0.3984375 h 1.359375 z m 0,0"
         style="fill:#d9d9d9;fill-opacity:1;fill-rule:nonzero;stroke:none" />
    </g>
    <path
       id="path49"
       d="M 3.5198,-92.08006 H 114.31683"
       style="fill:none;stroke:#d9d9d9;stroke-width:0.79701;stroke-linecap:butt;stroke-linejoin:miter;stroke-miterlimit:10;stroke-dasharray:none;stroke-opacity:1"
       transform="matrix(1.3333333,0,0,-1.3333333,4.2946667,-53.278667)" />
    <path
       id="path50"
       d="M 2.59026,0 -1.55415,2.0722 0,0 -1.55415,-2.0722"
       style="fill:#d9d9d9;fill-opacity:1;fill-rule:nonzero;stroke:none"
       transform="matrix(1.3333333,0,0,-1.3333333,156.71711,69.494747)" />
    <g
       id="g50"
       aria-label="s[k−δ&#10;2&#10;(ψ)]+e&#10;2&#10;[k]"
       transform="matrix(1.3333333,0,0,1.3333333,28.782667,61.214667)">
      <path
         id="path51"
         d="m 3.8895625,-3.7264297 c -0.2695312,0.011719 -0.46875,0.234375 -0.46875,0.4453125 0,0.140625 0.082031,0.2929688 0.3046875,0.2929688 0.2226563,0 0.4570313,-0.1640625 0.4570313,-0.5625 0,-0.4453125 -0.4335938,-0.8554688 -1.1835938,-0.8554688 -1.3125,0 -1.6875,1.0195313 -1.6875,1.453125 0,0.7851563 0.7382813,0.9257813 1.03125,0.9960938 0.515625,0.09375 1.03125,0.1992187 1.03125,0.75 0,0.25781246 -0.2226562,1.10156246 -1.4179687,1.10156246 -0.140625,0 -0.9140625,0 -1.1367188,-0.52734375 0.375,0.046875 0.6210938,-0.2578125 0.6210938,-0.52734371 0,-0.234375 -0.1523438,-0.3515625 -0.3632813,-0.3515625 -0.2578125,0 -0.5625,0.2109375 -0.5625,0.65624996 0,0.5625 0.5742188,0.9609375 1.4296875,0.9609375 1.6054688,0 2.0039063,-1.20703126 2.0039063,-1.65234376 0,-0.3515625 -0.1992188,-0.609375 -0.3164063,-0.7265625 -0.2695312,-0.28125 -0.5507812,-0.328125 -0.9960937,-0.421875 -0.3515625,-0.070312 -0.75,-0.140625 -0.75,-0.5976562 0,-0.28125 0.234375,-0.890625 1.1132812,-0.890625 0.2460938,0 0.75,0.070312 0.890625,0.4570312 z m 0,0"
         style="fill:#d9d9d9;fill-opacity:1;fill-rule:nonzero;stroke:none" />
      <path
         id="path52"
         d="M 7.2118281,2.4962266 V 2.0977891 H 6.2391719 V -7.0779922 H 7.2118281 V -7.4764297 H 5.8407344 v 9.9726563 z m 0,0"
         style="fill:#d9d9d9;fill-opacity:1;fill-rule:nonzero;stroke:none" />
      <path
         id="path53"
         d="m 10.296789,-6.8084609 c 0,0 0,-0.1054688 -0.128906,-0.1054688 -0.2343752,0 -0.9609377,0.082031 -1.2187502,0.1054688 -0.082031,0 -0.1875,0.011719 -0.1875,0.1992187 0,0.1171875 0.09375,0.1171875 0.234375,0.1171875 0.4804688,0 0.5039063,0.070312 0.5039063,0.1640625 l -0.035156,0.1992188 -1.4414062,5.74218746 c -0.035156,0.140625 -0.035156,0.15234375 -0.035156,0.22265625 0,0.22265625 0.1992188,0.26953125 0.28125,0.26953125 0.1289063,0 0.28125,-0.08203125 0.3398438,-0.2109375 0.058594,-0.0820312 0.5039062,-1.92187496 0.5625,-2.17968746 0.3398437,0.035156 1.1601563,0.1875 1.1601563,0.8554687 0,0.070312 0,0.1054688 -0.03516,0.1992188 -0.02344,0.1289062 -0.03516,0.24609371 -0.03516,0.35156246 0,0.5859375 0.398437,0.984375 0.914062,0.984375 0.292969,0 0.5625,-0.15234375 0.785157,-0.52734375 0.246093,-0.43359375 0.363281,-0.98437501 0.363281,-1.00781251 0,-0.09375 -0.09375,-0.09375 -0.128906,-0.09375 -0.09375,0 -0.105469,0.035156 -0.140625,0.1757813 -0.199219,0.72656246 -0.421875,1.24218746 -0.867188,1.24218746 -0.1875,0 -0.316406,-0.1171875 -0.316406,-0.46875 0,-0.17578125 0.04687,-0.3984375 0.08203,-0.56249996 0.03516,-0.1640625 0.03516,-0.2109375 0.03516,-0.3046875 0,-0.65625 -0.621093,-0.9375 -1.4648438,-1.0546875 0.3046875,-0.1757813 0.6210938,-0.4921875 0.8554688,-0.7265625 0.480469,-0.5273438 0.9375,-0.9609375 1.417969,-0.9609375 0.05859,0 0.07031,0 0.09375,0.011719 0.117188,0.023437 0.128906,0.023437 0.210938,0.082031 0.02344,0 0.02344,0.011719 0.03516,0.035156 -0.480469,0.035156 -0.5625,0.421875 -0.5625,0.5390625 0,0.1640625 0.105469,0.3515625 0.375,0.3515625 0.257812,0 0.550781,-0.2226562 0.550781,-0.609375 0,-0.3046875 -0.234375,-0.6328125 -0.679687,-0.6328125 -0.28125,0 -0.738282,0.082031 -1.453125,0.8789063 -0.339844,0.375 -0.7265633,0.7734375 -1.1015633,0.9257812 z m 0,0"
         style="fill:#d9d9d9;fill-opacity:1;fill-rule:nonzero;stroke:none" />
      <path
         id="path54"
         d="m 21.713781,-2.2967422 c 0.175782,0 0.351563,0 0.351563,-0.1992187 0,-0.1992188 -0.175781,-0.1992188 -0.351563,-0.1992188 h -5.390625 c -0.164062,0 -0.339843,0 -0.339843,0.1992188 0,0.1992187 0.175781,0.1992187 0.339843,0.1992187 z m 0,0"
         style="fill:#d9d9d9;fill-opacity:1;fill-rule:nonzero;stroke:none" />
      <path
         id="path55"
         d="m 27.740148,-4.3475234 c -1.242187,0.2929687 -2.203125,1.59375 -2.203125,2.7890625 0,0.96093746 0.632813,1.67578121 1.570313,1.67578121 1.160156,0 1.992187,-1.55859371 1.992187,-2.94140621 0,-0.9023438 -0.398437,-1.3945313 -0.738281,-1.8515625 -0.351562,-0.4453125 -0.949219,-1.1953125 -0.949219,-1.6289063 0,-0.2226562 0.199219,-0.4570312 0.550782,-0.4570312 0.304687,0 0.503906,0.1289062 0.703125,0.2695312 0.199218,0.1171875 0.398437,0.2460938 0.550781,0.2460938 0.246094,0 0.398437,-0.234375 0.398437,-0.3984375 0,-0.2226563 -0.152343,-0.2460938 -0.515625,-0.328125 -0.515625,-0.1054688 -0.65625,-0.1054688 -0.820312,-0.1054688 -0.773438,0 -1.136719,0.421875 -1.136719,1.0195313 0,0.5390625 0.292969,1.1015625 0.597656,1.7109375 z m 0.128907,0.2109375 c 0.246093,0.4570312 0.539062,0.9960937 0.539062,1.7109375 0,0.6679687 -0.375,2.32031246 -1.300781,2.32031246 -0.550781,0 -0.960938,-0.41015625 -0.960938,-1.17187496 0,-0.6210938 0.375,-2.4960938 1.722657,-2.859375 z m 0,0"
         style="fill:#d9d9d9;fill-opacity:1;fill-rule:nonzero;stroke:none" />
      <path
         id="path56"
         d="m 33.057531,0.22864844 h -0.234375 c -0.02344,0.15234375 -0.08203,0.5625 -0.175781,0.6328125 -0.05859,0.0351563 -0.597656,0.0351563 -0.691406,0.0351563 h -1.289063 c 0.738282,-0.64453125 0.984375,-0.84375 1.394532,-1.171875 0.515625,-0.41015625 0.996093,-0.84374994 0.996093,-1.50000004 0,-0.84375 -0.738281,-1.359375 -1.628906,-1.359375 -0.867187,0 -1.453125,0.609375 -1.453125,1.2421875 0,0.3632812 0.304688,0.3984375 0.375,0.3984375 0.164063,0 0.375,-0.1171875 0.375,-0.375 0,-0.1289063 -0.05859,-0.3632813 -0.421875,-0.3632813 0.222656,-0.5039062 0.691406,-0.65625 1.019531,-0.65625 0.703125,0 1.066407,0.5507813 1.066407,1.1132813 0,0.609375 -0.433594,1.08984379 -0.65625,1.33593754 l -1.6875,1.66406246 C 29.9755,1.2833359 29.9755,1.2950547 29.9755,1.4942734 h 2.882813 z m 0,0"
         style="fill:#d9d9d9;fill-opacity:1;fill-rule:nonzero;stroke:none" />
      <path
         id="path57"
         d="m 37.302648,2.3907578 c 0,-0.035156 0,-0.046875 -0.164062,-0.2226562 -1.242188,-1.25390629 -1.570313,-3.12890629 -1.570313,-4.6640625 0,-1.7226563 0.386719,-3.4570313 1.605469,-4.7109375 0.128906,-0.1171875 0.128906,-0.1289063 0.128906,-0.1640625 0,-0.070312 -0.03516,-0.1054688 -0.09375,-0.1054688 -0.105468,0 -0.996093,0.6796875 -1.582031,1.9453125 -0.515625,1.1015625 -0.632812,2.203125 -0.632812,3.0351563 0,0.7851562 0.117187,1.99218746 0.65625,3.11718746 0.597656,1.21875004 1.453125,1.87500004 1.558593,1.87500004 0.05859,0 0.09375,-0.035156 0.09375,-0.1054688 z m 0,0"
         style="fill:#d9d9d9;fill-opacity:1;fill-rule:nonzero;stroke:none" />
      <path
         id="path58"
         d="m 42.690344,-6.6561172 c 0.01172,-0.035156 0.02344,-0.09375 0.02344,-0.1523437 0,-0.09375 -0.07031,-0.1054688 -0.117187,-0.1054688 -0.09375,0 -0.105469,0.023437 -0.152344,0.1992188 l -1.652344,6.58593746 c -0.75,-0.09375 -1.136718,-0.45703125 -1.136718,-1.11328126 0,-0.1992187 0,-0.4570312 0.539062,-1.8515625 0.04687,-0.1289062 0.117188,-0.2929687 0.117188,-0.4921875 0,-0.4453125 -0.328125,-0.8203125 -0.820313,-0.8203125 -0.949219,0 -1.3125,1.453125 -1.3125,1.5351563 0,0.1054687 0.09375,0.1054687 0.117188,0.1054687 0.09375,0 0.105468,-0.023437 0.152343,-0.1875 0.269532,-0.9375 0.667969,-1.2304687 1.007813,-1.2304687 0.08203,0 0.257812,0 0.257812,0.3164062 0,0.2578125 -0.105468,0.515625 -0.234375,0.8554688 -0.480468,1.2539062 -0.480468,1.5117187 -0.480468,1.6875 0,0.94921871 0.785156,1.35937496 1.734375,1.41796871 -0.08203,0.3515625 -0.08203,0.375 -0.222657,0.90234375 C 40.487219,1.1016953 40.288,1.9102891 40.288,1.9454453 c 0,0.011719 0,0.09375 0.117188,0.09375 0.02344,0 0.07031,0 0.09375,-0.035156 0.02344,-0.023437 0.08203,-0.2695313 0.117187,-0.4101563 l 0.375,-1.48828124 c 0.375,0 1.242188,0 2.179688,-1.06640625 0.410156,-0.45703121 0.621093,-0.89062501 0.726562,-1.19531251 0.09375,-0.2460937 0.316406,-1.1132812 0.316406,-1.546875 0,-0.5625 -0.269531,-0.703125 -0.445312,-0.703125 -0.246094,0 -0.492188,0.2578125 -0.492188,0.4804688 0,0.1289062 0.05859,0.1875 0.152344,0.2695312 0.105469,0.1054688 0.351563,0.3632813 0.351563,0.84375 0,0.6445313 -0.515625,1.453125 -0.867188,1.81640626 -0.878906,0.890625 -1.511719,0.890625 -1.875,0.890625 z m 0,0"
         style="fill:#d9d9d9;fill-opacity:1;fill-rule:nonzero;stroke:none" />
      <path
         id="path59"
         d="m 47.615148,-2.4959609 c 0,-0.7734375 -0.117187,-1.9804688 -0.65625,-3.1054688 -0.597656,-1.21875 -1.464843,-1.875 -1.558593,-1.875 -0.05859,0 -0.105469,0.046875 -0.105469,0.1054688 0,0.035156 0,0.046875 0.199219,0.234375 0.972656,0.984375 1.535156,2.5664062 1.535156,4.640625 0,1.71093746 -0.363281,3.45703121 -1.59375,4.7226562 -0.140625,0.1171875 -0.140625,0.1289063 -0.140625,0.1640625 0,0.058594 0.04687,0.1054688 0.105469,0.1054688 0.09375,0 0.996093,-0.6796875 1.582031,-1.94531254 0.503906,-1.1015625 0.632812,-2.20312496 0.632812,-3.04687496 z m 2.572266,-4.9804688 h -1.359375 v 0.3984375 h 0.960938 v 9.1757813 h -0.960938 v 0.3984375 h 1.359375 z m 7.476563,5.1796875 h 2.777343 c 0.140625,0 0.328125,0 0.328125,-0.1992187 0,-0.1992188 -0.1875,-0.1992188 -0.328125,-0.1992188 h -2.777343 v -2.7890625 c 0,-0.1289062 0,-0.328125 -0.199219,-0.328125 -0.199219,0 -0.199219,0.1992188 -0.199219,0.328125 v 2.7890625 h -2.789062 c -0.140625,0 -0.328125,0 -0.328125,0.1992188 0,0.1992187 0.1875,0.1992187 0.328125,0.1992187 h 2.789062 v 2.80078126 c 0,0.12890625 0,0.328125 0.199219,0.328125 0.199219,0 0.199219,-0.19921875 0.199219,-0.328125 z m 0,0"
         style="fill:#d9d9d9;fill-opacity:1;fill-rule:nonzero;stroke:none" />
      <path
         id="path60"
         d="m 65.413,-2.2967422 c 0.292969,0 1.03125,-0.023437 1.523438,-0.234375 0.703125,-0.2929687 0.75,-0.890625 0.75,-1.0195312 0,-0.4453125 -0.386719,-0.8554688 -1.066407,-0.8554688 -1.113281,0 -2.613281,0.9726563 -2.613281,2.7070313 0,1.01953121 0.585938,1.80468746 1.570313,1.80468746 1.417968,0 2.261718,-1.0546875 2.261718,-1.17187496 0,-0.058594 -0.07031,-0.1289063 -0.128906,-0.1289063 -0.04687,0 -0.07031,0.023437 -0.128906,0.09375 -0.785156,0.99609376 -1.875,0.99609376 -1.992188,0.99609376 -0.773437,0 -0.867187,-0.84375 -0.867187,-1.16015626 0,-0.1171875 0.01172,-0.4335937 0.164062,-1.03125 z m -0.46875,-0.2226562 c 0.386719,-1.5117188 1.417969,-1.6640625 1.675781,-1.6640625 0.46875,0 0.738282,0.2929687 0.738282,0.6328125 0,1.03125 -1.59375,1.03125 -2.003907,1.03125 z m 0,0"
         style="fill:#d9d9d9;fill-opacity:1;fill-rule:nonzero;stroke:none" />
      <path
         id="path61"
         d="m 71.705969,0.22864844 h -0.234375 c -0.02344,0.15234375 -0.08203,0.5625 -0.175781,0.6328125 -0.05859,0.0351563 -0.597657,0.0351563 -0.691407,0.0351563 h -1.289062 c 0.738281,-0.64453125 0.984375,-0.84375 1.394531,-1.171875 0.515625,-0.41015625 0.996094,-0.84374994 0.996094,-1.50000004 0,-0.84375 -0.738281,-1.359375 -1.628906,-1.359375 -0.867188,0 -1.453125,0.609375 -1.453125,1.2421875 0,0.3632812 0.304687,0.3984375 0.375,0.3984375 0.164062,0 0.375,-0.1171875 0.375,-0.375 0,-0.1289063 -0.05859,-0.3632813 -0.421875,-0.3632813 0.222656,-0.5039062 0.691406,-0.65625 1.019531,-0.65625 0.703125,0 1.066406,0.5507813 1.066406,1.1132813 0,0.609375 -0.433594,1.08984379 -0.65625,1.33593754 l -1.6875,1.66406246 c -0.07031,0.058594 -0.07031,0.070312 -0.07031,0.2695312 h 2.882812 z m 0,0"
         style="fill:#d9d9d9;fill-opacity:1;fill-rule:nonzero;stroke:none" />
      <path
         id="path62"
         d="M 75.201086,2.4962266 V 2.0977891 H 74.22843 v -9.1757813 h 0.972656 v -0.3984375 h -1.371094 v 9.9726563 z m 0,0"
         style="fill:#d9d9d9;fill-opacity:1;fill-rule:nonzero;stroke:none" />
      <path
         id="path63"
         d="m 78.286047,-6.8084609 c 0,0 0,-0.1054688 -0.128906,-0.1054688 -0.234375,0 -0.960938,0.082031 -1.21875,0.1054688 -0.08203,0 -0.1875,0.011719 -0.1875,0.1992187 0,0.1171875 0.09375,0.1171875 0.234375,0.1171875 0.480468,0 0.503906,0.070312 0.503906,0.1640625 l -0.03516,0.1992188 -1.441407,5.74218746 c -0.03516,0.140625 -0.03516,0.15234375 -0.03516,0.22265625 0,0.22265625 0.199219,0.26953125 0.28125,0.26953125 0.128906,0 0.28125,-0.08203125 0.339844,-0.2109375 0.05859,-0.0820312 0.503906,-1.92187496 0.5625,-2.17968746 0.339844,0.035156 1.160156,0.1875 1.160156,0.8554687 0,0.070312 0,0.1054688 -0.03516,0.1992188 -0.02344,0.1289062 -0.03516,0.24609371 -0.03516,0.35156246 0,0.5859375 0.398437,0.984375 0.914062,0.984375 0.292969,0 0.5625,-0.15234375 0.785156,-0.52734375 0.246094,-0.43359375 0.363282,-0.98437501 0.363282,-1.00781251 0,-0.09375 -0.09375,-0.09375 -0.128907,-0.09375 -0.09375,0 -0.105468,0.035156 -0.140625,0.1757813 -0.199218,0.72656246 -0.421875,1.24218746 -0.867187,1.24218746 -0.1875,0 -0.316406,-0.1171875 -0.316406,-0.46875 0,-0.17578125 0.04687,-0.3984375 0.08203,-0.56249996 0.03516,-0.1640625 0.03516,-0.2109375 0.03516,-0.3046875 0,-0.65625 -0.621094,-0.9375 -1.464844,-1.0546875 0.304688,-0.1757813 0.621094,-0.4921875 0.855469,-0.7265625 0.480469,-0.5273438 0.9375,-0.9609375 1.417969,-0.9609375 0.05859,0 0.07031,0 0.09375,0.011719 0.117187,0.023437 0.128906,0.023437 0.210937,0.082031 0.02344,0 0.02344,0.011719 0.03516,0.035156 -0.480469,0.035156 -0.5625,0.421875 -0.5625,0.5390625 0,0.1640625 0.105468,0.3515625 0.375,0.3515625 0.257812,0 0.550781,-0.2226562 0.550781,-0.609375 0,-0.3046875 -0.234375,-0.6328125 -0.679688,-0.6328125 -0.28125,0 -0.738281,0.082031 -1.453125,0.8789063 -0.339843,0.375 -0.726562,0.7734375 -1.101562,0.9257812 z m 0,0"
         style="fill:#d9d9d9;fill-opacity:1;fill-rule:nonzero;stroke:none" />
      <path
         id="path64"
         d="m 82.507727,-7.4764297 h -1.359375 v 0.3984375 h 0.960937 v 9.1757813 h -0.960937 v 0.3984375 h 1.359375 z m 0,0"
         style="fill:#d9d9d9;fill-opacity:1;fill-rule:nonzero;stroke:none" />
    </g>
    <path
       id="path65"
       d="M 3.5198,-155.81332 H 114.31683"
       style="fill:none;stroke:#d9d9d9;stroke-width:0.79701;stroke-linecap:butt;stroke-linejoin:miter;stroke-miterlimit:10;stroke-dasharray:none;stroke-opacity:1"
       transform="matrix(1.3333333,0,0,-1.3333333,4.2946667,-53.278667)" />
    <path
       id="path66"
       d="M 2.59026,0 -1.55415,2.0722 0,0 -1.55415,-2.0722"
       style="fill:#d9d9d9;fill-opacity:1;fill-rule:nonzero;stroke:none"
       transform="matrix(1.3333333,0,0,-1.3333333,156.71711,154.47243)" />
    <g
       id="g66"
       aria-label="s[k−δ&#10;M&#10;(ψ)]+e&#10;M&#10;[k]"
       transform="matrix(1.3333333,0,0,1.3333333,22.950667,146.19067)">
      <path
         id="path67"
         d="m 3.8895391,-3.7260078 c -0.2695313,0.011719 -0.46875,0.234375 -0.46875,0.4453125 0,0.140625 0.082031,0.2929687 0.3046875,0.2929687 0.2226562,0 0.4570312,-0.1640625 0.4570312,-0.5625 0,-0.4453125 -0.4335937,-0.8554687 -1.1835937,-0.8554687 -1.3125,0 -1.6875,1.0195312 -1.6875,1.453125 0,0.7851562 0.7382812,0.9257812 1.03125,0.9960937 0.515625,0.09375 1.03125,0.1992188 1.03125,0.75 0,0.25781254 -0.2226563,1.10156254 -1.4179688,1.10156254 -0.140625,0 -0.9140625,0 -1.13671874,-0.52734375 0.37500004,0.046875 0.62109374,-0.2578125 0.62109374,-0.52734379 0,-0.234375 -0.1523437,-0.3515625 -0.3632812,-0.3515625 -0.25781254,0 -0.56250004,0.2109375 -0.56250004,0.65625004 0,0.5625 0.57421874,0.9609375 1.42968754,0.9609375 1.6054687,0 2.0039062,-1.20703124 2.0039062,-1.65234374 0,-0.3515625 -0.1992187,-0.609375 -0.3164062,-0.7265625 -0.2695313,-0.28125 -0.5507813,-0.328125 -0.9960938,-0.421875 -0.3515625,-0.070312 -0.75,-0.140625 -0.75,-0.5976563 0,-0.28125 0.234375,-0.890625 1.1132813,-0.890625 0.2460937,0 0.75,0.070312 0.890625,0.4570313 z m 0,0"
         style="fill:#d9d9d9;fill-opacity:1;fill-rule:nonzero;stroke:none" />
      <path
         id="path68"
         d="M 7.2118047,2.4966484 V 2.0982109 H 6.2391484 V -7.0775703 H 7.2118047 V -7.4760078 H 5.8407109 v 9.9726562 z m 0,0"
         style="fill:#d9d9d9;fill-opacity:1;fill-rule:nonzero;stroke:none" />
      <path
         id="path69"
         d="m 10.296766,-6.8080391 c 0,0 0,-0.1054687 -0.128907,-0.1054687 -0.2343746,0 -0.9609371,0.082031 -1.2187496,0.1054687 -0.082031,0 -0.1875,0.011719 -0.1875,0.1992188 0,0.1171875 0.09375,0.1171875 0.234375,0.1171875 0.4804687,0 0.5039062,0.070312 0.5039062,0.1640625 l -0.035156,0.1992187 -1.4414063,5.74218754 c -0.035156,0.140625 -0.035156,0.15234375 -0.035156,0.22265625 0,0.22265625 0.1992187,0.26953125 0.28125,0.26953125 0.1289062,0 0.28125,-0.08203125 0.3398437,-0.2109375 0.058594,-0.0820313 0.5039063,-1.92187504 0.5625,-2.17968754 0.3398438,0.035156 1.160156,0.1875 1.160156,0.8554688 0,0.070312 0,0.1054687 -0.03516,0.1992187 -0.02344,0.1289063 -0.03516,0.24609379 -0.03516,0.35156254 0,0.5859375 0.398438,0.984375 0.914063,0.984375 0.292969,0 0.5625,-0.15234375 0.785156,-0.52734375 0.246094,-0.43359375 0.363281,-0.98437499 0.363281,-1.00781249 0,-0.09375 -0.09375,-0.09375 -0.128906,-0.09375 -0.09375,0 -0.105469,0.035156 -0.140625,0.1757812 -0.199219,0.72656254 -0.421875,1.24218754 -0.867187,1.24218754 -0.1875,0 -0.316407,-0.1171875 -0.316407,-0.46875 0,-0.17578125 0.04687,-0.3984375 0.08203,-0.56250004 0.03516,-0.1640625 0.03516,-0.2109375 0.03516,-0.3046875 0,-0.65625 -0.621094,-0.9375 -1.4648435,-1.0546875 0.3046875,-0.1757812 0.6210935,-0.4921875 0.8554685,-0.7265625 0.480469,-0.5273437 0.9375,-0.9609375 1.417969,-0.9609375 0.05859,0 0.07031,0 0.09375,0.011719 0.117187,0.023437 0.128906,0.023437 0.210937,0.082031 0.02344,0 0.02344,0.011719 0.03516,0.035156 -0.480468,0.035156 -0.5625,0.421875 -0.5625,0.5390625 0,0.1640625 0.105469,0.3515625 0.375,0.3515625 0.257813,0 0.550782,-0.2226563 0.550782,-0.609375 0,-0.3046875 -0.234375,-0.6328125 -0.679688,-0.6328125 -0.28125,0 -0.738281,0.082031 -1.453125,0.8789062 -0.339844,0.375 -0.726562,0.7734375 -1.101562,0.9257813 z m 0,0"
         style="fill:#d9d9d9;fill-opacity:1;fill-rule:nonzero;stroke:none" />
      <path
         id="path70"
         d="m 21.713758,-2.2963203 c 0.175781,0 0.351562,0 0.351562,-0.1992188 0,-0.1992187 -0.175781,-0.1992187 -0.351562,-0.1992187 h -5.390625 c -0.164063,0 -0.339844,0 -0.339844,0.1992187 0,0.1992188 0.175781,0.1992188 0.339844,0.1992188 z m 0,0"
         style="fill:#d9d9d9;fill-opacity:1;fill-rule:nonzero;stroke:none" />
      <path
         id="path71"
         d="m 27.740125,-4.3471016 c -1.242187,0.2929688 -2.203125,1.59375 -2.203125,2.7890625 0,0.96093754 0.632813,1.67578129 1.570313,1.67578129 1.160156,0 1.992187,-1.55859379 1.992187,-2.94140629 0,-0.9023437 -0.398437,-1.3945312 -0.738281,-1.8515625 C 28.009656,-5.1205391 27.412,-5.8705391 27.412,-6.3041328 c 0,-0.2226563 0.199219,-0.4570313 0.550781,-0.4570313 0.304688,0 0.503907,0.1289063 0.703125,0.2695313 0.199219,0.1171875 0.398438,0.2460937 0.550782,0.2460937 0.246093,0 0.398437,-0.234375 0.398437,-0.3984375 0,-0.2226562 -0.152344,-0.2460937 -0.515625,-0.328125 -0.515625,-0.1054687 -0.65625,-0.1054687 -0.820312,-0.1054687 -0.773438,0 -1.136719,0.421875 -1.136719,1.0195312 0,0.5390625 0.292969,1.1015625 0.597656,1.7109375 z m 0.128906,0.2109375 c 0.246094,0.4570313 0.539063,0.9960938 0.539063,1.7109375 0,0.6679688 -0.375,2.32031254 -1.300781,2.32031254 -0.550782,0 -0.960938,-0.41015625 -0.960938,-1.17187504 0,-0.6210937 0.375,-2.4960937 1.722656,-2.859375 z m 0,0"
         style="fill:#d9d9d9;fill-opacity:1;fill-rule:nonzero;stroke:none" />
      <path
         id="path72"
         d="m 36.655164,-2.7006172 c 0.07031,-0.2578125 0.08203,-0.3164062 0.597656,-0.3164062 0.152344,0 0.234375,0 0.234375,-0.140625 0,-0.1054688 -0.08203,-0.1054688 -0.210937,-0.1054688 h -0.9375 c -0.210938,0 -0.210938,0 -0.304688,0.140625 L 33.338758,0.85016406 32.647352,-3.0756172 c -0.03516,-0.1875 -0.03516,-0.1875 -0.234375,-0.1875 h -1.007813 c -0.128906,0 -0.222656,0 -0.222656,0.1523438 0,0.09375 0.08203,0.09375 0.234375,0.09375 0.117187,0 0.140625,0 0.269531,0.011719 0.140625,0.011719 0.152344,0.035156 0.152344,0.1054688 0,0 0,0.046875 -0.03516,0.1523437 l -0.878907,3.49218751 c -0.05859,0.24609375 -0.164062,0.48046879 -0.714843,0.50390629 -0.05859,0 -0.152344,0 -0.152344,0.1523437 0,0 0.01172,0.09375 0.105469,0.09375 0.210937,0 0.503906,-0.023437 0.726562,-0.023437 0.164063,0 0.574219,0.023437 0.738281,0.023437 0.03516,0 0.140625,0 0.140625,-0.1523437 0,-0.09375 -0.09375,-0.09375 -0.152343,-0.09375 -0.445313,-0.023437 -0.445313,-0.1992188 -0.445313,-0.29296879 0,-0.0351563 0,-0.0703125 0.02344,-0.17578125 l 0.925781,-3.71484376 h 0.01172 l 0.738281,4.2421875 c 0.02344,0.1289063 0.03516,0.1875 0.140625,0.1875 0.105469,0 0.152344,-0.082031 0.210937,-0.1523437 l 2.917969,-4.3476563 0.01172,0.011719 -0.984375,3.94921871 c -0.05859,0.23437499 -0.07031,0.29296879 -0.609375,0.29296879 -0.128906,0 -0.210938,0 -0.210938,0.1523437 0,0 0,0.09375 0.105469,0.09375 0.140625,0 0.292969,-0.023437 0.433594,-0.023437 0.140625,0 0.304687,0 0.445312,0 0.199219,0 0.691407,0.023437 0.878907,0.023437 0.04687,0 0.152343,0 0.152343,-0.1523437 0,-0.09375 -0.08203,-0.09375 -0.222656,-0.09375 -0.01172,0 -0.140625,0 -0.269531,-0.023437 -0.152344,-0.011719 -0.152344,-0.035156 -0.152344,-0.1054688 0,-0.035156 0.01172,-0.1054687 0.02344,-0.15234374 z m 0,0"
         style="fill:#d9d9d9;fill-opacity:1;fill-rule:nonzero;stroke:none" />
      <path
         id="path73"
         d="m 41.676648,2.3911797 c 0,-0.035156 0,-0.046875 -0.164062,-0.2226563 -1.242188,-1.25390621 -1.570313,-3.12890621 -1.570313,-4.6640625 0,-1.7226562 0.386719,-3.4570312 1.605469,-4.7109375 0.128906,-0.1171875 0.128906,-0.1289062 0.128906,-0.1640625 0,-0.070312 -0.03516,-0.1054687 -0.09375,-0.1054687 -0.105468,0 -0.996093,0.6796875 -1.582031,1.9453125 -0.515625,1.1015625 -0.632812,2.203125 -0.632812,3.0351562 0,0.7851563 0.117187,1.99218754 0.65625,3.11718754 0.597656,1.21874996 1.453125,1.87499996 1.558593,1.87499996 0.05859,0 0.09375,-0.035156 0.09375,-0.1054687 z m 0,0"
         style="fill:#d9d9d9;fill-opacity:1;fill-rule:nonzero;stroke:none" />
      <path
         id="path74"
         d="m 47.064344,-6.6556953 c 0.01172,-0.035156 0.02344,-0.09375 0.02344,-0.1523438 0,-0.09375 -0.07031,-0.1054687 -0.117187,-0.1054687 -0.09375,0 -0.105469,0.023437 -0.152344,0.1992187 l -1.652344,6.58593754 c -0.75,-0.09375 -1.136718,-0.45703125 -1.136718,-1.11328124 0,-0.1992188 0,-0.4570313 0.539062,-1.8515625 0.04687,-0.1289063 0.117188,-0.2929688 0.117188,-0.4921875 0,-0.4453125 -0.328125,-0.8203125 -0.820313,-0.8203125 -0.949219,0 -1.3125,1.453125 -1.3125,1.5351562 0,0.1054688 0.09375,0.1054688 0.117188,0.1054688 0.09375,0 0.105468,-0.023437 0.152343,-0.1875 0.269532,-0.9375 0.667969,-1.2304688 1.007813,-1.2304688 0.08203,0 0.257812,0 0.257812,0.3164063 0,0.2578125 -0.105468,0.515625 -0.234375,0.8554687 -0.480468,1.2539063 -0.480468,1.5117188 -0.480468,1.6875 0,0.94921879 0.785156,1.35937504 1.734375,1.41796879 -0.08203,0.3515625 -0.08203,0.375 -0.222657,0.90234375 C 44.861219,1.1021172 44.662,1.9107109 44.662,1.9458672 c 0,0.011719 0,0.09375 0.117188,0.09375 0.02344,0 0.07031,0 0.09375,-0.035156 0.02344,-0.023438 0.08203,-0.2695312 0.117187,-0.4101562 l 0.375,-1.48828126 c 0.375,0 1.242188,0 2.179688,-1.06640625 0.410156,-0.45703129 0.621093,-0.89062499 0.726562,-1.19531249 0.09375,-0.2460938 0.316406,-1.1132813 0.316406,-1.546875 0,-0.5625 -0.269531,-0.703125 -0.445312,-0.703125 -0.246094,0 -0.492188,0.2578125 -0.492188,0.4804687 0,0.1289063 0.05859,0.1875 0.152344,0.2695313 0.105469,0.1054687 0.351563,0.3632812 0.351563,0.84375 0,0.6445312 -0.515625,1.453125 -0.867188,1.81640624 -0.878906,0.890625 -1.511719,0.890625 -1.875,0.890625 z m 0,0"
         style="fill:#d9d9d9;fill-opacity:1;fill-rule:nonzero;stroke:none" />
      <path
         id="path75"
         d="m 51.989148,-2.4955391 c 0,-0.7734375 -0.117187,-1.9804687 -0.65625,-3.1054687 -0.597656,-1.21875 -1.464843,-1.875 -1.558593,-1.875 -0.05859,0 -0.105469,0.046875 -0.105469,0.1054687 0,0.035156 0,0.046875 0.199219,0.234375 0.972656,0.984375 1.535156,2.5664063 1.535156,4.640625 0,1.71093754 -0.363281,3.45703129 -1.59375,4.7226563 -0.140625,0.1171875 -0.140625,0.1289062 -0.140625,0.1640625 0,0.058594 0.04687,0.1054687 0.105469,0.1054687 0.09375,0 0.996093,-0.6796875 1.582031,-1.94531246 0.503906,-1.1015625 0.632812,-2.20312504 0.632812,-3.04687504 z m 2.572266,-4.9804687 h -1.359375 v 0.3984375 h 0.960938 v 9.1757812 h -0.960938 v 0.3984375 h 1.359375 z m 7.476563,5.1796875 h 2.777343 c 0.140625,0 0.328125,0 0.328125,-0.1992188 0,-0.1992187 -0.1875,-0.1992187 -0.328125,-0.1992187 h -2.777343 v -2.7890625 c 0,-0.1289063 0,-0.328125 -0.199219,-0.328125 -0.199219,0 -0.199219,0.1992187 -0.199219,0.328125 v 2.7890625 h -2.789062 c -0.140625,0 -0.328125,0 -0.328125,0.1992187 0,0.1992188 0.1875,0.1992188 0.328125,0.1992188 h 2.789062 v 2.80078124 c 0,0.12890625 0,0.328125 0.199219,0.328125 0.199219,0 0.199219,-0.19921875 0.199219,-0.328125 z m 0,0"
         style="fill:#d9d9d9;fill-opacity:1;fill-rule:nonzero;stroke:none" />
      <path
         id="path76"
         d="m 69.787,-2.2963203 c 0.292969,0 1.03125,-0.023437 1.523438,-0.234375 0.703125,-0.2929688 0.75,-0.890625 0.75,-1.0195313 0,-0.4453125 -0.386719,-0.8554687 -1.066407,-0.8554687 -1.113281,0 -2.613281,0.9726562 -2.613281,2.7070312 0,1.01953129 0.585938,1.80468754 1.570313,1.80468754 1.417968,0 2.261718,-1.0546875 2.261718,-1.17187504 0,-0.058594 -0.07031,-0.1289062 -0.128906,-0.1289062 -0.04687,0 -0.07031,0.023437 -0.128906,0.09375 -0.785156,0.99609374 -1.875,0.99609374 -1.992188,0.99609374 -0.773437,0 -0.867187,-0.84375 -0.867187,-1.16015624 0,-0.1171875 0.01172,-0.4335938 0.164062,-1.03125 z m -0.46875,-0.2226563 c 0.386719,-1.5117187 1.417969,-1.6640625 1.675781,-1.6640625 0.46875,0 0.738282,0.2929688 0.738282,0.6328125 0,1.03125 -1.59375,1.03125 -2.003907,1.03125 z m 0,0"
         style="fill:#d9d9d9;fill-opacity:1;fill-rule:nonzero;stroke:none" />
      <path
         id="path77"
         d="m 79.677625,-2.7006172 c 0.07031,-0.2578125 0.08203,-0.3164062 0.597656,-0.3164062 0.152344,0 0.234375,0 0.234375,-0.140625 0,-0.1054688 -0.08203,-0.1054688 -0.210937,-0.1054688 h -0.9375 c -0.210938,0 -0.210938,0 -0.304688,0.140625 L 76.361219,0.85016406 75.669813,-3.0756172 c -0.03516,-0.1875 -0.03516,-0.1875 -0.234375,-0.1875 h -1.007813 c -0.128906,0 -0.222656,0 -0.222656,0.1523438 0,0.09375 0.08203,0.09375 0.234375,0.09375 0.117187,0 0.140625,0 0.269531,0.011719 0.140625,0.011719 0.152344,0.035156 0.152344,0.1054688 0,0 0,0.046875 -0.03516,0.1523437 l -0.878907,3.49218751 c -0.05859,0.24609375 -0.164062,0.48046879 -0.714843,0.50390629 -0.05859,0 -0.152344,0 -0.152344,0.1523437 0,0 0.01172,0.09375 0.105469,0.09375 0.210937,0 0.503906,-0.023437 0.726562,-0.023437 0.164063,0 0.574219,0.023437 0.738281,0.023437 0.03516,0 0.140625,0 0.140625,-0.1523437 0,-0.09375 -0.09375,-0.09375 -0.152343,-0.09375 C 74.19325,1.2251641 74.19325,1.0493828 74.19325,0.95563281 c 0,-0.0351563 0,-0.0703125 0.02344,-0.17578125 l 0.925781,-3.71484376 h 0.01172 l 0.738281,4.2421875 c 0.02344,0.1289063 0.03516,0.1875 0.140625,0.1875 0.105469,0 0.152344,-0.082031 0.210937,-0.1523437 l 2.917969,-4.3476563 0.01172,0.011719 -0.984375,3.94921871 c -0.05859,0.23437499 -0.07031,0.29296879 -0.609375,0.29296879 -0.128906,0 -0.210938,0 -0.210938,0.1523437 0,0 0,0.09375 0.105469,0.09375 0.140625,0 0.292969,-0.023437 0.433594,-0.023437 0.140625,0 0.304687,0 0.445312,0 0.199219,0 0.691407,0.023437 0.878907,0.023437 0.04687,0 0.152343,0 0.152343,-0.1523437 0,-0.09375 -0.08203,-0.09375 -0.222656,-0.09375 -0.01172,0 -0.140625,0 -0.269531,-0.023437 -0.152344,-0.011719 -0.152344,-0.035156 -0.152344,-0.1054688 0,-0.035156 0.01172,-0.1054687 0.02344,-0.15234374 z m 0,0"
         style="fill:#d9d9d9;fill-opacity:1;fill-rule:nonzero;stroke:none" />
      <path
         id="path78"
         d="M 83.949109,2.4966484 V 2.0982109 h -0.972656 v -9.1757812 h 0.972656 v -0.3984375 h -1.371093 v 9.9726562 z m 0,0"
         style="fill:#d9d9d9;fill-opacity:1;fill-rule:nonzero;stroke:none" />
      <path
         id="path79"
         d="m 87.03407,-6.8080391 c 0,0 0,-0.1054687 -0.128906,-0.1054687 -0.234375,0 -0.960937,0.082031 -1.21875,0.1054687 -0.08203,0 -0.1875,0.011719 -0.1875,0.1992188 0,0.1171875 0.09375,0.1171875 0.234375,0.1171875 0.480469,0 0.503906,0.070312 0.503906,0.1640625 l -0.03516,0.1992187 -1.441406,5.74218754 c -0.03516,0.140625 -0.03516,0.15234375 -0.03516,0.22265625 0,0.22265625 0.199218,0.26953125 0.28125,0.26953125 0.128906,0 0.28125,-0.08203125 0.339843,-0.2109375 0.05859,-0.0820313 0.503907,-1.92187504 0.5625,-2.17968754 0.339844,0.035156 1.160157,0.1875 1.160157,0.8554688 0,0.070312 0,0.1054687 -0.03516,0.1992187 -0.02344,0.1289063 -0.03516,0.24609379 -0.03516,0.35156254 0,0.5859375 0.398438,0.984375 0.914063,0.984375 0.292968,0 0.5625,-0.15234375 0.785156,-0.52734375 0.246094,-0.43359375 0.363281,-0.98437499 0.363281,-1.00781249 0,-0.09375 -0.09375,-0.09375 -0.128906,-0.09375 -0.09375,0 -0.105469,0.035156 -0.140625,0.1757812 -0.199219,0.72656254 -0.421875,1.24218754 -0.867188,1.24218754 -0.1875,0 -0.316406,-0.1171875 -0.316406,-0.46875 0,-0.17578125 0.04687,-0.3984375 0.08203,-0.56250004 0.03516,-0.1640625 0.03516,-0.2109375 0.03516,-0.3046875 0,-0.65625 -0.621094,-0.9375 -1.464844,-1.0546875 0.304687,-0.1757812 0.621094,-0.4921875 0.855469,-0.7265625 0.480468,-0.5273437 0.9375,-0.9609375 1.417968,-0.9609375 0.05859,0 0.07031,0 0.09375,0.011719 0.117188,0.023437 0.128907,0.023437 0.210938,0.082031 0.02344,0 0.02344,0.011719 0.03516,0.035156 -0.480469,0.035156 -0.5625,0.421875 -0.5625,0.5390625 0,0.1640625 0.105469,0.3515625 0.375,0.3515625 0.257813,0 0.550781,-0.2226563 0.550781,-0.609375 0,-0.3046875 -0.234375,-0.6328125 -0.679687,-0.6328125 -0.28125,0 -0.738281,0.082031 -1.453125,0.8789062 -0.339844,0.375 -0.726563,0.7734375 -1.101563,0.9257813 z m 0,0"
         style="fill:#d9d9d9;fill-opacity:1;fill-rule:nonzero;stroke:none" />
      <path
         id="path80"
         d="m 91.25575,-7.4760078 h -1.359375 v 0.3984375 h 0.960938 v 9.1757812 h -0.960938 v 0.3984375 h 1.359375 z m 0,0"
         style="fill:#d9d9d9;fill-opacity:1;fill-rule:nonzero;stroke:none" />
    </g>
    <path
       id="path81"
       d="m 153.26015,-65.19482 34.26741,-19.55466"
       style="fill:none;stroke:#d9d9d9;stroke-width:0.79701;stroke-linecap:butt;stroke-linejoin:miter;stroke-miterlimit:10;stroke-dasharray:none;stroke-opacity:1"
       transform="matrix(1.3333333,0,0,-1.3333333,4.2946667,-53.278667)" />
    <path
       id="path82"
       d="M 2.59026,0 -1.55415,2.0722 0,0 -1.55415,-2.0722"
       style="fill:#d9d9d9;fill-opacity:1;fill-rule:nonzero;stroke:none"
       transform="matrix(1.158,0.6608,0.6608,-1.158,254.33141,59.72064)" />
    <path
       id="path83"
       d="m 159.8258,-92.08006 h 25.75655"
       style="fill:none;stroke:#d9d9d9;stroke-width:0.79701;stroke-linecap:butt;stroke-linejoin:miter;stroke-miterlimit:10;stroke-dasharray:none;stroke-opacity:1"
       transform="matrix(1.3333333,0,0,-1.3333333,4.2946667,-53.278667)" />
    <path
       id="path84"
       d="M 2.59026,0 -1.55415,2.0722 0,0 -1.55415,-2.0722"
       style="fill:#d9d9d9;fill-opacity:1;fill-rule:nonzero;stroke:none"
       transform="matrix(1.3333333,0,0,-1.3333333,251.7378,69.494747)" />
    <path
       id="path85"
       d="m 146.63481,-147.31212 43.42471,44.63141"
       style="fill:none;stroke:#d9d9d9;stroke-width:0.79701;stroke-linecap:butt;stroke-linejoin:miter;stroke-miterlimit:10;stroke-dasharray:none;stroke-opacity:1"
       transform="matrix(1.3333333,0,0,-1.3333333,4.2946667,-53.278667)" />
    <path
       id="path86"
       d="M 2.59026,0 -1.55415,2.0722 0,0 -1.55415,-2.0722"
       style="fill:#d9d9d9;fill-opacity:1;fill-rule:nonzero;stroke:none"
       transform="matrix(0.92977333,-0.9556,-0.9556,-0.92977333,257.70736,83.628973)" />
    <path
       id="path87"
       d="m 29.75584,-110.1908 c 0,0.77819 -0.63086,1.40903 -1.40904,1.40903 -0.77818,0 -1.40904,-0.63084 -1.40904,-1.40903 0,-0.7782 0.63086,-1.40904 1.40904,-1.40904 0.77818,0 1.40904,0.63084 1.40904,1.40904 z"
       style="fill:#d9d9d9;fill-opacity:1;fill-rule:nonzero;stroke:none"
       transform="matrix(1.3333333,0,0,-1.3333333,4.2946667,-53.278667)" />
    <path
       id="path88"
       d="m 29.75584,-121.91151 c 0,0.77818 -0.63086,1.40904 -1.40904,1.40904 -0.77818,0 -1.40904,-0.63086 -1.40904,-1.40904 0,-0.77819 0.63086,-1.40905 1.40904,-1.40905 0.77818,0 1.40904,0.63086 1.40904,1.40905 z"
       style="fill:#d9d9d9;fill-opacity:1;fill-rule:nonzero;stroke:none"
       transform="matrix(1.3333333,0,0,-1.3333333,4.2946667,-53.278667)" />
    <path
       id="path89"
       d="m 29.75584,-133.63222 c 0,0.77819 -0.63086,1.40904 -1.40904,1.40904 -0.77818,0 -1.40904,-0.63085 -1.40904,-1.40904 0,-0.7782 0.63086,-1.40904 1.40904,-1.40904 0.77818,0 1.40904,0.63084 1.40904,1.40904 z"
       style="fill:#d9d9d9;fill-opacity:1;fill-rule:nonzero;stroke:none"
       transform="matrix(1.3333333,0,0,-1.3333333,4.2946667,-53.278667)" />
    <path
       id="path90"
       d="m 139.7755,-110.69368 c 0,0.77818 -0.63086,1.40904 -1.40904,1.40904 -0.77819,0 -1.40905,-0.63086 -1.40905,-1.40904 0,-0.7782 0.63086,-1.40904 1.40905,-1.40904 0.77818,0 1.40904,0.63084 1.40904,1.40904 z"
       style="fill:#d9d9d9;fill-opacity:1;fill-rule:nonzero;stroke:none"
       transform="matrix(1.3333333,0,0,-1.3333333,4.2946667,-53.278667)" />
    <path
       id="path91"
       d="m 139.7755,-122.4144 c 0,0.7782 -0.63086,1.40904 -1.40904,1.40904 -0.77819,0 -1.40905,-0.63084 -1.40905,-1.40904 0,-0.77818 0.63086,-1.40904 1.40905,-1.40904 0.77818,0 1.40904,0.63086 1.40904,1.40904 z"
       style="fill:#d9d9d9;fill-opacity:1;fill-rule:nonzero;stroke:none"
       transform="matrix(1.3333333,0,0,-1.3333333,4.2946667,-53.278667)" />
    <path
       id="path92"
       d="m 139.7755,-134.1351 c 0,0.77818 -0.63086,1.40904 -1.40904,1.40904 -0.77819,0 -1.40905,-0.63086 -1.40905,-1.40904 0,-0.7782 0.63086,-1.40904 1.40905,-1.40904 0.77818,0 1.40904,0.63084 1.40904,1.40904 z"
       style="fill:#d9d9d9;fill-opacity:1;fill-rule:nonzero;stroke:none"
       transform="matrix(1.3333333,0,0,-1.3333333,4.2946667,-53.278667)" />
    <path
       id="path93"
       d="m 212.57372,-92.08006 h 25.75654"
       style="fill:none;stroke:#d9d9d9;stroke-width:0.79701;stroke-linecap:butt;stroke-linejoin:miter;stroke-miterlimit:10;stroke-dasharray:none;stroke-opacity:1"
       transform="matrix(1.3333333,0,0,-1.3333333,4.2946667,-53.278667)" />
    <path
       id="path94"
       d="M 2.59026,0 -1.55415,2.0722 0,0 -1.55415,-2.0722"
       style="fill:#d9d9d9;fill-opacity:1;fill-rule:nonzero;stroke:none"
       transform="matrix(1.3333333,0,0,-1.3333333,322.06835,69.494747)" />
    <path
       id="path95"
       d="m 283.83923,-92.08006 h 25.75655"
       style="fill:none;stroke:#d9d9d9;stroke-width:0.79701;stroke-linecap:butt;stroke-linejoin:miter;stroke-miterlimit:10;stroke-dasharray:none;stroke-opacity:1"
       transform="matrix(1.3333333,0,0,-1.3333333,4.2946667,-53.278667)" />
    <path
       id="path96"
       d="M 2.59026,0 -1.55415,2.0722 0,0 -1.55415,-2.0722"
       style="fill:#d9d9d9;fill-opacity:1;fill-rule:nonzero;stroke:none"
       transform="matrix(1.3333333,0,0,-1.3333333,417.08904,69.494747)" />
  </g>
</svg>
