<?xml version="1.0" encoding="UTF-8" standalone="no"?>
<!-- Created with Inkscape (http://www.inkscape.org/) -->

<svg
   version="1.1"
   id="svg1"
   width="417.57468"
   height="142.476"
   viewBox="0 0 417.57468 142.476"
   xmlns="http://www.w3.org/2000/svg"
   xmlns:svg="http://www.w3.org/2000/svg">
  <defs
     id="defs1" />
  <g
     id="g1">
    <path
       id="path1"
       d="M 2.4018203,-6.5847266 C 2.3080703,-6.8073828 2.2846328,-6.8073828 2.0502578,-6.8073828 H 0.36275781 v 0.3164062 h 0.24609375 c 0.76171874,0 0.78515624,0.1054688 0.78515624,0.46875 v 4.9804688 c 0,0.26953124 0,0.73828124 -1.03124999,0.73828124 v 0.3046875 c 0.3515625,-0.01171875 0.84374999,-0.03515625 1.17187499,-0.03515625 0.328125,0 0.8203125,0.0234375 1.1601563,0.03515625 v -0.3046875 c -1.0195313,0 -1.0195313,-0.46875 -1.0195313,-0.73828124 v -5.3671875 h 0.011719 l 2.4023437,6.18749999 c 0.046875,0.12890625 0.09375,0.22265625 0.1992188,0.22265625 0.1054687,0 0.1289062,-0.08203125 0.1757812,-0.1875 L 6.9135391,-6.4909766 h 0.011719 v 5.71875004 c 0,0.3515625 -0.023437,0.46875 -0.7851562,0.46875 H 5.8940078 v 0.3046875 c 0.375,-0.03515625 1.0429688,-0.03515625 1.4414063,-0.03515625 0.3867187,0 1.0546875,0 1.4179687,0.03515625 v -0.3046875 h -0.234375 c -0.7734375,0 -0.7851562,-0.1171875 -0.7851562,-0.46875 V -6.0222266 c 0,-0.3632812 0.011719,-0.46875 0.7851562,-0.46875 h 0.234375 V -6.8073828 H 7.0776016 c -0.2695313,0 -0.2695313,0.011719 -0.3398438,0.1992187 l -2.1796875,5.6015625 z m 7.8427737,4.078125 c 0.05859,-1.4882812 0.902344,-1.734375 1.242187,-1.734375 1.019532,0 1.125,1.3476563 1.125,1.734375 z m -0.01172,0.2109375 h 2.789063 c 0.210937,0 0.246093,0 0.246093,-0.2109375 0,-0.984375 -0.539062,-1.9570312 -1.78125,-1.9570312 -1.160156,0 -2.0742185,1.03125 -2.0742185,2.2734375 0,1.33593749 1.0429685,2.29687499 2.1914065,2.29687499 1.21875,0 1.664062,-1.1015625 1.664062,-1.28906249 0,-0.1054688 -0.08203,-0.1171875 -0.128906,-0.1171875 -0.09375,0 -0.117187,0.058594 -0.128906,0.140625 -0.351563,1.01953124 -1.253906,1.01953124 -1.347656,1.01953124 -0.503907,0 -0.902344,-0.29296875 -1.125,-0.66796875 C 10.232875,-1.2878516 10.232875,-1.9441016 10.232875,-2.2956641 Z m 6.644531,1.53515629 c 0.03516,0.3984375 0.304688,0.8203125 0.773438,0.8203125 0.210937,0 0.820312,-0.140625 0.820312,-0.94921875 V -1.4401953 h -0.246094 v 0.55078124 c 0,0.5859375 -0.246093,0.64453125 -0.363281,0.64453125 -0.328125,0 -0.363281,-0.45703125 -0.363281,-0.50390625 V -2.7409766 c 0,-0.4101562 0,-0.8085937 -0.363281,-1.171875 -0.386719,-0.3867187 -0.878907,-0.5507812 -1.359375,-0.5507812 -0.820313,0 -1.511719,0.46875 -1.511719,1.125 0,0.3046875 0.199219,0.46875 0.457031,0.46875 0.28125,0 0.46875,-0.1992188 0.46875,-0.4570313 0,-0.1171875 -0.05859,-0.4453125 -0.515625,-0.4570312 0.269532,-0.3515625 0.761719,-0.4570313 1.078125,-0.4570313 0.492188,0 1.054688,0.3867188 1.054688,1.2773438 v 0.3632812 c -0.503907,0.035156 -1.207031,0.058594 -1.828125,0.3632813 -0.75,0.3398437 -0.996094,0.8554687 -0.996094,1.28906249 0,0.80859375 0.960938,1.0546875 1.59375,1.0546875 0.65625,0 1.113281,-0.3984375 1.300781,-0.8671875 z m -0.07031,-1.62890629 v 0.9960938 c 0,0.94921874 -0.714844,1.28906249 -1.160156,1.28906249 -0.492188,0 -0.902344,-0.3515625 -0.902344,-0.85546875 0,-0.53906254 0.421875,-1.37109374 2.0625,-1.42968754 z m 3.808593,0.4570313 c 0.222657,0.035156 1.03125,0.1992187 1.03125,0.9140625 0,0.51562499 -0.351562,0.91406249 -1.125,0.91406249 -0.832031,0 -1.195312,-0.57421875 -1.382812,-1.41796879 -0.03516,-0.1289062 -0.03516,-0.1757812 -0.140625,-0.1757812 -0.128906,0 -0.128906,0.070312 -0.128906,0.2578125 v 1.31249999 c 0,0.1640625 0,0.234375 0.105468,0.234375 0.05859,0 0.07031,0 0.257813,-0.19921875 0.01172,-0.01171875 0.01172,-0.03515625 0.199219,-0.22265625 0.433593,0.421875 0.878906,0.421875 1.089843,0.421875 1.148438,0 1.605469,-0.66796875 1.605469,-1.38281249 0,-0.5273438 -0.292969,-0.8203125 -0.421875,-0.9492188 -0.328125,-0.3164062 -0.714844,-0.3984375 -1.136719,-0.46875 -0.550781,-0.1171875 -1.21875,-0.2460937 -1.21875,-0.8203125 0,-0.3515625 0.257813,-0.7617187 1.113282,-0.7617187 1.101562,0 1.148437,0.9023437 1.171875,1.2070312 0,0.09375 0.09375,0.09375 0.117187,0.09375 0.128906,0 0.128906,-0.046875 0.128906,-0.2460937 v -0.9960938 c 0,-0.1757812 0,-0.2460937 -0.117187,-0.2460937 -0.04687,0 -0.07031,0 -0.199219,0.1171875 -0.02344,0.046875 -0.128906,0.1289062 -0.164062,0.1640625 -0.375,-0.28125 -0.785157,-0.28125 -0.9375,-0.28125 -1.21875,0 -1.59375,0.6679687 -1.59375,1.2304687 0,0.3398438 0.164062,0.6210938 0.433593,0.84375 0.316407,0.2578125 0.597657,0.3164063 1.3125,0.4570313 z m 5.745118,1.14843749 v 0.890625 l 1.441406,-0.10546875 v -0.3046875 c -0.703125,0 -0.785156,-0.0703125 -0.785156,-0.5625 V -4.4050391 l -1.453125,0.1171875 v 0.3046875 c 0.691406,0 0.773437,0.070312 0.773437,0.5625 v 1.7695313 c 0,0.86718749 -0.480469,1.54687499 -1.207031,1.54687499 -0.832031,0 -0.878906,-0.46875 -0.878906,-0.99609379 v -3.3046875 l -1.464844,0.1171875 v 0.3046875 c 0.785156,0 0.785156,0.035156 0.785156,0.9140625 v 1.5 c 0,0.77343754 0,1.67578129 1.511719,1.67578129 0.550781,0 0.996094,-0.26953125 1.277344,-0.890625 z m 3.310547,-2.51953129 v -1.1015625 l -1.382813,0.1171875 v 0.3046875 c 0.691406,0 0.773438,0.070312 0.773438,0.5625 v 2.66015629 c 0,0.45703125 -0.105469,0.45703125 -0.773438,0.45703125 v 0.3046875 c 0.386719,-0.01171875 0.855469,-0.03515625 1.136719,-0.03515625 0.398437,0 0.867187,0 1.265625,0.03515625 v -0.3046875 h -0.210938 c -0.738281,0 -0.761718,-0.1171875 -0.761718,-0.46875 V -2.3073828 c 0,-0.984375 0.421875,-1.875 1.183593,-1.875 0.05859,0 0.08203,0 0.105469,0.011719 -0.03516,0.011719 -0.234375,0.1289063 -0.234375,0.3867188 0,0.28125 0.210938,0.4335937 0.433594,0.4335937 0.175781,0 0.421875,-0.1289062 0.421875,-0.4453125 0,-0.3164062 -0.304688,-0.609375 -0.726563,-0.609375 -0.738281,0 -1.089843,0.6679688 -1.230468,1.1015622 z m 3.351562,0.796875 c 0.05859,-1.4882812 0.902344,-1.734375 1.242188,-1.734375 1.019531,0 1.125,1.3476563 1.125,1.734375 z m -0.01172,0.2109375 h 2.789063 c 0.210937,0 0.246094,0 0.246094,-0.2109375 0,-0.984375 -0.539063,-1.9570312 -1.78125,-1.9570312 -1.160157,0 -2.074219,1.03125 -2.074219,2.2734375 0,1.33593749 1.042969,2.29687499 2.191406,2.29687499 1.21875,0 1.664063,-1.1015625 1.664063,-1.28906249 0,-0.1054688 -0.08203,-0.1171875 -0.128907,-0.1171875 -0.09375,0 -0.117187,0.058594 -0.128906,0.140625 -0.351562,1.01953124 -1.253906,1.01953124 -1.347656,1.01953124 -0.503906,0 -0.902344,-0.29296875 -1.125,-0.66796875 C 33.011195,-1.2878516 33.011195,-1.9441016 33.011195,-2.2956641 Z m 4.426758,-1.125 v 2.66015629 c 0,0.45703125 -0.117187,0.45703125 -0.785156,0.45703125 v 0.3046875 c 0.351562,-0.01171875 0.855469,-0.03515625 1.125,-0.03515625 0.257812,0 0.785156,0.0234375 1.113281,0.03515625 v -0.3046875 c -0.65625,0 -0.773437,0 -0.773437,-0.45703125 V -2.5886328 c 0,-1.03125 0.714843,-1.59375 1.347656,-1.59375 0.621094,0 0.738281,0.5390625 0.738281,1.1015625 v 2.32031249 c 0,0.45703125 -0.117187,0.45703125 -0.773437,0.45703125 v 0.3046875 c 0.339843,-0.01171875 0.855468,-0.03515625 1.125,-0.03515625 0.257812,0 0.773437,0.0234375 1.113281,0.03515625 v -0.3046875 c -0.667969,0 -0.785156,0 -0.785156,-0.45703125 V -2.5886328 c 0,-1.03125 0.714843,-1.59375 1.347656,-1.59375 0.632812,0 0.738281,0.5390625 0.738281,1.1015625 v 2.32031249 c 0,0.45703125 -0.105469,0.45703125 -0.773437,0.45703125 v 0.3046875 c 0.351562,-0.01171875 0.855468,-0.03515625 1.125,-0.03515625 0.257812,0 0.773437,0.0234375 1.113281,0.03515625 v -0.3046875 c -0.515625,0 -0.761719,0 -0.773438,-0.3046875 V -2.5066016 c 0,-0.8554687 0,-1.171875 -0.316406,-1.5234375 -0.128906,-0.1757812 -0.46875,-0.375 -1.042969,-0.375 -0.832031,0 -1.277343,0.5976563 -1.441406,0.984375 -0.140625,-0.8671875 -0.878906,-0.984375 -1.324219,-0.984375 -0.726562,0 -1.195312,0.4335938 -1.476562,1.0546875 v -1.0546875 l -1.40625,0.1171875 v 0.3046875 c 0.703125,0 0.785156,0.070312 0.785156,0.5625 z m 8.311524,0.9140625 c 0.05859,-1.4882812 0.902343,-1.734375 1.242187,-1.734375 1.019531,0 1.125,1.3476563 1.125,1.734375 z m -0.01172,0.2109375 h 2.789062 c 0.210938,0 0.246094,0 0.246094,-0.2109375 0,-0.984375 -0.539062,-1.9570312 -1.78125,-1.9570312 -1.160156,0 -2.074219,1.03125 -2.074219,2.2734375 0,1.33593749 1.042969,2.29687499 2.191407,2.29687499 1.21875,0 1.664062,-1.1015625 1.664062,-1.28906249 0,-0.1054688 -0.08203,-0.1171875 -0.128906,-0.1171875 -0.09375,0 -0.117188,0.058594 -0.128906,0.140625 -0.351563,1.01953124 -1.253907,1.01953124 -1.347657,1.01953124 -0.503906,0 -0.902343,-0.29296875 -1.125,-0.66796875 C 45.737758,-1.2878516 45.737758,-1.9441016 45.737757,-2.2956641 Z m 4.429687,-1.125 v 2.66015629 c 0,0.45703125 -0.117187,0.45703125 -0.785156,0.45703125 v 0.3046875 c 0.351563,-0.01171875 0.855469,-0.03515625 1.125,-0.03515625 0.257813,0 0.785156,0.0234375 1.113281,0.03515625 v -0.3046875 c -0.65625,0 -0.773437,0 -0.773437,-0.45703125 V -2.5886328 c 0,-1.03125 0.714844,-1.59375 1.347656,-1.59375 0.621094,0 0.738281,0.5390625 0.738281,1.1015625 v 2.32031249 c 0,0.45703125 -0.117187,0.45703125 -0.773437,0.45703125 v 0.3046875 c 0.339844,-0.01171875 0.855469,-0.03515625 1.125,-0.03515625 0.257812,0 0.773437,0.0234375 1.113281,0.03515625 v -0.3046875 c -0.515625,0 -0.773437,0 -0.785156,-0.3046875 V -2.5066016 c 0,-0.8554687 0,-1.171875 -0.304688,-1.5234375 -0.140625,-0.1757812 -0.46875,-0.375 -1.042968,-0.375 -0.726563,0 -1.195313,0.4335938 -1.476563,1.0546875 v -1.0546875 l -1.40625,0.1171875 v 0.3046875 c 0.703125,0 0.785156,0.070312 0.785156,0.5625 z m 5.876953,-0.5625 h 1.429688 v -0.3046875 h -1.429688 v -1.8398437 h -0.246093 c -0.01172,0.8203125 -0.316407,1.8867187 -1.289063,1.921875 v 0.2226562 h 0.84375 v 2.7539063 c 0,1.21874999 0.925781,1.33593749 1.289063,1.33593749 0.703125,0 0.984375,-0.703125 0.984375,-1.33593749 v -0.5742188 h -0.246094 v 0.5507813 c 0,0.73828124 -0.304688,1.11328124 -0.667969,1.11328124 -0.667969,0 -0.667969,-0.90234374 -0.667969,-1.07812504 z M 13.572719,10.020742 c 0.222656,0.03516 1.03125,0.199219 1.03125,0.914063 0,0.515625 -0.351563,0.914062 -1.125,0.914062 -0.832031,0 -1.195313,-0.574219 -1.382813,-1.417969 -0.03516,-0.128906 -0.03516,-0.175781 -0.140625,-0.175781 -0.128906,0 -0.128906,0.07031 -0.128906,0.257813 v 1.3125 c 0,0.164062 0,0.234375 0.105469,0.234375 0.05859,0 0.07031,0 0.257812,-0.199219 0.01172,-0.01172 0.01172,-0.03516 0.199219,-0.222656 0.433594,0.421875 0.878906,0.421875 1.089844,0.421875 1.148437,0 1.605469,-0.667969 1.605469,-1.382813 0,-0.527344 -0.292969,-0.8203123 -0.421875,-0.9492186 -0.328125,-0.3164062 -0.714844,-0.3984375 -1.136719,-0.46875 -0.550781,-0.1171875 -1.21875,-0.2460937 -1.21875,-0.8203125 0,-0.3515625 0.257812,-0.7617187 1.113281,-0.7617187 1.101563,0 1.148438,0.9023437 1.171875,1.2070312 0,0.09375 0.09375,0.09375 0.117188,0.09375 0.128906,0 0.128906,-0.046875 0.128906,-0.2460937 V 7.7355859 c 0,-0.1757812 0,-0.2460937 -0.117188,-0.2460937 -0.04687,0 -0.07031,0 -0.199218,0.1171875 -0.02344,0.046875 -0.128907,0.1289062 -0.164063,0.1640625 -0.375,-0.28125 -0.785156,-0.28125 -0.9375,-0.28125 -1.21875,0 -1.59375,0.6679687 -1.59375,1.2304687 0,0.3398438 0.164063,0.6210938 0.433594,0.84375 0.316406,0.2578125 0.597656,0.3164063 1.3125,0.4570311 z m 2.967773,-0.5742186 c 0.05859,-1.4882812 0.902344,-1.734375 1.242188,-1.734375 1.019531,0 1.125,1.3476563 1.125,1.734375 z m -0.01172,0.2109375 h 2.789063 c 0.210937,0 0.246094,0 0.246094,-0.2109375 0,-0.984375 -0.539063,-1.9570312 -1.78125,-1.9570312 -1.160157,0 -2.074219,1.03125 -2.074219,2.2734375 0,1.3359373 1.042969,2.2968753 2.191406,2.2968753 1.21875,0 1.664063,-1.101563 1.664063,-1.289063 0,-0.105469 -0.08203,-0.117187 -0.128907,-0.117187 -0.09375,0 -0.117187,0.05859 -0.128906,0.140625 -0.351562,1.019531 -1.253906,1.019531 -1.347656,1.019531 -0.503906,0 -0.902344,-0.292969 -1.125,-0.667969 -0.304688,-0.480469 -0.304688,-1.136719 -0.304688,-1.4882811 z m 5.542969,0.5859371 c -0.867187,0 -0.867187,-0.9960933 -0.867187,-1.2304683 0,-0.2695313 0.01172,-0.5859375 0.152343,-0.8320313 0.08203,-0.1171875 0.316407,-0.3984375 0.714844,-0.3984375 0.867188,0 0.867188,0.9960938 0.867188,1.21875 0,0.2695313 -0.01172,0.5976563 -0.164063,0.84375 -0.08203,0.1171875 -0.304687,0.3984371 -0.703125,0.3984371 z m -1.160156,0.386719 c 0,-0.03516 0,-0.269531 0.175781,-0.46875 0.386719,0.28125 0.796875,0.304688 0.984375,0.304688 0.925781,0 1.605469,-0.6796878 1.605469,-1.4531253 0,-0.3632813 -0.152344,-0.7382813 -0.398438,-0.9609375 0.351563,-0.3398438 0.714844,-0.3867188 0.890625,-0.3867188 0.02344,0 0.07031,0 0.105469,0 -0.117187,0.046875 -0.164062,0.1523438 -0.164062,0.2695313 0,0.1757812 0.128906,0.2929687 0.292968,0.2929687 0.09375,0 0.28125,-0.070312 0.28125,-0.2929687 0,-0.1757813 -0.117187,-0.4921875 -0.503906,-0.4921875 -0.199219,0 -0.632812,0.058594 -1.054687,0.46875 -0.421875,-0.328125 -0.84375,-0.3632813 -1.054688,-0.3632813 -0.925781,0 -1.617187,0.6914063 -1.617187,1.453125 0,0.4453125 0.222656,0.8203125 0.46875,1.0312501 -0.128907,0.152344 -0.304688,0.480469 -0.304688,0.820312 0,0.316407 0.128906,0.691407 0.433594,0.890625 -0.597656,0.175782 -0.914063,0.597657 -0.914063,0.996094 0,0.714844 0.984375,1.265625 2.203125,1.265625 1.171875,0 2.203125,-0.503906 2.203125,-1.289062 0,-0.339844 -0.140625,-0.855469 -0.644531,-1.125 -0.527344,-0.28125 -1.101562,-0.28125 -1.710937,-0.28125 -0.246094,0 -0.679688,0 -0.75,-0.01172 -0.316407,-0.04687 -0.527344,-0.351563 -0.527344,-0.667969 z m 1.441406,3.152344 c -1.007812,0 -1.699219,-0.515625 -1.699219,-1.042969 0,-0.457031 0.375,-0.820312 0.820313,-0.855469 h 0.585937 c 0.855469,0 1.96875,0 1.96875,0.855469 0,0.539063 -0.703125,1.042969 -1.675781,1.042969 z M 25.93893,8.5324609 v 2.6601561 c 0,0.457031 -0.117188,0.457031 -0.785157,0.457031 v 0.304688 c 0.351563,-0.01172 0.855469,-0.03516 1.125,-0.03516 0.257813,0 0.785157,0.02344 1.113282,0.03516 v -0.304688 c -0.65625,0 -0.773438,0 -0.773438,-0.457031 V 9.3644922 c 0,-1.03125 0.714844,-1.59375 1.347656,-1.59375 0.621094,0 0.738282,0.5390625 0.738282,1.1015625 v 2.3203123 c 0,0.457031 -0.117188,0.457031 -0.773438,0.457031 v 0.304688 c 0.339844,-0.01172 0.855469,-0.03516 1.125,-0.03516 0.257813,0 0.773438,0.02344 1.113281,0.03516 v -0.304688 c -0.667968,0 -0.785156,0 -0.785156,-0.457031 V 9.3644922 c 0,-1.03125 0.714844,-1.59375 1.347656,-1.59375 0.632813,0 0.738282,0.5390625 0.738282,1.1015625 v 2.3203123 c 0,0.457031 -0.105469,0.457031 -0.773438,0.457031 v 0.304688 c 0.351563,-0.01172 0.855469,-0.03516 1.125,-0.03516 0.257813,0 0.773438,0.02344 1.113281,0.03516 v -0.304688 c -0.515625,0 -0.761718,0 -0.773437,-0.304687 V 9.4465234 c 0,-0.8554687 0,-1.171875 -0.316406,-1.5234375 -0.128907,-0.1757812 -0.46875,-0.375 -1.042969,-0.375 -0.832031,0 -1.277344,0.5976563 -1.441406,0.984375 -0.140625,-0.8671875 -0.878907,-0.984375 -1.324219,-0.984375 -0.726563,0 -1.195313,0.4335938 -1.476563,1.0546875 V 7.5480859 l -1.40625,0.1171875 v 0.3046875 c 0.703125,0 0.785157,0.070312 0.785157,0.5625 z m 8.314453,0.9140625 c 0.05859,-1.4882812 0.902344,-1.734375 1.242187,-1.734375 1.019532,0 1.125,1.3476563 1.125,1.734375 z m -0.01172,0.2109375 h 2.789063 c 0.210937,0 0.246093,0 0.246093,-0.2109375 0,-0.984375 -0.539062,-1.9570312 -1.78125,-1.9570312 -1.160156,0 -2.074218,1.03125 -2.074218,2.2734375 0,1.3359373 1.042968,2.2968753 2.191406,2.2968753 1.21875,0 1.664062,-1.101563 1.664062,-1.289063 0,-0.105469 -0.08203,-0.117187 -0.128906,-0.117187 -0.09375,0 -0.117187,0.05859 -0.128906,0.140625 -0.351563,1.019531 -1.253906,1.019531 -1.347656,1.019531 -0.503907,0 -0.902344,-0.292969 -1.125,-0.667969 -0.304688,-0.480469 -0.304688,-1.136719 -0.304688,-1.4882811 z m 4.426758,-1.125 v 2.6601561 c 0,0.457031 -0.117188,0.457031 -0.785156,0.457031 v 0.304688 c 0.351562,-0.01172 0.855468,-0.03516 1.125,-0.03516 0.257812,0 0.785156,0.02344 1.113281,0.03516 v -0.304688 c -0.65625,0 -0.773438,0 -0.773438,-0.457031 V 9.3644922 c 0,-1.03125 0.714844,-1.59375 1.347657,-1.59375 0.621093,0 0.738281,0.5390625 0.738281,1.1015625 v 2.3203123 c 0,0.457031 -0.117188,0.457031 -0.773438,0.457031 v 0.304688 c 0.339844,-0.01172 0.855469,-0.03516 1.125,-0.03516 0.257813,0 0.773438,0.02344 1.113282,0.03516 v -0.304688 c -0.515625,0 -0.773438,0 -0.785157,-0.304687 V 9.4465234 c 0,-0.8554687 0,-1.171875 -0.304687,-1.5234375 -0.140625,-0.1757812 -0.46875,-0.375 -1.042969,-0.375 -0.726562,0 -1.195312,0.4335938 -1.476562,1.0546875 V 7.5480859 l -1.40625,0.1171875 v 0.3046875 c 0.703125,0 0.785156,0.070312 0.785156,0.5625 z m 5.876953,-0.5625 h 1.429687 V 7.6652734 H 44.545375 V 5.8254297 h -0.246094 c -0.01172,0.8203125 -0.316406,1.8867187 -1.289062,1.921875 v 0.2226562 h 0.84375 v 2.7539061 c 0,1.21875 0.925781,1.335938 1.289062,1.335938 0.703125,0 0.984375,-0.703125 0.984375,-1.335938 v -0.574219 h -0.246094 v 0.550782 c 0,0.738281 -0.304687,1.113281 -0.667968,1.113281 -0.667969,0 -0.667969,-0.902344 -0.667969,-1.078125 z m 0,0"
       style="fill:#d9d9d9;fill-opacity:1;fill-rule:nonzero;stroke:none"
       aria-label="Measurement&#10;segment"
       transform="matrix(1.3333333,0,0,1.3333333,65.918667,13.486667)" />
    <path
       id="path2"
       d="M 131.14821,13.72612 H 67.27953 c -2.20095,0 -3.98511,-1.78416 -3.98511,-3.98511 V -9.74101 c 0,-2.20095 1.78416,-3.98511 3.98511,-3.98511 h 63.86868 c 2.20094,0 3.98511,1.78416 3.98511,3.98511 V 9.74101 c 0,2.20095 -1.78417,3.98511 -3.98511,3.98511 z"
       style="fill:#d9d9d9;fill-opacity:0.4;fill-rule:nonzero;stroke:#d9d9d9;stroke-width:0.3985;stroke-linecap:butt;stroke-linejoin:miter;stroke-miterlimit:10;stroke-dasharray:none;stroke-opacity:1"
       transform="matrix(1.3333333,0,0,-1.3333333,104.71867,18.209333)" />
    <path
       id="path3"
       d="m 2.2149531,-3.6455859 v -2.4492188 c 0,-0.328125 0.011719,-0.3984375 0.4804688,-0.3984375 h 1.2421875 c 0.9609375,0 1.3125,0.84375 1.3125,1.3710938 0,0.6328125 -0.4921875,1.4765625 -1.59375,1.4765625 z m 2.34375,0.09375 c 0.9726563,-0.1992188 1.6523438,-0.8320313 1.6523438,-1.5703125 0,-0.8671875 -0.9140625,-1.6875 -2.203125,-1.6875 H 0.36339062 v 0.3164062 h 0.234375 c 0.76171878,0 0.78515628,0.1054688 0.78515628,0.46875 v 5.25000001 c 0,0.3515625 -0.023437,0.46875 -0.78515628,0.46875 h -0.234375 v 0.3046875 H 4.2657344 c 1.3242187,0 2.2148437,-0.890625 2.2148437,-1.82812501 0,-0.8671875 -0.8085937,-1.6054687 -1.921875,-1.7226562 z m -0.609375,3.24609371 H 2.6954219 c -0.46875,0 -0.4804688,-0.0703125 -0.4804688,-0.3984375 V -3.4229297 h 1.875 c 0.984375,0 1.3945313,0.9257813 1.3945313,1.59375 0,0.703125 -0.515625,1.52343751 -1.5351563,1.52343751 z m 6.4248049,-0.45703125 c 0.03516,0.3984375 0.304687,0.8203125 0.773437,0.8203125 0.210938,0 0.820313,-0.140625 0.820313,-0.94921875 V -1.4424609 h -0.246094 v 0.55078121 c 0,0.5859375 -0.246094,0.64453125 -0.363281,0.64453125 -0.328125,0 -0.363281,-0.45703125 -0.363281,-0.50390625 V -2.7432422 c 0,-0.4101562 0,-0.8085937 -0.363282,-1.171875 -0.386718,-0.3867187 -0.8789059,-0.5507812 -1.3593747,-0.5507812 -0.8203125,0 -1.5117187,0.46875 -1.5117187,1.125 0,0.3046875 0.1992187,0.46875 0.4570312,0.46875 0.28125,0 0.46875,-0.1992188 0.46875,-0.4570313 0,-0.1171875 -0.058594,-0.4453125 -0.515625,-0.4570312 0.2695313,-0.3515625 0.7617188,-0.4570313 1.078125,-0.4570313 0.4921875,0 1.0546872,0.3867188 1.0546872,1.2773438 v 0.3632812 c -0.5039059,0.035156 -1.2070309,0.058594 -1.8281247,0.3632813 -0.75,0.3398437 -0.9960937,0.8554687 -0.9960937,1.28906246 0,0.80859375 0.9609375,1.0546875 1.59375,1.0546875 0.65625,0 1.1132814,-0.3984375 1.3007814,-0.8671875 z M 10.30382,-2.3916797 v 0.9960938 c 0,0.94921871 -0.7148434,1.28906246 -1.1601559,1.28906246 -0.4921875,0 -0.9023438,-0.3515625 -0.9023438,-0.85546875 0,-0.53906251 0.421875,-1.37109371 2.0624997,-1.42968751 z m 2.835938,-1.03125 v 2.66015626 c 0,0.45703125 -0.117188,0.45703125 -0.785156,0.45703125 v 0.3046875 c 0.351562,-0.01171875 0.855468,-0.03515625 1.125,-0.03515625 0.257812,0 0.785156,0.0234375 1.113281,0.03515625 v -0.3046875 c -0.65625,0 -0.773438,0 -0.773438,-0.45703125 V -2.5908984 c 0,-1.03125 0.714844,-1.59375 1.347657,-1.59375 0.621093,0 0.738281,0.5390625 0.738281,1.1015625 v 2.32031246 c 0,0.45703125 -0.117188,0.45703125 -0.773438,0.45703125 v 0.3046875 c 0.339844,-0.01171875 0.855469,-0.03515625 1.125,-0.03515625 0.257813,0 0.773438,0.0234375 1.113282,0.03515625 v -0.3046875 c -0.515625,0 -0.773438,0 -0.785157,-0.3046875 V -2.5088672 c 0,-0.8554687 0,-1.171875 -0.304687,-1.5234375 -0.140625,-0.1757812 -0.46875,-0.375 -1.042969,-0.375 -0.726562,0 -1.195312,0.4335938 -1.476562,1.0546875 v -1.0546875 l -1.40625,0.1171875 v 0.3046875 c 0.703125,0 0.785156,0.070312 0.785156,0.5625 z m 8.217773,2.87109376 v 0.65625 l 1.464844,-0.10546875 v -0.3046875 c -0.703125,0 -0.773438,-0.0703125 -0.773438,-0.5625 V -6.9151172 l -1.441406,0.1054688 v 0.3164062 c 0.703125,0 0.785156,0.070312 0.785156,0.5507813 v 2.15625 c -0.292968,-0.3632813 -0.726562,-0.6210938 -1.265625,-0.6210938 -1.171875,0 -2.214843,0.984375 -2.214843,2.2617188 0,1.26562496 0.972656,2.24999996 2.109375,2.24999996 0.644531,0 1.089843,-0.33984375 1.335937,-0.65625 z m 0,-2.67187496 v 2.0507812 c 0,0.17578126 0,0.19921876 -0.105469,0.36328126 -0.304687,0.48046875 -0.75,0.703125 -1.183593,0.703125 -0.445313,0 -0.796875,-0.2578125 -1.042969,-0.64453125 -0.257813,-0.41015621 -0.292969,-0.97265621 -0.292969,-1.38281251 0,-0.3632812 0.02344,-0.9609375 0.316406,-1.4179687 0.210938,-0.3046875 0.585938,-0.6328125 1.125,-0.6328125 0.351563,0 0.761719,0.1523437 1.078125,0.5976562 0.105469,0.1640625 0.105469,0.1875 0.105469,0.3632813 z m 4.50586,1.359375 v -0.5742188 h -2.648438 v 0.5742188 z M -6.1756719,8.205 V 7.54875 L -7.6053594,7.6659375 V 7.970625 c 0.703125,0 0.7734375,0.058594 0.7734375,0.4921875 v 4.6640625 c 0,0.457031 -0.1054687,0.457031 -0.7734375,0.457031 v 0.304688 c 0.3398438,-0.01172 0.8554688,-0.03516 1.1132813,-0.03516 0.2695312,0 0.7734375,0.02344 1.125,0.03516 v -0.304688 c -0.6679688,0 -0.7734375,0 -0.7734375,-0.457031 v -1.757813 c 0.046875,0.152344 0.46875,0.691407 1.21875,0.691407 1.1835937,0 2.2265625,-0.972657 2.2265625,-2.261719 0,-1.265625 -0.9726563,-2.25 -2.0859375,-2.25 -0.7734375,0 -1.1953125,0.4453125 -1.3945313,0.65625 z m 0.035156,2.613281 V 8.6034375 c 0.28125,-0.515625 0.7734375,-0.796875 1.2773437,-0.796875 0.7265625,0 1.3359375,0.8671875 1.3359375,1.9921875 0,1.207031 -0.6914062,2.050781 -1.4296875,2.050781 -0.3984375,0 -0.7734375,-0.199219 -1.0429687,-0.609375 -0.140625,-0.210937 -0.140625,-0.222656 -0.140625,-0.421875 z m 7.10449216,0.375 c 0.0351563,0.398438 0.30468754,0.820313 0.77343754,0.820313 0.2109375,0 0.8203125,-0.140625 0.8203125,-0.949219 V 10.513594 H 2.3116328 v 0.550781 c 0,0.585937 -0.2460937,0.644531 -0.3632812,0.644531 -0.328125,0 -0.3632813,-0.457031 -0.3632813,-0.503906 V 9.2128125 c 0,-0.4101563 0,-0.8085938 -0.3632812,-1.171875 C 0.83507031,7.6542187 0.34288281,7.4901562 -0.13758594,7.4901562 c -0.8203125,0 -1.51171876,0.46875 -1.51171876,1.125 0,0.3046875 0.1992188,0.46875 0.4570313,0.46875 0.28124996,0 0.46874996,-0.1992187 0.46874996,-0.4570312 0,-0.1171875 -0.0585938,-0.4453125 -0.51562496,-0.4570313 0.26953121,-0.3515625 0.76171871,-0.4570312 1.07812496,-0.4570312 0.4921875,0 1.0546875,0.3867187 1.0546875,1.2773437 v 0.3632813 c -0.50390625,0.035156 -1.20703125,0.058594 -1.828125,0.3632812 -0.74999996,0.3398433 -0.99609376,0.8554683 -0.99609376,1.2890623 0,0.808594 0.96093751,1.054688 1.59375001,1.054688 0.65625,0 1.11328125,-0.398438 1.30078095,-0.867188 z M 0.89366406,9.564375 v 0.996094 c 0,0.949218 -0.71484375,1.289062 -1.16015625,1.289062 -0.4921875,0 -0.90234371,-0.351562 -0.90234371,-0.855469 0,-0.539062 0.42187496,-1.3710933 2.06249996,-1.429687 z m 3.81152344,0.457031 c 0.2226562,0.03516 1.03125,0.199219 1.03125,0.914063 0,0.515625 -0.3515625,0.914062 -1.125,0.914062 -0.8320313,0 -1.1953125,-0.574219 -1.3828125,-1.417969 C 3.193469,10.302656 3.193469,10.255781 3.088,10.255781 c -0.1289063,0 -0.1289063,0.07031 -0.1289063,0.257813 v 1.3125 c 0,0.164062 0,0.234375 0.1054688,0.234375 0.058594,0 0.070312,0 0.2578125,-0.199219 0.011719,-0.01172 0.011719,-0.03516 0.1992187,-0.222656 0.4335938,0.421875 0.8789063,0.421875 1.0898438,0.421875 1.1484375,0 1.6054687,-0.667969 1.6054687,-1.382813 0,-0.527344 -0.2929687,-0.8203123 -0.421875,-0.9492185 C 5.4669062,9.4120312 5.0801875,9.33 4.6583125,9.2596875 4.1075312,9.1425 3.4395625,9.0135937 3.4395625,8.439375 c 0,-0.3515625 0.2578125,-0.7617188 1.1132812,-0.7617188 1.1015625,0 1.1484375,0.9023438 1.171875,1.2070313 0,0.09375 0.09375,0.09375 0.1171875,0.09375 0.1289063,0 0.1289063,-0.046875 0.1289063,-0.2460938 V 7.73625 c 0,-0.1757813 0,-0.2460938 -0.1171875,-0.2460938 -0.046875,0 -0.070312,0 -0.1992188,0.1171875 C 5.6309687,7.6542187 5.5255,7.73625 5.4903437,7.7714062 c -0.375,-0.28125 -0.7851562,-0.28125 -0.9375,-0.28125 -1.21875,0 -1.59375,0.6679688 -1.59375,1.2304688 0,0.3398437 0.1640625,0.6210937 0.4335938,0.84375 0.3164062,0.2578125 0.5976562,0.3164062 1.3125,0.457031 z m 3.9287109,0 c 0.2226563,0.03516 1.03125,0.199219 1.03125,0.914063 0,0.515625 -0.3515625,0.914062 -1.125,0.914062 -0.8320312,0 -1.1953125,-0.574219 -1.3828125,-1.417969 -0.035156,-0.128906 -0.035156,-0.175781 -0.140625,-0.175781 -0.1289062,0 -0.1289062,0.07031 -0.1289062,0.257813 v 1.3125 c 0,0.164062 0,0.234375 0.1054687,0.234375 0.058594,0 0.070312,0 0.2578125,-0.199219 0.011719,-0.01172 0.011719,-0.03516 0.1992188,-0.222656 0.4335937,0.421875 0.8789062,0.421875 1.0898437,0.421875 1.1484375,0 1.6054686,-0.667969 1.6054686,-1.382813 0,-0.527344 -0.2929686,-0.8203123 -0.4218748,-0.9492185 C 9.3956172,9.4120312 9.0088984,9.33 8.5870234,9.2596875 8.0362422,9.1425 7.3682734,9.0135937 7.3682734,8.439375 c 0,-0.3515625 0.2578125,-0.7617188 1.1132813,-0.7617188 1.1015625,0 1.1484375,0.9023438 1.171875,1.2070313 0,0.09375 0.09375,0.09375 0.1171875,0.09375 0.1289062,0 0.1289062,-0.046875 0.1289062,-0.2460938 V 7.73625 c 0,-0.1757813 0,-0.2460938 -0.1171875,-0.2460938 -0.046875,0 -0.070312,0 -0.1992187,0.1171875 -0.023437,0.046875 -0.1289063,0.1289063 -0.1640625,0.1640625 -0.375,-0.28125 -0.7851563,-0.28125 -0.9375,-0.28125 -1.21875,0 -1.59375,0.6679688 -1.59375,1.2304688 0,0.3398437 0.1640625,0.6210937 0.4335937,0.84375 0.3164063,0.2578125 0.5976563,0.3164062 1.3125,0.457031 z M 17.097766,7.970625 c 0.457031,0 0.527343,0.1289062 0.527343,0.5390625 v 2.6835935 c 0,0.457031 -0.117187,0.457031 -0.785156,0.457031 V 11.955 c 0.328125,-0.01172 0.855469,-0.03516 1.113281,-0.03516 0.246094,0 0.738282,0.02344 1.101563,0.03516 v -0.304688 c -0.667969,0 -0.773438,0 -0.773438,-0.457031 V 7.5370312 l -1.253906,0.09375 c -0.164062,0.011719 -0.175781,0.023437 -0.1875,0.023437 -0.01172,0.011719 -0.03516,0.011719 -0.175781,0.011719 h -1.171875 v -1.125 c 0,-0.9960938 0.855469,-1.3945313 1.464844,-1.3945313 0.304687,0 0.667968,0.1054688 0.867187,0.328125 -0.410156,0.023437 -0.46875,0.3046875 -0.46875,0.46875 0,0.328125 0.257813,0.4570313 0.445313,0.4570313 0.222656,0 0.457031,-0.1640625 0.457031,-0.4570313 0,-0.5976562 -0.550781,-1.0078125 -1.289063,-1.0078125 -0.925781,0 -2.109375,0.5039063 -2.109375,1.59375 V 7.6659375 H 14.074328 V 7.970625 h 0.785156 v 3.222656 c 0,0.457031 -0.105468,0.457031 -0.773437,0.457031 V 11.955 c 0.328125,-0.01172 0.855469,-0.03516 1.101562,-0.03516 0.246094,0 0.738282,0.02344 1.113282,0.03516 v -0.304688 c -0.667969,0 -0.785157,0 -0.785157,-0.457031 V 7.970625 Z m 4.001953,-2.9296875 -1.429688,0.1054687 v 0.3164063 c 0.703125,0 0.773438,0.070312 0.773438,0.5507812 v 5.1796873 c 0,0.457031 -0.105469,0.457031 -0.773438,0.457031 V 11.955 c 0.328125,-0.01172 0.855469,-0.03516 1.101563,-0.03516 0.257812,0 0.738281,0.02344 1.113281,0.03516 v -0.304688 c -0.667969,0 -0.785156,0 -0.785156,-0.457031 z m 2.730468,2.9296875 h 1.429688 V 7.6659375 H 23.830187 V 5.8260937 h -0.246093 c -0.01172,0.8203125 -0.316407,1.8867188 -1.289063,1.921875 V 7.970625 h 0.84375 v 2.753906 c 0,1.21875 0.925781,1.335938 1.289063,1.335938 0.703125,0 0.984375,-0.703125 0.984375,-1.335938 v -0.574219 h -0.246094 v 0.550782 c 0,0.738281 -0.304688,1.113281 -0.667969,1.113281 -0.667969,0 -0.667969,-0.902344 -0.667969,-1.078125 z m 3.266602,1.4765625 c 0.05859,-1.4882813 0.902344,-1.734375 1.242188,-1.734375 1.019531,0 1.125,1.3476562 1.125,1.734375 z M 27.08507,9.658125 h 2.789063 c 0.210937,0 0.246094,0 0.246094,-0.2109375 0,-0.984375 -0.539063,-1.9570313 -1.78125,-1.9570313 -1.160157,0 -2.074219,1.03125 -2.074219,2.2734375 0,1.3359373 1.042969,2.2968753 2.191406,2.2968753 1.21875,0 1.664063,-1.101563 1.664063,-1.289063 0,-0.105469 -0.08203,-0.117187 -0.128907,-0.117187 -0.09375,0 -0.117187,0.05859 -0.128906,0.140625 -0.351562,1.019531 -1.253906,1.019531 -1.347656,1.019531 -0.503906,0 -0.902344,-0.292969 -1.125,-0.667969 C 27.08507,10.665937 27.08507,10.009687 27.08507,9.658125 Z M 32.074328,8.6503125 V 7.54875 L 30.691516,7.6659375 V 7.970625 c 0.691406,0 0.773437,0.070312 0.773437,0.5625 v 2.660156 c 0,0.457031 -0.105469,0.457031 -0.773437,0.457031 V 11.955 c 0.386718,-0.01172 0.855468,-0.03516 1.136718,-0.03516 0.398438,0 0.867188,0 1.265625,0.03516 v -0.304688 h -0.210937 c -0.738281,0 -0.761719,-0.117187 -0.761719,-0.46875 V 9.6464062 c 0,-0.984375 0.421875,-1.875 1.183594,-1.875 0.05859,0 0.08203,0 0.105469,0.011719 -0.03516,0.011719 -0.234375,0.1289062 -0.234375,0.3867187 0,0.28125 0.210937,0.4335938 0.433593,0.4335938 0.175782,0 0.421875,-0.1289063 0.421875,-0.4453125 0,-0.3164063 -0.304687,-0.609375 -0.726562,-0.609375 -0.738281,0 -1.089844,0.6679687 -1.230469,1.1015623 z m 0,0"
       style="fill:#d9d9d9;fill-opacity:1;fill-rule:nonzero;stroke:none"
       aria-label="Band-&#10;passflter"
       transform="matrix(1.3333333,0,0,1.3333333,219.38267,13.56)" />
    <path
       id="path4"
       d="M 230.36208,7.08669 H 166.4934 c -2.20095,0 -3.98511,-1.78417 -3.98511,-3.98511 v -6.20316 c 0,-2.20094 1.78416,-3.98511 3.98511,-3.98511 h 63.86868 c 2.20094,0 3.9851,1.78417 3.9851,3.98511 v 6.20316 c 0,2.20094 -1.78416,3.98511 -3.9851,3.98511 z"
       style="fill:#d9d9d9;fill-opacity:0.4;fill-rule:nonzero;stroke:#d9d9d9;stroke-width:0.3985;stroke-linecap:butt;stroke-linejoin:miter;stroke-miterlimit:10;stroke-dasharray:none;stroke-opacity:1"
       transform="matrix(1.3333333,0,0,-1.3333333,104.71867,18.209333)" />
    <path
       id="path5"
       d="m 9.0581797,-5.8249844 c 0.1757812,-0.5742187 0.609375,-0.6679687 0.9960933,-0.6679687 v -0.3164063 c -0.3046871,0.023437 -0.6093746,0.035156 -0.9140621,0.035156 -0.28125,0 -0.9257812,-0.023437 -1.1835937,-0.035156 v 0.3164063 c 0.6679687,0.011719 0.8671875,0.3398437 0.8671875,0.5273437 0,0.058594 -0.023437,0.140625 -0.046875,0.1992188 l -1.5,4.6054687 -1.59375,-4.8867187 c 0,-0.035156 -0.023437,-0.09375 -0.023437,-0.1523438 0,-0.2929687 0.5742187,-0.2929687 0.8320312,-0.2929687 v -0.3164063 c -0.3515625,0.035156 -1.03125,0.035156 -1.40625,0.035156 -0.3867187,0 -0.8085937,-0.023437 -1.21875,-0.035156 v 0.3164063 c 0.5625,0 0.7734375,0 0.890625,0.3515625 l 0.2226563,0.703125 -1.3828125,4.2773437 -1.6054688,-4.9101562 c -0.011719,-0.023437 -0.023437,-0.09375 -0.023437,-0.1289063 0,-0.2929687 0.5859375,-0.2929687 0.84375,-0.2929687 v -0.3164063 c -0.3632812,0.035156 -1.0429687,0.035156 -1.4179687,0.035156 -0.375,0 -0.80859376,-0.023437 -1.21875001,-0.035156 v 0.3164063 c 0.75,0 0.78515625,0.046875 0.91406251,0.4101562 l 1.9921875,6.11718752 c 0.023437,0.08203125 0.058594,0.1875 0.1875,0.1875 0.140625,0 0.1523437,-0.0703125 0.1992187,-0.19921875 l 1.640625,-5.06249997 1.6523438,5.07421872 c 0.035156,0.08203125 0.058594,0.1875 0.1875,0.1875 0.140625,0 0.1640625,-0.0703125 0.1992187,-0.19921875 z m 2.9384763,1.4179688 -1.394531,0.1171875 v 0.3046875 c 0.65625,0 0.738281,0.058594 0.738281,0.5507812 v 2.67187502 c 0,0.45703125 -0.105468,0.45703125 -0.773437,0.45703125 v 0.304687505 c 0.316406,-0.011718755 0.855469,-0.035156255 1.101562,-0.035156255 0.339844,0 0.691407,0.0234375 1.03125,0.035156255 V -0.30545313 c -0.65625,0 -0.703125,-0.0585938 -0.703125,-0.4453125 z m 0.04687,-1.734375 c 0,-0.3164063 -0.246093,-0.5273438 -0.527343,-0.5273438 -0.316407,0 -0.527344,0.2695313 -0.527344,0.5273438 0,0.2695312 0.210937,0.5273437 0.527344,0.5273437 0.28125,0 0.527343,-0.1992187 0.527343,-0.5273437 z m 2.06543,2.71875 v 2.66015622 c 0,0.45703125 -0.117188,0.45703125 -0.785156,0.45703125 v 0.304687505 c 0.351562,-0.011718755 0.855468,-0.035156255 1.125,-0.035156255 0.257812,0 0.785156,0.0234375 1.113281,0.035156255 V -0.30545313 c -0.65625,0 -0.773438,0 -0.773438,-0.45703125 V -2.5906094 c 0,-1.03125 0.714844,-1.59375 1.347657,-1.59375 0.621093,0 0.738281,0.5390625 0.738281,1.1015625 v 2.32031252 c 0,0.45703125 -0.117188,0.45703125 -0.773438,0.45703125 v 0.304687505 c 0.339844,-0.011718755 0.855469,-0.035156255 1.125,-0.035156255 0.257813,0 0.773438,0.0234375 1.113282,0.035156255 V -0.30545313 c -0.515625,0 -0.773438,0 -0.785157,-0.3046875 V -2.5085781 c 0,-0.8554688 0,-1.171875 -0.304687,-1.5234375 -0.140625,-0.1757813 -0.46875,-0.375 -1.042969,-0.375 -0.726562,0 -1.195312,0.4335937 -1.476562,1.0546875 v -1.0546875 l -1.40625,0.1171875 v 0.3046875 c 0.703125,0 0.785156,0.070312 0.785156,0.5625 z m 8.217773,2.87109372 v 0.65625 L 23.791578,-7.65625e-4 V -0.30545313 c -0.703125,0 -0.773437,-0.0703125 -0.773437,-0.5625 V -6.9148281 l -1.441407,0.1054687 v 0.3164063 c 0.703125,0 0.785157,0.070312 0.785157,0.5507812 v 2.15625 c -0.292969,-0.3632812 -0.726563,-0.6210937 -1.265625,-0.6210937 -1.171875,0 -2.214844,0.984375 -2.214844,2.2617187 0,1.26562502 0.972656,2.25000002 2.109375,2.25000002 0.644531,0 1.089844,-0.33984375 1.335937,-0.65625 z m 0,-2.67187502 v 2.0507813 c 0,0.17578122 0,0.19921872 -0.105468,0.36328122 -0.304688,0.48046875 -0.75,0.703125 -1.183594,0.703125 -0.445313,0 -0.796875,-0.2578125 -1.042969,-0.64453125 -0.257812,-0.41015627 -0.292969,-0.97265627 -0.292969,-1.38281247 0,-0.3632813 0.02344,-0.9609375 0.316407,-1.4179688 0.210937,-0.3046875 0.585937,-0.6328125 1.125,-0.6328125 0.351562,0 0.761718,0.1523438 1.078125,0.5976563 0.105468,0.1640625 0.105468,0.1875 0.105468,0.3632812 z m 6.439454,1.0898438 c 0,-1.2773438 -0.996094,-2.3320313 -2.191407,-2.3320313 -1.253906,0 -2.214843,1.0898438 -2.214843,2.3320313 0,1.28906247 1.03125,2.23828122 2.203125,2.23828122 1.207031,0 2.203125,-0.97265625 2.203125,-2.23828122 z m -2.191407,1.99218747 c -0.433593,0 -0.867187,-0.2109375 -1.136718,-0.66796875 C 25.18025,-1.2429531 25.18025,-1.8523281 25.18025,-2.2156094 c 0,-0.3867187 0,-0.9257812 0.246094,-1.359375 0.269531,-0.4570312 0.738281,-0.6679687 1.136719,-0.6679687 0.433593,0 0.867187,0.2226562 1.125,0.6445312 0.257812,0.4335938 0.257812,1.0078125 0.257812,1.3828125 0,0.3632813 0,0.9023438 -0.222656,1.33593752 -0.222656,0.4453125 -0.65625,0.73828125 -1.148438,0.73828125 z m 8.370117,-3.21093747 c 0.175782,-0.4921875 0.492188,-0.6210938 0.84375,-0.6328125 v -0.3046875 c -0.222656,0.011719 -0.515625,0.023437 -0.726562,0.023437 -0.292969,0 -0.738281,-0.023437 -0.9375,-0.023437 v 0.3046875 c 0.363281,0.011719 0.585937,0.1875 0.585937,0.4804687 0,0.058594 0,0.082031 -0.04687,0.2109375 l -0.914062,2.54296877 -0.984375,-2.77734377 c -0.03516,-0.1171875 -0.04687,-0.140625 -0.04687,-0.1875 0,-0.2695312 0.386719,-0.2695312 0.585937,-0.2695312 v -0.3046875 c -0.292968,0 -0.796875,0.023437 -1.03125,0.023437 -0.304687,0 -0.597656,-0.011719 -0.890625,-0.023437 v 0.3046875 c 0.363282,0 0.527344,0.023437 0.621094,0.1523437 0.05859,0.058594 0.164063,0.3515625 0.234375,0.5390625 L 31.382398,-0.87967188 30.43318,-3.5398281 c -0.04687,-0.1171875 -0.04687,-0.140625 -0.04687,-0.1757813 0,-0.2695312 0.386718,-0.2695312 0.585937,-0.2695312 v -0.3046875 c -0.292969,0 -0.855469,0.023437 -1.089844,0.023437 -0.03516,0 -0.5625,-0.011719 -0.925781,-0.023437 v 0.3046875 c 0.503906,0 0.621094,0.035156 0.738281,0.3515625 l 1.253907,3.52734372 c 0.05859,0.140625 0.08203,0.2109375 0.210937,0.2109375 0.128906,0 0.152344,-0.05859375 0.199219,-0.19921875 l 1.007812,-2.81249997 1.019532,2.82421872 c 0.03516,0.1171875 0.07031,0.1875 0.199218,0.1875 0.128907,0 0.152344,-0.08203125 0.199219,-0.1875 z m 0,0"
       style="fill:#d9d9d9;fill-opacity:1;fill-rule:nonzero;stroke:none"
       aria-label="Window"
       transform="matrix(1.3333333,0,0,1.3333333,345.30133,22.821333)" />
    <path
       id="path6"
       d="M 230.36208,-33.89946 H 166.4934 c -2.20095,0 -3.98511,-1.78416 -3.98511,-3.98511 v -9.27131 c 0,-2.20095 1.78416,-3.98511 3.98511,-3.98511 h 63.86868 c 2.20094,0 3.9851,1.78416 3.9851,3.98511 v 9.27131 c 0,2.20095 -1.78416,3.98511 -3.9851,3.98511 z"
       style="fill:#d9d9d9;fill-opacity:0.4;fill-rule:nonzero;stroke:#d9d9d9;stroke-width:0.3985;stroke-linecap:butt;stroke-linejoin:miter;stroke-miterlimit:10;stroke-dasharray:none;stroke-opacity:1"
       transform="matrix(1.3333333,0,0,-1.3333333,104.71867,18.209333)" />
    <g
       id="g6"
       aria-label="|FFT|&#10;2"
       transform="matrix(1.3333333,0,0,1.3333333,349.148,78.648)">
      <path
         id="path7"
         d="m 1.5823594,-7.1129531 c 0,-0.1757813 0,-0.3632813 -0.1992188,-0.3632813 -0.1992187,0 -0.1992187,0.1875 -0.1992187,0.3632813 v 9.2460937 c 0,0.1757813 0,0.3632813 0.1992187,0.3632813 0.1992188,0 0.1992188,-0.1875 0.1992188,-0.3632813 z m 0,0"
         style="fill:#d9d9d9;fill-opacity:1;fill-rule:nonzero;stroke:none" />
      <path
         id="path8"
         d="M 8.5667344,-6.7731094 H 3.0940781 v 0.3046875 h 0.234375 c 0.7734375,0 0.796875,0.1171875 0.796875,0.46875 v 5.22656252 c 0,0.3515625 -0.023437,0.46875 -0.796875,0.46875 H 3.0940781 V 3.28125e-4 c 0.3515625,-0.035156255 1.125,-0.035156255 1.5117188,-0.035156255 0.4101562,0 1.3125,0 1.6757812,0.035156255 V -0.30435938 h -0.328125 c -0.9492187,0 -0.9492187,-0.12890625 -0.9492187,-0.48046875 V -3.2340469 h 0.8554687 c 0.9609375,0 1.0546875,0.3164063 1.0546875,1.1601563 H 7.1722031 V -4.7106094 H 6.9143906 c 0,0.8320313 -0.09375,1.1601563 -1.0546875,1.1601563 H 5.0042344 v -2.5195313 c 0,-0.328125 0.023437,-0.3984375 0.4921875,-0.3984375 h 1.1953125 c 1.4882812,0 1.7460937,0.5625 1.8984375,1.9335938 h 0.2578125 z m 6.5039066,0 H 9.5979844 v 0.3046875 h 0.234375 c 0.7734376,0 0.7968746,0.1171875 0.7968746,0.46875 v 5.22656252 c 0,0.3515625 -0.02344,0.46875 -0.7968746,0.46875 H 9.5979844 V 3.28125e-4 C 9.9495469,-0.03482813 10.722984,-0.03482813 11.109703,-0.03482813 c 0.410156,0 1.3125,0 1.675781,0.035156255 V -0.30435938 h -0.328125 c -0.949218,0 -0.949218,-0.12890625 -0.949218,-0.48046875 V -3.2340469 h 0.855468 c 0.960938,0 1.054688,0.3164063 1.054688,1.1601563 h 0.257812 v -2.6367188 h -0.257812 c 0,0.8320313 -0.09375,1.1601563 -1.054688,1.1601563 h -0.855468 v -2.5195313 c 0,-0.328125 0.02344,-0.3984375 0.492187,-0.3984375 h 1.195313 c 1.488281,0 1.746093,0.5625 1.898437,1.9335938 h 0.257813 z m 7.335937,0.035156 h -6.082031 l -0.1875,2.2382812 h 0.246094 c 0.140625,-1.6054687 0.292968,-1.9335937 1.792968,-1.9335937 0.175782,0 0.433594,0 0.539063,0.023437 0.210937,0.035156 0.210937,0.140625 0.210937,0.375 v 5.24999997 c 0,0.33984375 0,0.48046875 -1.054687,0.48046875 H 17.472984 V 3.28125e-4 c 0.410157,-0.035156255 1.429688,-0.035156255 1.886719,-0.035156255 0.457031,0 1.488281,0 1.898438,0.035156255 V -0.30435938 h -0.398438 c -1.054687,0 -1.054687,-0.140625 -1.054687,-0.48046875 V -6.0348281 c 0,-0.1992188 0,-0.3398438 0.1875,-0.375 0.105468,-0.023437 0.375,-0.023437 0.5625,-0.023437 1.5,0 1.652343,0.328125 1.792968,1.9335937 h 0.246094 z m 0,0"
         style="fill:#d9d9d9;fill-opacity:1;fill-rule:nonzero;stroke:none" />
      <path
         id="path9"
         d="m 24.551109,-7.1129531 c 0,-0.1757813 0,-0.3632813 -0.199218,-0.3632813 -0.199219,0 -0.199219,0.1875 -0.199219,0.3632813 v 9.2460937 c 0,0.1757813 0,0.3632813 0.199219,0.3632813 0.199218,0 0.199218,-0.1875 0.199218,-0.3632813 z m 0,0"
         style="fill:#d9d9d9;fill-opacity:1;fill-rule:nonzero;stroke:none" />
      <path
         id="path10"
         d="m 29.250328,-4.8805313 h -0.234375 c -0.02344,0.1523438 -0.08203,0.5625 -0.175781,0.6328125 -0.05859,0.035156 -0.597656,0.035156 -0.691406,0.035156 h -1.289063 c 0.738281,-0.6445313 0.984375,-0.84375 1.394531,-1.171875 0.515625,-0.4101563 0.996094,-0.84375 0.996094,-1.5 0,-0.84375 -0.738281,-1.359375 -1.628906,-1.359375 -0.867188,0 -1.453125,0.609375 -1.453125,1.2421875 0,0.3632812 0.304687,0.3984375 0.375,0.3984375 0.164062,0 0.375,-0.1171875 0.375,-0.375 0,-0.1289063 -0.05859,-0.3632813 -0.421875,-0.3632813 0.222656,-0.5039062 0.691406,-0.65625 1.019531,-0.65625 0.703125,0 1.066406,0.5507813 1.066406,1.1132813 0,0.609375 -0.433593,1.0898437 -0.65625,1.3359375 l -1.6875,1.6640625 c -0.07031,0.058594 -0.07031,0.070312 -0.07031,0.2695312 h 2.882812 z m 0,0"
         style="fill:#d9d9d9;fill-opacity:1;fill-rule:nonzero;stroke:none" />
    </g>
    <path
       id="path11"
       d="M 131.14821,-35.43353 H 67.27953 c -2.20095,0 -3.98511,-1.78417 -3.98511,-3.98511 v -6.20317 c 0,-2.20094 1.78416,-3.98511 3.98511,-3.98511 h 63.86868 c 2.20094,0 3.98511,1.78417 3.98511,3.98511 v 6.20317 c 0,2.20094 -1.78417,3.98511 -3.98511,3.98511 z"
       style="fill:#d9d9d9;fill-opacity:0.4;fill-rule:nonzero;stroke:#d9d9d9;stroke-width:0.3985;stroke-linecap:butt;stroke-linejoin:miter;stroke-miterlimit:10;stroke-dasharray:none;stroke-opacity:1"
       transform="matrix(1.3333333,0,0,-1.3333333,104.71867,18.209333)" />
    <path
       id="path12"
       d="M 2.3089219,-6.6789688 C 2.2268906,-6.7961563 2.2151719,-6.807875 2.0276719,-6.807875 H 0.32845313 v 0.3164062 h 0.29296875 c 0.140625,0 0.33984375,0.011719 0.49218752,0.011719 0.234375,0.035156 0.2460937,0.046875 0.2460937,0.234375 v 5.203125 c 0,0.26953125 0,0.73828125 -1.03124997,0.73828125 V 7.1875e-4 C 0.68001563,-0.011 1.1604844,-0.0344375 1.5003281,-0.0344375 c 0.328125,0 0.8085938,0.0234375 1.1601563,0.03515625 v -0.3046875 c -1.03125,0 -1.03125,-0.46875 -1.03125,-0.73828125 v -5.1796875 c 0.058594,0.046875 0.070312,0.058594 0.1054687,0.1171875 l 4.0664063,5.9765625 c 0.082031,0.1171875 0.09375,0.12890625 0.1640625,0.12890625 0.140625,0 0.140625,-0.0703125 0.140625,-0.2578125 V -5.7531875 c 0,-0.2695313 0,-0.7382813 1.03125,-0.7382813 V -6.807875 c -0.3515625,0.011719 -0.84375,0.035156 -1.171875,0.035156 -0.328125,0 -0.8203125,-0.023437 -1.1601563,-0.035156 v 0.3164062 c 1.0195313,0 1.0195313,0.46875 1.0195313,0.7382813 v 4.2539062 z m 9.8496091,4.546875 c 0,-1.2773437 -0.996093,-2.3320312 -2.191406,-2.3320312 -1.2539062,0 -2.2148437,1.0898437 -2.2148437,2.3320312 0,1.28906255 1.03125,2.2382813 2.203125,2.2382813 1.2070317,0 2.2031247,-0.97265625 2.2031247,-2.2382813 z m -2.191406,1.99218755 c -0.4335937,0 -0.8671875,-0.2109375 -1.1367187,-0.66796875 -0.2578125,-0.4335938 -0.2578125,-1.0429688 -0.2578125,-1.40625 0,-0.3867188 0,-0.9257813 0.2460937,-1.359375 0.2695313,-0.4570313 0.7382813,-0.6679688 1.1367188,-0.6679688 0.4335937,0 0.8671877,0.2226563 1.1249997,0.6445313 0.257813,0.4335937 0.257813,1.0078125 0.257813,1.3828125 0,0.3632812 0,0.9023437 -0.222656,1.3359375 -0.222657,0.4453125 -0.65625,0.73828125 -1.148438,0.73828125 z m 4.151367,-3.16406255 v -1.1015625 l -1.382812,0.1171875 v 0.3046875 c 0.691406,0 0.773437,0.070312 0.773437,0.5625 V -0.761 c 0,0.45703125 -0.105469,0.45703125 -0.773437,0.45703125 V 7.1875e-4 C 13.122398,-0.011 13.591148,-0.0344375 13.872398,-0.0344375 c 0.398438,0 0.867188,0 1.265625,0.03515625 v -0.3046875 h -0.210937 c -0.738281,0 -0.761719,-0.1171875 -0.761719,-0.46875 V -2.307875 c 0,-0.984375 0.421875,-1.875 1.183594,-1.875 0.05859,0 0.08203,0 0.105469,0.011719 -0.03516,0.011719 -0.234375,0.1289063 -0.234375,0.3867188 0,0.28125 0.210937,0.4335937 0.433593,0.4335937 0.175782,0 0.421875,-0.1289062 0.421875,-0.4453125 0,-0.3164062 -0.304687,-0.609375 -0.726562,-0.609375 -0.738281,0 -1.089844,0.6679688 -1.230469,1.1015622 z m 3.339844,-0.1171875 V -0.761 c 0,0.45703125 -0.117188,0.45703125 -0.785156,0.45703125 v 0.3046875 c 0.351562,-0.01171875 0.855468,-0.03515625 1.125,-0.03515625 0.257812,0 0.785156,0.0234375 1.113281,0.03515625 v -0.3046875 c -0.65625,0 -0.773438,0 -0.773438,-0.45703125 v -1.828125 c 0,-1.03125 0.714844,-1.59375 1.347657,-1.59375 0.621093,0 0.738281,0.5390625 0.738281,1.1015625 V -0.761 c 0,0.45703125 -0.117188,0.45703125 -0.773438,0.45703125 v 0.3046875 c 0.339844,-0.01171875 0.855469,-0.03515625 1.125,-0.03515625 0.257813,0 0.773438,0.0234375 1.113282,0.03515625 v -0.3046875 c -0.667969,0 -0.785157,0 -0.785157,-0.45703125 v -1.828125 c 0,-1.03125 0.714844,-1.59375 1.347657,-1.59375 0.632812,0 0.738281,0.5390625 0.738281,1.1015625 V -0.761 c 0,0.45703125 -0.105469,0.45703125 -0.773438,0.45703125 v 0.3046875 c 0.351563,-0.01171875 0.855469,-0.03515625 1.125,-0.03515625 0.257813,0 0.773438,0.0234375 1.113282,0.03515625 v -0.3046875 c -0.515625,0 -0.761719,0 -0.773438,-0.3046875 V -2.5070938 c 0,-0.8554687 0,-1.171875 -0.316406,-1.5234375 -0.128906,-0.1757812 -0.46875,-0.375 -1.042969,-0.375 -0.832031,0 -1.277344,0.5976563 -1.441406,0.984375 -0.140625,-0.8671875 -0.878906,-0.984375 -1.324219,-0.984375 -0.726562,0 -1.195312,0.4335938 -1.476562,1.0546875 v -1.0546875 l -1.40625,0.1171875 v 0.3046875 c 0.703125,0 0.785156,0.070312 0.785156,0.5625 z M 27.972984,-0.761 c 0.03516,0.3984375 0.304688,0.8203125 0.773438,0.8203125 0.210937,0 0.820312,-0.140625 0.820312,-0.94921875 V -1.4406875 h -0.246093 v 0.55078125 c 0,0.5859375 -0.246094,0.64453125 -0.363282,0.64453125 -0.328125,0 -0.363281,-0.45703125 -0.363281,-0.50390625 V -2.7414688 c 0,-0.4101562 0,-0.8085937 -0.363281,-1.171875 -0.386719,-0.3867187 -0.878906,-0.5507812 -1.359375,-0.5507812 -0.820313,0 -1.511719,0.46875 -1.511719,1.125 0,0.3046875 0.199219,0.46875 0.457031,0.46875 0.28125,0 0.46875,-0.1992188 0.46875,-0.4570313 0,-0.1171875 -0.05859,-0.4453125 -0.515625,-0.4570312 0.269532,-0.3515625 0.761719,-0.4570313 1.078125,-0.4570313 0.492188,0 1.054688,0.3867188 1.054688,1.2773438 v 0.3632812 c -0.503906,0.035156 -1.207031,0.058594 -1.828125,0.3632813 -0.75,0.3398437 -0.996094,0.8554687 -0.996094,1.2890625 0,0.80859375 0.960938,1.0546875 1.59375,1.0546875 0.65625,0 1.113281,-0.3984375 1.300781,-0.8671875 z m -0.07031,-1.6289063 v 0.9960938 c 0,0.94921875 -0.714844,1.2890625 -1.160156,1.2890625 -0.492188,0 -0.902344,-0.3515625 -0.902344,-0.85546875 0,-0.53906255 0.421875,-1.37109375 2.0625,-1.42968755 z m 3.495117,-4.5234375 -1.429687,0.1054688 v 0.3164062 c 0.703125,0 0.773437,0.070312 0.773437,0.5507813 V -0.761 c 0,0.45703125 -0.105469,0.45703125 -0.773437,0.45703125 V 7.1875e-4 C 30.296227,-0.011 30.82357,-0.0344375 31.069664,-0.0344375 c 0.257813,0 0.738281,0.0234375 1.113281,0.03515625 v -0.3046875 c -0.667968,0 -0.785156,0 -0.785156,-0.45703125 z m 2.765625,2.5078125 -1.394531,0.1171875 v 0.3046875 c 0.65625,0 0.738281,0.058594 0.738281,0.5507813 V -0.761 c 0,0.45703125 -0.105469,0.45703125 -0.773437,0.45703125 V 7.1875e-4 C 33.050133,-0.011 33.589195,-0.0344375 33.835289,-0.0344375 c 0.339844,0 0.691406,0.0234375 1.03125,0.03515625 v -0.3046875 c -0.65625,0 -0.703125,-0.0585938 -0.703125,-0.4453125 z m 0.04687,-1.734375 c 0,-0.3164062 -0.246094,-0.5273437 -0.527344,-0.5273437 -0.316406,0 -0.527343,0.2695312 -0.527343,0.5273437 0,0.2695313 0.210937,0.5273438 0.527343,0.5273438 0.28125,0 0.527344,-0.1992188 0.527344,-0.5273438 z m 4.854492,2.1445313 c 0.08203,-0.1054688 0.08203,-0.1289063 0.08203,-0.1640625 0,-0.1289063 -0.08203,-0.1289063 -0.257813,-0.1289063 h -3.1875 l -0.105469,1.59375 h 0.246094 c 0.05859,-1.0078125 0.246094,-1.3828125 1.347656,-1.3828125 H 38.3265 l -2.789062,3.7617188 c -0.08203,0.10546875 -0.08203,0.12890625 -0.08203,0.17578125 0,0.140625 0.07031,0.140625 0.257813,0.140625 h 3.28125 L 39.17025,-1.8625625 h -0.246094 c -0.09375,1.171875 -0.304687,1.6171875 -1.453125,1.6171875 h -1.183593 z m 1.649414,1.4882812 c 0.05859,-1.4882812 0.902344,-1.734375 1.242188,-1.734375 1.019531,0 1.125,1.3476563 1.125,1.734375 z m -0.01172,0.2109375 h 2.789062 c 0.210938,0 0.246094,0 0.246094,-0.2109375 0,-0.984375 -0.539063,-1.9570312 -1.78125,-1.9570312 -1.160156,0 -2.074219,1.03125 -2.074219,2.2734375 0,1.3359375 1.042969,2.296875 2.191406,2.296875 1.21875,0 1.664063,-1.1015625 1.664063,-1.2890625 0,-0.1054688 -0.08203,-0.1171875 -0.128906,-0.1171875 -0.09375,0 -0.117188,0.058594 -0.128907,0.140625 -0.351562,1.01953125 -1.253906,1.01953125 -1.347656,1.01953125 -0.503906,0 -0.902344,-0.29296875 -1.125,-0.66796875 -0.304687,-0.4804688 -0.304687,-1.1367188 -0.304687,-1.4882813 z m 0,0"
       style="fill:#d9d9d9;fill-opacity:1;fill-rule:nonzero;stroke:none"
       aria-label="Normalize"
       transform="matrix(1.3333333,0,0,1.3333333,207.648,79.514667)" />
    <path
       id="path13"
       d="m 31.93433,-35.43353 h -63.86866 c -2.20094,0 -3.9851,-1.78417 -3.9851,-3.98511 v -6.20317 c 0,-2.20094 1.78416,-3.98511 3.9851,-3.98511 h 63.86866 c 2.20094,0 3.9851,1.78417 3.9851,3.98511 v 6.20317 c 0,2.20094 -1.78416,3.98511 -3.9851,3.98511 z"
       style="fill:#d9d9d9;fill-opacity:0.4;fill-rule:nonzero;stroke:#d9d9d9;stroke-width:0.3985;stroke-linecap:butt;stroke-linejoin:miter;stroke-miterlimit:10;stroke-dasharray:none;stroke-opacity:1"
       transform="matrix(1.3333333,0,0,-1.3333333,104.71867,18.209333)" />
    <path
       id="path14"
       d="M 3.4793281,-3.8671328 2.2019844,-4.1718203 c -0.6210938,-0.1523438 -1.0078125,-0.6914063 -1.0078125,-1.265625 0,-0.703125 0.5390625,-1.3007813 1.3125,-1.3007813 1.6640625,0 1.8867187,1.6289063 1.9453125,2.0742188 0.011719,0.058594 0.011719,0.1171875 0.1171875,0.1171875 0.1289062,0 0.1289062,-0.046875 0.1289062,-0.234375 v -2.0039063 c 0,-0.1640625 0,-0.234375 -0.1054687,-0.234375 -0.070312,0 -0.082031,0.011719 -0.1523438,0.1289063 l -0.3515625,0.5625 c -0.2929687,-0.28125 -0.703125,-0.6914063 -1.59375,-0.6914063 -1.1015625,0 -1.93359372,0.8789063 -1.93359372,1.9335938 0,0.8203125 0.52734372,1.546875 1.30078122,1.8164062 0.1054688,0.046875 0.6210938,0.1640625 1.3125,0.328125 0.2695313,0.070312 0.5742188,0.140625 0.84375,0.515625 0.2109375,0.2578125 0.3164063,0.5859375 0.3164063,0.9140625 0,0.70312504 -0.5039063,1.41796879 -1.3359375,1.41796879 -0.2929688,0 -1.0429688,-0.046875 -1.5703125,-0.5390625 C 0.84260938,-1.1601016 0.81917188,-1.8046328 0.80745313,-2.1561953 c -0.0117188,-0.1054688 -0.09375,-0.1054688 -0.1171875,-0.1054688 -0.12890625,0 -0.12890625,0.070312 -0.12890625,0.2460938 v 1.99218749 c 0,0.17578125 0,0.24609375 0.10546875,0.24609375 0.0703125,0 0.0820313,-0.0234375 0.15234375,-0.12890625 0,-0.01171875 0.0234375,-0.046875 0.35156252,-0.57421875 0.3164062,0.33984375 0.9492187,0.703125 1.8398437,0.703125 1.1601563,0 1.9570313,-0.984375 1.9570313,-2.07421874 0,-0.9960938 -0.65625,-1.8164063 -1.4882813,-2.015625 z m 5.9472657,3.08203124 v 0.890625 L 10.868,5.46875e-5 V -0.30463281 c -0.703125,0 -0.785156,-0.0703125 -0.785156,-0.5625 V -4.4061953 l -1.4531252,0.1171875 v 0.3046875 c 0.6914062,0 0.7734375,0.070312 0.7734375,0.5625 v 1.7695312 c 0,0.86718754 -0.4804688,1.54687504 -1.2070313,1.54687504 -0.8320312,0 -0.8789062,-0.46875 -0.8789062,-0.99609374 V -4.4061953 L 5.852375,-4.2890078 v 0.3046875 c 0.7851563,0 0.7851563,0.035156 0.7851563,0.9140625 v 1.5 c 0,0.77343749 0,1.67578124 1.5117187,1.67578124 0.5507813,0 0.9960938,-0.26953125 1.2773438,-0.890625 z M 12.171711,-3.4218203 v 2.66015624 c 0,0.45703125 -0.117188,0.45703125 -0.785156,0.45703125 V 5.46875e-5 c 0.351562,-0.0117187475 0.855468,-0.0351562475 1.125,-0.0351562475 0.257812,0 0.785156,0.0234375 1.113281,0.0351562475 V -0.30463281 c -0.65625,0 -0.773438,0 -0.773438,-0.45703125 V -2.5897891 c 0,-1.03125 0.714844,-1.59375 1.347657,-1.59375 0.621093,0 0.738281,0.5390625 0.738281,1.1015625 v 2.32031254 c 0,0.45703125 -0.117188,0.45703125 -0.773438,0.45703125 V 5.46875e-5 c 0.339844,-0.0117187475 0.855469,-0.0351562475 1.125,-0.0351562475 0.257813,0 0.773438,0.0234375 1.113282,0.0351562475 V -0.30463281 c -0.667969,0 -0.785157,0 -0.785157,-0.45703125 V -2.5897891 c 0,-1.03125 0.714844,-1.59375 1.347657,-1.59375 0.632812,0 0.738281,0.5390625 0.738281,1.1015625 v 2.32031254 c 0,0.45703125 -0.105469,0.45703125 -0.773438,0.45703125 V 5.46875e-5 c 0.351563,-0.0117187475 0.855469,-0.0351562475 1.125,-0.0351562475 0.257813,0 0.773438,0.0234375 1.113282,0.0351562475 V -0.30463281 c -0.515625,0 -0.761719,0 -0.773438,-0.3046875 V -2.5077578 c 0,-0.8554688 0,-1.171875 -0.316406,-1.5234375 -0.128906,-0.1757813 -0.46875,-0.375 -1.042969,-0.375 -0.832031,0 -1.277344,0.5976562 -1.441406,0.984375 -0.140625,-0.8671875 -0.878906,-0.984375 -1.324219,-0.984375 -0.726562,0 -1.195312,0.4335937 -1.476562,1.0546875 v -1.0546875 l -1.40625,0.1171875 v 0.3046875 c 0.703125,0 0.785156,0.070312 0.785156,0.5625 z m 8.302734,0 v 2.66015624 c 0,0.45703125 -0.117187,0.45703125 -0.785156,0.45703125 V 5.46875e-5 c 0.351563,-0.0117187475 0.855469,-0.0351562475 1.125,-0.0351562475 0.257813,0 0.785156,0.0234375 1.113281,0.0351562475 V -0.30463281 c -0.65625,0 -0.773437,0 -0.773437,-0.45703125 V -2.5897891 c 0,-1.03125 0.714844,-1.59375 1.347656,-1.59375 0.621094,0 0.738281,0.5390625 0.738281,1.1015625 v 2.32031254 c 0,0.45703125 -0.117187,0.45703125 -0.773437,0.45703125 V 5.46875e-5 c 0.339844,-0.0117187475 0.855469,-0.0351562475 1.125,-0.0351562475 0.257812,0 0.773437,0.0234375 1.113281,0.0351562475 V -0.30463281 c -0.667969,0 -0.785156,0 -0.785156,-0.45703125 V -2.5897891 c 0,-1.03125 0.714844,-1.59375 1.347656,-1.59375 0.632813,0 0.738281,0.5390625 0.738281,1.1015625 v 2.32031254 c 0,0.45703125 -0.105468,0.45703125 -0.773437,0.45703125 V 5.46875e-5 c 0.351562,-0.0117187475 0.855469,-0.0351562475 1.125,-0.0351562475 0.257812,0 0.773437,0.0234375 1.113281,0.0351562475 V -0.30463281 c -0.515625,0 -0.761719,0 -0.773437,-0.3046875 V -2.5077578 c 0,-0.8554688 0,-1.171875 -0.316407,-1.5234375 -0.128906,-0.1757813 -0.46875,-0.375 -1.042968,-0.375 -0.832032,0 -1.277344,0.5976562 -1.441407,0.984375 -0.140625,-0.8671875 -0.878906,-0.984375 -1.324218,-0.984375 -0.726563,0 -1.195313,0.4335937 -1.476563,1.0546875 v -1.0546875 l -1.40625,0.1171875 v 0.3046875 c 0.703125,0 0.785156,0.070312 0.785156,0.5625 z m 10.514649,2.66015624 c 0.03516,0.3984375 0.304687,0.8203125 0.773437,0.8203125 0.210938,0 0.820313,-0.140625 0.820313,-0.94921875 V -1.4413516 H 32.33675 v 0.55078129 c 0,0.5859375 -0.246094,0.64453125 -0.363281,0.64453125 -0.328125,0 -0.363281,-0.45703125 -0.363281,-0.50390625 V -2.7421328 c 0,-0.4101563 0,-0.8085938 -0.363282,-1.171875 -0.386718,-0.3867188 -0.878906,-0.5507813 -1.359375,-0.5507813 -0.820312,0 -1.511718,0.46875 -1.511718,1.125 0,0.3046875 0.199218,0.46875 0.457031,0.46875 0.28125,0 0.46875,-0.1992187 0.46875,-0.4570312 0,-0.1171875 -0.05859,-0.4453125 -0.515625,-0.4570313 0.269531,-0.3515625 0.761719,-0.4570312 1.078125,-0.4570312 0.492187,0 1.054687,0.3867187 1.054687,1.2773437 v 0.3632813 c -0.503906,0.035156 -1.207031,0.058594 -1.828125,0.3632812 -0.75,0.3398438 -0.996093,0.8554688 -0.996093,1.28906254 0,0.80859375 0.960937,1.0546875 1.59375,1.0546875 0.65625,0 1.113281,-0.3984375 1.300781,-0.8671875 z m -0.07031,-1.62890624 v 0.9960937 c 0,0.94921879 -0.714843,1.28906254 -1.160156,1.28906254 -0.492187,0 -0.902344,-0.3515625 -0.902344,-0.85546875 0,-0.53906249 0.421875,-1.37109379 2.0625,-1.42968749 z m 3.459961,-1.59375 h 1.429688 v -0.3046875 h -1.429688 v -1.8398438 h -0.246094 c -0.01172,0.8203125 -0.316406,1.8867188 -1.289062,1.921875 v 0.2226563 h 0.84375 v 2.7539062 c 0,1.21875004 0.925781,1.33593754 1.289062,1.33593754 0.703125,0 0.984375,-0.703125 0.984375,-1.33593754 V -1.8046328 H 35.71468 v 0.5507812 c 0,0.73828129 -0.304688,1.11328129 -0.667969,1.11328129 -0.667969,0 -0.667969,-0.90234379 -0.667969,-1.07812499 z m 3.908203,-0.421875 -1.394531,0.1171875 v 0.3046875 c 0.65625,0 0.738281,0.058594 0.738281,0.5507812 v 2.67187504 c 0,0.45703125 -0.105468,0.45703125 -0.773437,0.45703125 V 5.46875e-5 C 37.173664,-0.01166406 37.712727,-0.03510156 37.95882,-0.03510156 c 0.339844,0 0.691407,0.0234375 1.03125,0.0351562475 V -0.30463281 c -0.65625,0 -0.703125,-0.0585938 -0.703125,-0.4453125 z m 0.04687,-1.734375 c 0,-0.3164063 -0.246093,-0.5273438 -0.527343,-0.5273438 -0.316407,0 -0.527344,0.2695313 -0.527344,0.5273438 0,0.2695312 0.210937,0.5273437 0.527344,0.5273437 0.28125,0 0.527343,-0.1992187 0.527343,-0.5273437 z m 5.651368,4.0078125 c 0,-1.2773438 -0.996094,-2.3320313 -2.191407,-2.3320313 -1.253906,0 -2.214843,1.0898438 -2.214843,2.3320313 0,1.28906249 1.03125,2.23828124 2.203125,2.23828124 1.207031,0 2.203125,-0.97265625 2.203125,-2.23828124 z m -2.191407,1.99218749 c -0.433593,0 -0.867187,-0.2109375 -1.136718,-0.66796875 C 40.39925,-1.2421328 40.39925,-1.8515078 40.39925,-2.2147891 c 0,-0.3867187 0,-0.9257812 0.246094,-1.359375 0.269531,-0.4570312 0.738281,-0.6679687 1.136719,-0.6679687 0.433593,0 0.867187,0.2226562 1.125,0.6445312 0.257812,0.4335938 0.257812,1.0078125 0.257812,1.3828125 0,0.3632813 0,0.9023438 -0.222656,1.33593754 -0.222656,0.4453125 -0.65625,0.73828125 -1.148438,0.73828125 z m 3.585938,-3.28124999 v 2.66015624 c 0,0.45703125 -0.117188,0.45703125 -0.785156,0.45703125 V 5.46875e-5 c 0.351562,-0.0117187475 0.855468,-0.0351562475 1.125,-0.0351562475 0.257812,0 0.785156,0.0234375 1.113281,0.0351562475 V -0.30463281 c -0.65625,0 -0.773438,0 -0.773438,-0.45703125 V -2.5897891 c 0,-1.03125 0.714844,-1.59375 1.347657,-1.59375 0.621093,0 0.738281,0.5390625 0.738281,1.1015625 v 2.32031254 c 0,0.45703125 -0.117188,0.45703125 -0.773438,0.45703125 V 5.46875e-5 c 0.339844,-0.0117187475 0.855469,-0.0351562475 1.125,-0.0351562475 0.257813,0 0.773438,0.0234375 1.113282,0.0351562475 V -0.30463281 c -0.515625,0 -0.773438,0 -0.785157,-0.3046875 V -2.5077578 c 0,-0.8554688 0,-1.171875 -0.304687,-1.5234375 -0.140625,-0.1757813 -0.46875,-0.375 -1.042969,-0.375 -0.726562,0 -1.195312,0.4335937 -1.476562,1.0546875 v -1.0546875 l -1.40625,0.1171875 v 0.3046875 c 0.703125,0 0.785156,0.070312 0.785156,0.5625 z m 0,0"
       style="fill:#d9d9d9;fill-opacity:1;fill-rule:nonzero;stroke:none"
       aria-label="Summation"
       transform="matrix(1.3333333,0,0,1.3333333,71.509333,79.441333)" />
    <path
       id="path15"
       d="M 74.45456,-77.95378 H 10.58588 c -2.20095,0 -3.98511,-1.78417 -3.98511,-3.98511 v -6.20315 c 0,-2.20095 1.78416,-3.98511 3.98511,-3.98511 h 63.86868 c 2.20094,0 3.98511,1.78416 3.98511,3.98511 v 6.20315 c 0,2.20094 -1.78417,3.98511 -3.98511,3.98511 z"
       style="fill:#00ff00;fill-opacity:0.4;fill-rule:nonzero;stroke:#d9d9d9;stroke-width:0.3985;stroke-linecap:butt;stroke-linejoin:miter;stroke-miterlimit:10;stroke-dasharray:none;stroke-opacity:1"
       transform="matrix(1.3333333,0,0,-1.3333333,104.71867,18.209333)" />
    <path
       id="path16"
       d="m 0.35186719,-6.8089844 v 0.3164063 h 0.234375 c 0.77343751,0 0.78515621,0.1054687 0.78515621,0.46875 v 5.24999998 c 0,0.3515625 -0.011719,0.46875 -0.78515621,0.46875 h -0.234375 V -3.90625e-4 H 3.9963984 c 1.6757813,0 3.046875,-1.476562475 3.046875,-3.351562475 0,-1.8867188 -1.3476562,-3.4570313 -3.046875,-3.4570313 z m 2.36718751,6.50390628 c -0.46875,0 -0.4921875,-0.0703125 -0.4921875,-0.3984375 V -6.0941406 c 0,-0.328125 0.023437,-0.3984375 0.4921875,-0.3984375 h 0.9960937 c 0.6210938,0 1.3007813,0.2109375 1.8164063,0.9257812 0.421875,0.5859375 0.515625,1.4414063 0.515625,2.2148438 0,1.1132812 -0.1875,1.7109375 -0.5507813,2.1914062 -0.1992187,0.26953128 -0.7617187,0.85546878 -1.7695312,0.85546878 z M 8.7249141,-2.5082031 c 0.058594,-1.4882813 0.9023437,-1.734375 1.2421875,-1.734375 1.0195314,0 1.1250004,1.3476562 1.1250004,1.734375 z m -0.011719,0.2109375 h 2.7890629 c 0.210937,0 0.246094,0 0.246094,-0.2109375 0,-0.984375 -0.539063,-1.9570313 -1.7812506,-1.9570313 -1.1601563,0 -2.0742188,1.03125 -2.0742188,2.2734375 0,1.33593753 1.0429688,2.29687503 2.1914064,2.29687503 1.21875,0 1.664063,-1.1015625 1.664063,-1.28906253 0,-0.1054687 -0.08203,-0.1171875 -0.128907,-0.1171875 -0.09375,0 -0.117187,0.058594 -0.128906,0.140625 -0.351562,1.01953128 -1.253906,1.01953128 -1.347656,1.01953128 -0.5039066,0 -0.9023441,-0.29296875 -1.1250004,-0.66796875 C 8.7131953,-1.2894531 8.7131953,-1.9457031 8.7131951,-2.2972656 Z m 5.0478519,-1.6875 h 1.429687 v -0.3046875 h -1.429687 v -1.8398438 h -0.246094 c -0.01172,0.8203125 -0.316406,1.8867188 -1.289062,1.921875 v 0.2226563 h 0.84375 v 2.7539062 c 0,1.21875003 0.925781,1.33593753 1.289062,1.33593753 0.703125,0 0.984375,-0.703125 0.984375,-1.33593753 v -0.5742187 h -0.246094 v 0.5507812 c 0,0.73828128 -0.304687,1.11328128 -0.667968,1.11328128 -0.667969,0 -0.667969,-0.90234378 -0.667969,-1.07812498 z m 3.263672,1.4765625 c 0.05859,-1.4882813 0.902344,-1.734375 1.242187,-1.734375 1.019532,0 1.125,1.3476562 1.125,1.734375 z M 17.013,-2.2972656 h 2.789063 c 0.210937,0 0.246093,0 0.246093,-0.2109375 0,-0.984375 -0.539062,-1.9570313 -1.78125,-1.9570313 -1.160156,0 -2.074218,1.03125 -2.074218,2.2734375 0,1.33593753 1.042968,2.29687503 2.191406,2.29687503 1.21875,0 1.664062,-1.1015625 1.664062,-1.28906253 0,-0.1054687 -0.08203,-0.1171875 -0.128906,-0.1171875 -0.09375,0 -0.117187,0.058594 -0.128906,0.140625 -0.351563,1.01953128 -1.253906,1.01953128 -1.347656,1.01953128 -0.503907,0 -0.902344,-0.29296875 -1.125,-0.66796875 C 17.013,-1.2894531 17.013,-1.9457031 17.013,-2.2972656 Z m 4.485352,0.1289062 c 0,-1.6289062 0.820312,-2.0507812 1.347656,-2.0507812 0.09375,0 0.714844,0.011719 1.066406,0.375 -0.410156,0.023437 -0.46875,0.328125 -0.46875,0.4570312 0,0.2578125 0.1875,0.4570313 0.457031,0.4570313 0.257813,0 0.457032,-0.1640625 0.457032,-0.46875 0,-0.6796875 -0.75,-1.0664063 -1.523438,-1.0664063 -1.242187,0 -2.15625,1.078125 -2.15625,2.3085938 0,1.27734373 0.984375,2.26171873 2.144531,2.26171873 1.335938,0 1.652344,-1.19531253 1.652344,-1.28906253 0,-0.1054687 -0.105469,-0.1054687 -0.128906,-0.1054687 -0.09375,0 -0.117188,0.046875 -0.128906,0.1054687 -0.292969,0.92578128 -0.9375,1.04296878 -1.3125,1.04296878 -0.527344,0 -1.40625,-0.421875 -1.40625,-2.02734378 z m 4.992187,-1.8164062 h 1.429688 v -0.3046875 h -1.429688 v -1.8398438 h -0.246094 c -0.01172,0.8203125 -0.316406,1.8867188 -1.289062,1.921875 v 0.2226563 h 0.84375 v 2.7539062 c 0,1.21875003 0.925781,1.33593753 1.289062,1.33593753 0.703125,0 0.984375,-0.703125 0.984375,-1.33593753 v -0.5742187 h -0.246093 v 0.5507812 c 0,0.73828128 -0.304688,1.11328128 -0.667969,1.11328128 -0.667969,0 -0.667969,-0.90234378 -0.667969,-1.07812498 z m 0,0"
       style="fill:#ffffff;fill-opacity:1;fill-rule:nonzero;stroke:none"
       aria-label="Detect"
       transform="matrix(1.3333333,0,0,1.3333333,142.316,136.13333)" />
    <path
       id="path17"
       d="m -10.58588,-77.34737 h -63.86868 c -2.20094,0 -3.98511,-1.78416 -3.98511,-3.9851 v -7.41599 c 0,-2.20094 1.78417,-3.98511 3.98511,-3.98511 h 63.86868 c 2.20095,0 3.98511,1.78417 3.98511,3.98511 v 7.41599 c 0,2.20094 -1.78416,3.9851 -3.98511,3.9851 z"
       style="fill:#ff0000;fill-opacity:0.4;fill-rule:nonzero;stroke:#d9d9d9;stroke-width:0.3985;stroke-linecap:butt;stroke-linejoin:miter;stroke-miterlimit:10;stroke-dasharray:none;stroke-opacity:1"
       transform="matrix(1.3333333,0,0,-1.3333333,104.71867,18.209333)" />
    <path
       id="path18"
       d="m 2.2265391,-3.5148125 v -2.578125 c 0,-0.234375 0,-0.3515625 0.2226562,-0.3867188 0.1054688,-0.011719 0.3867188,-0.011719 0.5859375,-0.011719 0.9023438,0 2.015625,0.035156 2.015625,1.4765625 0,0.6914062 -0.234375,1.5 -1.7109375,1.5 z m 2.109375,0.1289062 c 0.9609375,-0.234375 1.7460937,-0.84375 1.7460937,-1.6289062 0,-0.9492188 -1.1367187,-1.7929688 -2.6015625,-1.7929688 H 0.35153906 v 0.3164063 h 0.234375 c 0.77343754,0 0.78515624,0.1054687 0.78515624,0.46875 v 5.25 c 0,0.3515625 -0.011719,0.46875 -0.78515624,0.46875 h -0.234375 V 8.125e-4 c 0.3515625,-0.03515625 1.06640624,-0.03515625 1.45312504,-0.03515625 0.3867187,0 1.0898437,0 1.453125,0.03515625 V -0.303875 h -0.234375 c -0.7734375,0 -0.796875,-0.1171875 -0.796875,-0.46875 v -2.5195313 h 1.1484375 c 0.1640625,0 0.5742187,0 0.9257812,0.3398438 0.3867188,0.3515625 0.3867188,0.65625 0.3867188,1.3242187 0,0.65625005 0,1.05468755 0.3984375,1.42968755 0.4101562,0.36328125 0.9609375,0.421875 1.2539062,0.421875 0.7851563,0 0.9492188,-0.8203125 0.9492188,-1.1015625 0,-0.0585938 0,-0.16406255 -0.1289063,-0.16406255 -0.1054687,0 -0.1054687,0.0820313 -0.1171875,0.1523438 -0.058594,0.71484375 -0.4101562,0.890625 -0.65625,0.890625 -0.4921875,0 -0.5742187,-0.50390625 -0.703125,-1.4296875 L 5.5429453,-2.22575 C 5.3671641,-2.8702813 4.8866953,-3.1984063 4.3359141,-3.3859063 Z M 8.4462656,-2.507 c 0.058594,-1.4882813 0.9023438,-1.734375 1.2421875,-1.734375 1.0195309,0 1.1249999,1.3476562 1.1249999,1.734375 z m -0.011719,0.2109375 h 2.7890624 c 0.210938,0 0.246094,0 0.246094,-0.2109375 0,-0.984375 -0.539062,-1.9570313 -1.7812502,-1.9570313 -1.1601562,0 -2.0742187,1.03125 -2.0742187,2.2734375 0,1.33593755 1.0429687,2.29687505 2.1914062,2.29687505 1.2187507,0 1.6640627,-1.1015625 1.6640627,-1.28906255 0,-0.1054687 -0.08203,-0.1171875 -0.128906,-0.1171875 -0.09375,0 -0.117188,0.058594 -0.128906,0.140625 -0.351563,1.0195313 -1.2539069,1.0195313 -1.3476569,1.0195313 -0.5039063,0 -0.9023438,-0.29296875 -1.125,-0.66796875 C 8.4345469,-1.28825 8.4345469,-1.9445 8.4345466,-2.2960625 Z m 5.4228514,-2.109375 -1.523437,0.1171875 v 0.3046875 c 0.773437,0 0.855469,0.070312 0.855469,0.5625 v 3.9375 c 0,0.4453125 -0.08203,1.3125 -0.726563,1.3125 -0.04687,0 -0.269531,0 -0.539062,-0.1289063 0.152343,-0.046875 0.351562,-0.1875 0.351562,-0.4570312 0,-0.2578125 -0.175781,-0.45703125 -0.457031,-0.45703125 -0.28125,0 -0.457031,0.19921875 -0.457031,0.45703125 0,0.515625 0.5625,0.796875 1.125,0.796875 0.75,0 1.371093,-0.6328125 1.371093,-1.53515625 z m 0,-1.734375 c 0,-0.28125 -0.246093,-0.5273438 -0.539062,-0.5273438 -0.28125,0 -0.527344,0.2460938 -0.527344,0.5273438 0,0.2929687 0.246094,0.5273437 0.527344,0.5273437 0.292969,0 0.539062,-0.234375 0.539062,-0.5273437 z m 2.0625,3.6328125 c 0.05859,-1.4882813 0.902344,-1.734375 1.242188,-1.734375 1.019531,0 1.125,1.3476562 1.125,1.734375 z m -0.01172,0.2109375 h 2.789062 c 0.210938,0 0.246094,0 0.246094,-0.2109375 0,-0.984375 -0.539063,-1.9570313 -1.78125,-1.9570313 -1.160156,0 -2.074219,1.03125 -2.074219,2.2734375 0,1.33593755 1.042969,2.29687505 2.191406,2.29687505 1.21875,0 1.664063,-1.1015625 1.664063,-1.28906255 0,-0.1054687 -0.08203,-0.1171875 -0.128906,-0.1171875 -0.09375,0 -0.117188,0.058594 -0.128907,0.140625 -0.351562,1.0195313 -1.253906,1.0195313 -1.347656,1.0195313 -0.503906,0 -0.902344,-0.29296875 -1.125,-0.66796875 C 15.90818,-1.28825 15.90818,-1.9445 15.90818,-2.2960625 Z m 4.485351,0.1289062 c 0,-1.6289062 0.820313,-2.0507812 1.347656,-2.0507812 0.09375,0 0.714844,0.011719 1.066407,0.375 -0.410157,0.023437 -0.46875,0.328125 -0.46875,0.4570312 0,0.2578125 0.1875,0.4570313 0.457031,0.4570313 0.257812,0 0.457031,-0.1640625 0.457031,-0.46875 0,-0.6796875 -0.75,-1.0664063 -1.523437,-1.0664063 -1.242188,0 -2.15625,1.078125 -2.15625,2.3085938 0,1.27734375 0.984375,2.26171875 2.144531,2.26171875 1.335937,0 1.652344,-1.19531255 1.652344,-1.28906255 0,-0.1054687 -0.105469,-0.1054687 -0.128907,-0.1054687 -0.09375,0 -0.117187,0.046875 -0.128906,0.1054687 -0.292969,0.9257813 -0.9375,1.0429688 -1.3125,1.0429688 -0.527344,0 -1.40625,-0.421875 -1.40625,-2.0273438 z m 4.989258,-1.8164062 h 1.429688 V -4.28825 h -1.429688 v -1.8398438 h -0.246094 c -0.01172,0.8203125 -0.316406,1.8867188 -1.289062,1.921875 v 0.2226563 h 0.84375 v 2.7539062 c 0,1.21875005 0.925781,1.33593755 1.289062,1.33593755 0.703125,0 0.984375,-0.703125 0.984375,-1.33593755 V -1.803875 h -0.246093 v 0.5507812 c 0,0.7382813 -0.304688,1.1132813 -0.667969,1.1132813 -0.667969,0 -0.667969,-0.9023438 -0.667969,-1.078125 z m 0,0"
       style="fill:#ffffff;fill-opacity:1;fill-rule:nonzero;stroke:none"
       aria-label="Reject"
       transform="matrix(1.3333333,0,0,1.3333333,29.668,134.84267)" />
    <path
       id="path19"
       d="M 36.1187,0 H 62.63689"
       style="fill:none;stroke:#d9d9d9;stroke-width:0.3985;stroke-linecap:butt;stroke-linejoin:miter;stroke-miterlimit:10;stroke-dasharray:none;stroke-opacity:1"
       transform="matrix(1.3333333,0,0,-1.3333333,104.71867,18.209333)" />
    <path
       id="path20"
       d="M -1.19551,1.59401 C -1.09587,0.99626 0,0.09961 0.29886,0 0,-0.09961 -1.09587,-0.99626 -1.19551,-1.59401"
       style="fill:none;stroke:#d9d9d9;stroke-width:0.31879;stroke-linecap:round;stroke-linejoin:round;stroke-miterlimit:10;stroke-dasharray:none;stroke-opacity:1"
       transform="matrix(1.3333333,0,0,-1.3333333,188.23452,18.209333)" />
    <path
       id="path21"
       d="m 135.33257,0 h 26.51818"
       style="fill:none;stroke:#d9d9d9;stroke-width:0.3985;stroke-linecap:butt;stroke-linejoin:miter;stroke-miterlimit:10;stroke-dasharray:none;stroke-opacity:1"
       transform="matrix(1.3333333,0,0,-1.3333333,104.71867,18.209333)" />
    <path
       id="path22"
       d="M -1.19551,1.59401 C -1.09587,0.99626 0,0.09961 0.29886,0 0,-0.09961 -1.09587,-0.99626 -1.19551,-1.59401"
       style="fill:none;stroke:#d9d9d9;stroke-width:0.31879;stroke-linecap:round;stroke-linejoin:round;stroke-miterlimit:10;stroke-dasharray:none;stroke-opacity:1"
       transform="matrix(1.3333333,0,0,-1.3333333,320.51967,18.209333)" />
    <path
       id="path23"
       d="m 198.42773,-7.28593 v -25.956"
       style="fill:none;stroke:#d9d9d9;stroke-width:0.3985;stroke-linecap:butt;stroke-linejoin:miter;stroke-miterlimit:10;stroke-dasharray:none;stroke-opacity:1"
       transform="matrix(1.3333333,0,0,-1.3333333,104.71867,18.209333)" />
    <path
       id="path24"
       d="M -1.19551,1.59401 C -1.09587,0.99626 0,0.09961 0.29886,0 0,-0.09961 -1.09587,-0.99626 -1.19551,-1.59401"
       style="fill:none;stroke:#d9d9d9;stroke-width:0.31879;stroke-linecap:round;stroke-linejoin:round;stroke-miterlimit:10;stroke-dasharray:none;stroke-opacity:1"
       transform="matrix(0,1.3333333,1.3333333,0,369.28897,62.531907)" />
    <path
       id="path25"
       d="M 162.30904,-42.52023 H 135.79085"
       style="fill:none;stroke:#d9d9d9;stroke-width:0.3985;stroke-linecap:butt;stroke-linejoin:miter;stroke-miterlimit:10;stroke-dasharray:none;stroke-opacity:1"
       transform="matrix(1.3333333,0,0,-1.3333333,104.71867,18.209333)" />
    <path
       id="path26"
       d="M -1.19551,1.59401 C -1.09587,0.99626 0,0.09961 0.29886,0 0,-0.09961 -1.09587,-0.99626 -1.19551,-1.59401"
       style="fill:none;stroke:#d9d9d9;stroke-width:0.31879;stroke-linecap:round;stroke-linejoin:round;stroke-miterlimit:10;stroke-dasharray:none;stroke-opacity:1"
       transform="matrix(-1.3333333,0,0,1.3333333,285.77313,74.902973)" />
    <path
       id="path27"
       d="M 63.09517,-42.52023 H 36.57697"
       style="fill:none;stroke:#d9d9d9;stroke-width:0.3985;stroke-linecap:butt;stroke-linejoin:miter;stroke-miterlimit:10;stroke-dasharray:none;stroke-opacity:1"
       transform="matrix(1.3333333,0,0,-1.3333333,104.71867,18.209333)" />
    <path
       id="path28"
       d="M -1.19551,1.59401 C -1.09587,0.99626 0,0.09961 0.29886,0 0,-0.09961 -1.09587,-0.99626 -1.19551,-1.59401"
       style="fill:none;stroke:#d9d9d9;stroke-width:0.31879;stroke-linecap:round;stroke-linejoin:round;stroke-miterlimit:10;stroke-dasharray:none;stroke-opacity:1"
       transform="matrix(-1.3333333,0,0,1.3333333,153.48796,74.902973)" />
    <path
       id="path29"
       d="M 7.28615,-49.80617 34.9129,-77.4305"
       style="fill:none;stroke:#d9d9d9;stroke-width:0.3985;stroke-linecap:butt;stroke-linejoin:miter;stroke-miterlimit:10;stroke-dasharray:none;stroke-opacity:1"
       transform="matrix(1.3333333,0,0,-1.3333333,104.71867,18.209333)" />
    <path
       id="path30"
       d="M -1.19551,1.59401 C -1.09587,0.99626 0,0.09961 0.29886,0 0,-0.09961 -1.09587,-0.99626 -1.19551,-1.59401"
       style="fill:none;stroke:#d9d9d9;stroke-width:0.31879;stroke-linecap:round;stroke-linejoin:round;stroke-miterlimit:10;stroke-dasharray:none;stroke-opacity:1"
       transform="matrix(0.94282667,0.94274667,0.94274667,-0.94282667,151.26919,121.45)" />
    <path
       id="path31"
       d="M -7.28436,-49.80617 -34.3067,-76.8241"
       style="fill:none;stroke:#d9d9d9;stroke-width:0.3985;stroke-linecap:butt;stroke-linejoin:miter;stroke-miterlimit:10;stroke-dasharray:none;stroke-opacity:1"
       transform="matrix(1.3333333,0,0,-1.3333333,104.71867,18.209333)" />
    <path
       id="path32"
       d="M -1.19551,1.59401 C -1.09587,0.99626 0,0.09961 0.29886,0 0,-0.09961 -1.09587,-0.99626 -1.19551,-1.59401"
       style="fill:none;stroke:#d9d9d9;stroke-width:0.31879;stroke-linecap:round;stroke-linejoin:round;stroke-miterlimit:10;stroke-dasharray:none;stroke-opacity:1"
       transform="matrix(-0.94286667,0.94270667,0.94270667,0.94286667,58.976413,120.64147)" />
    <path
       id="path33"
       d="m 6.7278047,-2.2738984 c 0.1054687,-0.046875 0.1875,-0.09375 0.1875,-0.2226563 0,-0.1171875 -0.082031,-0.1640625 -0.1875,-0.2109375 L 1.2082734,-5.3090547 c -0.1289062,-0.070312 -0.1523437,-0.070312 -0.1757812,-0.070312 -0.11718751,0 -0.19921876,0.09375 -0.19921876,0.1992188 0,0.09375 0.046875,0.1523437 0.18749996,0.2226562 l 5.2265625,2.4609375 -5.2265625,2.47265626 c -0.14062496,0.0703125 -0.18749996,0.12890625 -0.18749996,0.22265625 0,0.10546875 0.0820313,0.19921875 0.19921876,0.19921875 0.023437,0 0.046875,0 0.1757812,-0.0703125 z m 8.0449223,-3.7734375 c 0.07031,-0.28125 0.105468,-0.3398438 0.234375,-0.3632813 0.08203,-0.023437 0.410156,-0.023437 0.621093,-0.023437 1.007813,0 1.453125,0.035156 1.453125,0.8203125 0,0.140625 -0.03516,0.5273438 -0.08203,0.796875 0,0.035156 -0.02344,0.1523438 -0.02344,0.1875 0,0.058594 0.02344,0.1289063 0.117187,0.1289063 0.105469,0 0.128906,-0.082031 0.152344,-0.234375 l 0.269531,-1.734375 c 0.01172,-0.035156 0.01172,-0.140625 0.01172,-0.1640625 0,-0.1054688 -0.09375,-0.1054688 -0.269531,-0.1054688 H 11.73757 c -0.246093,0 -0.257812,0 -0.316406,0.1992188 l -0.597656,1.7460937 c -0.01172,0.023437 -0.07031,0.1640625 -0.07031,0.1757813 0,0.070312 0.05859,0.1171875 0.128907,0.1171875 0.09375,0 0.105468,-0.046875 0.164062,-0.2109375 0.539063,-1.546875 0.796875,-1.7226563 2.273438,-1.7226563 h 0.386718 c 0.28125,0 0.28125,0.035156 0.28125,0.1171875 0,0.058594 -0.03516,0.1757813 -0.04687,0.2109375 l -1.324218,5.32031251 c -0.09375,0.36328125 -0.128907,0.48046875 -1.195313,0.48046875 -0.351562,0 -0.410156,0 -0.410156,0.1875 0,0.1171875025 0.105469,0.1171875025 0.164062,0.1171875025 0.269532,0 0.550782,-0.0234375025 0.820313,-0.0234375025 0.28125,0 0.5625,-0.01171875 0.84375,-0.01171875 0.28125,0 0.5625,0.01171875 0.832031,0.01171875 0.28125,0 0.585938,0.0234375025 0.867188,0.0234375025 0.09375,0 0.210937,0 0.210937,-0.1992187525 0,-0.10546875 -0.08203,-0.10546875 -0.339844,-0.10546875 -0.246093,0 -0.375,0 -0.632812,-0.0234375 -0.292969,-0.0351563 -0.363281,-0.0585938 -0.363281,-0.22265625 0,-0.0117188 0,-0.0585938 0.03516,-0.2109375 z m 0,0"
       style="fill:#d9d9d9;fill-opacity:1;fill-rule:nonzero;stroke:none"
       aria-label="&gt;T"
       transform="matrix(1.3333333,0,0,1.3333333,149.596,105.63733)" />
    <g
       id="g33"
       aria-label="T"
       transform="matrix(1.3333333,0,0,1.3333333,36.210667,104.99467)">
      <path
         id="path34"
         d="m 6.7267656,-5.9168984 c 0.1054688,-0.046875 0.1875,-0.09375 0.1875,-0.2226563 0,-0.1054687 -0.082031,-0.1992187 -0.1992187,-0.1992187 -0.046875,0 -0.140625,0.046875 -0.1757813,0.058594 l -5.5078125,2.6015625 c -0.17578123,0.082031 -0.19921873,0.1523438 -0.19921873,0.234375 0,0.09375 0.0585938,0.1523438 0.19921873,0.2226563 l 5.5078125,2.58984371 c 0.1289063,0.0703125 0.140625,0.0703125 0.1757813,0.0703125 0.1054687,0 0.1992187,-0.09375 0.1992187,-0.19921875 0,-0.09375 -0.035156,-0.15234375 -0.2109375,-0.234375 L 1.5002031,-3.4442422 Z M 6.5627031,1.3604453 c 0.1757813,0 0.3515625,0 0.3515625,-0.1992187 0,-0.19921879 -0.2109375,-0.19921879 -0.3632812,-0.19921879 H 1.1837969 c -0.1523438,0 -0.35156253,0 -0.35156253,0.19921879 0,0.1992187 0.17578123,0.1992187 0.33984373,0.1992187 z m 0,0"
         style="fill:#d9d9d9;fill-opacity:1;fill-rule:nonzero;stroke:none" />
      <path
         id="path35"
         d="m 14.768758,-6.0458047 c 0.07031,-0.28125 0.105469,-0.3398437 0.234375,-0.3632812 0.08203,-0.023437 0.410156,-0.023437 0.621094,-0.023437 1.007812,0 1.453125,0.035156 1.453125,0.8203125 0,0.140625 -0.03516,0.5273437 -0.08203,0.796875 0,0.035156 -0.02344,0.1523437 -0.02344,0.1875 0,0.058594 0.02344,0.1289062 0.117187,0.1289062 0.105469,0 0.128907,-0.082031 0.152344,-0.234375 l 0.269531,-1.734375 c 0.01172,-0.035156 0.01172,-0.140625 0.01172,-0.1640625 0,-0.1054687 -0.09375,-0.1054687 -0.269531,-0.1054687 h -5.519531 c -0.246094,0 -0.257813,0 -0.316407,0.1992187 l -0.597656,1.7460938 c -0.01172,0.023437 -0.07031,0.1640625 -0.07031,0.1757812 0,0.070312 0.05859,0.1171875 0.128906,0.1171875 0.09375,0 0.105469,-0.046875 0.164062,-0.2109375 0.539063,-1.546875 0.796875,-1.7226562 2.273438,-1.7226562 h 0.386719 c 0.28125,0 0.28125,0.035156 0.28125,0.1171875 0,0.058594 -0.03516,0.1757812 -0.04687,0.2109375 l -1.324219,5.32031246 c -0.09375,0.36328125 -0.128906,0.48046875 -1.195313,0.48046875 -0.351562,0 -0.410156,0 -0.410156,0.1875 0,0.1171875 0.105469,0.1171875 0.164063,0.1171875 0.269531,0 0.550781,-0.0234375 0.820312,-0.0234375 0.28125,0 0.5625,-0.01171875 0.84375,-0.01171875 0.28125,0 0.5625,0.01171875 0.832031,0.01171875 0.28125,0 0.585938,0.0234375 0.867188,0.0234375 0.09375,0 0.210937,0 0.210937,-0.19921875 0,-0.10546875 -0.08203,-0.10546875 -0.339843,-0.10546875 -0.246094,0 -0.375,0 -0.632813,-0.0234375 -0.292969,-0.0351563 -0.363281,-0.0585938 -0.363281,-0.22265625 0,-0.0117188 0,-0.0585938 0.03516,-0.2109375 z m 0,0"
         style="fill:#d9d9d9;fill-opacity:1;fill-rule:nonzero;stroke:none" />
    </g>
  </g>
</svg>
