<?xml version="1.0" encoding="UTF-8" standalone="no"?>
<!-- Created with Inkscape (http://www.inkscape.org/) -->

<svg
   version="1.1"
   id="svg1"
   width="321.42572"
   height="128.57051"
   viewBox="0 0 321.42573 128.57051"
   xmlns="http://www.w3.org/2000/svg"
   xmlns:svg="http://www.w3.org/2000/svg">
  <defs
     id="defs1" />
  <g
     id="all"
     transform="translate(-1262.163,-3.7107373)"
     style="display:inline">
    <path
       id="sensor1"
       d="m -54.70107,14.17339 c 0,1.10047 -0.89207,1.99255 -1.99255,1.99255 -1.10046,0 -1.99255,-0.89208 -1.99255,-1.99255 0,-1.10047 0.89209,-1.99256 1.99255,-1.99256 1.10048,0 1.99255,0.89209 1.99255,1.99256 z"
       style="fill:#d9d9d9;fill-opacity:1;fill-rule:nonzero;stroke:#000000;stroke-width:0.3985;stroke-linecap:butt;stroke-linejoin:miter;stroke-miterlimit:10;stroke-dasharray:none;stroke-opacity:1"
       transform="matrix(1.3333333,0,0,-1.3333333,1390.516,99.317333)" />
    <path
       id="sensor1-4"
       d="m 1393.4213,98.828493 c 0,-1.467293 -1.1894,-2.656733 -2.6567,-2.656733 -1.4673,0 -2.6567,1.18944 -2.6567,2.656733 0,1.467297 1.1894,2.656747 2.6567,2.656747 1.4673,0 2.6567,-1.18945 2.6567,-2.656747 z"
       style="display:inline;fill:#d9d9d9;fill-opacity:1;fill-rule:nonzero;stroke:#000000;stroke-width:0.531333;stroke-linecap:butt;stroke-linejoin:miter;stroke-miterlimit:10;stroke-dasharray:none;stroke-opacity:1" />
    <path
       id="sensor1-text"
       d="M 3.4791953,-3.8672656 2.2018516,-4.1719531 c -0.6210938,-0.1523438 -1.0078125,-0.6914063 -1.0078125,-1.265625 0,-0.703125 0.5390625,-1.3007813 1.3125,-1.3007813 1.6640625,0 1.8867187,1.6289063 1.9453125,2.0742188 0.011719,0.058594 0.011719,0.1171875 0.1171875,0.1171875 0.1289062,0 0.1289062,-0.046875 0.1289062,-0.234375 v -2.0039063 c 0,-0.1640625 0,-0.234375 -0.1054687,-0.234375 -0.070312,0 -0.082031,0.011719 -0.1523438,0.1289063 l -0.3515625,0.5625 c -0.2929687,-0.28125 -0.703125,-0.6914063 -1.59375,-0.6914063 -1.1015625,0 -1.93359374,0.8789063 -1.93359374,1.9335938 0,0.8203125 0.52734374,1.546875 1.30078124,1.8164062 0.1054688,0.046875 0.6210938,0.1640625 1.3125,0.328125 0.2695313,0.070312 0.5742188,0.140625 0.84375,0.515625 0.2109375,0.2578125 0.3164063,0.5859375 0.3164063,0.9140625 0,0.70312503 -0.5039063,1.41796878 -1.3359375,1.41796878 -0.2929688,0 -1.0429688,-0.046875 -1.5703125,-0.5390625 C 0.84247656,-1.1602344 0.81903906,-1.8047656 0.80732031,-2.1563281 c -0.0117188,-0.1054688 -0.09375,-0.1054688 -0.1171875,-0.1054688 -0.12890625,0 -0.12890625,0.070312 -0.12890625,0.2460938 v 1.99218748 c 0,0.17578125 0,0.24609375 0.10546875,0.24609375 0.0703125,0 0.0820313,-0.0234375 0.15234375,-0.12890625 0,-0.01171875 0.0234375,-0.046875 0.35156254,-0.57421875 0.3164062,0.33984375 0.9492187,0.703125 1.8398437,0.703125 1.1601563,0 1.9570313,-0.984375 1.9570313,-2.07421873 0,-0.9960938 -0.65625,-1.8164063 -1.4882813,-2.015625 z m 3.1699219,1.359375 c 0.058594,-1.4882813 0.9023437,-1.734375 1.2421875,-1.734375 1.0195312,0 1.125,1.3476562 1.125,1.734375 z m -0.011719,0.2109375 h 2.7890625 c 0.2109375,0 0.2460938,0 0.2460938,-0.2109375 0,-0.984375 -0.5390625,-1.9570313 -1.78125,-1.9570313 -1.1601563,0 -2.0742188,1.03125 -2.0742188,2.2734375 0,1.33593753 1.0429688,2.29687503 2.1914063,2.29687503 1.21875,0 1.6640625,-1.1015625 1.6640625,-1.28906253 0,-0.1054687 -0.082031,-0.1171875 -0.1289063,-0.1171875 -0.09375,0 -0.1171875,0.058594 -0.1289062,0.140625 -0.3515625,1.01953128 -1.2539063,1.01953128 -1.3476563,1.01953128 -0.5039062,0 -0.9023437,-0.29296875 -1.125,-0.66796875 C 6.6373984,-1.2891406 6.6373984,-1.9453906 6.6373982,-2.2969531 Z m 4.4267578,-1.125 v 2.66015623 c 0,0.45703125 -0.117187,0.45703125 -0.785156,0.45703125 V -7.8125e-5 c 0.351562,-0.011718745 0.855469,-0.035156245 1.125,-0.035156245 0.257812,0 0.785156,0.0234375 1.113281,0.035156245 V -0.30476562 c -0.65625,0 -0.773437,0 -0.773437,-0.45703125 V -2.5899219 c 0,-1.03125 0.714843,-1.59375 1.347656,-1.59375 0.621094,0 0.738281,0.5390625 0.738281,1.1015625 v 2.32031253 c 0,0.45703125 -0.117187,0.45703125 -0.773437,0.45703125 V -7.8125e-5 c 0.339843,-0.011718745 0.855468,-0.035156245 1.125,-0.035156245 0.257812,0 0.773437,0.0234375 1.113281,0.035156245 V -0.30476562 c -0.515625,0 -0.773438,0 -0.785156,-0.3046875 V -2.5078906 c 0,-0.8554688 0,-1.171875 -0.304688,-1.5234375 -0.140625,-0.1757813 -0.46875,-0.375 -1.042969,-0.375 -0.726562,0 -1.195312,0.4335937 -1.476562,1.0546875 V -4.4063281 L 10.279,-4.2891406 v 0.3046875 c 0.703125,0 0.785156,0.070312 0.785156,0.5625 z m 6.506836,1.4882812 c 0.222656,0.035156 1.03125,0.1992188 1.03125,0.9140625 0,0.51562503 -0.351562,0.91406253 -1.125,0.91406253 -0.832031,0 -1.195312,-0.57421875 -1.382812,-1.41796873 -0.03516,-0.1289063 -0.03516,-0.1757813 -0.140625,-0.1757813 -0.128907,0 -0.128907,0.070312 -0.128907,0.2578125 v 1.31250003 c 0,0.1640625 0,0.234375 0.105469,0.234375 0.05859,0 0.07031,0 0.257813,-0.19921875 0.01172,-0.01171875 0.01172,-0.03515625 0.199218,-0.22265625 0.433594,0.421875 0.878907,0.421875 1.089844,0.421875 1.148438,0 1.605469,-0.66796875 1.605469,-1.38281253 0,-0.5273437 -0.292969,-0.8203125 -0.421875,-0.9492187 -0.328125,-0.3164063 -0.714844,-0.3984375 -1.136719,-0.46875 -0.550781,-0.1171875 -1.21875,-0.2460938 -1.21875,-0.8203125 0,-0.3515625 0.257813,-0.7617188 1.113281,-0.7617188 1.101563,0 1.148438,0.9023438 1.171875,1.2070313 0,0.09375 0.09375,0.09375 0.117188,0.09375 0.128906,0 0.128906,-0.046875 0.128906,-0.2460938 v -0.9960937 c 0,-0.1757813 0,-0.2460938 -0.117187,-0.2460938 -0.04687,0 -0.07031,0 -0.199219,0.1171875 -0.02344,0.046875 -0.128906,0.1289063 -0.164063,0.1640625 -0.375,-0.28125 -0.785156,-0.28125 -0.9375,-0.28125 -1.21875,0 -1.59375,0.6679688 -1.59375,1.2304688 0,0.3398437 0.164063,0.6210937 0.433594,0.84375 0.316406,0.2578125 0.597656,0.3164062 1.3125,0.4570312 z m 6.544922,-0.1992187 c 0,-1.2773438 -0.996094,-2.3320313 -2.191406,-2.3320313 -1.253906,0 -2.214844,1.0898438 -2.214844,2.3320313 0,1.28906248 1.03125,2.23828123 2.203125,2.23828123 1.207031,0 2.203125,-0.97265625 2.203125,-2.23828123 z m -2.191406,1.99218748 c -0.433594,0 -0.867188,-0.2109375 -1.136719,-0.66796875 -0.257812,-0.43359373 -0.257812,-1.04296873 -0.257812,-1.40625003 0,-0.3867187 0,-0.9257812 0.246093,-1.359375 0.269532,-0.4570312 0.738282,-0.6679687 1.136719,-0.6679687 0.433594,0 0.867188,0.2226562 1.125,0.6445312 0.257813,0.4335938 0.257813,1.0078125 0.257813,1.3828125 0,0.3632813 0,0.9023438 -0.222657,1.33593753 -0.222656,0.4453125 -0.65625,0.73828125 -1.148437,0.73828125 z m 4.148437,-3.16406248 v -1.1015625 l -1.382812,0.1171875 v 0.3046875 c 0.691406,0 0.773437,0.070312 0.773437,0.5625 v 2.66015623 c 0,0.45703125 -0.105468,0.45703125 -0.773437,0.45703125 V -7.8125e-5 c 0.386719,-0.011718745 0.855469,-0.035156245 1.136719,-0.035156245 0.398437,0 0.867187,0 1.265625,0.035156245 V -0.30476562 h -0.210938 c -0.738281,0 -0.761719,-0.1171875 -0.761719,-0.46875 V -2.3086719 c 0,-0.984375 0.421875,-1.875 1.183594,-1.875 0.05859,0 0.08203,0 0.105469,0.011719 -0.03516,0.011719 -0.234375,0.1289062 -0.234375,0.3867187 0,0.28125 0.210937,0.4335938 0.433594,0.4335938 0.175781,0 0.421875,-0.1289063 0.421875,-0.4453125 0,-0.3164063 -0.304688,-0.609375 -0.726563,-0.609375 -0.738281,0 -1.089844,0.6679687 -1.230469,1.1015623 z m 8.484375,-3.0703125 c 0,-0.234375 0,-0.2578125 -0.234375,-0.2578125 -0.609375,0.6328125 -1.488281,0.6328125 -1.804687,0.6328125 v 0.3164062 c 0.199219,0 0.785156,0 1.300781,-0.2578125 v 5.15625003 c 0,0.3515625 -0.03516,0.48046875 -0.925781,0.48046875 H 32.576852 V -7.8125e-5 c 0.351562,-0.035156245 1.207031,-0.035156245 1.605468,-0.035156245 0.398438,0 1.265625,0 1.617188,0.035156245 V -0.30476562 h -0.316406 c -0.902344,0 -0.925782,-0.1171875 -0.925782,-0.48046875 z m 0,0"
       style="fill:#d9d9d9;fill-opacity:1;fill-rule:nonzero;stroke:none"
       aria-label="Sensor1"
       transform="matrix(1.3333333,0,0,1.3333333,1261.4147,75.726667)" />
    <path
       id="sensor2"
       d="m 53.01688,-14.17339 c 0,1.10047 -0.89208,1.99256 -1.99256,1.99256 -1.10046,0 -1.99255,-0.89209 -1.99255,-1.99256 0,-1.10047 0.89209,-1.99255 1.99255,-1.99255 1.10048,0 1.99256,0.89208 1.99256,1.99255 z"
       style="fill:#d9d9d9;fill-opacity:1;fill-rule:nonzero;stroke:#000000;stroke-width:0.3985;stroke-linecap:butt;stroke-linejoin:miter;stroke-miterlimit:10;stroke-dasharray:none;stroke-opacity:1"
       transform="matrix(1.3333333,0,0,-1.3333333,1390.516,99.317333)" />
    <path
       id="sensor2-text"
       d="M 3.4812891,-3.8679063 2.2039453,-4.1725938 C 1.5828516,-4.3249375 1.1961328,-4.864 1.1961328,-5.4382188 c 0,-0.703125 0.5390625,-1.3007812 1.3125,-1.3007812 1.6640625,0 1.8867188,1.6289062 1.9453125,2.0742187 0.011719,0.058594 0.011719,0.1171875 0.1171875,0.1171875 0.1289063,0 0.1289063,-0.046875 0.1289063,-0.234375 V -6.785875 c 0,-0.1640625 0,-0.234375 -0.1054688,-0.234375 -0.070312,0 -0.082031,0.011719 -0.1523437,0.1289062 l -0.3515625,0.5625 c -0.2929688,-0.28125 -0.703125,-0.6914062 -1.59375,-0.6914062 -1.1015625,0 -1.93359379,0.8789062 -1.93359379,1.9335937 0,0.8203125 0.52734379,1.546875 1.30078129,1.8164063 0.1054687,0.046875 0.6210937,0.1640625 1.3125,0.328125 0.2695312,0.070312 0.5742187,0.140625 0.84375,0.515625 0.2109375,0.2578125 0.3164062,0.5859375 0.3164062,0.9140625 0,0.703125 -0.5039062,1.41796875 -1.3359375,1.41796875 -0.2929687,0 -1.0429687,-0.046875 -1.5703125,-0.5390625 C 0.84457031,-1.160875 0.82113281,-1.8054063 0.80941406,-2.1569688 c -0.0117188,-0.1054687 -0.09375,-0.1054687 -0.1171875,-0.1054687 -0.12890625,0 -0.12890625,0.070312 -0.12890625,0.2460937 v 1.99218755 c 0,0.17578125 0,0.24609375 0.10546875,0.24609375 0.0703125,0 0.0820313,-0.0234375 0.15234375,-0.12890625 0,-0.01171875 0.0234375,-0.046875 0.35156249,-0.57421875 0.3164063,0.33984375 0.9492188,0.703125 1.8398438,0.703125 1.1601562,0 1.9570312,-0.984375 1.9570312,-2.0742188 0,-0.9960937 -0.65625,-1.8164062 -1.4882812,-2.015625 z m 3.1669921,1.359375 c 0.058594,-1.4882812 0.9023438,-1.734375 1.2421875,-1.734375 1.0195313,0 1.125,1.3476563 1.125,1.734375 z m -0.011719,0.2109375 H 9.425625 c 0.2109375,0 0.2460937,0 0.2460937,-0.2109375 0,-0.984375 -0.5390625,-1.9570312 -1.78125,-1.9570312 -1.1601562,0 -2.0742187,1.03125 -2.0742187,2.2734375 0,1.3359375 1.0429687,2.296875 2.1914062,2.296875 1.21875,0 1.6640625,-1.1015625 1.6640625,-1.2890625 0,-0.1054688 -0.082031,-0.1171875 -0.1289062,-0.1171875 -0.09375,0 -0.1171875,0.058594 -0.1289063,0.140625 C 9.0623437,-0.14134375 8.16,-0.14134375 8.06625,-0.14134375 c -0.5039063,0 -0.9023438,-0.29296875 -1.125,-0.66796875 C 6.6365625,-1.2897813 6.6365625,-1.9460313 6.6365622,-2.2975938 Z m 4.4267578,-1.125 v 2.6601563 c 0,0.45703125 -0.117187,0.45703125 -0.785156,0.45703125 v 0.3046875 c 0.351563,-0.01171875 0.855469,-0.03515625 1.125,-0.03515625 0.257813,0 0.785156,0.0234375 1.113281,0.03515625 v -0.3046875 c -0.65625,0 -0.773437,0 -0.773437,-0.45703125 v -1.828125 c 0,-1.03125 0.714844,-1.59375 1.347656,-1.59375 0.621094,0 0.738281,0.5390625 0.738281,1.1015625 v 2.3203125 c 0,0.45703125 -0.117187,0.45703125 -0.773437,0.45703125 v 0.3046875 c 0.339844,-0.01171875 0.855469,-0.03515625 1.125,-0.03515625 0.257812,0 0.773437,0.0234375 1.113281,0.03515625 v -0.3046875 c -0.515625,0 -0.773437,0 -0.785156,-0.3046875 V -2.5085313 c 0,-0.8554687 0,-1.171875 -0.304688,-1.5234375 -0.140625,-0.1757812 -0.46875,-0.375 -1.042968,-0.375 -0.726563,0 -1.195313,0.4335938 -1.476563,1.0546875 v -1.0546875 l -1.40625,0.1171875 v 0.3046875 c 0.703125,0 0.785156,0.070312 0.785156,0.5625 z m 6.509766,1.4882813 c 0.222656,0.035156 1.03125,0.1992187 1.03125,0.9140625 0,0.515625 -0.351563,0.9140625 -1.125,0.9140625 -0.832031,0 -1.195313,-0.57421875 -1.382813,-1.4179688 -0.03516,-0.1289062 -0.03516,-0.1757812 -0.140625,-0.1757812 -0.128906,0 -0.128906,0.070312 -0.128906,0.2578125 v 1.3125 c 0,0.1640625 0,0.234375 0.105469,0.234375 0.05859,0 0.07031,0 0.257812,-0.19921875 0.01172,-0.01171875 0.01172,-0.03515625 0.199219,-0.22265625 0.433594,0.421875 0.878906,0.421875 1.089844,0.421875 1.148437,0 1.605469,-0.66796875 1.605469,-1.3828125 0,-0.5273438 -0.292969,-0.8203125 -0.421875,-0.9492188 -0.328125,-0.3164062 -0.714844,-0.3984375 -1.136719,-0.46875 -0.550781,-0.1171875 -1.21875,-0.2460937 -1.21875,-0.8203125 0,-0.3515625 0.257812,-0.7617187 1.113281,-0.7617187 1.101563,0 1.148438,0.9023437 1.171875,1.2070312 0,0.09375 0.09375,0.09375 0.117188,0.09375 0.128906,0 0.128906,-0.046875 0.128906,-0.2460937 v -0.9960938 c 0,-0.1757812 0,-0.2460937 -0.117188,-0.2460937 -0.04687,0 -0.07031,0 -0.199218,0.1171875 -0.02344,0.046875 -0.128907,0.1289062 -0.164063,0.1640625 -0.375,-0.28125 -0.785156,-0.28125 -0.9375,-0.28125 -1.21875,0 -1.59375,0.6679687 -1.59375,1.2304687 0,0.3398438 0.164063,0.6210938 0.433594,0.84375 0.316406,0.2578125 0.597656,0.3164063 1.3125,0.4570313 z m 6.541992,-0.1992188 c 0,-1.2773437 -0.996094,-2.3320312 -2.191406,-2.3320312 -1.253906,0 -2.214844,1.0898437 -2.214844,2.3320312 0,1.28906255 1.03125,2.2382813 2.203125,2.2382813 1.207031,0 2.203125,-0.97265625 2.203125,-2.2382813 z m -2.191406,1.99218755 c -0.433594,0 -0.867188,-0.2109375 -1.136719,-0.66796875 -0.257812,-0.4335938 -0.257812,-1.0429688 -0.257812,-1.40625 0,-0.3867188 0,-0.9257813 0.246093,-1.359375 0.269532,-0.4570313 0.738282,-0.6679688 1.136719,-0.6679688 0.433594,0 0.867188,0.2226563 1.125,0.6445313 0.257813,0.4335937 0.257813,1.0078125 0.257813,1.3828125 0,0.3632812 0,0.9023437 -0.222657,1.3359375 -0.222656,0.4453125 -0.65625,0.73828125 -1.148437,0.73828125 z m 4.148437,-3.16406255 v -1.1015625 l -1.382812,0.1171875 v 0.3046875 c 0.691406,0 0.773437,0.070312 0.773437,0.5625 v 2.6601563 c 0,0.45703125 -0.105468,0.45703125 -0.773437,0.45703125 v 0.3046875 c 0.386719,-0.01171875 0.855469,-0.03515625 1.136719,-0.03515625 0.398437,0 0.867187,0 1.265625,0.03515625 v -0.3046875 h -0.210938 c -0.738281,0 -0.761719,-0.1171875 -0.761719,-0.46875 V -2.3093125 c 0,-0.984375 0.421875,-1.875 1.183594,-1.875 0.05859,0 0.08203,0 0.105469,0.011719 -0.03516,0.011719 -0.234375,0.1289063 -0.234375,0.3867188 0,0.28125 0.210937,0.4335937 0.433594,0.4335937 0.175781,0 0.421875,-0.1289062 0.421875,-0.4453125 0,-0.3164062 -0.304688,-0.609375 -0.726563,-0.609375 -0.738281,0 -1.089844,0.6679688 -1.230469,1.1015622 z m 6.823243,2.5429688 1.054687,-1.03125 c 1.558594,-1.3710938 2.15625,-1.9101563 2.15625,-2.90625 0,-1.1367188 -0.902344,-1.9335938 -2.121094,-1.9335938 -1.125,0 -1.851562,0.9140625 -1.851562,1.8046875 0,0.5507813 0.492187,0.5507813 0.527344,0.5507813 0.164062,0 0.515625,-0.1171875 0.515625,-0.5273438 0,-0.2578125 -0.1875,-0.515625 -0.527344,-0.515625 -0.08203,0 -0.105469,0 -0.128906,0.011719 0.222656,-0.6445313 0.761718,-1.0195313 1.335937,-1.0195313 0.914063,0 1.335938,0.8085938 1.335938,1.6289063 0,0.796875 -0.492188,1.5820312 -1.042969,2.203125 L 32.239102,-0.364 c -0.105469,0.10546875 -0.105469,0.12890625 -0.105469,0.36328125 h 3.691406 l 0.28125,-1.73437505 h -0.257812 c -0.04687,0.3046875 -0.117188,0.7382813 -0.210938,0.89062505 -0.07031,0.0820313 -0.726562,0.0820313 -0.949219,0.0820313 z m 0,0"
       style="fill:#d9d9d9;fill-opacity:1;fill-rule:nonzero;stroke:none"
       aria-label="Sensor2"
       transform="matrix(1.3333333,0,0,1.3333333,1463.24,131.98533)" />
    <path
       id="source"
       d="m 90.72441,69.63567 14.94415,-25.88411 3.91361,9.16192 -8.96649,15.53047 z m 18.8578,-16.72219 5.17682,2.98883 -8.96649,15.53046 -5.17685,-2.98877"
       style="fill:#cccccc;fill-opacity:1;fill-rule:nonzero;stroke:#000000;stroke-width:0.3985;stroke-linecap:butt;stroke-linejoin:miter;stroke-miterlimit:10;stroke-dasharray:none;stroke-opacity:1"
       transform="matrix(1.3333333,0,0,-1.3333333,1390.516,99.317333)" />
    <path
       id="wave-1"
       d="m 89.98238,58.89459 c -1.2156,-4.53657 1.47671,-9.19981 6.01329,-10.4154"
       style="fill:none;stroke:#d9d9d9;stroke-width:0.3985;stroke-linecap:butt;stroke-linejoin:miter;stroke-miterlimit:10;stroke-dasharray:none;stroke-opacity:1"
       transform="matrix(1.3333333,0,0,-1.3333333,1390.516,99.317333)" />
    <path
       id="wave-2"
       d="M 83.13728,60.72873 C 80.90872,52.41168 85.84459,43.86246 94.16164,41.6339"
       style="fill:none;stroke:#d9d9d9;stroke-width:0.3985;stroke-linecap:butt;stroke-linejoin:miter;stroke-miterlimit:10;stroke-dasharray:none;stroke-opacity:1"
       transform="matrix(1.3333333,0,0,-1.3333333,1390.516,99.317333)" />
    <path
       id="wave-3"
       d="M 76.29218,62.56288 C 73.05064,50.46538 80.2301,38.03015 92.3276,34.78862"
       style="fill:none;stroke:#d9d9d9;stroke-width:0.3985;stroke-linecap:butt;stroke-linejoin:miter;stroke-miterlimit:10;stroke-dasharray:none;stroke-opacity:1"
       transform="matrix(1.3333333,0,0,-1.3333333,1390.516,99.317333)" />
    <path
       id="Source-text"
       d="M 3.4804531,-3.8668594 2.2031094,-4.1715469 c -0.6210938,-0.1523437 -1.0078125,-0.6914062 -1.0078125,-1.265625 0,-0.703125 0.5390625,-1.3007812 1.3125,-1.3007812 1.6640625,0 1.8867187,1.6289062 1.9453125,2.0742187 0.011719,0.058594 0.011719,0.1171875 0.1171875,0.1171875 0.1289062,0 0.1289062,-0.046875 0.1289062,-0.234375 v -2.0039062 c 0,-0.1640625 0,-0.234375 -0.1054687,-0.234375 -0.070312,0 -0.082031,0.011719 -0.1523438,0.1289062 l -0.3515625,0.5625 c -0.2929687,-0.28125 -0.703125,-0.6914062 -1.59375,-0.6914062 -1.1015625,0 -1.93359373,0.8789062 -1.93359373,1.9335937 0,0.8203125 0.52734373,1.546875 1.30078123,1.8164063 0.1054688,0.046875 0.6210938,0.1640625 1.3125,0.328125 0.2695313,0.070312 0.5742188,0.140625 0.84375,0.515625 0.2109375,0.2578125 0.3164063,0.5859375 0.3164063,0.9140625 0,0.70312498 -0.5039063,1.41796873 -1.3359375,1.41796873 -0.2929688,0 -1.0429688,-0.046875 -1.5703125,-0.5390625 C 0.84373437,-1.1598281 0.82029687,-1.8043594 0.80857812,-2.1559219 c -0.0117188,-0.1054687 -0.09375,-0.1054687 -0.1171875,-0.1054687 -0.12890625,0 -0.12890625,0.070312 -0.12890625,0.2460937 v 1.99218753 c 0,0.17578125 0,0.24609375 0.10546875,0.24609375 0.0703125,0 0.0820313,-0.0234375 0.15234375,-0.12890625 0,-0.01171875 0.0234375,-0.046875 0.35156253,-0.57421875 0.3164062,0.33984375 0.9492187,0.703125 1.8398437,0.703125 1.1601563,0 1.9570313,-0.984375 1.9570313,-2.07421878 0,-0.9960937 -0.65625,-1.8164062 -1.4882813,-2.015625 z m 6.7412109,1.734375 c 0,-1.2773437 -0.9960937,-2.3320312 -2.1914062,-2.3320312 -1.2539062,0 -2.2148437,1.0898437 -2.2148437,2.3320312 0,1.28906253 1.03125,2.23828128 2.203125,2.23828128 1.2070312,0 2.2031249,-0.97265625 2.2031249,-2.23828128 z m -2.1914062,1.99218753 c -0.4335937,0 -0.8671875,-0.2109375 -1.1367187,-0.66796875 C 6.6357266,-1.2418594 6.6357266,-1.8512344 6.6357266,-2.2145156 c 0,-0.3867188 0,-0.9257813 0.2460937,-1.359375 0.2695313,-0.4570313 0.7382813,-0.6679688 1.1367188,-0.6679688 0.4335937,0 0.8671875,0.2226563 1.125,0.6445313 0.2578125,0.4335937 0.2578125,1.0078125 0.2578125,1.3828125 0,0.3632812 0,0.9023437 -0.2226563,1.33593748 -0.2226562,0.4453125 -0.65625,0.73828125 -1.1484375,0.73828125 z m 6.3779292,-0.64453125 v 0.890625 L 15.849594,3.28125e-4 V -0.30435937 c -0.703125,0 -0.785157,-0.0703125 -0.785157,-0.5625 V -4.4059219 l -1.453125,0.1171875 v 0.3046875 c 0.691407,0 0.773438,0.070312 0.773438,0.5625 v 1.7695313 c 0,0.86718748 -0.480469,1.54687498 -1.207031,1.54687498 -0.832032,0 -0.878907,-0.46875 -0.878907,-0.99609378 v -3.3046875 l -1.464843,0.1171875 v 0.3046875 c 0.785156,0 0.785156,0.035156 0.785156,0.9140625 v 1.5 c 0,0.77343753 0,1.67578128 1.511719,1.67578128 0.550781,0 0.996093,-0.26953125 1.277343,-0.890625 z m 3.307618,-2.51953128 v -1.1015625 l -1.382813,0.1171875 v 0.3046875 c 0.691406,0 0.773438,0.070312 0.773438,0.5625 v 2.66015628 c 0,0.45703125 -0.105469,0.45703125 -0.773438,0.45703125 V 3.28125e-4 c 0.386719,-0.011718745 0.855469,-0.035156245 1.136719,-0.035156245 0.398437,0 0.867187,0 1.265625,0.035156245 V -0.30435937 h -0.210938 c -0.738281,0 -0.761718,-0.1171875 -0.761718,-0.46875 V -2.3082656 c 0,-0.984375 0.421875,-1.875 1.183593,-1.875 0.05859,0 0.08203,0 0.105469,0.011719 -0.03516,0.011719 -0.234375,0.1289063 -0.234375,0.3867188 0,0.28125 0.210938,0.4335937 0.433594,0.4335937 0.175781,0 0.421875,-0.1289062 0.421875,-0.4453125 0,-0.3164062 -0.304688,-0.609375 -0.726563,-0.609375 -0.738281,0 -1.089843,0.6679688 -1.230468,1.1015622 z m 3.398437,1.1367188 c 0,-1.6289063 0.820313,-2.0507813 1.347656,-2.0507813 0.09375,0 0.714844,0.011719 1.066407,0.375 -0.410157,0.023437 -0.46875,0.328125 -0.46875,0.4570313 0,0.2578125 0.1875,0.4570312 0.457031,0.4570312 0.257812,0 0.457031,-0.1640625 0.457031,-0.46875 0,-0.6796875 -0.75,-1.0664062 -1.523437,-1.0664062 -1.242188,0 -2.15625,1.078125 -2.15625,2.3085937 0,1.27734378 0.984375,2.26171878 2.144531,2.26171878 1.335937,0 1.652344,-1.19531248 1.652344,-1.28906248 0,-0.1054688 -0.105469,-0.1054688 -0.128907,-0.1054688 -0.09375,0 -0.117187,0.046875 -0.128906,0.1054688 -0.292969,0.92578123 -0.9375,1.04296873 -1.3125,1.04296873 -0.527344,0 -1.40625,-0.421875 -1.40625,-2.02734373 z m 4.379883,-0.3398438 c 0.05859,-1.4882812 0.902344,-1.734375 1.242187,-1.734375 1.019532,0 1.125,1.3476563 1.125,1.734375 z m -0.01172,0.2109375 h 2.789063 c 0.210937,0 0.246093,0 0.246093,-0.2109375 0,-0.984375 -0.539062,-1.9570312 -1.78125,-1.9570312 -1.160156,0 -2.074218,1.03125 -2.074218,2.2734375 0,1.33593748 1.042968,2.29687498 2.191406,2.29687498 1.21875,0 1.664062,-1.1015625 1.664062,-1.28906248 0,-0.1054688 -0.08203,-0.1171875 -0.128906,-0.1171875 -0.09375,0 -0.117187,0.058594 -0.128906,0.140625 -0.351563,1.01953123 -1.253906,1.01953123 -1.347656,1.01953123 -0.503907,0 -0.902344,-0.29296875 -1.125,-0.66796875 C 25.482406,-1.2887344 25.482406,-1.9449844 25.482405,-2.2965469 Z m 0,0"
       style="fill:#d9d9d9;fill-opacity:1;fill-rule:nonzero;stroke:none"
       aria-label="Source"
       transform="matrix(1.3333333,0,0,1.3333333,1545.5653,13.148)" />
    <g
       id="layer1"
       style="display:inline"
       transform="translate(1262.163,3.7107373)">
      <path
         id="x-line"
         d="M 0,0 H 92.83719"
         style="display:inline;fill:none;stroke:#d9d9d9;stroke-width:0.79701;stroke-linecap:butt;stroke-linejoin:miter;stroke-miterlimit:10;stroke-dasharray:none;stroke-opacity:1"
         transform="matrix(1.3333333,0,0,-1.3333333,128.353,95.606596)" />
      <path
         id="x-arrow"
         d="M -1.55415,2.0722 C -1.42464,1.29512 0,0.1295 0.38852,0 0,-0.1295 -1.42464,-1.29512 -1.55415,-2.0722"
         style="display:inline;fill:none;stroke:#d9d9d9;stroke-width:0.6376;stroke-linecap:round;stroke-linejoin:round;stroke-miterlimit:10;stroke-dasharray:none;stroke-opacity:1"
         transform="matrix(1.3333333,0,0,-1.3333333,252.1359,95.606596)" />
      <path
         id="x"
         d="m 3.3288594,-3.0106484 c 0.058594,-0.2578125 0.2929687,-1.171875 0.984375,-1.171875 0.046875,0 0.2929687,0 0.5039062,0.1289062 -0.28125,0.046875 -0.4804687,0.3046875 -0.4804687,0.5390625 0,0.1640625 0.1054687,0.3515625 0.375,0.3515625 0.2226562,0 0.5390625,-0.1875 0.5390625,-0.5859375 0,-0.515625 -0.5859375,-0.65625 -0.9257813,-0.65625 -0.5742187,0 -0.9257812,0.5273438 -1.0429687,0.7617188 -0.2578125,-0.65625 -0.7851563,-0.7617188 -1.078125,-0.7617188 -1.0429688,0 -1.60546877,1.2890625 -1.60546877,1.5351563 0,0.1054687 0.10546875,0.1054687 0.1171875,0.1054687 0.0820313,0 0.1171875,-0.023437 0.12890625,-0.1171875 0.33984372,-1.0546875 0.99609372,-1.3007812 1.33593752,-1.3007812 0.1875,0 0.5390625,0.09375 0.5390625,0.6679687 0,0.3046875 -0.1640625,0.9726563 -0.5390625,2.3671875 -0.1523438,0.62109376 -0.5039063,1.04296876 -0.9492188,1.04296876 -0.058594,0 -0.28124997,0 -0.49218747,-0.12890625 0.24609375,-0.0585937 0.46874997,-0.26953125 0.46874997,-0.5390625 0,-0.26953121 -0.22265622,-0.35156251 -0.37499997,-0.35156251 -0.29296875,0 -0.5390625,0.25781251 -0.5390625,0.57421876 0,0.45703125 0.4921875,0.65625 0.93749997,0.65625 0.65625,0 1.0078125,-0.69140625 1.0429688,-0.75 0.1171875,0.36328125 0.4804687,0.75 1.078125,0.75 1.0195312,0 1.59375,-1.27734376 1.59375,-1.53515626 0,-0.09375 -0.09375,-0.09375 -0.1289063,-0.09375 -0.082031,0 -0.1054687,0.035156 -0.1289062,0.1054688 -0.328125,1.06640621 -0.9960938,1.31249996 -1.3242188,1.31249996 -0.3867187,0 -0.5390625,-0.328125 -0.5390625,-0.65625 0,-0.22265625 0.058594,-0.44531246 0.1640625,-0.87890626 z m 0,0"
         style="display:inline;fill:#d9d9d9;fill-opacity:1;fill-rule:nonzero;stroke:none"
         aria-label="x"
         transform="matrix(1.3333333,0,0,1.3333333,240.5263,106.28393)" />
      <path
         id="dotted_path"
         d="M 39.27834,22.67752 -36.38667,-21.00777"
         style="display:inline;fill:none;stroke:#d9d9d9;stroke-width:0.79701;stroke-linecap:butt;stroke-linejoin:miter;stroke-miterlimit:10;stroke-dasharray:0.79701, 1.99255;stroke-dashoffset:0;stroke-opacity:1"
         transform="matrix(1.3333333,0,0,-1.3333333,128.353,95.606596)" />
      <path
         id="arrow-line"
         d="M 66.28253,38.26791 39.89091,23.03117"
         style="display:inline;fill:none;stroke:#d9d9d9;stroke-width:0.79701;stroke-linecap:butt;stroke-linejoin:miter;stroke-miterlimit:10;stroke-dasharray:none;stroke-opacity:1;image-rendering:auto"
         transform="matrix(1.3333333,0,0,-1.3333333,128.353,95.606596)" />
      <path
         id="arrow"
         d="M -1.55415,2.0722 C -1.42464,1.29512 0,0.1295 0.38852,0 0,-0.1295 -1.42464,-1.29512 -1.55415,-2.0722"
         style="display:inline;fill:none;stroke:#d9d9d9;stroke-width:0.6376;stroke-linecap:round;stroke-linejoin:round;stroke-miterlimit:10;stroke-dasharray:none;stroke-opacity:1"
         transform="matrix(-1.15468,0.66664,0.66664,1.15468,181.5409,64.898343)" />
      <g
         id="v_psi"
         aria-label="v(ψ)"
         transform="matrix(1.3333333,0,0,1.3333333,181.9023,41.973263)"
         style="display:inline">
        <path
           id="path94"
           d="m 5.3906094,-3.6096797 c 0,-0.9023437 -0.6679688,-0.9023437 -0.6796875,-0.9023437 -0.3984375,0 -0.7617188,0.421875 -0.7617188,0.7617187 0,0.2695313 0.2109375,0.3984375 0.3046875,0.4453125 0.421875,0.2460938 0.4921875,0.421875 0.4921875,0.6210938 0,0.2226562 -0.5742187,2.40234371 -1.734375,2.40234371 -0.7148437,0 -0.7148437,-0.59765625 -0.7148437,-0.77343751 0,-0.5742187 0.2695312,-1.3007812 0.5976562,-2.0976562 0.070312,-0.1992188 0.1054688,-0.2929688 0.1054688,-0.4570313 0,-0.5742187 -0.5742188,-0.890625 -1.125,-0.890625 -1.05468753,0 -1.55859378,1.3476563 -1.55859378,1.546875 0,0.140625 0.15234375,0.140625 0.24609375,0.140625 0.1171875,0 0.1875,0 0.22265625,-0.1289062 0.31640628,-1.078125 0.84374998,-1.2070313 1.03124998,-1.2070313 0.070312,0 0.1640625,0 0.1640625,0.2109375 0,0.234375 -0.1171875,0.515625 -0.1523437,0.5976563 -0.4570313,1.1601562 -0.5976563,1.6054687 -0.5976563,2.0859375 0,1.05468746 0.8554688,1.33593746 1.7226563,1.33593746 1.7109375,0 2.4375,-2.83593746 2.4375,-3.69140626 z m 0,0"
           style="fill:#d9d9d9;fill-opacity:1;fill-rule:nonzero;stroke:none" />
        <path
           id="path95"
           d="M 9.7880703,2.2379766 C 9.5068203,1.9684453 8.8505703,1.3590703 8.4404141,0.09344531 8.1708828,-0.70342969 8.0536953,-1.6174922 8.0536953,-2.4963984 c 0,-1.9570313 0.515625,-3.515625 1.6054688,-4.6289063 0.1523437,-0.1523437 0.1640625,-0.1523437 0.1640625,-0.2109375 0,-0.1054687 -0.1054688,-0.140625 -0.1875,-0.140625 -0.1640625,0 -0.5859375,0.375 -0.7617188,0.5390625 -1.5585937,1.546875 -1.78125,3.3867188 -1.78125,4.4414063 0,1.2421875 0.328125,2.33203121 0.796875,3.16406246 0.65625,1.14843754 1.5585938,1.81640624 1.7460938,1.81640624 0.082031,0 0.1875,-0.035156 0.1875,-0.140625 0,-0.046875 -0.035156,-0.09375 -0.035156,-0.1054687 z m 0,0"
           style="fill:#d9d9d9;fill-opacity:1;fill-rule:nonzero;stroke:none" />
        <path
           id="path96"
           d="m 15.9785,-6.5628047 c 0.03516,-0.140625 0.03516,-0.1640625 0.03516,-0.1992187 0,-0.1523438 -0.128906,-0.1523438 -0.222656,-0.1523438 -0.199219,0 -0.210938,0.023437 -0.257813,0.234375 l -1.59375,6.37500001 c -1.019531,-0.1171875 -1.125,-0.65625 -1.125,-1.03125001 0,-0.234375 0.02344,-0.5039062 0.480469,-1.6757812 0.152344,-0.3632813 0.175781,-0.421875 0.175781,-0.5976563 0,-0.5742187 -0.574218,-0.890625 -1.125,-0.890625 -1.054687,0 -1.558593,1.3476563 -1.558593,1.546875 0,0.140625 0.152343,0.140625 0.246093,0.140625 0.117188,0 0.1875,0 0.222657,-0.1289062 0.328125,-1.1015625 0.867187,-1.2070313 1.03125,-1.2070313 0.05859,0 0.164062,0 0.164062,0.2109375 0,0.234375 -0.09375,0.4804688 -0.222656,0.7851563 -0.339844,0.8789062 -0.515625,1.3945312 -0.515625,1.7226562 0,1.31250001 1.558594,1.45312501 2.015625,1.48828126 0.09375,0.01171875 0.09375,0.0234375 0.09375,0.046875 0,0.0234375 -0.175781,0.71484375 -0.199219,0.80859375 -0.07031,0.31640629 -0.222656,0.91406249 -0.222656,0.96093749 0,0.140625 0.140625,0.140625 0.222656,0.140625 0.1875,0 0.199219,-0.011719 0.257813,-0.1992187 l 0.433593,-1.73437504 c 1.5,0 2.636719,-1.10156246 3.105469,-2.10937496 0.117188,-0.2578125 0.351563,-1.0664063 0.351563,-1.5820313 0,-0.9023437 -0.667969,-0.9023437 -0.679688,-0.9023437 -0.375,0 -0.75,0.3984375 -0.75,0.7617187 0,0.2695313 0.210938,0.3984375 0.292969,0.4453125 0.386719,0.2226563 0.503906,0.4101563 0.503906,0.6210938 0,0.6210937 -1.113281,2.39062496 -2.730469,2.40234371 z m 0,0"
           style="fill:#d9d9d9;fill-opacity:1;fill-rule:nonzero;stroke:none" />
        <path
           id="path97"
           d="m 21.755844,-2.4963984 c 0,-1.2421875 -0.328125,-2.3320313 -0.796875,-3.1640625 -0.65625,-1.1484375 -1.558594,-1.8164063 -1.746094,-1.8164063 -0.08203,0 -0.1875,0.035156 -0.1875,0.140625 0,0.058594 0,0.070312 0.175781,0.234375 1.253906,1.2773438 1.59375,3.0351563 1.59375,4.6054688 0,1.95703121 -0.503906,3.5273437 -1.605469,4.6289062 -0.152343,0.1523438 -0.164062,0.1640625 -0.164062,0.2109375 0,0.1054688 0.105469,0.140625 0.1875,0.140625 0.164062,0 0.585937,-0.375 0.761719,-0.5390625 1.558593,-1.54687499 1.78125,-3.375 1.78125,-4.4414062 z m 0,0"
           style="fill:#d9d9d9;fill-opacity:1;fill-rule:nonzero;stroke:none" />
      </g>
      <path
         id="dashed_sensor1"
         d="M -36.38667,-21.00777 -56.69362,14.17339"
         style="display:inline;fill:none;stroke:#d9d9d9;stroke-width:0.79701;stroke-linecap:butt;stroke-linejoin:miter;stroke-miterlimit:10;stroke-dasharray:2.98883, 2.98883;stroke-dashoffset:0;stroke-opacity:1"
         transform="matrix(1.3333333,0,0,-1.3333333,128.353,95.606596)" />
      <path
         id="dashed_sensor2"
         d="M 32.13176,18.55124 51.02432,-14.17339"
         style="display:inline;fill:none;stroke:#d9d9d9;stroke-width:0.79701;stroke-linecap:butt;stroke-linejoin:miter;stroke-miterlimit:10;stroke-dasharray:2.98883, 2.98883;stroke-dashoffset:0;stroke-opacity:1"
         transform="matrix(1.3333333,0,0,-1.3333333,128.353,95.606596)" />
      <path
         id="tau_2_curl"
         d="m 0,0 c -0.10011,1.66776 0.91165,3.40225 3.06863,4.64757 l 7.43787,4.29419 c 2.15698,1.24531 3.16876,2.97981 3.06863,4.64758 1.39425,-0.92062 3.40229,-0.91167 5.55925,0.33365 l 7.43789,4.29419 c 2.15696,1.24532 4.165,1.25427 5.55923,0.33365"
         style="display:inline;fill:none;stroke:#d9d9d9;stroke-width:0.3985;stroke-linecap:butt;stroke-linejoin:miter;stroke-miterlimit:10;stroke-dasharray:none;stroke-opacity:1"
         transform="matrix(1.3333333,0,0,-1.3333333,128.353,95.606596)" />
      <g
         id="tau_2"
         aria-label="−τ&#10;2"
         transform="matrix(1.3333333,0,0,1.3333333,131.165,71.23993)"
         style="display:inline">
        <path
           id="path110"
           d="m 6.5617734,-2.2979609 c 0.1757813,0 0.3515625,0 0.3515625,-0.1992188 0,-0.1992187 -0.1757812,-0.1992187 -0.3515625,-0.1992187 h -5.390625 c -0.1640625,0 -0.33984371,0 -0.33984371,0.1992187 0,0.1992188 0.17578121,0.1992188 0.33984371,0.1992188 z m 0,0"
           style="fill:#d9d9d9;fill-opacity:1;fill-rule:nonzero;stroke:none" />
        <path
           id="path111"
           d="m 10.677984,-3.7159297 h 1.675782 c 0.128906,0 0.480468,0 0.480468,-0.3398437 0,-0.234375 -0.199218,-0.234375 -0.398437,-0.234375 H 9.6467344 c -0.1992188,0 -0.5859375,0 -1.0195313,0.46875 -0.328125,0.3515625 -0.609375,0.8320312 -0.609375,0.890625 0,0.011719 0,0.1054687 0.1171875,0.1054687 0.082031,0 0.1054688,-0.046875 0.1640625,-0.1289062 0.4804688,-0.7617188 1.0546875,-0.7617188 1.265625,-0.7617188 h 0.8203129 l -0.9726566,3.19921876 c -0.035156,0.1171875 -0.1054688,0.328125 -0.1054688,0.36328125 0,0.1171875 0.070312,0.26953125 0.2929688,0.26953125 0.328125,0 0.375,-0.28125 0.4101566,-0.421875 z m 0,0"
           style="fill:#d9d9d9;fill-opacity:1;fill-rule:nonzero;stroke:none" />
        <path
           id="path112"
           d="m 15.620367,0.23035937 h -0.234375 c -0.02344,0.15234375 -0.08203,0.5625 -0.175781,0.6328125 -0.05859,0.0351563 -0.597656,0.0351563 -0.691406,0.0351563 h -1.289063 c 0.738281,-0.64453125 0.984375,-0.84375 1.394531,-1.171875 0.515625,-0.41015625 0.996094,-0.84374997 0.996094,-1.50000007 0,-0.84375 -0.738281,-1.359375 -1.628906,-1.359375 -0.867188,0 -1.453125,0.609375 -1.453125,1.2421875 0,0.3632813 0.304687,0.3984375 0.375,0.3984375 0.164062,0 0.375,-0.1171875 0.375,-0.375 0,-0.1289062 -0.05859,-0.3632812 -0.421875,-0.3632812 0.222656,-0.5039063 0.691406,-0.65625 1.019531,-0.65625 0.703125,0 1.066406,0.5507812 1.066406,1.1132813 0,0.609375 -0.433593,1.08984372 -0.65625,1.33593747 l -1.6875,1.66406243 c -0.07031,0.058594 -0.07031,0.070312 -0.07031,0.2695313 h 2.882812 z m 0,0"
           style="fill:#d9d9d9;fill-opacity:1;fill-rule:nonzero;stroke:none" />
      </g>
      <path
         id="tau_1_curl"
         d="M 0,0 C 0.10011,-1.66776 -0.91165,-3.40225 -3.06863,-4.64757 L -12.62,-10.16196 c -2.15696,-1.24531 -3.16876,-2.97981 -3.06861,-4.64758 -1.39426,0.92062 -3.40229,0.91167 -5.55927,-0.33365 l -9.55136,-5.51441 c -2.15698,-1.24531 -4.16501,-1.25427 -5.55925,-0.33364"
         style="display:inline;fill:none;stroke:#d9d9d9;stroke-width:0.3985;stroke-linecap:butt;stroke-linejoin:miter;stroke-miterlimit:10;stroke-dasharray:none;stroke-opacity:1"
         transform="matrix(1.3333333,0,0,-1.3333333,128.353,95.606596)" />
      <g
         id="tau_1"
         aria-label="τ&#10;1"
         transform="matrix(1.3333333,0,0,1.3333333,105.7703,125.33726)"
         style="display:inline">
        <path
           id="path107"
           d="m 2.9290625,-3.7156875 h 1.6757812 c 0.1289063,0 0.4804688,0 0.4804688,-0.3398438 0,-0.234375 -0.1992188,-0.234375 -0.3984375,-0.234375 H 1.8978125 c -0.1992188,0 -0.5859375,0 -1.01953125,0.46875 -0.328125,0.3515625 -0.609375,0.8320313 -0.609375,0.890625 0,0.011719 0,0.1054688 0.1171875,0.1054688 0.0820313,0 0.10546875,-0.046875 0.1640625,-0.1289063 C 1.030625,-3.7156875 1.6048437,-3.7156875 1.8157812,-3.7156875 h 0.8203125 l -0.9726562,3.19921875 c -0.035156,0.1171875 -0.1054688,0.328125 -0.1054688,0.36328125 0,0.1171875 0.070312,0.26953125 0.2929688,0.26953125 0.328125,0 0.375,-0.28125 0.4101562,-0.421875 z m 0,0"
           style="fill:#d9d9d9;fill-opacity:1;fill-rule:nonzero;stroke:none" />
        <path
           id="path108"
           d="m 6.6878516,-2.9363906 c 0,-0.1875 -0.011719,-0.1992188 -0.2109375,-0.1992188 -0.4453125,0.4335938 -1.078125,0.4453125 -1.359375,0.4453125 v 0.2460938 c 0.1640625,0 0.6210937,0 1.0078125,-0.1875 v 3.55078122 c 0,0.23437498 0,0.32812498 -0.6914063,0.32812498 H 5.1644141 v 0.2460938 c 0.1289062,-0.011719 0.984375,-0.023437 1.2421875,-0.023437 0.2109375,0 1.0898437,0.011719 1.2421875,0.023437 V 1.2472031 H 7.3909766 c -0.703125,0 -0.703125,-0.09375 -0.703125,-0.32812498 z m 0,0"
           style="fill:#d9d9d9;fill-opacity:1;fill-rule:nonzero;stroke:none" />
      </g>
      <path
         id="y-line"
         d="M 0,0 V 70.15965"
         style="display:inline;fill:none;stroke:#d9d9d9;stroke-width:0.79701;stroke-linecap:butt;stroke-linejoin:miter;stroke-miterlimit:10;stroke-dasharray:none;stroke-opacity:1"
         transform="matrix(1.3333333,0,0,-1.3333333,128.353,95.606596)" />
      <path
         id="y-arrow"
         d="M -1.55415,2.0722 C -1.42464,1.29512 0,0.1295 0.38852,0 0,-0.1295 -1.42464,-1.29512 -1.55415,-2.0722"
         style="display:inline;fill:none;stroke:#d9d9d9;stroke-width:0.6376;stroke-linecap:round;stroke-linejoin:round;stroke-miterlimit:10;stroke-dasharray:none;stroke-opacity:1"
         transform="matrix(0,-1.3333333,-1.3333333,0,128.353,2.060396)" />
      <path
         id="y"
         d="m 4.8407578,-3.7960156 c 0.046875,-0.140625 0.046875,-0.1523438 0.046875,-0.2226563 0,-0.1875 -0.140625,-0.2695312 -0.2929687,-0.2695312 -0.1054688,0 -0.2578125,0.058594 -0.3515625,0.1992187 -0.023437,0.058594 -0.09375,0.3632813 -0.140625,0.5390625 -0.070312,0.2578125 -0.140625,0.5273438 -0.1992188,0.796875 l -0.4453125,1.79296878 c -0.035156,0.15234375 -0.46875,0.85546875 -1.125,0.85546875 -0.5039062,0 -0.6210937,-0.4453125 -0.6210937,-0.80859375 0,-0.45703128 0.1757812,-1.07812498 0.515625,-1.95703128 0.1523437,-0.4101562 0.1992187,-0.515625 0.1992187,-0.7148437 0,-0.4453125 -0.328125,-0.8203125 -0.8203125,-0.8203125 -0.94921874,0 -1.31249999,1.453125 -1.31249999,1.5351562 0,0.1054688 0.09375,0.1054688 0.1171875,0.1054688 0.09375,0 0.10546875,-0.023437 0.15234375,-0.1875 0.26953125,-0.9375 0.66796874,-1.2304688 1.00781254,-1.2304688 0.082031,0 0.2578125,0 0.2578125,0.3164063 0,0.2460937 -0.1054688,0.515625 -0.1757813,0.703125 -0.3984375,1.0546875 -0.5742187,1.6171875 -0.5742187,2.0859375 0,0.89062498 0.6210937,1.18359373 1.21875,1.18359373 0.3867187,0 0.7265625,-0.1640625 0.9960937,-0.4453125 -0.1289062,0.515625 -0.2460937,1.0078125 -0.6445312,1.53515627 -0.2578125,0.3398437 -0.6328125,0.6328125 -1.0898438,0.6328125 -0.140625,0 -0.59765624,-0.035156 -0.76171874,-0.421875 0.1640625,0 0.29296874,0 0.43359374,-0.1171875 0.09375,-0.09375 0.1992188,-0.2226563 0.1992188,-0.41015627 0,-0.31640625 -0.2695313,-0.3515625 -0.375,-0.3515625 -0.22265629,0 -0.55078129,0.1640625 -0.55078129,0.64453127 0,0.5039062 0.43359375,0.8671875 1.05468749,0.8671875 1.0195313,0 2.0507813,-0.9023438 2.3320313,-2.02734377 z m 0,0"
         style="display:inline;fill:#d9d9d9;fill-opacity:1;fill-rule:nonzero;stroke:none"
         aria-label="y"
         transform="matrix(1.3333333,0,0,1.3333333,116.405,11.79593)" />
      <path
         id="psi"
         d="m 4.8057891,-6.6562266 c 0.011719,-0.035156 0.023437,-0.09375 0.023437,-0.1523437 0,-0.09375 -0.070312,-0.1054688 -0.1171875,-0.1054688 -0.09375,0 -0.1054688,0.023437 -0.1523438,0.1992188 l -1.6523437,6.58593749 c -0.75,-0.09375 -1.1367188,-0.45703125 -1.1367188,-1.11328129 0,-0.1992187 0,-0.4570312 0.5390625,-1.8515625 0.046875,-0.1289062 0.1171875,-0.2929687 0.1171875,-0.4921875 0,-0.4453125 -0.328125,-0.8203125 -0.8203125,-0.8203125 -0.94921874,0 -1.31249999,1.453125 -1.31249999,1.5351563 0,0.1054687 0.09375,0.1054687 0.1171875,0.1054687 0.09375,0 0.10546875,-0.023437 0.15234375,-0.1875 0.26953125,-0.9375 0.66796874,-1.2304687 1.00781254,-1.2304687 0.082031,0 0.2578125,0 0.2578125,0.3164062 0,0.2578125 -0.1054688,0.515625 -0.234375,0.8554688 -0.4804688,1.2539062 -0.4804688,1.5117187 -0.4804688,1.6875 0,0.94921874 0.7851563,1.35937499 1.734375,1.41796874 -0.082031,0.3515625 -0.082031,0.375 -0.2226562,0.90234375 C 2.6026641,1.1015859 2.4034453,1.9101797 2.4034453,1.9453359 c 0,0.011719 0,0.09375 0.1171875,0.09375 0.023437,0 0.070312,0 0.09375,-0.035156 0.023437,-0.023437 0.082031,-0.2695313 0.1171875,-0.4101563 l 0.375,-1.48828121 c 0.375,0 1.2421875,0 2.1796875,-1.06640625 0.4101563,-0.45703124 0.6210938,-0.89062504 0.7265625,-1.19531254 0.09375,-0.2460937 0.3164063,-1.1132812 0.3164063,-1.546875 0,-0.5625 -0.2695313,-0.703125 -0.4453125,-0.703125 -0.2460938,0 -0.4921875,0.2578125 -0.4921875,0.4804688 0,0.1289062 0.058594,0.1875 0.1523437,0.2695312 0.1054688,0.1054688 0.3515625,0.3632813 0.3515625,0.84375 0,0.6445313 -0.515625,1.453125 -0.8671875,1.81640629 -0.8789062,0.890625 -1.5117187,0.890625 -1.875,0.890625 z m 0,0"
         style="display:inline;fill:#d9d9d9;fill-opacity:1;fill-rule:nonzero;stroke:none"
         aria-label="ψ"
         transform="matrix(1.3333333,0,0,1.3333333,206.061,78.621263)" />
      <path
         id="doa_arc"
         d="m 56.69362,0 c 0,9.94923 -2.6212,19.73065 -7.36627,27.94992"
         style="display:inline;fill:none;stroke:#d9d9d9;stroke-width:0.3985;stroke-linecap:butt;stroke-linejoin:miter;stroke-miterlimit:10;stroke-dasharray:none;stroke-opacity:1"
         transform="matrix(1.3333333,0,0,-1.3333333,128.353,95.606596)" />
      <path
         id="doa_arrow"
         d="M -1.19551,1.59401 C -1.09587,0.99626 0,0.09961 0.29886,0 0,-0.09961 -1.09587,-0.99626 -1.19551,-1.59401"
         style="display:inline;fill:none;stroke:#d9d9d9;stroke-width:0.31879;stroke-linecap:round;stroke-linejoin:round;stroke-miterlimit:10;stroke-dasharray:none;stroke-opacity:1"
         transform="matrix(-0.6666,-1.15472,-1.15472,0.6666,194.1228,58.340063)" />
    </g>
  </g>
</svg>
