<?xml version="1.0" encoding="UTF-8" standalone="no"?>
<!-- Created with Inkscape (http://www.inkscape.org/) -->

<svg
   version="1.1"
   id="svg1"
   width="183.63629"
   height="145.16406"
   viewBox="0 0 183.6363 145.16406"
   xmlns="http://www.w3.org/2000/svg"
   xmlns:svg="http://www.w3.org/2000/svg">
  <defs
     id="defs1">
    <clipPath
       clipPathUnits="userSpaceOnUse"
       id="clipPath468">
      <path
         d="m 6.05615,-81.17044 h 96.89864 v 61.46912 H 6.05615 Z"
         id="path468" />
    </clipPath>
  </defs>
  <g
     id="g444"
     transform="translate(-3055.8168,-4.0429694)">
    <path
       id="path445"
       d="m 12.11232,-81.17044 v 61.46912 m 12.11234,-61.46912 v 61.46912 m 12.11232,-61.46912 v 61.46912 m 12.11233,-61.46912 v 61.46912 m 12.11232,-61.46912 v 61.46912 m 12.11234,-61.46912 v 61.46912 m 12.11232,-61.46912 v 61.46912 m 12.11233,-61.46912 v 61.46912"
       style="fill:none;stroke:#bfbfbf;stroke-width:0.3985;stroke-linecap:butt;stroke-linejoin:miter;stroke-miterlimit:10;stroke-dasharray:none;stroke-opacity:1"
       transform="matrix(1.3333333,0,0,-1.3333333,3102.18,2.672)" />
    <path
       id="path446"
       d="m 6.05615,-81.17044 h 96.89864 M 6.05615,-69.57466 h 96.89864 M 6.05615,-57.97888 h 96.89864 M 6.05615,-46.3831 h 96.89864 M 6.05615,-34.78732 h 96.89864 M 6.05615,-23.19154 h 96.89864"
       style="fill:none;stroke:#bfbfbf;stroke-width:0.3985;stroke-linecap:butt;stroke-linejoin:miter;stroke-miterlimit:10;stroke-dasharray:none;stroke-opacity:1"
       transform="matrix(1.3333333,0,0,-1.3333333,3102.18,2.672)" />
    <path
       id="path447"
       d="m 12.11232,-83.29645 v 4.25203 m 12.11234,-4.25203 v 4.25203 m 12.11232,-4.25203 v 4.25203 m 12.11233,-4.25203 v 4.25203 m 12.11232,-4.25203 v 4.25203 m 12.11234,-4.25203 v 4.25203 m 12.11232,-4.25203 v 4.25203 m 12.11233,-4.25203 v 4.25203"
       style="fill:none;stroke:#808080;stroke-width:0.19925;stroke-linecap:butt;stroke-linejoin:miter;stroke-miterlimit:10;stroke-dasharray:none;stroke-opacity:1"
       transform="matrix(1.3333333,0,0,-1.3333333,3102.18,2.672)" />
    <path
       id="path448"
       d="m 4.63844,-81.17044 h 2.83541 m -2.83541,3.49068 h 2.83541 m -2.83541,2.04196 h 2.83541 m -2.83541,1.44871 h 2.83541 m -2.83541,1.12375 h 2.83541 m -2.83541,0.9182 h 2.83541 m -2.83541,0.77628 h 2.83541 m -2.83541,0.67245 h 2.83541 m -2.83541,0.59315 h 2.83541 m -2.83541,0.5306 h 2.83541 m -2.83541,3.49068 h 2.83541 m -2.83541,2.04194 h 2.83541 m -2.83541,1.44874 h 2.83541 m -2.83541,1.12374 h 2.83541 m -2.83541,0.9182 h 2.83541 m -2.83541,0.77627 h 2.83541 m -2.83541,0.67246 h 2.83541 m -2.83541,0.59315 h 2.83541 m -2.83541,0.5306 h 2.83541 m -2.83541,3.49068 h 2.83541 m -2.83541,2.04194 h 2.83541 m -2.83541,1.44873 h 2.83541 m -2.83541,1.12375 h 2.83541 m -2.83541,0.9182 h 2.83541 m -2.83541,0.77628 h 2.83541 m -2.83541,0.67243 h 2.83541 m -2.83541,0.59317 h 2.83541 m -2.83541,0.5306 h 2.83541 m -2.83541,3.49067 h 2.83541 m -2.83541,2.04195 h 2.83541 m -2.83541,1.44873 H 7.47385 M 4.63844,-38.278 h 2.83541 m -2.83541,0.9182 h 2.83541 m -2.83541,0.77627 h 2.83541 m -2.83541,0.67246 h 2.83541 m -2.83541,0.59314 h 2.83541 m -2.83541,0.53061 h 2.83541 m -2.83541,3.49067 h 2.83541 m -2.83541,2.04195 h 2.83541 m -2.83541,1.44873 h 2.83541 m -2.83541,1.12375 h 2.83541 m -2.83541,0.9182 h 2.83541 m -2.83541,0.77627 h 2.83541 m -2.83541,0.67246 h 2.83541 m -2.83541,0.59314 h 2.83541"
       style="fill:none;stroke:#808080;stroke-width:0.19925;stroke-linecap:butt;stroke-linejoin:miter;stroke-miterlimit:10;stroke-dasharray:none;stroke-opacity:1"
       transform="matrix(1.3333333,0,0,-1.3333333,3102.18,2.672)" />
    <path
       id="path449"
       d="M 3.92982,-81.17044 H 8.18248 M 3.92982,-69.57466 H 8.18248 M 3.92982,-57.97888 H 8.18248 M 3.92982,-46.3831 h 4.25266 m -4.25266,11.59578 h 4.25266 m -4.25266,11.59578 h 4.25266"
       style="fill:none;stroke:#808080;stroke-width:0.19925;stroke-linecap:butt;stroke-linejoin:miter;stroke-miterlimit:10;stroke-dasharray:none;stroke-opacity:1"
       transform="matrix(1.3333333,0,0,-1.3333333,3102.18,2.672)" />
    <path
       id="path450"
       d="m 6.05615,-81.17044 h 94.00942"
       style="fill:none;stroke:#c3c3c3;stroke-width:0.99628;stroke-linecap:butt;stroke-linejoin:miter;stroke-miterlimit:10;stroke-dasharray:none;stroke-opacity:1"
       transform="matrix(1.3333333,0,0,-1.3333333,3102.18,2.672)" />
    <path
       id="path451"
       d="M 2.8892,0 -1.73352,2.31136 0,0 -1.73352,-2.31136"
       style="fill:#c3c3c3;fill-opacity:1;fill-rule:nonzero;stroke:none"
       transform="matrix(1.3333333,0,0,-1.3333333,3235.6008,110.89925)" />
    <path
       id="path452"
       d="m 6.05615,-81.17044 v 58.57989"
       style="fill:none;stroke:#c3c3c3;stroke-width:0.99628;stroke-linecap:butt;stroke-linejoin:miter;stroke-miterlimit:10;stroke-dasharray:none;stroke-opacity:1"
       transform="matrix(1.3333333,0,0,-1.3333333,3102.18,2.672)" />
    <path
       id="path453"
       d="M 2.8892,0 -1.73352,2.31136 0,0 -1.73352,-2.31136"
       style="fill:#c3c3c3;fill-opacity:1;fill-rule:nonzero;stroke:none"
       transform="matrix(0,-1.3333333,-1.3333333,0,3110.2549,32.792733)" />
    <path
       id="path454"
       d="m 2.9295938,-6.3758906 c 0,-0.234375 0,-0.2578125 -0.234375,-0.2578125 -0.609375,0.6328125 -1.4882813,0.6328125 -1.80468755,0.6328125 v 0.3164062 c 0.19921875,0 0.78515625,0 1.30078125,-0.2578125 v 5.15625002 c 0,0.3515625 -0.035156,0.48046875 -0.9257812,0.48046875 H 0.949125 V -8.90625e-4 C 1.3006875,-0.03604688 2.1561563,-0.03604688 2.5545938,-0.03604688 c 0.3984375,0 1.265625,0 1.6171875,0.035156255 V -0.30557813 H 3.855375 c -0.9023437,0 -0.9257812,-0.1171875 -0.9257812,-0.48046875 z m 6.6328125,3.1875 c 0,-0.796875 -0.046875,-1.59375 -0.3984375,-2.3320313 -0.4570313,-0.9609375 -1.2773438,-1.1132812 -1.6875,-1.1132812 -0.5976563,0 -1.3359375,0.2578125 -1.734375,1.1835937 -0.328125,0.6914063 -0.375,1.4648438 -0.375,2.2617188 0,0.75 0.046875,1.640625 0.4453125,2.40234372 0.4335937,0.80859375 1.1601562,1.0078125 1.6523437,1.0078125 0.5390625,0 1.2890625,-0.2109375 1.734375,-1.16015625 C 9.5155313,-1.6297969 9.5624063,-2.4032344 9.5624063,-3.1883906 Z M 7.46475,-8.90625e-4 c -0.3867187,0 -0.984375,-0.246093755 -1.1601562,-1.207031275 C 6.199125,-1.8055781 6.199125,-2.7196406 6.199125,-3.3055781 c 0,-0.6445313 0,-1.3007813 0.082031,-1.8398438 0.1875,-1.1835937 0.9257812,-1.265625 1.1835937,-1.265625 0.328125,0 0.984375,0.1757813 1.171875,1.1601563 0.09375,0.5625 0.09375,1.3125 0.09375,1.9453125 0,0.75 0,1.4179687 -0.1054687,2.0625 C 8.4725625,-0.30557813 7.9100625,-8.90625e-4 7.46475,-8.90625e-4 Z m 0,0"
       style="fill:#d9d9d9;fill-opacity:1;fill-rule:nonzero;stroke:none"
       aria-label="10"
       transform="matrix(1.3333333,0,0,1.3333333,3111.688,127.384)" />
    <path
       id="path455"
       d="m 2.8930938,-3.5047969 c 0.8085937,-0.2695312 1.3945312,-0.9726562 1.3945312,-1.7578125 0,-0.8203125 -0.8789062,-1.3710937 -1.8398437,-1.3710937 -1.0078125,0 -1.75781255,0.5976562 -1.75781255,1.3476562 0,0.3398438 0.2109375,0.5273438 0.50390625,0.5273438 0.3046875,0 0.5039063,-0.2226563 0.5039063,-0.515625 0,-0.4921875 -0.46875,-0.4921875 -0.609375,-0.4921875 0.3046875,-0.4921875 0.9609375,-0.6210938 1.3242187,-0.6210938 0.4101563,0 0.9492188,0.2226563 0.9492188,1.1132813 0,0.1289062 -0.011719,0.703125 -0.2695313,1.1367187 -0.3046875,0.4804688 -0.6445312,0.515625 -0.890625,0.515625 -0.082031,0.011719 -0.3164062,0.035156 -0.3867187,0.035156 -0.082031,0.011719 -0.1523438,0.023437 -0.1523438,0.1171875 0,0.1171875 0.070312,0.1171875 0.234375,0.1171875 h 0.4453125 c 0.8085938,0 1.1835938,0.6679687 1.1835938,1.6523437 0,1.34765627 -0.6914063,1.64062502 -1.125,1.64062502 -0.4335938,0 -1.171875,-0.17578125 -1.52343755,-0.76171875 0.35156255,0.0585938 0.65625005,-0.1640625 0.65625005,-0.53906247 0,-0.3632813 -0.2695313,-0.5625 -0.56250005,-0.5625 -0.234375,0 -0.55078125,0.140625 -0.55078125,0.5742187 0,0.91406252 0.9257813,1.57031252 2.0039063,1.57031252 1.21875,0 2.1210937,-0.9140625 2.1210937,-1.92187502 0,-0.8203125 -0.6210937,-1.59375 -1.6523437,-1.8046872 z m 6.6708984,0.3164063 c 0,-0.796875 -0.046875,-1.59375 -0.3984375,-2.3320313 -0.4570313,-0.9609375 -1.2773438,-1.1132812 -1.6875,-1.1132812 -0.5976563,0 -1.3359375,0.2578125 -1.734375,1.1835937 -0.328125,0.6914063 -0.375,1.4648438 -0.375,2.2617188 0,0.75 0.046875,1.640625 0.4453125,2.40234372 0.4335937,0.80859375 1.1601562,1.0078125 1.6523437,1.0078125 0.5390625,0 1.2890625,-0.2109375 1.734375,-1.16015625 C 9.5171172,-1.6297969 9.5639922,-2.4032344 9.5639922,-3.1883906 Z M 7.4663359,-8.90625e-4 c -0.3867187,0 -0.984375,-0.246093755 -1.1601562,-1.207031275 -0.1054688,-0.5976562 -0.1054688,-1.5117187 -0.1054688,-2.0976562 0,-0.6445313 0,-1.3007813 0.082031,-1.8398438 0.1875,-1.1835937 0.9257812,-1.265625 1.1835937,-1.265625 0.328125,0 0.984375,0.1757813 1.171875,1.1601563 0.09375,0.5625 0.09375,1.3125 0.09375,1.9453125 0,0.75 0,1.4179687 -0.1054687,2.0625 -0.1523438,0.93749997 -0.7148438,1.242187475 -1.160156,1.242187475 z m 0,0"
       style="fill:#d9d9d9;fill-opacity:1;fill-rule:nonzero;stroke:none"
       aria-label="30"
       transform="matrix(1.3333333,0,0,1.3333333,3143.9867,127.384)" />
    <path
       id="path456"
       d="m 4.4757109,-2.0047969 c 0,-1.1835937 -0.8203125,-2.1796875 -1.8984375,-2.1796875 -0.4804687,0 -0.9023437,0.1640625 -1.265625,0.5039063 v -1.9335938 c 0.1992188,0.058594 0.5273438,0.1289063 0.84375,0.1289063 1.2304688,0 1.9335938,-0.9140625 1.9335938,-1.0429688 0,-0.058594 -0.035156,-0.1054687 -0.1054688,-0.1054687 -0.011719,0 -0.035156,0 -0.082031,0.023437 -0.1992188,0.09375 -0.6796875,0.2929687 -1.3476563,0.2929687 -0.3984375,0 -0.8554687,-0.070312 -1.3242187,-0.28125 -0.082031,-0.023437 -0.1054688,-0.023437 -0.1289063,-0.023437 -0.09375,0 -0.09375,0.082031 -0.09375,0.234375 v 2.953125 c 0,0.1757813 0,0.2578125 0.140625,0.2578125 0.070312,0 0.082031,-0.035156 0.1289063,-0.09375 0.1054687,-0.1523437 0.4804687,-0.6914062 1.2773437,-0.6914062 0.5273438,0 0.7734375,0.4570312 0.8554688,0.6328125 0.1523437,0.375 0.1757812,0.7617187 0.1757812,1.2539062 0,0.3515625 0,0.9492188 -0.234375,1.37109377 -0.2460937,0.38671875 -0.609375,0.64453125 -1.0664062,0.64453125 -0.7265625,0 -1.30078126,-0.52734375 -1.46484376,-1.11328122 0.0234375,0.011719 0.0585938,0.011719 0.1640625,0.011719 0.32812496,0 0.50390626,-0.2460937 0.50390626,-0.4804687 0,-0.2460938 -0.1757813,-0.4921875 -0.50390626,-0.4921875 -0.140625,0 -0.48046875,0.070312 -0.48046875,0.5273437 0,0.85546877 0.67968751,1.82812502 1.79296871,1.82812502 1.1601563,0 2.1796875,-0.9609375 2.1796873,-2.22656282 z m 5.0888672,-1.1835937 c 0,-0.796875 -0.046875,-1.59375 -0.3984375,-2.3320313 -0.4570312,-0.9609375 -1.2773437,-1.1132812 -1.6875,-1.1132812 -0.5976562,0 -1.3359375,0.2578125 -1.734375,1.1835937 -0.328125,0.6914063 -0.375,1.4648438 -0.375,2.2617188 0,0.75 0.046875,1.640625 0.4453125,2.40234372 0.4335938,0.80859375 1.1601563,1.0078125 1.6523438,1.0078125 0.5390625,0 1.2890625,-0.2109375 1.734375,-1.16015625 C 9.5177031,-1.6297969 9.5645781,-2.4032344 9.5645781,-3.1883906 Z M 7.4669219,-8.90625e-4 c -0.3867188,0 -0.984375,-0.246093755 -1.1601563,-1.207031275 -0.1054687,-0.5976562 -0.1054687,-1.5117187 -0.1054687,-2.0976562 0,-0.6445313 0,-1.3007813 0.082031,-1.8398438 0.1875,-1.1835937 0.9257813,-1.265625 1.1835938,-1.265625 0.328125,0 0.984375,0.1757813 1.171875,1.1601563 0.09375,0.5625 0.09375,1.3125 0.09375,1.9453125 0,0.75 0,1.4179687 -0.1054688,2.0625 -0.1523437,0.93749997 -0.7148437,1.242187475 -1.160156,1.242187475 z m 0,0"
       style="fill:#d9d9d9;fill-opacity:1;fill-rule:nonzero;stroke:none"
       aria-label="50"
       transform="matrix(1.3333333,0,0,1.3333333,3176.2867,127.384)" />
    <path
       id="path457"
       d="m 4.7468281,-6.0712031 c 0.082031,-0.1171875 0.082031,-0.140625 0.082031,-0.3398438 H 2.4147969 c -1.21875,0 -1.2421875,-0.1289062 -1.2773438,-0.328125 H 0.89135938 l -0.328125,2.0507813 h 0.24609375 c 0.0234375,-0.1523438 0.1171875,-0.7851563 0.24609377,-0.9023438 0.070312,-0.058594 0.84375,-0.058594 0.9726562,-0.058594 h 2.0625 c -0.1054687,0.1640625 -0.890625,1.2421875 -1.1132812,1.5703125 -0.890625,1.3476562 -1.21875,2.7304687 -1.21875,3.74999997 0,0.09375 0,0.55078125 0.4570312,0.55078125 0.4570313,0 0.4570313,-0.45703125 0.4570313,-0.55078125 v -0.50390625 c 0,-0.55078122 0.023437,-1.10156252 0.1054687,-1.64062502 0.046875,-0.2226562 0.1757813,-1.078125 0.6210938,-1.6992187 z m 4.8164063,2.8828125 c 0,-0.796875 -0.046875,-1.59375 -0.3984375,-2.3320313 -0.4570313,-0.9609375 -1.2773438,-1.1132812 -1.6875,-1.1132812 -0.5976563,0 -1.3359375,0.2578125 -1.734375,1.1835937 -0.328125,0.6914063 -0.375,1.4648438 -0.375,2.2617188 0,0.75 0.046875,1.640625 0.4453125,2.40234372 0.4335937,0.80859375 1.1601562,1.0078125 1.6523437,1.0078125 0.5390625,0 1.2890625,-0.2109375 1.734375,-1.16015625 C 9.5163594,-1.6297969 9.5632344,-2.4032344 9.5632344,-3.1883906 Z M 7.4655781,-8.90625e-4 c -0.3867187,0 -0.984375,-0.246093755 -1.1601562,-1.207031275 -0.1054688,-0.5976562 -0.1054688,-1.5117187 -0.1054688,-2.0976562 0,-0.6445313 0,-1.3007813 0.082031,-1.8398438 0.1875,-1.1835937 0.9257812,-1.265625 1.1835937,-1.265625 0.328125,0 0.984375,0.1757813 1.171875,1.1601563 0.09375,0.5625 0.09375,1.3125 0.09375,1.9453125 0,0.75 0,1.4179687 -0.1054687,2.0625 -0.1523438,0.93749997 -0.7148438,1.242187475 -1.160156,1.242187475 z m 0,0"
       style="fill:#d9d9d9;fill-opacity:1;fill-rule:nonzero;stroke:none"
       aria-label="70"
       transform="matrix(1.3333333,0,0,1.3333333,3208.5853,127.384)" />
    <g
       id="g457"
       aria-label="10&#10;−6"
       transform="matrix(1.3333333,0,0,1.3333333,3074.7827,100.84267)">
      <path
         id="path458"
         d="m 2.9289063,-6.3741875 c 0,-0.234375 0,-0.2578125 -0.234375,-0.2578125 -0.609375,0.6328125 -1.4882813,0.6328125 -1.80468755,0.6328125 v 0.3164062 c 0.19921875,0 0.78515625,0 1.30078125,-0.2578125 v 5.15625005 c 0,0.3515625 -0.035156,0.48046875 -0.9257812,0.48046875 H 0.9484375 V 8.125e-4 C 1.3,-0.03434375 2.1554688,-0.03434375 2.5539063,-0.03434375 c 0.3984375,0 1.265625,0 1.6171875,0.03515625 V -0.303875 H 3.8546875 c -0.9023437,0 -0.9257812,-0.1171875 -0.9257812,-0.48046875 z m 6.6357421,3.1875 c 0,-0.796875 -0.046875,-1.59375 -0.3984375,-2.3320313 C 8.7091797,-6.4796563 7.8888672,-6.632 7.4787109,-6.632 c -0.5976562,0 -1.3359375,0.2578125 -1.734375,1.1835937 -0.328125,0.6914063 -0.375,1.4648438 -0.375,2.2617188 0,0.75 0.046875,1.640625 0.4453125,2.40234375 0.4335938,0.80859375 1.1601563,1.0078125 1.6523438,1.0078125 0.5390625,0 1.2890625,-0.2109375 1.734375,-1.16015625 0.3164062,-0.6914063 0.3632812,-1.4648438 0.3632812,-2.25 z m -2.0976562,3.1875 c -0.3867188,0 -0.984375,-0.24609375 -1.1601563,-1.2070313 C 6.2013672,-1.803875 6.2013672,-2.7179375 6.2013672,-3.303875 c 0,-0.6445313 0,-1.3007813 0.082031,-1.8398438 0.1875,-1.1835937 0.9257813,-1.265625 1.1835938,-1.265625 0.328125,0 0.984375,0.1757813 1.171875,1.1601563 0.09375,0.5625 0.09375,1.3125 0.09375,1.9453125 0,0.75 0,1.4179687 -0.1054688,2.0625 -0.1523437,0.9375 -0.7148437,1.2421875 -1.160156,1.2421875 z m 0,0"
         style="fill:#d9d9d9;fill-opacity:1;fill-rule:nonzero;stroke:none" />
      <path
         id="path459"
         d="m 15.154492,-5.1847344 c 0.105469,0 0.269531,0 0.269531,-0.1757812 0,-0.1757813 -0.152343,-0.1757813 -0.269531,-0.1757813 h -4.160156 c -0.105469,0 -0.28125,0 -0.28125,0.1757813 0,0.1757812 0.164062,0.1757812 0.28125,0.1757812 z m 0,0"
         style="fill:#d9d9d9;fill-opacity:1;fill-rule:nonzero;stroke:none" />
      <path
         id="path460"
         d="m 17.231641,-5.8995781 c 0,-0.5625 0.04687,-1.078125 0.316406,-1.5117188 0.234375,-0.375 0.609375,-0.6328125 1.054687,-0.6328125 0.210938,0 0.492188,0.058594 0.632813,0.2460938 -0.175781,0.011719 -0.316406,0.1289062 -0.316406,0.3398437 0,0.1640625 0.117187,0.328125 0.328125,0.328125 0.199218,0 0.328125,-0.140625 0.328125,-0.3515625 0,-0.3984375 -0.292969,-0.7617187 -0.984375,-0.7617187 -0.996094,0 -2.027344,0.9140625 -2.027344,2.4140625 0,1.8046875 0.855469,2.3554687 1.617187,2.3554687 0.855469,0 1.59375,-0.6445312 1.59375,-1.5585937 0,-0.890625 -0.703125,-1.546875 -1.523437,-1.546875 -0.550781,0 -0.867188,0.375 -1.019531,0.6796875 z m 0.949218,2.203125 c -0.351562,0 -0.621093,-0.1992188 -0.761718,-0.515625 -0.105469,-0.1992188 -0.164063,-0.5507813 -0.164063,-0.9726563 0,-0.6796875 0.410156,-1.1953125 0.960938,-1.1953125 0.328125,0 0.539062,0.1171875 0.714843,0.3867188 0.164063,0.2578125 0.175782,0.5507812 0.175782,0.9609375 0,0.3984375 0,0.6914062 -0.1875,0.9609375 -0.175782,0.2460937 -0.398438,0.375 -0.738282,0.375 z m 0,0"
         style="fill:#d9d9d9;fill-opacity:1;fill-rule:nonzero;stroke:none" />
    </g>
    <g
       id="g460"
       aria-label="10&#10;−4"
       transform="matrix(1.3333333,0,0,1.3333333,3074.7827,69.921333)">
      <path
         id="path461"
         d="m 2.9289063,-6.3745938 c 0,-0.234375 0,-0.2578125 -0.234375,-0.2578125 -0.609375,0.6328125 -1.4882813,0.6328125 -1.80468755,0.6328125 v 0.3164063 c 0.19921875,0 0.78515625,0 1.30078125,-0.2578125 v 5.15625 c 0,0.3515625 -0.035156,0.48046875 -0.9257812,0.48046875 H 0.9484375 V 4.0625e-4 C 1.3,-0.03475 2.1554688,-0.03475 2.5539063,-0.03475 c 0.3984375,0 1.265625,0 1.6171875,0.03515625 v -0.3046875 H 3.8546875 c -0.9023437,0 -0.9257812,-0.1171875 -0.9257812,-0.48046875 z m 6.6357421,3.1875 c 0,-0.796875 -0.046875,-1.59375 -0.3984375,-2.3320312 -0.4570312,-0.9609375 -1.2773437,-1.1132813 -1.6875,-1.1132813 -0.5976562,0 -1.3359375,0.2578125 -1.734375,1.1835938 -0.328125,0.6914062 -0.375,1.4648437 -0.375,2.2617187 0,0.75 0.046875,1.640625 0.4453125,2.4023438 0.4335938,0.80859375 1.1601563,1.0078125 1.6523438,1.0078125 0.5390625,0 1.2890625,-0.2109375 1.734375,-1.16015625 C 9.5177734,-1.6285 9.5646484,-2.4019375 9.5646484,-3.1870938 Z M 7.4669922,4.0625e-4 c -0.3867188,0 -0.984375,-0.24609375 -1.1601563,-1.20703125 -0.1054687,-0.5976563 -0.1054687,-1.5117188 -0.1054687,-2.0976563 0,-0.6445312 0,-1.3007812 0.082031,-1.8398437 0.1875,-1.1835938 0.9257813,-1.265625 1.1835938,-1.265625 0.328125,0 0.984375,0.1757812 1.171875,1.1601562 0.09375,0.5625 0.09375,1.3125 0.09375,1.9453125 0,0.75 0,1.4179688 -0.1054688,2.0625 C 8.4748047,-0.30428125 7.9123047,4.0625e-4 7.4669922,4.0625e-4 Z m 0,0"
         style="fill:#d9d9d9;fill-opacity:1;fill-rule:nonzero;stroke:none" />
      <path
         id="path462"
         d="m 15.154492,-5.1851406 c 0.105469,0 0.269531,0 0.269531,-0.1757813 0,-0.1757812 -0.152343,-0.1757812 -0.269531,-0.1757812 h -4.160156 c -0.105469,0 -0.28125,0 -0.28125,0.1757812 0,0.1757813 0.164062,0.1757813 0.28125,0.1757813 z m 0,0"
         style="fill:#d9d9d9;fill-opacity:1;fill-rule:nonzero;stroke:none" />
      <path
         id="path463"
         d="m 19.880078,-4.7632656 v -0.2460938 h -0.773437 v -3.1054687 c 0,-0.1523438 0,-0.1992188 -0.152344,-0.1992188 -0.09375,0 -0.117188,0 -0.1875,0.09375 l -2.308594,3.2109375 v 0.2460938 h 2.050781 v 0.5742187 c 0,0.234375 0,0.328125 -0.5625,0.328125 h -0.1875 v 0.2460938 c 0.351563,-0.011719 0.796875,-0.023437 1.042969,-0.023437 0.257813,0 0.703125,0.011719 1.054688,0.023437 v -0.2460938 h -0.1875 c -0.5625,0 -0.5625,-0.09375 -0.5625,-0.328125 v -0.5742187 z m -1.324219,-2.8007813 v 2.5546875 h -1.839843 z m 0,0"
         style="fill:#d9d9d9;fill-opacity:1;fill-rule:nonzero;stroke:none" />
    </g>
    <g
       id="g463"
       aria-label="10&#10;−2"
       transform="matrix(1.3333333,0,0,1.3333333,3074.7827,39)">
      <path
         id="path464"
         d="m 2.9289063,-6.375 c 0,-0.234375 0,-0.2578125 -0.234375,-0.2578125 C 2.0851563,-6 1.20625,-6 0.88984375,-6 v 0.3164062 c 0.19921875,0 0.78515625,0 1.30078125,-0.2578125 v 5.15625005 c 0,0.3515625 -0.035156,0.48046875 -0.9257812,0.48046875 H 0.9484375 V 0 C 1.3,-0.03515625 2.1554688,-0.03515625 2.5539063,-0.03515625 c 0.3984375,0 1.265625,0 1.6171875,0.03515625 V -0.3046875 H 3.8546875 c -0.9023437,0 -0.9257812,-0.1171875 -0.9257812,-0.48046875 z m 6.6357421,3.1875 c 0,-0.796875 -0.046875,-1.59375 -0.3984375,-2.3320313 -0.4570312,-0.9609375 -1.2773437,-1.1132812 -1.6875,-1.1132812 -0.5976562,0 -1.3359375,0.2578125 -1.734375,1.1835937 -0.328125,0.6914063 -0.375,1.4648438 -0.375,2.2617188 0,0.75 0.046875,1.640625 0.4453125,2.40234375 0.4335938,0.80859375 1.1601563,1.0078125 1.6523438,1.0078125 0.5390625,0 1.2890625,-0.2109375 1.734375,-1.16015625 0.3164062,-0.6914063 0.3632812,-1.4648438 0.3632812,-2.25 z M 7.4669922,0 C 7.0802734,0 6.4826172,-0.24609375 6.3068359,-1.2070313 6.2013672,-1.8046875 6.2013672,-2.71875 6.2013672,-3.3046875 c 0,-0.6445313 0,-1.3007813 0.082031,-1.8398438 0.1875,-1.1835937 0.9257813,-1.265625 1.1835938,-1.265625 0.328125,0 0.984375,0.1757813 1.171875,1.1601563 0.09375,0.5625 0.09375,1.3125 0.09375,1.9453125 0,0.75 0,1.4179687 -0.1054688,2.0625 C 8.4748047,-0.3046875 7.9123047,0 7.4669922,0 Z m 0,0"
         style="fill:#d9d9d9;fill-opacity:1;fill-rule:nonzero;stroke:none" />
      <path
         id="path465"
         d="m 15.154492,-5.1855469 c 0.105469,0 0.269531,0 0.269531,-0.1757812 0,-0.1757813 -0.152343,-0.1757813 -0.269531,-0.1757813 h -4.160156 c -0.105469,0 -0.28125,0 -0.28125,0.1757813 0,0.1757812 0.164062,0.1757812 0.28125,0.1757812 z m 0,0"
         style="fill:#d9d9d9;fill-opacity:1;fill-rule:nonzero;stroke:none" />
      <path
         id="path466"
         d="m 19.704297,-4.8808594 h -0.234375 c -0.02344,0.1523438 -0.08203,0.5625 -0.175781,0.6328125 -0.05859,0.035156 -0.597657,0.035156 -0.691407,0.035156 h -1.289062 c 0.738281,-0.6445313 0.984375,-0.84375 1.394531,-1.171875 0.515625,-0.4101563 0.996094,-0.84375 0.996094,-1.5 0,-0.84375 -0.738281,-1.359375 -1.628906,-1.359375 -0.867188,0 -1.453125,0.609375 -1.453125,1.2421875 0,0.3632812 0.304687,0.3984375 0.375,0.3984375 0.164062,0 0.375,-0.1171875 0.375,-0.375 0,-0.1289063 -0.05859,-0.3632813 -0.421875,-0.3632813 0.222656,-0.5039062 0.691406,-0.65625 1.019531,-0.65625 0.703125,0 1.066406,0.5507813 1.066406,1.1132813 0,0.609375 -0.433594,1.0898437 -0.65625,1.3359375 l -1.6875,1.6640625 c -0.07031,0.058594 -0.07031,0.070312 -0.07031,0.2695312 h 2.882812 z m 0,0"
         style="fill:#d9d9d9;fill-opacity:1;fill-rule:nonzero;stroke:none" />
    </g>
    <path
       id="path467"
       d="m 0,-13.80193 c 0,0 0.28954,0.98249 0.65062,-3.86029 0.3611,-4.84277 0.28955,-8.08465 0.65065,-13.5914 0.36108,-5.50674 0.28955,-3.34182 0.65063,-6.25303 0.3611,-2.91121 0.28957,-2.61364 0.65065,-4.23798 0.3611,-1.62434 0.28955,-0.64339 0.65065,-1.61561 0.36109,-0.97223 0.28954,-0.84804 0.65062,-1.88797 0.3611,-1.03992 0.28955,-0.81629 0.65065,-1.85959 0.3611,-1.04332 0.28954,-1.29436 0.65064,-1.90018 0.36109,-0.6058 0.28956,0.412 0.65065,-0.28302 0.3611,-0.69501 0.28955,-1.42952 0.65065,-2.2216 0.3611,-0.79209 0.28953,0.06634 0.65063,-0.6328 0.36109,-0.69916 0.28956,-1.91048 0.65064,-1.88674 0.3611,0.02374 0.28955,1.30108 0.65065,1.97226 0.3611,0.67118 0.28953,0.03684 0.65063,0.44645 0.36109,0.40962 0.28957,0.85067 0.65065,1.02971 0.3611,0.17902 0.28955,-1.14896 0.65065,-0.38453 0.36109,0.76444 0.28954,1.33304 0.65064,3.13927 0.36108,1.80624 0.28955,1.47449 0.65063,3.3698 0.3611,1.89531 0.28954,1.57727 0.65064,3.46025 0.36108,1.88296 0.28955,1.61438 0.65065,3.32538 0.36108,1.711 0.28956,1.38115 0.65065,2.84051 0.3611,1.45935 0.28953,1.23659 0.65063,2.41855 0.36109,1.18198 0.28955,0.85315 0.65064,1.84085 0.3611,0.9877 0.28956,0.90056 0.65065,1.71852 0.3611,0.81798 0.28953,1.12677 0.65063,1.22919 0.36108,0.10243 0.28955,0.59778 0.65064,-0.86003 0.3611,-1.45781 0.28954,-1.8201 0.65064,-4.39342 0.3611,-2.57332 0.28956,-2.86591 0.65066,-4.87993 0.36108,-2.01402 0.28954,-1.17883 0.65063,-2.37789 0.3611,-1.19909 0.28954,-0.94436 0.65064,-1.94315 0.3611,-0.99878 0.28955,-1.39023 0.65065,-1.65619 0.36108,-0.26596 0.28956,0.69403 0.65065,0.69772 0.3611,0.0037 0.28953,-0.7932 0.65063,-0.68436 0.3611,0.10883 0.28955,0.04101 0.65065,1.07658 0.36109,1.03558 0.28954,1.14047 0.65062,2.65531 0.3611,1.51485 0.28955,1.74219 0.65065,2.8037 0.36108,1.06151 0.28955,0.51677 0.65065,1.02164 0.36108,0.50486 0.28955,1.30397 0.65064,0.79779 0.36109,-0.50618 0.28955,-0.7887 0.65065,-2.62191 0.36108,-1.8332 0.28955,-2.00952 0.65065,-3.98437 0.36108,-1.97487 0.28953,-1.09357 0.65061,-3.13237 0.3611,-2.03882 0.28956,-3.90531 0.65065,-4.21485 0.36109,-0.30954 0.28954,1.68477 0.65062,3.09932 0.3611,1.41454 0.28959,1.81568 0.65067,1.99824 0.3611,0.18254 0.28955,-0.54903 0.65065,-1.34038 0.36108,-0.79135 0.28953,-0.02392 0.65062,-1.51143 0.3611,-1.48752 0.28955,-1.73549 0.65065,-3.84908 0.3611,-2.1136 0.28955,-3.42557 0.65065,-3.76762 0.36108,-0.34204 0.28953,1.70218 0.65062,2.53499 0.3611,0.83279 0.28956,1.18806 0.65066,0.46612 0.3611,-0.72192 0.28955,-2.4354 0.65065,-3.06772 0.36109,-0.63231 0.28954,0.56374 0.65062,0.78908 0.3611,0.22536 0.28956,0.3392 0.65066,0.02307 0.3611,-0.31614 0.28953,-1.01093 0.65063,-1.16233 0.36108,-0.1514 0.28957,0.53228 0.65065,0.61666 0.3611,0.0844 0.28955,0.02288 0.65065,-0.31251 0.36108,-0.33539 0.28953,0.05601 0.65063,-0.89615 0.36109,-0.95215 0.28955,-2.15433 0.65064,-2.53514 0.3611,-0.3808 0.28953,0.04446 0.65063,1.16281 0.36109,1.11833 0.28955,1.83122 0.65065,2.86731 0.36109,1.0361 0.28957,0.57278 0.65065,0.86641 0.3611,0.29362 0.28954,0.37097 0.65064,0.19173 0.36108,-0.17925 0.28955,-0.24241 0.65063,-0.83768 0.3611,-0.59526 0.28957,-0.50896 0.65065,-1.30747 0.3611,-0.79852 0.28954,-0.2442 0.65064,-1.57014 0.36108,-1.32594 0.28955,-2.82743 0.65063,-3.20813 0.3611,-0.38071 0.28957,1.23062 0.65067,1.83617 0.3611,0.60554 0.28953,0.73979 0.65063,0.34602 0.36108,-0.39375 0.28955,-0.46184 0.65064,-1.765 0.3611,-1.30318 0.28953,-1.31865 0.65063,-2.9312 0.3611,-1.61253 0.28955,-1.11607 0.65065,-2.87984 0.36109,-1.76376 0.28955,-3.24775 0.65064,-3.47615 0.3611,-0.22839 0.28955,1.77864 0.65065,2.65308 0.3611,0.87445 0.28955,0.42307 0.65065,0.49817 0.36108,0.07512 0.28955,-0.11479 0.65063,-0.22745 0.3611,-0.11265 0.28954,-0.64963 0.65064,-0.17857 0.36108,0.47104 0.28955,1.80481 0.65065,1.87611 0.36108,0.07132 0.28953,-1.8945 0.65062,-1.61908 0.36109,0.27541 0.28956,1.30136 0.65066,2.61159 0.36108,1.31023 0.28955,1.76514 0.65065,2.11003 0.36108,0.34491 0.28954,-0.25087 0.65062,-0.8671 0.3611,-0.61622 0.28955,-0.70848 0.65065,-1.35358 0.36108,-0.64512 0.28954,-0.51028 0.65062,-0.97123 0.3611,-0.46095 0.28958,-0.41853 0.65066,-0.68989 0.3611,-0.27135 0.28956,0.59262 0.65065,-0.288 0.36109,-0.88063 0.28954,-2.77055 0.65062,-2.88547 0.3611,-0.1149 0.28957,1.30373 0.65065,2.47135 0.3611,1.16762 0.28956,1.1929 0.65065,1.73636 0.36109,0.54345 0.28954,0.75749 0.65062,0.22206 0.3611,-0.53542 0.28957,-1.60143 0.65067,-2.1516 0.3611,-0.55015 0.28955,0.32927 0.65065,0.16898 0.36108,-0.1603 0.28953,-0.65538 0.65062,-0.7466 0.3611,-0.09122 0.28955,0.24441 0.65065,0.41788 0.3611,0.17344 0.28954,0.45298 0.65064,0.20723 0.36108,-0.24576 0.28954,-0.81078 0.65063,-1.09287 0.3611,-0.28207 0.28957,-0.0035 0.65067,0.07631 0.36108,0.07982 0.28953,0.60574 0.65063,0.21139 0.36108,-0.39434 0.28955,-1.28042 0.65063,-1.63252 0.3611,-0.35209 0.28955,1.01017 0.65065,0.3637 0.36109,-0.64649 0.28954,-1.7997 0.65064,-2.69344 0.36108,-0.89372 0.28955,-0.89671 0.65063,-0.52728 0.3611,0.36941 0.28957,1.26904 0.65067,1.8586 0.36108,0.58956 0.28953,1.18493 0.65062,0.26602 0.3611,-0.91892 0.28956,-3.70067 0.65065,-3.5775 0.3611,0.12318 0.28953,2.59691 0.65063,4.02142 0.36109,1.42453 0.28955,1.0031 0.65064,1.11208 0.3611,0.10897 0.28958,-0.13739 0.65066,-0.71933 0.3611,-0.58193 0.28954,-1.42606 0.65064,-1.3778 0.36108,0.04827 0.28955,0.85256 0.65063,1.55178 0.3611,0.6992 0.28954,0.99292 0.65064,0.968 0.3611,-0.02492 0.28954,-0.09012 0.65064,-1.05783 0.36109,-0.96771 0.28956,-2.24403 0.65064,-2.42947 0.3611,-0.18546 0.28955,0.91363 0.65065,1.76115 0.3611,0.84753 0.28955,0.85026 0.65065,1.29306 0.36109,0.44278 0.28955,0.29553 0.65064,0.30261 0.3611,0.0071 0.28953,-0.18764 0.65063,-0.27711 0.36109,-0.08947 0.28955,0.14599 0.65065,-0.04532 0.36109,-0.19133 0.28954,-0.495 0.65062,-0.64412 0.3611,-0.14911 0.28957,1.09836 0.65067,0.10673 0.36108,-0.99162 0.28955,-3.02377 0.65065,-3.68025 0.36108,-0.65646 0.28953,0.99492 0.65062,1.31458 0.36109,0.31964 0.28955,0.3518 0.65065,-0.16262 0.36108,-0.51442 0.28955,-0.0042 0.65063,-1.69122 0.3611,-1.68698 0.28955,-4.14484 0.65063,-4.38806 0.3611,-0.24321 0.28957,1.72449 0.65067,3.51157 0.36108,1.78709 0.28955,1.79156 0.65063,2.92849 0.3611,1.13694 0.28956,0.96302 0.65064,1.16864 0.3611,0.20562 0.28955,-0.46289 0.65065,-0.42762 0.36108,0.03524 0.28954,0.71164 0.65062,0.55471 0.3611,-0.15693 0.28955,-0.61935 0.65065,-1.1203 0.3611,-0.50095 0.28957,-0.26742 0.65066,-0.68496 0.36109,-0.41754 0.28954,-0.65093 0.65062,-0.81969 0.3611,-0.16878 0.28955,0.7854 0.65065,0.21147 0.3611,-0.57394 0.28954,-1.58511 0.65064,-2.27978 0.36108,-0.69468 0.28955,-0.32076 0.65064,-0.22362 0.3611,0.09713 0.28956,0.41621 0.65066,0.57371 0.36108,0.15752 0.28954,0.76159 0.65064,-0.0061 0.36108,-0.76765 0.28954,-2.42407 0.65063,-2.76028 0.3611,-0.33622 0.28955,1.37647 0.65065,1.5487 0.36108,0.17221 0.28953,-1.17801 0.65063,-0.92803 0.36109,0.24996 0.28955,1.29545 0.65064,1.82887 0.3611,0.53341 0.28956,-0.16094 0.65066,0.09343 0.36109,0.25436 0.28954,0.54806 0.65062,0.8232 0.3611,0.27517 0.28957,-0.11105 0.65065,0.16839 0.3611,0.27945 0.28954,1.26832 0.65064,0.83867 0.36108,-0.42966 0.28955,-2.15085 0.65063,-2.387 0.3611,-0.23613 0.28957,0.66658 0.65065,1.53603 0.3611,0.86944 0.28955,1.02945 0.65065,1.59718 0.36109,0.56773 0.28955,0.47664 0.65064,0.44876 0.3611,-0.02787 0.28955,-0.33105 0.65065,-0.54927 0.3611,-0.21823 0.28953,0.5286 0.65063,-0.23713 0.36109,-0.76575 0.28955,-1.87391 0.65063,-2.52239 0.3611,-0.64847 0.28954,0.03156 0.65064,0.1855 0.3611,0.15395 0.28956,-0.09562 0.65066,0.36933 0.36109,0.46493 0.28956,0.91999 0.65064,1.30616 0.3611,0.38616 0.28954,-0.0527 0.65064,0.08545 0.36108,0.13816 0.28955,0.30721 0.65065,0.41243 0.36108,0.10523 0.28953,0.14572 0.65062,-0.0332 0.3611,-0.17893 0.28955,0.19855 0.65065,-0.61159 0.36108,-0.81015 0.28956,-2.10082 0.65066,-2.30792 0.36109,-0.20711 0.28954,1.19542 0.65062,1.56154 0.3611,0.3661 0.28955,0.08471 0.65065,-0.2422 0.36108,-0.32692 0.28955,-0.72516 0.65064,-0.93596 0.36109,-0.2108 0.28955,-0.64118 0.65063,0.17628 0.3611,0.81746 0.28957,2.40407 0.65067,2.76958 0.36108,0.36549 0.28955,-1.49715 0.65063,-1.45242 0.3611,0.04472 0.28955,0.78352 0.65064,1.61363 0.36109,0.83011 0.28955,1.52725 0.65065,1.37781 0.36108,-0.14946 0.28953,-0.52584 0.65061,-1.9164 0.3611,-1.39056 0.28956,-2.64397 0.65065,-3.09477 0.3611,-0.45081 0.28957,0.83661 0.65067,1.47023 0.36108,0.63362 0.28954,0.21699 0.65062,0.81315 0.3611,0.59616 0.28955,1.18404 0.65065,1.33523 0.3611,0.1512 0.28955,-0.53184 0.65065,-0.79034 0.36108,-0.25848 0.28953,-0.53776 0.65062,-0.14123 0.3611,0.39653 0.28955,0.77859 0.65065,1.5702 0.36109,0.79161 0.28956,0.82647 0.65066,1.28252 0.36109,0.45605 0.28954,0.26398 0.65063,0.36101 0.3611,0.09703 0.28954,0.50712 0.65064,-0.01129 0.36109,-0.51842 0.28954,-1.00931 0.65064,-1.85692 0.36108,-0.8476 0.28955,-1.30173 0.65063,-1.19759 0.3611,0.10413 0.28954,0.72412 0.65064,1.57289 0.36108,0.84879 0.28956,1.8891 0.65065,1.48585 0.3611,-0.40328 0.28956,-2.45212 0.65065,-2.93911 0.3611,-0.48697 0.28953,0.61223 0.65063,1.18416 0.36109,0.57193 0.28955,0.84775 0.65064,0.87694 0.3611,0.02917 0.28956,-0.44893 0.65065,-0.77173 0.3611,-0.32282 0.28955,-0.43251 0.65065,-0.39162 0.36108,0.0409 0.28955,0.87714 0.65063,0.53899 0.3611,-0.33813 0.28955,-1.45423 0.65065,-1.75756 0.3611,-0.30332 0.28954,0.12533 0.65064,0.66446 0.36108,0.53914 0.28955,1.32862 0.65063,1.27845 0.3611,-0.05018 0.28953,-0.31338 0.65063,-1.45926 0.3611,-1.14588 0.28957,-2.39174 0.65067,-2.67014 0.36109,-0.27838 0.28955,1.34821 0.65063,1.66689 0.3611,0.31868 0.28954,0.08955 0.65064,-0.51847 0.36109,-0.60801 0.28955,-1.30476 0.65065,-1.67263 0.36109,-0.36788 0.28955,-0.62688 0.65064,0.34693 0.3611,0.9738 0.28953,2.03193 0.65063,3.16233 0.36109,1.1304 0.28957,1.06671 0.65067,0.91128 0.36108,-0.15542 0.28955,-0.27731 0.65063,-1.4714 0.3611,-1.19408 0.28954,-2.41246 0.65064,-2.83167 0.36108,-0.4192 0.28955,0.50995 0.65063,1.32094 0.3611,0.81101 0.28955,1.1088 0.65064,1.60164 0.36109,0.49286 0.28955,-0.13372 0.65065,0.17444 0.36108,0.30815 0.28956,0.48833 0.65065,0.9361 0.36109,0.44778 0.28955,0.94226 0.65063,0.67752 0.3611,-0.26474 0.28955,-1.27753 0.65065,-1.6316 0.36108,-0.35406 0.28954,0.41612 0.65062,0.35562 0.3611,-0.0605 0.28955,-0.62882 0.65065,-0.57371 0.3611,0.05513 0.28955,0.68999 0.65065,0.77235 0.36108,0.08237 0.28955,0.52274 0.65063,-0.47549 0.3611,-0.99825 0.28956,-2.84979 0.65065,-3.12184 0.3611,-0.27204 0.28955,0.86983 0.65065,2.14148 0.36109,1.27163 0.28954,2.62219 0.65062,2.44114 0.3611,-0.18104 0.28955,-1.29795 0.65065,-3.09355 0.3611,-1.79561 0.28957,-1.95405 0.65067,-3.37718 0.36108,-1.42314 0.28954,-1.38228 0.65062,-1.75133 0.3611,-0.36906 0.28955,0.27755 0.65065,0.42133 0.36109,0.1438 0.28953,-0.35268 0.65063,0.09691 0.36109,0.44959 0.28956,0.35832 0.65064,1.52325 0.3611,1.16492 0.28955,1.22714 0.65065,2.67474 0.36108,1.44762 0.28955,1.50033 0.65063,2.54198 0.3611,1.04166 0.28957,0.8713 0.65065,1.21182 0.3611,0.34055 0.28955,0.89498 0.65065,0.01537 0.36109,-0.87959 0.28954,-2.15948 0.65062,-3.18515 0.3611,-1.02565 0.28957,-0.62533 0.65065,-0.511 0.3611,0.11433 0.28954,0.63953 0.65064,0.92305 0.36108,0.28351 0.28956,-0.21262 0.65065,0.09865 0.3611,0.31128 0.28955,1.14578 0.65065,1.0231 0.3611,-0.12268 0.28953,-0.0022 0.65063,-1.46524 0.36109,-1.46306 0.28955,-2.88912 0.65064,-3.80713 0.3611,-0.91801 0.28955,-0.17493 0.65065,0.49887 0.3611,0.6738 0.28953,0.88913 0.65063,1.92929 0.36108,1.04018 0.28957,0.98436 0.65065,1.81912 0.3611,0.83475 0.28953,1.40006 0.65063,1.18907 0.3611,-0.211 0.28956,-1.28253 0.65066,-1.94944 0.36108,-0.66692 0.28955,-0.98366 0.65063,-0.45392 0.3611,0.52976 0.28954,2.61018 0.65064,2.36294 0.36108,-0.24725 0.28957,-2.54868 0.65066,-3.25393 0.36109,-0.70523 0.28955,-0.0067 0.65064,0.71249 0.3611,0.71921 0.28953,2.12468 0.65063,1.87929 0.36109,-0.24539 0.28955,-1.96269 0.65064,-2.7636 0.3611,-0.80091 0.28955,-0.57988 0.65063,-0.12263 0.3611,0.45724 0.28955,1.4705 0.65065,1.77038 0.36108,0.29989 0.28957,-0.4071 0.65065,-0.68974 0.3611,-0.28264 0.28955,-0.2169 0.65064,-0.32883 0.36109,-0.11191 0.28955,0.14165 0.65065,-0.07452 0.36108,-0.21617 0.28955,-0.36554 0.65063,-0.70449 0.3611,-0.33897 0.28954,-0.47346 0.65064,-0.517 0.36109,-0.04355 0.28955,-0.02907 0.65065,0.36001 0.36108,0.38907 0.28956,-0.34674 0.65065,1.04213 0.36109,1.38889 0.28953,2.74094 0.65063,3.96296 0.3611,1.22204 0.28955,1.41947 0.65065,0.44085 0.36108,-0.97862 0.28953,-3.16286 0.65062,-3.96749 0.3611,-0.80462 0.28955,0.25338 0.65065,1.06789 0.3611,0.81453 0.28955,1.5685 0.65065,1.86737 0.36108,0.29888 0.28955,-0.03912 0.65063,-0.79034 0.3611,-0.75122 0.28956,-1.36576 0.65065,-1.91684 0.36109,-0.55109 0.28956,-0.42125 0.65065,-0.06909 0.36109,0.35214 0.28954,1.07188 0.65062,1.33815 0.3611,0.26626 0.28956,0.04228 0.65066,-0.3786 0.36108,-0.42089 0.28953,-0.5589 0.65061,-1.13814 0.3611,-0.57923 0.28959,-1.18076 0.65067,-0.94924 0.3611,0.23152 0.28955,1.15836 0.65065,1.7836 0.36108,0.62525 0.28953,-0.0625 0.65062,0.46959 0.3611,0.53209 0.28956,0.77404 0.65065,1.44788 0.3611,0.67384 0.28953,0.87816 0.65063,0.98044 0.36109,0.10227 0.28957,-0.22672 0.65065,-0.61182 0.3611,-0.3851 0.28955,-1.61446 0.65065,-0.77597 0.3611,0.8385 0.28954,2.74742 0.65064,3.79767 0.36108,1.05025 0.28955,0.7023 0.65063,-0.01291 0.3611,-0.71521 0.28955,-1.08951 0.65065,-2.56448 0.3611,-1.47496 0.28954,-1.53437 0.65064,-2.75083 0.36108,-1.21646 0.28956,-1.02189 0.65065,-1.63292 0.3611,-0.61102 0.28955,-0.67197 0.65065,-0.56903 0.3611,0.10296 0.28953,0.88484 0.65063,0.94003 0.36108,0.05521 0.28955,-0.91589 0.65064,-0.74107 0.3611,0.1748 0.28954,1.33673 0.65063,1.37103 0.36109,0.03429 0.28955,-0.91483 0.65065,-1.2474 0.36109,-0.33255 0.28957,-0.75464 0.65065,0.04895 0.3611,0.8036 0.28954,2.00374 0.65064,2.84697 0.36108,0.84325 0.28955,0.46187 0.65063,0.1918 0.3611,-0.27006 0.28957,-1.12402 0.65065,-1.16502 0.3611,-0.041 0.28954,0.63977 0.65064,1.01724 0.36108,0.37749 0.28955,0.52774 0.65063,0.34311 0.3611,-0.18463 0.28958,-0.20566 0.65067,-1.00848 0.3611,-0.80282 0.28953,-1.59048 0.65063,-1.88459 0.36108,-0.29411 0.28955,0.41562 0.65064,0.82469 0.36109,0.40908 0.28953,0.55945 0.65063,0.64948 0.3611,0.09002 0.28955,0.49797 0.65065,-0.32506 0.36108,-0.82302 0.28957,-1.81123 0.65065,-2.64087 0.3611,-0.82963 0.28954,-0.70436 0.65064,-0.34886 0.36109,0.3555 0.28955,0.62801 0.65065,1.62999 0.36108,1.002 0.28953,1.36113 0.65061,1.98086 0.3611,0.61974 0.28955,0.64586 0.65065,0.25251 0.3611,-0.39335 0.28956,-0.97617 0.65065,-1.67003 0.36109,-0.69385 0.28955,-0.94226 0.65064,-0.83035 0.3611,0.11189 0.28955,0.75552 0.65065,1.23364 0.36108,0.47812 0.28955,0.44961 0.65065,0.48933 0.36108,0.03972 0.28954,-1.04652 0.65062,-0.34617 0.3611,0.70033 0.28955,2.03262 0.65065,2.87001 0.36108,0.83738 0.28954,-0.45046 0.65064,0.14769 0.36108,0.59813 0.28956,0.37419 0.65064,2.00783 0.3611,1.63363 0.28956,3.08303 0.65066,3.87927 0.36108,0.79623 0.28953,0.03193 0.65061,-1.00987 0.3611,-1.04181 0.28957,-1.35021 0.65065,-2.74447 0.3611,-1.39424 0.28955,-2.0592 0.65065,-2.27992 0.36109,-0.22071 0.28954,0.62291 0.65062,1.48453 0.3611,0.86162 0.28957,1.57463 0.65067,1.62046 0.3611,0.04584 0.28955,-0.69071 0.65065,-1.45524 0.36108,-0.76454 0.28953,-0.7749 0.65062,-1.29988 0.3611,-0.52499 0.28955,-0.3075 0.65065,-0.59201 0.3611,-0.28452 0.28953,-0.4364 0.65063,-0.43332 0.36109,0.0031 0.28955,0.81058 0.65064,0.44446 0.3611,-0.36612 0.28956,-0.40259 0.65066,-1.76386 0.3611,-1.36125 0.28954,-2.14734 0.65064,-3.14165 0.36108,-0.99432 0.28955,-0.18809 0.65063,-0.44154 0.3611,-0.25345 0.28954,-0.15746 0.65064,-0.47181 0.36108,-0.31437 0.28955,-0.95478 0.65064,-0.66109 0.36109,0.29368 0.28957,0.41527 0.65066,1.71945 0.3611,1.30419 0.28954,1.97999 0.65063,2.98036 0.36109,1.00037 0.28955,1.08319 0.65065,0.62465 0.36109,-0.45854 0.28956,-1.92953 0.65064,-2.27708 0.3611,-0.34755 0.28953,-0.5595 0.65063,1.02462 0.36109,1.58413 0.28955,3.21433 0.65064,4.68406 0.3611,1.46972 0.28958,0.8258 0.65066,0.61236 0.3611,-0.21345 0.28954,-1.04571 0.65064,-1.38158 0.36108,-0.33586 0.28955,0.66391 0.65063,0.17121 0.3611,-0.49269 0.28954,-1.05144 0.65064,-1.94673 0.36109,-0.8953 0.28955,-0.9215 0.65065,-1.2796 0.36108,-0.3581 0.28955,0.66348 0.65063,-0.01091 0.3611,-0.6744 0.28955,-1.67402 0.65065,-2.41939 0.3611,-0.74539 0.28955,-0.20574 0.65065,-0.26674 0.36108,-0.06101 0.28955,0.65892 0.65064,0.04687 0.36109,-0.61204 0.28953,-1.64361 0.65063,-2.2525 0.3611,-0.60889 0.28955,-0.48437 0.65065,0.05826 0.36108,0.54263 0.28954,0.62546 0.65062,1.89725 0.3611,1.2718 0.28956,2.09112 0.65066,2.68589 0.36109,0.59479 0.28956,0.22773 0.65065,-0.54251 0.36109,-0.77021 0.28954,-1.54664 0.65062,-2.23314 0.3611,-0.68649 0.28956,-0.2021 0.65065,-0.24075 0.36109,-0.03863 0.28954,0.19035 0.65064,0.10144 0.36108,-0.08891 0.28955,-0.37923 0.65064,-0.42186 0.3611,-0.04265 0.28956,0.18517 0.65066,0.26817 0.36108,0.08301 0.28954,-0.54809 0.65062,0.03096 0.3611,0.57906 0.28956,1.28765 0.65065,2.05579 0.3611,0.76814 0.28955,0.91675 0.65065,0.71233 0.36108,-0.20442 0.28953,-1.21041 0.65062,-1.44902 0.3611,-0.23861 0.28956,-0.26096 0.65066,0.58915 0.3611,0.85012 0.28955,1.49305 0.65065,2.47435 0.36109,0.98131 0.28954,0.94007 0.65062,1.06197 0.3611,0.1219 0.28955,-0.50589 0.65065,-0.62267 0.3611,-0.11676 0.28954,0.63538 0.65064,0.20188 0.36108,-0.4335 0.28955,-1.19414 0.65063,-1.76409 0.3611,-0.56994 0.28957,-0.23947 0.65067,-0.28985 0.3611,-0.05039 0.28953,0.52891 0.65063,0.10827 0.36109,-0.42063 0.28955,-1.44451 0.65064,-1.62416 0.3611,-0.17964 0.28955,0.62282 0.65065,0.97676 0.36108,0.35395 0.28953,0.41726 0.65063,0.29877 0.36109,-0.11848 0.28955,-0.355 0.65063,-0.72578 0.3611,-0.37081 0.28957,-0.06322 0.65067,-0.61045 0.36109,-0.54722 0.28954,-1.21472 0.65063,-1.36157 0.36109,-0.14686 0.28956,-0.02637 0.65064,0.83235 0.3611,0.85871 0.28954,1.93129 0.65064,2.2622 0.36108,0.3309 0.28955,0.07972 0.65063,-1.06974 0.3611,-1.14947 0.28955,-2.45437 0.65064,-3.07258 0.3611,-0.6182 0.28956,0.21087 0.65066,0.84474 0.36109,0.63386 0.28955,0.96417 0.65064,1.43951 0.3611,0.47533 0.28953,0.44628 0.65063,0.27349 0.3611,-0.17281 0.28955,-0.61669 0.65065,-0.89624 0.36108,-0.27955 0.28955,-0.37746 0.65064,-0.11119 0.3611,0.26628 0.28955,0.89308 0.65065,1.07081 0.3611,0.17775 0.28955,-0.68471 0.65065,-0.43024 0.36108,0.25446 0.28955,1.12513 0.65063,1.34729 0.3611,0.22216 0.28954,0.31559 0.65064,-0.54667 0.36109,-0.86225 0.28955,-2.45401 0.65065,-2.56063 0.36108,-0.10661 0.28953,1.08986 0.65061,2.17643 0.3611,1.08654 0.28957,1.5551 0.65067,1.73918 0.36108,0.18408 0.28955,-0.75916 0.65065,-1.07581 0.36108,-0.31663 0.28954,0.17298 0.65062,-0.0653 0.3611,-0.23829 0.28955,-0.65903 0.65065,-0.79342 0.36108,-0.13437 0.28955,-0.48048 0.65065,0.30915 0.36108,0.78961 0.28954,1.94444 0.65062,2.53643 0.3611,0.59198 0.28957,0.45893 0.65066,-0.40312 0.36109,-0.86204 0.28956,-1.27223 0.65064,-2.70341 0.3611,-1.43117 0.28955,-1.74428 0.65064,-2.45407 0.3611,-0.70978 0.28954,-0.15152 0.65064,-0.10373 0.36109,0.04777 0.28954,0.0552 0.65062,0.27594 0.3611,0.22073 0.28957,-0.12248 0.65065,0.51954 0.3611,0.64203 0.28957,1.37156 0.65067,1.79413 0.36108,0.42256 0.28953,0.38991 0.65062,-0.27133 0.3611,-0.66124 0.28955,-2.16986 0.65065,-2.11157 0.3611,0.05829 0.28953,1.23991 0.65063,2.32167 0.36109,1.08174 0.28955,1.75532 0.65064,1.57657 0.3611,-0.17874 0.28955,-1.34555 0.65065,-2.22077 0.3611,-0.8752 0.28955,-0.78236 0.65065,-0.93318 0.36108,-0.15082 0.28955,0.87552 0.65063,0.38967 0.3611,-0.48586 0.28955,-1.55857 0.65065,-2.14052 0.36109,-0.58198 0.28954,0.13076 0.65064,0.04333 0.36108,-0.08743 0.28955,0.02066 0.65063,-0.3584 0.3611,-0.37906 0.28957,-0.39984 0.65067,-1.00764 0.36108,-0.60782 0.28953,-0.65996 0.65063,-1.18269 0.36109,-0.52274 0.28955,-0.75812 0.65063,-0.70112 0.3611,0.05701 0.28954,-0.10415 0.65064,0.90659 0.36109,1.01073 0.28956,1.9825 0.65064,2.73576 0.3611,0.75325 0.28956,-0.10109 0.65065,-0.02128 0.3611,0.07982 0.28955,-0.14278 0.65065,0.30891 0.36108,0.45171 0.28955,1.01198 0.65063,1.31885 0.3611,0.30688 0.28957,-0.23866 0.65065,-0.21292 0.3611,0.02573 0.28954,-0.5492 0.65064,0.30568 0.36108,0.85485 0.28955,1.80668 0.65063,2.77496 0.3611,0.96828 0.28954,0.76688 0.65064,0.7144 0.3611,-0.05247 0.28956,-0.52949 0.65066,-0.90351 0.36109,-0.37401 0.28955,-0.80717 0.65064,-0.44431 0.3611,0.36285 0.28953,0.94809 0.65063,1.75195 0.3611,0.80386 0.28955,1.2058 0.65065,1.14496 0.36108,-0.06084 0.28954,-0.3307 0.65062,-1.3642 0.3611,-1.03349 0.28955,-1.45538 0.65065,-2.36015 0.36108,-0.90477 0.28957,-0.83165 0.65067,-0.90038 0.36108,-0.06871 0.28953,0.74651 0.65061,0.65271 0.3611,-0.09379 0.28956,-0.24675 0.65066,-0.99075 0.36108,-0.744 0.28954,-1.58699 0.65064,-1.69038 0.36109,-0.10338 0.28954,0.19771 0.65062,1.31778 0.3611,1.12008 0.28957,1.57368 0.65067,2.71864 0.36108,1.14494 0.28955,1.28656 0.65063,1.40738 0.3611,0.12082 0.28956,-0.34405 0.65064,-0.97192 0.3611,-0.62787 0.28955,-1.25477 0.65065,-1.29073 0.36109,-0.03597 0.28953,0.39513 0.65062,1.1611 0.3611,0.76596 0.28957,1.08362 0.65065,1.59918 0.3611,0.51557 0.28956,0.29761 0.65066,0.25873 0.36109,-0.03889 0.28954,-0.11371 0.65062,-0.39889 0.3611,-0.28517 0.28955,-0.22048 0.65065,-0.62882 0.3611,-0.40834 0.28955,-1.20929 0.65065,-0.84273 0.36109,0.36657 0.28954,1.44147 0.65062,2.16375 0.3611,0.72227 0.28955,0.7178 0.65065,0.43908 0.3611,-0.2787 0.28957,-0.5931 0.65067,-1.4435 0.36108,-0.85038 0.28953,-1.39388 0.65062,-1.621 0.3611,-0.2271 0.65065,0.80254 0.65065,0.80254"
       style="fill:none;stroke:#0072bd;stroke-width:0.99628;stroke-linecap:butt;stroke-linejoin:miter;stroke-miterlimit:10;stroke-dasharray:none;stroke-opacity:1"
       transform="matrix(1.3333333,0,0,-1.3333333,3102.18,2.672)"
       clip-path="url(#clipPath468)" />
    <path
       id="path469"
       d="M 5.8011016,-6.7722578 H 0.32844531 v 0.3046875 h 0.234375 c 0.77343749,0 0.79687499,0.1171875 0.79687499,0.46875 v 5.22656249 c 0,0.3515625 -0.023437,0.46875 -0.79687499,0.46875 h -0.234375 v 0.3046875 c 0.3515625,-0.03515625 1.12499999,-0.03515625 1.51171879,-0.03515625 0.4101562,0 1.3125,0 1.6757812,0.03515625 v -0.3046875 h -0.328125 c -0.9492187,0 -0.9492187,-0.12890625 -0.9492187,-0.48046875 V -3.2331953 h 0.8554687 c 0.9609375,0 1.0546875,0.3164062 1.0546875,1.1601562 H 4.4065703 V -4.7097578 H 4.1487578 c 0,0.8320312 -0.09375,1.1601562 -1.0546875,1.1601562 H 2.2386016 v -2.5195312 c 0,-0.328125 0.023437,-0.3984375 0.4921875,-0.3984375 h 1.1953125 c 1.4882812,0 1.7460937,0.5625 1.8984375,1.9335937 h 0.2578125 z m 1.5410156,3.46875 v -1.1015625 l -1.3828125,0.1171875 v 0.3046875 c 0.6914062,0 0.7734375,0.070312 0.7734375,0.5625 v 2.66015624 c 0,0.45703125 -0.1054688,0.45703125 -0.7734375,0.45703125 v 0.3046875 c 0.3867187,-0.01171875 0.8554687,-0.03515625 1.1367187,-0.03515625 0.3984375,0 0.8671875,0 1.265625,0.03515625 v -0.3046875 H 8.1507109 c -0.7382812,0 -0.7617187,-0.1171875 -0.7617187,-0.46875 V -2.3074141 c 0,-0.984375 0.421875,-1.875 1.1835937,-1.875 0.058594,0 0.082031,0 0.1054688,0.011719 -0.035156,0.011719 -0.234375,0.1289062 -0.234375,0.3867187 0,0.28125 0.2109375,0.4335938 0.4335937,0.4335938 0.1757813,0 0.421875,-0.1289063 0.421875,-0.4453125 0,-0.3164063 -0.3046875,-0.609375 -0.7265625,-0.609375 -0.7382812,0 -1.0898437,0.6679687 -1.2304687,1.1015623 z m 3.3515628,0.796875 c 0.05859,-1.4882813 0.902343,-1.734375 1.242187,-1.734375 1.019531,0 1.125,1.3476562 1.125,1.734375 z m -0.01172,0.2109375 h 2.789062 c 0.210938,0 0.246094,0 0.246094,-0.2109375 0,-0.984375 -0.539062,-1.9570313 -1.78125,-1.9570313 -1.160156,0 -2.0742186,1.03125 -2.0742186,2.2734375 0,1.33593754 1.0429686,2.29687504 2.1914066,2.29687504 1.21875,0 1.664062,-1.1015625 1.664062,-1.28906254 0,-0.1054687 -0.08203,-0.1171875 -0.128906,-0.1171875 -0.09375,0 -0.117188,0.058594 -0.128906,0.140625 -0.351563,1.01953129 -1.253907,1.01953129 -1.347657,1.01953129 -0.503906,0 -0.902343,-0.29296875 -1.125,-0.66796875 C 10.681961,-1.2878828 10.681961,-1.9441328 10.68196,-2.2956953 Z m 7.110352,1.68749999 V 1.1730547 c 0,0.4570312 -0.105469,0.4570312 -0.773438,0.4570312 v 0.3046875 c 0.339844,-0.011719 0.855469,-0.035156 1.113281,-0.035156 0.269532,0 0.773438,0.023437 1.125,0.035156 V 1.6300859 c -0.667968,0 -0.773437,0 -0.773437,-0.4570312 v -5.578125 h -0.222656 l -0.375,0.9140625 c -0.128907,-0.28125 -0.539063,-0.9140625 -1.335938,-0.9140625 -1.160156,0 -2.203125,0.9726562 -2.203125,2.2617187 0,1.24218754 0.960938,2.25000004 2.121094,2.25000004 0.691406,0 1.101562,-0.421875 1.324219,-0.71484375 z m 0.03516,-2.14453129 v 1.3945313 c 0,0.328125 -0.1875,0.59765624 -0.398438,0.84374999 -0.128906,0.140625 -0.457031,0.41015625 -0.925781,0.41015625 -0.726562,0 -1.335937,-0.890625 -1.335937,-2.03906254 0,-1.1835937 0.703125,-2.0039062 1.441406,-2.0039062 0.796875,0 1.21875,0.8554687 1.21875,1.3945312 z m 5.329101,1.96875004 v 0.890625 L 24.59798,0.00117969 v -0.3046875 c -0.703125,0 -0.785157,-0.0703125 -0.785157,-0.5625 V -4.4050703 l -1.453125,0.1171875 v 0.3046875 c 0.691407,0 0.773438,0.070312 0.773438,0.5625 v 1.7695312 c 0,0.86718754 -0.480469,1.54687504 -1.207031,1.54687504 -0.832032,0 -0.878907,-0.46875 -0.878907,-0.99609374 v -3.3046875 l -1.464843,0.1171875 v 0.3046875 c 0.785156,0 0.785156,0.035156 0.785156,0.9140625 v 1.5 c 0,0.77343749 0,1.67578124 1.511719,1.67578124 0.550781,0 0.996093,-0.26953125 1.277343,-0.890625 z m 2.756836,-1.72265624 c 0.05859,-1.4882813 0.902344,-1.734375 1.242188,-1.734375 1.019531,0 1.125,1.3476562 1.125,1.734375 z m -0.01172,0.2109375 h 2.789062 c 0.210938,0 0.246094,0 0.246094,-0.2109375 0,-0.984375 -0.539063,-1.9570313 -1.78125,-1.9570313 -1.160156,0 -2.074219,1.03125 -2.074219,2.2734375 0,1.33593754 1.042969,2.29687504 2.191406,2.29687504 1.21875,0 1.664063,-1.1015625 1.664063,-1.28906254 0,-0.1054687 -0.08203,-0.1171875 -0.128906,-0.1171875 -0.09375,0 -0.117188,0.058594 -0.128907,0.140625 -0.351562,1.01953129 -1.253906,1.01953129 -1.347656,1.01953129 -0.503906,0 -0.902344,-0.29296875 -1.125,-0.66796875 C 25.901688,-1.2878828 25.901688,-1.9441328 25.901688,-2.2956953 Z m 4.426757,-1.125 v 2.66015624 c 0,0.45703125 -0.117187,0.45703125 -0.785156,0.45703125 v 0.3046875 c 0.351563,-0.01171875 0.855469,-0.03515625 1.125,-0.03515625 0.257813,0 0.785156,0.0234375 1.113281,0.03515625 v -0.3046875 c -0.65625,0 -0.773437,0 -0.773437,-0.45703125 V -2.5886641 c 0,-1.03125 0.714844,-1.59375 1.347656,-1.59375 0.621094,0 0.738281,0.5390625 0.738281,1.1015625 v 2.32031254 c 0,0.45703125 -0.117187,0.45703125 -0.773437,0.45703125 v 0.3046875 c 0.339844,-0.01171875 0.855469,-0.03515625 1.125,-0.03515625 0.257812,0 0.773437,0.0234375 1.113281,0.03515625 v -0.3046875 c -0.515625,0 -0.773437,0 -0.785156,-0.3046875 V -2.5066328 c 0,-0.8554688 0,-1.171875 -0.304688,-1.5234375 -0.140625,-0.1757813 -0.46875,-0.375 -1.042968,-0.375 -0.726563,0 -1.195313,0.4335937 -1.476563,1.0546875 v -1.0546875 l -1.40625,0.1171875 v 0.3046875 c 0.703125,0 0.785156,0.070312 0.785156,0.5625 z m 5.592774,1.2539062 c 0,-1.6289062 0.820312,-2.0507812 1.347656,-2.0507812 0.09375,0 0.714844,0.011719 1.066406,0.375 -0.410156,0.023437 -0.46875,0.328125 -0.46875,0.4570312 0,0.2578125 0.1875,0.4570313 0.457032,0.4570313 0.257812,0 0.457031,-0.1640625 0.457031,-0.46875 0,-0.6796875 -0.75,-1.0664063 -1.523438,-1.0664063 -1.242187,0 -2.15625,1.078125 -2.15625,2.3085938 0,1.27734374 0.984375,2.26171874 2.144532,2.26171874 1.335937,0 1.652343,-1.19531254 1.652343,-1.28906254 0,-0.1054687 -0.105468,-0.1054687 -0.128906,-0.1054687 -0.09375,0 -0.117187,0.046875 -0.128906,0.1054687 -0.292969,0.92578129 -0.9375,1.04296879 -1.3125,1.04296879 -0.527344,0 -1.40625,-0.421875 -1.40625,-2.02734379 z m 7.40625,-1.1835937 c 0.257812,-0.6210938 0.761719,-0.6328125 0.925781,-0.6328125 v -0.3046875 c -0.234375,0.011719 -0.515625,0.023437 -0.75,0.023437 -0.175781,0 -0.644531,-0.023437 -0.867187,-0.023437 v 0.3046875 c 0.304687,0.011719 0.46875,0.1757812 0.46875,0.4335937 0,0.09375 -0.01172,0.1171875 -0.05859,0.234375 l -1.007813,2.44921879 -1.101562,-2.68359379 c -0.04687,-0.09375 -0.05859,-0.140625 -0.05859,-0.1757812 0,-0.2578125 0.363281,-0.2578125 0.550781,-0.2578125 v -0.3046875 c -0.257812,0 -0.914062,0.023437 -1.078125,0.023437 -0.269531,0 -0.667968,-0.011719 -0.972656,-0.023437 v 0.3046875 c 0.480469,0 0.667969,0 0.808594,0.3515625 l 1.5,3.63281249 c -0.05859,0.12890625 -0.199219,0.45703125 -0.257813,0.5859375 -0.210937,0.55078121 -0.492187,1.24218751 -1.136718,1.24218751 -0.04687,0 -0.269532,0 -0.46875,-0.1875 C 40.139969,1.6066484 40.222,1.3839922 40.222,1.2316484 c 0,-0.26953121 -0.199219,-0.42187496 -0.421875,-0.42187496 -0.199219,0 -0.421875,0.12890625 -0.421875,0.42187496 0,0.4570313 0.421875,0.8085938 0.914063,0.8085938 0.632812,0 1.042968,-0.5625 1.277343,-1.13671876 z m 6.981445,5.8476562 V 2.0988359 h -0.972656 v -9.1757812 h 0.972656 V -7.4753828 H 48.93782 v 9.9726562 z m 6.331055,-8.5195312 c 0,-0.3632813 0.02344,-0.46875 0.785156,-0.46875 h 0.246094 v -0.3164063 c -0.351563,0.035156 -1.089844,0.035156 -1.464844,0.035156 -0.386719,0 -1.125,0 -1.476562,-0.035156 v 0.3164063 h 0.234375 c 0.773437,0 0.785156,0.1054687 0.785156,0.46875 v 2.3320312 h -2.976563 v -2.3320312 c 0,-0.3632813 0.02344,-0.46875 0.785157,-0.46875 h 0.246093 v -0.3164063 c -0.351562,0.035156 -1.089843,0.035156 -1.464843,0.035156 -0.375,0 -1.125,0 -1.476563,-0.035156 v 0.3164063 H 51.097 c 0.773438,0 0.796875,0.1054687 0.796875,0.46875 v 5.24999999 c 0,0.3515625 -0.02344,0.46875 -0.796875,0.46875 h -0.234375 v 0.3046875 c 0.351563,-0.03515625 1.089844,-0.03515625 1.464844,-0.03515625 0.375,0 1.125,0 1.476562,0.03515625 v -0.3046875 h -0.246093 c -0.761719,0 -0.785157,-0.1171875 -0.785157,-0.46875 V -3.3855391 h 2.976563 v 2.61328129 c 0,0.3515625 -0.01172,0.46875 -0.785156,0.46875 h -0.234375 v 0.3046875 c 0.351562,-0.03515625 1.089843,-0.03515625 1.464843,-0.03515625 0.375,0 1.125,0 1.476563,0.03515625 v -0.3046875 h -0.246094 c -0.761719,0 -0.785156,-0.1171875 -0.785156,-0.46875 z m 5.255859,2.0273437 c 0.08203,-0.1054687 0.08203,-0.1289062 0.08203,-0.1640625 0,-0.1289062 -0.08203,-0.1289062 -0.257812,-0.1289062 h -3.1875 l -0.105469,1.59375 h 0.246094 c 0.05859,-1.0078125 0.246094,-1.3828125 1.347656,-1.3828125 h 1.136719 l -2.789063,3.76171874 c -0.08203,0.10546875 -0.08203,0.12890625 -0.08203,0.17578125 0,0.140625 0.07031,0.140625 0.257813,0.140625 h 3.28125 l 0.175781,-1.86328129 h -0.246094 c -0.09375,1.17187504 -0.304687,1.61718754 -1.453125,1.61718754 h -1.183594 z m 2.118164,-3.4804687 h -1.359375 v 0.3984375 h 0.960938 v 9.1757812 h -0.960938 v 0.3984375 h 1.359375 z m 0,0"
       style="fill:#d9d9d9;fill-opacity:1;fill-rule:nonzero;stroke:none"
       aria-label="Frequency[Hz]"
       transform="matrix(1.3333333,0,0,1.3333333,3131.3867,145.87733)" />
    <g
       id="g469"
       aria-label="ˆ&#10;Φ(f)"
       transform="matrix(0,-1.3333333,1.3333333,0,3065.036,82.372)">
      <path
         id="path470"
         d="m 2.4967734,-6.9144141 -1.3359375,1.359375 0.1757813,0.1757813 1.1601562,-1.0195313 1.1367188,1.0195313 0.1875,-0.1757813 z m 0.3691407,8.0859375 c 1.546875,-0.1171875 2.6484375,-1.04296871 2.6484375,-2.05078121 0,-1.03124999 -1.1367188,-1.94531249 -2.6484375,-2.06249999 v -0.5507813 c 0,-0.3398437 0,-0.4804687 0.9492187,-0.4804687 h 0.328125 v -0.3164063 c -0.3632812,0.035156 -1.2773437,0.035156 -1.6875,0.035156 -0.4101562,0 -1.3359375,0 -1.68749999,-0.035156 v 0.3164063 H 1.0963828 c 0.9492188,0 0.9492188,0.1289062 0.9492188,0.4804687 v 0.5507813 c -1.52343754,0.1523437 -2.58984379,1.0664062 -2.58984379,2.05078124 0,1.03125 1.1015625,1.91015626 2.58984379,2.06249996 v 0.5625 c 0,0.3398438 0,0.4804688 -0.9492188,0.4804688 H 0.76825781 V 2.5191797 C 1.1198203,2.4840234 2.0456016,2.4840234 2.4440391,2.4840234 c 0.4101562,0 1.3359375,0 1.6992187,0.035156 V 2.2144922 h -0.328125 c -0.9492187,0 -0.9492187,-0.1289063 -0.9492187,-0.4804688 z M 2.0456016,0.94886719 c -1.41796879,-0.1875 -1.59375004,-1.20703125 -1.59375004,-1.828125 0,-0.51562499 0.09375,-1.62890629 1.59375004,-1.82812499 z M 2.8659141,-2.7191016 c 1.3710937,0.1523438 1.6523437,1.078125 1.6523437,1.82812504 0,0.59765625 -0.140625,1.6640625 -1.6523437,1.8515625 z m 6.515625,7.6289063 c 0,-0.035156 0,-0.046875 -0.1640625,-0.2226563 C 7.9752891,3.4332422 7.6471641,1.5582422 7.6471641,0.02308594 c 0,-1.72265624 0.3867187,-3.45703124 1.6054687,-4.71093754 0.1289063,-0.1171875 0.1289063,-0.1289062 0.1289063,-0.1640625 0,-0.070312 -0.035156,-0.1054687 -0.09375,-0.1054687 -0.1054688,0 -0.9960938,0.6796875 -1.5820313,1.9453125 -0.515625,1.1015625 -0.6328125,2.20312499 -0.6328125,3.03515624 0,0.78515625 0.1171875,1.99218746 0.65625,3.11718746 0.5976563,1.21875 1.453125,1.875 1.5585938,1.875 0.058594,0 0.09375,-0.035156 0.09375,-0.1054687 z m 0,0"
         style="fill:#d9d9d9;fill-opacity:1;fill-rule:nonzero;stroke:none" />
      <path
         id="path471"
         d="m 13.617867,-1.4651953 h 0.855469 c 0.199219,0 0.304687,0 0.304687,-0.1992188 0,-0.1054687 -0.105468,-0.1054687 -0.269531,-0.1054687 h -0.832031 l 0.210937,-1.1367188 c 0.03516,-0.2109375 0.175782,-0.9140625 0.234375,-1.0429687 0.09375,-0.1875 0.257813,-0.3398438 0.46875,-0.3398438 0.04687,0 0.304688,0 0.492188,0.1875 -0.433594,0.035156 -0.539063,0.3867188 -0.539063,0.5390625 0,0.2226563 0.175782,0.3398438 0.363282,0.3398438 0.269531,0 0.550781,-0.2109375 0.550781,-0.5976563 0,-0.4570312 -0.457031,-0.6796875 -0.867188,-0.6796875 -0.339843,0 -0.960937,0.1757813 -1.265625,1.1601563 -0.05859,0.2109375 -0.08203,0.3164062 -0.328125,1.5703125 h -0.679687 c -0.199219,0 -0.304688,0 -0.304688,0.1875 0,0.1171875 0.09375,0.1171875 0.28125,0.1171875 h 0.65625 l -0.75,3.9375 c -0.175781,0.9609375 -0.339843,1.875 -0.867187,1.875 -0.03516,0 -0.28125,0 -0.46875,-0.1875 0.457031,-0.023437 0.539062,-0.3867188 0.539062,-0.5390625 0,-0.2226563 -0.175781,-0.3398438 -0.363281,-0.3398438 -0.257812,0 -0.550781,0.2109375 -0.550781,0.5976563 0,0.4453125 0.433594,0.6796875 0.84375,0.6796875 0.550781,0 0.949219,-0.5859375 1.125,-0.9609375 0.328125,-0.6328125 0.550781,-1.8398438 0.5625,-1.9101563 z m 0,0"
         style="fill:#d9d9d9;fill-opacity:1;fill-rule:nonzero;stroke:none" />
      <path
         id="path472"
         d="m 18.794625,0.02308594 c 0,-0.7734375 -0.117187,-1.98046874 -0.65625,-3.10546874 -0.597656,-1.21875 -1.464844,-1.875 -1.558594,-1.875 -0.05859,0 -0.105468,0.046875 -0.105468,0.1054687 0,0.035156 0,0.046875 0.199218,0.234375 0.972657,0.984375 1.535157,2.5664063 1.535157,4.64062504 0,1.71093746 -0.363282,3.45703126 -1.59375,4.72265626 -0.140625,0.1171875 -0.140625,0.1289062 -0.140625,0.1640625 0,0.058594 0.04687,0.1054687 0.105468,0.1054687 0.09375,0 0.996094,-0.6796875 1.582032,-1.9453125 0.503906,-1.1015625 0.632812,-2.20312496 0.632812,-3.04687496 z m 0,0"
         style="fill:#d9d9d9;fill-opacity:1;fill-rule:nonzero;stroke:none" />
    </g>
    <path
       id="path473"
       d="M 4.009125,-4.1262734 2.556,-4.4309609 c -0.3984375,-0.09375 -0.9492188,-0.4335938 -0.9492188,-1.0429688 0,-0.421875 0.28125,-1.0429687 1.2773438,-1.0429687 0.796875,0 1.8046875,0.3398437 2.0273437,1.6992187 0.035156,0.234375 0.035156,0.2578125 0.2460938,0.2578125 0.2460937,0 0.2460937,-0.058594 0.2460937,-0.28125 v -1.828125 c 0,-0.1875 0,-0.2695312 -0.1875,-0.2695312 -0.070312,0 -0.082031,0 -0.1992187,0.1054687 L 4.571625,-6.3997109 c -0.5742188,-0.4570313 -1.21875,-0.5390625 -1.6992188,-0.5390625 -1.5117187,0 -2.2382812,0.9492187 -2.2382812,1.9921875 0,0.65625 0.328125,1.1132812 0.5390625,1.3242187 0.4921875,0.4921875 0.8320312,0.5625 1.921875,0.796875 0.8671875,0.1992188 1.0429687,0.2226563 1.2539062,0.4335938 0.1523438,0.1523437 0.3984375,0.4101562 0.3984375,0.8671875 0,0.4804687 -0.2578125,1.16015621 -1.2890625,1.16015621 -0.7617187,0 -2.2734375,-0.19921875 -2.3554687,-1.67578121 0,-0.1875 0,-0.234375 -0.22265625,-0.234375 -0.24609375,0 -0.24609375,0.058594 -0.24609375,0.2929687 v 1.81640626 c 0,0.1875 0,0.26953125 0.1875,0.26953125 0.0820313,0 0.10546875,-0.01171875 0.1875,-0.08203125 l 0.4570312,-0.45703125 c 0.65625,0.48046875 1.5820313,0.5390625 1.9921875,0.5390625 1.640625,0 2.2617188,-1.12500001 2.2617188,-2.13281251 0,-1.1015625 -0.8085938,-1.9101562 -1.7109375,-2.0976562 z m 4.546875,0.84375 c 0,-0.1875 0.011719,-0.1992188 0.1523437,-0.3398438 0.3984375,-0.3984375 0.9140625,-0.46875 1.1367188,-0.46875 0.6679685,0 1.2187495,0.609375 1.2187495,1.8632813 0,1.40624996 -0.691406,1.92187496 -1.3476558,1.92187496 -0.1289062,0 -0.5976562,0 -1.0546875,-0.52734375 C 8.556,-0.96221094 8.556,-0.97392969 8.556,-1.1614297 Z m 0,2.89453121 c 0.4335937,0.3515625 0.8671875,0.4453125 1.2773437,0.4453125 1.4882813,0 2.5078123,-0.890625 2.5078123,-2.28515621 0,-1.3242188 -0.902344,-2.2617188 -2.3437498,-2.2617188 -0.7382812,0 -1.2773437,0.3164063 -1.5,0.4921875 v -0.4921875 l -1.7695312,0.082031 v 0.46875 c 0.6210937,0 0.6914062,0 0.6914062,0.3867187 V 1.46357 H 6.727875 V 1.93232 C 7.009125,1.920601 7.6067812,1.897164 7.9935,1.897164 c 0.3867187,0 0.9726562,0.023437 1.2539062,0.035156 V 1.46357 H 8.556 Z m 9.099609,-1.78125001 c 0.210938,0 0.316407,0 0.316407,-0.2695312 0,-0.3164063 -0.05859,-1.0429688 -0.5625,-1.5351563 -0.363282,-0.3632812 -0.890625,-0.5390625 -1.582032,-0.5390625 -1.59375,0 -2.460937,1.0195313 -2.460937,2.2734375 0,1.33593751 0.996094,2.29687501 2.601562,2.29687501 1.570313,0 2.003907,-1.0546875 2.003907,-1.21875001 0,-0.1875 -0.1875,-0.1875 -0.234375,-0.1875 -0.175782,0 -0.199219,0.046875 -0.257813,0.2109375 -0.210937,0.48046876 -0.773437,0.79687501 -1.417969,0.79687501 -1.40625,0 -1.417968,-1.32421871 -1.417968,-1.82812501 z m -3.011718,-0.328125 c 0.02344,-0.3984375 0.03516,-0.8085937 0.234375,-1.1367187 0.269531,-0.3984375 0.667968,-0.515625 0.949218,-0.515625 1.171875,0 1.183594,1.3007812 1.195313,1.6523437 z m 7.242187,-1.5585937 c -0.175781,0.1640625 -0.199219,0.3632812 -0.199219,0.4570312 0,0.4453125 0.351563,0.6328125 0.621094,0.6328125 0.304688,0 0.621094,-0.2109375 0.621094,-0.6328125 0,-0.8554687 -1.148438,-0.9140625 -1.734375,-0.9140625 -1.78125,0 -2.519531,1.1484375 -2.519531,2.296875 0,1.32421876 0.9375,2.27343751 2.472656,2.27343751 1.617187,0 1.910156,-1.16015621 1.910156,-1.21875001 0,-0.140625 -0.140625,-0.140625 -0.234375,-0.140625 -0.175781,0 -0.1875,0.011719 -0.234375,0.140625 -0.269531,0.63281251 -0.738281,0.82031251 -1.253906,0.82031251 -1.382813,0 -1.382813,-1.46484371 -1.382813,-1.92187501 0,-0.5625 0,-1.8515625 1.289063,-1.8515625 0.351562,0 0.515625,0.023437 0.644531,0.058594 z m 2.537109,0.1054687 v 2.71875 c 0,1.06640626 0.867188,1.28906251 1.570313,1.28906251 0.75,0 1.207031,-0.5625 1.207031,-1.28906251 v -0.5273437 h -0.46875 v 0.5039062 c 0,0.67968751 -0.316406,0.91406251 -0.597656,0.91406251 -0.585938,0 -0.585938,-0.6328125 -0.585938,-0.86718751 v -2.7421875 h 1.464844 v -0.46875 h -1.464844 v -1.9101562 h -0.457031 c -0.01172,0.9960937 -0.503906,1.9804687 -1.488281,2.015625 v 0.3632812 z m 5.452149,0.5976563 v -1.1367188 l -1.664063,0.082031 v 0.46875 c 0.621094,0 0.691407,0 0.691407,0.3867187 v 3.08203126 h -0.691407 v 0.46875 c 0.351563,-0.01171875 0.796875,-0.03515625 1.265625,-0.03515625 0.375,0 1.007813,0 1.371094,0.03515625 v -0.46875 H 29.980805 V -2.2161172 c 0,-0.6914062 0.246093,-1.9101562 1.242187,-1.9101562 -0.01172,0.011719 -0.1875,0.1757812 -0.1875,0.4570312 0,0.4101563 0.316406,0.609375 0.609375,0.609375 0.292969,0 0.609375,-0.2109375 0.609375,-0.609375 0,-0.5273437 -0.539062,-0.8203125 -1.054687,-0.8203125 -0.703125,0 -1.101563,0.5039063 -1.324219,1.1367188 z m 6.416016,2.58984371 c 0,0.3046875 0,0.76171875 1.03125,0.76171875 h 0.480468 c 0.199219,0 0.316407,0 0.316407,-0.234375 0,-0.234375 -0.128907,-0.234375 -0.257813,-0.234375 -0.609375,-0.0117188 -0.609375,-0.140625 -0.609375,-0.36328125 V -2.9778359 c 0,-0.890625 -0.703125,-1.5351563 -2.191406,-1.5351563 -0.5625,0 -1.78125,0.035156 -1.78125,0.9140625 0,0.4453125 0.351562,0.6328125 0.621094,0.6328125 0.304687,0 0.621093,-0.2109375 0.621093,-0.6328125 0,-0.2929687 -0.1875,-0.46875 -0.210937,-0.4921875 0.28125,-0.058594 0.597656,-0.058594 0.714844,-0.058594 0.75,0 1.089843,0.4101562 1.089843,1.171875 v 0.3398437 c -0.703125,0.023437 -3.234375,0.1171875 -3.234375,1.5585938 0,0.96093746 1.242188,1.13671871 1.921875,1.13671871 0.796875,0 1.265625,-0.41015625 1.488282,-0.8203122 z M 36.11557,-2.3333047 v 0.9492188 c 0,0.94921871 -0.914062,1.07812496 -1.160156,1.07812496 -0.503906,0 -0.902344,-0.33984375 -0.902344,-0.78515626 0,-1.0664062 1.570313,-1.2070312 2.0625,-1.2421875 z m 4.245117,-4.5820312 -1.757812,0.082031 v 0.46875 c 0.621094,0 0.691406,0 0.691406,0.3867188 v 5.50781246 h -0.691406 v 0.46875 c 0.316406,-0.01171875 0.796875,-0.03515625 1.230469,-0.03515625 0.421875,0 0.878906,0.0234375 1.21875,0.03515625 v -0.46875 h -0.691407 z m 9.37793,4.7460937 c 0.210938,0 0.316406,0 0.316406,-0.2695312 0,-0.3164063 -0.05859,-1.0429688 -0.5625,-1.5351563 -0.363281,-0.3632812 -0.890625,-0.5390625 -1.582031,-0.5390625 -1.59375,0 -2.460937,1.0195313 -2.460937,2.2734375 0,1.33593751 0.996093,2.29687501 2.601562,2.29687501 1.570313,0 2.003906,-1.0546875 2.003906,-1.21875001 0,-0.1875 -0.1875,-0.1875 -0.234375,-0.1875 -0.175781,0 -0.199218,0.046875 -0.257812,0.2109375 -0.210938,0.48046876 -0.773438,0.79687501 -1.417969,0.79687501 -1.40625,0 -1.417969,-1.32421871 -1.417969,-1.82812501 z m -3.011719,-0.328125 c 0.02344,-0.3984375 0.03516,-0.8085937 0.234375,-1.1367187 0.269532,-0.3984375 0.667969,-0.515625 0.949219,-0.515625 1.171875,0 1.183594,1.3007812 1.195313,1.6523437 z m 5.753907,-0.4335937 c -0.363282,-0.070312 -1.007813,-0.1757813 -1.007813,-0.6445313 0,-0.6210937 0.925781,-0.6210937 1.113281,-0.6210937 0.75,0 1.125,0.2929687 1.171875,0.84375 0.01172,0.140625 0.02344,0.1992187 0.234375,0.1992187 0.234375,0 0.234375,-0.058594 0.234375,-0.28125 v -0.796875 c 0,-0.1875 0,-0.28125 -0.175781,-0.28125 -0.04687,0 -0.05859,0 -0.445312,0.1875 -0.269532,-0.1289062 -0.609375,-0.1875 -1.007813,-0.1875 -0.304687,0 -1.839844,0 -1.839844,1.3007813 0,0.3984375 0.199219,0.6679687 0.398438,0.84375 0.398437,0.3398437 0.785156,0.4101562 1.546875,0.5390625 0.363281,0.070312 1.101562,0.1992187 1.101562,0.7851562 0,0.73828126 -0.914062,0.73828126 -1.125,0.73828126 -1.066406,0 -1.324218,-0.72656246 -1.441406,-1.14843746 -0.04687,-0.140625 -0.09375,-0.140625 -0.234375,-0.140625 -0.246094,0 -0.246094,0.058594 -0.246094,0.2929687 v 1.07812501 c 0,0.1875 0,0.28125 0.1875,0.28125 0.07031,0 0.08203,0 0.292969,-0.15234375 0.01172,0 0.234375,-0.140625 0.257813,-0.1640625 0.457031,0.31640625 0.984375,0.31640625 1.183593,0.31640625 0.304688,0 1.839844,0 1.839844,-1.45312501 0,-0.4335937 -0.199219,-0.7734375 -0.550781,-1.0546875 -0.386719,-0.2929687 -0.703125,-0.3515625 -1.488281,-0.4804687 z m 3.454101,-1.0195313 v 2.71875 c 0,1.06640626 0.867188,1.28906251 1.570313,1.28906251 0.75,0 1.207031,-0.5625 1.207031,-1.28906251 V -1.7590859 H 58.2435 v 0.5039062 c 0,0.67968751 -0.316406,0.91406251 -0.597656,0.91406251 -0.585938,0 -0.585938,-0.6328125 -0.585938,-0.86718751 v -2.7421875 h 1.464844 v -0.46875 h -1.464844 v -1.9101562 h -0.457031 c -0.01172,0.9960937 -0.503906,1.9804687 -1.488281,2.015625 v 0.3632812 z m 5.648438,-0.5390625 -1.722657,0.082031 v 0.46875 c 0.585938,0 0.65625,0 0.65625,0.3867187 v 3.08203126 h -0.691406 v 0.46875 c 0.304688,-0.01171875 0.796875,-0.03515625 1.21875,-0.03515625 0.292969,0 0.808594,0.0234375 1.160156,0.03515625 v -0.46875 h -0.621093 z m 0.105468,-1.6523437 c 0,-0.4453125 -0.363281,-0.7851563 -0.773437,-0.7851563 -0.433594,0 -0.785156,0.3515625 -0.785156,0.7851563 0,0.421875 0.351562,0.7734375 0.785156,0.7734375 0.410156,0 0.773437,-0.3398438 0.773437,-0.7734375 z m 1.989258,2.5898437 v 3.08203126 h -0.691406 v 0.46875 c 0.28125,-0.01171875 0.878906,-0.03515625 1.253906,-0.03515625 0.398438,0 0.984375,0.0234375 1.253907,0.03515625 v -0.46875 H 64.814789 V -2.5559609 c 0,-1.078125 0.867188,-1.5703125 1.476563,-1.5703125 0.339843,0 0.5625,0.1992187 0.5625,0.9726562 v 2.68359376 h -0.691407 v 0.46875 c 0.28125,-0.01171875 0.878907,-0.03515625 1.265625,-0.03515625 0.386719,0 0.972657,0.0234375 1.253907,0.03515625 v -0.46875 H 67.99057 V -2.5559609 c 0,-1.078125 0.867188,-1.5703125 1.488282,-1.5703125 0.339843,0 0.550781,0.1992187 0.550781,0.9726562 v 2.68359376 h -0.679688 v 0.46875 c 0.269532,-0.01171875 0.867188,-0.03515625 1.253907,-0.03515625 0.386718,0 0.972656,0.0234375 1.253906,0.03515625 v -0.46875 H 71.166352 V -3.0481484 c 0,-1.03125 -0.503907,-1.4414063 -1.535157,-1.4414063 -0.902343,0 -1.417968,0.5039063 -1.675781,0.9609375 -0.199219,-0.9257812 -1.125,-0.9609375 -1.5,-0.9609375 -0.867187,0 -1.429687,0.4570313 -1.757812,1.078125 v -1.078125 l -1.710938,0.082031 v 0.46875 c 0.621094,0 0.691406,0 0.691406,0.386719 z m 12.134766,2.78906251 c 0,0.3046875 0,0.76171875 1.03125,0.76171875 h 0.480469 c 0.199218,0 0.316406,0 0.316406,-0.234375 0,-0.234375 -0.128906,-0.234375 -0.257813,-0.234375 -0.609375,-0.0117188 -0.609375,-0.140625 -0.609375,-0.36328125 V -2.9778359 c 0,-0.890625 -0.703125,-1.5351563 -2.191406,-1.5351563 -0.5625,0 -1.78125,0.035156 -1.78125,0.9140625 0,0.4453125 0.351563,0.6328125 0.621094,0.6328125 0.304687,0 0.621094,-0.2109375 0.621094,-0.6328125 0,-0.2929687 -0.1875,-0.46875 -0.210938,-0.4921875 0.28125,-0.058594 0.597656,-0.058594 0.714844,-0.058594 0.75,0 1.089844,0.4101562 1.089844,1.171875 v 0.3398437 c -0.703125,0.023437 -3.234375,0.1171875 -3.234375,1.5585938 0,0.96093746 1.242187,1.13671871 1.921875,1.13671871 0.796875,0 1.265625,-0.41015625 1.488281,-0.8203122 z M 75.637055,-2.3333047 v 0.9492188 c 0,0.94921871 -0.914063,1.07812496 -1.160157,1.07812496 -0.503906,0 -0.902343,-0.33984375 -0.902343,-0.78515626 0,-1.0664062 1.570312,-1.2070312 2.0625,-1.2421875 z m 3.049804,-1.6171875 v 2.71875 c 0,1.06640626 0.867188,1.28906251 1.570313,1.28906251 0.75,0 1.207031,-0.5625 1.207031,-1.28906251 v -0.5273437 h -0.46875 v 0.5039062 c 0,0.67968751 -0.316406,0.91406251 -0.597656,0.91406251 -0.585938,0 -0.585938,-0.6328125 -0.585938,-0.86718751 v -2.7421875 h 1.464844 v -0.46875 h -1.464844 v -1.9101562 h -0.457031 c -0.01172,0.9960937 -0.503906,1.9804687 -1.488281,2.015625 v 0.3632812 z m 8.030274,1.78125 c 0.210937,0 0.316406,0 0.316406,-0.2695312 0,-0.3164063 -0.05859,-1.0429688 -0.5625,-1.5351563 -0.363281,-0.3632812 -0.890625,-0.5390625 -1.582031,-0.5390625 -1.59375,0 -2.460938,1.0195313 -2.460938,2.2734375 0,1.33593751 0.996094,2.29687501 2.601563,2.29687501 1.570312,0 2.003906,-1.0546875 2.003906,-1.21875001 0,-0.1875 -0.1875,-0.1875 -0.234375,-0.1875 -0.175781,0 -0.199219,0.046875 -0.257812,0.2109375 -0.210938,0.48046876 -0.773438,0.79687501 -1.417969,0.79687501 -1.40625,0 -1.417969,-1.32421871 -1.417969,-1.82812501 z m -3.011719,-0.328125 c 0.02344,-0.3984375 0.03516,-0.8085937 0.234375,-1.1367187 0.269531,-0.3984375 0.667969,-0.515625 0.949219,-0.515625 1.171875,0 1.183594,1.3007812 1.195312,1.6523437 z m 0,0"
       style="fill:#d9d9d9;fill-opacity:1;fill-rule:nonzero;stroke:none"
       aria-label="Spectralestimate"
       transform="matrix(1.3333333,0,0,1.3333333,3116.608,13.294667)" />
  </g>
</svg>
