<?xml version="1.0" encoding="UTF-8" standalone="no"?>
<!-- Created with Inkscape (http://www.inkscape.org/) -->

<svg
   version="1.1"
   id="svg1"
   width="440"
   height="440"
   viewBox="0 0 220 220"
   xmlns="http://www.w3.org/2000/svg"
   xmlns:svg="http://www.w3.org/2000/svg">
  <defs
     id="defs1">
    <clipPath
       clipPathUnits="userSpaceOnUse"
       id="clipPath5">
      <path
         d="M -13.9815,-13.98067 H 153.78835 V 153.77898 H -13.9815 Z"
         transform="translate(-2.5000001e-6)"
         id="path5" />
    </clipPath>
  </defs>
  <g
     id="g3"
     transform="translate(-243.68933)">
    <path
       id="dir_sens"
       fill-opacity="0.15"
       fill="#0072b2"
       fill-rule="nonzero"
       stroke="#0072b2"
       stroke-width="0.99628"
       stroke-linecap="butt"
       stroke-linejoin="miter"
       stroke-miterlimit="10"
       stroke-opacity="1"
       d="m 139.74644,69.89914 0.0114,1.78786 0.0126,1.78929 0.0129,1.79188 0.0117,1.7955 0.009,1.79999 0.003,1.80525 -0.005,1.8111 -0.0172,1.81728 -0.0326,1.82361 -0.0521,1.82978 -0.0759,1.83556 -0.10413,1.84062 -0.13707,1.84467 -0.17474,1.84741 -0.21721,1.84853 -0.26443,1.84774 -0.31642,1.84473 -0.37293,1.83923 -0.43379,1.83098 -0.49881,1.81973 -0.5676,1.80532 -0.63989,1.78744 -0.71526,1.7661 -0.79332,1.74101 -0.87353,1.71224 -0.95552,1.67962 -1.03874,1.64318 -1.12267,1.60298 -1.20683,1.559 -1.29065,1.51142 -1.37366,1.46029 -1.45538,1.40586 -1.53525,1.3482 -1.61288,1.28768 -1.68779,1.22441 -1.75963,1.15872 -1.82797,1.0909 -1.89249,1.02118 -1.95293,0.94992 -2.00903,0.87739 -2.06055,0.80394 -2.10733,0.72986 -2.14931,0.65541 -2.18632,0.58096 -2.21837,0.50673 -2.24548,0.43299 -2.26766,0.36 -2.28494,0.28797 -2.29753,0.21714 -2.3055,0.14763 -2.309,0.0796 -2.30821,0.0133 -2.30338,-0.0513 -2.29463,-0.11411 -2.28227,-0.175 -2.26647,-0.23401 -2.24748,-0.29104 -2.22553,-0.34617 -2.20082,-0.39938 -2.1736,-0.45071 -2.14405,-0.50023 -2.1124,-0.54799 -2.07878,-0.59403 -2.04341,-0.63842 -2.00646,-0.68128 -1.96802,-0.72261 -1.9282,-0.76254 -1.88722,-0.80104 -1.8451,-0.83827 -1.80188,-0.87419 -1.75772,-0.90888 -1.71261,-0.94232 -1.66669,-0.97453 -1.61989,-1.0055 -1.57236,-1.03521 -1.52406,-1.06365 -1.47507,-1.0907 -1.42538,-1.11635 -1.37511,-1.14053 -1.32419,-1.16315 -1.27278,-1.18408 -1.22088,-1.20328 -1.16857,-1.22059 -1.1159,-1.23599 -1.06302,-1.24927 -1.00992,-1.26038 -0.95682,-1.26922 -0.90378,-1.27572 -0.85085,-1.27972 -0.79835,-1.28126 -0.74625,-1.28017 -0.69476,-1.27646 -0.64405,-1.27011 -0.59427,-1.26109 -0.54557,-1.24938 -0.49807,-1.23506 -0.45201,-1.21812 -0.40754,-1.19863 -0.36465,-1.17671 -0.32372,-1.15242 -0.28468,-1.12588 -0.2478,-1.09725 -0.21305,-1.06665 -0.18064,-1.03426 -0.15061,-1.00021 -0.12298,-0.96475 -0.09786,-0.92806 -0.07525,-0.8903 -0.05518,-0.85169 -0.03764,-0.81247 -0.0226,-0.77276 -0.01007,-0.7329 9e-5,-0.69293 0.0078,-0.65318 0.01333,-0.61379 0.01662,-0.57487 0.01782,-0.5367 0.01701,-0.49936 0.01441,-0.46301 0.01,-0.4278 0.004,-0.39381 -0.0035,-0.36118 L 13.7451,78.73372 13.72272,78.43346 13.68916,78.16135 13.64352,77.91579 13.58498,77.69511 13.51279,77.4977 13.42639,77.32185 13.32533,77.16592 13.20921,77.02821 13.07779,76.90715 12.93086,76.80106 12.76836,76.7084 12.59032,76.62758 12.39677,76.55716 12.1879,76.49564 11.9639,76.4416 11.72507,76.39369 11.47179,76.35059 11.20442,76.31104 10.92345,76.2738 10.6294,76.23773 10.32285,76.20169 10.00446,76.16461 9.67488,76.12546 9.33488,76.08328 8.9853,76.03711 8.62697,75.9861 8.26082,75.92937 7.88786,75.86617 7.50912,75.79573 7.12573,75.71739 6.73888,75.63051 6.34975,75.53448 5.95964,75.42882 5.56993,75.31305 5.18196,75.18678 4.79723,75.0497 4.41713,74.9015 4.0432,74.74205 3.67699,74.57123 3.31998,74.38899 2.97375,74.19539 2.63988,73.99055 2.3198,73.77473 2.01505,73.54819 1.72708,73.3113 1.45726,73.06453 1.20695,72.80843 0.97739,72.5436 0.76974,72.27072 0.58508,71.99054 0.42435,71.70389 0.28838,71.41164 0.17789,71.11465 0.09344,70.81392 0.03548,70.51044 0.00427,70.20515 0,69.89914 0.00427,69.59312 0.03548,69.28786 0.09344,68.98436 0.17789,68.68362 0.28838,68.38666 0.42435,68.09439 0.58508,67.80774 0.76974,67.52757 0.97739,67.2547 1.20695,66.98987 1.45726,66.73376 1.72708,66.487 2.01505,66.2501 2.3198,66.02356 2.63988,65.80771 2.97375,65.6029 3.31998,65.4093 3.67699,65.22707 4.0432,65.05621 4.41713,64.89679 4.79723,64.7486 5.18196,64.6115 5.56993,64.48523 5.95964,64.36946 6.34975,64.26381 6.73888,64.16779 7.12573,64.08089 7.50912,64.00256 7.88786,63.93213 8.26082,63.86891 8.62697,63.8122 8.9853,63.76117 l 0.34958,-0.04616 0.34,-0.04221 0.32958,-0.03913 0.31839,-0.03708 0.30655,-0.03604 0.29405,-0.03607 0.28097,-0.03724 0.26737,-0.03956 0.25328,-0.04308 0.23883,-0.04791 0.224,-0.05403 0.20887,-0.06154 0.19355,-0.07044 0.17804,-0.08079 0.1625,-0.09267 0.14693,-0.10608 0.13142,-0.12109 0.11612,-0.13768 0.10106,-0.15594 0.0864,-0.17585 0.07219,-0.19742 0.05854,-0.22066 0.04564,-0.24557 0.03356,-0.27209 0.02238,-0.30026 0.01235,-0.32998 0.0035,-0.36117 -0.004,-0.39382 -0.01,-0.42778 -0.01441,-0.46303 -0.01701,-0.49935 -0.01782,-0.53669 -0.01662,-0.5749 -0.01333,-0.61376 -0.0078,-0.65318 -9e-5,-0.69296 0.01007,-0.73286 0.0226,-0.77279 0.03764,-0.81245 0.05518,-0.85168 0.07525,-0.89031 0.09786,-0.92805 0.12298,-0.96477 0.15061,-1.00022 0.18064,-1.03423 0.21305,-1.06666 0.2478,-1.09724 0.28468,-1.1259 0.32372,-1.1524 0.36465,-1.17672 0.40754,-1.19865 0.45201,-1.2181 0.49807,-1.23506 0.54557,-1.24939 0.59427,-1.26108 0.64405,-1.2701 0.69476,-1.27646 0.74625,-1.28019 0.79835,-1.28125 0.85085,-1.27974 0.90378,-1.27569 0.95682,-1.26923 1.00992,-1.2604 1.06302,-1.24926 1.1159,-1.23598 1.16857,-1.22059 1.22088,-1.20328 1.27278,-1.1841 1.32419,-1.16313 1.37511,-1.14053 1.42538,-1.11637 1.47507,-1.0907 1.52406,-1.06362 1.57236,-1.03522 1.61989,-1.00551 1.66669,-0.97453 1.71261,-0.94231 1.75772,-0.90887 1.80188,-0.87419 1.8451,-0.83827 1.88722,-0.80108 1.9282,-0.76251 1.96802,-0.72262 2.00646,-0.68127 2.04341,-0.63844 2.07878,-0.59401 2.1124,-0.54798 2.14405,-0.50023 2.1736,-0.45073 2.20082,-0.39937 2.22553,-0.34616 2.24748,-0.29106 2.26647,-0.234 2.28227,-0.175 2.29463,-0.1141 L 84.0528,0 l 2.30821,0.01328 2.309,0.07963 2.3055,0.14764 2.29753,0.21712 2.28494,0.28798 2.26766,0.36 2.24548,0.433 2.21837,0.50673 2.18632,0.58095 2.14931,0.65542 2.10733,0.72986 2.06055,0.80394 2.00903,0.8774 1.95293,0.94992 1.89249,1.02116 1.82797,1.09088 1.75963,1.15874 1.68779,1.22441 1.61288,1.28766 1.53525,1.34824 1.45538,1.40584 1.37366,1.46029 1.29065,1.51141 1.20683,1.55903 1.12267,1.60296 1.03874,1.64319 0.95552,1.67962 0.87353,1.71223 0.79332,1.74102 0.71526,1.76609 0.63989,1.78746 0.5676,1.8053 0.49881,1.81974 0.43379,1.83096 0.37293,1.83925 0.31642,1.84472 0.26443,1.84774 0.21721,1.84854 0.17474,1.84742 0.13707,1.84466 0.10413,1.84061 0.0759,1.83556 0.0521,1.82978 0.0326,1.82361 0.0172,1.81729 0.005,1.81108 -0.003,1.80527 -0.009,1.79999 -0.0117,1.79548 -0.0129,1.79188 -0.0126,1.78932 -0.0114,1.78784"
       transform="matrix(1.3333333,0,0,-1.3333333,262.19867,204.67867)"
       clip-path="url(#clipPath5)" />
    <path
       id="middle"
       d="m 22.4217,69.89914 c 0,1.10048 -0.89207,1.99256 -1.99255,1.99256 -1.10046,0 -1.99255,-0.89208 -1.99255,-1.99256 0,-1.10046 0.89209,-1.99255 1.99255,-1.99255 1.10048,0 1.99255,0.89209 1.99255,1.99255 z"
       style="fill:#D9D9D9;fill-opacity:1;fill-rule:nonzero;stroke:#D9D9D9;stroke-width:0.99628;stroke-linecap:butt;stroke-linejoin:miter;stroke-miterlimit:10;stroke-dasharray:none;stroke-opacity:1"
       transform="matrix(1.3333333,0,0,-1.3333333,262.19867,204.67867)" />
  </g>
</svg>
