<?xml version="1.0" encoding="UTF-8" standalone="no"?>
<!-- Created with Inkscape (http://www.inkscape.org/) -->

<svg
   version="1.1"
   id="svg1"
   width="371.168"
   height="207.60133"
   viewBox="0 0 371.168 207.60133"
   xmlns="http://www.w3.org/2000/svg"
   xmlns:svg="http://www.w3.org/2000/svg">
  <defs
     id="defs1">
    <clipPath
       clipPathUnits="userSpaceOnUse"
       id="clipPath21">
      <path
         d="M 0,0 H 203.19632 V 96.89691 H 0 Z"
         id="path21" />
    </clipPath>
    <clipPath
       clipPathUnits="userSpaceOnUse"
       id="clipPath44">
      <path
         d="m 0,314.69844 h 203.19632 v 96.89833 H 0 Z"
         id="path44" />
    </clipPath>
  </defs>
  <g
     id="g1">
    <path
       id="path1"
       d="M 0,0 V 96.89691 M 25.39954,0 V 96.89691 M 50.79907,0 V 96.89691 M 76.19862,0 V 96.89691 M 101.59816,0 V 96.89691 M 126.9977,0 V 96.89691 M 152.39725,0 V 96.89691 M 177.79678,0 V 96.89691 M 203.19632,0 v 96.89691"
       style="fill:none;stroke:#bfbfbf;stroke-width:0.3985;stroke-linecap:butt;stroke-linejoin:miter;stroke-miterlimit:10;stroke-dasharray:none;stroke-opacity:1"
       transform="matrix(1.3333333,0,0,-1.3333333,42.817333,164.184)" />
    <path
       id="path2"
       d="M 0,0.83531 H 203.19632 M 0,42.60123 H 203.19632 M 0,84.36714 h 203.19632"
       style="fill:none;stroke:#bfbfbf;stroke-width:0.3985;stroke-linecap:butt;stroke-linejoin:miter;stroke-miterlimit:10;stroke-dasharray:none;stroke-opacity:1"
       transform="matrix(1.3333333,0,0,-1.3333333,42.817333,164.184)" />
    <path
       id="path3"
       d="M 0,0 V 4.25183 M 25.39954,0 V 4.25183 M 50.79907,0 V 4.25183 M 76.19862,0 V 4.25183 M 101.59816,0 V 4.25183 M 126.9977,0 V 4.25183 M 152.39725,0 V 4.25183 M 177.79678,0 V 4.25183 M 203.19632,0 V 4.25183 M 0,96.89691 v -4.25184 m 25.39954,4.25184 v -4.25184 m 25.39953,4.25184 v -4.25184 m 25.39955,4.25184 v -4.25184 m 25.39954,4.25184 v -4.25184 m 25.39954,4.25184 v -4.25184 m 25.39955,4.25184 v -4.25184 m 25.39953,4.25184 v -4.25184 m 25.39954,4.25184 v -4.25184"
       style="fill:none;stroke:#808080;stroke-width:0.19925;stroke-linecap:butt;stroke-linejoin:miter;stroke-miterlimit:10;stroke-dasharray:none;stroke-opacity:1"
       transform="matrix(1.3333333,0,0,-1.3333333,42.817333,164.184)" />
    <path
       id="path4"
       d="M 0,0.83531 H 4.25226 M 0,42.60123 H 4.25226 M 0,84.36714 h 4.25226"
       style="fill:none;stroke:#338eca;stroke-width:0.19925;stroke-linecap:butt;stroke-linejoin:miter;stroke-miterlimit:10;stroke-dasharray:none;stroke-opacity:1"
       transform="matrix(1.3333333,0,0,-1.3333333,42.817333,164.184)" />
    <path
       id="path5"
       d="M 0,0 H 203.19632"
       style="fill:none;stroke:#c3c3c3;stroke-width:1.0959;stroke-linecap:butt;stroke-linejoin:miter;stroke-miterlimit:10;stroke-dasharray:none;stroke-opacity:1"
       transform="matrix(1.3333333,0,0,-1.3333333,42.817333,164.184)" />
    <path
       id="path6"
       d="M 0,96.89691 H 203.19632"
       style="fill:none;stroke:#c3c3c3;stroke-width:1.0959;stroke-linecap:butt;stroke-linejoin:miter;stroke-miterlimit:10;stroke-dasharray:none;stroke-opacity:1"
       transform="matrix(1.3333333,0,0,-1.3333333,42.817333,164.184)" />
    <path
       id="path7"
       d="M 0,0 V 96.89691"
       style="fill:none;stroke:#338eca;stroke-width:1.0959;stroke-linecap:butt;stroke-linejoin:miter;stroke-miterlimit:10;stroke-dasharray:none;stroke-opacity:1"
       transform="matrix(1.3333333,0,0,-1.3333333,42.817333,164.184)" />
    <path
       id="path8"
       d="M 2.754375,-1.8633047 V -2.4375234 H 0.1059375 v 0.5742187 z m 3.4951172,-4.5117187 c 0,-0.234375 0,-0.2578125 -0.234375,-0.2578125 -0.609375,0.6328125 -1.4882813,0.6328125 -1.8046875,0.6328125 v 0.3164062 c 0.1992187,0 0.7851562,0 1.3007812,-0.2578125 v 5.15625001 c 0,0.3515625 -0.035156,0.48046875 -0.9257812,0.48046875 H 4.2690234 V -2.34375e-5 C 4.6205859,-0.03517969 5.4760547,-0.03517969 5.8744922,-0.03517969 c 0.3984375,0 1.265625,0 1.6171875,0.0351562525 V -0.30471094 H 7.1752734 c -0.9023437,0 -0.9257812,-0.1171875 -0.9257812,-0.48046875 z m 3.6826172,1.828125 c -0.46875,-0.3046875 -0.5039063,-0.6445313 -0.5039063,-0.8085938 0,-0.609375 0.6445309,-1.03125 1.3593749,-1.03125 0.726563,0 1.359375,0.515625 1.359375,1.2421875 0,0.5625 -0.386719,1.0429688 -0.984375,1.3945313 z m 1.4531246,0.9375 c 0.714844,-0.3632813 1.207032,-0.8789063 1.207032,-1.5351563 0,-0.9257812 -0.890625,-1.4882812 -1.792969,-1.4882812 -0.9960939,0 -1.8046876,0.7382812 -1.8046876,1.6640625 0,0.1757812 0.011719,0.6210937 0.4335937,1.0898437 0.1054688,0.1289063 0.4804688,0.375 0.7265629,0.5390625 -0.5742191,0.2929688 -1.4296879,0.84375 -1.4296879,1.8398438 0,1.05468746 1.0078125,1.72265621 2.0624999,1.72265621 1.125,0 2.0625,-0.83203125 2.0625,-1.89843751 0,-0.3515625 -0.105469,-0.8085937 -0.480469,-1.21875 -0.1875,-0.2109375 -0.351562,-0.3164062 -0.984375,-0.7148437 z m -0.996093,0.421875 1.21875,0.7734375 c 0.28125,0.1875 0.75,0.4921875 0.75,1.1015625 0,0.73828121 -0.75,1.25390621 -1.558594,1.25390621 -0.8671876,0 -1.5820314,-0.62109375 -1.5820314,-1.44140621 0,-0.5859375 0.3164063,-1.21875 1.1718754,-1.6875 z m 7.476562,0 c 0,-0.796875 -0.04687,-1.59375 -0.398437,-2.3320313 -0.457032,-0.9609375 -1.277344,-1.1132812 -1.6875,-1.1132812 -0.597657,0 -1.335938,0.2578125 -1.734375,1.1835937 -0.328125,0.6914063 -0.375,1.4648438 -0.375,2.2617188 0,0.75 0.04687,1.640625 0.445312,2.40234371 0.433594,0.80859375 1.160156,1.0078125 1.652344,1.0078125 0.539062,0 1.289062,-0.2109375 1.734375,-1.16015625 0.316406,-0.69140626 0.363281,-1.46484376 0.363281,-2.24999996 z M 15.768047,-2.34375e-5 c -0.386719,0 -0.984375,-0.2460937525 -1.160156,-1.2070312625 -0.105469,-0.5976562 -0.105469,-1.5117187 -0.105469,-2.0976562 0,-0.6445313 0,-1.3007813 0.08203,-1.8398438 0.1875,-1.1835937 0.925781,-1.265625 1.183594,-1.265625 0.328125,0 0.984375,0.1757813 1.171875,1.1601563 0.09375,0.5625 0.09375,1.3125 0.09375,1.9453125 0,0.75 0,1.4179687 -0.105469,2.0625 -0.152344,0.93749996 -0.714844,1.2421874625 -1.160156,1.2421874625 z m 0,0"
       style="fill:#d9d9d9;fill-opacity:1;fill-rule:nonzero;stroke:none"
       aria-label="-180"
       transform="matrix(1.3333333,0,0,1.3333333,30.64,178.168)" />
    <path
       id="path9"
       d="M 2.7534609,-1.8633047 V -2.4375234 H 0.10502344 v 0.5742187 z m 4.2246094,-1.3007812 v 0.3164062 c 0,2.33203126 -1.03125,2.78906251 -1.6171875,2.78906251 -0.1640625,0 -0.703125,-0.0234375 -0.9726562,-0.36328125 0.4335937,0 0.515625,-0.28125 0.515625,-0.45703125 0,-0.30468751 -0.234375,-0.45703121 -0.4570313,-0.45703121 -0.1640625,0 -0.4570312,0.09375 -0.4570312,0.48046871 0,0.66796875 0.5390625,1.078125 1.3828125,1.078125 1.2890625,0 2.4960937,-1.35937501 2.4960937,-3.50390621 0,-2.671875 -1.1367187,-3.3515625 -2.0273437,-3.3515625 -0.5507813,0 -1.03125,0.1757812 -1.4648438,0.6210937 -0.4101562,0.4570313 -0.6328125,0.8671875 -0.6328125,1.6171875 0,1.2421875 0.8789063,2.2265625 1.9921875,2.2265625 0.609375,0 1.0078125,-0.421875 1.2421875,-0.9960937 z m -1.2304687,0.7617187 c -0.1640625,0 -0.6210938,0 -0.9257813,-0.6210937 -0.1875,-0.375 -0.1875,-0.8671875 -0.1875,-1.359375 0,-0.5390625 0,-1.0078125 0.2109375,-1.3710938 0.2695313,-0.5039062 0.6445313,-0.6328125 0.9960938,-0.6328125 0.4570312,0 0.7851562,0.3398438 0.9609375,0.7851563 0.1171875,0.3164062 0.1523437,0.9492187 0.1523437,1.40625 0,0.8320312 -0.3398437,1.7929687 -1.2070312,1.7929687 z M 12.88432,-3.1875234 c 0,-0.796875 -0.04687,-1.59375 -0.398437,-2.3320313 -0.457031,-0.9609375 -1.277344,-1.1132812 -1.6875,-1.1132812 -0.597656,0 -1.3359377,0.2578125 -1.7343752,1.1835937 -0.328125,0.6914063 -0.375,1.4648438 -0.375,2.2617188 0,0.75 0.046875,1.640625 0.4453125,2.40234371 0.4335938,0.80859375 1.1601567,1.0078125 1.6523437,1.0078125 0.539063,0 1.289063,-0.2109375 1.734375,-1.16015625 C 12.837445,-1.6289297 12.88432,-2.4023672 12.88432,-3.1875234 Z M 10.786664,-2.34375e-5 c -0.386719,0 -0.9843749,-0.2460937525 -1.1601562,-1.2070312625 -0.1054687,-0.5976562 -0.1054687,-1.5117187 -0.1054687,-2.0976562 0,-0.6445313 0,-1.3007813 0.082031,-1.8398438 0.1875,-1.1835937 0.9257819,-1.265625 1.1835939,-1.265625 0.328125,0 0.984375,0.1757813 1.171875,1.1601563 0.09375,0.5625 0.09375,1.3125 0.09375,1.9453125 0,0.75 0,1.4179687 -0.105469,2.0625 -0.152343,0.93749996 -0.714843,1.2421874625 -1.160156,1.2421874625 z m 0,0"
       style="fill:#d9d9d9;fill-opacity:1;fill-rule:nonzero;stroke:none"
       aria-label="-90"
       transform="matrix(1.3333333,0,0,1.3333333,101.692,178.168)" />
    <path
       id="path10"
       d="m 4.5808047,-3.1875234 c 0,-0.796875 -0.046875,-1.59375 -0.3984375,-2.3320313 -0.4570313,-0.9609375 -1.2773438,-1.1132812 -1.6875,-1.1132812 -0.5976563,0 -1.3359375,0.2578125 -1.73437501,1.1835937 -0.328125,0.6914063 -0.375,1.4648438 -0.375,2.2617188 0,0.75 0.046875,1.640625 0.4453125,2.40234371 0.43359371,0.80859375 1.16015621,1.0078125 1.65234371,1.0078125 0.5390625,0 1.2890625,-0.2109375 1.734375,-1.16015625 C 4.5339297,-1.6289297 4.5808047,-2.4023672 4.5808047,-3.1875234 Z M 2.4831484,-2.34375e-5 c -0.3867187,0 -0.984375,-0.2460937525 -1.1601562,-1.2070312625 -0.1054688,-0.5976562 -0.1054688,-1.5117187 -0.1054688,-2.0976562 0,-0.6445313 0,-1.3007813 0.082031,-1.8398438 0.1875,-1.1835937 0.9257812,-1.265625 1.1835937,-1.265625 0.328125,0 0.984375,0.1757813 1.171875,1.1601563 0.09375,0.5625 0.09375,1.3125 0.09375,1.9453125 0,0.75 0,1.4179687 -0.1054687,2.0625 C 3.4909609,-0.30471094 2.9284609,-2.34375e-5 2.4831484,-2.34375e-5 Z m 0,0"
       style="fill:#d9d9d9;fill-opacity:1;fill-rule:nonzero;stroke:none"
       aria-label="0"
       transform="matrix(1.3333333,0,0,1.3333333,174.95867,178.168)" />
    <path
       id="path11"
       d="m 3.6575703,-3.1640859 v 0.3164062 c 0,2.33203126 -1.03125,2.78906251 -1.6171875,2.78906251 -0.1640625,0 -0.703125,-0.0234375 -0.9726562,-0.36328125 0.4335937,0 0.515625,-0.28125 0.515625,-0.45703125 0,-0.30468751 -0.234375,-0.45703121 -0.4570313,-0.45703121 -0.16406249,0 -0.45703124,0.09375 -0.45703124,0.48046871 0,0.66796875 0.53906254,1.078125 1.38281254,1.078125 1.2890625,0 2.4960937,-1.35937501 2.4960937,-3.50390621 0,-2.671875 -1.1367187,-3.3515625 -2.0273437,-3.3515625 -0.5507813,0 -1.03125,0.1757812 -1.4648438,0.6210937 -0.41015624,0.4570313 -0.63281249,0.8671875 -0.63281249,1.6171875 0,1.2421875 0.87890629,2.2265625 1.99218749,2.2265625 0.609375,0 1.0078125,-0.421875 1.2421875,-0.9960937 z m -1.2304687,0.7617187 c -0.1640625,0 -0.6210938,0 -0.9257813,-0.6210937 -0.1875,-0.375 -0.1875,-0.8671875 -0.1875,-1.359375 0,-0.5390625 0,-1.0078125 0.2109375,-1.3710938 0.2695313,-0.5039062 0.6445313,-0.6328125 0.9960938,-0.6328125 0.4570312,0 0.7851562,0.3398438 0.9609375,0.7851563 0.1171875,0.3164062 0.1523437,0.9492187 0.1523437,1.40625 0,0.8320312 -0.3398437,1.7929687 -1.2070312,1.7929687 z m 7.1367187,-0.7851562 c 0,-0.796875 -0.046875,-1.59375 -0.3984375,-2.3320313 -0.4570312,-0.9609375 -1.2773437,-1.1132812 -1.6875,-1.1132812 -0.5976562,0 -1.3359375,0.2578125 -1.734375,1.1835937 -0.328125,0.6914063 -0.375,1.4648438 -0.375,2.2617188 0,0.75 0.046875,1.640625 0.4453125,2.40234371 0.4335938,0.80859375 1.1601563,1.0078125 1.6523438,1.0078125 0.5390625,0 1.2890625,-0.2109375 1.734375,-1.16015625 C 9.5169453,-1.6289297 9.5638203,-2.4023672 9.5638203,-3.1875234 Z M 7.4661641,-2.34375e-5 c -0.3867188,0 -0.984375,-0.2460937525 -1.1601563,-1.2070312625 -0.1054687,-0.5976562 -0.1054687,-1.5117187 -0.1054687,-2.0976562 0,-0.6445313 0,-1.3007813 0.082031,-1.8398438 0.1875,-1.1835937 0.9257813,-1.265625 1.1835938,-1.265625 0.328125,0 0.984375,0.1757813 1.171875,1.1601563 0.09375,0.5625 0.09375,1.3125 0.09375,1.9453125 0,0.75 0,1.4179687 -0.1054688,2.0625 C 8.4739766,-0.30471094 7.9114766,-2.34375e-5 7.4661641,-2.34375e-5 Z m 0,0"
       style="fill:#d9d9d9;fill-opacity:1;fill-rule:nonzero;stroke:none"
       aria-label="90"
       transform="matrix(1.3333333,0,0,1.3333333,239.36933,178.168)" />
    <path
       id="path12"
       d="m 2.930625,-6.3750234 c 0,-0.234375 0,-0.2578125 -0.234375,-0.2578125 -0.609375,0.6328125 -1.4882813,0.6328125 -1.8046875,0.6328125 v 0.3164062 c 0.1992187,0 0.7851562,0 1.3007812,-0.2578125 v 5.15625001 c 0,0.3515625 -0.035156,0.48046875 -0.9257812,0.48046875 H 0.95015625 V -2.34375e-5 C 1.3017187,-0.03517969 2.1571875,-0.03517969 2.555625,-0.03517969 c 0.3984375,0 1.265625,0 1.6171875,0.0351562525 V -0.30471094 H 3.8564062 c -0.9023437,0 -0.9257812,-0.1171875 -0.9257812,-0.48046875 z m 3.6796875,1.828125 c -0.46875,-0.3046875 -0.5039063,-0.6445313 -0.5039063,-0.8085938 0,-0.609375 0.6445313,-1.03125 1.359375,-1.03125 0.7265625,0 1.359375,0.515625 1.359375,1.2421875 0,0.5625 -0.3867187,1.0429688 -0.984375,1.3945313 z m 1.453125,0.9375 c 0.7148437,-0.3632813 1.2070312,-0.8789063 1.2070312,-1.5351563 0,-0.9257812 -0.890625,-1.4882812 -1.7929687,-1.4882812 -0.9960938,0 -1.8046875,0.7382812 -1.8046875,1.6640625 0,0.1757812 0.011719,0.6210937 0.4335937,1.0898437 0.1054688,0.1289063 0.4804688,0.375 0.7265625,0.5390625 -0.5742187,0.2929688 -1.4296875,0.84375 -1.4296875,1.8398438 0,1.05468746 1.0078125,1.72265621 2.0625,1.72265621 1.125,0 2.0625,-0.83203125 2.0625,-1.89843751 0,-0.3515625 -0.1054687,-0.8085937 -0.4804687,-1.21875 -0.1875,-0.2109375 -0.3515625,-0.3164062 -0.984375,-0.7148437 z m -0.9960938,0.421875 1.21875,0.7734375 c 0.28125,0.1875 0.75,0.4921875 0.75,1.1015625 0,0.73828121 -0.75,1.25390621 -1.5585937,1.25390621 -0.8671875,0 -1.5820313,-0.62109375 -1.5820313,-1.44140621 0,-0.5859375 0.3164063,-1.21875 1.171875,-1.6875 z m 7.4765623,0 c 0,-0.796875 -0.04687,-1.59375 -0.398437,-2.3320313 -0.457032,-0.9609375 -1.277344,-1.1132812 -1.6875,-1.1132812 -0.597657,0 -1.335938,0.2578125 -1.734375,1.1835937 -0.328125,0.6914063 -0.375,1.4648438 -0.375,2.2617188 0,0.75 0.04687,1.640625 0.445312,2.40234371 0.433594,0.80859375 1.160156,1.0078125 1.652344,1.0078125 0.539062,0 1.289062,-0.2109375 1.734375,-1.16015625 0.316406,-0.69140626 0.363281,-1.46484376 0.363281,-2.24999996 z M 12.44625,-2.34375e-5 c -0.386719,0 -0.984375,-0.2460937525 -1.160156,-1.2070312625 -0.105469,-0.5976562 -0.105469,-1.5117187 -0.105469,-2.0976562 0,-0.6445313 0,-1.3007813 0.08203,-1.8398438 0.1875,-1.1835937 0.925781,-1.265625 1.183594,-1.265625 0.328125,0 0.984375,0.1757813 1.171875,1.1601563 0.09375,0.5625 0.09375,1.3125 0.09375,1.9453125 0,0.75 0,1.4179687 -0.105469,2.0625 -0.152344,0.93749996 -0.714844,1.2421874625 -1.160156,1.2421874625 z m 0,0"
       style="fill:#d9d9d9;fill-opacity:1;fill-rule:nonzero;stroke:none"
       aria-label="180"
       transform="matrix(1.3333333,0,0,1.3333333,303.78,178.168)" />
    <path
       id="path13"
       d="M 1.2670547,-0.76104687 2.3217422,-1.7922969 c 1.5585937,-1.3710937 2.15625,-1.9101562 2.15625,-2.90625 0,-1.1367187 -0.9023438,-1.9335937 -2.1210938,-1.9335937 -1.125,0 -1.85156246,0.9140625 -1.85156246,1.8046875 0,0.5507812 0.4921875,0.5507812 0.52734376,0.5507812 0.1640625,0 0.515625,-0.1171875 0.515625,-0.5273437 0,-0.2578125 -0.1875,-0.515625 -0.5273438,-0.515625 -0.0820312,0 -0.10546871,0 -0.12890621,0.011719 0.22265621,-0.6445312 0.76171871,-1.0195312 1.33593751,-1.0195312 0.9140625,0 1.3359375,0.8085937 1.3359375,1.6289062 0,0.796875 -0.4921875,1.5820313 -1.0429688,2.203125 L 0.61080469,-0.36260937 C 0.50533594,-0.25714062 0.50533594,-0.23370312 0.50533594,6.71875e-4 H 4.1967422 L 4.4779922,-1.7337031 H 4.2201797 c -0.046875,0.3046875 -0.1171875,0.73828123 -0.2109375,0.89062498 -0.070312,0.0820313 -0.7265625,0.0820313 -0.9492188,0.0820313 z m 0,0"
       style="fill:#338eca;fill-opacity:1;fill-rule:nonzero;stroke:none"
       aria-label="2"
       transform="matrix(1.3333333,0,0,1.3333333,30.752,167.35067)" />
    <path
       id="path14"
       d="m 2.8959609,-3.5028594 c 0.8085938,-0.2695312 1.3945313,-0.9726562 1.3945313,-1.7578125 0,-0.8203125 -0.8789063,-1.3710937 -1.8398438,-1.3710937 -1.0078125,0 -1.75781246,0.5976562 -1.75781246,1.3476562 0,0.3398438 0.2109375,0.5273438 0.50390626,0.5273438 0.3046875,0 0.5039062,-0.2226563 0.5039062,-0.515625 0,-0.4921875 -0.46875,-0.4921875 -0.609375,-0.4921875 0.3046875,-0.4921875 0.9609375,-0.6210938 1.3242188,-0.6210938 0.4101562,0 0.9492187,0.2226563 0.9492187,1.1132813 0,0.1289062 -0.011719,0.703125 -0.2695312,1.1367187 -0.3046875,0.4804688 -0.6445313,0.515625 -0.890625,0.515625 -0.082031,0.011719 -0.3164063,0.035156 -0.3867188,0.035156 -0.082031,0.011719 -0.1523437,0.023437 -0.1523437,0.1171875 0,0.1171875 0.070312,0.1171875 0.234375,0.1171875 h 0.4453125 c 0.8085937,0 1.1835937,0.6679687 1.1835937,1.6523437 0,1.34765628 -0.6914062,1.64062503 -1.125,1.64062503 -0.4335937,0 -1.171875,-0.17578125 -1.52343746,-0.76171875 0.35156246,0.0585938 0.65624996,-0.1640625 0.65624996,-0.53906248 0,-0.3632813 -0.2695312,-0.5625 -0.56249996,-0.5625 -0.234375,0 -0.55078125,0.140625 -0.55078125,0.5742187 0,0.91406253 0.92578121,1.57031253 2.00390621,1.57031253 1.21875,0 2.1210938,-0.9140625 2.1210938,-1.92187503 0,-0.8203125 -0.6210938,-1.59375 -1.6523438,-1.8046872 z m 0,0"
       style="fill:#338eca;fill-opacity:1;fill-rule:nonzero;stroke:none"
       aria-label="3"
       transform="matrix(1.3333333,0,0,1.3333333,30.752,111.66267)" />
    <path
       id="path15"
       d="m 2.9311172,-1.6402031 v 0.86718748 c 0,0.3515625 -0.023437,0.46875 -0.7617188,0.46875 H 1.9584609 V 4.21875e-4 c 0.4101563,-0.035156245 0.9375,-0.035156245 1.3476563,-0.035156245 0.421875,0 0.9492187,0 1.359375,0.035156245 V -0.30426562 H 4.4545547 c -0.7382813,0 -0.7617188,-0.1171875 -0.7617188,-0.46875 V -1.6402031 H 4.6889297 V -1.9566094 H 3.6928359 v -4.5234375 c 0,-0.1992187 0,-0.2578125 -0.1523437,-0.2578125 -0.09375,0 -0.1171875,0 -0.1992188,0.1171875 l -3.05859371,4.6640625 v 0.3164063 z m 0.058594,-0.3164063 H 0.56392969 L 2.9897109,-5.6714531 Z m 0,0"
       style="fill:#338eca;fill-opacity:1;fill-rule:nonzero;stroke:none"
       aria-label="4"
       transform="matrix(1.3333333,0,0,1.3333333,30.752,55.976)" />
    <g
       id="g15"
       aria-label="·10&#10;−11"
       transform="matrix(1.3333333,0,0,1.3333333,43.813333,30.008)">
      <path
         id="path16"
         d="m 1.9095313,-2.4962344 c 0,-0.28125 -0.234375,-0.5273437 -0.5273438,-0.5273437 -0.28125,0 -0.52734375,0.2460937 -0.52734375,0.5273437 0,0.2929688 0.24609375,0.5390625 0.52734375,0.5390625 0.2929688,0 0.5273438,-0.2460937 0.5273438,-0.5390625 z m 0,0"
         style="fill:#338eca;fill-opacity:1;fill-rule:nonzero;stroke:none" />
      <path
         id="path17"
         d="m 5.6976172,-6.3751406 c 0,-0.234375 0,-0.2578125 -0.234375,-0.2578125 -0.609375,0.6328125 -1.4882813,0.6328125 -1.8046875,0.6328125 v 0.3164062 c 0.1992187,0 0.7851562,0 1.3007812,-0.2578125 v 5.15625003 c 0,0.3515625 -0.035156,0.48046875 -0.9257812,0.48046875 H 3.7171484 V -1.40625e-4 C 4.0687109,-0.03529687 4.9241797,-0.03529687 5.3226172,-0.03529687 c 0.3984375,0 1.265625,0 1.6171875,0.035156245 V -0.30482812 H 6.6233984 c -0.9023437,0 -0.9257812,-0.1171875 -0.9257812,-0.48046875 z m 6.6328128,3.1875 c 0,-0.796875 -0.04687,-1.59375 -0.398438,-2.3320313 -0.457031,-0.9609375 -1.277344,-1.1132812 -1.6875,-1.1132812 -0.5976561,0 -1.3359373,0.2578125 -1.7343748,1.1835937 -0.328125,0.6914063 -0.375,1.4648438 -0.375,2.2617188 0,0.75 0.046875,1.640625 0.4453125,2.40234373 0.4335937,0.80859375 1.1601562,1.0078125 1.6523433,1.0078125 0.539063,0 1.289063,-0.2109375 1.734375,-1.16015625 0.316407,-0.69140628 0.363282,-1.46484378 0.363282,-2.24999998 z m -2.097657,3.187499975 c -0.3867183,0 -0.9843746,-0.246093745 -1.1601558,-1.207031275 -0.1054688,-0.5976562 -0.1054688,-1.5117187 -0.1054688,-2.0976562 0,-0.6445313 0,-1.3007813 0.082031,-1.8398438 0.1875,-1.1835937 0.9257812,-1.265625 1.1835936,-1.265625 0.328125,0 0.984375,0.1757813 1.171875,1.1601563 0.09375,0.5625 0.09375,1.3125 0.09375,1.9453125 0,0.75 0,1.4179687 -0.105468,2.0625 -0.152344,0.93749998 -0.714844,1.242187475 -1.160157,1.242187475 z m 0,0"
         style="fill:#338eca;fill-opacity:1;fill-rule:nonzero;stroke:none" />
      <path
         id="path18"
         d="m 17.920273,-5.1856875 c 0.105469,0 0.269532,0 0.269532,-0.1757812 0,-0.1757813 -0.152344,-0.1757813 -0.269532,-0.1757813 h -4.160156 c -0.105469,0 -0.28125,0 -0.28125,0.1757813 0,0.1757812 0.164063,0.1757812 0.28125,0.1757812 z m 0,0"
         style="fill:#338eca;fill-opacity:1;fill-rule:nonzero;stroke:none" />
      <path
         id="path19"
         d="m 21.289414,-8.0450625 c 0,-0.1875 -0.01172,-0.1992187 -0.210937,-0.1992187 -0.445313,0.4335937 -1.078125,0.4453125 -1.359375,0.4453125 v 0.2460937 c 0.164062,0 0.621093,0 1.007812,-0.1875 v 3.5507813 c 0,0.234375 0,0.328125 -0.691406,0.328125 h -0.269531 v 0.2460937 c 0.128906,-0.011719 0.984375,-0.023437 1.242187,-0.023437 0.210938,0 1.089844,0.011719 1.242188,0.023437 v -0.2460937 h -0.257813 c -0.703125,0 -0.703125,-0.09375 -0.703125,-0.328125 z m 3.972656,0 c 0,-0.1875 -0.01172,-0.1992187 -0.210937,-0.1992187 -0.445313,0.4335937 -1.078125,0.4453125 -1.359375,0.4453125 v 0.2460937 c 0.164062,0 0.621094,0 1.007812,-0.1875 v 3.5507813 c 0,0.234375 0,0.328125 -0.691406,0.328125 h -0.269531 v 0.2460937 c 0.128906,-0.011719 0.984375,-0.023437 1.242187,-0.023437 0.210938,0 1.089844,0.011719 1.242188,0.023437 v -0.2460937 h -0.257813 c -0.703125,0 -0.703125,-0.09375 -0.703125,-0.328125 z m 0,0"
         style="fill:#338eca;fill-opacity:1;fill-rule:nonzero;stroke:none" />
    </g>
    <path
       id="path20"
       d="m 0,21.7493 1.01598,-0.87349 1.01597,-0.30331 1.01598,0.26258 1.01597,0.81442 1.016,1.33912 1.01599,1.81889 1.01597,2.23079 1.01598,2.54713 1.01597,2.73761 1.01599,2.77394 1.01598,2.63659 1.01599,2.32299 1.01598,1.85444 1.01597,1.27832 1.016,0.66366 1.01597,0.08945 1.01598,-0.37055 1.01599,-0.66075 1.01597,-0.75087 1.016,-0.63585 1.01597,-0.33059 1.01598,0.13727 1.01599,0.73353 1.01597,1.42102 1.016,2.16023 1.01597,2.9081 1.01598,3.61491 1.01597,4.22162 1.016,4.65903 1.01599,4.85051 1.01597,4.72121 1.01598,4.21388 1.01597,3.30947 1.01598,2.04575 1.01601,0.52463 1.01597,-1.09939 1.01598,-2.65014 1.01597,-3.96814 1.01598,-4.94276 1.01599,-5.5257 1.01599,-5.72566 1.01598,-5.59088 1.01598,-5.18854 1.01597,-4.58844 1.01599,-3.85252 1.01599,-3.03071 1.01598,-2.16038 1.01597,-1.26844 1.01598,-0.37424 1.01599,0.50726 1.01598,1.3627 1.01599,2.17745 1.01598,2.93381 1.01597,3.60896 1.01599,4.17451 1.01598,4.59619 1.01597,4.8358 1.016,4.85459 1.01597,4.61941 1.016,4.11089 1.01597,3.33224 1.01597,2.31751 1.01598,1.13356 1.01599,-0.12428 1.01599,-1.34624 1.01598,-2.42664 1.01598,-3.28248 1.01597,-3.86571 1.01599,-4.16589 1.01599,-4.20502 1.01598,-4.02681 1.01598,-3.68604 1.01597,-3.23936 1.01598,-2.74013 1.016,-2.23535 1.01598,-1.76535 1.01598,-1.36382 1.01597,-1.05754 1.01598,-0.86596 1.01599,-0.79947 1.01599,-0.85767 1.01598,-1.02774 1.01597,-1.28461 1.01598,-1.59311 1.01599,-1.91216 1.01597,-2.20064 1.016,-2.42293 1.01597,-2.55301 1.01598,-2.57609 1.01599,-2.48824 1.01598,-2.29384 1.01598,-2.00284 1.01598,-1.62776 1.01598,-1.1815 1.01599,-0.67626 1.01598,-0.12254 1.01597,0.47011 1.016,1.0929 1.01597,1.7363 1.01599,2.38929 1.01598,3.03734 1.01597,3.66192 1.01598,4.23943 1.01599,4.74144 1.01599,5.13615 1.01598,5.39109 1.01597,5.47665 1.01598,5.37108 1.01597,5.06418 1.01601,4.56041 1.01598,3.87994 1.01597,3.05748 1.01598,2.13976 1.01597,1.18156 1.01601,0.24124 1.01598,-0.62445 1.01597,-1.36557 1.01598,-1.94376 1.01598,-2.33558 1.01599,-2.53386 1.01599,-2.54671 1.01597,-2.39474 1.01598,-2.1073 1.01597,-1.71892 1.016,-1.26614 1.01597,-0.78597 1.01599,-0.31461 1.01598,0.11281 1.01597,0.46286 1.01599,0.70517 1.01598,0.81423 1.01598,0.77246 1.01599,0.57377 1.01598,0.22611 1.01599,-0.24732 1.01598,-0.80949 1.01597,-1.41386 1.01599,-2.01059 1.01598,-2.553 1.01599,-3.00328 1.01597,-3.33534 1.01598,-3.5359 1.01597,-3.60297 1.016,-3.54353 1.01599,-3.37055 1.01597,-3.10058 1.01598,-2.75147 1.01597,-2.34093 1.01598,-1.88565 1.01601,-1.40095 1.01597,-0.90087 1.01598,-0.39839 1.01598,0.09375 1.01597,0.56275 1.01599,0.99507 1.01599,1.37633 1.01598,1.69154 1.01598,1.92604 1.01597,2.06726 1.01599,2.10671 1.01599,2.04275 1.01598,1.88268 1.01598,1.64384 1.01597,1.35299 1.01599,1.04403 1.01598,0.75342 1.01599,0.51594 1.01597,0.36016 1.01598,0.30565 1.01599,0.36195 1.01598,0.52904 1.01598,0.79844 1.01599,1.15512 1.01597,1.57825 1.01599,2.04173 1.01598,2.51418 1.01598,2.95802 1.01597,3.32961 1.01599,3.57995 1.016,3.65853 1.01597,3.5193 1.01598,3.13051 1.01597,2.485 1.01599,1.60884 1.01599,0.56318 1.01598,-0.56301 1.01598,-1.66849 1.01597,-2.659 1.01598,-3.46361 1.016,-4.04294 1.01598,-4.38883 1.01598,-4.51732 1.01597,-4.45894 1.01598,-4.24983 1.01599,-3.92534 1.01599,-3.51612 1.01598,-3.04673 1.01597,-2.53586 1.01598,-1.99712 1.01599,-0.22991"
       style="fill:none;stroke:#338eca;stroke-width:1.49442;stroke-linecap:butt;stroke-linejoin:miter;stroke-miterlimit:10;stroke-dasharray:none;stroke-opacity:1"
       transform="matrix(1.3333333,0,0,-1.3333333,42.817333,164.184)"
       clip-path="url(#clipPath21)" />
    <g
       id="g21"
       aria-label="DirectionofArrival[&#10;◦&#10;]"
       transform="matrix(1.3333333,0,0,1.3333333,102.064,199.496)">
      <path
         id="path22"
         d="m 1.4637187,-6.3632109 v 5.89453121 H 0.38559375 V 7.03125e-5 H 4.686375 c 1.9570312,0 3.4453125,-1.2304687125 3.4453125,-3.3515625125 0,-2.1914062 -1.4882813,-3.4804687 -3.4570313,-3.4804687 H 0.38559375 v 0.46875 z m 1.359375,5.89453121 V -6.3632109 h 1.453125 c 0.65625,0 1.4765625,0.1875 1.96875,0.8789062 0.3515625,0.515625 0.4335938,1.1953125 0.4335938,2.1210938 0,1.078125 -0.1289063,1.6054687 -0.4453125,2.0625 -0.4804688,0.66796871 -1.3476563,0.83203121 -1.9570313,0.83203121 z M 11.01157,-4.4882109 9.2889141,-4.4061797 v 0.46875 c 0.5859375,0 0.65625,0 0.65625,0.3867188 v 3.08203121 H 9.2537578 V 7.03125e-5 C 9.5584453,-0.01164844 10.050633,-0.03508594 10.472508,-0.03508594 c 0.292969,0 0.808594,0.0234375 1.160156,0.0351562525 V -0.46867969 H 11.01157 Z m 0.105469,-1.6523438 c 0,-0.4453125 -0.363281,-0.7851562 -0.773437,-0.7851562 -0.4335942,0 -0.7851567,0.3515625 -0.7851567,0.7851562 0,0.421875 0.3515625,0.7734375 0.7851567,0.7734375 0.410156,0 0.773437,-0.3398437 0.773437,-0.7734375 z m 2.876953,2.7890625 v -1.1367187 l -1.664062,0.082031 v 0.46875 c 0.621093,0 0.691406,0 0.691406,0.3867188 v 3.08203121 H 12.32993 V 7.03125e-5 C 12.681492,-0.01164844 13.126805,-0.03508594 13.595555,-0.03508594 c 0.375,0 1.007812,0 1.371093,0.0351562525 V -0.46867969 H 14.099461 V -2.2147734 c 0,-0.6914063 0.246094,-1.9101563 1.242187,-1.9101563 -0.01172,0.011719 -0.1875,0.1757813 -0.1875,0.4570313 0,0.4101562 0.316407,0.609375 0.609375,0.609375 0.292969,0 0.609375,-0.2109375 0.609375,-0.609375 0,-0.5273438 -0.539062,-0.8203125 -1.054687,-0.8203125 -0.703125,0 -1.101563,0.5039062 -1.324219,1.1367187 z m 7.297852,1.1835938 c 0.210937,0 0.316406,0 0.316406,-0.2695313 0,-0.3164062 -0.05859,-1.0429687 -0.5625,-1.5351562 -0.363281,-0.3632813 -0.890625,-0.5390625 -1.582031,-0.5390625 -1.59375,0 -2.460938,1.0195312 -2.460938,2.2734375 0,1.33593746 0.996094,2.29687496 2.601563,2.29687496 1.570312,0 2.003906,-1.0546875 2.003906,-1.21874996 0,-0.1875 -0.1875,-0.1875 -0.234375,-0.1875 -0.175781,0 -0.199219,0.046875 -0.257813,0.2109375 -0.210937,0.48046871 -0.773437,0.79687496 -1.417968,0.79687496 -1.40625,0 -1.417969,-1.32421876 -1.417969,-1.82812496 z m -3.011719,-0.328125 c 0.02344,-0.3984375 0.03516,-0.8085938 0.234375,-1.1367188 0.269531,-0.3984375 0.667969,-0.515625 0.949219,-0.515625 1.171875,0 1.183593,1.3007813 1.195312,1.6523438 z m 7.242187,-1.5585938 c -0.175781,0.1640625 -0.199218,0.3632813 -0.199218,0.4570313 0,0.4453125 0.351562,0.6328125 0.621093,0.6328125 0.304688,0 0.621094,-0.2109375 0.621094,-0.6328125 0,-0.8554688 -1.148437,-0.9140625 -1.734375,-0.9140625 -1.78125,0 -2.519531,1.1484375 -2.519531,2.296875 0,1.32421871 0.9375,2.27343746 2.472656,2.27343746 1.617188,0 1.910156,-1.16015626 1.910156,-1.21874996 0,-0.140625 -0.140625,-0.140625 -0.234375,-0.140625 -0.175781,0 -0.1875,0.011719 -0.234375,0.140625 -0.269531,0.63281246 -0.738281,0.82031246 -1.253906,0.82031246 -1.382812,0 -1.382812,-1.46484376 -1.382812,-1.92187496 0,-0.5625 0,-1.8515625 1.289062,-1.8515625 0.351563,0 0.515625,0.023437 0.644531,0.058594 z m 2.53711,0.1054688 v 2.71875 c 0,1.06640621 0.867187,1.28906246 1.570312,1.28906246 0.75,0 1.207032,-0.5625 1.207032,-1.28906246 v -0.5273438 h -0.46875 v 0.5039063 c 0,0.67968746 -0.316407,0.91406246 -0.597657,0.91406246 -0.585937,0 -0.585937,-0.6328125 -0.585937,-0.86718746 v -2.7421875 h 1.464844 v -0.46875 h -1.464844 v -1.9101563 h -0.457031 c -0.01172,0.9960938 -0.503907,1.9804688 -1.488282,2.015625 v 0.3632813 z m 5.651367,-0.5390625 -1.722656,0.082031 v 0.46875 c 0.585937,0 0.65625,0 0.65625,0.3867188 v 3.08203121 H 31.952977 V 7.03125e-5 c 0.304687,-0.0117187525 0.796875,-0.0351562525 1.21875,-0.0351562525 0.292968,0 0.808593,0.0234375 1.160156,0.0351562525 V -0.46867969 h -0.621094 z m 0.105469,-1.6523438 c 0,-0.4453125 -0.363281,-0.7851562 -0.773438,-0.7851562 -0.433593,0 -0.785156,0.3515625 -0.785156,0.7851562 0,0.421875 0.351563,0.7734375 0.785156,0.7734375 0.410157,0 0.773438,-0.3398437 0.773438,-0.7734375 z m 6.251953,3.9726563 c 0,-1.3359375 -0.914063,-2.34375 -2.542969,-2.34375 -1.628906,0 -2.542969,1.0195312 -2.542969,2.34375 0,1.23046871 0.878907,2.22656246 2.542969,2.22656246 1.675781,0 2.542969,-1.0078125 2.542969,-2.22656246 z m -2.542969,1.82812496 c -1.265625,0 -1.265625,-1.07812496 -1.265625,-1.94531246 0,-0.4453125 0,-0.9492188 0.164063,-1.2890625 0.199218,-0.375 0.609375,-0.5742188 1.101562,-0.5742188 0.421875,0 0.832031,0.1523438 1.054688,0.5039063 0.210937,0.3398437 0.210937,0.890625 0.210937,1.359375 0,0.8671875 0,1.94531246 -1.265625,1.94531246 z m 4.007813,-3.21093746 v 3.08203121 H 40.841648 V 7.03125e-5 c 0.28125,-0.0117187525 0.878907,-0.0351562525 1.253907,-0.0351562525 0.398437,0 0.984375,0.0234375 1.253906,0.0351562525 V -0.46867969 H 42.669773 V -2.5546172 c 0,-1.078125 0.855469,-1.5703125 1.476563,-1.5703125 0.339844,0 0.550781,0.2109375 0.550781,0.9726563 v 2.68359371 H 44.01743 V 7.03125e-5 C 44.286961,-0.01164844 44.884617,-0.03508594 45.271336,-0.03508594 c 0.386719,0 0.972656,0.0234375 1.253906,0.0351562525 V -0.46867969 H 45.833836 V -3.0468047 c 0,-1.0429687 -0.539063,-1.4414062 -1.535156,-1.4414062 -0.949219,0 -1.476563,0.5742187 -1.746094,1.078125 v -1.078125 l -1.710938,0.082031 v 0.46875 c 0.621094,0 0.691407,0 0.691407,0.386719 z m 14.446289,1.3828125 c 0,-1.3359375 -0.914063,-2.34375 -2.542969,-2.34375 -1.628906,0 -2.542969,1.0195312 -2.542969,2.34375 0,1.23046871 0.878906,2.22656246 2.542969,2.22656246 1.675781,0 2.542969,-1.0078125 2.542969,-2.22656246 z m -2.542969,1.82812496 c -1.265625,0 -1.265625,-1.07812496 -1.265625,-1.94531246 0,-0.4453125 0,-0.9492188 0.164062,-1.2890625 0.199219,-0.375 0.609375,-0.5742188 1.101563,-0.5742188 0.421875,0 0.832031,0.1523438 1.054687,0.5039063 0.210938,0.3398437 0.210938,0.890625 0.210938,1.359375 0,0.8671875 0,1.94531246 -1.265625,1.94531246 z m 4.02832,-4.07812496 h -0.738281 v 0.46875 h 0.738281 v 3.48046871 H 56.785008 V 7.03125e-5 C 57.13657,-0.01164844 57.581883,-0.03508594 58.038914,-0.03508594 c 0.375,0 1.019531,0 1.371094,0.0351562525 V -0.46867969 H 58.54282 V -3.9491484 h 1.148438 v -0.46875 h -1.207031 v -1.0078125 c 0,-1.1015625 0.761718,-1.1835938 1.007812,-1.1835938 0.04687,0 0.105469,0 0.164063,0.011719 -0.140625,0.1171875 -0.222657,0.3046875 -0.222657,0.4921875 0,0.421875 0.351563,0.6210937 0.609375,0.6210937 0.292969,0 0.609375,-0.2109375 0.609375,-0.6210937 0,-0.421875 -0.351562,-0.8671875 -1.125,-0.8671875 -0.984375,0 -2.0625,0.421875 -2.0625,1.546875 z m 10.889649,-2.2734375 c -0.105469,-0.2578125 -0.234375,-0.2578125 -0.398438,-0.2578125 -0.28125,0 -0.316406,0.070312 -0.386719,0.2578125 l -2.472656,5.98828121 c -0.05859,0.15234375 -0.09375,0.234375 -0.84375,0.234375 H 64.041844 V 7.03125e-5 C 64.416844,-0.01164844 64.897312,-0.03508594 65.202,-0.03508594 c 0.386719,0 0.949219,0 1.324219,0.0351562525 V -0.46867969 c -0.02344,0 -0.890625,0 -0.890625,-0.12890625 0,-0.0117188 0.02344,-0.10546875 0.03516,-0.1171875 L 66.17466,-1.9218047 h 2.671875 l 0.597656,1.45312501 H 68.494969 V 7.03125e-5 c 0.375,-0.0351562525 1.324218,-0.0351562525 1.746093,-0.0351562525 0.398438,0 1.277344,0 1.628907,0.0351562525 V -0.46867969 h -0.960938 z m -0.84375,1.5351562 1.136718,2.765625 h -2.273437 z m 6.808593,1.8046875 v -1.1367187 l -1.664062,0.082031 v 0.46875 c 0.621094,0 0.691406,0 0.691406,0.3867188 v 3.08203121 H 72.655125 V 7.03125e-5 C 73.006687,-0.01164844 73.452,-0.03508594 73.92075,-0.03508594 c 0.375,0 1.007812,0 1.371094,0.0351562525 V -0.46867969 H 74.424656 V -2.2147734 c 0,-0.6914063 0.246094,-1.9101563 1.242188,-1.9101563 -0.01172,0.011719 -0.1875,0.1757813 -0.1875,0.4570313 0,0.4101562 0.316406,0.609375 0.609375,0.609375 0.292968,0 0.609375,-0.2109375 0.609375,-0.609375 0,-0.5273438 -0.539063,-0.8203125 -1.054688,-0.8203125 -0.703125,0 -1.101562,0.5039062 -1.324219,1.1367187 z m 4.719727,0 v -1.1367187 l -1.664062,0.082031 v 0.46875 c 0.621093,0 0.691406,0 0.691406,0.3867188 v 3.08203121 H 77.374852 V 7.03125e-5 C 77.726414,-0.01164844 78.171727,-0.03508594 78.640477,-0.03508594 c 0.375,0 1.007812,0 1.371093,0.0351562525 V -0.46867969 H 79.144383 V -2.2147734 c 0,-0.6914063 0.246094,-1.9101563 1.242187,-1.9101563 -0.01172,0.011719 -0.1875,0.1757813 -0.1875,0.4570313 0,0.4101562 0.316407,0.609375 0.609375,0.609375 0.292969,0 0.609375,-0.2109375 0.609375,-0.609375 0,-0.5273438 -0.539062,-0.8203125 -1.054687,-0.8203125 -0.703125,0 -1.101563,0.5039062 -1.324219,1.1367187 z m 4.916016,-1.1367187 -1.722657,0.082031 v 0.46875 c 0.585938,0 0.65625,0 0.65625,0.3867188 v 3.08203121 H 82.197117 V 7.03125e-5 c 0.304688,-0.0117187525 0.796875,-0.0351562525 1.21875,-0.0351562525 0.292969,0 0.808594,0.0234375 1.160156,0.0351562525 V -0.46867969 H 83.95493 Z m 0.105468,-1.6523438 c 0,-0.4453125 -0.363281,-0.7851562 -0.773437,-0.7851562 -0.433594,0 -0.785156,0.3515625 -0.785156,0.7851562 0,0.421875 0.351562,0.7734375 0.785156,0.7734375 0.410156,0 0.773437,-0.3398437 0.773437,-0.7734375 z m 5.888672,2.390625 c 0.05859,-0.140625 0.105469,-0.1992187 0.738282,-0.1992187 v -0.46875 c -0.246094,0.011719 -0.539063,0.023437 -0.785157,0.023437 -0.246093,0 -0.703125,-0.023437 -0.902343,-0.023437 v 0.46875 c 0.1875,0 0.46875,0.023437 0.46875,0.1054687 0,0.011719 -0.01172,0.023437 -0.04687,0.1171875 l -1.160157,2.4960938 -1.253906,-2.71875 h 0.527344 v -0.46875 c -0.328125,0.011719 -1.21875,0.023437 -1.230469,0.023437 -0.28125,0 -0.726562,-0.023437 -1.136719,-0.023437 v 0.46875 h 0.644532 l 1.734375,3.73828121 c 0.117187,0.24609375 0.257812,0.24609375 0.386718,0.24609375 0.164063,0 0.269532,-0.0234375 0.363282,-0.234375 z m 4.098633,2.98828126 c 0,0.3046875 0,0.7617187525 1.03125,0.7617187525 h 0.480469 c 0.199219,0 0.316406,0 0.316406,-0.2343750025 0,-0.234375 -0.128906,-0.234375 -0.257812,-0.234375 -0.609375,-0.0117188 -0.609375,-0.140625 -0.609375,-0.36328125 V -2.9764922 c 0,-0.890625 -0.703125,-1.5351562 -2.191407,-1.5351562 -0.5625,0 -1.78125,0.035156 -1.78125,0.9140625 0,0.4453125 0.351563,0.6328125 0.621094,0.6328125 0.304688,0 0.621094,-0.2109375 0.621094,-0.6328125 0,-0.2929688 -0.1875,-0.46875 -0.210938,-0.4921875 0.28125,-0.058594 0.597657,-0.058594 0.714844,-0.058594 0.75,0 1.089844,0.4101563 1.089844,1.171875 v 0.3398438 c -0.703125,0.023437 -3.234375,0.1171875 -3.234375,1.5585937 0,0.96093751 1.242187,1.13671876 1.921875,1.13671876 0.796875,0 1.265625,-0.41015625 1.488281,-0.8203123 z M 93.871922,-2.3319609 v 0.9492187 c 0,0.94921876 -0.914063,1.07812501 -1.160156,1.07812501 -0.503907,0 -0.902344,-0.33984375 -0.902344,-0.78515621 0,-1.0664063 1.570312,-1.2070313 2.0625,-1.2421875 z m 4.245117,-4.5820313 -1.757812,0.082031 v 0.46875 c 0.621093,0 0.691406,0 0.691406,0.3867187 v 5.50781251 H 96.359227 V 7.03125e-5 C 96.675633,-0.01164844 97.156102,-0.03508594 97.589695,-0.03508594 c 0.421875,0 0.878907,0.0234375 1.21875,0.0351562525 V -0.46867969 h -0.691406 z m 7.687501,9.4101563 v -0.609375 h -1.03125 v -8.7539063 h 1.03125 v -0.609375 h -1.64063 v 9.9726563 z m 0,0"
         style="fill:#d9d9d9;fill-opacity:1;fill-rule:nonzero;stroke:none" />
      <path
         id="path23"
         d="m 110.08188,-5.3612578 c 0,-1.0546875 -0.70312,-1.734375 -1.72265,-1.734375 -1.05469,0 -1.73438,0.7148437 -1.73438,1.734375 0,1.0546875 0.70313,1.734375 1.73438,1.734375 1.04297,0 1.72265,-0.7148438 1.72265,-1.734375 z m -1.72265,1.21875 c -0.78516,0 -1.23047,-0.4804688 -1.23047,-1.21875 0,-0.7851563 0.49219,-1.21875 1.23047,-1.21875 0.77343,0 1.21875,0.4804687 1.21875,1.21875 0,0.7851562 -0.49219,1.21875 -1.21875,1.21875 z m 0,0"
         style="fill:#d9d9d9;fill-opacity:1;fill-rule:nonzero;stroke:none" />
      <path
         id="path24"
         d="m 113.04087,-7.4764922 h -1.65235 v 0.609375 h 1.04297 v 8.7539063 h -1.04297 v 0.609375 h 1.65235 z m 0,0"
         style="fill:#d9d9d9;fill-opacity:1;fill-rule:nonzero;stroke:none" />
    </g>
    <g
       id="g24"
       aria-label="CRLB[&#10;◦&#10;]"
       transform="matrix(0,-1.3333333,1.3333333,0,14.257333,131.02667)">
      <path
         id="path25"
         d="m 7.6283984,-6.6676094 c 0,-0.1875 0,-0.2695312 -0.1757812,-0.2695312 -0.09375,0 -0.1171875,0.011719 -0.1875,0.082031 l -0.65625,0.5859375 c -0.6210938,-0.4921875 -1.2890625,-0.6679687 -1.96875,-0.6679687 -2.484375,0 -4.00781251,1.4765625 -4.00781251,3.515625 0,2.0507812 1.52343751,3.52734373 4.00781251,3.52734373 1.8632812,0 2.9882812,-1.21875003 2.9882812,-2.36718753 0,-0.1992187 -0.070312,-0.2109375 -0.234375,-0.2109375 -0.1289062,0 -0.2226562,0 -0.234375,0.1757813 -0.070312,1.33593748 -1.2773437,1.93359373 -2.2734375,1.93359373 -0.7851562,0 -1.6171875,-0.234375 -2.1328125,-0.84375003 -0.46875,-0.5625 -0.5976562,-1.3125 -0.5976562,-2.2148437 0,-0.5507813 0.035156,-1.6289063 0.6679687,-2.2851563 0.6445313,-0.65625 1.5117188,-0.7734375 2.0273438,-0.7734375 1.078125,0 2.0273437,0.7617188 2.2382812,2.0273438 0.035156,0.1875 0.046875,0.2109375 0.2695313,0.2109375 0.2578125,0 0.2695312,-0.023437 0.2695312,-0.28125 z m 3.4716796,3.0703125 v -2.765625 h 1.171875 c 1.605469,0 1.617188,0.7734375 1.617188,1.3828125 0,0.5625 0,1.3828125 -1.640625,1.3828125 z m 2.660156,0.2109375 c 1.148438,-0.3046875 1.652344,-0.9492187 1.652344,-1.6054687 0,-1.0078125 -1.089844,-1.8398438 -2.964844,-1.8398438 H 8.6625781 v 0.46875 h 1.078125 v 5.89453128 H 8.6625781 V 3.59375e-4 C 9.0258594,-0.03479687 9.9985156,-0.03479687 10.420391,-0.03479687 c 0.410156,0 1.394531,0 1.746093,0.035156245 V -0.46839062 H 11.100078 V -3.2340156 h 1.160156 c 0.140625,0 0.574219,0 0.890625,0.3398437 0.316407,0.3398438 0.316407,0.5390625 0.316407,1.265625 0,0.65625003 0,1.13671878 0.691406,1.47656253 0.445312,0.22265625 1.054687,0.2578125 1.464844,0.2578125 1.066406,0 1.195312,-0.890625 1.195312,-1.0546875 0,-0.21093753 -0.140625,-0.21093753 -0.234375,-0.21093753 -0.210937,0 -0.222656,0.09375 -0.234375,0.22265628 -0.04687,0.46875 -0.339844,0.69140625 -0.632812,0.69140625 -0.597657,0 -0.691407,-0.71484375 -0.738282,-1.12500003 -0.02344,-0.1171875 -0.09375,-0.796875 -0.105468,-0.8554687 -0.140625,-0.6914063 -0.691407,-0.9960938 -1.113282,-1.1601563 z m 9.518555,0.65625 h -0.46875 c -0.08203,0.6914063 -0.257812,2.26171878 -2.039062,2.26171878 H 19.751445 V -6.3629219 h 1.335938 v -0.46875 c -0.433594,0.023437 -1.523438,0.023437 -2.003906,0.023437 -0.445313,0 -1.453125,0 -1.828125,-0.023437 v 0.46875 h 1.078125 v 5.89453128 H 17.255352 V 3.59375e-4 h 5.707031 z m 3.246094,-1.0078125 v -2.625 h 1.816406 c 1.007813,0 1.183594,0.7851563 1.183594,1.2421875 0,0.7734375 -0.480469,1.3828125 -1.441406,1.3828125 z m 2.695312,0.1757813 c 1.078125,-0.1875 1.722657,-0.7851563 1.722657,-1.5585938 0,-0.9140625 -0.867188,-1.7109375 -2.472657,-1.7109375 h -4.324218 v 0.46875 h 1.078125 v 5.89453128 H 24.145977 V 3.59375e-4 h 4.628906 c 1.652344,0 2.484375,-0.878906245 2.484375,-1.851562475 0,-0.9609375 -0.855469,-1.6289063 -2.039063,-1.7109375 z m -0.855468,3.09374998 H 26.524883 V -3.3746406 h 1.933594 c 0.199218,0 0.667968,0 1.007812,0.421875 0.328125,0.421875 0.328125,0.984375 0.328125,1.0898437 0,0.1171875 0,1.39453128 -1.429687,1.39453128 z M 38.64207,2.4964531 v -0.609375 h -1.03125 v -8.7539062 h 1.03125 v -0.609375 h -1.640625 v 9.9726562 z m 0,0"
         style="fill:#338eca;fill-opacity:1;fill-rule:nonzero;stroke:none" />
      <path
         id="path26"
         d="m 42.916484,-5.3609687 c 0,-1.0546875 -0.703125,-1.734375 -1.722656,-1.734375 -1.054687,0 -1.734375,0.7148437 -1.734375,1.734375 0,1.0546875 0.703125,1.734375 1.734375,1.734375 1.042969,0 1.722656,-0.7148438 1.722656,-1.734375 z m -1.722656,1.21875 c -0.785156,0 -1.230469,-0.4804688 -1.230469,-1.21875 0,-0.7851563 0.492188,-1.21875 1.230469,-1.21875 0.773438,0 1.21875,0.4804687 1.21875,1.21875 0,0.7851562 -0.492187,1.21875 -1.21875,1.21875 z m 0,0"
         style="fill:#338eca;fill-opacity:1;fill-rule:nonzero;stroke:none" />
      <path
         id="path27"
         d="m 45.875469,-7.4762031 h -1.652344 v 0.609375 h 1.042969 v 8.7539062 h -1.042969 v 0.609375 h 1.652344 z m 0,0"
         style="fill:#338eca;fill-opacity:1;fill-rule:nonzero;stroke:none" />
    </g>
    <path
       id="path28"
       d="m 7.62875,-6.6682422 c 0,-0.1875 0,-0.2695312 -0.1757813,-0.2695312 -0.09375,0 -0.1171875,0.011719 -0.1875,0.082031 l -0.65625,0.5859375 c -0.6210937,-0.4921875 -1.2890625,-0.6679687 -1.96875,-0.6679687 -2.4843749,0 -4.00781245,1.4765625 -4.00781245,3.515625 0,2.0507812 1.52343755,3.52734371 4.00781245,3.52734371 1.8632813,0 2.9882813,-1.21875001 2.9882813,-2.36718751 0,-0.1992187 -0.070312,-0.2109375 -0.234375,-0.2109375 -0.1289063,0 -0.2226563,0 -0.234375,0.1757813 -0.070312,1.33593746 -1.2773438,1.93359371 -2.2734375,1.93359371 -0.7851563,0 -1.6171875,-0.234375 -2.1328125,-0.84375001 -0.46875,-0.5625 -0.5976562,-1.3125 -0.5976562,-2.2148437 0,-0.5507813 0.035156,-1.6289063 0.6679687,-2.2851563 0.6445313,-0.65625 1.5117187,-0.7734375 2.0273437,-0.7734375 1.078125,0 2.0273438,0.7617188 2.2382813,2.0273438 0.035156,0.1875 0.046875,0.2109375 0.2695312,0.2109375 0.2578125,0 0.2695313,-0.023437 0.2695313,-0.28125 z m 3.47168,3.0703125 v -2.765625 h 1.171875 c 1.605468,0 1.617187,0.7734375 1.617187,1.3828125 0,0.5625 0,1.3828125 -1.640625,1.3828125 z m 2.660156,0.2109375 c 1.148437,-0.3046875 1.652344,-0.9492187 1.652344,-1.6054687 0,-1.0078125 -1.089844,-1.8398438 -2.964844,-1.8398438 H 8.6629297 v 0.46875 h 1.078125 v 5.89453126 H 8.6629297 V -2.734375e-4 C 9.0262109,-0.03542969 9.9988672,-0.03542969 10.420742,-0.03542969 c 0.410156,0 1.394531,0 1.746094,0.0351562525 V -0.46902344 H 11.10043 V -3.2346484 h 1.160156 c 0.140625,0 0.574219,0 0.890625,0.3398437 0.316406,0.3398438 0.316406,0.5390625 0.316406,1.265625 0,0.65625001 0,1.13671876 0.691406,1.47656251 0.445313,0.22265625 1.054688,0.2578125 1.464844,0.2578125 1.066406,0 1.195313,-0.890625 1.195313,-1.0546875 0,-0.21093751 -0.140625,-0.21093751 -0.234375,-0.21093751 -0.210938,0 -0.222657,0.09375 -0.234375,0.22265626 -0.04687,0.46875 -0.339844,0.69140625 -0.632813,0.69140625 -0.597656,0 -0.691406,-0.71484375 -0.738281,-1.12500001 -0.02344,-0.1171875 -0.09375,-0.796875 -0.105469,-0.8554687 -0.140625,-0.6914063 -0.691406,-0.9960938 -1.113281,-1.1601563 z m 9.518555,0.65625 h -0.46875 c -0.08203,0.6914063 -0.257813,2.26171876 -2.039063,2.26171876 H 19.751797 V -6.3635547 h 1.335937 v -0.46875 c -0.433593,0.023437 -1.523437,0.023437 -2.003906,0.023437 -0.445312,0 -1.453125,0 -1.828125,-0.023437 v 0.46875 h 1.078125 v 5.89453126 h -1.078125 v 0.4687500025 h 5.707031 z m 3.246093,-1.0078125 v -2.625 h 1.816407 c 1.007812,0 1.183593,0.7851563 1.183593,1.2421875 0,0.7734375 -0.480468,1.3828125 -1.441406,1.3828125 z m 2.695313,0.1757813 c 1.078125,-0.1875 1.722656,-0.7851563 1.722656,-1.5585938 0,-0.9140625 -0.867187,-1.7109375 -2.472656,-1.7109375 h -4.324219 v 0.46875 h 1.078125 v 5.89453126 h -1.078125 v 0.4687500025 h 4.628906 c 1.652344,0 2.484375,-0.8789062525 2.484375,-1.8515624625 0,-0.9609375 -0.855468,-1.6289063 -2.039062,-1.7109375 z m -0.855469,3.09374996 H 26.525234 V -3.3752734 h 1.933594 c 0.199219,0 0.667969,0 1.007813,0.421875 0.328125,0.421875 0.328125,0.984375 0.328125,1.0898437 0,0.1171875 0,1.39453126 -1.429688,1.39453126 z M 40.763516,-3.7502734 c 0.05859,-0.140625 0.105468,-0.1992188 0.738281,-0.1992188 v -0.46875 c -0.246094,0.011719 -0.539063,0.023437 -0.785156,0.023437 -0.246094,0 -0.703125,-0.023437 -0.902344,-0.023437 v 0.46875 c 0.1875,0 0.46875,0.023437 0.46875,0.1054688 0,0.011719 -0.01172,0.023437 -0.04687,0.1171875 l -1.160156,2.4960937 -1.253907,-2.71875 h 0.527344 v -0.46875 c -0.328125,0.011719 -1.21875,0.023437 -1.230469,0.023437 -0.28125,0 -0.726562,-0.023437 -1.136718,-0.023437 v 0.46875 h 0.644531 l 1.734375,3.73828126 c 0.117187,0.24609375 0.257812,0.24609375 0.386719,0.24609375 0.164062,0 0.269531,-0.0234375 0.363281,-0.234375 z m 3.105468,0.8203125 c -0.363281,-0.070312 -1.007812,-0.1757813 -1.007812,-0.6445313 0,-0.6210937 0.925781,-0.6210937 1.113281,-0.6210937 0.75,0 1.125,0.2929687 1.171875,0.84375 0.01172,0.140625 0.02344,0.1992187 0.234375,0.1992187 0.234375,0 0.234375,-0.058594 0.234375,-0.28125 v -0.796875 c 0,-0.1875 0,-0.28125 -0.175781,-0.28125 -0.04687,0 -0.05859,0 -0.445313,0.1875 -0.269531,-0.1289062 -0.609375,-0.1875 -1.007812,-0.1875 -0.304688,0 -1.839844,0 -1.839844,1.3007813 0,0.3984375 0.199219,0.6679687 0.398438,0.84375 0.398437,0.3398437 0.785156,0.4101562 1.546875,0.5390625 0.363281,0.070312 1.101562,0.1992187 1.101562,0.7851562 0,0.73828126 -0.914062,0.73828126 -1.125,0.73828126 -1.066406,0 -1.324219,-0.72656246 -1.441406,-1.14843746 -0.04687,-0.140625 -0.09375,-0.140625 -0.234375,-0.140625 -0.246094,0 -0.246094,0.058594 -0.246094,0.2929687 v 1.07812501 c 0,0.1875 0,0.28125 0.1875,0.28125 0.07031,0 0.08203,0 0.292969,-0.15234375 0.01172,0 0.234375,-0.140625 0.257812,-0.1640625 0.457032,0.31640625 0.984375,0.31640625 1.183594,0.31640625 0.304688,0 1.839844,0 1.839844,-1.45312501 0,-0.4335937 -0.199219,-0.7734375 -0.550781,-1.0546875 -0.386719,-0.2929687 -0.703125,-0.3515625 -1.488282,-0.4804687 z m 11.683594,1.6171875 -2.390625,-5.2734375 c -0.105469,-0.2460938 -0.222656,-0.2460938 -0.433594,-0.2460938 h -2.214843 v 0.46875 h 1.078125 v 5.60156251 c 0,0.22265625 -0.01172,0.234375 -0.292969,0.2578125 -0.234375,0.0351562 -0.257813,0.0351562 -0.539063,0.0351562 h -0.246093 v 0.4687500025 c 0.375,-0.0351562525 0.949218,-0.0351562525 1.335937,-0.0351562525 0.421875,0 0.9375,0 1.347656,0.0351562525 V -0.46902344 h -0.257812 c -0.175781,0 -0.339844,-0.0117188 -0.527344,-0.0351562 -0.28125,-0.0234375 -0.292969,-0.0351563 -0.292969,-0.2578125 V -6.2346484 h 0.01172 l 2.707031,5.98828121 c 0.09375,0.19921875 0.210938,0.2460937525 0.316407,0.2460937525 0.199218,0 0.28125,-0.1523437525 0.316406,-0.2343750025 l 2.777344,-6.12890626 h 0.01172 v 5.89453126 h -1.066406 v 0.4687500025 c 0.351563,-0.0351562525 1.277344,-0.0351562525 1.6875,-0.0351562525 0.410156,0 1.347656,0 1.699219,0.0351562525 V -0.46902344 H 59.513516 V -6.3635547 h 1.066406 v -0.46875 h -2.191406 c -0.222657,0 -0.339844,0 -0.445313,0.2460938 z m 9.448242,-2.8125 -1.453125,-0.3046875 c -0.398437,-0.09375 -0.949218,-0.4335938 -0.949218,-1.0429688 0,-0.421875 0.28125,-1.0429687 1.277343,-1.0429687 0.796875,0 1.804688,0.3398437 2.027344,1.6992187 0.03516,0.234375 0.03516,0.2578125 0.246094,0.2578125 0.246094,0 0.246094,-0.058594 0.246094,-0.28125 v -1.828125 c 0,-0.1875 0,-0.2695312 -0.1875,-0.2695312 -0.07031,0 -0.08203,0 -0.199219,0.1054687 l -0.445313,0.4335938 c -0.574218,-0.4570313 -1.21875,-0.5390625 -1.699218,-0.5390625 -1.511719,0 -2.238282,0.9492187 -2.238282,1.9921875 0,0.65625 0.328125,1.1132812 0.539063,1.3242187 0.492187,0.4921875 0.832031,0.5625 1.921875,0.796875 0.867187,0.1992188 1.042969,0.2226563 1.253906,0.4335938 0.152344,0.1523437 0.398438,0.4101562 0.398438,0.8671875 0,0.4804687 -0.257813,1.16015621 -1.289063,1.16015621 -0.761719,0 -2.273437,-0.19921875 -2.355469,-1.67578121 0,-0.1875 0,-0.234375 -0.222656,-0.234375 -0.246094,0 -0.246094,0.058594 -0.246094,0.2929687 v 1.81640626 c 0,0.1875 0,0.26953125 0.1875,0.26953125 0.08203,0 0.105469,-0.01171875 0.1875,-0.08203125 l 0.457032,-0.45703125 c 0.65625,0.48046875 1.582031,0.5390625 1.992187,0.5390625 1.640625,0 2.261719,-1.12500001 2.261719,-2.13281251 0,-1.1015625 -0.808594,-1.9101562 -1.710938,-2.0976562 z m 9.5625,1.3945312 h -0.46875 c -0.222656,1.3710938 -0.503906,2.26171876 -2.34375,2.26171876 H 70.239102 V -3.2815234 h 0.539062 c 0.960938,0 1.066406,0.4335937 1.066406,1.171875 h 0.457032 V -4.9104297 H 71.84457 c 0,0.7382813 -0.09375,1.1601563 -1.066406,1.1601563 h -0.539062 v -2.5546875 h 1.511718 c 1.605469,0 1.863282,0.7265625 2.015625,1.9335937 h 0.46875 l -0.304687,-2.4023437 h -6.1875 v 0.46875 h 1.078125 v 5.83593746 h -1.078125 v 0.4687500025 h 6.351562 z m 9.539063,0.5625 c 0,-1.3359375 -0.914063,-2.34375 -2.542969,-2.34375 -1.628906,0 -2.542969,1.0195313 -2.542969,2.34375 0,1.23046876 0.878907,2.22656251 2.542969,2.22656251 1.675781,0 2.542969,-1.0078125 2.542969,-2.22656251 z m -2.542969,1.82812501 c -1.265625,0 -1.265625,-1.07812501 -1.265625,-1.94531251 0,-0.4453125 0,-0.9492187 0.164063,-1.2890625 0.199218,-0.375 0.609375,-0.5742187 1.101562,-0.5742187 0.421875,0 0.832031,0.1523437 1.054688,0.5039062 0.210937,0.3398438 0.210937,0.890625 0.210937,1.359375 0,0.8671875 0,1.94531251 -1.265625,1.94531251 z m 4.03125,-4.07812501 h -0.738281 v 0.46875 h 0.738281 v 3.48046876 H 84.910977 V -2.734375e-4 C 85.262539,-0.01199219 85.707852,-0.03542969 86.164883,-0.03542969 c 0.375,0 1.019531,0 1.371094,0.0351562525 V -0.46902344 H 86.668789 V -3.9494922 h 1.148438 v -0.46875 h -1.207032 v -1.0078125 c 0,-1.1015625 0.761719,-1.1835937 1.007813,-1.1835937 0.04687,0 0.105469,0 0.164062,0.011719 -0.140625,0.1171875 -0.222656,0.3046875 -0.222656,0.4921875 0,0.421875 0.351563,0.6210938 0.609375,0.6210938 0.292969,0 0.609375,-0.2109375 0.609375,-0.6210938 0,-0.421875 -0.351562,-0.8671875 -1.125,-0.8671875 -0.984375,0 -2.0625,0.421875 -2.0625,1.546875 z m 9.682617,-1.7929687 c 0,-0.2109375 0,-0.3164063 -0.257812,-0.3164063 -0.117188,0 -0.128907,0 -0.222657,0.070312 -0.761718,0.5742188 -1.792968,0.5742188 -2.003906,0.5742188 h -0.199219 v 0.46875 h 0.199219 c 0.164063,0 0.714844,-0.011719 1.300781,-0.1992188 v 5.14453126 H 92.706875 V -2.734375e-4 C 93.140469,-0.03542969 94.195156,-0.03542969 94.687344,-0.03542969 c 0.480468,0 1.546875,0 1.980468,0.0351562525 V -0.46902344 h -1.394531 z m 7.473629,3.0351562 c 0,-0.9726562 -0.0117,-3.3515625 -2.41406,-3.3515625 -2.402342,0 -2.414061,2.3789063 -2.414061,3.3515625 0,0.984375 0.01172,3.28125001 2.414061,3.28125001 2.39063,0 2.41406,-2.28515621 2.41406,-3.28125001 z m -2.41406,2.92968751 c -0.36328,0 -0.914061,-0.22265625 -1.042967,-0.94921871 -0.09375,-0.515625 -0.09375,-1.5585938 -0.09375,-2.0976563 0,-0.7265625 0,-1.3710937 0.08203,-1.8867187 0.117188,-0.890625 0.820317,-0.984375 1.054687,-0.984375 0.36328,0 0.77344,0.1875 0.96094,0.6210937 0.17578,0.375 0.17578,1.4296875 0.17578,2.25 0,0.5507813 0,1.4648438 -0.0703,1.9804688 -0.14063,0.92578121 -0.77344,1.06640621 -1.06641,1.06640621 z m 8.14453,-2.92968751 c 0,-0.9726562 -0.0117,-3.3515625 -2.41406,-3.3515625 -2.40234,0 -2.41406,2.3789063 -2.41406,3.3515625 0,0.984375 0.0117,3.28125001 2.41406,3.28125001 2.39063,0 2.41406,-2.28515621 2.41406,-3.28125001 z m -2.41406,2.92968751 c -0.36328,0 -0.91406,-0.22265625 -1.04297,-0.94921871 -0.0937,-0.515625 -0.0937,-1.5585938 -0.0937,-2.0976563 0,-0.7265625 0,-1.3710937 0.082,-1.8867187 0.11719,-0.890625 0.82032,-0.984375 1.05469,-0.984375 0.36328,0 0.77344,0.1875 0.96094,0.6210937 0.17578,0.375 0.17578,1.4296875 0.17578,2.25 0,0.5507813 0,1.4648438 -0.0703,1.9804688 -0.14063,0.92578121 -0.77344,1.06640621 -1.06641,1.06640621 z m 14.01855,-3.50390621 c 0.0586,-0.1289063 0.0937,-0.1992188 0.67969,-0.1992188 v -0.46875 c -0.22265,0.011719 -0.52734,0.023437 -0.76172,0.023437 -0.26953,0 -0.73828,-0.023437 -0.96093,-0.023437 v 0.46875 c 0.0937,0 0.58593,0 0.58593,0.1171875 0,0.023437 -0.0352,0.082031 -0.0469,0.1171875 l -1.04297,2.5546875 -1.13672,-2.7890625 h 0.5625 v -0.46875 c -0.32812,0 -0.84375,0.023437 -1.13672,0.023437 -0.42187,0 -0.84375,-0.023437 -0.99609,-0.023437 v 0.46875 h 0.58594 c 0.21093,0.4921875 0.21093,0.515625 0.21093,0.5273438 0,0.035156 -0.0352,0.09375 -0.0469,0.1289062 l -0.78516,1.9101563 -1.04297,-2.5664063 h 0.55078 v -0.46875 c -0.39843,0.011719 -0.80859,0.023437 -1.21875,0.023437 -0.30468,0 -0.75,-0.023437 -1.08984,-0.023437 v 0.46875 h 0.58594 l 1.52344,3.71484376 c 0.0703,0.17578125 0.11718,0.26953125 0.36328,0.26953125 0.24609,0 0.29297,-0.09375 0.36328,-0.26953125 l 1.05469,-2.57812496 1.05468,2.57812496 c 0.0703,0.17578125 0.10547,0.26953125 0.35157,0.26953125 0.25781,0 0.29296,-0.09375 0.36328,-0.26953125 z m 3.167,-0.7382813 -1.72266,0.082031 v 0.46875 c 0.58594,0 0.65625,0 0.65625,0.3867187 v 3.08203126 h -0.69141 v 0.4687500025 c 0.30469,-0.0117187525 0.79688,-0.0351562525 1.21875,-0.0351562525 0.29297,0 0.8086,0.0234375 1.16016,0.0351562525 V -0.46902344 h -0.62109 z m 0.10547,-1.6523437 c 0,-0.4453125 -0.36329,-0.7851563 -0.77344,-0.7851563 -0.4336,0 -0.78516,0.3515625 -0.78516,0.7851563 0,0.421875 0.35156,0.7734375 0.78516,0.7734375 0.41015,0 0.77344,-0.3398438 0.77344,-0.7734375 z m 5.00976,5.70703121 v 0.4921875 l 1.82813,-0.0585937475 V -0.46902344 c -0.6211,0 -0.69141,0 -0.69141,-0.38671875 V -6.9143359 l -1.75781,0.082031 v 0.46875 c 0.60937,0 0.67969,0 0.67969,0.3867188 v 1.9453125 c -0.49219,-0.3867188 -1.00782,-0.4570313 -1.33594,-0.4570313 -1.45313,0 -2.50781,0.8789063 -2.50781,2.2851563 0,1.31249996 0.92578,2.26171871 2.39062,2.26171871 0.60938,0 1.08984,-0.234375 1.39453,-0.4921873 z m 0,-3.08203121 v 2.484375 c -0.1289,0.18749996 -0.53906,0.72656246 -1.28906,0.72656246 -1.21875,0 -1.21875,-1.19531246 -1.21875,-1.89843746 0,-0.4804688 0,-1.0195313 0.25781,-1.40625 0.29297,-0.4101563 0.76172,-0.515625 1.06641,-0.515625 0.57422,0 0.97265,0.3164062 1.18359,0.609375 z m 6.81152,1.3476562 c 0.21094,0 0.31641,0 0.31641,-0.2695312 0,-0.3164063 -0.0586,-1.0429688 -0.5625,-1.5351563 -0.36328,-0.3632812 -0.89062,-0.5390625 -1.58203,-0.5390625 -1.59375,0 -2.46094,1.0195313 -2.46094,2.2734375 0,1.33593751 0.9961,2.29687501 2.60156,2.29687501 1.57032,0 2.00391,-1.0546875 2.00391,-1.21875001 0,-0.1875 -0.1875,-0.1875 -0.23437,-0.1875 -0.17579,0 -0.19922,0.046875 -0.25782,0.2109375 -0.21093,0.48046876 -0.77343,0.79687501 -1.41797,0.79687501 -1.40625,0 -1.41796,-1.32421871 -1.41796,-1.82812501 z m -3.01171,-0.328125 c 0.0234,-0.3984375 0.0352,-0.8085937 0.23437,-1.1367187 0.26953,-0.3984375 0.66797,-0.515625 0.94922,-0.515625 1.17187,0 1.18359,1.3007812 1.19531,1.6523437 z m 5.78906,-1.5 v -2.9179687 l -1.76953,0.082031 v 0.46875 c 0.62109,0 0.6914,0 0.6914,0.3867188 v 5.9765624625 h 0.46875 l 0.49219,-0.5625000025 c 0.082,0.0820312 0.5625,0.62109375 1.45313,0.62109375 1.47656,0 2.50781,-0.890625 2.50781,-2.28515621 0,-1.3242188 -0.9375,-2.2617188 -2.37891,-2.2617188 -0.72656,0 -1.23047,0.2929688 -1.46484,0.4921877 z m 0.0586,3.01171876 V -3.4924609 c 0.26953,-0.3398438 0.75,-0.6328125 1.30078,-0.6328125 1.20703,0 1.20703,1.2070312 1.20703,1.8984375 0,0.46875 0,1.0195312 -0.25781,1.40624996 -0.29297,0.41015625 -0.75,0.515625 -1.0664,0.515625 -0.69141,0 -1.07813,-0.52734375 -1.1836,-0.6796875 z m 7.90137,0.22265625 c 0,0.3046875 0,0.7617187525 1.03125,0.7617187525 h 0.48047 c 0.19922,0 0.3164,0 0.3164,-0.2343750025 0,-0.234375 -0.1289,-0.234375 -0.25781,-0.234375 -0.60937,-0.0117188 -0.60937,-0.140625 -0.60937,-0.36328125 V -2.9768359 c 0,-0.890625 -0.70313,-1.5351563 -2.19141,-1.5351563 -0.5625,0 -1.78125,0.035156 -1.78125,0.9140625 0,0.4453125 0.35156,0.6328125 0.62109,0.6328125 0.30469,0 0.6211,-0.2109375 0.6211,-0.6328125 0,-0.2929687 -0.1875,-0.46875 -0.21094,-0.4921875 0.28125,-0.058594 0.59766,-0.058594 0.71484,-0.058594 0.75,0 1.08985,0.4101562 1.08985,1.171875 v 0.3398437 c -0.70313,0.023437 -3.23438,0.1171875 -3.23438,1.5585938 0,0.96093746 1.24219,1.13671871 1.92188,1.13671871 0.79687,0 1.26562,-0.41015625 1.48828,-0.8203122 z m -0.17578,-1.57031251 v 0.9492188 c 0,0.94921871 -0.91406,1.07812496 -1.16016,1.07812496 -0.5039,0 -0.90234,-0.33984375 -0.90234,-0.78515626 0,-1.0664062 1.57031,-1.2070312 2.0625,-1.2421875 z m 3.15527,-1.21875 v 3.08203126 h -0.6914 v 0.4687500025 c 0.28125,-0.0117187525 0.8789,-0.0351562525 1.2539,-0.0351562525 0.39844,0 0.98438,0.0234375 1.25391,0.0351562525 V -0.46902344 h -0.67969 V -2.5549609 c 0,-1.078125 0.85547,-1.5703125 1.47656,-1.5703125 0.33985,0 0.55078,0.2109375 0.55078,0.9726562 v 2.68359376 h -0.67968 v 0.4687500025 c 0.26953,-0.0117187525 0.86718,-0.0351562525 1.2539,-0.0351562525 0.38672,0 0.97266,0.0234375 1.25391,0.0351562525 V -0.46902344 H 153.1932 V -3.0471484 c 0,-1.0429688 -0.53906,-1.4414063 -1.53515,-1.4414063 -0.94922,0 -1.47657,0.5742188 -1.7461,1.078125 v -1.078125 l -1.71093,0.082031 v 0.46875 c 0.62109,0 0.6914,0 0.6914,0.3867187 z m 9.38672,3.11718751 v 0.4921875 l 1.82813,-0.0585937475 V -0.46902344 c -0.6211,0 -0.69141,0 -0.69141,-0.38671875 V -6.9143359 l -1.75781,0.082031 v 0.46875 c 0.60937,0 0.67968,0 0.67968,0.3867188 v 1.9453125 c -0.49218,-0.3867188 -1.00781,-0.4570313 -1.33593,-0.4570313 -1.45313,0 -2.50782,0.8789063 -2.50782,2.2851563 0,1.31249996 0.92579,2.26171871 2.39063,2.26171871 0.60937,0 1.08984,-0.234375 1.39453,-0.4921873 z m 0,-3.08203121 v 2.484375 c -0.12891,0.18749996 -0.53906,0.72656246 -1.28906,0.72656246 -1.21875,0 -1.21875,-1.19531246 -1.21875,-1.89843746 0,-0.4804688 0,-1.0195313 0.25781,-1.40625 0.29297,-0.4101563 0.76172,-0.515625 1.06641,-0.515625 0.57422,0 0.97265,0.3164062 1.18359,0.609375 z m 7.16895,-0.035156 v 3.08203126 h -0.69141 v 0.4687500025 c 0.28125,-0.0117187525 0.87891,-0.0351562525 1.25391,-0.0351562525 0.39843,0 0.98437,0.0234375 1.2539,0.0351562525 V -0.46902344 h -0.6797 V -2.5549609 c 0,-1.078125 0.85547,-1.5703125 1.47657,-1.5703125 0.33984,0 0.55078,0.2109375 0.55078,0.9726562 v 2.68359376 h -0.67969 v 0.4687500025 c 0.26953,-0.0117187525 0.86719,-0.0351562525 1.25391,-0.0351562525 0.38672,0 0.97265,0.0234375 1.2539,0.0351562525 V -0.46902344 h -0.6914 V -3.0471484 c 0,-1.0429688 -0.53907,-1.4414063 -1.53516,-1.4414063 -0.94922,0 -1.47656,0.5742188 -1.74609,1.078125 v -1.078125 l -1.71094,0.082031 v 0.46875 c 0.62109,0 0.69141,0 0.69141,0.3867187 z m 10.6289,1.3828125 c 0,-1.3359375 -0.91406,-2.34375 -2.54297,-2.34375 -1.6289,0 -2.54297,1.0195313 -2.54297,2.34375 0,1.23046876 0.87891,2.22656251 2.54297,2.22656251 1.67578,0 2.54297,-1.0078125 2.54297,-2.22656251 z m -2.54297,1.82812501 c -1.26562,0 -1.26562,-1.07812501 -1.26562,-1.94531251 0,-0.4453125 0,-0.9492187 0.16406,-1.2890625 0.19922,-0.375 0.60938,-0.5742187 1.10156,-0.5742187 0.42188,0 0.83203,0.1523437 1.05469,0.5039062 0.21094,0.3398438 0.21094,0.890625 0.21094,1.359375 0,0.8671875 0,1.94531251 -1.26563,1.94531251 z m 5.09766,-4.14843751 -1.72266,0.082031 v 0.46875 c 0.58594,0 0.65625,0 0.65625,0.3867187 v 3.08203126 h -0.6914 v 0.4687500025 c 0.30468,-0.0117187525 0.79687,-0.0351562525 1.21875,-0.0351562525 0.29297,0 0.80859,0.0234375 1.16015,0.0351562525 V -0.46902344 h -0.62109 z m 0.10547,-1.6523437 c 0,-0.4453125 -0.36328,-0.7851563 -0.77344,-0.7851563 -0.43359,0 -0.78516,0.3515625 -0.78516,0.7851563 0,0.421875 0.35157,0.7734375 0.78516,0.7734375 0.41016,0 0.77344,-0.3398438 0.77344,-0.7734375 z m 2.94726,3.2109375 c -0.36328,-0.070312 -1.00781,-0.1757813 -1.00781,-0.6445313 0,-0.6210937 0.92578,-0.6210937 1.11328,-0.6210937 0.75,0 1.125,0.2929687 1.17188,0.84375 0.0117,0.140625 0.0234,0.1992187 0.23437,0.1992187 0.23438,0 0.23438,-0.058594 0.23438,-0.28125 v -0.796875 c 0,-0.1875 0,-0.28125 -0.17578,-0.28125 -0.0469,0 -0.0586,0 -0.44532,0.1875 -0.26953,-0.1289062 -0.60937,-0.1875 -1.00781,-0.1875 -0.30469,0 -1.83984,0 -1.83984,1.3007813 0,0.3984375 0.19922,0.6679687 0.39844,0.84375 0.39843,0.3398437 0.78515,0.4101562 1.54687,0.5390625 0.36328,0.070312 1.10156,0.1992187 1.10156,0.7851562 0,0.73828126 -0.91406,0.73828126 -1.125,0.73828126 -1.0664,0 -1.32422,-0.72656246 -1.4414,-1.14843746 -0.0469,-0.140625 -0.0937,-0.140625 -0.23438,-0.140625 -0.24609,0 -0.24609,0.058594 -0.24609,0.2929687 v 1.07812501 c 0,0.1875 0,0.28125 0.1875,0.28125 0.0703,0 0.082,0 0.29297,-0.15234375 0.0117,0 0.23437,-0.140625 0.25781,-0.1640625 0.45703,0.31640625 0.98437,0.31640625 1.18359,0.31640625 0.30469,0 1.83985,0 1.83985,-1.45312501 0,-0.4335937 -0.19922,-0.7734375 -0.55078,-1.0546875 -0.38672,-0.2929687 -0.70313,-0.3515625 -1.48829,-0.4804687 z m 7.02539,0.7617187 c 0.21094,0 0.31641,0 0.31641,-0.2695312 0,-0.3164063 -0.0586,-1.0429688 -0.5625,-1.5351563 -0.36328,-0.3632812 -0.89062,-0.5390625 -1.58203,-0.5390625 -1.59375,0 -2.46094,1.0195313 -2.46094,2.2734375 0,1.33593751 0.9961,2.29687501 2.60156,2.29687501 1.57032,0 2.00391,-1.0546875 2.00391,-1.21875001 0,-0.1875 -0.1875,-0.1875 -0.23437,-0.1875 -0.17579,0 -0.19922,0.046875 -0.25782,0.2109375 -0.21093,0.48046876 -0.77343,0.79687501 -1.41797,0.79687501 -1.40625,0 -1.41796,-1.32421871 -1.41796,-1.82812501 z m -3.01171,-0.328125 c 0.0234,-0.3984375 0.0351,-0.8085937 0.23437,-1.1367187 0.26953,-0.3984375 0.66797,-0.515625 0.94922,-0.515625 1.17187,0 1.18359,1.3007812 1.19531,1.6523437 z m 9.57128,-0.4335937 c -0.36328,-0.070312 -1.00781,-0.1757813 -1.00781,-0.6445313 0,-0.6210937 0.92578,-0.6210937 1.11328,-0.6210937 0.75,0 1.125,0.2929687 1.17188,0.84375 0.0117,0.140625 0.0234,0.1992187 0.23437,0.1992187 0.23438,0 0.23438,-0.058594 0.23438,-0.28125 v -0.796875 c 0,-0.1875 0,-0.28125 -0.17578,-0.28125 -0.0469,0 -0.0586,0 -0.44532,0.1875 -0.26953,-0.1289062 -0.60937,-0.1875 -1.00781,-0.1875 -0.30469,0 -1.83984,0 -1.83984,1.3007813 0,0.3984375 0.19922,0.6679687 0.39844,0.84375 0.39843,0.3398437 0.78515,0.4101562 1.54687,0.5390625 0.36328,0.070312 1.10156,0.1992187 1.10156,0.7851562 0,0.73828126 -0.91406,0.73828126 -1.125,0.73828126 -1.0664,0 -1.32422,-0.72656246 -1.4414,-1.14843746 -0.0469,-0.140625 -0.0937,-0.140625 -0.23438,-0.140625 -0.24609,0 -0.24609,0.058594 -0.24609,0.2929687 v 1.07812501 c 0,0.1875 0,0.28125 0.1875,0.28125 0.0703,0 0.082,0 0.29297,-0.15234375 0.0117,0 0.23437,-0.140625 0.25781,-0.1640625 0.45703,0.31640625 0.98437,0.31640625 1.18359,0.31640625 0.30469,0 1.83985,0 1.83985,-1.45312501 0,-0.4335937 -0.19922,-0.7734375 -0.55078,-1.0546875 -0.38672,-0.2929687 -0.70313,-0.3515625 -1.48829,-0.4804687 z m 4.64942,-1.5585938 -1.72266,0.082031 v 0.46875 c 0.58594,0 0.65625,0 0.65625,0.3867187 v 3.08203126 h -0.6914 v 0.4687500025 c 0.30468,-0.0117187525 0.79687,-0.0351562525 1.21875,-0.0351562525 0.29297,0 0.80859,0.0234375 1.16015,0.0351562525 V -0.46902344 h -0.62109 z m 0.10547,-1.6523437 c 0,-0.4453125 -0.36328,-0.7851563 -0.77344,-0.7851563 -0.43359,0 -0.78516,0.3515625 -0.78516,0.7851563 0,0.421875 0.35157,0.7734375 0.78516,0.7734375 0.41016,0 0.77344,-0.3398438 0.77344,-0.7734375 z m 3.39258,4.2421875 c -0.87891,0 -0.87891,-0.65625 -0.87891,-1.1132813 0,-0.4453125 0,-1.1132812 0.87891,-1.1132812 0.8789,0 0.8789,0.6679687 0.8789,1.1132812 0,0.4570313 0,1.1132813 -0.8789,1.1132813 z m -1.21875,0.1054687 c 0.45703,0.234375 0.97265,0.2578125 1.21875,0.2578125 1.42968,0 1.98046,-0.7734375 1.98046,-1.4765625 0,-0.46875 -0.24609,-0.796875 -0.39843,-0.9492187 0.29297,-0.1640625 0.5039,-0.1875 0.62109,-0.1875 -0.0234,0.046875 -0.0469,0.1289062 -0.0469,0.1992187 0,0.2460938 0.17578,0.421875 0.43359,0.421875 0.25781,0 0.42187,-0.1875 0.42187,-0.421875 0,-0.234375 -0.16406,-0.5859375 -0.62109,-0.5859375 -0.15234,0 -0.62109,0.035156 -1.05469,0.3867188 -0.1875,-0.1289063 -0.59765,-0.3398438 -1.33593,-0.3398438 -1.44141,0 -1.98047,0.7851563 -1.98047,1.4765625 0,0.4101563 0.19922,0.8203125 0.51562,1.0546875 -0.28125,0.3398438 -0.33984,0.6679688 -0.33984,0.8789063 0,0.15234371 0.0351,0.64453121 0.43359,0.96093746 -0.1289,0.0234375 -0.85547,0.234375 -0.85547,0.8671875 0,0.50390624 0.55078,1.25390624 2.54297,1.25390624 1.75781,0 2.54297,-0.5859375 2.54297,-1.28906249 0,-0.29296875 -0.082,-0.92578125 -0.75,-1.265625 -0.5625,-0.28125 -1.16016,-0.28125 -2.10937,-0.28125 -0.25782,0 -0.71485,0 -0.77344,0 -0.4336,-0.0703125 -0.53906,-0.45703121 -0.53906,-0.63281251 0,-0.09375 0.0351,-0.2460937 0.0937,-0.328125 z m 0.62109,1.92187501 h 1.16016 c 0.3164,0 1.4414,0 1.4414,0.62109375 0,0.35156254 -0.39844,0.89062504 -1.6875,0.89062504 -1.19531,0 -1.6875,-0.4570313 -1.6875,-0.91406254 0,-0.59765625 0.63281,-0.59765625 0.77344,-0.59765625 z m 4.91894,-3.67968751 v 3.08203126 h -0.6914 v 0.4687500025 c 0.28125,-0.0117187525 0.8789,-0.0351562525 1.2539,-0.0351562525 0.39844,0 0.98438,0.0234375 1.25391,0.0351562525 V -0.46902344 h -0.67969 V -2.5549609 c 0,-1.078125 0.85547,-1.5703125 1.47657,-1.5703125 0.33984,0 0.55078,0.2109375 0.55078,0.9726562 v 2.68359376 h -0.67969 v 0.4687500025 c 0.26953,-0.0117187525 0.86719,-0.0351562525 1.25391,-0.0351562525 0.38671,0 0.97265,0.0234375 1.2539,0.0351562525 V -0.46902344 h -0.6914 V -3.0471484 c 0,-1.0429688 -0.53907,-1.4414063 -1.53516,-1.4414063 -0.94922,0 -1.47656,0.5742188 -1.74609,1.078125 v -1.078125 l -1.71094,0.082031 v 0.46875 c 0.62109,0 0.6914,0 0.6914,0.3867193 z m 8.95606,2.78906251 c 0,0.3046875 0,0.7617187525 1.03125,0.7617187525 h 0.48047 c 0.19922,0 0.3164,0 0.3164,-0.2343750025 0,-0.234375 -0.1289,-0.234375 -0.25781,-0.234375 -0.60937,-0.0117188 -0.60937,-0.140625 -0.60937,-0.36328125 V -2.9768359 c 0,-0.890625 -0.70313,-1.5351563 -2.19141,-1.5351563 -0.5625,0 -1.78125,0.035156 -1.78125,0.9140625 0,0.4453125 0.35156,0.6328125 0.62109,0.6328125 0.30469,0 0.6211,-0.2109375 0.6211,-0.6328125 0,-0.2929687 -0.1875,-0.46875 -0.21094,-0.4921875 0.28125,-0.058594 0.59766,-0.058594 0.71484,-0.058594 0.75,0 1.08985,0.4101562 1.08985,1.171875 v 0.3398437 c -0.70313,0.023437 -3.23438,0.1171875 -3.23438,1.5585938 0,0.96093746 1.24219,1.13671871 1.92188,1.13671871 0.79687,0 1.26562,-0.41015625 1.48828,-0.8203119 z M 216.5184,-2.3323047 v 0.9492188 c 0,0.94921871 -0.91406,1.07812496 -1.16016,1.07812496 -0.5039,0 -0.90234,-0.33984375 -0.90234,-0.78515626 0,-1.0664062 1.57031,-1.2070312 2.0625,-1.2421875 z m 4.24512,-4.5820312 -1.75782,0.082031 v 0.46875 c 0.6211,0 0.69141,0 0.69141,0.3867188 v 5.50781246 h -0.69141 v 0.4687500025 c 0.31641,-0.0117187525 0.79688,-0.0351562525 1.23047,-0.0351562525 0.42188,0 0.87891,0.0234375 1.21875,0.0351562525 V -0.46902344 h -0.6914 z m 3.05273,3.984375 c -0.36328,-0.070312 -1.00781,-0.1757813 -1.00781,-0.6445313 0,-0.6210937 0.92578,-0.6210937 1.11328,-0.6210937 0.75,0 1.125,0.2929687 1.17187,0.84375 0.0117,0.140625 0.0234,0.1992187 0.23438,0.1992187 0.23437,0 0.23437,-0.058594 0.23437,-0.28125 v -0.796875 c 0,-0.1875 0,-0.28125 -0.17578,-0.28125 -0.0469,0 -0.0586,0 -0.44531,0.1875 -0.26953,-0.1289062 -0.60938,-0.1875 -1.00781,-0.1875 -0.30469,0 -1.83985,0 -1.83985,1.3007813 0,0.3984375 0.19922,0.6679687 0.39844,0.84375 0.39844,0.3398437 0.78516,0.4101562 1.54688,0.5390625 0.36328,0.070312 1.10156,0.1992187 1.10156,0.7851562 0,0.73828126 -0.91406,0.73828126 -1.125,0.73828126 -1.06641,0 -1.32422,-0.72656246 -1.44141,-1.14843746 -0.0469,-0.140625 -0.0937,-0.140625 -0.23437,-0.140625 -0.2461,0 -0.2461,0.058594 -0.2461,0.2929687 v 1.07812501 c 0,0.1875 0,0.28125 0.1875,0.28125 0.0703,0 0.082,0 0.29297,-0.15234375 0.0117,0 0.23438,-0.140625 0.25781,-0.1640625 0.45704,0.31640625 0.98438,0.31640625 1.1836,0.31640625 0.30469,0 1.83984,0 1.83984,-1.45312501 0,-0.4335937 -0.19922,-0.7734375 -0.55078,-1.0546875 -0.38672,-0.2929687 -0.70312,-0.3515625 -1.48828,-0.4804687 z m 0,0"
       style="fill:#d9d9d9;fill-opacity:1;fill-rule:nonzero;stroke:none"
       aria-label="CRLBvsMSEof100widebandnoisesignals"
       transform="matrix(1.3333333,0,0,1.3333333,27.453333,13.293333)" />
    <path
       id="path29"
       d="m 203.19632,314.69844 h -4.25227 m 4.25227,25.1684 h -4.25227 m 4.25227,25.16839 h -4.25227 m 4.25227,25.1684 h -4.25227"
       style="fill:none;stroke:#d95319;stroke-width:0.19925;stroke-linecap:butt;stroke-linejoin:miter;stroke-miterlimit:10;stroke-dasharray:none;stroke-opacity:1"
       transform="matrix(1.3333333,0,0,-1.3333333,42.817333,583.776)" />
    <path
       id="path30"
       d="m 203.19632,314.69844 v 96.89833"
       style="fill:none;stroke:#d95319;stroke-width:1.0959;stroke-linecap:butt;stroke-linejoin:miter;stroke-miterlimit:10;stroke-dasharray:none;stroke-opacity:1"
       transform="matrix(1.3333333,0,0,-1.3333333,42.817333,583.776)" />
    <path
       id="path31"
       d="m 4.5810781,-3.1868672 c 0,-0.796875 -0.046875,-1.59375 -0.3984375,-2.3320312 -0.4570312,-0.9609375 -1.2773437,-1.1132813 -1.6875,-1.1132813 -0.5976562,0 -1.3359375,0.2578125 -1.73437497,1.1835938 -0.328125,0.6914062 -0.375,1.4648437 -0.375,2.2617187 0,0.75 0.046875,1.640625 0.4453125,2.40234376 0.43359377,0.80859375 1.16015627,1.0078125 1.65234377,1.0078125 0.5390625,0 1.2890625,-0.2109375 1.734375,-1.16015625 C 4.5342031,-1.6282734 4.5810781,-2.4017109 4.5810781,-3.1868672 Z M 2.4834219,6.328125e-4 c -0.3867188,0 -0.984375,-0.2460937525 -1.1601563,-1.2070312125 -0.1054687,-0.5976563 -0.1054687,-1.5117188 -0.1054687,-2.0976563 0,-0.6445312 0,-1.3007812 0.082031,-1.8398437 0.1875,-1.1835938 0.9257813,-1.265625 1.1835938,-1.265625 0.328125,0 0.984375,0.1757812 1.171875,1.1601562 0.09375,0.5625 0.09375,1.3125 0.09375,1.9453125 0,0.75 0,1.4179688 -0.1054688,2.0625 C 3.4912344,-0.30405469 2.9287344,6.328125e-4 2.4834219,6.328125e-4 Z m 0,0"
       style="fill:#d95319;fill-opacity:1;fill-rule:nonzero;stroke:none"
       aria-label="0"
       transform="matrix(1.3333333,0,0,1.3333333,319.16533,168.464)" />
    <g
       id="g31"
       aria-label="0.2"
       transform="matrix(1.3333333,0,0,1.3333333,319.16533,134.90667)">
      <path
         id="path32"
         d="m 4.5810781,-3.1878125 c 0,-0.796875 -0.046875,-1.59375 -0.3984375,-2.3320312 -0.4570312,-0.9609375 -1.2773437,-1.1132813 -1.6875,-1.1132813 -0.5976562,0 -1.3359375,0.2578125 -1.73437497,1.1835938 -0.328125,0.6914062 -0.375,1.4648437 -0.375,2.2617187 0,0.75 0.046875,1.640625 0.4453125,2.40234375 0.43359377,0.80859375 1.16015627,1.0078125 1.65234377,1.0078125 0.5390625,0 1.2890625,-0.2109375 1.734375,-1.16015625 0.3164062,-0.6914062 0.3632812,-1.4648437 0.3632812,-2.25 z m -2.0976562,3.1875 c -0.3867188,0 -0.984375,-0.24609375 -1.1601563,-1.2070312 C 1.2177969,-1.805 1.2177969,-2.7190625 1.2177969,-3.305 c 0,-0.6445312 0,-1.3007812 0.082031,-1.8398437 0.1875,-1.1835938 0.9257813,-1.265625 1.1835938,-1.265625 0.328125,0 0.984375,0.1757812 1.171875,1.1601562 0.09375,0.5625 0.09375,1.3125 0.09375,1.9453125 0,0.75 0,1.4179688 -0.1054688,2.0625 -0.1523435,0.9375 -0.7148435,1.2421875 -1.160156,1.2421875 z m 0,0"
         style="fill:#d95319;fill-opacity:1;fill-rule:nonzero;stroke:none" />
      <path
         id="path33"
         d="M 6.8926016,-0.52765625 C 6.8926016,-0.820625 6.6582266,-1.055 6.3652578,-1.055 c -0.28125,0 -0.5273437,0.234375 -0.5273437,0.52734375 0,0.29296875 0.2460937,0.52734375 0.5273437,0.52734375 0.2929688,0 0.5273438,-0.234375 0.5273438,-0.52734375 z m 0,0"
         style="fill:#d95319;fill-opacity:1;fill-rule:nonzero;stroke:none" />
      <path
         id="path34"
         d="M 9.0136953,-0.76203125 10.068383,-1.7932812 c 1.558594,-1.3710938 2.15625,-1.9101563 2.15625,-2.90625 0,-1.1367188 -0.902344,-1.9335938 -2.121094,-1.9335938 -1.1249999,0 -1.8515624,0.9140625 -1.8515624,1.8046875 0,0.5507813 0.4921875,0.5507813 0.5273437,0.5507813 0.1640625,0 0.515625,-0.1171875 0.515625,-0.5273438 0,-0.2578125 -0.1875,-0.515625 -0.5273437,-0.515625 -0.082031,0 -0.1054688,0 -0.1289063,0.011719 0.2226563,-0.6445313 0.7617188,-1.0195313 1.3359375,-1.0195313 0.9140622,0 1.3359372,0.8085938 1.3359372,1.6289063 0,0.796875 -0.492187,1.5820312 -1.042968,2.203125 L 8.3574453,-0.36359375 C 8.2519766,-0.258125 8.2519766,-0.2346875 8.2519766,-3.125e-4 h 3.6914064 l 0.28125,-1.734375 H 11.96682 c -0.04687,0.3046875 -0.117187,0.73828125 -0.210937,0.890625 -0.07031,0.0820313 -0.726563,0.0820313 -0.949219,0.0820313 z m 0,0"
         style="fill:#d95319;fill-opacity:1;fill-rule:nonzero;stroke:none" />
    </g>
    <g
       id="g34"
       aria-label="0.4"
       transform="matrix(1.3333333,0,0,1.3333333,319.16533,101.34933)">
      <path
         id="path35"
         d="m 4.5810781,-3.1887578 c 0,-0.796875 -0.046875,-1.59375 -0.3984375,-2.3320313 -0.4570312,-0.9609375 -1.2773437,-1.1132812 -1.6875,-1.1132812 -0.5976562,0 -1.3359375,0.2578125 -1.73437497,1.1835937 -0.328125,0.6914063 -0.375,1.4648438 -0.375,2.2617188 0,0.75 0.046875,1.640625 0.4453125,2.40234374 0.43359377,0.80859375 1.16015627,1.0078125 1.65234377,1.0078125 0.5390625,0 1.2890625,-0.2109375 1.734375,-1.16015625 C 4.5342031,-1.6301641 4.5810781,-2.4036016 4.5810781,-3.1887578 Z m -2.0976562,3.18749999 c -0.3867188,0 -0.984375,-0.24609375 -1.1601563,-1.20703129 -0.1054687,-0.5976562 -0.1054687,-1.5117187 -0.1054687,-2.0976562 0,-0.6445313 0,-1.3007813 0.082031,-1.8398438 0.1875,-1.1835937 0.9257813,-1.265625 1.1835938,-1.265625 0.328125,0 0.984375,0.1757813 1.171875,1.1601563 0.09375,0.5625 0.09375,1.3125 0.09375,1.9453125 0,0.75 0,1.4179687 -0.1054688,2.0625 -0.1523437,0.93749999 -0.7148437,1.24218749 -1.160156,1.24218749 z m 0,0"
         style="fill:#d95319;fill-opacity:1;fill-rule:nonzero;stroke:none" />
      <path
         id="path36"
         d="m 6.8926016,-0.52860156 c 0,-0.29296875 -0.234375,-0.52734374 -0.5273438,-0.52734374 -0.28125,0 -0.5273437,0.23437499 -0.5273437,0.52734374 0,0.29296875 0.2460937,0.52734375 0.5273437,0.52734375 0.2929688,0 0.5273438,-0.234375 0.5273438,-0.52734375 z m 0,0"
         style="fill:#d95319;fill-opacity:1;fill-rule:nonzero;stroke:none" />
      <path
         id="path37"
         d="m 10.677758,-1.6418828 v 0.86718749 c 0,0.3515625 -0.02344,0.46875 -0.7617189,0.46875 H 9.7051016 v 0.3046875 c 0.4101564,-0.03515625 0.9375004,-0.03515625 1.3476564,-0.03515625 0.421875,0 0.949219,0 1.359375,0.03515625 v -0.3046875 h -0.210938 c -0.738281,0 -0.761718,-0.1171875 -0.761718,-0.46875 V -1.6418828 h 0.996093 v -0.3164063 h -0.996093 v -4.5234375 c 0,-0.1992187 0,-0.2578125 -0.152344,-0.2578125 -0.09375,0 -0.117188,0 -0.199219,0.1171875 l -3.0585937,4.6640625 v 0.3164063 z m 0.05859,-0.3164063 H 8.3105703 l 2.4257817,-3.7148437 z m 0,0"
         style="fill:#d95319;fill-opacity:1;fill-rule:nonzero;stroke:none" />
    </g>
    <g
       id="g37"
       aria-label="0.6"
       transform="matrix(1.3333333,0,0,1.3333333,319.16533,67.792)">
      <path
         id="path38"
         d="m 4.5810781,-3.1867734 c 0,-0.796875 -0.046875,-1.59375 -0.3984375,-2.3320313 -0.4570312,-0.9609375 -1.2773437,-1.1132812 -1.6875,-1.1132812 -0.5976562,0 -1.3359375,0.2578125 -1.73437497,1.1835937 -0.328125,0.6914063 -0.375,1.4648438 -0.375,2.2617188 0,0.75 0.046875,1.640625 0.4453125,2.40234371 0.43359377,0.80859375 1.16015627,1.0078125 1.65234377,1.0078125 0.5390625,0 1.2890625,-0.2109375 1.734375,-1.16015625 C 4.5342031,-1.6281797 4.5810781,-2.4016172 4.5810781,-3.1867734 Z M 2.4834219,7.265625e-4 c -0.3867188,0 -0.984375,-0.2460937525 -1.1601563,-1.2070312625 -0.1054687,-0.5976562 -0.1054687,-1.5117187 -0.1054687,-2.0976562 0,-0.6445313 0,-1.3007813 0.082031,-1.8398438 0.1875,-1.1835937 0.9257813,-1.265625 1.1835938,-1.265625 0.328125,0 0.984375,0.1757813 1.171875,1.1601563 0.09375,0.5625 0.09375,1.3125 0.09375,1.9453125 0,0.75 0,1.4179687 -0.1054688,2.0625 C 3.4912344,-0.30396094 2.9287344,7.265625e-4 2.4834219,7.265625e-4 Z m 0,0"
         style="fill:#d95319;fill-opacity:1;fill-rule:nonzero;stroke:none" />
      <path
         id="path39"
         d="m 6.8926016,-0.52661719 c 0,-0.29296875 -0.234375,-0.52734371 -0.5273438,-0.52734371 -0.28125,0 -0.5273437,0.23437496 -0.5273437,0.52734371 0,0.29296875 0.2460937,0.5273437525 0.5273437,0.5273437525 0.2929688,0 0.5273438,-0.2343750025 0.5273438,-0.5273437525 z m 0,0"
         style="fill:#d95319;fill-opacity:1;fill-rule:nonzero;stroke:none" />
      <path
         id="path40"
         d="m 9.0605703,-3.2688047 v -0.234375 c 0,-2.5195312 1.2421877,-2.8828125 1.7460937,-2.8828125 0.234375,0 0.65625,0.058594 0.878906,0.3984375 -0.152343,0 -0.550781,0 -0.550781,0.4453125 0,0.3164063 0.234375,0.4570313 0.457031,0.4570313 0.164063,0 0.457032,-0.082031 0.457032,-0.46875 0,-0.5976563 -0.433594,-1.078125 -1.265625,-1.078125 -1.2773442,0 -2.6132817,1.2890625 -2.6132817,3.4804687 0,2.66015626 1.1484375,3.37500001 2.0742187,3.37500001 1.113281,0 2.050781,-0.9375 2.050781,-2.25000001 0,-1.265625 -0.878906,-2.2265625 -1.992187,-2.2265625 -0.6679689,0 -1.0429689,0.5039063 -1.2421877,0.984375 z m 1.1835937,3.21093751 c -0.6210937,0 -0.9257812,-0.59765625 -0.9843749,-0.75 C 9.0840078,-1.2766172 9.0840078,-2.0734922 9.0840078,-2.2492734 c 0,-0.7734375 0.3164063,-1.7695313 1.2187502,-1.7695313 0.152344,0 0.609375,0 0.925781,0.609375 0.175781,0.375 0.175781,0.8789063 0.175781,1.3710938 0,0.4804687 0,0.9726562 -0.164062,1.33593746 -0.304688,0.59765625 -0.761719,0.64453125 -0.996094,0.64453125 z m 0,0"
         style="fill:#d95319;fill-opacity:1;fill-rule:nonzero;stroke:none" />
    </g>
    <path
       id="path43"
       d="m 4.51547,326.18782 8.46651,5.18468 8.46652,65.76501 8.46651,-2.12671 8.46651,-68.43287 8.46652,1.47235 8.4665,-2.74336 8.46653,-4.01435 8.4665,7.58827 8.46653,18.33516 8.4665,-19.06506 8.46653,18.49878 8.4665,-17.86957 8.46651,-5.85165 8.46652,25.49559 8.46651,26.06186 8.46652,-52.87877 8.46651,2.99502 8.46652,2.71819 8.46651,-4.29122 8.46652,16.87542 8.46651,-5.71321 8.46652,-10.57074 8.46651,1.78694"
       style="fill:none;stroke:#d95319;stroke-width:1.49442;stroke-linecap:butt;stroke-linejoin:miter;stroke-miterlimit:10;stroke-dasharray:1.49442, 1.99255;stroke-dashoffset:0;stroke-opacity:1"
       transform="matrix(1.3333333,0,0,-1.3333333,42.817333,583.776)"
       clip-path="url(#clipPath44)" />
    <path
       id="path45"
       d="m 2.40204,324.0744 4.22685,4.22685 m -4.22685,0 4.22685,-4.22685"
       style="fill:none;stroke:#d95319;stroke-width:1.49442;stroke-linecap:butt;stroke-linejoin:miter;stroke-miterlimit:10;stroke-dasharray:none;stroke-opacity:1"
       transform="matrix(1.3333333,0,0,-1.3333333,42.817333,583.776)" />
    <path
       id="path46"
       d="m 10.86856,329.25908 4.22684,4.22685 m -4.22684,0 4.22684,-4.22685"
       style="fill:none;stroke:#d95319;stroke-width:1.49442;stroke-linecap:butt;stroke-linejoin:miter;stroke-miterlimit:10;stroke-dasharray:none;stroke-opacity:1"
       transform="matrix(1.3333333,0,0,-1.3333333,42.817333,583.776)" />
    <path
       id="path47"
       d="m 19.33507,395.02408 4.22685,4.22685 m -4.22685,0 4.22685,-4.22685"
       style="fill:none;stroke:#d95319;stroke-width:1.49442;stroke-linecap:butt;stroke-linejoin:miter;stroke-miterlimit:10;stroke-dasharray:none;stroke-opacity:1"
       transform="matrix(1.3333333,0,0,-1.3333333,42.817333,583.776)" />
    <path
       id="path48"
       d="m 27.80159,392.89737 4.22684,4.22685 m -4.22684,0 4.22684,-4.22685"
       style="fill:none;stroke:#d95319;stroke-width:1.49442;stroke-linecap:butt;stroke-linejoin:miter;stroke-miterlimit:10;stroke-dasharray:none;stroke-opacity:1"
       transform="matrix(1.3333333,0,0,-1.3333333,42.817333,583.776)" />
    <path
       id="path49"
       d="m 36.2681,324.4645 4.22685,4.22685 m -4.22685,0 4.22685,-4.22685"
       style="fill:none;stroke:#d95319;stroke-width:1.49442;stroke-linecap:butt;stroke-linejoin:miter;stroke-miterlimit:10;stroke-dasharray:none;stroke-opacity:1"
       transform="matrix(1.3333333,0,0,-1.3333333,42.817333,583.776)" />
    <path
       id="path50"
       d="m 44.7346,325.93686 4.22686,4.22684 m -4.22686,0 4.22686,-4.22684"
       style="fill:none;stroke:#d95319;stroke-width:1.49442;stroke-linecap:butt;stroke-linejoin:miter;stroke-miterlimit:10;stroke-dasharray:none;stroke-opacity:1"
       transform="matrix(1.3333333,0,0,-1.3333333,42.817333,583.776)" />
    <path
       id="path51"
       d="m 53.20113,323.1935 4.22685,4.22683 m -4.22685,0 4.22685,-4.22683"
       style="fill:none;stroke:#d95319;stroke-width:1.49442;stroke-linecap:butt;stroke-linejoin:miter;stroke-miterlimit:10;stroke-dasharray:none;stroke-opacity:1"
       transform="matrix(1.3333333,0,0,-1.3333333,42.817333,583.776)" />
    <path
       id="path52"
       d="m 61.66763,319.17915 4.22686,4.22685 m -4.22686,0 4.22686,-4.22685"
       style="fill:none;stroke:#d95319;stroke-width:1.49442;stroke-linecap:butt;stroke-linejoin:miter;stroke-miterlimit:10;stroke-dasharray:none;stroke-opacity:1"
       transform="matrix(1.3333333,0,0,-1.3333333,42.817333,583.776)" />
    <path
       id="path53"
       d="m 70.13416,326.76741 4.22685,4.22685 m -4.22685,0 4.22685,-4.22685"
       style="fill:none;stroke:#d95319;stroke-width:1.49442;stroke-linecap:butt;stroke-linejoin:miter;stroke-miterlimit:10;stroke-dasharray:none;stroke-opacity:1"
       transform="matrix(1.3333333,0,0,-1.3333333,42.817333,583.776)" />
    <path
       id="path54"
       d="m 78.60066,345.10258 4.22685,4.22686 m -4.22685,0 4.22685,-4.22686"
       style="fill:none;stroke:#d95319;stroke-width:1.49442;stroke-linecap:butt;stroke-linejoin:miter;stroke-miterlimit:10;stroke-dasharray:none;stroke-opacity:1"
       transform="matrix(1.3333333,0,0,-1.3333333,42.817333,583.776)" />
    <path
       id="path55"
       d="m 87.06718,326.03752 4.22686,4.22685 m -4.22686,0 4.22686,-4.22685"
       style="fill:none;stroke:#d95319;stroke-width:1.49442;stroke-linecap:butt;stroke-linejoin:miter;stroke-miterlimit:10;stroke-dasharray:none;stroke-opacity:1"
       transform="matrix(1.3333333,0,0,-1.3333333,42.817333,583.776)" />
    <path
       id="path56"
       d="m 95.53369,344.53629 4.22685,4.22685 m -4.22685,0 4.22685,-4.22685"
       style="fill:none;stroke:#d95319;stroke-width:1.49442;stroke-linecap:butt;stroke-linejoin:miter;stroke-miterlimit:10;stroke-dasharray:none;stroke-opacity:1"
       transform="matrix(1.3333333,0,0,-1.3333333,42.817333,583.776)" />
    <path
       id="path57"
       d="m 104.00021,326.66673 4.22684,4.22686 m -4.22684,0 4.22684,-4.22686"
       style="fill:none;stroke:#d95319;stroke-width:1.49442;stroke-linecap:butt;stroke-linejoin:miter;stroke-miterlimit:10;stroke-dasharray:none;stroke-opacity:1"
       transform="matrix(1.3333333,0,0,-1.3333333,42.817333,583.776)" />
    <path
       id="path58"
       d="m 112.46672,320.81508 4.22685,4.22685 m -4.22685,0 4.22685,-4.22685"
       style="fill:none;stroke:#d95319;stroke-width:1.49442;stroke-linecap:butt;stroke-linejoin:miter;stroke-miterlimit:10;stroke-dasharray:none;stroke-opacity:1"
       transform="matrix(1.3333333,0,0,-1.3333333,42.817333,583.776)" />
    <path
       id="path59"
       d="m 120.93324,346.31067 4.22684,4.22685 m -4.22684,0 4.22684,-4.22685"
       style="fill:none;stroke:#d95319;stroke-width:1.49442;stroke-linecap:butt;stroke-linejoin:miter;stroke-miterlimit:10;stroke-dasharray:none;stroke-opacity:1"
       transform="matrix(1.3333333,0,0,-1.3333333,42.817333,583.776)" />
    <path
       id="path60"
       d="m 129.39975,372.37253 4.22685,4.22685 m -4.22685,0 4.22685,-4.22685"
       style="fill:none;stroke:#d95319;stroke-width:1.49442;stroke-linecap:butt;stroke-linejoin:miter;stroke-miterlimit:10;stroke-dasharray:none;stroke-opacity:1"
       transform="matrix(1.3333333,0,0,-1.3333333,42.817333,583.776)" />
    <path
       id="path61"
       d="m 137.86626,319.49376 4.22685,4.22684 m -4.22685,0 4.22685,-4.22684"
       style="fill:none;stroke:#d95319;stroke-width:1.49442;stroke-linecap:butt;stroke-linejoin:miter;stroke-miterlimit:10;stroke-dasharray:none;stroke-opacity:1"
       transform="matrix(1.3333333,0,0,-1.3333333,42.817333,583.776)" />
    <path
       id="path62"
       d="m 146.33278,322.48877 4.22685,4.22685 m -4.22685,0 4.22685,-4.22685"
       style="fill:none;stroke:#d95319;stroke-width:1.49442;stroke-linecap:butt;stroke-linejoin:miter;stroke-miterlimit:10;stroke-dasharray:none;stroke-opacity:1"
       transform="matrix(1.3333333,0,0,-1.3333333,42.817333,583.776)" />
    <path
       id="path63"
       d="m 154.79929,325.20695 4.22685,4.22685 m -4.22685,0 4.22685,-4.22685"
       style="fill:none;stroke:#d95319;stroke-width:1.49442;stroke-linecap:butt;stroke-linejoin:miter;stroke-miterlimit:10;stroke-dasharray:none;stroke-opacity:1"
       transform="matrix(1.3333333,0,0,-1.3333333,42.817333,583.776)" />
    <path
       id="path64"
       d="m 163.26581,320.91574 4.22685,4.22686 m -4.22685,0 4.22685,-4.22686"
       style="fill:none;stroke:#d95319;stroke-width:1.49442;stroke-linecap:butt;stroke-linejoin:miter;stroke-miterlimit:10;stroke-dasharray:none;stroke-opacity:1"
       transform="matrix(1.3333333,0,0,-1.3333333,42.817333,583.776)" />
    <path
       id="path65"
       d="m 171.73232,337.79115 4.22685,4.22685 m -4.22685,0 4.22685,-4.22685"
       style="fill:none;stroke:#d95319;stroke-width:1.49442;stroke-linecap:butt;stroke-linejoin:miter;stroke-miterlimit:10;stroke-dasharray:none;stroke-opacity:1"
       transform="matrix(1.3333333,0,0,-1.3333333,42.817333,583.776)" />
    <path
       id="path66"
       d="m 180.19884,332.07796 4.22683,4.22684 m -4.22683,0 4.22683,-4.22684"
       style="fill:none;stroke:#d95319;stroke-width:1.49442;stroke-linecap:butt;stroke-linejoin:miter;stroke-miterlimit:10;stroke-dasharray:none;stroke-opacity:1"
       transform="matrix(1.3333333,0,0,-1.3333333,42.817333,583.776)" />
    <path
       id="path67"
       d="m 188.66534,321.50722 4.22686,4.22683 m -4.22686,0 4.22686,-4.22683"
       style="fill:none;stroke:#d95319;stroke-width:1.49442;stroke-linecap:butt;stroke-linejoin:miter;stroke-miterlimit:10;stroke-dasharray:none;stroke-opacity:1"
       transform="matrix(1.3333333,0,0,-1.3333333,42.817333,583.776)" />
    <path
       id="path68"
       d="m 197.13187,323.29416 4.22683,4.22685 m -4.22683,0 4.22683,-4.22685"
       style="fill:none;stroke:#d95319;stroke-width:1.49442;stroke-linecap:butt;stroke-linejoin:miter;stroke-miterlimit:10;stroke-dasharray:none;stroke-opacity:1"
       transform="matrix(1.3333333,0,0,-1.3333333,42.817333,583.776)" />
    <g
       id="g68"
       aria-label="MSE[&#10;◦&#10;]"
       transform="matrix(0,-1.3333333,1.3333333,0,363.28667,125.94)">
      <path
         id="path69"
         d="M 5.4364453,-1.3136328 3.0458203,-6.5870703 C 2.9403516,-6.8331641 2.8231641,-6.8331641 2.6122266,-6.8331641 H 0.39738281 v 0.46875 H 1.4755078 v 5.60156254 c 0,0.22265625 -0.011719,0.234375 -0.2929687,0.2578125 -0.23437504,0.0351563 -0.25781254,0.0351563 -0.53906254,0.0351563 H 0.39738281 v 0.46875 c 0.375,-0.03515625 0.94921879,-0.03515625 1.33593749,-0.03515625 0.421875,0 0.9375,0 1.3476563,0.03515625 v -0.46875 H 2.8231641 c -0.1757813,0 -0.3398438,-0.0117188 -0.5273438,-0.0351563 -0.28125,-0.0234375 -0.2929687,-0.0351563 -0.2929687,-0.2578125 V -6.2355078 h 0.011719 l 2.7070313,5.98828124 c 0.09375,0.19921875 0.2109375,0.24609375 0.3164062,0.24609375 0.1992188,0 0.28125,-0.15234375 0.3164063,-0.234375 L 8.1317578,-6.3644141 h 0.011719 v 5.89453129 H 7.0770703 v 0.46875 c 0.3515625,-0.03515625 1.2773438,-0.03515625 1.6875,-0.03515625 0.4101563,0 1.3476567,0 1.6992187,0.03515625 v -0.46875 H 9.3973828 V -6.3644141 h 1.0664062 v -0.46875 H 8.2723828 c -0.2226562,0 -0.3398437,0 -0.4453125,0.2460938 z m 9.4482417,-2.8125 -1.453125,-0.3046875 c -0.398437,-0.09375 -0.949218,-0.4335938 -0.949218,-1.0429688 0,-0.421875 0.28125,-1.0429687 1.277343,-1.0429687 0.796875,0 1.804688,0.3398437 2.027344,1.6992187 0.03516,0.234375 0.03516,0.2578125 0.246094,0.2578125 0.246094,0 0.246094,-0.058594 0.246094,-0.28125 v -1.828125 c 0,-0.1875 0,-0.2695312 -0.1875,-0.2695312 -0.07031,0 -0.08203,0 -0.199219,0.1054687 l -0.445313,0.4335938 c -0.574218,-0.4570313 -1.21875,-0.5390625 -1.699218,-0.5390625 -1.511719,0 -2.238282,0.9492187 -2.238282,1.9921875 0,0.65625 0.328125,1.1132812 0.539063,1.3242187 0.492187,0.4921875 0.832031,0.5625 1.921875,0.796875 0.867187,0.1992188 1.042969,0.2226563 1.253906,0.4335938 0.152344,0.1523437 0.398438,0.4101562 0.398438,0.8671875 0,0.4804687 -0.257813,1.16015624 -1.289063,1.16015624 -0.761719,0 -2.273437,-0.19921875 -2.355469,-1.67578124 0,-0.1875 0,-0.234375 -0.222656,-0.234375 -0.246094,0 -0.246094,0.058594 -0.246094,0.2929687 v 1.81640629 c 0,0.1875 0,0.26953125 0.1875,0.26953125 0.08203,0 0.105469,-0.01171875 0.1875,-0.08203125 l 0.457032,-0.45703125 c 0.65625,0.48046875 1.582031,0.5390625 1.992187,0.5390625 1.640625,0 2.261719,-1.12500004 2.261719,-2.13281254 0,-1.1015625 -0.808594,-1.9101562 -1.710938,-2.0976562 z m 9.5625,1.3945312 h -0.46875 c -0.222656,1.3710938 -0.503906,2.26171879 -2.34375,2.26171879 H 20.122969 V -3.2823828 h 0.539062 c 0.960938,0 1.066406,0.4335937 1.066406,1.171875 h 0.457032 v -2.8007813 h -0.457032 c 0,0.7382813 -0.09375,1.1601563 -1.066406,1.1601563 h -0.539062 v -2.5546875 h 1.511718 c 1.605469,0 1.863282,0.7265625 2.015625,1.9335937 h 0.46875 l -0.304687,-2.4023437 h -6.1875 v 0.46875 H 18.705 v 5.83593749 h -1.078125 v 0.46875 h 6.351562 z m 7.054688,5.2265625 v -0.609375 h -1.03125 v -8.7539062 h 1.03125 v -0.609375 H 29.86125 v 9.9726562 z m 0,0"
         style="fill:#d95319;fill-opacity:1;fill-rule:nonzero;stroke:none" />
      <path
         id="path70"
         d="m 35.310469,-5.3624609 c 0,-0.84375 -0.679688,-1.5 -1.5,-1.5 -0.84375,0 -1.5,0.6796875 -1.5,1.5 0,0.84375 0.679687,1.5 1.5,1.5 0.832031,0 1.5,-0.6796875 1.5,-1.5 z m -1.5,1.1484375 c -0.65625,0 -1.160157,-0.5273438 -1.160157,-1.1484375 0,-0.6445313 0.515625,-1.1601563 1.160157,-1.1601563 0.65625,0 1.160156,0.5390625 1.160156,1.1601563 0,0.6445312 -0.527344,1.1484375 -1.160156,1.1484375 z m 0,0"
         style="fill:#d95319;fill-opacity:1;fill-rule:nonzero;stroke:none" />
      <path
         id="path71"
         d="m 38.248945,-7.4776953 h -1.652343 v 0.609375 h 1.042968 v 8.7539062 h -1.042968 v 0.609375 h 1.652343 z m 0,0"
         style="fill:#d95319;fill-opacity:1;fill-rule:nonzero;stroke:none" />
    </g>
    <path
       id="path72"
       d="m 127.18614,381.713 h 54.18991 v 27.19815 h -54.18991 z"
       style="fill:#191919;fill-opacity:1;fill-rule:nonzero;stroke:#d9d9d9;stroke-width:1.49442;stroke-linecap:butt;stroke-linejoin:miter;stroke-miterlimit:10;stroke-dasharray:none;stroke-opacity:1"
       transform="matrix(1.3333333,0,0,-1.3333333,42.817333,583.776)" />
    <path
       id="path73"
       d="m 0,0 h 8.50412 8.50414"
       style="fill:none;stroke:#338eca;stroke-width:1.49442;stroke-linecap:butt;stroke-linejoin:miter;stroke-miterlimit:10;stroke-dasharray:none;stroke-opacity:1"
       transform="matrix(1.3333333,0,0,-1.3333333,217.37733,48.962667)" />
    <path
       id="path74"
       d="m 5.4250547,-5.5428828 c -0.2929688,-0.2695313 -0.796875,-0.7734375 -1.7109375,-0.7734375 -1.734375,0 -3.19921876,1.4414062 -3.19921876,3.2460937 0,1.8515625 1.48828126,3.26953129 3.19921876,3.26953129 1.4882812,0 2.4140625,-1.23046879 2.4140625,-2.27343749 0,-0.09375 0,-0.1757813 -0.1171875,-0.1757813 -0.1171875,0 -0.1171875,0.058594 -0.1289063,0.140625 -0.070312,1.37109379 -1.1484375,2.02734379 -2.0742187,2.02734379 -0.7617188,0 -2.3789063,-0.46875 -2.3789063,-2.98828129 0,-2.4960937 1.6289063,-2.9765625 2.3671875,-2.9765625 0.890625,0 1.828125,0.6796875 2.0507813,2.1328125 0.011719,0.1171875 0.023437,0.1523438 0.140625,0.1523438 0.140625,0 0.140625,-0.035156 0.140625,-0.2226563 v -2.0976562 c 0,-0.1523438 0,-0.234375 -0.1054688,-0.234375 -0.058594,0 -0.09375,0.023437 -0.140625,0.1054687 z m 3.28125,2.3671875 v -2.296875 c 0,-0.234375 0.023437,-0.3164063 0.1875,-0.3515625 0.082031,-0.023437 0.375,-0.023437 0.5625,-0.023437 0.7617183,0 1.9101563,0 1.9101563,1.3359375 0,0.7734375 -0.398438,1.3359375 -1.6171876,1.3359375 z m 2.0156253,0.140625 c 0.855468,-0.2460938 1.558593,-0.7734375 1.558593,-1.4765625 0,-0.890625 -1.089843,-1.6054688 -2.4023433,-1.6054688 h -2.859375 v 0.2695313 h 0.1992187 c 0.6914063,0 0.7148438,0.1054687 0.7148438,0.4335937 v 4.71093754 c 0,0.328125 -0.023437,0.421875 -0.7148438,0.421875 H 7.0188047 V 8.59375e-5 C 7.4406797,-0.02335156 7.8859922,-0.02335156 8.3195859,-0.02335156 c 0.421875,0 0.8671875,0 1.3007813,0.0234374975 V -0.28116406 H 9.4211484 c -0.6914062,0 -0.7148437,-0.09375 -0.7148437,-0.421875 V -2.9530391 h 1.078125 c 0.6445313,0 0.9375003,0.3398438 0.9726563,0.375 0.269531,0.3398438 0.269531,0.46875 0.269531,1.1132813 0,0.59765624 0,0.98437499 0.421875,1.33593749 0.421875,0.328125 0.960938,0.328125 1.066406,0.328125 0.75,0 0.878907,-0.78515625 0.878907,-0.99609375 0,-0.0585938 0,-0.1640625 -0.117188,-0.1640625 -0.117187,0 -0.117187,0.0820313 -0.128906,0.15234375 -0.04687,0.5625 -0.328125,0.78515625 -0.597656,0.78515625 -0.292969,0 -0.386719,-0.1875 -0.457032,-0.33984375 -0.08203,-0.1875 -0.164062,-0.79687499 -0.222656,-1.20703129 -0.07031,-0.5507812 -0.152344,-1.1601562 -1.148437,-1.4648437 z m 8.071289,0.7265625 h -0.246094 c -0.09375,0.9023437 -0.222656,2.02734374 -1.828125,2.02734374 h -0.785156 c -0.421875,0 -0.433594,-0.0585938 -0.433594,-0.36328125 V -5.4022578 c 0,-0.3398438 0.03516,-0.4453125 0.855469,-0.4453125 h 0.28125 v -0.2695313 c -0.316406,0.023437 -1.125,0.023437 -1.488281,0.023437 -0.410157,0 -0.972657,0 -1.371094,-0.023437 v 0.2695313 h 0.210937 c 0.691407,0 0.703125,0.1054687 0.703125,0.4335937 v 4.71093754 c 0,0.328125 -0.01172,0.421875 -0.703125,0.421875 H 13.777594 V 8.59375e-5 h 4.769531 z m 2.443359,-3.1640625 c 0,-0.3046875 0.01172,-0.375 0.433594,-0.375 h 1.171875 c 0.878906,0 1.242187,0.703125 1.242187,1.2421875 0,0.6914062 -0.597656,1.3007812 -1.441406,1.3007812 h -1.40625 z m 2.191406,2.2734375 c 0.890625,-0.1757813 1.511719,-0.75 1.511719,-1.40625 0,-0.796875 -0.855469,-1.5117188 -2.039062,-1.5117188 h -3.339844 v 0.2695313 h 0.210937 c 0.691407,0 0.703125,0.1054687 0.703125,0.4335937 v 4.71093754 c 0,0.328125 -0.01172,0.421875 -0.703125,0.421875 H 19.560797 V 8.59375e-5 h 3.585937 c 1.21875,0 2.0625,-0.7968749975 2.0625,-1.6289062375 0,-0.8085938 -0.785156,-1.4648438 -1.78125,-1.5703125 z m -1.757812,2.91796874 c -0.421875,0 -0.433594,-0.0585938 -0.433594,-0.36328125 V -3.0702266 h 1.6875 c 1.042969,0 1.394531,0.8789063 1.394531,1.4179688 0,0.69140624 -0.539062,1.37109374 -1.464843,1.37109374 z m 0,0"
       style="fill:#d9d9d9;fill-opacity:1;fill-rule:nonzero;stroke:none"
       aria-label="CRLB"
       transform="matrix(1.3333333,0,0,1.3333333,243.708,52.050667)" />
    <path
       id="path75"
       d="m 0,0 h 8.50412 8.50414"
       style="fill:none;stroke:#d95319;stroke-width:1.49442;stroke-linecap:butt;stroke-linejoin:miter;stroke-miterlimit:10;stroke-dasharray:1.49442, 1.99255;stroke-dashoffset:0;stroke-opacity:1"
       transform="matrix(1.3333333,0,0,-1.3333333,217.37733,64.437333)" />
    <path
       id="path76"
       d="m 6.39069,-2.11342 4.22685,4.22684 m -4.22685,0 4.22685,-4.22684"
       style="fill:none;stroke:#d95319;stroke-width:1.49442;stroke-linecap:butt;stroke-linejoin:miter;stroke-miterlimit:10;stroke-dasharray:none;stroke-opacity:1"
       transform="matrix(1.3333333,0,0,-1.3333333,217.37733,64.437333)" />
    <path
       id="path77"
       d="m 6.3977109,-5.8237109 0.011719,0.011719 v 5.10937501 c 0,0.328125 -0.023437,0.421875 -0.703125,0.421875 H 5.4953672 V 5.078125e-4 C 6.0344297,-0.02292969 6.6320859,-0.02292969 6.7727109,-0.02292969 c 0.046875,0 0.7148438,0 1.2773438,0.0234375025 V -0.28074219 H 7.8391172 c -0.6914063,0 -0.703125,-0.09375 -0.703125,-0.421875 V -5.4135547 c 0,-0.328125 0.011719,-0.4335937 0.703125,-0.4335937 H 8.0500547 V -6.1166797 H 6.5383359 c -0.1875,0 -0.2460937,0 -0.3046875,0.1523438 L 4.2180234,-0.87839844 2.2141172,-5.9291797 c -0.070312,-0.1757812 -0.082031,-0.1875 -0.328125,-0.1875 H 0.38599219 v 0.2695313 h 0.19921875 c 0.69140626,0 0.71484376,0.1054687 0.71484376,0.4335937 v 4.46484376 c 0,0.24609375 0,0.66796875 -0.91406251,0.66796875 V 5.078125e-4 C 0.87817969,-0.02292969 1.0070859,-0.02292969 1.4406797,-0.02292969 c 0.4335937,0 0.5625,0 1.0546875,0.0234375025 V -0.28074219 c -0.9140625,0 -0.9140625,-0.421875 -0.9140625,-0.66796875 V -5.7533984 l 2.2148437,5.55468746 c 0.035156,0.1171875 0.070312,0.1992187525 0.1875,0.1992187525 0.09375,0 0.140625,-0.0820312525 0.1757813,-0.1640625025 z m 4.0869141,2.0742187 c -0.7265625,-0.1757812 -0.9492187,-0.75 -0.9492187,-1.1484375 0,-0.5976562 0.4804687,-1.171875 1.2304687,-1.171875 1.160156,0 1.628906,0.8671875 1.746094,1.7695313 0.03516,0.1640625 0.03516,0.2109375 0.152344,0.2109375 0.117187,0 0.117187,-0.058594 0.117187,-0.2460938 v -1.734375 c 0,-0.1757812 0,-0.2460937 -0.105469,-0.2460937 -0.05859,0 -0.07031,0 -0.128906,0.1171875 -0.117187,0.1523437 -0.03516,0.035156 -0.328125,0.5039062 -0.152344,-0.1757812 -0.621094,-0.6210937 -1.464844,-0.6210937 -1.0429685,0 -1.7929685,0.8085937 -1.7929685,1.7226562 0,0.703125 0.421875,1.1367188 0.4570313,1.1835938 0.4101562,0.3867187 0.5742187,0.4335937 1.6406252,0.6796875 0.726562,0.1757812 0.796875,0.1992187 1.101562,0.5039062 0,0 0.304688,0.3398438 0.304688,0.8671875 0,0.60937501 -0.433594,1.27734376 -1.253906,1.27734376 -0.691407,0 -1.9335942,-0.28125 -2.0039067,-1.76953126 -0.011719,-0.1289062 -0.011719,-0.1875 -0.1289063,-0.1875 -0.1171875,0 -0.1171875,0.070313 -0.1171875,0.2578125 v 1.72265626 c 0,0.1875 0,0.2578125 0.1054688,0.2578125 0.058594,0 0.070312,-0.0117188 0.1289062,-0.1171875 0.1171875,-0.1640625 0.035156,-0.046875 0.328125,-0.515625 0.5507815,0.5390625 1.2656255,0.6328125 1.6992185,0.6328125 1.089844,0 1.816407,-0.90234375 1.816407,-1.86328126 0,-0.5039062 -0.1875,-0.9023437 -0.398438,-1.171875 -0.386719,-0.4921875 -0.785156,-0.5859375 -1.371094,-0.7265625 z m 8.578125,-2.34375 H 13.9065 v 0.28125 h 0.210938 c 0.691406,0 0.703125,0.09375 0.703125,0.421875 v 4.68750001 c 0,0.328125 -0.01172,0.421875 -0.703125,0.421875 H 13.9065 V 5.078125e-4 h 5.273438 L 19.566656,-2.3080859 h -0.257812 c -0.222656,1.38281246 -0.457031,2.02734371 -1.980469,2.02734371 H 16.06275 c -0.421875,0 -0.433594,-0.0585938 -0.433594,-0.36328125 V -3.0346484 h 0.832032 c 0.878906,0 0.984375,0.28125 0.984375,1.0546875 h 0.257812 v -2.3789063 h -0.257812 c 0,0.7734375 -0.105469,1.0546875 -0.984375,1.0546875 h -0.832032 v -2.1445312 c 0,-0.3046875 0.01172,-0.3632813 0.433594,-0.3632813 h 1.207031 c 1.394532,0 1.652344,0.4804688 1.792969,1.734375 h 0.246094 z m 0,0"
       style="fill:#d9d9d9;fill-opacity:1;fill-rule:nonzero;stroke:none"
       aria-label="MSE"
       transform="matrix(1.3333333,0,0,1.3333333,243.708,67.526667)" />
  </g>
</svg>
