<?xml version="1.0" encoding="UTF-8" standalone="no"?>
<!-- Created with Inkscape (http://www.inkscape.org/) -->

<svg
   version="1.1"
   id="svg1"
   width="400.75732"
   height="400.65601"
   viewBox="0 0 168.75732 170.65601"
   xmlns="http://www.w3.org/2000/svg"
   xmlns:svg="http://www.w3.org/2000/svg">
  <defs
     id="defs1" />
  <g
     id="g1">
    <path
       id="path1"
       d="M 58.91696,29.45834 C 58.91696,61.9977 32.53934,88.3753 0,88.3753 c -32.53934,0 -58.91696,-26.3776 -58.91696,-58.91696 0,-32.53934 26.37762,-58.91696 58.91696,-58.91696 32.53934,0 58.91696,26.37762 58.91696,58.91696 z"
       style="fill:none;stroke:#ff8000;stroke-width:1.59404;stroke-linecap:butt;stroke-linejoin:miter;stroke-miterlimit:10;stroke-dasharray:2.98883, 2.98883;stroke-dashoffset:0;stroke-opacity:1"
       transform="matrix(1.3333333,0,0,-1.3333333,88.108,129.95733)" />
    <path
       id="path2"
       d="M 47.30464,0 H -47.30464"
       style="fill:none;stroke:#ff8000;stroke-width:1.59404;stroke-linecap:butt;stroke-linejoin:miter;stroke-miterlimit:10;stroke-dasharray:none;stroke-opacity:0.7"
       transform="matrix(1.3333333,0,0,-1.3333333,88.108,129.95733)" />
    <path
       id="path3"
       d="M 48.87714,3.71904 2.14484,84.6541"
       style="fill:none;stroke:#ff8000;stroke-width:1.59404;stroke-linecap:butt;stroke-linejoin:miter;stroke-miterlimit:10;stroke-dasharray:none;stroke-opacity:0.7"
       transform="matrix(1.3333333,0,0,-1.3333333,88.108,129.95733)" />
    <path
       id="path4"
       d="M -48.87714,3.71904 -2.14484,84.6541"
       style="fill:none;stroke:#ff8000;stroke-width:1.59404;stroke-linecap:butt;stroke-linejoin:miter;stroke-miterlimit:10;stroke-dasharray:none;stroke-opacity:0.7"
       transform="matrix(1.3333333,0,0,-1.3333333,88.108,129.95733)" />
    <path
       id="path5"
       d="m -42.05725,0 c 0,4.95207 -4.01436,8.96643 -8.96643,8.96643 -4.95207,0 -8.96643,-4.01436 -8.96643,-8.96643 0,-4.95207 4.01436,-8.96643 8.96643,-8.96643 4.95207,0 8.96643,4.01436 8.96643,8.96643 z"
       style="fill:#d9d9d9;fill-opacity:1;fill-rule:nonzero;stroke:#d9d9d9;stroke-width:0.79701;stroke-linecap:butt;stroke-linejoin:miter;stroke-miterlimit:10;stroke-dasharray:none;stroke-opacity:1"
       transform="matrix(1.3333333,0,0,-1.3333333,88.108,129.95733)" />
    <path
       id="path6"
       d="m 4.1360312,-7.5006875 c 0,-0.3398438 -0.023437,-0.3398438 -0.4101562,-0.3398438 -0.8789063,0.7617188 -2.203125,0.7617188 -2.4726563,0.7617188 H 1.0305625 v 0.515625 h 0.2226562 c 0.421875,0 1.0546875,-0.070312 1.5351563,-0.2226563 v 6.2695313 H 1.1243125 v 0.515625 C 1.6282187,-0.024125 2.882125,-0.024125 3.444625,-0.024125 c 0.5625,0 1.828125,0 2.3320312,0.0234375 v -0.515625 h -1.640625 z m 0,0"
       style="fill:#000000;fill-opacity:1;fill-rule:nonzero;stroke:none"
       aria-label="1"
       transform="matrix(1.3333333,0,0,1.3333333,15.594667,135.09467)" />
    <path
       id="path7"
       d="m 59.99011,0 c 0,4.95207 -4.01436,8.96643 -8.96643,8.96643 -4.95207,0 -8.96643,-4.01436 -8.96643,-8.96643 0,-4.95207 4.01436,-8.96643 8.96643,-8.96643 4.95207,0 8.96643,4.01436 8.96643,8.96643 z"
       style="fill:#d9d9d9;fill-opacity:1;fill-rule:nonzero;stroke:#d9d9d9;stroke-width:0.79701;stroke-linecap:butt;stroke-linejoin:miter;stroke-miterlimit:10;stroke-dasharray:none;stroke-opacity:1"
       transform="matrix(1.3333333,0,0,-1.3333333,88.108,129.95733)" />
    <path
       id="path8"
       d="M 6.0353437,-2.5670938 H 5.5314375 C 5.4962812,-2.321 5.41425,-1.617875 5.2384687,-1.5006875 c -0.09375,0.09375 -1.03125,0.09375 -1.2070312,0.09375 H 2.179875 C 2.6251875,-1.7936563 3.7150312,-2.7077188 3.9025312,-2.836625 5.22675,-3.821 6.0353437,-4.430375 6.0353437,-5.5788125 c 0,-1.4179688 -1.2773437,-2.2617188 -2.859375,-2.2617188 -1.3476562,0 -2.50781245,0.7617188 -2.50781245,1.8984375 0,0.6328125 0.51562495,0.8085938 0.78515625,0.8085938 0.375,0 0.8085937,-0.2460938 0.8085937,-0.796875 0,-0.5039063 -0.375,-0.75 -0.7382812,-0.796875 0.46875,-0.5507813 1.1015625,-0.5976563 1.359375,-0.5976563 1.1015625,0 1.6289062,0.890625 1.6289062,1.7578125 0,0.9257813 -0.6445312,1.7929688 -1.125,2.3085938 L 0.78534375,-0.55146875 C 0.66815625,-0.446 0.66815625,-0.4225625 0.66815625,-0.19990625 V -6.875e-4 H 5.6955 Z m 0,0"
       style="fill:#000000;fill-opacity:1;fill-rule:nonzero;stroke:none"
       aria-label="2"
       transform="matrix(1.3333333,0,0,1.3333333,151.656,135.09467)" />
    <path
       id="path9"
       d="m 8.96643,88.37315 c 0,4.95208 -4.01436,8.96643 -8.96643,8.96643 -4.95207,0 -8.96643,-4.01435 -8.96643,-8.96643 0,-4.95207 4.01436,-8.96643 8.96643,-8.96643 4.95207,0 8.96643,4.01436 8.96643,8.96643 z"
       style="fill:#d9d9d9;fill-opacity:1;fill-rule:nonzero;stroke:#d9d9d9;stroke-width:0.79701;stroke-linecap:butt;stroke-linejoin:miter;stroke-miterlimit:10;stroke-dasharray:none;stroke-opacity:1"
       transform="matrix(1.3333333,0,0,-1.3333333,88.108,129.95733)" />
    <path
       id="path10"
       d="m 3.1169375,-3.9607187 c 1.3359375,0 1.3359375,1.2421875 1.3359375,1.8164062 0,0.5390625 0,1.8046875 -1.2890625,1.8046875 -0.2460938,0 -1.03125,-0.0351563 -1.6054688,-0.43359375 C 2.06225,-0.8786875 2.24975,-1.2536875 2.24975,-1.6169687 2.24975,-2.1091562 1.8981875,-2.449 1.406,-2.449 c -0.4921875,0 -0.84375,0.3398438 -0.84375,0.84375 0,1.1015625 1.1953125,1.74609375 2.6601562,1.74609375 1.9804688,0 2.9179688,-1.08984375 2.9179688,-2.28515625 0,-0.5859375 -0.2929688,-1.7109375 -2.1445313,-2.0390625 1.0429688,-0.328125 1.78125,-1.0664062 1.78125,-2.0039062 0,-0.9023438 -0.8671875,-1.6523438 -2.53125,-1.6523438 -1.3359375,0 -2.3085937,0.703125 -2.3085937,1.6757813 0,0.5976562 0.4570312,0.7851562 0.7734375,0.7851562 0.3398437,0 0.7617187,-0.2226562 0.7617187,-0.7734375 0,-0.28125 -0.1171875,-0.6796875 -0.6796875,-0.7734375 0.5039063,-0.4804687 1.3125,-0.4804687 1.3828125,-0.4804687 1.0664063,0 1.0664063,0.8203125 1.0664063,1.1835937 0,0.3515625 -0.046875,0.9023438 -0.4335938,1.3945313 C 3.5036562,-4.41775 3.18725,-4.3943125 2.7419375,-4.370875 2.5895937,-4.3591562 2.3552187,-4.3474375 2.3083437,-4.324 c -0.070312,0.035156 -0.070312,0.1171875 -0.070312,0.1640625 0,0.1992188 0.070312,0.1992188 0.3046875,0.1992188 z m 0,0"
       style="fill:#000000;fill-opacity:1;fill-rule:nonzero;stroke:none"
       aria-label="3"
       transform="matrix(1.3333333,0,0,1.3333333,83.625333,17.265333)" />
    <path
       id="path11"
       d="m -64.78165,9.33524 49.81842,86.28558"
       style="fill:none;stroke:#d9d9d9;stroke-width:1.59404;stroke-linecap:butt;stroke-linejoin:miter;stroke-miterlimit:10;stroke-dasharray:none;stroke-opacity:1"
       transform="matrix(1.3333333,0,0,-1.3333333,88.108,129.95733)" />
    <path
       id="path12"
       d="M -2.27148,3.02866 C -2.0822,1.8929 0,0.18927 0.56786,0 0,-0.18927 -2.0822,-1.8929 -2.27148,-3.02866"
       style="fill:none;stroke:#d9d9d9;stroke-width:1.27522;stroke-linecap:round;stroke-linejoin:round;stroke-miterlimit:10;stroke-dasharray:none;stroke-opacity:1"
       transform="matrix(-0.66666667,1.15468,1.15468,0.66666667,1.7324933,117.51033)" />
    <path
       id="path13"
       d="M -2.27148,3.02866 C -2.0822,1.8929 0,0.18927 0.56786,0 0,-0.18927 -2.0822,-1.8929 -2.27148,-3.02866"
       style="fill:none;stroke:#d9d9d9;stroke-width:1.27522;stroke-linecap:round;stroke-linejoin:round;stroke-miterlimit:10;stroke-dasharray:none;stroke-opacity:1"
       transform="matrix(0.66666667,-1.15468,-1.15468,-0.66666667,68.157013,2.4629333)" />
    <path
       id="path14"
       d="m 4.3152924,-7.7812485 c -0.00241,-0.2151133 -0.00712,-0.2935835 -0.1699206,-0.2943125 -0.094478,4.205e-4 -0.136643,-0.0023 -0.2217016,0.155062 l -3.59738292,5.5816169 1.1191e-4,0.3517563 3.13965031,5.628e-4 -0.00395,1.07127702 c 5.323e-4,0.44623461 -0.013485,0.56258024 -0.8958058,0.55778567 l -0.24127,0.003981 1.119e-4,0.35175634 c 0.2717161,-0.02155881 1.2164989,-0.02576347 1.5682552,-0.02587538 0.3255996,0.001458 1.2863903,0.0015428 1.5553871,0.02214873 l -1.119e-4,-0.35175634 -0.2412701,0.003981 C 4.3410798,-0.35377049 4.3129327,-0.47283556 4.3124003,-0.91907017 l 0.00395,-1.07127703 1.2020608,-0.0039 -1.119e-4,-0.3517564 -1.2020608,0.0039 z m -0.789497,0.929419 0.0026,4.5045109 -2.908529,0.00132 z m 12.8381156,3.9375584 c -0.0035,-1.1075825 -0.002,-1.4331821 -0.266837,-1.8215524 -0.353858,-0.4722795 -0.90943,-0.5439375 -1.3135,-0.5406857 -0.992807,-0.00866 -1.505569,0.7203888 -1.692423,1.1936211 -0.165435,-0.919355 -0.801887,-1.2014165 -1.567862,-1.1921934 -1.155607,-0.00939 -1.6046454,0.9940954 -1.7111509,1.2314965 l -0.016008,-0.00429 0.00468,-1.2340768 -1.6142889,0.1336422 1.119e-4,0.3517564 c 0.8038503,0.0095 0.9030384,0.087554 0.9012718,0.6704318 l -0.00443,3.25013664 c 0.00524,0.52470485 -0.1212521,0.51654655 -0.8930864,0.5156209 l 1.12e-4,0.35175634 c 0.2978729,-0.02312876 0.949072,-0.02021269 1.2848204,-0.02461399 0.3416076,0.0057474 0.9869471,-0.0014852 1.3039681,0.03198889 l -1.12e-4,-0.35175634 c -0.761685,-0.006785 -0.9186257,0.002635 -0.9238679,-0.52207014 l 0.0032,-2.2210244 c 0.00311,-1.2602336 0.8286069,-1.9398037 1.5641359,-1.9314488 0.739818,-0.00765 0.924288,0.6165484 0.920223,1.3360691 l 8.95e-4,2.81405076 c 0.0052,0.52470484 -0.131401,0.52240588 -0.913384,0.52733955 l 1.12e-4,0.35175634 c 0.318171,-0.03484742 0.959221,-0.02607202 1.294969,-0.03047331 0.351757,-1.1192e-4 0.986948,-0.0014852 1.298109,0.02184018 l -1.11e-4,-0.35175634 c -0.755827,0.003364 -0.902618,0.006924 -0.907861,-0.51778077 l 0.0032,-2.22102431 c 0.0031,-1.2602336 0.818458,-1.9339445 1.564135,-1.9314489 0.739818,-0.00765 0.908281,0.6122591 0.904215,1.3317798 l 8.96e-4,2.81405069 c 0.0052,0.52470485 -0.125542,0.53255459 -0.897376,0.53162894 l 1.12e-4,0.35175633624 C 14.9988,-0.02873232 15.633991,-0.03010563 15.975599,-0.02435822 c 0.345897,-0.01026062 0.986948,-0.0014852 1.308258,0.01598085 l -1.12e-4,-0.35175634 c -0.603175,0.009952 -0.902618,0.006924 -0.918738,-0.34912163 z m 0,0"
       style="fill:#d9d9d9;fill-opacity:1;fill-rule:nonzero;stroke:none"
       aria-label="4m"
       transform="matrix(0.66666667,-1.1547067,1.1547067,0.66666667,24.338667,67.381333)" />
    <path
       id="path15"
       d="m 4.48322,29.45834 c 0,2.47603 -2.00719,4.48322 -4.48322,4.48322 -2.47603,0 -4.48322,-2.00719 -4.48322,-4.48322 0,-2.47604 2.00719,-4.48321 4.48322,-4.48321 2.47603,0 4.48322,2.00717 4.48322,4.48321 z"
       style="fill:#808080;fill-opacity:1;fill-rule:nonzero;stroke:#808080;stroke-width:0.79701;stroke-linecap:butt;stroke-linejoin:miter;stroke-miterlimit:10;stroke-dasharray:none;stroke-opacity:1"
       transform="matrix(1.3333333,0,0,-1.3333333,88.108,129.95733)" />
    <path
       id="path16"
       d="m 3.71904,29.45834 47.30486,1.3e-4"
       style="fill:none;stroke:#808080;stroke-width:1.59404;stroke-linecap:butt;stroke-linejoin:miter;stroke-miterlimit:10;stroke-dasharray:none;stroke-opacity:1"
       transform="matrix(1.3333333,0,0,-1.3333333,88.108,129.95733)" />
    <path
       id="path17"
       d="M 3.71715,33.1774 51.0239,80.48238"
       style="fill:none;stroke:#808080;stroke-width:1.59404;stroke-linecap:butt;stroke-linejoin:miter;stroke-miterlimit:10;stroke-dasharray:1.59404, 1.99255;stroke-dashoffset:0;stroke-opacity:1"
       transform="matrix(1.3333333,0,0,-1.3333333,88.108,129.95733)" />
    <path
       id="path18"
       d="m 33.1656,29.45847 c 0,8.79441 -3.49537,17.23304 -8.86157,22.59924"
       style="fill:none;stroke:#808080;stroke-width:1.59404;stroke-linecap:butt;stroke-linejoin:miter;stroke-miterlimit:10;stroke-dasharray:none;stroke-opacity:1"
       transform="matrix(1.3333333,0,0,-1.3333333,88.108,129.95733)" />
    <path
       id="path19"
       d="M -2.27148,3.02866 C -2.0822,1.8929 0,0.18927 0.56786,0 0,-0.18927 -2.0822,-1.8929 -2.27148,-3.02866"
       style="fill:none;stroke:#808080;stroke-width:1.27522;stroke-linecap:round;stroke-linejoin:round;stroke-miterlimit:10;stroke-dasharray:none;stroke-opacity:1"
       transform="matrix(-0.9428,-0.9428,-0.9428,0.9428,120.5134,60.547067)" />
    <g
       id="g19"
       aria-label="ψ(t)"
       transform="matrix(1.3333333,0,0,1.3333333,134.45067,77.08)">
      <path
         id="path20"
         d="m 4.8036016,-6.6576563 c 0.011719,-0.035156 0.023437,-0.09375 0.023437,-0.1523437 0,-0.09375 -0.070312,-0.1054688 -0.1171875,-0.1054688 -0.09375,0 -0.1054688,0.023437 -0.1523438,0.1992188 l -1.6523437,6.5859375 c -0.75,-0.09375 -1.1367188,-0.45703125 -1.1367188,-1.1132813 0,-0.1992187 0,-0.4570312 0.5390625,-1.8515625 0.046875,-0.1289062 0.1171875,-0.2929687 0.1171875,-0.4921875 0,-0.4453125 -0.328125,-0.8203125 -0.8203125,-0.8203125 -0.94921874,0 -1.31249999,1.453125 -1.31249999,1.5351563 0,0.1054687 0.09375,0.1054687 0.1171875,0.1054687 0.09375,0 0.10546875,-0.023437 0.15234375,-0.1875 C 0.83094531,-3.8920313 1.2293828,-4.185 1.5692266,-4.185 c 0.082031,0 0.2578125,0 0.2578125,0.3164062 0,0.2578125 -0.1054688,0.515625 -0.234375,0.8554688 -0.4804688,1.2539062 -0.4804688,1.5117187 -0.4804688,1.6875 0,0.94921875 0.7851563,1.359375 1.734375,1.41796875 -0.082031,0.3515625 -0.082031,0.375 -0.2226562,0.90234375 -0.023437,0.1054687 -0.2226563,0.9140625 -0.2226563,0.9492187 0,0.011719 0,0.09375 0.1171875,0.09375 0.023437,0 0.070312,0 0.09375,-0.035156 0.023437,-0.023437 0.082031,-0.2695313 0.1171875,-0.4101563 l 0.375,-1.4882812 c 0.375,0 1.2421875,0 2.1796875,-1.06640625 0.4101563,-0.45703125 0.6210938,-0.89062505 0.7265625,-1.19531255 0.09375,-0.2460937 0.3164063,-1.1132812 0.3164063,-1.546875 0,-0.5625 -0.2695313,-0.703125 -0.4453125,-0.703125 -0.2460938,0 -0.4921875,0.2578125 -0.4921875,0.4804688 0,0.1289062 0.058594,0.1875 0.1523437,0.2695312 0.1054688,0.1054688 0.3515625,0.3632813 0.3515625,0.84375 0,0.6445313 -0.515625,1.453125 -0.8671875,1.8164063 -0.8789062,0.890625 -1.5117187,0.890625 -1.875,0.890625 z m 0,0"
         style="fill:#808080;fill-opacity:1;fill-rule:nonzero;stroke:none" />
      <path
         id="path21"
         d="m 10.138562,2.3892187 c 0,-0.035156 0,-0.046875 -0.164062,-0.2226562 C 8.7323125,0.91265625 8.4041875,-0.96234375 8.4041875,-2.4975 c 0,-1.7226563 0.3867187,-3.4570313 1.6054685,-4.7109375 0.128906,-0.1171875 0.128906,-0.1289063 0.128906,-0.1640625 0,-0.070312 -0.03516,-0.1054688 -0.09375,-0.1054688 -0.1054683,0 -0.9960933,0.6796875 -1.5820308,1.9453125 -0.515625,1.1015625 -0.6328125,2.203125 -0.6328125,3.0351563 0,0.7851562 0.1171875,1.9921875 0.65625,3.1171875 0.5976563,1.21875 1.453125,1.875 1.5585933,1.875 0.05859,0 0.09375,-0.035156 0.09375,-0.1054688 z m 0,0"
         style="fill:#808080;fill-opacity:1;fill-rule:nonzero;stroke:none" />
      <path
         id="path22"
         d="m 12.772352,-3.9857813 h 0.9375 c 0.199218,0 0.304687,0 0.304687,-0.1992187 0,-0.1054688 -0.105469,-0.1054688 -0.28125,-0.1054688 h -0.878906 c 0.363281,-1.4179687 0.410156,-1.6171875 0.410156,-1.6757812 0,-0.1757813 -0.117187,-0.2695313 -0.292969,-0.2695313 -0.02344,0 -0.304687,0.011719 -0.398437,0.3515625 l -0.386719,1.59375 h -0.9375 c -0.199219,0 -0.292969,0 -0.292969,0.1875 0,0.1171875 0.07031,0.1171875 0.269532,0.1171875 h 0.878906 c -0.714844,2.8242188 -0.75,3.00000005 -0.75,3.1757813 0,0.5390625 0.375,0.9140625 0.914062,0.9140625 1.007813,0 1.582032,-1.453125 1.582032,-1.5351563 0,-0.09375 -0.08203,-0.09375 -0.117188,-0.09375 -0.09375,0 -0.105469,0.023437 -0.152344,0.140625 -0.433593,1.03125005 -0.960937,1.2773438 -1.300781,1.2773438 -0.199219,0 -0.304687,-0.12890625 -0.304687,-0.45703125 0,-0.24609375 0.02344,-0.31640625 0.05859,-0.48046875 z m 0,0"
         style="fill:#808080;fill-opacity:1;fill-rule:nonzero;stroke:none" />
      <path
         id="path23"
         d="m 17.202039,-2.4975 c 0,-0.7734375 -0.117187,-1.9804688 -0.65625,-3.1054688 -0.597656,-1.21875 -1.464844,-1.875 -1.558594,-1.875 -0.05859,0 -0.105468,0.046875 -0.105468,0.1054688 0,0.035156 0,0.046875 0.199218,0.234375 0.972657,0.984375 1.535157,2.5664062 1.535157,4.640625 0,1.7109375 -0.363282,3.45703125 -1.59375,4.7226562 -0.140625,0.1171875 -0.140625,0.1289063 -0.140625,0.1640625 0,0.058594 0.04687,0.1054688 0.105468,0.1054688 0.09375,0 0.996094,-0.6796875 1.582032,-1.9453125 0.503906,-1.1015625 0.632812,-2.203125 0.632812,-3.046875 z m 0,0"
         style="fill:#808080;fill-opacity:1;fill-rule:nonzero;stroke:none" />
    </g>
  </g>
</svg>
