<?xml version="1.0" encoding="UTF-8" standalone="no"?>
<!-- Created with Inkscape (http://www.inkscape.org/) -->

<svg
   version="1.1"
   id="svg1"
   width="197.46478"
   height="173.12109"
   viewBox="0 0 197.46479 173.12109"
   xmlns="http://www.w3.org/2000/svg"
   xmlns:svg="http://www.w3.org/2000/svg">
  <defs
     id="defs1" />
  <g
     id="g135"
     transform="translate(-1812.0755,-3.9140626)">
    <path
       id="path136"
       d="M 0,0 -28.66972,-39.38426"
       style="fill:none;stroke:#d9d9d9;stroke-width:0.79701;stroke-linecap:butt;stroke-linejoin:miter;stroke-miterlimit:10;stroke-dasharray:none;stroke-opacity:1"
       transform="matrix(1.3333333,0,0,-1.3333333,1891.5173,112.94267)" />
    <path
       id="path137"
       d="M -1.55415,2.0722 C -1.42464,1.29512 0,0.1295 0.38852,0 0,-0.1295 -1.42464,-1.29512 -1.55415,-2.0722"
       style="fill:none;stroke:#d9d9d9;stroke-width:0.6376;stroke-linecap:round;stroke-linejoin:round;stroke-miterlimit:10;stroke-dasharray:none;stroke-opacity:1"
       transform="matrix(-0.78466667,1.07796,1.07796,0.78466667,1853.291,165.455)" />
    <path
       id="path138"
       d="m 3.3267578,-3.0118203 c 0.058594,-0.2578125 0.2929688,-1.171875 0.984375,-1.171875 0.046875,0 0.2929688,0 0.5039063,0.1289062 -0.28125,0.046875 -0.4804688,0.3046875 -0.4804688,0.5390625 0,0.1640625 0.1054688,0.3515625 0.375,0.3515625 0.2226563,0 0.5390625,-0.1875 0.5390625,-0.5859375 0,-0.515625 -0.5859375,-0.65625 -0.9257812,-0.65625 -0.5742188,0 -0.9257813,0.5273438 -1.0429688,0.7617188 -0.2578125,-0.65625 -0.7851562,-0.7617188 -1.078125,-0.7617188 -1.0429687,0 -1.60546874,1.2890625 -1.60546874,1.5351563 0,0.1054687 0.10546875,0.1054687 0.1171875,0.1054687 0.0820313,0 0.1171875,-0.023437 0.12890625,-0.1171875 0.33984379,-1.0546875 0.99609379,-1.3007812 1.33593749,-1.3007812 0.1875,0 0.5390625,0.09375 0.5390625,0.6679687 0,0.3046875 -0.1640625,0.9726563 -0.5390625,2.3671875 -0.1523437,0.62109379 -0.5039062,1.04296879 -0.9492187,1.04296879 -0.058594,0 -0.28125004,0 -0.49218754,-0.12890625 0.24609375,-0.0585938 0.46875004,-0.26953125 0.46875004,-0.5390625 0,-0.26953124 -0.22265629,-0.35156254 -0.37500004,-0.35156254 -0.29296875,0 -0.5390625,0.25781254 -0.5390625,0.57421879 0,0.45703125 0.4921875,0.65625 0.93750004,0.65625 0.65625,0 1.0078125,-0.69140625 1.0429687,-0.75 0.1171875,0.36328125 0.4804688,0.75 1.078125,0.75 1.0195313,0 1.59375,-1.27734379 1.59375,-1.53515629 0,-0.09375 -0.09375,-0.09375 -0.1289062,-0.09375 -0.082031,0 -0.1054688,0.035156 -0.1289063,0.1054688 -0.328125,1.06640624 -0.9960937,1.31249999 -1.3242187,1.31249999 -0.3867188,0 -0.5390625,-0.328125 -0.5390625,-0.65625 0,-0.22265625 0.058594,-0.44531249 0.1640625,-0.87890629 z m 0,0"
       style="fill:#d9d9d9;fill-opacity:1;fill-rule:nonzero;stroke:none"
       aria-label="x"
       transform="matrix(1.3333333,0,0,1.3333333,1840.1867,176.89467)" />
    <path
       id="path139"
       d="M 0,0 79.21635,-14.41574"
       style="fill:none;stroke:#d9d9d9;stroke-width:0.79701;stroke-linecap:butt;stroke-linejoin:miter;stroke-miterlimit:10;stroke-dasharray:none;stroke-opacity:1"
       transform="matrix(1.3333333,0,0,-1.3333333,1891.5173,112.94267)" />
    <path
       id="path140"
       d="M -1.55415,2.0722 C -1.42464,1.29512 0,0.1295 0.38852,0 0,-0.1295 -1.42464,-1.29512 -1.55415,-2.0722"
       style="fill:none;stroke:#d9d9d9;stroke-width:0.6376;stroke-linecap:round;stroke-linejoin:round;stroke-miterlimit:10;stroke-dasharray:none;stroke-opacity:1"
       transform="matrix(1.3117467,0.23869333,0.23869333,-1.3117467,1997.1391,132.16365)" />
    <path
       id="path141"
       d="m 4.8393594,-3.7960859 c 0.046875,-0.140625 0.046875,-0.1523438 0.046875,-0.2226563 0,-0.1875 -0.140625,-0.2695312 -0.2929688,-0.2695312 -0.1054687,0 -0.2578125,0.058594 -0.3515625,0.1992187 -0.023437,0.058594 -0.09375,0.3632813 -0.140625,0.5390625 -0.070312,0.2578125 -0.140625,0.5273438 -0.1992187,0.796875 l -0.4453125,1.79296876 c -0.035156,0.15234375 -0.46875,0.85546875 -1.125,0.85546875 -0.5039063,0 -0.6210938,-0.4453125 -0.6210938,-0.80859375 0,-0.45703126 0.1757813,-1.07812496 0.515625,-1.95703126 0.1523438,-0.4101562 0.1992188,-0.515625 0.1992188,-0.7148437 0,-0.4453125 -0.328125,-0.8203125 -0.8203125,-0.8203125 -0.94921878,0 -1.31250003,1.453125 -1.31250003,1.5351562 0,0.1054688 0.09375,0.1054688 0.1171875,0.1054688 0.09375,0 0.10546875,-0.023437 0.15234375,-0.1875 0.26953125,-0.9375 0.66796878,-1.2304688 1.00781248,-1.2304688 0.082031,0 0.2578125,0 0.2578125,0.3164063 0,0.2460937 -0.1054687,0.515625 -0.1757812,0.703125 -0.3984375,1.0546875 -0.5742188,1.6171875 -0.5742188,2.0859375 0,0.89062496 0.6210938,1.18359371 1.21875,1.18359371 0.3867188,0 0.7265625,-0.1640625 0.9960938,-0.4453125 -0.1289063,0.515625 -0.2460938,1.0078125 -0.6445313,1.53515629 -0.2578125,0.3398437 -0.6328125,0.6328125 -1.0898437,0.6328125 -0.140625,0 -0.59765628,-0.035156 -0.76171878,-0.421875 0.1640625,0 0.29296878,0 0.43359378,-0.1171875 0.09375,-0.09375 0.1992187,-0.2226563 0.1992187,-0.41015629 0,-0.31640625 -0.2695312,-0.3515625 -0.375,-0.3515625 -0.22265623,0 -0.55078123,0.1640625 -0.55078123,0.64453129 0,0.5039062 0.43359375,0.8671875 1.05468753,0.8671875 1.0195312,0 2.0507812,-0.9023438 2.3320312,-2.02734379 z m 0,0"
       style="fill:#d9d9d9;fill-opacity:1;fill-rule:nonzero;stroke:none"
       aria-label="y"
       transform="matrix(1.3333333,0,0,1.3333333,2003.0253,143.01067)" />
    <path
       id="path142"
       d="M 0,0 V 72.94002"
       style="fill:none;stroke:#d9d9d9;stroke-width:0.79701;stroke-linecap:butt;stroke-linejoin:miter;stroke-miterlimit:10;stroke-dasharray:none;stroke-opacity:1"
       transform="matrix(1.3333333,0,0,-1.3333333,1891.5173,112.94267)" />
    <path
       id="path143"
       d="M -1.55415,2.0722 C -1.42464,1.29512 0,0.1295 0.38852,0 0,-0.1295 -1.42464,-1.29512 -1.55415,-2.0722"
       style="fill:none;stroke:#d9d9d9;stroke-width:0.6376;stroke-linecap:round;stroke-linejoin:round;stroke-miterlimit:10;stroke-dasharray:none;stroke-opacity:1"
       transform="matrix(0,-1.3333333,-1.3333333,0,1891.5173,15.689307)" />
    <path
       id="path144"
       d="M 1.3246953,-0.83223437 C 1.8637578,-1.4064531 2.1567266,-1.6525469 2.5082891,-1.9572344 c 0,-0.011719 0.6210937,-0.5390625 0.984375,-0.9023437 0.9375,-0.9257813 1.1601562,-1.40625 1.1601562,-1.4414063 0,-0.1054687 -0.09375,-0.1054687 -0.1054687,-0.1054687 -0.070312,0 -0.1054688,0.023437 -0.1523438,0.1171875 -0.3046875,0.46875 -0.5039062,0.6328125 -0.75,0.6328125 -0.234375,0 -0.3515625,-0.1523438 -0.5039062,-0.3164063 -0.1875,-0.234375 -0.3632813,-0.4335937 -0.6914063,-0.4335937 -0.75,0 -1.2070312,0.9257812 -1.2070312,1.1367187 0,0.046875 0.035156,0.1171875 0.1171875,0.1171875 0.09375,0 0.1171875,-0.058594 0.140625,-0.1171875 0.1875,-0.4570312 0.7617187,-0.46875 0.84375,-0.46875 0.2109375,0 0.3984375,0.070312 0.6210937,0.1523438 0.3984375,0.1523437 0.515625,0.1523437 0.7734375,0.1523437 -0.3632812,0.421875 -1.1953125,1.1367188 -1.3828125,1.3007813 l -0.9023437,0.8320312 c -0.67968754,0.66796878 -1.01953129,1.24218753 -1.01953129,1.31250003 0,0.09375 0.09375,0.09375 0.1171875,0.09375 0.0820313,0 0.09375,-0.01171875 0.15234375,-0.12890625 0.234375,-0.33984375 0.52734374,-0.609375 0.85546874,-0.609375 0.2226563,0 0.328125,0.0820313 0.5742188,0.375 0.1640625,0.2109375 0.3515625,0.36328125 0.6328125,0.36328125 0.984375,0 1.5703125,-1.26562503 1.5703125,-1.53515623 0,-0.046875 -0.046875,-0.09375 -0.1171875,-0.09375 -0.09375,0 -0.1171875,0.058594 -0.140625,0.1289062 -0.234375,0.64453128 -0.8671875,0.83203128 -1.1953125,0.83203128 -0.1992188,0 -0.3867188,-0.0585938 -0.5859375,-0.12890625 -0.3398438,-0.12890625 -0.4921875,-0.1640625 -0.703125,-0.1640625 -0.023437,0 -0.1757813,0 -0.2695313,0.0234375 z m 0,0"
       style="fill:#d9d9d9;fill-opacity:1;fill-rule:nonzero;stroke:none"
       aria-label="z"
       transform="matrix(1.3333333,0,0,1.3333333,1888.1373,9.7893333)" />
    <path
       id="path145"
       d="M -14.543,-19.97806 C 7.52443,-23.99385 31.92415,-18.30489 39.95613,-7.27118 47.98811,3.76253 36.61043,15.96225 14.543,19.97806 -7.52443,23.99385 -31.92415,18.30489 -39.95613,7.27118 -47.98811,-3.76253 -36.61043,-15.96225 -14.543,-19.97806"
       style="fill:none;stroke:#d9d9d9;stroke-width:0.3985;stroke-linecap:butt;stroke-linejoin:miter;stroke-miterlimit:10;stroke-dasharray:0.3985, 1.99255;stroke-dashoffset:0;stroke-opacity:1"
       transform="matrix(1.3333333,0,0,-1.3333333,1891.5173,112.94267)" />
    <path
       id="path146"
       d="M 0,0 50.11087,-25.0551"
       style="fill:none;stroke:#d9d9d9;stroke-width:0.79701;stroke-linecap:butt;stroke-linejoin:miter;stroke-miterlimit:10;stroke-dasharray:0.79701, 1.99255;stroke-dashoffset:0;stroke-opacity:1"
       transform="matrix(1.3333333,0,0,-1.3333333,1891.5173,112.94267)" />
    <path
       id="path147"
       d="m 4.8053828,-6.6549687 c 0.011719,-0.035156 0.023437,-0.09375 0.023437,-0.1523438 0,-0.09375 -0.070312,-0.1054687 -0.1171875,-0.1054687 -0.09375,0 -0.1054687,0.023437 -0.1523437,0.1992187 L 2.9069453,-0.127625 c -0.75,-0.09375 -1.1367187,-0.45703125 -1.1367187,-1.1132812 0,-0.1992188 0,-0.4570313 0.5390625,-1.8515625 0.046875,-0.1289063 0.1171875,-0.2929688 0.1171875,-0.4921875 0,-0.4453125 -0.328125,-0.8203125 -0.8203125,-0.8203125 -0.94921879,0 -1.31250004,1.453125 -1.31250004,1.5351562 0,0.1054688 0.09375,0.1054688 0.1171875,0.1054688 0.09375,0 0.10546875,-0.023437 0.15234375,-0.1875 0.26953125,-0.9375 0.66796879,-1.2304688 1.00781249,-1.2304688 0.082031,0 0.2578125,0 0.2578125,0.3164063 0,0.2578125 -0.1054687,0.515625 -0.234375,0.8554687 -0.4804687,1.2539063 -0.4804687,1.5117188 -0.4804687,1.6875 0,0.94921875 0.7851562,1.359375 1.734375,1.41796875 -0.082031,0.3515625 -0.082031,0.375 -0.2226563,0.90234375 -0.023437,0.1054688 -0.2226562,0.9140625 -0.2226562,0.9492188 0,0.011719 0,0.09375 0.1171875,0.09375 0.023437,0 0.070312,0 0.09375,-0.035156 0.023437,-0.023437 0.082031,-0.2695312 0.1171875,-0.4101562 l 0.375,-1.4882813 c 0.375,0 1.2421875,0 2.1796875,-1.06640625 0.4101562,-0.45703125 0.6210937,-0.89062495 0.7265625,-1.19531245 0.09375,-0.2460938 0.3164062,-1.1132813 0.3164062,-1.546875 0,-0.5625 -0.2695312,-0.703125 -0.4453125,-0.703125 -0.2460937,0 -0.4921875,0.2578125 -0.4921875,0.4804687 0,0.1289063 0.058594,0.1875 0.1523438,0.2695313 0.1054687,0.1054687 0.3515625,0.3632812 0.3515625,0.84375 0,0.6445312 -0.515625,1.453125 -0.8671875,1.8164062 -0.8789063,0.890625 -1.5117188,0.890625 -1.875,0.890625 z m 0,0"
       style="fill:#d9d9d9;fill-opacity:1;fill-rule:nonzero;stroke:none"
       aria-label="ψ"
       transform="matrix(1.3333333,0,0,1.3333333,1907.4027,172.98267)" />
    <path
       id="path148"
       d="m -24.23833,-33.29677 c 25.87693,-4.70904 54.87738,-1.4946 73.93926,8.03662"
       style="fill:none;stroke:#d9d9d9;stroke-width:0.3985;stroke-linecap:butt;stroke-linejoin:miter;stroke-miterlimit:10;stroke-dasharray:none;stroke-opacity:1"
       transform="matrix(1.3333333,0,0,-1.3333333,1891.5173,112.94267)" />
    <path
       id="path149"
       d="M -1.19551,1.59401 C -1.09587,0.99626 0,0.09961 0.29886,0 0,-0.09961 -1.09587,-0.99626 -1.19551,-1.59401"
       style="fill:none;stroke:#d9d9d9;stroke-width:0.31879;stroke-linecap:round;stroke-linejoin:round;stroke-miterlimit:10;stroke-dasharray:none;stroke-opacity:1"
       transform="matrix(1.1925067,-0.59626667,-0.59626667,-1.1925067,1957.7852,146.62287)" />
    <path
       id="path150"
       d="m -11.72491,-19.97806 c 0,1.5564 -1.26169,2.81809 -2.81809,2.81809 -1.5564,0 -2.81808,-1.26169 -2.81808,-2.81809 0,-1.55638 1.26168,-2.81807 2.81808,-2.81807 1.5564,0 2.81809,1.26169 2.81809,2.81807 z"
       style="fill:#d9d9d9;fill-opacity:1;fill-rule:nonzero;stroke:none"
       transform="matrix(1.3333333,0,0,-1.3333333,1891.5173,112.94267)" />
    <path
       id="path151"
       d="m 4.5815312,-3.1863594 c 0,-0.796875 -0.046875,-1.59375 -0.3984375,-2.3320312 -0.4570312,-0.9609375 -1.2773437,-1.1132813 -1.6875,-1.1132813 -0.5976562,0 -1.3359375,0.2578125 -1.73437495,1.1835938 -0.328125,0.6914062 -0.375,1.4648437 -0.375,2.2617187 0,0.75 0.046875,1.640625 0.4453125,2.40234378 0.43359375,0.80859375 1.16015625,1.0078125 1.65234375,1.0078125 0.5390625,0 1.2890625,-0.2109375 1.734375,-1.16015625 C 4.5346562,-1.6277656 4.5815312,-2.4012031 4.5815312,-3.1863594 Z M 2.483875,0.00114063 c -0.3867188,0 -0.984375,-0.24609375 -1.1601563,-1.20703123 C 1.21825,-1.8035469 1.21825,-2.7176094 1.21825,-3.3035469 c 0,-0.6445312 0,-1.3007812 0.082031,-1.8398437 0.1875,-1.1835938 0.9257813,-1.265625 1.1835938,-1.265625 0.328125,0 0.984375,0.1757812 1.171875,1.1601562 0.09375,0.5625 0.09375,1.3125 0.09375,1.9453125 0,0.75 0,1.4179688 -0.1054688,2.0625 -0.1523435,0.93750003 -0.7148435,1.24218753 -1.160156,1.24218753 z m 0,0"
       style="fill:#d9d9d9;fill-opacity:1;fill-rule:nonzero;stroke:none"
       aria-label="0"
       transform="matrix(1.3333333,0,0,1.3333333,1869.4707,155.49067)" />
    <path
       id="path152"
       d="m 20.78777,-19.26799 c 0,1.55639 -1.26169,2.81809 -2.81807,2.81809 -1.5564,0 -2.81809,-1.2617 -2.81809,-2.81809 0,-1.55638 1.26169,-2.81807 2.81809,-2.81807 1.55638,0 2.81807,1.26169 2.81807,2.81807 z"
       style="fill:#d9d9d9;fill-opacity:1;fill-rule:nonzero;stroke:none"
       transform="matrix(1.3333333,0,0,-1.3333333,1891.5173,112.94267)" />
    <path
       id="path153"
       d="m 2.9308594,-6.3748672 c 0,-0.234375 0,-0.2578125 -0.234375,-0.2578125 -0.609375,0.6328125 -1.4882813,0.6328125 -1.80468753,0.6328125 v 0.3164063 c 0.19921873,0 0.78515623,0 1.30078123,-0.2578125 v 5.15624996 c 0,0.3515625 -0.035156,0.48046875 -0.9257812,0.48046875 H 0.95039062 V 1.328125e-4 C 1.3019531,-0.03502344 2.1574219,-0.03502344 2.5558594,-0.03502344 c 0.3984375,0 1.265625,0 1.6171875,0.0351562525 V -0.30455469 H 3.8566406 c -0.9023437,0 -0.9257812,-0.1171875 -0.9257812,-0.48046875 z m 0,0"
       style="fill:#d9d9d9;fill-opacity:1;fill-rule:nonzero;stroke:none"
       aria-label="1"
       transform="matrix(1.3333333,0,0,1.3333333,1912.82,153.21467)" />
    <path
       id="path154"
       d="m 42.77422,-7.27118 c 0,1.5564 -1.26169,2.81808 -2.81809,2.81808 -1.5564,0 -2.81808,-1.26168 -2.81808,-2.81808 0,-1.5564 1.26168,-2.81808 2.81808,-2.81808 1.5564,0 2.81809,1.26168 2.81809,2.81808 z"
       style="fill:#d9d9d9;fill-opacity:1;fill-rule:nonzero;stroke:none"
       transform="matrix(1.3333333,0,0,-1.3333333,1891.5173,112.94267)" />
    <path
       id="path155"
       d="m 41.35452,8.98506 c 0,1.5564 -1.26169,2.81809 -2.81808,2.81809 -1.55638,0 -2.81807,-1.26169 -2.81807,-2.81809 0,-1.55639 1.26169,-2.81808 2.81807,-2.81808 1.55639,0 2.81808,1.26169 2.81808,2.81808 z"
       style="fill:#d9d9d9;fill-opacity:1;fill-rule:nonzero;stroke:none"
       transform="matrix(1.3333333,0,0,-1.3333333,1891.5173,112.94267)" />
    <path
       id="path156"
       d="m 17.36108,19.97806 c 0,1.55638 -1.26168,2.81807 -2.81808,2.81807 -1.5564,0 -2.81809,-1.26169 -2.81809,-2.81807 0,-1.5564 1.26169,-2.81809 2.81809,-2.81809 1.5564,0 2.81808,1.26169 2.81808,2.81809 z"
       style="fill:#d9d9d9;fill-opacity:1;fill-rule:nonzero;stroke:none"
       transform="matrix(1.3333333,0,0,-1.3333333,1891.5173,112.94267)" />
    <path
       id="path157"
       d="m -15.15161,19.26799 c 0,1.55638 -1.26169,2.81807 -2.81809,2.81807 -1.55638,0 -2.81807,-1.26169 -2.81807,-2.81807 0,-1.55639 1.26169,-2.81809 2.81807,-2.81809 1.5564,0 2.81809,1.2617 2.81809,2.81809 z"
       style="fill:#d9d9d9;fill-opacity:1;fill-rule:nonzero;stroke:none"
       transform="matrix(1.3333333,0,0,-1.3333333,1891.5173,112.94267)" />
    <path
       id="path158"
       d="m -37.13805,7.27118 c 0,1.5564 -1.26168,2.81808 -2.81808,2.81808 -1.5564,0 -2.81809,-1.26168 -2.81809,-2.81808 0,-1.5564 1.26169,-2.81808 2.81809,-2.81808 1.5564,0 2.81808,1.26168 2.81808,2.81808 z"
       style="fill:#d9d9d9;fill-opacity:1;fill-rule:nonzero;stroke:none"
       transform="matrix(1.3333333,0,0,-1.3333333,1891.5173,112.94267)" />
    <path
       id="path159"
       d="m -35.71837,-8.98506 c 0,1.55639 -1.26169,2.81808 -2.81807,2.81808 -1.55639,0 -2.81808,-1.26169 -2.81808,-2.81808 0,-1.5564 1.26169,-2.81809 2.81808,-2.81809 1.55638,0 2.81807,1.26169 2.81807,2.81809 z"
       style="fill:#d9d9d9;fill-opacity:1;fill-rule:nonzero;stroke:none"
       transform="matrix(1.3333333,0,0,-1.3333333,1891.5173,112.94267)" />
    <g
       id="g159"
       aria-label="M−1"
       transform="matrix(1.3333333,0,0,1.3333333,1811.5147,141.34933)">
      <path
         id="path160"
         d="m 9.2213828,-6.0364141 c 0.09375,-0.3632812 0.1054688,-0.4570312 0.8554692,-0.4570312 0.234375,0 0.316406,0 0.316406,-0.1992188 0,-0.1171875 -0.09375,-0.1171875 -0.269531,-0.1171875 H 8.8112266 c -0.2578125,0 -0.2695313,0 -0.3867188,0.1992188 L 4.7916953,-0.93875781 4.0182578,-6.5754766 c -0.035156,-0.234375 -0.058594,-0.234375 -0.3164062,-0.234375 h -1.359375 c -0.1875,0 -0.3046875,0 -0.3046875,0.1992188 0,0.1171875 0.09375,0.1171875 0.2929687,0.1171875 0.1289063,0 0.3046875,0.011719 0.421875,0.011719 0.1640625,0.023437 0.2226563,0.058594 0.2226563,0.1640625 0,0.035156 -0.011719,0.070312 -0.035156,0.1875 l -1.265625,5.0742188 c -0.1054687,0.39843749 -0.2695312,0.71484374 -1.07812499,0.74999999 -0.046875,0 -0.17578125,0 -0.17578125,0.1875 0,0.08203125 0.0585938,0.1171875 0.140625,0.1171875 0.31640625,0 0.66796874,-0.03515625 0.99609374,-0.03515625 0.3398438,0 0.6914063,0.03515625 1.0195313,0.03515625 0.046875,0 0.1757812,0 0.1757812,-0.19921875 0,-0.10546875 -0.1054687,-0.10546875 -0.1757812,-0.10546875 -0.5625,-0.0117188 -0.6796875,-0.2109375 -0.6796875,-0.4453125 0,-0.0703125 0.011719,-0.1171875 0.046875,-0.22265625 L 3.2916953,-6.4114141 h 0.011719 l 0.8554687,6.17578129 c 0.023437,0.12890625 0.035156,0.234375 0.1523438,0.234375 0.1054687,0 0.1757812,-0.10546875 0.2226562,-0.17578125 L 8.5534141,-6.4817266 h 0.011719 l -1.4296875,5.70703129 c -0.09375,0.38671875 -0.1171875,0.46875 -0.9023437,0.46875 -0.1640625,0 -0.28125,0 -0.28125,0.1875 0,0.1171875 0.1289062,0.1171875 0.1523437,0.1171875 0.28125,0 0.9609375,-0.03515625 1.2304688,-0.03515625 0.4101562,0 0.84375,0.03515625 1.2539062,0.03515625 0.058594,0 0.1875,0 0.1875,-0.19921875 0,-0.10546875 -0.09375,-0.10546875 -0.28125,-0.10546875 -0.3632812,0 -0.6445312,0 -0.6445312,-0.1875 0,-0.0351563 0,-0.0585938 0.046875,-0.234375 z m 0,0"
         style="fill:#d9d9d9;fill-opacity:1;fill-rule:nonzero;stroke:none" />
      <path
         id="path161"
         d="m 19.528023,-2.2981328 c 0.175782,0 0.351563,0 0.351563,-0.1992188 0,-0.1992187 -0.175781,-0.1992187 -0.351563,-0.1992187 h -5.390625 c -0.164062,0 -0.339843,0 -0.339843,0.1992187 0,0.1992188 0.175781,0.1992188 0.339843,0.1992188 z m 0,0"
         style="fill:#d9d9d9;fill-opacity:1;fill-rule:nonzero;stroke:none" />
      <path
         id="path162"
         d="m 25.859078,-6.3762578 c 0,-0.234375 0,-0.2578125 -0.234375,-0.2578125 -0.609375,0.6328125 -1.488281,0.6328125 -1.804687,0.6328125 v 0.3164062 c 0.199218,0 0.785156,0 1.300781,-0.2578125 v 5.15625004 c 0,0.3515625 -0.03516,0.48046875 -0.925781,0.48046875 h -0.316407 v 0.3046875 c 0.351563,-0.03515625 1.207032,-0.03515625 1.605469,-0.03515625 0.398438,0 1.265625,0 1.617188,0.03515625 v -0.3046875 h -0.316407 c -0.902343,0 -0.925781,-0.1171875 -0.925781,-0.48046875 z m 0,0"
         style="fill:#d9d9d9;fill-opacity:1;fill-rule:nonzero;stroke:none" />
    </g>
  </g>
</svg>
