<?xml version="1.0" encoding="UTF-8" standalone="no"?>
<!-- Created with Inkscape (http://www.inkscape.org/) -->

<svg
   version="1.1"
   id="svg1"
   width="279.94922"
   height="100.48046"
   viewBox="0 0 279.94923 100.48046"
   xmlns="http://www.w3.org/2000/svg"
   xmlns:svg="http://www.w3.org/2000/svg">
  <defs
     id="defs1" />
  <g
     id="g1"
     transform="translate(-5.0429688,-3.7890631)">
    <path
       id="path1"
       d="M 1.99255,0 C 1.99255,1.10046 1.10046,1.99255 0,1.99255 -1.10046,1.99255 -1.99255,1.10046 -1.99255,0 c 0,-1.10046 0.89209,-1.99255 1.99255,-1.99255 1.10046,0 1.99255,0.89209 1.99255,1.99255 z"
       style="fill:#d9d9d9;fill-opacity:1;fill-rule:nonzero;stroke:#000000;stroke-width:0.3985;stroke-linecap:butt;stroke-linejoin:miter;stroke-miterlimit:10;stroke-dasharray:none;stroke-opacity:1"
       transform="matrix(1.3333333,0,0,-1.3333333,148.51333,75.137333)" />
    <path
       id="path2"
       d="M 3.4807422,-3.8685 2.2033984,-4.1731875 c -0.6210937,-0.1523437 -1.0078125,-0.6914062 -1.0078125,-1.265625 0,-0.703125 0.5390625,-1.3007812 1.3125,-1.3007812 1.6640625,0 1.8867188,1.6289062 1.9453125,2.0742187 0.011719,0.058594 0.011719,0.1171875 0.1171875,0.1171875 0.1289063,0 0.1289063,-0.046875 0.1289063,-0.234375 v -2.0039062 c 0,-0.1640625 0,-0.234375 -0.1054688,-0.234375 -0.070312,0 -0.082031,0.011719 -0.1523437,0.1289062 l -0.3515625,0.5625 c -0.2929688,-0.28125 -0.703125,-0.6914062 -1.59375,-0.6914062 -1.1015625,0 -1.93359376,0.8789062 -1.93359376,1.9335937 0,0.8203125 0.52734376,1.546875 1.30078126,1.8164063 0.1054687,0.046875 0.6210937,0.1640625 1.3125,0.328125 0.2695312,0.070312 0.5742187,0.140625 0.84375,0.515625 0.2109375,0.2578125 0.3164062,0.5859375 0.3164062,0.9140625 0,0.70312495 -0.5039062,1.4179687 -1.3359375,1.4179687 -0.2929687,0 -1.0429687,-0.046875 -1.5703125,-0.5390625 C 0.84402344,-1.1614687 0.82058594,-1.806 0.80886719,-2.1575625 c -0.0117188,-0.1054687 -0.09375,-0.1054687 -0.1171875,-0.1054687 -0.12890625,0 -0.12890625,0.070312 -0.12890625,0.2460937 V -0.02475 c 0,0.17578125 0,0.24609375 0.10546875,0.24609375 0.0703125,0 0.0820313,-0.0234375 0.15234375,-0.12890625 0,-0.01171875 0.0234375,-0.046875 0.35156246,-0.57421875 0.3164063,0.33984375 0.9492188,0.703125 1.8398438,0.703125 1.1601562,0 1.9570312,-0.984375 1.9570312,-2.07421875 0,-0.9960937 -0.65625,-1.8164062 -1.4882812,-2.015625 z m 3.1669922,1.359375 C 6.7063281,-3.9974062 7.5500781,-4.2435 7.8899219,-4.2435 c 1.0195312,0 1.125,1.3476563 1.125,1.734375 z m -0.011719,0.2109375 h 2.7890625 c 0.2109375,0 0.2460938,0 0.2460938,-0.2109375 0,-0.984375 -0.5390625,-1.9570312 -1.78125,-1.9570312 -1.1601563,0 -2.0742188,1.03125 -2.0742188,2.2734375 0,1.33593745 1.0429688,2.29687495 2.1914063,2.29687495 1.21875,0 1.6640625,-1.1015625 1.6640625,-1.28906245 0,-0.1054688 -0.082031,-0.1171875 -0.1289063,-0.1171875 -0.09375,0 -0.1171875,0.058594 -0.1289062,0.140625 -0.3515625,1.0195312 -1.2539063,1.0195312 -1.3476563,1.0195312 -0.5039062,0 -0.9023437,-0.29296875 -1.125,-0.66796875 C 6.6360156,-1.290375 6.6360156,-1.946625 6.6360154,-2.2981875 Z m 4.4267576,-1.125 v 2.66015625 C 11.062773,-0.306 10.945586,-0.306 10.277617,-0.306 v 0.3046875 c 0.351563,-0.01171875 0.855469,-0.03515625 1.125,-0.03515625 0.257813,0 0.785156,0.0234375 1.113281,0.03515625 V -0.306 c -0.65625,0 -0.773437,0 -0.773437,-0.45703125 V -2.5911562 c 0,-1.03125 0.714844,-1.59375 1.347656,-1.59375 0.621094,0 0.738281,0.5390625 0.738281,1.1015625 v 2.32031245 C 13.828398,-0.306 13.711211,-0.306 13.054961,-0.306 v 0.3046875 c 0.339844,-0.01171875 0.855469,-0.03515625 1.125,-0.03515625 0.257812,0 0.773437,0.0234375 1.113281,0.03515625 V -0.306 c -0.515625,0 -0.773437,0 -0.785156,-0.3046875 V -2.509125 c 0,-0.8554687 0,-1.171875 -0.304688,-1.5234375 -0.140625,-0.1757812 -0.46875,-0.375 -1.042968,-0.375 -0.726563,0 -1.195313,0.4335938 -1.476563,1.0546875 v -1.0546875 l -1.40625,0.1171875 v 0.3046875 c 0.703125,0 0.785156,0.070312 0.785156,0.5625 z m 6.509766,1.4882813 c 0.222656,0.035156 1.03125,0.1992187 1.03125,0.9140625 0,0.51562495 -0.351562,0.91406245 -1.125,0.91406245 -0.832031,0 -1.195312,-0.57421875 -1.382812,-1.41796875 -0.03516,-0.1289062 -0.03516,-0.1757812 -0.140625,-0.1757812 -0.128907,0 -0.128907,0.070312 -0.128907,0.2578125 v 1.31249995 c 0,0.1640625 0,0.234375 0.105469,0.234375 0.05859,0 0.07031,0 0.257813,-0.19921875 0.01172,-0.01171875 0.01172,-0.03515625 0.199218,-0.22265625 0.433594,0.421875 0.878907,0.421875 1.089844,0.421875 1.148438,0 1.605469,-0.66796875 1.605469,-1.38281245 0,-0.5273438 -0.292969,-0.8203125 -0.421875,-0.9492188 -0.328125,-0.3164062 -0.714844,-0.3984375 -1.136719,-0.46875 -0.550781,-0.1171875 -1.21875,-0.2460937 -1.21875,-0.8203125 0,-0.3515625 0.257813,-0.7617187 1.113281,-0.7617187 1.101563,0 1.148438,0.9023437 1.171875,1.2070312 0,0.09375 0.09375,0.09375 0.117188,0.09375 0.128906,0 0.128906,-0.046875 0.128906,-0.2460937 v -0.9960938 c 0,-0.1757812 0,-0.2460937 -0.117187,-0.2460937 -0.04687,0 -0.07031,0 -0.199219,0.1171875 -0.02344,0.046875 -0.128906,0.1289062 -0.164063,0.1640625 -0.375,-0.28125 -0.785156,-0.28125 -0.9375,-0.28125 -1.21875,0 -1.59375,0.6679687 -1.59375,1.2304687 0,0.3398438 0.164063,0.6210938 0.433594,0.84375 0.316406,0.2578125 0.597656,0.3164063 1.3125,0.4570313 z m 6.541992,-0.1992188 c 0,-1.2773437 -0.996093,-2.3320312 -2.191406,-2.3320312 -1.253906,0 -2.214844,1.0898437 -2.214844,2.3320312 0,1.2890625 1.03125,2.23828125 2.203125,2.23828125 1.207032,0 2.203125,-0.97265625 2.203125,-2.23828125 z m -2.191406,1.9921875 c -0.433594,0 -0.867187,-0.2109375 -1.136719,-0.66796875 C 20.528594,-1.2435 20.528594,-1.852875 20.528594,-2.2161562 c 0,-0.3867188 0,-0.9257813 0.246094,-1.359375 0.269531,-0.4570313 0.738281,-0.6679688 1.136718,-0.6679688 0.433594,0 0.867188,0.2226563 1.125,0.6445313 0.257813,0.4335937 0.257813,1.0078125 0.257813,1.3828125 0,0.3632812 0,0.9023437 -0.222656,1.33593745 -0.222657,0.4453125 -0.65625,0.73828125 -1.148438,0.73828125 z M 26.071563,-3.306 V -4.4075625 L 24.68875,-4.290375 v 0.3046875 c 0.691406,0 0.773438,0.070312 0.773438,0.5625 v 2.66015625 C 25.462188,-0.306 25.356719,-0.306 24.68875,-0.306 v 0.3046875 c 0.386719,-0.01171875 0.855469,-0.03515625 1.136719,-0.03515625 0.398437,0 0.867187,0 1.265625,0.03515625 V -0.306 h -0.210938 c -0.738281,0 -0.761718,-0.1171875 -0.761718,-0.46875 v -1.5351562 c 0,-0.984375 0.421875,-1.875 1.183593,-1.875 0.05859,0 0.08203,0 0.105469,0.011719 -0.03516,0.011719 -0.234375,0.1289063 -0.234375,0.3867188 0,0.28125 0.210938,0.4335937 0.433594,0.4335937 0.175781,0 0.421875,-0.1289062 0.421875,-0.4453125 0,-0.3164062 -0.304688,-0.609375 -0.726563,-0.609375 -0.738281,0 -1.089843,0.6679688 -1.230468,1.1015622 z m 8.487304,-3.0703125 c 0,-0.234375 0,-0.2578125 -0.234375,-0.2578125 -0.609375,0.6328125 -1.488281,0.6328125 -1.804687,0.6328125 v 0.3164063 c 0.199218,0 0.785156,0 1.300781,-0.2578125 v 5.15624995 c 0,0.3515625 -0.03516,0.48046875 -0.925781,0.48046875 h -0.316407 v 0.3046875 c 0.351563,-0.03515625 1.207032,-0.03515625 1.605469,-0.03515625 0.398438,0 1.265625,0 1.617188,0.03515625 V -0.306 h -0.316407 c -0.902343,0 -0.925781,-0.1171875 -0.925781,-0.48046875 z m 0,0"
       style="fill:#d9d9d9;fill-opacity:1;fill-rule:nonzero;stroke:none"
       aria-label="Sensor1"
       transform="matrix(1.3333333,0,0,1.3333333,153.20667,88.908)" />
    <path
       id="path3"
       d="m -66.03961,17.00824 c 0,1.10046 -0.89208,1.99256 -1.99256,1.99256 -1.10046,0 -1.99255,-0.8921 -1.99255,-1.99256 0,-1.10048 0.89209,-1.99255 1.99255,-1.99255 1.10048,0 1.99256,0.89207 1.99256,1.99255 z"
       style="fill:#d9d9d9;fill-opacity:1;fill-rule:nonzero;stroke:#000000;stroke-width:0.3985;stroke-linecap:butt;stroke-linejoin:miter;stroke-miterlimit:10;stroke-dasharray:none;stroke-opacity:1"
       transform="matrix(1.3333333,0,0,-1.3333333,148.51333,75.137333)" />
    <path
       id="path4"
       d="M 3.4791953,-3.8679688 2.2018516,-4.1726563 C 1.5807578,-4.325 1.1940391,-4.8640625 1.1940391,-5.4382813 c 0,-0.703125 0.5390625,-1.3007812 1.3125,-1.3007812 1.6640625,0 1.8867187,1.6289062 1.9453125,2.0742187 0.011719,0.058594 0.011719,0.1171875 0.1171875,0.1171875 0.1289062,0 0.1289062,-0.046875 0.1289062,-0.234375 v -2.0039062 c 0,-0.1640625 0,-0.234375 -0.1054687,-0.234375 -0.070312,0 -0.082031,0.011719 -0.1523438,0.1289062 l -0.3515625,0.5625 c -0.2929687,-0.28125 -0.703125,-0.6914062 -1.59375,-0.6914062 -1.1015625,0 -1.93359374,0.8789062 -1.93359374,1.9335937 0,0.8203125 0.52734374,1.546875 1.30078124,1.8164063 0.1054688,0.046875 0.6210938,0.1640625 1.3125,0.328125 0.2695313,0.070312 0.5742188,0.140625 0.84375,0.515625 0.2109375,0.2578125 0.3164063,0.5859375 0.3164063,0.9140625 0,0.703125 -0.5039063,1.41796875 -1.3359375,1.41796875 -0.2929688,0 -1.0429688,-0.046875 -1.5703125,-0.5390625 C 0.84247656,-1.1609375 0.81903906,-1.8054688 0.80732031,-2.1570313 0.79560156,-2.2625 0.71357031,-2.2625 0.69013281,-2.2625 c -0.12890625,0 -0.12890625,0.070312 -0.12890625,0.2460937 v 1.99218755 c 0,0.17578125 0,0.24609375 0.10546875,0.24609375 0.0703125,0 0.0820313,-0.0234375 0.15234375,-0.12890625 0,-0.01171875 0.0234375,-0.046875 0.35156254,-0.57421875 0.3164062,0.33984375 0.9492187,0.703125 1.8398437,0.703125 1.1601563,0 1.9570313,-0.984375 1.9570313,-2.0742188 0,-0.9960937 -0.65625,-1.8164062 -1.4882813,-2.015625 z m 3.1699219,1.359375 c 0.058594,-1.4882812 0.9023437,-1.734375 1.2421875,-1.734375 1.0195312,0 1.125,1.3476563 1.125,1.734375 z m -0.011719,0.2109375 h 2.7890625 c 0.2109375,0 0.2460938,0 0.2460938,-0.2109375 0,-0.984375 -0.5390625,-1.9570312 -1.78125,-1.9570312 -1.1601563,0 -2.0742188,1.03125 -2.0742188,2.2734375 0,1.3359375 1.0429688,2.296875 2.1914063,2.296875 1.21875,0 1.6640625,-1.1015625 1.6640625,-1.2890625 0,-0.1054688 -0.082031,-0.1171875 -0.1289063,-0.1171875 -0.09375,0 -0.1171875,0.058594 -0.1289062,0.140625 -0.3515625,1.01953125 -1.2539063,1.01953125 -1.3476563,1.01953125 -0.5039062,0 -0.9023437,-0.29296875 -1.125,-0.66796875 C 6.6373984,-1.2898438 6.6373984,-1.9460938 6.6373982,-2.2976563 Z m 4.4267578,-1.125 V -0.7625 c 0,0.45703125 -0.117187,0.45703125 -0.785156,0.45703125 v 0.3046875 C 10.630562,-0.0125 11.134469,-0.0359375 11.404,-0.0359375 c 0.257812,0 0.785156,0.0234375 1.113281,0.03515625 v -0.3046875 c -0.65625,0 -0.773437,0 -0.773437,-0.45703125 v -1.828125 c 0,-1.03125 0.714843,-1.59375 1.347656,-1.59375 0.621094,0 0.738281,0.5390625 0.738281,1.1015625 V -0.7625 c 0,0.45703125 -0.117187,0.45703125 -0.773437,0.45703125 v 0.3046875 c 0.339843,-0.01171875 0.855468,-0.03515625 1.125,-0.03515625 0.257812,0 0.773437,0.0234375 1.113281,0.03515625 v -0.3046875 c -0.515625,0 -0.773438,0 -0.785156,-0.3046875 V -2.5085938 c 0,-0.8554687 0,-1.171875 -0.304688,-1.5234375 -0.140625,-0.1757812 -0.46875,-0.375 -1.042969,-0.375 -0.726562,0 -1.195312,0.4335938 -1.476562,1.0546875 V -4.4070313 L 10.279,-4.2898438 v 0.3046875 c 0.703125,0 0.785156,0.070312 0.785156,0.5625 z m 6.506836,1.4882813 c 0.222656,0.035156 1.03125,0.1992187 1.03125,0.9140625 0,0.515625 -0.351562,0.9140625 -1.125,0.9140625 -0.832031,0 -1.195312,-0.57421875 -1.382812,-1.4179688 C 16.059273,-1.653125 16.059273,-1.7 15.953805,-1.7 c -0.128907,0 -0.128907,0.070312 -0.128907,0.2578125 v 1.3125 c 0,0.1640625 0,0.234375 0.105469,0.234375 0.05859,0 0.07031,0 0.257813,-0.19921875 0.01172,-0.01171875 0.01172,-0.03515625 0.199218,-0.22265625 0.433594,0.421875 0.878907,0.421875 1.089844,0.421875 1.148438,0 1.605469,-0.66796875 1.605469,-1.3828125 0,-0.5273438 -0.292969,-0.8203125 -0.421875,-0.9492188 -0.328125,-0.3164062 -0.714844,-0.3984375 -1.136719,-0.46875 -0.550781,-0.1171875 -1.21875,-0.2460937 -1.21875,-0.8203125 0,-0.3515625 0.257813,-0.7617187 1.113281,-0.7617187 1.101563,0 1.148438,0.9023437 1.171875,1.2070312 0,0.09375 0.09375,0.09375 0.117188,0.09375 0.128906,0 0.128906,-0.046875 0.128906,-0.2460937 v -0.9960938 c 0,-0.1757812 0,-0.2460937 -0.117187,-0.2460937 -0.04687,0 -0.07031,0 -0.199219,0.1171875 -0.02344,0.046875 -0.128906,0.1289062 -0.164063,0.1640625 -0.375,-0.28125 -0.785156,-0.28125 -0.9375,-0.28125 -1.21875,0 -1.59375,0.6679687 -1.59375,1.2304687 0,0.3398438 0.164063,0.6210938 0.433594,0.84375 0.316406,0.2578125 0.597656,0.3164063 1.3125,0.4570313 z m 6.544922,-0.1992188 c 0,-1.2773437 -0.996094,-2.3320312 -2.191406,-2.3320312 -1.253906,0 -2.214844,1.0898437 -2.214844,2.3320312 0,1.28906255 1.03125,2.2382813 2.203125,2.2382813 1.207031,0 2.203125,-0.97265625 2.203125,-2.2382813 z m -2.191406,1.99218755 c -0.433594,0 -0.867188,-0.2109375 -1.136719,-0.66796875 -0.257812,-0.4335938 -0.257812,-1.0429688 -0.257812,-1.40625 0,-0.3867188 0,-0.9257813 0.246093,-1.359375 0.269532,-0.4570313 0.738282,-0.6679688 1.136719,-0.6679688 0.433594,0 0.867188,0.2226563 1.125,0.6445313 0.257813,0.4335937 0.257813,1.0078125 0.257813,1.3828125 0,0.3632812 0,0.9023437 -0.222657,1.3359375 -0.222656,0.4453125 -0.65625,0.73828125 -1.148437,0.73828125 z m 4.148437,-3.16406255 v -1.1015625 l -1.382812,0.1171875 v 0.3046875 c 0.691406,0 0.773437,0.070312 0.773437,0.5625 V -0.7625 c 0,0.45703125 -0.105468,0.45703125 -0.773437,0.45703125 v 0.3046875 C 25.076852,-0.0125 25.545602,-0.0359375 25.826852,-0.0359375 c 0.398437,0 0.867187,0 1.265625,0.03515625 v -0.3046875 h -0.210938 c -0.738281,0 -0.761719,-0.1171875 -0.761719,-0.46875 V -2.309375 c 0,-0.984375 0.421875,-1.875 1.183594,-1.875 0.05859,0 0.08203,0 0.105469,0.011719 -0.03516,0.011719 -0.234375,0.1289063 -0.234375,0.3867188 0,0.28125 0.210937,0.4335937 0.433594,0.4335937 0.175781,0 0.421875,-0.1289062 0.421875,-0.4453125 0,-0.3164062 -0.304688,-0.609375 -0.726563,-0.609375 -0.738281,0 -1.089844,0.6679688 -1.230469,1.1015622 z m 6.820313,2.5429688 1.054687,-1.03125 c 1.558594,-1.3710938 2.15625,-1.9101563 2.15625,-2.90625 0,-1.1367188 -0.902343,-1.9335938 -2.121093,-1.9335938 -1.125,0 -1.851563,0.9140625 -1.851563,1.8046875 0,0.5507813 0.492188,0.5507813 0.527344,0.5507813 0.164062,0 0.515625,-0.1171875 0.515625,-0.5273438 0,-0.2578125 -0.1875,-0.515625 -0.527344,-0.515625 -0.08203,0 -0.105469,0 -0.128906,0.011719 0.222656,-0.6445313 0.761719,-1.0195313 1.335937,-1.0195313 0.914063,0 1.335938,0.8085938 1.335938,1.6289063 0,0.796875 -0.492188,1.5820312 -1.042969,2.203125 l -1.910156,2.1328125 c -0.105469,0.10546875 -0.105469,0.12890625 -0.105469,0.36328125 h 3.691406 l 0.28125,-1.73437505 h -0.257812 c -0.04687,0.3046875 -0.117188,0.7382813 -0.210938,0.89062505 C 35.565133,-0.7625 34.908883,-0.7625 34.686227,-0.7625 Z m 0,0"
       style="fill:#d9d9d9;fill-opacity:1;fill-rule:nonzero;stroke:none"
       aria-label="Sensor2"
       transform="matrix(1.3333333,0,0,1.3333333,4.2946667,47.766667)" />
    <path
       id="path5"
       d="M 64.14581,39.25085 74.3684,11.16489 79.81346,19.5081 73.67992,36.35968 Z m 15.66776,-19.74282 5.61719,2.04451 -6.13352,16.85156 -5.61729,-2.04431"
       style="fill:#cccccc;fill-opacity:1;fill-rule:nonzero;stroke:#000000;stroke-width:0.3985;stroke-linecap:butt;stroke-linejoin:miter;stroke-miterlimit:10;stroke-dasharray:none;stroke-opacity:1"
       transform="matrix(1.3333333,0,0,-1.3333333,148.51333,75.137333)" />
    <path
       id="path6"
       d="M 61.54993,28.80176 C 59.56505,24.54515 61.40674,19.48523 65.66335,17.50035"
       style="fill:none;stroke:#d9d9d9;stroke-width:0.3985;stroke-linecap:butt;stroke-linejoin:miter;stroke-miterlimit:10;stroke-dasharray:none;stroke-opacity:1"
       transform="matrix(1.3333333,0,0,-1.3333333,148.51333,75.137333)" />
    <path
       id="path7"
       d="M 55.12729,31.79665 C 51.48836,23.99289 54.86475,14.71643 62.6685,11.0775"
       style="fill:none;stroke:#d9d9d9;stroke-width:0.3985;stroke-linecap:butt;stroke-linejoin:miter;stroke-miterlimit:10;stroke-dasharray:none;stroke-opacity:1"
       transform="matrix(1.3333333,0,0,-1.3333333,148.51333,75.137333)" />
    <path
       id="path8"
       d="M 48.70464,34.79156 C 43.41167,23.44067 48.3228,9.94763 59.67369,4.65468"
       style="fill:none;stroke:#d9d9d9;stroke-width:0.3985;stroke-linecap:butt;stroke-linejoin:miter;stroke-miterlimit:10;stroke-dasharray:none;stroke-opacity:1"
       transform="matrix(1.3333333,0,0,-1.3333333,148.51333,75.137333)" />
    <path
       id="path9"
       d="M 3.4791016,-3.8658594 2.2017578,-4.1705469 c -0.6210937,-0.1523437 -1.0078125,-0.6914062 -1.0078125,-1.265625 0,-0.703125 0.5390625,-1.3007812 1.3125,-1.3007812 1.6640625,0 1.8867188,1.6289062 1.9453125,2.0742187 0.011719,0.058594 0.011719,0.1171875 0.1171875,0.1171875 0.1289063,0 0.1289063,-0.046875 0.1289063,-0.234375 v -2.0039062 c 0,-0.1640625 0,-0.234375 -0.1054688,-0.234375 -0.070312,0 -0.082031,0.011719 -0.1523437,0.1289062 l -0.3515625,0.5625 c -0.2929688,-0.28125 -0.703125,-0.6914062 -1.59375,-0.6914062 -1.1015625,0 -1.93359379,0.8789062 -1.93359379,1.9335937 0,0.8203125 0.52734379,1.546875 1.30078129,1.8164063 0.1054687,0.046875 0.6210937,0.1640625 1.3125,0.328125 0.2695312,0.070312 0.5742187,0.140625 0.84375,0.515625 0.2109375,0.2578125 0.3164062,0.5859375 0.3164062,0.9140625 0,0.70312497 -0.5039062,1.41796872 -1.3359375,1.41796872 -0.2929687,0 -1.0429687,-0.046875 -1.5703125,-0.5390625 C 0.84238281,-1.1588281 0.81894531,-1.8033594 0.80722656,-2.1549219 c -0.0117188,-0.1054687 -0.09375,-0.1054687 -0.1171875,-0.1054687 -0.12890625,0 -0.12890625,0.070312 -0.12890625,0.2460937 v 1.99218752 c 0,0.17578125 0,0.24609375 0.10546875,0.24609375 0.0703125,0 0.0820313,-0.0234375 0.15234375,-0.12890625 0,-0.01171875 0.0234375,-0.046875 0.35156249,-0.57421875 0.3164063,0.33984375 0.9492188,0.703125 1.8398438,0.703125 1.1601562,0 1.9570312,-0.984375 1.9570312,-2.07421877 0,-0.9960937 -0.65625,-1.8164062 -1.4882812,-2.015625 z m 6.7441404,1.734375 c 0,-1.2773437 -0.9960936,-2.3320312 -2.1914061,-2.3320312 -1.2539062,0 -2.2148437,1.0898437 -2.2148437,2.3320312 0,1.28906252 1.03125,2.23828127 2.203125,2.23828127 1.2070312,0 2.2031248,-0.97265625 2.2031248,-2.23828127 z m -2.1914061,1.99218752 c -0.4335937,0 -0.8671875,-0.2109375 -1.1367187,-0.66796875 C 6.6373047,-1.2408594 6.6373047,-1.8502344 6.6373047,-2.2135156 c 0,-0.3867188 0,-0.9257813 0.2460937,-1.359375 0.2695313,-0.4570313 0.7382813,-0.6679688 1.1367188,-0.6679688 0.4335937,0 0.8671875,0.2226563 1.125,0.6445313 0.2578125,0.4335937 0.2578125,1.0078125 0.2578125,1.3828125 0,0.3632812 0,0.9023437 -0.2226563,1.33593747 -0.2226562,0.4453125 -0.65625,0.73828125 -1.1484375,0.73828125 z m 6.3750001,-0.64453125 v 0.890625 l 1.441406,-0.10546875 v -0.3046875 c -0.703125,0 -0.785156,-0.0703125 -0.785156,-0.5625 V -4.4049219 l -1.453125,0.1171875 v 0.3046875 c 0.691406,0 0.773437,0.070312 0.773437,0.5625 v 1.7695313 c 0,0.86718747 -0.480468,1.54687497 -1.207031,1.54687497 -0.832031,0 -0.878906,-0.46875 -0.878906,-0.99609377 v -3.3046875 l -1.464844,0.1171875 v 0.3046875 c 0.785156,0 0.785156,0.035156 0.785156,0.9140625 v 1.5 c 0,0.77343752 0,1.67578127 1.511719,1.67578127 0.550781,0 0.996094,-0.26953125 1.277344,-0.890625 z m 3.307617,-2.51953127 v -1.1015625 l -1.382812,0.1171875 v 0.3046875 c 0.691406,0 0.773437,0.070312 0.773437,0.5625 v 2.66015627 c 0,0.45703125 -0.105469,0.45703125 -0.773437,0.45703125 v 0.3046875 c 0.386718,-0.01171875 0.855468,-0.03515625 1.136718,-0.03515625 0.398438,0 0.867188,0 1.265625,0.03515625 v -0.3046875 h -0.210937 c -0.738281,0 -0.761719,-0.1171875 -0.761719,-0.46875 V -2.3072656 c 0,-0.984375 0.421875,-1.875 1.183594,-1.875 0.05859,0 0.08203,0 0.105469,0.011719 -0.03516,0.011719 -0.234375,0.1289063 -0.234375,0.3867188 0,0.28125 0.210937,0.4335937 0.433593,0.4335937 0.175782,0 0.421875,-0.1289062 0.421875,-0.4453125 0,-0.3164062 -0.304687,-0.609375 -0.726562,-0.609375 -0.738281,0 -1.089844,0.6679688 -1.230469,1.1015622 z m 3.398438,1.1367188 c 0,-1.6289063 0.820312,-2.0507813 1.347656,-2.0507813 0.09375,0 0.714844,0.011719 1.066406,0.375 -0.410156,0.023437 -0.46875,0.328125 -0.46875,0.4570313 0,0.2578125 0.1875,0.4570312 0.457031,0.4570312 0.257813,0 0.457032,-0.1640625 0.457032,-0.46875 0,-0.6796875 -0.75,-1.0664062 -1.523438,-1.0664062 -1.242187,0 -2.15625,1.078125 -2.15625,2.3085937 0,1.27734377 0.984375,2.26171877 2.144531,2.26171877 1.335938,0 1.652344,-1.19531247 1.652344,-1.28906247 0,-0.1054688 -0.105469,-0.1054688 -0.128906,-0.1054688 -0.09375,0 -0.117188,0.046875 -0.128906,0.1054688 -0.292969,0.92578122 -0.9375,1.04296872 -1.3125,1.04296872 -0.527344,0 -1.40625,-0.421875 -1.40625,-2.02734372 z m 4.382812,-0.3398438 c 0.05859,-1.4882812 0.902344,-1.734375 1.242188,-1.734375 1.019531,0 1.125,1.3476563 1.125,1.734375 z m -0.01172,0.2109375 h 2.789063 c 0.210937,0 0.246094,0 0.246094,-0.2109375 0,-0.984375 -0.539063,-1.9570312 -1.78125,-1.9570312 -1.160157,0 -2.074219,1.03125 -2.074219,2.2734375 0,1.33593747 1.042969,2.29687497 2.191406,2.29687497 1.21875,0 1.664063,-1.1015625 1.664063,-1.28906247 0,-0.1054688 -0.08203,-0.1171875 -0.128907,-0.1171875 -0.09375,0 -0.117187,0.058594 -0.128906,0.140625 -0.351562,1.01953122 -1.253906,1.01953122 -1.347656,1.01953122 -0.503906,0 -0.902344,-0.29296875 -1.125,-0.66796875 C 25.483984,-1.2877344 25.483984,-1.9439844 25.483984,-2.2955469 Z m 0,0"
       style="fill:#d9d9d9;fill-opacity:1;fill-rule:nonzero;stroke:none"
       aria-label="Source"
       transform="matrix(1.3333333,0,0,1.3333333,246.96667,13.146667)" />
    <path
       id="path10"
       d="M -54.60902,-19.87608 32.49742,11.82817"
       style="fill:none;stroke:#d9d9d9;stroke-width:0.79701;stroke-linecap:butt;stroke-linejoin:miter;stroke-miterlimit:10;stroke-dasharray:2.98883, 2.98883;stroke-dashoffset:0;stroke-opacity:0.5"
       transform="matrix(1.3333333,0,0,-1.3333333,148.51333,75.137333)" />
    <path
       id="path11"
       d="M -54.60902,-19.87608 -68.03217,17.00824"
       style="fill:none;stroke:#d9d9d9;stroke-width:0.79701;stroke-linecap:butt;stroke-linejoin:miter;stroke-miterlimit:10;stroke-dasharray:0.79701, 1.99255;stroke-dashoffset:0;stroke-opacity:1"
       transform="matrix(1.3333333,0,0,-1.3333333,148.51333,75.137333)" />
    <path
       id="path12"
       d="m -49.28229,-17.93729 -1.93902,5.32739 -5.32739,-1.93903"
       style="fill:none;stroke:#d9d9d9;stroke-width:0.79701;stroke-linecap:butt;stroke-linejoin:miter;stroke-miterlimit:10;stroke-dasharray:none;stroke-opacity:1"
       transform="matrix(1.3333333,0,0,-1.3333333,148.51333,75.137333)" />
    <path
       id="path13"
       d="m 0,0 c -0.191,-1.6598 -1.4886,-3.19229 -3.82907,-4.04413 l -17.93219,-6.52667 c -2.34047,-0.85184 -3.63809,-2.38432 -3.82907,-4.04414 -1.21323,1.14877 -3.19229,1.48861 -5.53277,0.63678 l -17.9322,-6.52669 c -2.34047,-0.85184 -4.31955,-0.51198 -5.53276,0.63676"
       style="fill:none;stroke:#d9d9d9;stroke-width:0.3985;stroke-linecap:butt;stroke-linejoin:miter;stroke-miterlimit:10;stroke-dasharray:none;stroke-opacity:1"
       transform="matrix(1.3333333,0,0,-1.3333333,148.51333,75.137333)" />
    <path
       id="path14"
       d="m 2.9294766,-3.7148828 h 1.6757812 c 0.1289063,0 0.4804688,0 0.4804688,-0.3398438 0,-0.234375 -0.1992188,-0.234375 -0.3984375,-0.234375 H 1.8982266 c -0.1992188,0 -0.5859375,0 -1.01953129,0.46875 -0.328125,0.3515625 -0.609375,0.8320313 -0.609375,0.890625 0,0.011719 0,0.1054688 0.1171875,0.1054688 0.0820313,0 0.10546875,-0.046875 0.1640625,-0.1289063 C 1.0310391,-3.7148828 1.6052578,-3.7148828 1.8161953,-3.7148828 h 0.8203125 l -0.9726562,3.19921874 c -0.035156,0.1171875 -0.1054688,0.328125 -0.1054688,0.36328125 0,0.1171875 0.070312,0.26953125 0.2929688,0.26953125 0.328125,0 0.375,-0.28125 0.4101562,-0.421875 z m 0,0"
       style="fill:#d9d9d9;fill-opacity:1;fill-rule:nonzero;stroke:none"
       aria-label="τ"
       transform="matrix(1.3333333,0,0,1.3333333,116.012,104.11333)" />
  </g>
</svg>
