<?xml version="1.0" encoding="UTF-8" standalone="no"?>
<!-- Created with Inkscape (http://www.inkscape.org/) -->

<svg
   version="1.1"
   id="svg1"
   width="168.96487"
   height="173.12109"
   viewBox="0 0 168.96488 173.12109"
   xmlns="http://www.w3.org/2000/svg"
   xmlns:svg="http://www.w3.org/2000/svg">
  <defs
     id="defs1" />
  <g
     id="g112"
     transform="translate(-1613.2209,-3.9140626)">
    <path
       id="path113"
       d="M 0,0 -28.66972,-39.38426"
       style="fill:none;stroke:#d9d9d9;stroke-width:0.79701;stroke-linecap:butt;stroke-linejoin:miter;stroke-miterlimit:10;stroke-dasharray:none;stroke-opacity:1"
       transform="matrix(1.3333333,0,0,-1.3333333,1664.164,112.94267)" />
    <path
       id="path114"
       d="M -1.55415,2.0722 C -1.42464,1.29512 0,0.1295 0.38852,0 0,-0.1295 -1.42464,-1.29512 -1.55415,-2.0722"
       style="fill:none;stroke:#d9d9d9;stroke-width:0.6376;stroke-linecap:round;stroke-linejoin:round;stroke-miterlimit:10;stroke-dasharray:none;stroke-opacity:1"
       transform="matrix(-0.78466667,1.07796,1.07796,0.78466667,1625.9377,165.455)" />
    <path
       id="path115"
       d="m 3.3268516,-3.0118203 c 0.058594,-0.2578125 0.2929687,-1.171875 0.984375,-1.171875 0.046875,0 0.2929687,0 0.5039062,0.1289062 -0.28125,0.046875 -0.4804687,0.3046875 -0.4804687,0.5390625 0,0.1640625 0.1054687,0.3515625 0.375,0.3515625 0.2226562,0 0.5390625,-0.1875 0.5390625,-0.5859375 0,-0.515625 -0.5859375,-0.65625 -0.9257813,-0.65625 -0.5742187,0 -0.9257812,0.5273438 -1.0429687,0.7617188 -0.2578125,-0.65625 -0.7851563,-0.7617188 -1.078125,-0.7617188 -1.0429688,0 -1.60546879,1.2890625 -1.60546879,1.5351563 0,0.1054687 0.10546875,0.1054687 0.1171875,0.1054687 0.0820313,0 0.1171875,-0.023437 0.12890625,-0.1171875 0.33984374,-1.0546875 0.99609374,-1.3007812 1.33593754,-1.3007812 0.1875,0 0.5390625,0.09375 0.5390625,0.6679687 0,0.3046875 -0.1640625,0.9726563 -0.5390625,2.3671875 -0.1523438,0.62109379 -0.5039063,1.04296879 -0.9492188,1.04296879 -0.058594,0 -0.28124999,0 -0.49218749,-0.12890625 0.24609375,-0.0585938 0.46874999,-0.26953125 0.46874999,-0.5390625 0,-0.26953124 -0.22265624,-0.35156254 -0.37499999,-0.35156254 -0.29296875,0 -0.5390625,0.25781254 -0.5390625,0.57421879 0,0.45703125 0.4921875,0.65625 0.93749999,0.65625 0.65625,0 1.0078125,-0.69140625 1.0429688,-0.75 0.1171875,0.36328125 0.4804687,0.75 1.078125,0.75 1.0195312,0 1.59375,-1.27734379 1.59375,-1.53515629 0,-0.09375 -0.09375,-0.09375 -0.1289063,-0.09375 -0.082031,0 -0.1054687,0.035156 -0.1289062,0.1054688 -0.328125,1.06640624 -0.9960938,1.31249999 -1.3242188,1.31249999 -0.3867187,0 -0.5390625,-0.328125 -0.5390625,-0.65625 0,-0.22265625 0.058594,-0.44531249 0.1640625,-0.87890629 z m 0,0"
       style="fill:#d9d9d9;fill-opacity:1;fill-rule:nonzero;stroke:none"
       aria-label="x"
       transform="matrix(1.3333333,0,0,1.3333333,1612.832,176.89467)" />
    <path
       id="path116"
       d="M 0,0 79.21635,-14.41574"
       style="fill:none;stroke:#d9d9d9;stroke-width:0.79701;stroke-linecap:butt;stroke-linejoin:miter;stroke-miterlimit:10;stroke-dasharray:none;stroke-opacity:1"
       transform="matrix(1.3333333,0,0,-1.3333333,1664.164,112.94267)" />
    <path
       id="path117"
       d="M -1.55415,2.0722 C -1.42464,1.29512 0,0.1295 0.38852,0 0,-0.1295 -1.42464,-1.29512 -1.55415,-2.0722"
       style="fill:none;stroke:#d9d9d9;stroke-width:0.6376;stroke-linecap:round;stroke-linejoin:round;stroke-miterlimit:10;stroke-dasharray:none;stroke-opacity:1"
       transform="matrix(1.3117467,0.23869333,0.23869333,-1.3117467,1769.7858,132.16365)" />
    <path
       id="path118"
       d="m 4.8394531,-3.7960859 c 0.046875,-0.140625 0.046875,-0.1523438 0.046875,-0.2226563 0,-0.1875 -0.140625,-0.2695312 -0.2929687,-0.2695312 -0.1054688,0 -0.2578125,0.058594 -0.3515625,0.1992187 -0.023437,0.058594 -0.09375,0.3632813 -0.140625,0.5390625 -0.070312,0.2578125 -0.140625,0.5273438 -0.1992188,0.796875 l -0.4453125,1.79296876 c -0.035156,0.15234375 -0.46875,0.85546875 -1.125,0.85546875 -0.5039062,0 -0.6210937,-0.4453125 -0.6210937,-0.80859375 0,-0.45703126 0.1757812,-1.07812496 0.515625,-1.95703126 0.1523437,-0.4101562 0.1992187,-0.515625 0.1992187,-0.7148437 0,-0.4453125 -0.328125,-0.8203125 -0.8203125,-0.8203125 -0.94921872,0 -1.31249997,1.453125 -1.31249997,1.5351562 0,0.1054688 0.09375,0.1054688 0.1171875,0.1054688 0.09375,0 0.10546875,-0.023437 0.15234375,-0.1875 0.26953125,-0.9375 0.66796872,-1.2304688 1.00781252,-1.2304688 0.082031,0 0.2578125,0 0.2578125,0.3164063 0,0.2460937 -0.1054688,0.515625 -0.1757813,0.703125 -0.3984375,1.0546875 -0.5742187,1.6171875 -0.5742187,2.0859375 0,0.89062496 0.6210937,1.18359371 1.21875,1.18359371 0.3867187,0 0.7265625,-0.1640625 0.9960937,-0.4453125 -0.1289062,0.515625 -0.2460937,1.0078125 -0.6445312,1.53515629 -0.2578125,0.3398437 -0.6328125,0.6328125 -1.0898438,0.6328125 -0.140625,0 -0.59765622,-0.035156 -0.76171872,-0.421875 0.1640625,0 0.29296872,0 0.43359372,-0.1171875 0.09375,-0.09375 0.1992188,-0.2226563 0.1992188,-0.41015629 0,-0.31640625 -0.2695313,-0.3515625 -0.375,-0.3515625 -0.22265627,0 -0.55078127,0.1640625 -0.55078127,0.64453129 0,0.5039062 0.43359375,0.8671875 1.05468747,0.8671875 1.0195313,0 2.0507813,-0.9023438 2.3320313,-2.02734379 z m 0,0"
       style="fill:#d9d9d9;fill-opacity:1;fill-rule:nonzero;stroke:none"
       aria-label="y"
       transform="matrix(1.3333333,0,0,1.3333333,1775.6707,143.01067)" />
    <path
       id="path119"
       d="M 0,0 V 72.94002"
       style="fill:none;stroke:#d9d9d9;stroke-width:0.79701;stroke-linecap:butt;stroke-linejoin:miter;stroke-miterlimit:10;stroke-dasharray:none;stroke-opacity:1"
       transform="matrix(1.3333333,0,0,-1.3333333,1664.164,112.94267)" />
    <path
       id="path120"
       d="M -1.55415,2.0722 C -1.42464,1.29512 0,0.1295 0.38852,0 0,-0.1295 -1.42464,-1.29512 -1.55415,-2.0722"
       style="fill:none;stroke:#d9d9d9;stroke-width:0.6376;stroke-linecap:round;stroke-linejoin:round;stroke-miterlimit:10;stroke-dasharray:none;stroke-opacity:1"
       transform="matrix(0,-1.3333333,-1.3333333,0,1664.164,15.689307)" />
    <path
       id="path121"
       d="M 1.3247891,-0.83223437 C 1.8638516,-1.4064531 2.1568203,-1.6525469 2.5083828,-1.9572344 c 0,-0.011719 0.6210938,-0.5390625 0.984375,-0.9023437 0.9375,-0.9257813 1.1601563,-1.40625 1.1601563,-1.4414063 0,-0.1054687 -0.09375,-0.1054687 -0.1054688,-0.1054687 -0.070312,0 -0.1054687,0.023437 -0.1523437,0.1171875 -0.3046875,0.46875 -0.5039063,0.6328125 -0.75,0.6328125 -0.234375,0 -0.3515625,-0.1523438 -0.5039063,-0.3164063 -0.1875,-0.234375 -0.3632812,-0.4335937 -0.6914062,-0.4335937 -0.75,0 -1.2070313,0.9257812 -1.2070313,1.1367187 0,0.046875 0.035156,0.1171875 0.1171875,0.1171875 0.09375,0 0.1171875,-0.058594 0.140625,-0.1171875 0.1875,-0.4570312 0.7617188,-0.46875 0.84375,-0.46875 0.2109375,0 0.3984375,0.070312 0.6210938,0.1523438 0.3984375,0.1523437 0.515625,0.1523437 0.7734375,0.1523437 -0.3632813,0.421875 -1.1953125,1.1367188 -1.3828125,1.3007813 l -0.9023438,0.8320312 c -0.67968749,0.66796878 -1.01953124,1.24218753 -1.01953124,1.31250003 0,0.09375 0.09375,0.09375 0.1171875,0.09375 0.0820313,0 0.09375,-0.01171875 0.15234375,-0.12890625 0.234375,-0.33984375 0.52734379,-0.609375 0.85546879,-0.609375 0.2226562,0 0.328125,0.0820313 0.5742187,0.375 0.1640625,0.2109375 0.3515625,0.36328125 0.6328125,0.36328125 0.984375,0 1.5703125,-1.26562503 1.5703125,-1.53515623 0,-0.046875 -0.046875,-0.09375 -0.1171875,-0.09375 -0.09375,0 -0.1171875,0.058594 -0.140625,0.1289062 -0.234375,0.64453128 -0.8671875,0.83203128 -1.1953125,0.83203128 -0.1992187,0 -0.3867187,-0.0585938 -0.5859375,-0.12890625 -0.3398437,-0.12890625 -0.4921875,-0.1640625 -0.703125,-0.1640625 -0.023437,0 -0.1757812,0 -0.2695312,0.0234375 z m 0,0"
       style="fill:#d9d9d9;fill-opacity:1;fill-rule:nonzero;stroke:none"
       aria-label="z"
       transform="matrix(1.3333333,0,0,1.3333333,1660.7827,9.7893333)" />
    <path
       id="path122"
       d="M 0,0 50.11087,-25.0551"
       style="fill:none;stroke:#d9d9d9;stroke-width:0.79701;stroke-linecap:butt;stroke-linejoin:miter;stroke-miterlimit:10;stroke-dasharray:0.79701, 1.99255;stroke-dashoffset:0;stroke-opacity:1"
       transform="matrix(1.3333333,0,0,-1.3333333,1664.164,112.94267)" />
    <path
       id="path123"
       d="m 4.8044766,-6.6549687 c 0.011719,-0.035156 0.023437,-0.09375 0.023437,-0.1523438 0,-0.09375 -0.070312,-0.1054687 -0.1171875,-0.1054687 -0.09375,0 -0.1054688,0.023437 -0.1523438,0.1992187 L 2.9060391,-0.127625 c -0.75,-0.09375 -1.1367188,-0.45703125 -1.1367188,-1.1132812 0,-0.1992188 0,-0.4570313 0.5390625,-1.8515625 0.046875,-0.1289063 0.1171875,-0.2929688 0.1171875,-0.4921875 0,-0.4453125 -0.328125,-0.8203125 -0.8203125,-0.8203125 -0.94921874,0 -1.31249999,1.453125 -1.31249999,1.5351562 0,0.1054688 0.09375,0.1054688 0.1171875,0.1054688 0.09375,0 0.10546875,-0.023437 0.15234375,-0.1875 0.26953125,-0.9375 0.66796874,-1.2304688 1.00781254,-1.2304688 0.082031,0 0.2578125,0 0.2578125,0.3164063 0,0.2578125 -0.1054688,0.515625 -0.234375,0.8554687 -0.4804688,1.2539063 -0.4804688,1.5117188 -0.4804688,1.6875 0,0.94921875 0.7851563,1.359375 1.734375,1.41796875 -0.082031,0.3515625 -0.082031,0.375 -0.2226562,0.90234375 -0.023437,0.1054688 -0.2226563,0.9140625 -0.2226563,0.9492188 0,0.011719 0,0.09375 0.1171875,0.09375 0.023437,0 0.070312,0 0.09375,-0.035156 0.023437,-0.023437 0.082031,-0.2695312 0.1171875,-0.4101562 l 0.375,-1.4882813 c 0.375,0 1.2421875,0 2.1796875,-1.06640625 0.4101563,-0.45703125 0.6210938,-0.89062495 0.7265625,-1.19531245 0.09375,-0.2460938 0.3164063,-1.1132813 0.3164063,-1.546875 0,-0.5625 -0.2695313,-0.703125 -0.4453125,-0.703125 -0.2460938,0 -0.4921875,0.2578125 -0.4921875,0.4804687 0,0.1289063 0.058594,0.1875 0.1523437,0.2695313 0.1054688,0.1054687 0.3515625,0.3632812 0.3515625,0.84375 0,0.6445312 -0.515625,1.453125 -0.8671875,1.8164062 -0.8789062,0.890625 -1.5117187,0.890625 -1.875,0.890625 z m 0,0"
       style="fill:#d9d9d9;fill-opacity:1;fill-rule:nonzero;stroke:none"
       aria-label="ψ"
       transform="matrix(1.3333333,0,0,1.3333333,1680.0493,172.98267)" />
    <path
       id="path124"
       d="m -24.23833,-33.29677 c 25.87693,-4.70904 54.87738,-1.4946 73.93926,8.03662"
       style="fill:none;stroke:#d9d9d9;stroke-width:0.3985;stroke-linecap:butt;stroke-linejoin:miter;stroke-miterlimit:10;stroke-dasharray:none;stroke-opacity:1"
       transform="matrix(1.3333333,0,0,-1.3333333,1664.164,112.94267)" />
    <path
       id="path125"
       d="M -1.19551,1.59401 C -1.09587,0.99626 0,0.09961 0.29886,0 0,-0.09961 -1.09587,-0.99626 -1.19551,-1.59401"
       style="fill:none;stroke:#d9d9d9;stroke-width:0.31879;stroke-linecap:round;stroke-linejoin:round;stroke-miterlimit:10;stroke-dasharray:none;stroke-opacity:1"
       transform="matrix(1.1925067,-0.59626667,-0.59626667,-1.1925067,1730.4319,146.62287)" />
    <path
       id="path126"
       d="m -20.45065,-31.96481 c 0,1.55639 -1.26169,2.81808 -2.81809,2.81808 -1.55639,0 -2.81808,-1.26169 -2.81808,-2.81808 0,-1.5564 1.26169,-2.81809 2.81808,-2.81809 1.5564,0 2.81809,1.26169 2.81809,2.81809 z"
       style="fill:#d9d9d9;fill-opacity:1;fill-rule:nonzero;stroke:none"
       transform="matrix(1.3333333,0,0,-1.3333333,1664.164,112.94267)" />
    <path
       id="path127"
       d="m 4.5826875,-3.1882031 c 0,-0.796875 -0.046875,-1.59375 -0.3984375,-2.3320313 -0.4570313,-0.9609375 -1.2773438,-1.1132812 -1.6875,-1.1132812 -0.5976563,0 -1.3359375,0.2578125 -1.734375,1.1835937 -0.328125,0.6914063 -0.375,1.4648438 -0.375,2.2617188 0,0.75 0.046875,1.640625 0.4453125,2.40234373 0.4335937,0.80859375 1.1601562,1.0078125 1.6523437,1.0078125 0.5390625,0 1.2890625,-0.2109375 1.734375,-1.16015625 C 4.5358125,-1.6296094 4.5826875,-2.4030469 4.5826875,-3.1882031 Z M 2.4850312,-7.03125e-4 c -0.3867187,0 -0.984375,-0.246093745 -1.1601562,-1.207031275 -0.1054688,-0.5976562 -0.1054688,-1.5117187 -0.1054688,-2.0976562 0,-0.6445313 0,-1.3007813 0.082031,-1.8398438 0.1875,-1.1835937 0.9257812,-1.265625 1.1835937,-1.265625 0.328125,0 0.984375,0.1757813 1.171875,1.1601563 0.09375,0.5625 0.09375,1.3125 0.09375,1.9453125 0,0.75 0,1.4179687 -0.1054687,2.0625 -0.1523438,0.93749998 -0.7148438,1.242187475 -1.160156,1.242187475 z m 0,0"
       style="fill:#d9d9d9;fill-opacity:1;fill-rule:nonzero;stroke:none"
       aria-label="0"
       transform="matrix(1.3333333,0,0,1.3333333,1625.8333,149.54)" />
    <path
       id="path128"
       d="m -8.81627,-15.98239 c 0,1.55639 -1.26169,2.81809 -2.81808,2.81809 -1.5564,0 -2.81809,-1.2617 -2.81809,-2.81809 0,-1.5564 1.26169,-2.81809 2.81809,-2.81809 1.55639,0 2.81808,1.26169 2.81808,2.81809 z"
       style="fill:#d9d9d9;fill-opacity:1;fill-rule:nonzero;stroke:none"
       transform="matrix(1.3333333,0,0,-1.3333333,1664.164,112.94267)" />
    <path
       id="path129"
       d="m 2.9301328,-6.3751484 c 0,-0.234375 0,-0.2578125 -0.234375,-0.2578125 -0.609375,0.6328125 -1.4882812,0.6328125 -1.80468749,0.6328125 v 0.3164062 c 0.19921879,0 0.78515629,0 1.30078129,-0.2578125 v 5.15625001 c 0,0.3515625 -0.035156,0.48046875 -0.9257813,0.48046875 H 0.94966406 V -1.484375e-4 C 1.3012266,-0.03530469 2.1566953,-0.03530469 2.5551328,-0.03530469 c 0.3984375,0 1.265625,0 1.6171875,0.0351562525 V -0.30483594 H 3.8559141 c -0.9023438,0 -0.9257813,-0.1171875 -0.9257813,-0.48046875 z m 0,0"
       style="fill:#d9d9d9;fill-opacity:1;fill-rule:nonzero;stroke:none"
       aria-label="1"
       transform="matrix(1.3333333,0,0,1.3333333,1641.3453,128.23067)" />
    <path
       id="path130"
       d="M 2.81807,0 C 2.81807,1.55638 1.55638,2.81807 0,2.81807 -1.55638,2.81807 -2.81807,1.55638 -2.81807,0 c 0,-1.55638 1.26169,-2.81807 2.81807,-2.81807 1.55638,0 2.81807,1.26169 2.81807,2.81807 z"
       style="fill:#d9d9d9;fill-opacity:1;fill-rule:nonzero;stroke:none"
       transform="matrix(1.3333333,0,0,-1.3333333,1664.164,112.94267)" />
    <path
       id="path131"
       d="m 14.45244,15.98239 c 0,1.5564 -1.26169,2.81809 -2.81809,2.81809 -1.55639,0 -2.81808,-1.26169 -2.81808,-2.81809 0,-1.55639 1.26169,-2.81809 2.81808,-2.81809 1.5564,0 2.81809,1.2617 2.81809,2.81809 z"
       style="fill:#d9d9d9;fill-opacity:1;fill-rule:nonzero;stroke:none"
       transform="matrix(1.3333333,0,0,-1.3333333,1664.164,112.94267)" />
    <path
       id="path132"
       d="m 26.08682,31.96481 c 0,1.5564 -1.26169,2.81809 -2.81808,2.81809 -1.5564,0 -2.81809,-1.26169 -2.81809,-2.81809 0,-1.55639 1.26169,-2.81808 2.81809,-2.81808 1.55639,0 2.81808,1.26169 2.81808,2.81808 z"
       style="fill:#d9d9d9;fill-opacity:1;fill-rule:nonzero;stroke:none"
       transform="matrix(1.3333333,0,0,-1.3333333,1664.164,112.94267)" />
    <g
       id="g132"
       aria-label="M−1"
       transform="matrix(1.3333333,0,0,1.3333333,1672.5973,63.194667)">
      <path
         id="path133"
         d="m 9.2216016,-6.0346719 c 0.09375,-0.3632812 0.1054687,-0.4570312 0.8554684,-0.4570312 0.234375,0 0.316407,0 0.316407,-0.1992188 0,-0.1171875 -0.09375,-0.1171875 -0.269532,-0.1171875 H 8.8114453 c -0.2578125,0 -0.2695312,0 -0.3867187,0.1992188 L 4.7919141,-0.93701563 4.0184766,-6.5737344 c -0.035156,-0.234375 -0.058594,-0.234375 -0.3164063,-0.234375 h -1.359375 c -0.1875,0 -0.3046875,0 -0.3046875,0.1992188 0,0.1171875 0.09375,0.1171875 0.2929688,0.1171875 0.1289062,0 0.3046875,0.011719 0.421875,0.011719 0.1640625,0.023437 0.2226562,0.058594 0.2226562,0.1640625 0,0.035156 -0.011719,0.070312 -0.035156,0.1875 l -1.265625,5.0742188 c -0.1054688,0.39843747 -0.2695313,0.71484372 -1.07812504,0.74999997 -0.046875,0 -0.17578125,0 -0.17578125,0.1875 0,0.08203125 0.0585938,0.117187505 0.140625,0.117187505 0.31640625,0 0.66796879,-0.035156255 0.99609379,-0.035156255 0.3398437,0 0.6914062,0.035156255 1.0195312,0.035156255 0.046875,0 0.1757813,0 0.1757813,-0.199218755 0,-0.10546875 -0.1054688,-0.10546875 -0.1757813,-0.10546875 -0.5625,-0.0117188 -0.6796875,-0.2109375 -0.6796875,-0.4453125 0,-0.0703125 0.011719,-0.1171875 0.046875,-0.22265625 L 3.2919141,-6.4096719 h 0.011719 l 0.8554688,6.17578127 c 0.023437,0.12890625 0.035156,0.234375005 0.1523437,0.234375005 0.1054688,0 0.1757813,-0.105468755 0.2226563,-0.175781255 L 8.5536328,-6.4799844 h 0.011719 l -1.4296875,5.70703127 c -0.09375,0.38671875 -0.1171875,0.46875 -0.9023438,0.46875 -0.1640625,0 -0.28125,0 -0.28125,0.1875 0,0.117187505 0.1289063,0.117187505 0.1523438,0.117187505 0.28125,0 0.9609375,-0.035156255 1.2304687,-0.035156255 0.4101563,0 0.84375,0.035156255 1.2539063,0.035156255 0.058594,0 0.1875,0 0.1875,-0.199218755 0,-0.10546875 -0.09375,-0.10546875 -0.28125,-0.10546875 -0.3632813,0 -0.6445313,0 -0.6445313,-0.1875 0,-0.0351563 0,-0.0585938 0.046875,-0.234375 z m 0,0"
         style="fill:#d9d9d9;fill-opacity:1;fill-rule:nonzero;stroke:none" />
      <path
         id="path134"
         d="m 19.528242,-2.2963906 c 0.175781,0 0.351563,0 0.351563,-0.1992188 0,-0.1992187 -0.175782,-0.1992187 -0.351563,-0.1992187 h -5.390625 c -0.164062,0 -0.339844,0 -0.339844,0.1992187 0,0.1992188 0.175782,0.1992188 0.339844,0.1992188 z m 0,0"
         style="fill:#d9d9d9;fill-opacity:1;fill-rule:nonzero;stroke:none" />
      <path
         id="path135"
         d="m 25.856367,-6.3745156 c 0,-0.234375 0,-0.2578125 -0.234375,-0.2578125 -0.609375,0.6328125 -1.488281,0.6328125 -1.804687,0.6328125 v 0.3164062 c 0.199218,0 0.785156,0 1.300781,-0.2578125 v 5.15625002 c 0,0.3515625 -0.03516,0.48046875 -0.925781,0.48046875 H 23.875898 V 4.84375e-4 c 0.351563,-0.035156255 1.207032,-0.035156255 1.605469,-0.035156255 0.398438,0 1.265625,0 1.617188,0.035156255 V -0.30420313 h -0.316407 c -0.902343,0 -0.925781,-0.1171875 -0.925781,-0.48046875 z m 0,0"
         style="fill:#d9d9d9;fill-opacity:1;fill-rule:nonzero;stroke:none" />
    </g>
  </g>
</svg>
