<?xml version="1.0" encoding="UTF-8" standalone="no"?>
<!-- Created with Inkscape (http://www.inkscape.org/) -->

<svg
   version="1.1"
   id="svg1"
   width="383.16019"
   height="193.83955"
   viewBox="0 0 383.1602 193.83955"
   xmlns="http://www.w3.org/2000/svg"
   xmlns:svg="http://www.w3.org/2000/svg">
  <defs
     id="defs1">
    <clipPath
       clipPathUnits="userSpaceOnUse"
       id="clipPath4794">
      <path
         d="M 0,-11.02855 H 274.06506 V 121.30754 H 0 Z"
         transform="translate(2.4999999e-5)"
         id="path4794" />
    </clipPath>
    <clipPath
       clipPathUnits="userSpaceOnUse"
       id="clipPath4796">
      <path
         d="M 0,-11.02855 H 274.06506 V 121.30754 H 0 Z"
         transform="translate(2.4999999e-5)"
         id="path4796" />
    </clipPath>
    <clipPath
       clipPathUnits="userSpaceOnUse"
       id="clipPath4798">
      <path
         d="M 0,-11.02855 H 274.06506 V 121.30754 H 0 Z"
         transform="translate(2.4999999e-5)"
         id="path4798" />
    </clipPath>
    <clipPath
       clipPathUnits="userSpaceOnUse"
       id="clipPath4800">
      <path
         d="M 0,-11.02855 H 274.06506 V 121.30754 H 0 Z"
         transform="translate(2.4999999e-5)"
         id="path4800" />
    </clipPath>
    <clipPath
       clipPathUnits="userSpaceOnUse"
       id="clipPath4802">
      <path
         d="M 0,-11.02855 H 274.06506 V 121.30754 H 0 Z"
         transform="translate(2.4999999e-5)"
         id="path4802" />
    </clipPath>
    <clipPath
       clipPathUnits="userSpaceOnUse"
       id="clipPath4804">
      <path
         d="M 0,-11.02855 H 274.06506 V 121.30754 H 0 Z"
         transform="translate(2.4999999e-5)"
         id="path4804" />
    </clipPath>
    <clipPath
       clipPathUnits="userSpaceOnUse"
       id="clipPath4806">
      <path
         d="M 0,-11.02855 H 274.06506 V 121.30754 H 0 Z"
         transform="translate(2.4999999e-5)"
         id="path4806" />
    </clipPath>
    <clipPath
       clipPathUnits="userSpaceOnUse"
       id="clipPath4808">
      <path
         d="M 0,-11.02855 H 274.06506 V 121.30754 H 0 Z"
         transform="translate(2.4999999e-5)"
         id="path4808" />
    </clipPath>
    <clipPath
       clipPathUnits="userSpaceOnUse"
       id="clipPath4814">
      <path
         d="M 0,-11.02855 H 274.06506 V 121.30754 H 0 Z"
         transform="translate(2.4999999e-5)"
         id="path4814" />
    </clipPath>
  </defs>
  <g
     id="g4782"
     transform="translate(-5276.6544,-14.344034)">
    <path
       id="path4783"
       d="m 0,-2.1262 v 4.2524 m 66.66447,-4.2524 v 4.2524 m 66.66448,-4.2524 v 4.2524 m 66.66447,-4.2524 v 4.2524 m 66.66448,-4.2524 v 4.2524"
       style="fill:none;stroke:#808080;stroke-width:0.19925;stroke-linecap:butt;stroke-linejoin:miter;stroke-miterlimit:10;stroke-dasharray:none;stroke-opacity:1"
       transform="matrix(1.3333333,0,0,-1.3333333,5293.2333,161.38267)" />
    <path
       id="path4784"
       d="M 0,0 H 271.17584"
       style="fill:none;stroke:#c3c3c3;stroke-width:0.99628;stroke-linecap:butt;stroke-linejoin:miter;stroke-miterlimit:10;stroke-dasharray:none;stroke-opacity:1"
       transform="matrix(1.3333333,0,0,-1.3333333,5293.2333,161.38267)" />
    <path
       id="path4785"
       d="M 2.8892,0 -1.73352,2.31136 0,0 -1.73352,-2.31136"
       style="fill:#c3c3c3;fill-opacity:1;fill-rule:nonzero;stroke:none"
       transform="matrix(1.3333333,0,0,-1.3333333,5654.8011,161.38267)" />
    <g
       id="g4785"
       aria-label="−180"
       transform="matrix(1.3333333,0,0,1.3333333,5275.328,179.58267)">
      <path
         id="path4786"
         d="m 7.8737266,-2.7543828 c 0.2109375,0 0.421875,0 0.421875,-0.234375 0,-0.234375 -0.2109375,-0.234375 -0.421875,-0.234375 h -6.46875 c -0.1992188,0 -0.41015629,0 -0.41015629,0.234375 0,0.234375 0.21093749,0.234375 0.41015629,0.234375 z m 0,0"
         style="fill:#d9d9d9;fill-opacity:1;fill-rule:nonzero;stroke:none" />
      <path
         id="path4787"
         d="m 12.742867,-7.6645391 c 0,-0.2695312 0,-0.28125 -0.246094,-0.28125 -0.28125,0.3164063 -0.878906,0.7617188 -2.109375,0.7617188 v 0.3515625 c 0.269532,0 0.867188,0 1.523438,-0.3164063 v 6.22265629 c 0,0.43359375 -0.03516,0.57421875 -1.078125,0.57421875 h -0.375 v 0.3515624975 c 0.316406,-0.0234374975 1.476562,-0.0234374975 1.875,-0.0234374975 0.398437,0 1.546875,0 1.863281,0.0234374975 V -0.35203906 h -0.363281 c -1.054688,0 -1.089844,-0.140625 -1.089844,-0.57421875 z m 5.970703,3.3515625 c 0.597657,-0.328125 1.464844,-0.8789062 1.464844,-1.875 0,-1.0429687 -0.996094,-1.7578125 -2.097656,-1.7578125 -1.183594,0 -2.121094,0.8671875 -2.121094,1.9570313 0,0.4101562 0.128906,0.8085937 0.457031,1.21875 0.128907,0.1523437 0.140625,0.1640625 0.984375,0.75 -1.160156,0.5390625 -1.757812,1.3476562 -1.757812,2.2148437 0,1.26562504 1.207031,2.05078129 2.425781,2.05078129 1.324219,0 2.4375,-0.97265625 2.4375,-2.22656249 0,-1.21875 -0.855469,-1.7578125 -1.792969,-2.3320313 z m -1.628906,-1.078125 c -0.152344,-0.1054687 -0.632812,-0.421875 -0.632812,-1.0078125 0,-0.7734375 0.820312,-1.265625 1.617187,-1.265625 0.855469,0 1.628906,0.6210938 1.628906,1.4882813 0,0.7265625 -0.527343,1.3125 -1.21875,1.6875 z m 0.5625,1.546875 1.453125,0.9375 c 0.304688,0.1992188 0.855469,0.5742188 0.855469,1.3007813 0,0.91406249 -0.914063,1.53515624 -1.875,1.53515624 -1.019531,0 -1.886719,-0.73828125 -1.886719,-1.73437504 0,-0.9375 0.679688,-1.6875 1.453125,-2.0390625 z m 8.712891,0.023437 c 0,-0.9960937 -0.05859,-1.96875 -0.492188,-2.8710937 -0.492187,-0.9960938 -1.347656,-1.2539063 -1.933594,-1.2539063 -0.691406,0 -1.546875,0.3398438 -1.980468,1.3359375 -0.339844,0.75 -0.457032,1.4882813 -0.457032,2.7890625 0,1.1601563 0.08203,2.0273438 0.515625,2.87109379 0.457032,0.9140625 1.289063,1.1953125 1.910157,1.1953125 1.042968,0 1.640625,-0.62109375 1.980468,-1.31249999 0.433594,-0.890625 0.457032,-2.0625 0.457032,-2.7539063 z m -2.4375,3.83203129 c -0.386719,0 -1.160157,-0.2109375 -1.382813,-1.52343749 -0.140625,-0.7148438 -0.140625,-1.6171875 -0.140625,-2.4609375 0,-0.9726563 0,-1.8632813 0.199219,-2.5664063 0.199219,-0.796875 0.808594,-1.171875 1.324219,-1.171875 0.457031,0 1.148437,0.28125 1.371093,1.3007813 0.152344,0.6796875 0.152344,1.6289062 0.152344,2.4375 0,0.8085937 0,1.7109375 -0.128906,2.4375 -0.222656,1.32421874 -0.972656,1.54687499 -1.394531,1.54687499 z m 0,0"
         style="fill:#d9d9d9;fill-opacity:1;fill-rule:nonzero;stroke:none" />
    </g>
    <g
       id="g4787"
       aria-label="−90"
       transform="matrix(1.3333333,0,0,1.3333333,5368.1147,179.58267)">
      <path
         id="path4788"
         d="m 7.8755234,-2.7543828 c 0.2109375,0 0.421875,0 0.421875,-0.234375 0,-0.234375 -0.2109375,-0.234375 -0.421875,-0.234375 h -6.46875 c -0.1992187,0 -0.41015621,0 -0.41015621,0.234375 0,0.234375 0.21093751,0.234375 0.41015621,0.234375 z m 0,0"
         style="fill:#d9d9d9;fill-opacity:1;fill-rule:nonzero;stroke:none" />
      <path
         id="path4789"
         d="m 13.670445,-3.4809453 c 0,2.82421874 -1.253906,3.41015624 -1.96875,3.41015624 -0.28125,0 -0.925781,-0.03515625 -1.21875,-0.45703125 h 0.07031 c 0.08203,0.0234375 0.515625,-0.046875 0.515625,-0.49218749 0,-0.2578125 -0.175781,-0.4921875 -0.492188,-0.4921875 -0.304687,0 -0.503906,0.2109375 -0.503906,0.51562499 0,0.75 0.597656,1.2421875 1.640625,1.2421875 1.5,0 2.941406,-1.58203129 2.941406,-4.18359379 0,-3.2109375 -1.335937,-4.0078125 -2.390625,-4.0078125 -1.3125,0 -2.4726559,1.1015625 -2.4726559,2.671875 0,1.5820313 1.1132809,2.6601563 2.3085939,2.6601563 0.878906,0 1.335937,-0.6445313 1.570312,-1.2539063 z m -1.523437,0.6210937 c -0.75,0 -1.078125,-0.609375 -1.183594,-0.8320312 -0.199219,-0.4570313 -0.199219,-1.03125 -0.199219,-1.5703125 0,-0.6679688 0,-1.2421875 0.316407,-1.734375 0.210937,-0.3164063 0.539062,-0.6679688 1.183593,-0.6679688 0.679688,0 1.03125,0.5976563 1.148438,0.8789063 0.234375,0.5859375 0.234375,1.59375 0.234375,1.78125 0,0.9960937 -0.445313,2.1445312 -1.5,2.1445312 z m 8.361328,-0.9609375 c 0,-0.9960937 -0.05859,-1.96875 -0.492188,-2.8710937 -0.492187,-0.9960938 -1.347656,-1.2539063 -1.933593,-1.2539063 -0.691407,0 -1.546875,0.3398438 -1.980469,1.3359375 -0.339844,0.75 -0.457031,1.4882813 -0.457031,2.7890625 0,1.1601563 0.08203,2.0273438 0.515625,2.87109379 0.457031,0.9140625 1.289062,1.1953125 1.910156,1.1953125 1.042969,0 1.640625,-0.62109375 1.980469,-1.31249999 0.433593,-0.890625 0.457031,-2.0625 0.457031,-2.7539063 z m -2.4375,3.83203129 c -0.386719,0 -1.160156,-0.2109375 -1.382813,-1.52343749 -0.140625,-0.7148438 -0.140625,-1.6171875 -0.140625,-2.4609375 0,-0.9726563 0,-1.8632813 0.199219,-2.5664063 0.199219,-0.796875 0.808594,-1.171875 1.324219,-1.171875 0.457031,0 1.148437,0.28125 1.371094,1.3007813 0.152343,0.6796875 0.152343,1.6289062 0.152343,2.4375 0,0.8085937 0,1.7109375 -0.128906,2.4375 -0.222656,1.32421874 -0.972656,1.54687499 -1.394531,1.54687499 z m 0,0"
         style="fill:#d9d9d9;fill-opacity:1;fill-rule:nonzero;stroke:none" />
    </g>
    <path
       id="path4790"
       d="m 5.3542734,-3.8207891 c 0,-0.9960937 -0.058594,-1.96875 -0.4921875,-2.8710937 -0.4921875,-0.9960938 -1.3476562,-1.2539063 -1.9335937,-1.2539063 -0.6914063,0 -1.546875,0.3398438 -1.98046876,1.3359375 -0.33984375,0.75 -0.45703125,1.4882813 -0.45703125,2.7890625 0,1.1601563 0.0820313,2.0273438 0.51562501,2.87109379 0.4570312,0.9140625 1.2890625,1.1953125 1.9101562,1.1953125 1.0429688,0 1.640625,-0.62109375 1.9804688,-1.31249999 0.4335937,-0.890625 0.4570312,-2.0625 0.4570312,-2.7539063 z m -2.4375,3.83203129 c -0.3867187,0 -1.1601562,-0.2109375 -1.3828125,-1.52343749 -0.140625,-0.7148438 -0.140625,-1.6171875 -0.140625,-2.4609375 0,-0.9726563 0,-1.8632813 0.1992188,-2.5664063 0.1992187,-0.796875 0.8085937,-1.171875 1.3242187,-1.171875 0.4570313,0 1.1484375,0.28125 1.3710938,1.3007813 0.1523437,0.6796875 0.1523437,1.6289062 0.1523437,2.4375 0,0.8085937 0,1.7109375 -0.1289062,2.4375 -0.2226563,1.32421874 -0.9726563,1.54687499 -1.3945313,1.54687499 z m 0,0"
       style="fill:#d9d9d9;fill-opacity:1;fill-rule:nonzero;stroke:none"
       aria-label="0"
       transform="matrix(1.3333333,0,0,1.3333333,5467.1013,179.58267)" />
    <path
       id="path4791"
       d="m 4.3711797,-3.4809453 c 0,2.82421874 -1.2539063,3.41015624 -1.96875,3.41015624 -0.28125,0 -0.9257813,-0.03515625 -1.21875,-0.45703125 h 0.070312 c 0.082031,0.0234375 0.515625,-0.046875 0.515625,-0.49218749 0,-0.2578125 -0.1757813,-0.4921875 -0.4921875,-0.4921875 -0.30468751,0 -0.50390626,0.2109375 -0.50390626,0.51562499 0,0.75 0.59765626,1.2421875 1.64062496,1.2421875 1.5,0 2.9414063,-1.58203129 2.9414063,-4.18359379 0,-3.2109375 -1.3359375,-4.0078125 -2.390625,-4.0078125 -1.3125,0 -2.47265626,1.1015625 -2.47265626,2.671875 0,1.5820313 1.11328126,2.6601563 2.30859376,2.6601563 0.8789062,0 1.3359375,-0.6445313 1.5703125,-1.2539063 z m -1.5234375,0.6210937 c -0.75,0 -1.078125,-0.609375 -1.1835938,-0.8320312 -0.1992187,-0.4570313 -0.1992187,-1.03125 -0.1992187,-1.5703125 0,-0.6679688 0,-1.2421875 0.3164062,-1.734375 0.2109375,-0.3164063 0.5390625,-0.6679688 1.1835938,-0.6679688 0.6796875,0 1.03125,0.5976563 1.1484375,0.8789063 0.234375,0.5859375 0.234375,1.59375 0.234375,1.78125 0,0.9960937 -0.4453125,2.1445312 -1.5,2.1445312 z M 11.20907,-3.8207891 c 0,-0.9960937 -0.05859,-1.96875 -0.492187,-2.8710937 -0.492188,-0.9960938 -1.3476564,-1.2539063 -1.9335939,-1.2539063 -0.6914063,0 -1.546875,0.3398438 -1.9804688,1.3359375 -0.3398437,0.75 -0.4570312,1.4882813 -0.4570312,2.7890625 0,1.1601563 0.082031,2.0273438 0.515625,2.87109379 0.4570312,0.9140625 1.2890625,1.1953125 1.9101562,1.1953125 1.0429688,0 1.6406247,-0.62109375 1.9804687,-1.31249999 0.433594,-0.890625 0.457031,-2.0625 0.457031,-2.7539063 z M 8.7715703,0.01124219 c -0.3867187,0 -1.1601562,-0.2109375 -1.3828125,-1.52343749 -0.140625,-0.7148438 -0.140625,-1.6171875 -0.140625,-2.4609375 0,-0.9726563 0,-1.8632813 0.1992188,-2.5664063 0.1992187,-0.796875 0.8085937,-1.171875 1.3242187,-1.171875 0.4570313,0 1.1484375,0.28125 1.3710937,1.3007813 0.152344,0.6796875 0.152344,1.6289062 0.152344,2.4375 0,0.8085937 0,1.7109375 -0.128906,2.4375 -0.2226567,1.32421874 -0.9726567,1.54687499 -1.3945317,1.54687499 z m 0,0"
       style="fill:#d9d9d9;fill-opacity:1;fill-rule:nonzero;stroke:none"
       aria-label="90"
       transform="matrix(1.3333333,0,0,1.3333333,5552.084,179.58267)" />
    <path
       id="path4792"
       d="m 3.4466797,-7.6645391 c 0,-0.2695312 0,-0.28125 -0.2460938,-0.28125 -0.28125,0.3164063 -0.8789062,0.7617188 -2.109375,0.7617188 v 0.3515625 c 0.2695313,0 0.8671875,0 1.5234375,-0.3164063 v 6.22265629 c 0,0.43359375 -0.035156,0.57421875 -1.078125,0.57421875 h -0.375 v 0.3515624975 c 0.3164063,-0.0234374975 1.4765625,-0.0234374975 1.875,-0.0234374975 0.3984375,0 1.546875,0 1.8632813,0.0234374975 V -0.35203906 H 4.5365234 c -1.0546875,0 -1.0898437,-0.140625 -1.0898437,-0.57421875 z m 5.9677734,3.3515625 c 0.5976559,-0.328125 1.4648439,-0.8789062 1.4648439,-1.875 0,-1.0429687 -0.9960939,-1.7578125 -2.0976564,-1.7578125 -1.1835937,0 -2.1210937,0.8671875 -2.1210937,1.9570313 0,0.4101562 0.1289062,0.8085937 0.4570312,1.21875 0.1289063,0.1523437 0.140625,0.1640625 0.984375,0.75 -1.1601562,0.5390625 -1.7578125,1.3476562 -1.7578125,2.2148437 0,1.26562504 1.2070313,2.05078129 2.4257813,2.05078129 1.3242191,0 2.4375001,-0.97265625 2.4375001,-2.22656249 0,-1.21875 -0.855469,-1.7578125 -1.7929689,-2.3320313 z m -1.6289062,-1.078125 c -0.1523438,-0.1054687 -0.6328125,-0.421875 -0.6328125,-1.0078125 0,-0.7734375 0.8203125,-1.265625 1.6171875,-1.265625 0.8554687,0 1.6289061,0.6210938 1.6289061,1.4882813 0,0.7265625 -0.5273436,1.3125 -1.2187499,1.6875 z m 0.5625,1.546875 1.453125,0.9375 c 0.3046871,0.1992188 0.8554691,0.5742188 0.8554691,1.3007813 0,0.91406249 -0.9140629,1.53515624 -1.8750004,1.53515624 -1.0195312,0 -1.8867187,-0.73828125 -1.8867187,-1.73437504 0,-0.9375 0.6796875,-1.6875 1.453125,-2.0390625 z m 8.7128911,0.023437 c 0,-0.9960937 -0.05859,-1.96875 -0.492188,-2.8710937 -0.492187,-0.9960938 -1.347656,-1.2539063 -1.933594,-1.2539063 -0.691406,0 -1.546875,0.3398438 -1.980468,1.3359375 -0.339844,0.75 -0.457032,1.4882813 -0.457032,2.7890625 0,1.1601563 0.08203,2.0273438 0.515625,2.87109379 0.457032,0.9140625 1.289063,1.1953125 1.910157,1.1953125 1.042968,0 1.640625,-0.62109375 1.980468,-1.31249999 0.433594,-0.890625 0.457032,-2.0625 0.457032,-2.7539063 z m -2.4375,3.83203129 c -0.386719,0 -1.160157,-0.2109375 -1.382813,-1.52343749 C 13.1,-2.2270391 13.1,-3.1293828 13.1,-3.9731328 c 0,-0.9726563 0,-1.8632813 0.199219,-2.5664063 0.199219,-0.796875 0.808594,-1.171875 1.324219,-1.171875 0.457031,0 1.148437,0.28125 1.371093,1.3007813 0.152344,0.6796875 0.152344,1.6289062 0.152344,2.4375 0,0.8085937 0,1.7109375 -0.128906,2.4375 -0.222656,1.32421874 -0.972656,1.54687499 -1.394531,1.54687449 z m 0,0"
       style="fill:#d9d9d9;fill-opacity:1;fill-rule:nonzero;stroke:none"
       aria-label="180"
       transform="matrix(1.3333333,0,0,1.3333333,5637.0667,179.58267)" />
    <path
       id="path4793"
       d="m 0,17.483 0.7407,-0.01666 0.74073,-0.03426 0.74071,-0.05162 0.74072,-0.06868 0.74071,-0.08535 0.74072,-0.1016 0.74072,-0.1172 0.74071,-0.13225 0.74072,-0.14659 0.74071,-0.16013 0.74072,-0.17288 0.74073,-0.18475 0.7407,-0.19569 0.74073,-0.20569 0.7407,-0.21473 0.74073,-0.22271 0.74072,-0.22972 0.74071,-0.23568 0.74072,-0.24061 0.74071,-0.24452 0.74072,-0.24736 0.74071,-0.24926 0.74072,-0.25013 0.74072,-0.25 0.74071,-0.24897 0.74072,-0.24697 0.74071,-0.24407 0.74072,-0.24028 0.74072,-0.23563 0.74071,-0.23011 0.74072,-0.22379 0.74071,-0.21663 0.74072,-0.20866 0.74073,-0.19992 0.7407,-0.19037 0.74073,-0.18003 0.74071,-0.16885 0.74072,-0.1569 0.74072,-0.14411 0.74071,-0.13046 0.74072,-0.11595 0.74071,-0.10056 0.74072,-0.08421 0.7407,-0.06696 0.74073,-0.04869 0.74072,-0.02943 0.74071,-0.00914 0.74072,0.01224 0.74071,0.03468 0.74072,0.05829 0.74073,0.08298 0.7407,0.10882 0.74073,0.13582 0.7407,0.16396 0.74073,0.1932 0.74072,0.22363 0.74071,0.25506 0.74072,0.28759 0.74071,0.32108 0.74072,0.35554 0.74071,0.39086 0.74072,0.42698 0.74072,0.4638 0.74071,0.50119 0.74072,0.53914 0.74071,0.57746 0.74072,0.61603 0.74072,0.65476 0.74071,0.69346 0.74072,0.73206 0.74071,0.77041 0.74072,0.80835 0.74073,0.84572 0.7407,0.88245 0.74073,0.91832 0.7407,0.95331 0.74073,0.98719 0.74072,1.01996 0.74071,1.05139 0.74072,1.08149 0.74071,1.11012 0.74072,1.13724 0.74071,1.16275 0.74072,1.18664 0.74072,1.20891 0.74071,1.22946 0.74072,1.24835 0.74071,1.26557 0.74072,1.28114 0.74072,1.29514 0.74071,1.30752 0.74072,1.31847 0.74071,1.32799 0.74072,1.33613 0.74073,1.34303 0.7407,1.3488 0.74073,1.35348 0.74071,1.35717 0.74072,1.36002 0.7407,1.36211 0.74073,1.36349 0.74072,1.36432 0.74071,1.36465 0.74072,1.36454 0.7407,1.36405 0.74073,1.36332 0.74072,1.36224 0.74071,1.36099 0.74072,1.3595 0.74071,1.35776 0.74072,1.35582 0.74073,1.35356 0.7407,1.35101 0.74073,1.34807 0.7407,1.34463 0.74073,1.34067 0.74072,1.33605 0.74071,1.33061 0.74072,1.32432 0.74071,1.31695 0.74072,1.30842 0.74071,1.29857 0.74072,1.28726 0.74072,1.27435 0.74071,1.25971 0.74072,1.24314 0.74071,1.2246 0.74072,1.20395 0.74072,1.18108 0.74071,1.1559 0.74072,1.12835 0.74071,1.09838 0.74072,1.06598 0.74073,1.03109 0.7407,0.99384 0.74073,0.95416 0.7407,0.91222 0.74073,0.86804 0.7407,0.82182 0.74073,0.77364 0.74072,0.72375 0.74071,0.6723 0.74072,0.61959 0.74071,0.56576 0.74072,0.51117 0.74072,0.45608 0.74071,0.40077 0.74072,0.34559 0.74071,0.29086 0.74072,0.2369 0.74073,0.18402 0.7407,0.1326 0.74072,0.0829 0.74071,0.0354 0.74073,-0.01 0.74072,-0.0523 0.74071,-0.0919 0.74072,-0.12819 0.74071,-0.16108 0.74072,-0.19031 0.74071,-0.21572 0.74072,-0.23719 0.74072,-0.2546 0.74071,-0.26783 0.74072,-0.27698 0.74071,-0.28195 0.74072,-0.28281 0.74072,-0.27965 0.74071,-0.27261 0.74072,-0.26183 0.74071,-0.2475 0.74072,-0.2299 0.74073,-0.20922 0.7407,-0.1858 0.74073,-0.15999 0.7407,-0.13206 0.74073,-0.10245 0.7407,-0.0715 0.74073,-0.0396 0.74072,-0.007 0.74071,0.007 0.74072,0.0396 0.74071,0.0715 0.74072,0.10245 0.74072,0.13206 0.74071,0.15999 0.74072,0.1858 0.74071,0.20922 0.74072,0.2299 0.74072,0.2475 0.74071,0.26183 0.74072,0.27261 0.74071,0.27965 0.74072,0.28281 0.74073,0.28195 0.7407,0.27698 0.74073,0.26783 0.7407,0.2546 0.74073,0.23719 0.7407,0.21572 0.74073,0.19031 0.74072,0.16108 0.74071,0.12819 0.74072,0.0919 0.74071,0.0523 0.74072,0.01 0.74073,-0.0354 0.7407,-0.0829 0.74072,-0.1326 0.74071,-0.18402 0.74072,-0.2369 0.74073,-0.29086 0.7407,-0.34559 0.74072,-0.40077 0.74071,-0.45608 0.74073,-0.51117 0.7407,-0.56576 0.74073,-0.61959 0.74072,-0.6723 0.74071,-0.72375 0.74072,-0.77364 0.74071,-0.82182 0.74072,-0.86804 0.74072,-0.91222 0.74071,-0.95416 0.74072,-0.99384 0.74071,-1.03109 0.74072,-1.06598 0.74072,-1.09838 0.74071,-1.12835 0.74072,-1.1559 0.74071,-1.18108 0.74072,-1.20395 0.74073,-1.2246 0.7407,-1.24314 0.74073,-1.25971 0.7407,-1.27435 0.74073,-1.28726 0.7407,-1.29857 0.74073,-1.30842 0.74072,-1.31695 0.74071,-1.32432 0.74072,-1.33061 0.74071,-1.33605 0.74072,-1.34067 0.74072,-1.34463 0.74071,-1.34807 0.74072,-1.35101 0.74071,-1.35356 0.74073,-1.35582 0.74072,-1.35776 0.7407,-1.3595 0.74073,-1.36099 0.7407,-1.36224 0.74073,-1.36332 0.7407,-1.36405 0.74072,-1.36454 0.74073,-1.36465 0.74071,-1.36432 0.74072,-1.36349 0.74071,-1.36211 0.74072,-1.36002 0.74072,-1.35717 0.74071,-1.35348 0.74072,-1.3488 0.74071,-1.34303 0.74072,-1.33613 0.74073,-1.32799 0.7407,-1.31847 0.74072,-1.30752 0.74071,-1.29514 0.74072,-1.28114 0.74073,-1.26557 0.7407,-1.24835 0.74072,-1.22946 0.74071,-1.20891 0.74073,-1.18664 0.7407,-1.16275 0.74073,-1.13724 0.74072,-1.11012 0.74071,-1.08149 0.74072,-1.05139 0.74071,-1.01996 0.74072,-0.98719 0.74072,-0.95331 0.74071,-0.91832 0.74072,-0.88245 0.74071,-0.84572 0.74072,-0.80835 0.74072,-0.77041 0.74071,-0.73206 0.74072,-0.69346 0.74071,-0.65476 0.74072,-0.61603 0.74071,-0.57746 0.74072,-0.53914 0.74073,-0.50119 0.7407,-0.4638 0.74073,-0.42698 0.7407,-0.39086 0.74073,-0.35554 0.74072,-0.32108 0.74071,-0.28759 0.74072,-0.25506 0.74071,-0.22363 0.74072,-0.1932 0.74072,-0.16396 0.74071,-0.13582 0.74072,-0.10882 0.74071,-0.08298 0.74073,-0.05829 0.74072,-0.03468 0.7407,-0.01224 0.74073,0.00914 0.7407,0.02943 0.74073,0.04869 0.7407,0.06696 0.74072,0.08421 0.74073,0.10056 0.74071,0.11595 0.74072,0.13046 0.74071,0.14411 0.74072,0.1569 0.74072,0.16885 0.74071,0.18003 0.74072,0.19037 0.74071,0.19992 0.74072,0.20866 0.74073,0.21663 0.7407,0.22379 0.74072,0.23011 0.74071,0.23563 0.74072,0.24028 0.74071,0.24407 0.74072,0.24697 0.74072,0.24897 0.74071,0.25 0.74073,0.25013 0.7407,0.24926 0.74073,0.24736 0.74072,0.24452 0.74071,0.24061 0.74072,0.23568 0.74071,0.22972 0.74072,0.22271 0.74072,0.21473 0.74071,0.20569 0.74072,0.19569 0.74071,0.18475 0.74072,0.17288 0.74073,0.16013 0.7407,0.14659 0.74073,0.13225 0.74071,0.1172 0.74072,0.1016 0.7407,0.08535 0.74073,0.06868 0.74072,0.05162 0.74071,0.03426 0.74072,0.01666 V 0 H 0 Z"
       style="fill:#0072b2;fill-opacity:0.15;fill-rule:nonzero;stroke:#0072b2;stroke-width:0.99628;stroke-linecap:butt;stroke-linejoin:miter;stroke-miterlimit:10;stroke-dasharray:none;stroke-opacity:0"
       transform="matrix(1.3333333,0,0,-1.3333333,5293.2333,161.38267)"
       clip-path="url(#clipPath4794)" />
    <path
       id="path4795"
       d="m 0,17.483 0.7407,-0.01666 0.74073,-0.03426 0.74071,-0.05162 0.74072,-0.06868 0.74071,-0.08535 0.74072,-0.1016 0.74072,-0.1172 0.74071,-0.13225 0.74072,-0.14659 0.74071,-0.16013 0.74072,-0.17288 0.74073,-0.18475 0.7407,-0.19569 0.74073,-0.20569 0.7407,-0.21473 0.74073,-0.22271 0.74072,-0.22972 0.74071,-0.23568 0.74072,-0.24061 0.74071,-0.24452 0.74072,-0.24736 0.74071,-0.24926 0.74072,-0.25013 0.74072,-0.25 0.74071,-0.24897 0.74072,-0.24697 0.74071,-0.24407 0.74072,-0.24028 0.74072,-0.23563 0.74071,-0.23011 0.74072,-0.22379 0.74071,-0.21663 0.74072,-0.20866 0.74073,-0.19992 0.7407,-0.19037 0.74073,-0.18003 0.74071,-0.16885 0.74072,-0.1569 0.74072,-0.14411 0.74071,-0.13046 0.74072,-0.11595 0.74071,-0.10056 0.74072,-0.08421 0.7407,-0.06696 0.74073,-0.04869 0.74072,-0.02943 0.74071,-0.00914 0.74072,0.01224 0.74071,0.03468 0.74072,0.05829 0.74073,0.08298 0.7407,0.10882 0.74073,0.13582 0.7407,0.16396 0.74073,0.1932 0.74072,0.22363 0.74071,0.25506 0.74072,0.28759 0.74071,0.32108 0.74072,0.35554 0.74071,0.39086 0.74072,0.42698 0.74072,0.4638 0.74071,0.50119 0.74072,0.53914 0.74071,0.57746 0.74072,0.61603 0.74072,0.65476 0.74071,0.69346 0.74072,0.73206 0.74071,0.77041 0.74072,0.80835 0.74073,0.84572 0.7407,0.88245 0.74073,0.91832 0.7407,0.95331 0.74073,0.98719 0.74072,1.01996 0.74071,1.05139 0.74072,1.08149 0.74071,1.11012 0.74072,1.13724 0.74071,1.16275 0.74072,1.18664 0.74072,1.20891 0.74071,1.22946 0.74072,1.24835 0.74071,1.26557 0.74072,1.28114 0.74072,1.29514 0.74071,1.30752 0.74072,1.31847 0.74071,1.32799 0.74072,1.33613 0.74073,1.34303 0.7407,1.3488 0.74073,1.35348 0.74071,1.35717 0.74072,1.36002 0.7407,1.36211 0.74073,1.36349 0.74072,1.36432 0.74071,1.36465 0.74072,1.36454 0.7407,1.36405 0.74073,1.36332 0.74072,1.36224 0.74071,1.36099 0.74072,1.3595 0.74071,1.35776 0.74072,1.35582 0.74073,1.35356 0.7407,1.35101 0.74073,1.34807 0.7407,1.34463 0.74073,1.34067 0.74072,1.33605 0.74071,1.33061 0.74072,1.32432 0.74071,1.31695 0.74072,1.30842 0.74071,1.29857 0.74072,1.28726 0.74072,1.27435 0.74071,1.25971 0.74072,1.24314 0.74071,1.2246 0.74072,1.20395 0.74072,1.18108 0.74071,1.1559 0.74072,1.12835 0.74071,1.09838 0.74072,1.06598 0.74073,1.03109 0.7407,0.99384 0.74073,0.95416 0.7407,0.91222 0.74073,0.86804 0.7407,0.82182 0.74073,0.77364 0.74072,0.72375 0.74071,0.6723 0.74072,0.61959 0.74071,0.56576 0.74072,0.51117 0.74072,0.45608 0.74071,0.40077 0.74072,0.34559 0.74071,0.29086 0.74072,0.2369 0.74073,0.18402 0.7407,0.1326 0.74072,0.0829 0.74071,0.0354 0.74073,-0.01 0.74072,-0.0523 0.74071,-0.0919 0.74072,-0.12819 0.74071,-0.16108 0.74072,-0.19031 0.74071,-0.21572 0.74072,-0.23719 0.74072,-0.2546 0.74071,-0.26783 0.74072,-0.27698 0.74071,-0.28195 0.74072,-0.28281 0.74072,-0.27965 0.74071,-0.27261 0.74072,-0.26183 0.74071,-0.2475 0.74072,-0.2299 0.74073,-0.20922 0.7407,-0.1858 0.74073,-0.15999 0.7407,-0.13206 0.74073,-0.10245 0.7407,-0.0715 0.74073,-0.0396 0.74072,-0.007 0.74071,0.007 0.74072,0.0396 0.74071,0.0715 0.74072,0.10245 0.74072,0.13206 0.74071,0.15999 0.74072,0.1858 0.74071,0.20922 0.74072,0.2299 0.74072,0.2475 0.74071,0.26183 0.74072,0.27261 0.74071,0.27965 0.74072,0.28281 0.74073,0.28195 0.7407,0.27698 0.74073,0.26783 0.7407,0.2546 0.74073,0.23719 0.7407,0.21572 0.74073,0.19031 0.74072,0.16108 0.74071,0.12819 0.74072,0.0919 0.74071,0.0523 0.74072,0.01 0.74073,-0.0354 0.7407,-0.0829 0.74072,-0.1326 0.74071,-0.18402 0.74072,-0.2369 0.74073,-0.29086 0.7407,-0.34559 0.74072,-0.40077 0.74071,-0.45608 0.74073,-0.51117 0.7407,-0.56576 0.74073,-0.61959 0.74072,-0.6723 0.74071,-0.72375 0.74072,-0.77364 0.74071,-0.82182 0.74072,-0.86804 0.74072,-0.91222 0.74071,-0.95416 0.74072,-0.99384 0.74071,-1.03109 0.74072,-1.06598 0.74072,-1.09838 0.74071,-1.12835 0.74072,-1.1559 0.74071,-1.18108 0.74072,-1.20395 0.74073,-1.2246 0.7407,-1.24314 0.74073,-1.25971 0.7407,-1.27435 0.74073,-1.28726 0.7407,-1.29857 0.74073,-1.30842 0.74072,-1.31695 0.74071,-1.32432 0.74072,-1.33061 0.74071,-1.33605 0.74072,-1.34067 0.74072,-1.34463 0.74071,-1.34807 0.74072,-1.35101 0.74071,-1.35356 0.74073,-1.35582 0.74072,-1.35776 0.7407,-1.3595 0.74073,-1.36099 0.7407,-1.36224 0.74073,-1.36332 0.7407,-1.36405 0.74072,-1.36454 0.74073,-1.36465 0.74071,-1.36432 0.74072,-1.36349 0.74071,-1.36211 0.74072,-1.36002 0.74072,-1.35717 0.74071,-1.35348 0.74072,-1.3488 0.74071,-1.34303 0.74072,-1.33613 0.74073,-1.32799 0.7407,-1.31847 0.74072,-1.30752 0.74071,-1.29514 0.74072,-1.28114 0.74073,-1.26557 0.7407,-1.24835 0.74072,-1.22946 0.74071,-1.20891 0.74073,-1.18664 0.7407,-1.16275 0.74073,-1.13724 0.74072,-1.11012 0.74071,-1.08149 0.74072,-1.05139 0.74071,-1.01996 0.74072,-0.98719 0.74072,-0.95331 0.74071,-0.91832 0.74072,-0.88245 0.74071,-0.84572 0.74072,-0.80835 0.74072,-0.77041 0.74071,-0.73206 0.74072,-0.69346 0.74071,-0.65476 0.74072,-0.61603 0.74071,-0.57746 0.74072,-0.53914 0.74073,-0.50119 0.7407,-0.4638 0.74073,-0.42698 0.7407,-0.39086 0.74073,-0.35554 0.74072,-0.32108 0.74071,-0.28759 0.74072,-0.25506 0.74071,-0.22363 0.74072,-0.1932 0.74072,-0.16396 0.74071,-0.13582 0.74072,-0.10882 0.74071,-0.08298 0.74073,-0.05829 0.74072,-0.03468 0.7407,-0.01224 0.74073,0.00914 0.7407,0.02943 0.74073,0.04869 0.7407,0.06696 0.74072,0.08421 0.74073,0.10056 0.74071,0.11595 0.74072,0.13046 0.74071,0.14411 0.74072,0.1569 0.74072,0.16885 0.74071,0.18003 0.74072,0.19037 0.74071,0.19992 0.74072,0.20866 0.74073,0.21663 0.7407,0.22379 0.74072,0.23011 0.74071,0.23563 0.74072,0.24028 0.74071,0.24407 0.74072,0.24697 0.74072,0.24897 0.74071,0.25 0.74073,0.25013 0.7407,0.24926 0.74073,0.24736 0.74072,0.24452 0.74071,0.24061 0.74072,0.23568 0.74071,0.22972 0.74072,0.22271 0.74072,0.21473 0.74071,0.20569 0.74072,0.19569 0.74071,0.18475 0.74072,0.17288 0.74073,0.16013 0.7407,0.14659 0.74073,0.13225 0.74071,0.1172 0.74072,0.1016 0.7407,0.08535 0.74073,0.06868 0.74072,0.05162 0.74071,0.03426 0.74072,0.01666"
       style="fill:none;stroke:#0072b2;stroke-width:0.99628;stroke-linecap:butt;stroke-linejoin:miter;stroke-miterlimit:10;stroke-dasharray:none;stroke-opacity:1"
       transform="matrix(1.3333333,0,0,-1.3333333,5293.2333,161.38267)"
       clip-path="url(#clipPath4796)" />
    <path
       id="path4797"
       d="m 0,37.68164 0.7407,-1.28114 0.74073,-1.26557 0.74071,-1.24835 0.74072,-1.22946 0.74071,-1.20891 0.74072,-1.18664 0.74072,-1.16275 0.74071,-1.13724 0.74072,-1.11012 0.74071,-1.08149 0.74072,-1.05139 0.74073,-1.01996 0.7407,-0.98719 0.74073,-0.95331 0.7407,-0.91832 0.74073,-0.88245 0.74072,-0.84572 0.74071,-0.80835 0.74072,-0.77041 0.74071,-0.73206 0.74072,-0.69346 0.74071,-0.65476 0.74072,-0.61603 0.74072,-0.57746 0.74071,-0.53914 0.74072,-0.50119 0.74071,-0.4638 0.74072,-0.42698 0.74072,-0.39086 0.74071,-0.35554 0.74072,-0.32108 0.74071,-0.28759 0.74072,-0.25506 0.74073,-0.22363 0.7407,-0.1932 0.74073,-0.16396 0.74071,-0.13582 0.74072,-0.10882 0.74072,-0.08298 0.74071,-0.05829 0.74072,-0.03468 0.74071,-0.01224 0.74072,0.00914 0.7407,0.02943 0.74073,0.04869 0.74072,0.06696 0.74071,0.08421 0.74072,0.10056 0.74071,0.11595 0.74072,0.13046 0.74073,0.14411 0.7407,0.1569 0.74073,0.16885 0.7407,0.18003 0.74073,0.19037 0.74072,0.19992 0.74071,0.20866 0.74072,0.21663 0.74071,0.22379 0.74072,0.23011 0.74071,0.23563 0.74072,0.24028 0.74072,0.24407 0.74071,0.24697 0.74072,0.24897 0.74071,0.25 0.74072,0.25013 0.74072,0.24926 0.74071,0.24736 0.74072,0.24452 0.74071,0.24061 0.74072,0.23568 0.74073,0.22972 0.7407,0.22271 0.74073,0.21473 0.7407,0.20569 0.74073,0.19569 0.74072,0.18475 0.74071,0.17288 0.74072,0.16013 0.74071,0.14659 0.74072,0.13225 0.74071,0.1172 0.74072,0.1016 0.74072,0.08535 0.74071,0.06868 0.74072,0.05162 0.74071,0.03426 0.74072,0.01666 h 0.74072 l 0.74071,-0.01666 0.74072,-0.03426 0.74071,-0.05162 0.74072,-0.06868 0.74073,-0.08535 0.7407,-0.1016 0.74073,-0.1172 0.74071,-0.13225 0.74072,-0.14659 0.7407,-0.16013 0.74073,-0.17288 0.74072,-0.18475 0.74071,-0.19569 0.74072,-0.20569 0.7407,-0.21473 0.74073,-0.22271 0.74072,-0.22972 0.74071,-0.23568 0.74072,-0.24061 0.74071,-0.24452 0.74072,-0.24736 0.74073,-0.24926 0.7407,-0.25013 0.74073,-0.25 0.7407,-0.24897 0.74073,-0.24697 0.74072,-0.24407 0.74071,-0.24028 0.74072,-0.23563 0.74071,-0.23011 0.74072,-0.22379 0.74071,-0.21663 0.74072,-0.20866 0.74072,-0.19992 0.74071,-0.19037 0.74072,-0.18003 0.74071,-0.16885 0.74072,-0.1569 0.74072,-0.14411 0.74071,-0.13046 0.74072,-0.11595 0.74071,-0.10056 0.74072,-0.08421 0.74073,-0.06696 0.7407,-0.04869 0.74073,-0.02943 0.7407,-0.00914 0.74073,0.01224 0.7407,0.03468 0.74073,0.05829 0.74072,0.08298 0.74071,0.10882 0.74072,0.13582 0.74071,0.16396 0.74072,0.1932 0.74072,0.22363 0.74071,0.25506 0.74072,0.28759 0.74071,0.32108 0.74072,0.35554 0.74073,0.39086 0.7407,0.42698 0.74072,0.4638 0.74071,0.50119 0.74073,0.53914 0.74072,0.57746 0.74071,0.61603 0.74072,0.65476 0.74071,0.69346 0.74072,0.73206 0.74071,0.77041 0.74072,0.80835 0.74072,0.84572 0.74071,0.88245 0.74072,0.91832 0.74071,0.95331 0.74072,0.98719 0.74072,1.01996 0.74071,1.05139 0.74072,1.08149 0.74071,1.11012 0.74072,1.13724 0.74073,1.16275 0.7407,1.18664 0.74073,1.20891 0.7407,1.22946 0.74073,1.24835 0.7407,1.26557 0.74073,1.28114 0.74072,1.29514 0.74071,1.30752 0.74072,1.31847 0.74071,1.32799 0.74072,1.33613 0.74072,1.34303 0.74071,1.3488 0.74072,1.35348 0.74071,1.35717 0.74072,1.36002 0.74072,1.36211 0.74071,1.36349 0.74072,1.36432 0.74071,1.36465 0.74072,1.36454 0.74073,1.36405 0.7407,1.36332 0.74073,1.36224 0.7407,1.36099 0.74073,1.3595 0.7407,1.35776 0.74073,1.35582 0.74072,1.35356 0.74071,1.35101 0.74072,1.34807 0.74071,1.34463 0.74072,1.34067 0.74073,1.33605 0.7407,1.33061 0.74072,1.32432 0.74071,1.31695 0.74072,1.30842 0.74073,1.29857 0.7407,1.28726 0.74072,1.27435 0.74071,1.25971 0.74073,1.24314 0.7407,1.2246 0.74073,1.20395 0.74072,1.18108 0.74071,1.1559 0.74072,1.12835 0.74071,1.09838 0.74072,1.06598 0.74072,1.03109 0.74071,0.99384 0.74072,0.95416 0.74071,0.91222 0.74072,0.86804 0.74072,0.82182 0.74071,0.77364 0.74072,0.72375 0.74071,0.6723 0.74072,0.61959 0.74073,0.56576 0.7407,0.51117 0.74073,0.45608 0.7407,0.40077 0.74073,0.34559 0.7407,0.29086 0.74073,0.2369 0.74072,0.18402 0.74071,0.1326 0.74072,0.0829 0.74071,0.0354 0.74072,-0.01 0.74072,-0.0523 0.74071,-0.0919 0.74072,-0.12819 0.74071,-0.16108 0.74073,-0.19031 0.74072,-0.21572 0.7407,-0.23719 0.74073,-0.2546 0.7407,-0.26783 0.74073,-0.27698 0.7407,-0.28195 0.74072,-0.28281 0.74073,-0.27965 0.74071,-0.27261 0.74072,-0.26183 0.74071,-0.2475 0.74072,-0.2299 0.74072,-0.20922 0.74071,-0.1858 0.74072,-0.15999 0.74071,-0.13206 0.74072,-0.10245 0.74073,-0.0715 0.7407,-0.0396 0.74072,-0.007 0.74071,0.007 0.74072,0.0396 0.74073,0.0715 0.7407,0.10245 0.74072,0.13206 0.74071,0.15999 0.74073,0.1858 0.7407,0.20922 0.74073,0.2299 0.74072,0.2475 0.74071,0.26183 0.74072,0.27261 0.74071,0.27965 0.74072,0.28281 0.74072,0.28195 0.74071,0.27698 0.74072,0.26783 0.74071,0.2546 0.74072,0.23719 0.74072,0.21572 0.74071,0.19031 0.74072,0.16108 0.74071,0.12819 0.74072,0.0919 0.74071,0.0523 0.74072,0.01 0.74073,-0.0354 0.7407,-0.0829 0.74073,-0.1326 0.7407,-0.18402 0.74073,-0.2369 0.74072,-0.29086 0.74071,-0.34559 0.74072,-0.40077 0.74071,-0.45608 0.74072,-0.51117 0.74072,-0.56576 0.74071,-0.61959 0.74072,-0.6723 0.74071,-0.72375 0.74073,-0.77364 0.74072,-0.82182 0.7407,-0.86804 0.74073,-0.91222 0.7407,-0.95416 0.74073,-0.99384 0.7407,-1.03109 0.74072,-1.06598 0.74073,-1.09838 0.74071,-1.12835 0.74072,-1.1559 0.74071,-1.18108 0.74072,-1.20395 0.74072,-1.2246 0.74071,-1.24314 0.74072,-1.25971 0.74071,-1.27435 0.74072,-1.28726 0.74073,-1.29857 0.7407,-1.30842 0.74072,-1.31695 0.74071,-1.32432 0.74072,-1.33061 0.74071,-1.33605 0.74072,-1.34067 0.74072,-1.34463 0.74071,-1.34807 0.74073,-1.35101 0.7407,-1.35356 0.74073,-1.35582 0.74072,-1.35776 0.74071,-1.3595 0.74072,-1.36099 0.74071,-1.36224 0.74072,-1.36332 0.74072,-1.36405 0.74071,-1.36454 0.74072,-1.36465 0.74071,-1.36432 0.74072,-1.36349 0.74073,-1.36211 0.7407,-1.36002 0.74073,-1.35717 0.74071,-1.35348 0.74072,-1.3488 0.7407,-1.34303 0.74073,-1.33613 0.74072,-1.32799 0.74071,-1.31847 0.74072,-1.30752 V 0 H 0 Z"
       style="fill:#d55e00;fill-opacity:0.15;fill-rule:nonzero;stroke:none"
       transform="matrix(1.3333333,0,0,-1.3333333,5293.2333,161.38267)"
       clip-path="url(#clipPath4798)" />
    <path
       id="path4799"
       d="m 0,37.68164 0.7407,-1.28114 0.74073,-1.26557 0.74071,-1.24835 0.74072,-1.22946 0.74071,-1.20891 0.74072,-1.18664 0.74072,-1.16275 0.74071,-1.13724 0.74072,-1.11012 0.74071,-1.08149 0.74072,-1.05139 0.74073,-1.01996 0.7407,-0.98719 0.74073,-0.95331 0.7407,-0.91832 0.74073,-0.88245 0.74072,-0.84572 0.74071,-0.80835 0.74072,-0.77041 0.74071,-0.73206 0.74072,-0.69346 0.74071,-0.65476 0.74072,-0.61603 0.74072,-0.57746 0.74071,-0.53914 0.74072,-0.50119 0.74071,-0.4638 0.74072,-0.42698 0.74072,-0.39086 0.74071,-0.35554 0.74072,-0.32108 0.74071,-0.28759 0.74072,-0.25506 0.74073,-0.22363 0.7407,-0.1932 0.74073,-0.16396 0.74071,-0.13582 0.74072,-0.10882 0.74072,-0.08298 0.74071,-0.05829 0.74072,-0.03468 0.74071,-0.01224 0.74072,0.00914 0.7407,0.02943 0.74073,0.04869 0.74072,0.06696 0.74071,0.08421 0.74072,0.10056 0.74071,0.11595 0.74072,0.13046 0.74073,0.14411 0.7407,0.1569 0.74073,0.16885 0.7407,0.18003 0.74073,0.19037 0.74072,0.19992 0.74071,0.20866 0.74072,0.21663 0.74071,0.22379 0.74072,0.23011 0.74071,0.23563 0.74072,0.24028 0.74072,0.24407 0.74071,0.24697 0.74072,0.24897 0.74071,0.25 0.74072,0.25013 0.74072,0.24926 0.74071,0.24736 0.74072,0.24452 0.74071,0.24061 0.74072,0.23568 0.74073,0.22972 0.7407,0.22271 0.74073,0.21473 0.7407,0.20569 0.74073,0.19569 0.74072,0.18475 0.74071,0.17288 0.74072,0.16013 0.74071,0.14659 0.74072,0.13225 0.74071,0.1172 0.74072,0.1016 0.74072,0.08535 0.74071,0.06868 0.74072,0.05162 0.74071,0.03426 0.74072,0.01666 h 0.74072 l 0.74071,-0.01666 0.74072,-0.03426 0.74071,-0.05162 0.74072,-0.06868 0.74073,-0.08535 0.7407,-0.1016 0.74073,-0.1172 0.74071,-0.13225 0.74072,-0.14659 0.7407,-0.16013 0.74073,-0.17288 0.74072,-0.18475 0.74071,-0.19569 0.74072,-0.20569 0.7407,-0.21473 0.74073,-0.22271 0.74072,-0.22972 0.74071,-0.23568 0.74072,-0.24061 0.74071,-0.24452 0.74072,-0.24736 0.74073,-0.24926 0.7407,-0.25013 0.74073,-0.25 0.7407,-0.24897 0.74073,-0.24697 0.74072,-0.24407 0.74071,-0.24028 0.74072,-0.23563 0.74071,-0.23011 0.74072,-0.22379 0.74071,-0.21663 0.74072,-0.20866 0.74072,-0.19992 0.74071,-0.19037 0.74072,-0.18003 0.74071,-0.16885 0.74072,-0.1569 0.74072,-0.14411 0.74071,-0.13046 0.74072,-0.11595 0.74071,-0.10056 0.74072,-0.08421 0.74073,-0.06696 0.7407,-0.04869 0.74073,-0.02943 0.7407,-0.00914 0.74073,0.01224 0.7407,0.03468 0.74073,0.05829 0.74072,0.08298 0.74071,0.10882 0.74072,0.13582 0.74071,0.16396 0.74072,0.1932 0.74072,0.22363 0.74071,0.25506 0.74072,0.28759 0.74071,0.32108 0.74072,0.35554 0.74073,0.39086 0.7407,0.42698 0.74072,0.4638 0.74071,0.50119 0.74073,0.53914 0.74072,0.57746 0.74071,0.61603 0.74072,0.65476 0.74071,0.69346 0.74072,0.73206 0.74071,0.77041 0.74072,0.80835 0.74072,0.84572 0.74071,0.88245 0.74072,0.91832 0.74071,0.95331 0.74072,0.98719 0.74072,1.01996 0.74071,1.05139 0.74072,1.08149 0.74071,1.11012 0.74072,1.13724 0.74073,1.16275 0.7407,1.18664 0.74073,1.20891 0.7407,1.22946 0.74073,1.24835 0.7407,1.26557 0.74073,1.28114 0.74072,1.29514 0.74071,1.30752 0.74072,1.31847 0.74071,1.32799 0.74072,1.33613 0.74072,1.34303 0.74071,1.3488 0.74072,1.35348 0.74071,1.35717 0.74072,1.36002 0.74072,1.36211 0.74071,1.36349 0.74072,1.36432 0.74071,1.36465 0.74072,1.36454 0.74073,1.36405 0.7407,1.36332 0.74073,1.36224 0.7407,1.36099 0.74073,1.3595 0.7407,1.35776 0.74073,1.35582 0.74072,1.35356 0.74071,1.35101 0.74072,1.34807 0.74071,1.34463 0.74072,1.34067 0.74073,1.33605 0.7407,1.33061 0.74072,1.32432 0.74071,1.31695 0.74072,1.30842 0.74073,1.29857 0.7407,1.28726 0.74072,1.27435 0.74071,1.25971 0.74073,1.24314 0.7407,1.2246 0.74073,1.20395 0.74072,1.18108 0.74071,1.1559 0.74072,1.12835 0.74071,1.09838 0.74072,1.06598 0.74072,1.03109 0.74071,0.99384 0.74072,0.95416 0.74071,0.91222 0.74072,0.86804 0.74072,0.82182 0.74071,0.77364 0.74072,0.72375 0.74071,0.6723 0.74072,0.61959 0.74073,0.56576 0.7407,0.51117 0.74073,0.45608 0.7407,0.40077 0.74073,0.34559 0.7407,0.29086 0.74073,0.2369 0.74072,0.18402 0.74071,0.1326 0.74072,0.0829 0.74071,0.0354 0.74072,-0.01 0.74072,-0.0523 0.74071,-0.0919 0.74072,-0.12819 0.74071,-0.16108 0.74073,-0.19031 0.74072,-0.21572 0.7407,-0.23719 0.74073,-0.2546 0.7407,-0.26783 0.74073,-0.27698 0.7407,-0.28195 0.74072,-0.28281 0.74073,-0.27965 0.74071,-0.27261 0.74072,-0.26183 0.74071,-0.2475 0.74072,-0.2299 0.74072,-0.20922 0.74071,-0.1858 0.74072,-0.15999 0.74071,-0.13206 0.74072,-0.10245 0.74073,-0.0715 0.7407,-0.0396 0.74072,-0.007 0.74071,0.007 0.74072,0.0396 0.74073,0.0715 0.7407,0.10245 0.74072,0.13206 0.74071,0.15999 0.74073,0.1858 0.7407,0.20922 0.74073,0.2299 0.74072,0.2475 0.74071,0.26183 0.74072,0.27261 0.74071,0.27965 0.74072,0.28281 0.74072,0.28195 0.74071,0.27698 0.74072,0.26783 0.74071,0.2546 0.74072,0.23719 0.74072,0.21572 0.74071,0.19031 0.74072,0.16108 0.74071,0.12819 0.74072,0.0919 0.74071,0.0523 0.74072,0.01 0.74073,-0.0354 0.7407,-0.0829 0.74073,-0.1326 0.7407,-0.18402 0.74073,-0.2369 0.74072,-0.29086 0.74071,-0.34559 0.74072,-0.40077 0.74071,-0.45608 0.74072,-0.51117 0.74072,-0.56576 0.74071,-0.61959 0.74072,-0.6723 0.74071,-0.72375 0.74073,-0.77364 0.74072,-0.82182 0.7407,-0.86804 0.74073,-0.91222 0.7407,-0.95416 0.74073,-0.99384 0.7407,-1.03109 0.74072,-1.06598 0.74073,-1.09838 0.74071,-1.12835 0.74072,-1.1559 0.74071,-1.18108 0.74072,-1.20395 0.74072,-1.2246 0.74071,-1.24314 0.74072,-1.25971 0.74071,-1.27435 0.74072,-1.28726 0.74073,-1.29857 0.7407,-1.30842 0.74072,-1.31695 0.74071,-1.32432 0.74072,-1.33061 0.74071,-1.33605 0.74072,-1.34067 0.74072,-1.34463 0.74071,-1.34807 0.74073,-1.35101 0.7407,-1.35356 0.74073,-1.35582 0.74072,-1.35776 0.74071,-1.3595 0.74072,-1.36099 0.74071,-1.36224 0.74072,-1.36332 0.74072,-1.36405 0.74071,-1.36454 0.74072,-1.36465 0.74071,-1.36432 0.74072,-1.36349 0.74073,-1.36211 0.7407,-1.36002 0.74073,-1.35717 0.74071,-1.35348 0.74072,-1.3488 0.7407,-1.34303 0.74073,-1.33613 0.74072,-1.32799 0.74071,-1.31847 0.74072,-1.30752"
       style="fill:none;stroke:#d55e00;stroke-width:0.99628;stroke-linecap:butt;stroke-linejoin:miter;stroke-miterlimit:10;stroke-dasharray:none;stroke-opacity:1"
       transform="matrix(1.3333333,0,0,-1.3333333,5293.2333,161.38267)"
       clip-path="url(#clipPath4800)" />
    <path
       id="path4801"
       d="m 0,102.11739 0.7407,0.0396 0.74073,0.0715 0.74071,0.10245 0.74072,0.13206 0.74071,0.15999 0.74072,0.1858 0.74072,0.20922 0.74071,0.2299 0.74072,0.2475 0.74071,0.26183 0.74072,0.27261 0.74073,0.27965 0.7407,0.28281 0.74073,0.28195 0.7407,0.27698 0.74073,0.26783 0.74072,0.2546 0.74071,0.23719 0.74072,0.21572 0.74071,0.19031 0.74072,0.16108 0.74071,0.12819 0.74072,0.0919 0.74072,0.0523 0.74071,0.01 0.74072,-0.0354 0.74071,-0.0829 0.74072,-0.1326 0.74072,-0.18402 0.74071,-0.2369 0.74072,-0.29086 0.74071,-0.34559 0.74072,-0.40077 0.74073,-0.45608 0.7407,-0.51117 0.74073,-0.56576 0.74071,-0.61959 0.74072,-0.6723 0.74072,-0.72375 0.74071,-0.77364 0.74072,-0.82182 0.74071,-0.86804 0.74072,-0.91222 0.7407,-0.95416 0.74073,-0.99384 0.74072,-1.03109 0.74071,-1.06598 0.74072,-1.09838 0.74071,-1.12835 0.74072,-1.1559 0.74073,-1.18108 0.7407,-1.20395 0.74073,-1.2246 0.7407,-1.24314 0.74073,-1.25971 0.74072,-1.27435 0.74071,-1.28726 0.74072,-1.29857 0.74071,-1.30842 0.74072,-1.31695 0.74071,-1.32432 0.74072,-1.33061 0.74072,-1.33605 0.74071,-1.34067 0.74072,-1.34463 0.74071,-1.34807 0.74072,-1.35101 0.74072,-1.35356 0.74071,-1.35582 0.74072,-1.35776 0.74071,-1.3595 0.74072,-1.36099 0.74073,-1.36224 0.7407,-1.36332 0.74073,-1.36405 0.7407,-1.36454 0.74073,-1.36465 0.74072,-1.36432 0.74071,-1.36349 0.74072,-1.36211 0.74071,-1.36002 0.74072,-1.35717 0.74071,-1.35348 0.74072,-1.3488 0.74072,-1.34303 0.74071,-1.33613 0.74072,-1.32799 0.74071,-1.31847 0.74072,-1.30752 0.74072,-1.29514 0.74071,-1.28114 0.74072,-1.26557 0.74071,-1.24835 0.74072,-1.22946 0.74073,-1.20891 0.7407,-1.18664 0.74073,-1.16275 0.74071,-1.13724 0.74072,-1.11012 0.7407,-1.08149 0.74073,-1.05139 0.74072,-1.01996 0.74071,-0.98719 0.74072,-0.95331 0.7407,-0.91832 0.74073,-0.88245 0.74072,-0.84572 0.74071,-0.80835 0.74072,-0.77041 0.74071,-0.73206 0.74072,-0.69346 0.74073,-0.65476 0.7407,-0.61603 0.74073,-0.57746 0.7407,-0.53914 0.74073,-0.50119 0.74072,-0.4638 0.74071,-0.42698 0.74072,-0.39086 0.74071,-0.35554 0.74072,-0.32108 0.74071,-0.28759 0.74072,-0.25506 0.74072,-0.22363 0.74071,-0.1932 0.74072,-0.16396 0.74071,-0.13582 0.74072,-0.10882 0.74072,-0.08298 0.74071,-0.05829 0.74072,-0.03468 0.74071,-0.01224 0.74072,0.00914 0.74073,0.02943 0.7407,0.04869 0.74073,0.06696 0.7407,0.08421 0.74073,0.10056 0.7407,0.11595 0.74073,0.13046 0.74072,0.14411 0.74071,0.1569 0.74072,0.16885 0.74071,0.18003 0.74072,0.19037 0.74072,0.19992 0.74071,0.20866 0.74072,0.21663 0.74071,0.22379 0.74072,0.23011 0.74073,0.23563 0.7407,0.24028 0.74072,0.24407 0.74071,0.24697 0.74073,0.24897 0.74072,0.25 0.74071,0.25013 0.74072,0.24926 0.74071,0.24736 0.74072,0.24452 0.74071,0.24061 0.74072,0.23568 0.74072,0.22972 0.74071,0.22271 0.74072,0.21473 0.74071,0.20569 0.74072,0.19569 0.74072,0.18475 0.74071,0.17288 0.74072,0.16013 0.74071,0.14659 0.74072,0.13225 0.74073,0.1172 0.7407,0.1016 0.74073,0.08535 0.7407,0.06868 0.74073,0.05162 0.7407,0.03426 0.74073,0.01666 h 0.74072 l 0.74071,-0.01666 0.74072,-0.03426 0.74071,-0.05162 0.74072,-0.06868 0.74072,-0.08535 0.74071,-0.1016 0.74072,-0.1172 0.74071,-0.13225 0.74072,-0.14659 0.74072,-0.16013 0.74071,-0.17288 0.74072,-0.18475 0.74071,-0.19569 0.74072,-0.20569 0.74073,-0.21473 0.7407,-0.22271 0.74073,-0.22972 0.7407,-0.23568 0.74073,-0.24061 0.7407,-0.24452 0.74073,-0.24736 0.74072,-0.24926 0.74071,-0.25013 0.74072,-0.25 0.74071,-0.24897 0.74072,-0.24697 0.74073,-0.24407 0.7407,-0.24028 0.74072,-0.23563 0.74071,-0.23011 0.74072,-0.22379 0.74073,-0.21663 0.7407,-0.20866 0.74072,-0.19992 0.74071,-0.19037 0.74073,-0.18003 0.7407,-0.16885 0.74073,-0.1569 0.74072,-0.14411 0.74071,-0.13046 0.74072,-0.11595 0.74071,-0.10056 0.74072,-0.08421 0.74072,-0.06696 0.74071,-0.04869 0.74072,-0.02943 0.74071,-0.00914 0.74072,0.01224 0.74072,0.03468 0.74071,0.05829 0.74072,0.08298 0.74071,0.10882 0.74072,0.13582 0.74073,0.16396 0.7407,0.1932 0.74073,0.22363 0.7407,0.25506 0.74073,0.28759 0.7407,0.32108 0.74073,0.35554 0.74072,0.39086 0.74071,0.42698 0.74072,0.4638 0.74071,0.50119 0.74072,0.53914 0.74072,0.57746 0.74071,0.61603 0.74072,0.65476 0.74071,0.69346 0.74073,0.73206 0.74072,0.77041 0.7407,0.80835 0.74073,0.84572 0.7407,0.88245 0.74073,0.91832 0.7407,0.95331 0.74072,0.98719 0.74073,1.01996 0.74071,1.05139 0.74072,1.08149 0.74071,1.11012 0.74072,1.13724 0.74072,1.16275 0.74071,1.18664 0.74072,1.20891 0.74071,1.22946 0.74072,1.24835 0.74073,1.26557 0.7407,1.28114 0.74072,1.29514 0.74071,1.30752 0.74072,1.31847 0.74073,1.32799 0.7407,1.33613 0.74072,1.34303 0.74071,1.3488 0.74073,1.35348 0.7407,1.35717 0.74073,1.36002 0.74072,1.36211 0.74071,1.36349 0.74072,1.36432 0.74071,1.36465 0.74072,1.36454 0.74072,1.36405 0.74071,1.36332 0.74072,1.36224 0.74071,1.36099 0.74072,1.3595 0.74072,1.35776 0.74071,1.35582 0.74072,1.35356 0.74071,1.35101 0.74072,1.34807 0.74071,1.34463 0.74072,1.34067 0.74073,1.33605 0.7407,1.33061 0.74073,1.32432 0.7407,1.31695 0.74073,1.30842 0.74072,1.29857 0.74071,1.28726 0.74072,1.27435 0.74071,1.25971 0.74072,1.24314 0.74072,1.2246 0.74071,1.20395 0.74072,1.18108 0.74071,1.1559 0.74073,1.12835 0.74072,1.09838 0.7407,1.06598 0.74073,1.03109 0.7407,0.99384 0.74073,0.95416 0.7407,0.91222 0.74072,0.86804 0.74073,0.82182 0.74071,0.77364 0.74072,0.72375 0.74071,0.6723 0.74072,0.61959 0.74072,0.56576 0.74071,0.51117 0.74072,0.45608 0.74071,0.40077 0.74072,0.34559 0.74073,0.29086 0.7407,0.2369 0.74072,0.18402 0.74071,0.1326 0.74072,0.0829 0.74071,0.0354 0.74072,-0.01 0.74072,-0.0523 0.74071,-0.0919 0.74073,-0.12819 0.7407,-0.16108 0.74073,-0.19031 0.74072,-0.21572 0.74071,-0.23719 0.74072,-0.2546 0.74071,-0.26783 0.74072,-0.27698 0.74072,-0.28195 0.74071,-0.28281 0.74072,-0.27965 0.74071,-0.27261 0.74072,-0.26183 0.74073,-0.2475 0.7407,-0.2299 0.74073,-0.20922 0.74071,-0.1858 0.74072,-0.15999 0.7407,-0.13206 0.74073,-0.10245 0.74072,-0.0715 0.74071,-0.0396 0.74072,-0.007 L 266.6579,0 H 0 Z"
       style="fill:#009e73;fill-opacity:0.15;fill-rule:nonzero;stroke:none"
       transform="matrix(1.3333333,0,0,-1.3333333,5293.2333,161.38267)"
       clip-path="url(#clipPath4802)" />
    <path
       id="path4803"
       d="m 0,102.11739 0.7407,0.0396 0.74073,0.0715 0.74071,0.10245 0.74072,0.13206 0.74071,0.15999 0.74072,0.1858 0.74072,0.20922 0.74071,0.2299 0.74072,0.2475 0.74071,0.26183 0.74072,0.27261 0.74073,0.27965 0.7407,0.28281 0.74073,0.28195 0.7407,0.27698 0.74073,0.26783 0.74072,0.2546 0.74071,0.23719 0.74072,0.21572 0.74071,0.19031 0.74072,0.16108 0.74071,0.12819 0.74072,0.0919 0.74072,0.0523 0.74071,0.01 0.74072,-0.0354 0.74071,-0.0829 0.74072,-0.1326 0.74072,-0.18402 0.74071,-0.2369 0.74072,-0.29086 0.74071,-0.34559 0.74072,-0.40077 0.74073,-0.45608 0.7407,-0.51117 0.74073,-0.56576 0.74071,-0.61959 0.74072,-0.6723 0.74072,-0.72375 0.74071,-0.77364 0.74072,-0.82182 0.74071,-0.86804 0.74072,-0.91222 0.7407,-0.95416 0.74073,-0.99384 0.74072,-1.03109 0.74071,-1.06598 0.74072,-1.09838 0.74071,-1.12835 0.74072,-1.1559 0.74073,-1.18108 0.7407,-1.20395 0.74073,-1.2246 0.7407,-1.24314 0.74073,-1.25971 0.74072,-1.27435 0.74071,-1.28726 0.74072,-1.29857 0.74071,-1.30842 0.74072,-1.31695 0.74071,-1.32432 0.74072,-1.33061 0.74072,-1.33605 0.74071,-1.34067 0.74072,-1.34463 0.74071,-1.34807 0.74072,-1.35101 0.74072,-1.35356 0.74071,-1.35582 0.74072,-1.35776 0.74071,-1.3595 0.74072,-1.36099 0.74073,-1.36224 0.7407,-1.36332 0.74073,-1.36405 0.7407,-1.36454 0.74073,-1.36465 0.74072,-1.36432 0.74071,-1.36349 0.74072,-1.36211 0.74071,-1.36002 0.74072,-1.35717 0.74071,-1.35348 0.74072,-1.3488 0.74072,-1.34303 0.74071,-1.33613 0.74072,-1.32799 0.74071,-1.31847 0.74072,-1.30752 0.74072,-1.29514 0.74071,-1.28114 0.74072,-1.26557 0.74071,-1.24835 0.74072,-1.22946 0.74073,-1.20891 0.7407,-1.18664 0.74073,-1.16275 0.74071,-1.13724 0.74072,-1.11012 0.7407,-1.08149 0.74073,-1.05139 0.74072,-1.01996 0.74071,-0.98719 0.74072,-0.95331 0.7407,-0.91832 0.74073,-0.88245 0.74072,-0.84572 0.74071,-0.80835 0.74072,-0.77041 0.74071,-0.73206 0.74072,-0.69346 0.74073,-0.65476 0.7407,-0.61603 0.74073,-0.57746 0.7407,-0.53914 0.74073,-0.50119 0.74072,-0.4638 0.74071,-0.42698 0.74072,-0.39086 0.74071,-0.35554 0.74072,-0.32108 0.74071,-0.28759 0.74072,-0.25506 0.74072,-0.22363 0.74071,-0.1932 0.74072,-0.16396 0.74071,-0.13582 0.74072,-0.10882 0.74072,-0.08298 0.74071,-0.05829 0.74072,-0.03468 0.74071,-0.01224 0.74072,0.00914 0.74073,0.02943 0.7407,0.04869 0.74073,0.06696 0.7407,0.08421 0.74073,0.10056 0.7407,0.11595 0.74073,0.13046 0.74072,0.14411 0.74071,0.1569 0.74072,0.16885 0.74071,0.18003 0.74072,0.19037 0.74072,0.19992 0.74071,0.20866 0.74072,0.21663 0.74071,0.22379 0.74072,0.23011 0.74073,0.23563 0.7407,0.24028 0.74072,0.24407 0.74071,0.24697 0.74073,0.24897 0.74072,0.25 0.74071,0.25013 0.74072,0.24926 0.74071,0.24736 0.74072,0.24452 0.74071,0.24061 0.74072,0.23568 0.74072,0.22972 0.74071,0.22271 0.74072,0.21473 0.74071,0.20569 0.74072,0.19569 0.74072,0.18475 0.74071,0.17288 0.74072,0.16013 0.74071,0.14659 0.74072,0.13225 0.74073,0.1172 0.7407,0.1016 0.74073,0.08535 0.7407,0.06868 0.74073,0.05162 0.7407,0.03426 0.74073,0.01666 h 0.74072 l 0.74071,-0.01666 0.74072,-0.03426 0.74071,-0.05162 0.74072,-0.06868 0.74072,-0.08535 0.74071,-0.1016 0.74072,-0.1172 0.74071,-0.13225 0.74072,-0.14659 0.74072,-0.16013 0.74071,-0.17288 0.74072,-0.18475 0.74071,-0.19569 0.74072,-0.20569 0.74073,-0.21473 0.7407,-0.22271 0.74073,-0.22972 0.7407,-0.23568 0.74073,-0.24061 0.7407,-0.24452 0.74073,-0.24736 0.74072,-0.24926 0.74071,-0.25013 0.74072,-0.25 0.74071,-0.24897 0.74072,-0.24697 0.74073,-0.24407 0.7407,-0.24028 0.74072,-0.23563 0.74071,-0.23011 0.74072,-0.22379 0.74073,-0.21663 0.7407,-0.20866 0.74072,-0.19992 0.74071,-0.19037 0.74073,-0.18003 0.7407,-0.16885 0.74073,-0.1569 0.74072,-0.14411 0.74071,-0.13046 0.74072,-0.11595 0.74071,-0.10056 0.74072,-0.08421 0.74072,-0.06696 0.74071,-0.04869 0.74072,-0.02943 0.74071,-0.00914 0.74072,0.01224 0.74072,0.03468 0.74071,0.05829 0.74072,0.08298 0.74071,0.10882 0.74072,0.13582 0.74073,0.16396 0.7407,0.1932 0.74073,0.22363 0.7407,0.25506 0.74073,0.28759 0.7407,0.32108 0.74073,0.35554 0.74072,0.39086 0.74071,0.42698 0.74072,0.4638 0.74071,0.50119 0.74072,0.53914 0.74072,0.57746 0.74071,0.61603 0.74072,0.65476 0.74071,0.69346 0.74073,0.73206 0.74072,0.77041 0.7407,0.80835 0.74073,0.84572 0.7407,0.88245 0.74073,0.91832 0.7407,0.95331 0.74072,0.98719 0.74073,1.01996 0.74071,1.05139 0.74072,1.08149 0.74071,1.11012 0.74072,1.13724 0.74072,1.16275 0.74071,1.18664 0.74072,1.20891 0.74071,1.22946 0.74072,1.24835 0.74073,1.26557 0.7407,1.28114 0.74072,1.29514 0.74071,1.30752 0.74072,1.31847 0.74073,1.32799 0.7407,1.33613 0.74072,1.34303 0.74071,1.3488 0.74073,1.35348 0.7407,1.35717 0.74073,1.36002 0.74072,1.36211 0.74071,1.36349 0.74072,1.36432 0.74071,1.36465 0.74072,1.36454 0.74072,1.36405 0.74071,1.36332 0.74072,1.36224 0.74071,1.36099 0.74072,1.3595 0.74072,1.35776 0.74071,1.35582 0.74072,1.35356 0.74071,1.35101 0.74072,1.34807 0.74071,1.34463 0.74072,1.34067 0.74073,1.33605 0.7407,1.33061 0.74073,1.32432 0.7407,1.31695 0.74073,1.30842 0.74072,1.29857 0.74071,1.28726 0.74072,1.27435 0.74071,1.25971 0.74072,1.24314 0.74072,1.2246 0.74071,1.20395 0.74072,1.18108 0.74071,1.1559 0.74073,1.12835 0.74072,1.09838 0.7407,1.06598 0.74073,1.03109 0.7407,0.99384 0.74073,0.95416 0.7407,0.91222 0.74072,0.86804 0.74073,0.82182 0.74071,0.77364 0.74072,0.72375 0.74071,0.6723 0.74072,0.61959 0.74072,0.56576 0.74071,0.51117 0.74072,0.45608 0.74071,0.40077 0.74072,0.34559 0.74073,0.29086 0.7407,0.2369 0.74072,0.18402 0.74071,0.1326 0.74072,0.0829 0.74071,0.0354 0.74072,-0.01 0.74072,-0.0523 0.74071,-0.0919 0.74073,-0.12819 0.7407,-0.16108 0.74073,-0.19031 0.74072,-0.21572 0.74071,-0.23719 0.74072,-0.2546 0.74071,-0.26783 0.74072,-0.27698 0.74072,-0.28195 0.74071,-0.28281 0.74072,-0.27965 0.74071,-0.27261 0.74072,-0.26183 0.74073,-0.2475 0.7407,-0.2299 0.74073,-0.20922 0.74071,-0.1858 0.74072,-0.15999 0.7407,-0.13206 0.74073,-0.10245 0.74072,-0.0715 0.74071,-0.0396 0.74072,-0.007"
       style="fill:none;stroke:#009e73;stroke-width:0.99628;stroke-linecap:butt;stroke-linejoin:miter;stroke-miterlimit:10;stroke-dasharray:none;stroke-opacity:1"
       transform="matrix(1.3333333,0,0,-1.3333333,5293.2333,161.38267)"
       clip-path="url(#clipPath4804)" />
    <path
       id="path4805"
       d="m 0,40.2843 0.7407,1.31847 0.74073,1.32799 0.74071,1.33613 0.74072,1.34303 0.74071,1.3488 0.74072,1.35348 0.74072,1.35717 0.74071,1.36002 0.74072,1.36211 0.74071,1.36349 0.74072,1.36432 0.74073,1.36465 0.7407,1.36454 0.74073,1.36405 0.7407,1.36332 0.74073,1.36224 0.74072,1.36099 0.74071,1.3595 0.74072,1.35776 0.74071,1.35582 0.74072,1.35356 0.74071,1.35101 0.74072,1.34807 0.74072,1.34463 0.74071,1.34067 0.74072,1.33605 0.74071,1.33061 0.74072,1.32432 0.74072,1.31695 0.74071,1.30842 0.74072,1.29857 0.74071,1.28726 0.74072,1.27435 0.74073,1.25971 0.7407,1.24314 0.74073,1.2246 0.74071,1.20395 0.74072,1.18108 0.74072,1.1559 0.74071,1.12835 0.74072,1.09838 0.74071,1.06598 0.74072,1.03109 0.7407,0.99384 0.74073,0.95416 0.74072,0.91222 0.74071,0.86804 0.74072,0.82182 0.74071,0.77364 0.74072,0.72375 0.74073,0.6723 0.7407,0.61959 0.74073,0.56576 0.7407,0.51117 0.74073,0.45608 0.74072,0.40077 0.74071,0.34559 0.74072,0.29086 0.74071,0.2369 0.74072,0.18402 0.74071,0.1326 0.74072,0.0829 0.74072,0.0354 0.74071,-0.01 0.74072,-0.0523 0.74071,-0.0919 0.74072,-0.12819 0.74072,-0.16108 0.74071,-0.19031 0.74072,-0.21572 0.74071,-0.23719 0.74072,-0.2546 0.74073,-0.26783 0.7407,-0.27698 0.74073,-0.28195 0.7407,-0.28281 0.74073,-0.27965 0.74072,-0.27261 0.74071,-0.26183 0.74072,-0.2475 0.74071,-0.2299 0.74072,-0.20922 0.74071,-0.1858 0.74072,-0.15999 0.74072,-0.13206 0.74071,-0.10245 0.74072,-0.0715 0.74071,-0.0396 0.74072,-0.007 0.74072,0.007 0.74071,0.0396 0.74072,0.0715 0.74071,0.10245 0.74072,0.13206 0.74073,0.15999 0.7407,0.1858 0.74073,0.20922 0.74071,0.2299 0.74072,0.2475 0.7407,0.26183 0.74073,0.27261 0.74072,0.27965 0.74071,0.28281 0.74072,0.28195 0.7407,0.27698 0.74073,0.26783 0.74072,0.2546 0.74071,0.23719 0.74072,0.21572 0.74071,0.19031 0.74072,0.16108 0.74073,0.12819 0.7407,0.0919 0.74073,0.0523 0.7407,0.01 0.74073,-0.0354 0.74072,-0.0829 0.74071,-0.1326 0.74072,-0.18402 0.74071,-0.2369 0.74072,-0.29086 0.74071,-0.34559 0.74072,-0.40077 0.74072,-0.45608 0.74071,-0.51117 0.74072,-0.56576 0.74071,-0.61959 0.74072,-0.6723 0.74072,-0.72375 0.74071,-0.77364 0.74072,-0.82182 0.74071,-0.86804 0.74072,-0.91222 0.74073,-0.95416 0.7407,-0.99384 0.74073,-1.03109 0.7407,-1.06598 0.74073,-1.09838 0.7407,-1.12835 0.74073,-1.1559 0.74072,-1.18108 0.74071,-1.20395 0.74072,-1.2246 0.74071,-1.24314 0.74072,-1.25971 0.74072,-1.27435 0.74071,-1.28726 0.74072,-1.29857 0.74071,-1.30842 0.74072,-1.31695 0.74073,-1.32432 0.7407,-1.33061 0.74072,-1.33605 0.74071,-1.34067 0.74073,-1.34463 0.74072,-1.34807 0.74071,-1.35101 0.74072,-1.35356 0.74071,-1.35582 0.74072,-1.35776 0.74071,-1.3595 0.74072,-1.36099 0.74072,-1.36224 0.74071,-1.36332 0.74072,-1.36405 0.74071,-1.36454 0.74072,-1.36465 0.74072,-1.36432 0.74071,-1.36349 0.74072,-1.36211 0.74071,-1.36002 0.74072,-1.35717 0.74073,-1.35348 0.7407,-1.3488 0.74073,-1.34303 0.7407,-1.33613 0.74073,-1.32799 0.7407,-1.31847 0.74073,-1.30752 0.74072,-1.29514 0.74071,-1.28114 0.74072,-1.26557 0.74071,-1.24835 0.74072,-1.22946 0.74072,-1.20891 0.74071,-1.18664 0.74072,-1.16275 0.74071,-1.13724 0.74072,-1.11012 0.74072,-1.08149 0.74071,-1.05139 0.74072,-1.01996 0.74071,-0.98719 0.74072,-0.95331 0.74073,-0.91832 0.7407,-0.88245 0.74073,-0.84572 0.7407,-0.80835 0.74073,-0.77041 0.7407,-0.73206 0.74073,-0.69346 0.74072,-0.65476 0.74071,-0.61603 0.74072,-0.57746 0.74071,-0.53914 0.74072,-0.50119 0.74073,-0.4638 0.7407,-0.42698 0.74072,-0.39086 0.74071,-0.35554 0.74072,-0.32108 0.74073,-0.28759 0.7407,-0.25506 0.74072,-0.22363 0.74071,-0.1932 0.74073,-0.16396 0.7407,-0.13582 0.74073,-0.10882 0.74072,-0.08298 0.74071,-0.05829 0.74072,-0.03468 0.74071,-0.01224 0.74072,0.00914 0.74072,0.02943 0.74071,0.04869 0.74072,0.06696 0.74071,0.08421 0.74072,0.10056 0.74072,0.11595 0.74071,0.13046 0.74072,0.14411 0.74071,0.1569 0.74072,0.16885 0.74073,0.18003 0.7407,0.19037 0.74073,0.19992 0.7407,0.20866 0.74073,0.21663 0.7407,0.22379 0.74073,0.23011 0.74072,0.23563 0.74071,0.24028 0.74072,0.24407 0.74071,0.24697 0.74072,0.24897 0.74072,0.25 0.74071,0.25013 0.74072,0.24926 0.74071,0.24736 0.74073,0.24452 0.74072,0.24061 0.7407,0.23568 0.74073,0.22972 0.7407,0.22271 0.74073,0.21473 0.7407,0.20569 0.74072,0.19569 0.74073,0.18475 0.74071,0.17288 0.74072,0.16013 0.74071,0.14659 0.74072,0.13225 0.74072,0.1172 0.74071,0.1016 0.74072,0.08535 0.74071,0.06868 0.74072,0.05162 0.74073,0.03426 0.7407,0.01666 h 0.74072 l 0.74071,-0.01666 0.74072,-0.03426 0.74073,-0.05162 0.7407,-0.06868 0.74072,-0.08535 0.74071,-0.1016 0.74073,-0.1172 0.7407,-0.13225 0.74073,-0.14659 0.74072,-0.16013 0.74071,-0.17288 0.74072,-0.18475 0.74071,-0.19569 0.74072,-0.20569 0.74072,-0.21473 0.74071,-0.22271 0.74072,-0.22972 0.74071,-0.23568 0.74072,-0.24061 0.74072,-0.24452 0.74071,-0.24736 0.74072,-0.24926 0.74071,-0.25013 0.74072,-0.25 0.74071,-0.24897 0.74072,-0.24697 0.74073,-0.24407 0.7407,-0.24028 0.74073,-0.23563 0.7407,-0.23011 0.74073,-0.22379 0.74072,-0.21663 0.74071,-0.20866 0.74072,-0.19992 0.74071,-0.19037 0.74072,-0.18003 0.74072,-0.16885 0.74071,-0.1569 0.74072,-0.14411 0.74071,-0.13046 0.74073,-0.11595 0.74072,-0.10056 0.7407,-0.08421 0.74073,-0.06696 0.7407,-0.04869 0.74073,-0.02943 0.7407,-0.00914 0.74072,0.01224 0.74073,0.03468 0.74071,0.05829 0.74072,0.08298 0.74071,0.10882 0.74072,0.13582 0.74072,0.16396 0.74071,0.1932 0.74072,0.22363 0.74071,0.25506 0.74072,0.28759 0.74073,0.32108 0.7407,0.35554 0.74072,0.39086 0.74071,0.42698 0.74072,0.4638 0.74071,0.50119 0.74072,0.53914 0.74072,0.57746 0.74071,0.61603 0.74073,0.65476 0.7407,0.69346 0.74073,0.73206 0.74072,0.77041 0.74071,0.80835 0.74072,0.84572 0.74071,0.88245 0.74072,0.91832 0.74072,0.95331 0.74071,0.98719 0.74072,1.01996 0.74071,1.05139 0.74072,1.08149 0.74073,1.11012 0.7407,1.13724 0.74073,1.16275 0.74071,1.18664 0.74072,1.20891 0.7407,1.22946 0.74073,1.24835 0.74072,1.26557 0.74071,1.28114 0.74072,1.29514 V 0 H 0 Z"
       style="fill:#e69f00;fill-opacity:0.15;fill-rule:nonzero;stroke:none"
       transform="matrix(1.3333333,0,0,-1.3333333,5293.2333,161.38267)"
       clip-path="url(#clipPath4806)" />
    <path
       id="path4807"
       d="m 0,40.2843 0.7407,1.31847 0.74073,1.32799 0.74071,1.33613 0.74072,1.34303 0.74071,1.3488 0.74072,1.35348 0.74072,1.35717 0.74071,1.36002 0.74072,1.36211 0.74071,1.36349 0.74072,1.36432 0.74073,1.36465 0.7407,1.36454 0.74073,1.36405 0.7407,1.36332 0.74073,1.36224 0.74072,1.36099 0.74071,1.3595 0.74072,1.35776 0.74071,1.35582 0.74072,1.35356 0.74071,1.35101 0.74072,1.34807 0.74072,1.34463 0.74071,1.34067 0.74072,1.33605 0.74071,1.33061 0.74072,1.32432 0.74072,1.31695 0.74071,1.30842 0.74072,1.29857 0.74071,1.28726 0.74072,1.27435 0.74073,1.25971 0.7407,1.24314 0.74073,1.2246 0.74071,1.20395 0.74072,1.18108 0.74072,1.1559 0.74071,1.12835 0.74072,1.09838 0.74071,1.06598 0.74072,1.03109 0.7407,0.99384 0.74073,0.95416 0.74072,0.91222 0.74071,0.86804 0.74072,0.82182 0.74071,0.77364 0.74072,0.72375 0.74073,0.6723 0.7407,0.61959 0.74073,0.56576 0.7407,0.51117 0.74073,0.45608 0.74072,0.40077 0.74071,0.34559 0.74072,0.29086 0.74071,0.2369 0.74072,0.18402 0.74071,0.1326 0.74072,0.0829 0.74072,0.0354 0.74071,-0.01 0.74072,-0.0523 0.74071,-0.0919 0.74072,-0.12819 0.74072,-0.16108 0.74071,-0.19031 0.74072,-0.21572 0.74071,-0.23719 0.74072,-0.2546 0.74073,-0.26783 0.7407,-0.27698 0.74073,-0.28195 0.7407,-0.28281 0.74073,-0.27965 0.74072,-0.27261 0.74071,-0.26183 0.74072,-0.2475 0.74071,-0.2299 0.74072,-0.20922 0.74071,-0.1858 0.74072,-0.15999 0.74072,-0.13206 0.74071,-0.10245 0.74072,-0.0715 0.74071,-0.0396 0.74072,-0.007 0.74072,0.007 0.74071,0.0396 0.74072,0.0715 0.74071,0.10245 0.74072,0.13206 0.74073,0.15999 0.7407,0.1858 0.74073,0.20922 0.74071,0.2299 0.74072,0.2475 0.7407,0.26183 0.74073,0.27261 0.74072,0.27965 0.74071,0.28281 0.74072,0.28195 0.7407,0.27698 0.74073,0.26783 0.74072,0.2546 0.74071,0.23719 0.74072,0.21572 0.74071,0.19031 0.74072,0.16108 0.74073,0.12819 0.7407,0.0919 0.74073,0.0523 0.7407,0.01 0.74073,-0.0354 0.74072,-0.0829 0.74071,-0.1326 0.74072,-0.18402 0.74071,-0.2369 0.74072,-0.29086 0.74071,-0.34559 0.74072,-0.40077 0.74072,-0.45608 0.74071,-0.51117 0.74072,-0.56576 0.74071,-0.61959 0.74072,-0.6723 0.74072,-0.72375 0.74071,-0.77364 0.74072,-0.82182 0.74071,-0.86804 0.74072,-0.91222 0.74073,-0.95416 0.7407,-0.99384 0.74073,-1.03109 0.7407,-1.06598 0.74073,-1.09838 0.7407,-1.12835 0.74073,-1.1559 0.74072,-1.18108 0.74071,-1.20395 0.74072,-1.2246 0.74071,-1.24314 0.74072,-1.25971 0.74072,-1.27435 0.74071,-1.28726 0.74072,-1.29857 0.74071,-1.30842 0.74072,-1.31695 0.74073,-1.32432 0.7407,-1.33061 0.74072,-1.33605 0.74071,-1.34067 0.74073,-1.34463 0.74072,-1.34807 0.74071,-1.35101 0.74072,-1.35356 0.74071,-1.35582 0.74072,-1.35776 0.74071,-1.3595 0.74072,-1.36099 0.74072,-1.36224 0.74071,-1.36332 0.74072,-1.36405 0.74071,-1.36454 0.74072,-1.36465 0.74072,-1.36432 0.74071,-1.36349 0.74072,-1.36211 0.74071,-1.36002 0.74072,-1.35717 0.74073,-1.35348 0.7407,-1.3488 0.74073,-1.34303 0.7407,-1.33613 0.74073,-1.32799 0.7407,-1.31847 0.74073,-1.30752 0.74072,-1.29514 0.74071,-1.28114 0.74072,-1.26557 0.74071,-1.24835 0.74072,-1.22946 0.74072,-1.20891 0.74071,-1.18664 0.74072,-1.16275 0.74071,-1.13724 0.74072,-1.11012 0.74072,-1.08149 0.74071,-1.05139 0.74072,-1.01996 0.74071,-0.98719 0.74072,-0.95331 0.74073,-0.91832 0.7407,-0.88245 0.74073,-0.84572 0.7407,-0.80835 0.74073,-0.77041 0.7407,-0.73206 0.74073,-0.69346 0.74072,-0.65476 0.74071,-0.61603 0.74072,-0.57746 0.74071,-0.53914 0.74072,-0.50119 0.74073,-0.4638 0.7407,-0.42698 0.74072,-0.39086 0.74071,-0.35554 0.74072,-0.32108 0.74073,-0.28759 0.7407,-0.25506 0.74072,-0.22363 0.74071,-0.1932 0.74073,-0.16396 0.7407,-0.13582 0.74073,-0.10882 0.74072,-0.08298 0.74071,-0.05829 0.74072,-0.03468 0.74071,-0.01224 0.74072,0.00914 0.74072,0.02943 0.74071,0.04869 0.74072,0.06696 0.74071,0.08421 0.74072,0.10056 0.74072,0.11595 0.74071,0.13046 0.74072,0.14411 0.74071,0.1569 0.74072,0.16885 0.74073,0.18003 0.7407,0.19037 0.74073,0.19992 0.7407,0.20866 0.74073,0.21663 0.7407,0.22379 0.74073,0.23011 0.74072,0.23563 0.74071,0.24028 0.74072,0.24407 0.74071,0.24697 0.74072,0.24897 0.74072,0.25 0.74071,0.25013 0.74072,0.24926 0.74071,0.24736 0.74073,0.24452 0.74072,0.24061 0.7407,0.23568 0.74073,0.22972 0.7407,0.22271 0.74073,0.21473 0.7407,0.20569 0.74072,0.19569 0.74073,0.18475 0.74071,0.17288 0.74072,0.16013 0.74071,0.14659 0.74072,0.13225 0.74072,0.1172 0.74071,0.1016 0.74072,0.08535 0.74071,0.06868 0.74072,0.05162 0.74073,0.03426 0.7407,0.01666 h 0.74072 l 0.74071,-0.01666 0.74072,-0.03426 0.74073,-0.05162 0.7407,-0.06868 0.74072,-0.08535 0.74071,-0.1016 0.74073,-0.1172 0.7407,-0.13225 0.74073,-0.14659 0.74072,-0.16013 0.74071,-0.17288 0.74072,-0.18475 0.74071,-0.19569 0.74072,-0.20569 0.74072,-0.21473 0.74071,-0.22271 0.74072,-0.22972 0.74071,-0.23568 0.74072,-0.24061 0.74072,-0.24452 0.74071,-0.24736 0.74072,-0.24926 0.74071,-0.25013 0.74072,-0.25 0.74071,-0.24897 0.74072,-0.24697 0.74073,-0.24407 0.7407,-0.24028 0.74073,-0.23563 0.7407,-0.23011 0.74073,-0.22379 0.74072,-0.21663 0.74071,-0.20866 0.74072,-0.19992 0.74071,-0.19037 0.74072,-0.18003 0.74072,-0.16885 0.74071,-0.1569 0.74072,-0.14411 0.74071,-0.13046 0.74073,-0.11595 0.74072,-0.10056 0.7407,-0.08421 0.74073,-0.06696 0.7407,-0.04869 0.74073,-0.02943 0.7407,-0.00914 0.74072,0.01224 0.74073,0.03468 0.74071,0.05829 0.74072,0.08298 0.74071,0.10882 0.74072,0.13582 0.74072,0.16396 0.74071,0.1932 0.74072,0.22363 0.74071,0.25506 0.74072,0.28759 0.74073,0.32108 0.7407,0.35554 0.74072,0.39086 0.74071,0.42698 0.74072,0.4638 0.74071,0.50119 0.74072,0.53914 0.74072,0.57746 0.74071,0.61603 0.74073,0.65476 0.7407,0.69346 0.74073,0.73206 0.74072,0.77041 0.74071,0.80835 0.74072,0.84572 0.74071,0.88245 0.74072,0.91832 0.74072,0.95331 0.74071,0.98719 0.74072,1.01996 0.74071,1.05139 0.74072,1.08149 0.74073,1.11012 0.7407,1.13724 0.74073,1.16275 0.74071,1.18664 0.74072,1.20891 0.7407,1.22946 0.74073,1.24835 0.74072,1.26557 0.74071,1.28114 0.74072,1.29514"
       style="fill:none;stroke:#e69f00;stroke-width:0.99628;stroke-linecap:butt;stroke-linejoin:miter;stroke-miterlimit:10;stroke-dasharray:none;stroke-opacity:1"
       transform="matrix(1.3333333,0,0,-1.3333333,5293.2333,161.38267)"
       clip-path="url(#clipPath4808)" />
    <path
       id="path4809"
       d="m 143.72495,103.49542 c 0,1.65071 -1.33814,2.98883 -2.98884,2.98883 -1.65071,0 -2.98883,-1.33812 -2.98883,-2.98883 0,-1.65069 1.33812,-2.98883 2.98883,-2.98883 1.6507,0 2.98884,1.33814 2.98884,2.98883 z"
       style="fill:#00507d;fill-opacity:1;fill-rule:nonzero;stroke:#0072b2;stroke-width:0.99628;stroke-linecap:butt;stroke-linejoin:miter;stroke-miterlimit:10;stroke-dasharray:none;stroke-opacity:0"
       transform="matrix(1.3333333,0,0,-1.3333333,5293.2333,161.38267)" />
    <path
       id="path4810"
       d="m 143.72495,25.76997 c 0,1.65071 -1.33814,2.98883 -2.98884,2.98883 -1.65071,0 -2.98883,-1.33812 -2.98883,-2.98883 0,-1.65071 1.33812,-2.98883 2.98883,-2.98883 1.6507,0 2.98884,1.33812 2.98884,2.98883 z"
       style="fill:#a16f00;fill-opacity:1;fill-rule:nonzero;stroke:#e69f00;stroke-width:0.99628;stroke-linecap:butt;stroke-linejoin:miter;stroke-miterlimit:10;stroke-dasharray:none;stroke-opacity:0"
       transform="matrix(1.3333333,0,0,-1.3333333,5293.2333,161.38267)" />
    <path
       id="path4811"
       d="m 143.72495,16.56866 c 0,1.6507 -1.33814,2.98884 -2.98884,2.98884 -1.65071,0 -2.98883,-1.33814 -2.98883,-2.98884 0,-1.65071 1.33812,-2.98883 2.98883,-2.98883 1.6507,0 2.98884,1.33812 2.98884,2.98883 z"
       style="fill:#006f50;fill-opacity:1;fill-rule:nonzero;stroke:#009e73;stroke-width:0.99628;stroke-linecap:butt;stroke-linejoin:miter;stroke-miterlimit:10;stroke-dasharray:none;stroke-opacity:0"
       transform="matrix(1.3333333,0,0,-1.3333333,5293.2333,161.38267)" />
    <path
       id="path4812"
       d="m 143.72495,52.3915 c 0,1.6507 -1.33814,2.98883 -2.98884,2.98883 -1.65071,0 -2.98883,-1.33813 -2.98883,-2.98883 0,-1.65072 1.33812,-2.98884 2.98883,-2.98884 1.6507,0 2.98884,1.33812 2.98884,2.98884 z"
       style="fill:#954200;fill-opacity:1;fill-rule:nonzero;stroke:#d55e00;stroke-width:0.99628;stroke-linecap:butt;stroke-linejoin:miter;stroke-miterlimit:10;stroke-dasharray:none;stroke-opacity:0"
       transform="matrix(1.3333333,0,0,-1.3333333,5293.2333,161.38267)" />
    <path
       id="path4813"
       d="M 140.73611,110.27898 V 0"
       style="fill:none;stroke:#d9d9d9;stroke-width:0.99628;stroke-linecap:butt;stroke-linejoin:miter;stroke-miterlimit:10;stroke-dasharray:2.98883, 2.98883;stroke-dashoffset:0;stroke-opacity:0.5"
       transform="matrix(1.3333333,0,0,-1.3333333,5293.2333,161.38267)"
       clip-path="url(#clipPath4814)" />
    <g
       id="g4814"
       aria-label="DirectionofArrival[&#10;◦&#10;]"
       transform="matrix(1.3333333,0,0,1.3333333,5380.9933,203.404)">
      <path
         id="path4815"
         d="m 0.59835938,-9.7981172 v 0.421875 h 0.29296875 c 1.03124997,0 1.07812497,0.140625 1.07812497,0.6679688 v 7.6171875 c 0,0.52734371 -0.046875,0.67968746 -1.07812497,0.67968746 H 0.59835938 v 0.41015625 H 5.6257031 c 2.390625,0 4.3125,-2.15625001 4.3125,-4.80468751 0,-2.765625 -1.9335937,-4.9921875 -4.3125,-4.9921875 z m 3.16406252,9.38671876 c -0.6328125,0 -0.6679688,-0.10546875 -0.6679688,-0.57421875 V -8.8137422 c 0,-0.46875 0.035156,-0.5625 0.6679688,-0.5625 h 1.5 c 1.1953125,0 2.1445312,0.5625 2.7304687,1.5117188 0.6445313,1.0195312 0.6445313,2.4726562 0.6445313,3.046875 0,0.796875 -0.011719,2.1445312 -0.8320313,3.2109375 -0.4804687,0.5976562 -1.3359375,1.19531246 -2.5429687,1.19531246 z M 13.225313,-8.8371797 c 0,-0.375 -0.304688,-0.703125 -0.703125,-0.703125 -0.375,0 -0.691407,0.3046875 -0.691407,0.6914063 0,0.4335937 0.351563,0.703125 0.691407,0.703125 0.445312,0 0.703125,-0.375 0.703125,-0.6914063 z m -1.980469,2.671875 v 0.4101563 c 0.914062,0 1.042969,0.09375 1.042969,0.7851562 v 3.9023438 c 0,0.65624996 -0.152344,0.65624996 -1.089844,0.65624996 v 0.41015625 c 0.410156,-0.0234375 1.089844,-0.0234375 1.511719,-0.0234375 0.152343,0 0.984375,0 1.476562,0.0234375 v -0.41015625 c -0.9375,0 -0.984375,-0.0820313 -0.984375,-0.63281246 v -5.2851563 z m 5.777343,2.8242188 c 0,-1.3945313 0.574219,-2.6953125 1.6875,-2.6953125 0.105469,0 0.140625,0 0.199219,0.011719 -0.117187,0.058594 -0.351562,0.140625 -0.351562,0.5273438 0,0.421875 0.339843,0.5742187 0.5625,0.5742187 0.292968,0 0.574218,-0.1875 0.574218,-0.5742187 0,-0.4335938 -0.386718,-0.8320313 -1.007812,-0.8320313 -1.21875,0 -1.628906,1.3242188 -1.710938,1.59375 h -0.02344 v -1.59375 L 15.03,-6.1653047 v 0.4101563 c 0.984375,0 1.089844,0.1054687 1.089844,0.8085937 v 3.8789063 c 0,0.65624996 -0.152344,0.65624996 -1.089844,0.65624996 v 0.41015625 c 0.410156,-0.0234375 1.195312,-0.0234375 1.628906,-0.0234375 0.386719,0 1.40625,0 1.734375,0.0234375 v -0.41015625 h -0.292969 c -1.042968,0 -1.078125,-0.1640625 -1.078125,-0.67968746 z m 8.566407,0.011719 c 0.316406,0 0.339843,0 0.339843,-0.2695312 0,-1.453125 -0.773437,-2.8007813 -2.507812,-2.8007813 -1.640625,0 -2.894531,1.4765625 -2.894531,3.2578125 0,1.8984375 1.464843,3.28125001 3.046875,3.28125001 1.710937,0 2.355468,-1.54687501 2.355468,-1.85156251 0,-0.082031 -0.07031,-0.140625 -0.152343,-0.140625 -0.117188,0 -0.152344,0.070312 -0.175782,0.140625 -0.375,1.20703126 -1.335937,1.53515626 -1.933593,1.53515626 -0.609375,0 -2.050782,-0.3984375 -2.050782,-2.88281246 v -0.2695313 z m -3.960938,-0.2695312 c 0.117188,-2.25 1.371094,-2.5078125 1.78125,-2.5078125 1.535156,0 1.617188,2.015625 1.628906,2.5078125 z m 9.899414,-1.7109375 c -0.175781,0 -0.703125,0 -0.703125,0.5859375 0,0.3515625 0.246094,0.5859375 0.585938,0.5859375 0.328125,0 0.609375,-0.1992188 0.609375,-0.609375 0,-0.9609375 -1.007813,-1.6523438 -2.167969,-1.6523438 -1.675781,0 -3.011719,1.4882813 -3.011719,3.3046875 0,1.828125 1.371094,3.23437501 3,3.23437501 1.886719,0 2.320313,-1.72265621 2.320313,-1.85156251 0,-0.1289062 -0.105469,-0.1289062 -0.140625,-0.1289062 -0.128906,0 -0.152344,0.046875 -0.1875,0.2226562 -0.316406,1.01953126 -1.089844,1.44140626 -1.863281,1.44140626 -0.878907,0 -2.039063,-0.76171875 -2.039063,-2.94140626 0,-2.3789062 1.21875,-2.9648437 1.933594,-2.9648437 0.550781,0 1.335937,0.2109375 1.664062,0.7734375 z m 3.465821,-0.4570313 h 2.015625 v -0.421875 h -2.015625 v -2.6367187 h -0.316407 c -0.02344,1.3476562 -0.539062,2.7304687 -1.839843,2.765625 v 0.2929687 h 1.21875 v 3.984375 c 0,1.59375001 1.066406,1.92187501 1.828125,1.92187501 0.902343,0 1.371093,-0.890625 1.371093,-1.92187501 v -0.8203125 h -0.316406 v 0.796875 c 0,1.03125001 -0.410156,1.62890626 -0.972656,1.62890626 -0.972656,0 -0.972656,-1.33593746 -0.972656,-1.57031246 z m 5.545898,-3.0703125 c 0,-0.375 -0.304687,-0.703125 -0.703125,-0.703125 -0.375,0 -0.691406,0.3046875 -0.691406,0.6914063 0,0.4335937 0.351562,0.703125 0.691406,0.703125 0.445313,0 0.703125,-0.375 0.703125,-0.6914063 z m -1.980469,2.671875 v 0.4101563 c 0.914063,0 1.042969,0.09375 1.042969,0.7851562 v 3.9023438 c 0,0.65624996 -0.152344,0.65624996 -1.089844,0.65624996 v 0.41015625 c 0.410157,-0.0234375 1.089844,-0.0234375 1.511719,-0.0234375 0.152344,0 0.984375,0 1.476563,0.0234375 v -0.41015625 c -0.9375,0 -0.984375,-0.0820313 -0.984375,-0.63281246 v -5.2851563 z m 9.972657,3.09375 c 0,-1.8515625 -1.40625,-3.328125 -3.070313,-3.328125 -1.722656,0 -3.082031,1.5234375 -3.082031,3.328125 0,1.8398438 1.429687,3.21093751 3.070312,3.21093751 1.6875,0 3.082032,-1.40625001 3.082032,-3.21093751 z m -3.070313,2.89453126 c -0.527344,0 -1.171875,-0.22265625 -1.59375,-0.92578126 -0.386719,-0.6445312 -0.398437,-1.5 -0.398437,-2.0976562 0,-0.5390625 0,-1.4179688 0.445312,-2.0625 0.398438,-0.6210938 1.03125,-0.84375 1.535156,-0.84375 0.550782,0 1.160157,0.2578125 1.546875,0.8085937 0.445313,0.6679688 0.445313,1.5703125 0.445313,2.0976563 0,0.5039062 0,1.3945312 -0.375,2.0625 -0.398438,0.69140621 -1.066406,0.96093746 -1.605469,0.96093746 z m 9.896484,-3.30468746 c 0,-1.3359375 0,-1.7460938 -0.328125,-2.203125 -0.421875,-0.5507813 -1.089843,-0.6445313 -1.582031,-0.6445313 -1.394531,0 -1.933594,1.1953125 -2.050781,1.4765625 h -0.01172 v -1.4765625 l -1.957031,0.1640625 v 0.4101563 c 0.972656,0 1.089844,0.1054687 1.089844,0.8085937 v 3.8789063 c 0,0.65624996 -0.152344,0.65624996 -1.089844,0.65624996 v 0.41015625 c 0.375,-0.0234375 1.148437,-0.0234375 1.546875,-0.0234375 0.421875,0 1.195312,0 1.570312,0.0234375 v -0.41015625 c -0.925781,0 -1.089843,0 -1.089843,-0.65624996 v -2.6601563 c 0,-1.5117187 0.984375,-2.3085937 1.875,-2.3085937 0.890625,0 1.089843,0.7265625 1.089843,1.6054687 v 3.3632813 c 0,0.65624996 -0.152343,0.65624996 -1.089843,0.65624996 v 0.41015625 c 0.375,-0.0234375 1.148437,-0.0234375 1.546875,-0.0234375 0.421875,0 1.195312,0 1.570312,0.0234375 v -0.41015625 c -0.714844,0 -1.078125,0 -1.089844,-0.43359375 z m 12.679688,0.4101562 c 0,-1.8515625 -1.40625,-3.328125 -3.070313,-3.328125 -1.722656,0 -3.082031,1.5234375 -3.082031,3.328125 0,1.8398438 1.429688,3.21093751 3.070313,3.21093751 1.6875,0 3.082031,-1.40625001 3.082031,-3.21093751 z m -3.070313,2.89453126 c -0.527343,0 -1.171875,-0.22265625 -1.59375,-0.92578126 -0.386718,-0.6445312 -0.398437,-1.5 -0.398437,-2.0976562 0,-0.5390625 0,-1.4179688 0.445312,-2.0625 0.398438,-0.6210938 1.03125,-0.84375 1.535157,-0.84375 0.550781,0 1.160156,0.2578125 1.546875,0.8085937 0.445312,0.6679688 0.445312,1.5703125 0.445312,2.0976563 0,0.5039062 0,1.3945312 -0.375,2.0625 -0.398437,0.69140621 -1.066406,0.96093746 -1.605469,0.96093746 z m 5.979493,-5.58984376 h 1.617187 v -0.421875 h -1.652344 v -1.6757812 c 0,-1.2890625 0.65625,-1.9453125 1.253907,-1.9453125 0.105468,0 0.328125,0.023437 0.492187,0.1171875 -0.04687,0.011719 -0.410156,0.140625 -0.410156,0.5507812 0,0.328125 0.222656,0.5625 0.5625,0.5625 0.339844,0 0.574219,-0.234375 0.574219,-0.5742187 0,-0.5273438 -0.515625,-0.9492194 -1.207032,-0.9492194 -1.007812,0 -2.144531,0.7734381 -2.144531,2.2382819 v 1.6757812 h -1.113281 v 0.421875 h 1.113281 v 4.6992188 c 0,0.65624996 -0.152344,0.65624996 -1.089844,0.65624996 v 0.41015625 c 0.410157,-0.0234375 1.195313,-0.0234375 1.628907,-0.0234375 0.386718,0 1.40625,0 1.734375,0.0234375 v -0.41015625 h -0.292969 c -1.042969,0 -1.066406,-0.1640625 -1.066406,-0.67968746 z m 12.067382,-4.21875 c -0.05859,-0.1757811 -0.09375,-0.2578131 -0.292968,-0.2578131 -0.199219,0 -0.222657,0.04687 -0.292969,0.2695319 l -3,8.578125 c -0.199219,0.58593746 -0.609375,0.96093746 -1.523438,0.98437496 v 0.41015625 c 0.878907,-0.0234375 0.902344,-0.0234375 1.371094,-0.0234375 0.410156,0 1.089844,0 1.464844,0.0234375 v -0.41015625 c -0.597656,-0.0234375 -0.960938,-0.31640625 -0.960938,-0.72656246 0,-0.082031 0,-0.1054688 0.07031,-0.2929688 l 0.667969,-1.9101562 h 3.609375 l 0.785156,2.25 c 0.08203,0.17578121 0.08203,0.19921871 0.08203,0.24609371 0,0.43359375 -0.738281,0.43359375 -1.089844,0.43359375 v 0.41015625 c 0.328125,-0.0234375 1.453125,-0.0234375 1.863282,-0.0234375 0.398437,0 1.429687,0 1.757812,0.0234375 v -0.41015625 c -0.925781,0 -1.183594,0 -1.382812,-0.59765626 z m -0.691406,1.453125 1.664063,4.7695313 H 80.65793 Z m 8.056641,5.1914063 c 0,-1.3945313 0.574219,-2.6953125 1.6875,-2.6953125 0.105469,0 0.140625,0 0.199219,0.011719 -0.117188,0.058594 -0.351563,0.140625 -0.351563,0.5273438 0,0.421875 0.339844,0.5742187 0.5625,0.5742187 0.292969,0 0.574219,-0.1875 0.574219,-0.5742187 0,-0.4335938 -0.386719,-0.8320313 -1.007813,-0.8320313 -1.21875,0 -1.628906,1.3242188 -1.710937,1.59375 h -0.02344 v -1.59375 l -1.921875,0.1640625 v 0.4101563 c 0.984375,0 1.089844,0.1054687 1.089844,0.8085937 v 3.8789063 c 0,0.65624996 -0.152344,0.65624996 -1.089844,0.65624996 v 0.41015625 c 0.410157,-0.0234375 1.195313,-0.0234375 1.628907,-0.0234375 0.386718,0 1.40625,0 1.734375,0.0234375 v -0.41015625 h -0.292969 c -1.042969,0 -1.078125,-0.1640625 -1.078125,-0.67968746 z m 5.463867,0 c 0,-1.3945313 0.574219,-2.6953125 1.6875,-2.6953125 0.105469,0 0.140625,0 0.199219,0.011719 -0.117188,0.058594 -0.351563,0.140625 -0.351563,0.5273438 0,0.421875 0.339844,0.5742187 0.5625,0.5742187 0.292969,0 0.574219,-0.1875 0.574219,-0.5742187 0,-0.4335938 -0.386719,-0.8320313 -1.007813,-0.8320313 -1.21875,0 -1.628906,1.3242188 -1.710937,1.59375 h -0.02344 v -1.59375 l -1.921875,0.1640625 v 0.4101563 c 0.984375,0 1.089844,0.1054687 1.089844,0.8085937 v 3.8789063 c 0,0.65624996 -0.152344,0.65624996 -1.089844,0.65624996 v 0.41015625 c 0.410157,-0.0234375 1.195313,-0.0234375 1.628907,-0.0234375 0.386718,0 1.40625,0 1.734375,0.0234375 v -0.41015625 h -0.292969 c -1.042969,0 -1.078125,-0.1640625 -1.078125,-0.67968746 z m 5.56641,-5.4960938 c 0,-0.375 -0.30469,-0.703125 -0.70313,-0.703125 -0.375,0 -0.6914,0.3046875 -0.6914,0.6914063 0,0.4335937 0.35156,0.703125 0.6914,0.703125 0.44531,0 0.70313,-0.375 0.70313,-0.6914063 z m -1.980473,2.671875 v 0.4101563 c 0.914063,0 1.042973,0.09375 1.042973,0.7851562 v 3.9023438 c 0,0.65624996 -0.15235,0.65624996 -1.089848,0.65624996 v 0.41015625 c 0.410157,-0.0234375 1.089848,-0.0234375 1.511718,-0.0234375 0.15235,0 0.98438,0 1.47656,0.0234375 v -0.41015625 c -0.9375,0 -0.98437,-0.0820313 -0.98437,-0.63281246 v -5.2851563 z m 9.234373,1.3476563 c 0.12891,-0.3164063 0.375,-0.9375 1.30078,-0.9492188 v -0.421875 c -0.42187,0.035156 -0.62109,0.035156 -1.0664,0.035156 -0.30469,0 -0.51563,0 -1.17188,-0.035156 v 0.421875 c 0.59766,0.023437 0.66797,0.4570313 0.66797,0.6210938 0,0.1289062 -0.0234,0.1992187 -0.0937,0.3632812 l -1.46484,3.703125 -1.60547,-4.0429687 c -0.0703,-0.1992188 -0.0937,-0.1992188 -0.0937,-0.2695313 0,-0.375 0.55078,-0.375 0.80859,-0.375 v -0.421875 c -0.36328,0.035156 -1.10156,0.035156 -1.48828,0.035156 -0.48047,0 -0.5039,0 -1.38281,-0.035156 v 0.421875 c 0.80859,0 0.94922,0.058594 1.125,0.5039063 l 2.05078,5.13281246 c 0.0703,0.19921875 0.0937,0.26953125 0.26953,0.26953125 0.0937,0 0.1875,-0.0234375 0.28125,-0.26953125 z m 6.31055,0.984375 c 0,-0.7734375 0,-1.3476563 -0.62109,-1.9101563 -0.50391,-0.4570312 -1.14844,-0.65625 -1.78125,-0.65625 -1.1836,0 -2.08594,0.7734375 -2.08594,1.7109375 0,0.4101563 0.28125,0.609375 0.60937,0.609375 0.33985,0 0.58594,-0.234375 0.58594,-0.5859375 0,-0.5859375 -0.51562,-0.5859375 -0.72656,-0.5859375 0.32812,-0.5976562 1.00781,-0.8554687 1.58203,-0.8554687 0.66797,0 1.51172,0.5390625 1.51172,1.828125 v 0.5742187 c -2.88281,0.046875 -3.97266,1.2539063 -3.97266,2.3554688 0,1.13671871 1.3125,1.48828121 2.19141,1.48828121 0.94922,0 1.59375,-0.57421875 1.86328,-1.25390621 0.0586,0.66796871 0.50391,1.18359371 1.125,1.18359371 0.29297,0 1.125,-0.19921875 1.125,-1.34765621 v -0.796875 h -0.31641 v 0.796875 c 0,0.82031246 -0.33984,0.93749996 -0.53906,0.93749996 -0.55078,0 -0.55078,-0.76171876 -0.55078,-0.98437496 z m -0.92578,1.8046875 c 0,1.40624996 -1.04297,1.88671871 -1.66406,1.88671871 -0.70313,0 -1.28907,-0.515625 -1.28907,-1.20703121 0,-1.8984375 2.4375,-2.0625 2.95313,-2.0976563 z m 4.88965,-7.921875 -2.00391,0.1523437 v 0.421875 c 0.98438,0 1.08984,0.09375 1.08984,0.796875 v 7.5117188 c 0,0.65624996 -0.15234,0.65624996 -1.08984,0.65624996 v 0.41015625 c 0.41016,-0.0234375 1.11328,-0.0234375 1.53516,-0.0234375 0.43359,0 1.14843,0 1.55859,0.0234375 v -0.41015625 c -0.92578,0 -1.08984,0 -1.08984,-0.65624996 z m 9.70605,13.5351562 v -0.527344 h -1.39453 V -10.231711 h 1.39453 v -0.527344 h -1.92187 V 3.5846953 Z m 0,0"
         style="fill:#d9d9d9;fill-opacity:1;fill-rule:nonzero;stroke:none" />
      <path
         id="path4816"
         d="m 133.3718,-7.7033906 c 0,-1.0546875 -0.87891,-1.921875 -1.92188,-1.921875 -1.07812,0 -1.94531,0.8789062 -1.94531,1.921875 0,1.0664062 0.86719,1.9335937 1.94531,1.9335937 1.04297,0 1.92188,-0.8671875 1.92188,-1.9335937 z m -1.92188,1.5351562 c -0.86719,0 -1.54687,-0.6914062 -1.54687,-1.5351562 0,-0.8320313 0.67968,-1.5234375 1.54687,-1.5234375 0.82031,0 1.52344,0.6679687 1.52344,1.5234375 0,0.8671875 -0.70313,1.5351562 -1.52344,1.5351562 z m 0,0"
         style="fill:#d9d9d9;fill-opacity:1;fill-rule:nonzero;stroke:none" />
      <path
         id="path4817"
         d="m 136.65891,-10.759055 h -1.92188 v 0.527344 h 1.38281 V 3.0573516 h -1.38281 v 0.5273437 h 1.92188 z m 0,0"
         style="fill:#d9d9d9;fill-opacity:1;fill-rule:nonzero;stroke:none" />
    </g>
  </g>
</svg>
