<?xml version="1.0" encoding="UTF-8" standalone="no"?>
<!-- Created with Inkscape (http://www.inkscape.org/) -->

<svg
   version="1.1"
   id="svg1"
   width="223.68933"
   height="223.68933"
   viewBox="0 0 223.68933 223.68933"
   sodipodi:docname="tikz_to_pdf_28-30_Inkscape.svg"
   inkscape:version="1.3.2 (091e20e, 2023-11-25, custom)"
   xmlns:inkscape="http://www.inkscape.org/namespaces/inkscape"
   xmlns:sodipodi="http://sodipodi.sourceforge.net/DTD/sodipodi-0.dtd"
   xmlns:xlink="http://www.w3.org/1999/xlink"
   xmlns="http://www.w3.org/2000/svg"
   xmlns:svg="http://www.w3.org/2000/svg">
  <sodipodi:namedview
     id="namedview1"
     pagecolor="#ffffff"
     bordercolor="#999999"
     borderopacity="1"
     inkscape:showpageshadow="0"
     inkscape:pageopacity="0"
     inkscape:pagecheckerboard="0"
     inkscape:deskcolor="#d1d1d1"
     inkscape:zoom="2.1055988"
     inkscape:cx="855.33861"
     inkscape:cy="88.098452"
     inkscape:window-width="1920"
     inkscape:window-height="1129"
     inkscape:window-x="-1923"
     inkscape:window-y="-1208"
     inkscape:window-maximized="1"
     inkscape:current-layer="g6">
    <inkscape:page
       x="0"
       y="0"
       inkscape:label="1"
       id="page1"
       width="223.68933"
       height="223.68933"
       margin="0"
       bleed="0"
       inkscape:export-filename="tikz_to_pdf_30_0.svg"
       inkscape:export-xdpi="999.998"
       inkscape:export-ydpi="999.998" />
    <inkscape:page
       x="243.68933"
       y="0"
       inkscape:label="2"
       id="page3"
       width="223.69067"
       height="223.67733" />
    <inkscape:page
       x="487.38"
       y="0"
       inkscape:label="3"
       id="page6"
       width="223.69067"
       height="223.69067" />
  </sodipodi:namedview>
  <defs
     id="defs1">
    <clipPath
       clipPathUnits="userSpaceOnUse"
       id="clipPath2">
      <path
         d="m -13.98149,-13.98149 h 167.7695 v 167.7695 h -167.7695 z"
         id="path2" />
    </clipPath>
    <clipPath
       clipPathUnits="userSpaceOnUse"
       id="clipPath5">
      <path
         d="M -13.9815,-13.98067 H 153.78835 V 153.77898 H -13.9815 Z"
         transform="translate(-2.5000001e-6)"
         id="path5" />
    </clipPath>
    <clipPath
       clipPathUnits="userSpaceOnUse"
       id="clipPath8">
      <path
         d="M -13.98157,-13.98157 H 153.78886 V 153.78886 H -13.98157 Z"
         transform="translate(2.5000001e-6)"
         id="path8" />
    </clipPath>
    <clipPath
       clipPathUnits="userSpaceOnUse"
       id="clipPath10">
      <path
         d="M -13.98157,-13.98157 H 153.78886 V 153.78886 H -13.98157 Z"
         transform="translate(2.5000001e-6)"
         id="path10" />
    </clipPath>
    <clipPath
       clipPathUnits="userSpaceOnUse"
       id="clipPath12">
      <path
         d="M -13.98157,-13.98157 H 153.78886 V 153.78886 H -13.98157 Z"
         transform="translate(2.5000001e-6)"
         id="path12" />
    </clipPath>
    <clipPath
       clipPathUnits="userSpaceOnUse"
       id="clipPath14">
      <path
         d="M -13.98157,-13.98157 H 153.78886 V 153.78886 H -13.98157 Z"
         transform="translate(2.5000001e-6)"
         id="path14" />
    </clipPath>
  </defs>
  <g
     id="g1"
     inkscape:groupmode="layer"
     inkscape:label="1">
    <path
       id="path1"
       d="m 139.8065,69.90324 -0.0106,1.21999 -0.0319,1.2196 -0.0532,1.21886 -0.0745,1.21776 -0.0957,1.21626 -0.11693,1.21442 -0.13812,1.21217 -0.15925,1.2096 -0.18032,1.20662 -0.20138,1.20329 -0.22231,1.19961 -0.24324,1.19553 -0.26405,1.1911 -0.28483,1.18633 -0.30547,1.18115 -0.32604,1.17566 -0.3465,1.16978 -0.36686,1.16358 -0.38712,1.15696 -0.40726,1.15006 -0.42726,1.14276 -0.44714,1.13513 -0.46689,1.12717 -0.48648,1.11882 -0.50594,1.11018 -0.52524,1.10117 -0.54437,1.09186 -0.56335,1.08218 -0.58213,1.07216 -0.60078,1.06187 -0.6192,1.05121 -0.63747,1.04024 -0.65553,1.02896 -0.67337,1.01738 -0.69104,1.00545 -0.70845,0.99322 -0.72571,0.98075 -0.74271,0.96791 -0.75947,0.95479 -0.77603,0.94142 -0.79235,0.9277 -0.80842,0.91376 -0.82425,0.89947 -0.83982,0.885 -0.8551,0.87019 -0.87019,0.8551 -0.885,0.83982 -0.89947,0.82425 -0.91376,0.80842 -0.9277,0.79235 -0.94142,0.77603 -0.95479,0.75947 -0.96791,0.74271 -0.98075,0.72571 -0.99322,0.70845 -1.00545,0.69104 -1.01738,0.67337 -1.02896,0.65553 -1.04024,0.63747 -1.05121,0.6192 -1.06187,0.60078 -1.07216,0.58213 -1.08218,0.56335 -1.09186,0.54437 -1.10117,0.52524 -1.11018,0.50594 -1.11882,0.48648 -1.12717,0.46689 -1.13513,0.44714 -1.14276,0.42726 -1.15006,0.40726 -1.15696,0.38712 -1.16358,0.36686 -1.16978,0.3465 -1.17566,0.32604 -1.18115,0.30547 -1.18633,0.28483 -1.1911,0.26405 -1.19553,0.24324 -1.19961,0.22231 -1.20329,0.20138 -1.20662,0.18032 -1.2096,0.15925 -1.21217,0.13812 -1.21442,0.11693 -1.21626,0.0957 -1.21776,0.0745 -1.21886,0.0532 -1.2196,0.0319 -1.21999,0.0106 -1.21998,-0.0106 -1.21961,-0.0319 -1.21887,-0.0532 -1.21774,-0.0745 -1.21628,-0.0957 -1.2144,-0.11693 -1.21217,-0.13812 -1.2096,-0.15925 -1.20662,-0.18032 -1.20331,-0.20138 -1.1996,-0.22231 -1.19552,-0.24324 -1.1911,-0.26405 -1.18633,-0.28483 -1.18117,-0.30547 -1.17566,-0.32604 -1.16976,-0.3465 -1.16358,-0.36686 -1.15697,-0.38712 -1.15005,-0.40726 -1.14276,-0.42726 -1.13513,-0.44714 -1.12717,-0.46689 -1.11882,-0.48648 -1.11018,-0.50594 -1.10119,-0.52524 -1.09184,-0.54437 -1.08218,-0.56335 -1.07218,-0.58213 -1.06186,-0.60078 -1.05121,-0.6192 -1.04023,-0.63747 -1.02897,-0.65553 -1.01737,-0.67337 -1.00545,-0.69104 -0.99324,-0.70845 -0.98073,-0.72571 -0.96791,-0.74271 -0.9548,-0.75947 -0.94141,-0.77603 -0.9277,-0.79235 -0.91376,-0.80842 -0.89949,-0.82425 -0.88498,-0.83982 -0.87019,-0.8551 -0.85511,-0.87019 -0.83982,-0.885 -0.82424,-0.89947 -0.80842,-0.91376 -0.79235,-0.9277 -0.77603,-0.94142 -0.75947,-0.95479 -0.74271,-0.96791 -0.72571,-0.98075 -0.70846,-0.99322 -0.69103,-1.00545 -0.67337,-1.01738 -0.65553,-1.02896 -0.63747,-1.04024 -0.6192,-1.05121 L 8.76447,103.793 8.18234,102.72084 7.61899,101.63866 7.07462,100.5468 6.54936,99.44563 6.04343,98.33545 5.55696,97.21663 5.09007,96.08946 4.64291,94.95433 4.21567,93.81157 3.80841,92.66151 3.4213,91.50455 3.05441,90.34097 2.70792,89.17119 2.38188,87.99553 2.07642,86.81438 1.7916,85.62805 1.52753,84.43695 1.2843,83.24142 1.06197,82.04181 0.86061,80.83852 0.68028,79.6319 0.52104,78.4223 0.38292,77.21013 0.26598,75.99571 0.17027,74.77945 0.09578,73.56169 0.04256,72.34283 0.01064,71.12323 0,69.90324 l 0.01064,-1.21998 0.03192,-1.21961 0.05322,-1.21887 0.07449,-1.21774 0.09571,-1.21628 0.11694,-1.2144 0.13812,-1.21217 0.15924,-1.2096 0.18033,-1.20662 0.20136,-1.20331 0.22233,-1.1996 0.24323,-1.19552 0.26407,-1.1911 0.28482,-1.18633 0.30546,-1.18117 0.32604,-1.17566 0.34649,-1.16976 0.36689,-1.16358 0.38711,-1.15697 0.40726,-1.15005 0.42724,-1.14276 0.44716,-1.13513 0.46689,-1.12717 0.48647,-1.11882 0.50593,-1.11018 0.52526,-1.10119 0.54437,-1.09184 0.56335,-1.08218 0.58213,-1.07218 0.60078,-1.06186 0.6192,-1.05121 0.63747,-1.04023 0.65553,-1.02897 0.67337,-1.01737 0.69103,-1.00545 0.70846,-0.99324 0.72571,-0.98073 0.74271,-0.96791 0.75947,-0.9548 0.77603,-0.94141 0.79235,-0.9277 0.80842,-0.91376 0.82424,-0.89949 0.83982,-0.88498 0.85511,-0.87019 0.87019,-0.85511 0.88498,-0.83982 0.89949,-0.82424 0.91376,-0.80842 0.9277,-0.79235 0.94141,-0.77603 0.9548,-0.75947 0.96791,-0.74271 0.98073,-0.72571 0.99324,-0.70846 1.00545,-0.69103 1.01737,-0.67337 1.02897,-0.65553 1.04023,-0.63747 1.05121,-0.6192 1.06186,-0.60078 1.07218,-0.58213 1.08218,-0.56335 1.09184,-0.54437 1.10119,-0.52526 1.11018,-0.50593 1.11882,-0.48647 1.12717,-0.46689 1.13513,-0.44716 1.14276,-0.42724 1.15005,-0.40726 1.15697,-0.38711 1.16358,-0.36689 1.16976,-0.34649 1.17566,-0.32604 1.18117,-0.30546 1.18633,-0.28482 1.1911,-0.26407 1.19552,-0.24323 1.1996,-0.22233 1.20331,-0.20136 1.20662,-0.18033 1.2096,-0.15924 1.21217,-0.13812 1.2144,-0.11694 L 65.02704,0.17027 66.24478,0.09578 67.46365,0.04256 68.68326,0.01064 69.90324,0 l 1.21999,0.01064 1.2196,0.03192 1.21886,0.05322 1.21776,0.07449 1.21626,0.09571 1.21442,0.11694 1.21217,0.13812 1.2096,0.15924 1.20662,0.18033 1.20329,0.20136 1.19961,0.22233 1.19553,0.24323 1.1911,0.26407 1.18633,0.28482 1.18115,0.30546 1.17566,0.32604 1.16978,0.34649 1.16358,0.36689 1.15696,0.38711 1.15006,0.40726 1.14276,0.42724 1.13513,0.44716 1.12717,0.46689 1.11882,0.48647 1.11018,0.50593 1.10117,0.52526 1.09186,0.54437 1.08218,0.56335 1.07216,0.58213 1.06187,0.60078 1.05121,0.6192 1.04024,0.63747 1.02896,0.65553 1.01738,0.67337 1.00545,0.69103 0.99322,0.70846 0.98075,0.72571 0.96791,0.74271 0.95479,0.75947 0.94142,0.77603 0.9277,0.79235 0.91376,0.80842 0.89947,0.82424 0.885,0.83982 0.87019,0.85511 0.8551,0.87019 0.83982,0.88498 0.82425,0.89949 0.80842,0.91376 0.79235,0.9277 0.77603,0.94141 0.75947,0.9548 0.74271,0.96791 0.72571,0.98073 0.70845,0.99324 0.69104,1.00545 0.67337,1.01737 0.65553,1.02897 0.63747,1.04023 0.6192,1.05121 0.60078,1.06186 0.58213,1.07218 0.56335,1.08218 0.54437,1.09184 0.52524,1.10119 0.50594,1.11018 0.48648,1.11882 0.46689,1.12717 0.44714,1.13513 0.42726,1.14276 0.40726,1.15005 0.38712,1.15697 0.36686,1.16358 0.3465,1.16976 0.32604,1.17566 0.30547,1.18117 0.28483,1.18633 0.26405,1.1911 0.24324,1.19552 0.22231,1.1996 0.20138,1.20331 0.18032,1.20662 0.15925,1.2096 0.13812,1.21217 0.11693,1.2144 0.0957,1.21628 0.0745,1.21774 0.0532,1.21887 0.0319,1.21961 0.0106,1.21998"
       style="fill:#0072b2;fill-opacity:0.15;fill-rule:nonzero;stroke:#0072b2;stroke-width:0.99628;stroke-linecap:butt;stroke-linejoin:miter;stroke-miterlimit:10;stroke-dasharray:none;stroke-opacity:1"
       transform="matrix(1.3333333,0,0,-1.3333333,18.509333,204.68933)"
       clip-path="url(#clipPath2)" />
    <path
       id="path3"
       d="m 71.8958,69.90324 c 0,1.10048 -0.89208,1.99256 -1.99256,1.99256 -1.10046,0 -1.99255,-0.89208 -1.99255,-1.99256 0,-1.10046 0.89209,-1.99255 1.99255,-1.99255 1.10048,0 1.99256,0.89209 1.99256,1.99255 z"
       style="fill:#0072b2;fill-opacity:1;fill-rule:nonzero;stroke:#0072b2;stroke-width:0.99628;stroke-linecap:butt;stroke-linejoin:miter;stroke-miterlimit:10;stroke-dasharray:none;stroke-opacity:1"
       transform="matrix(1.3333333,0,0,-1.3333333,18.509333,204.68933)" />
  </g>
  <g
     id="g3"
     inkscape:groupmode="layer"
     inkscape:label="2"
     style="display:inline">
    <path
       id="path4"
       d="m 139.74644,69.89914 0.0114,1.78786 0.0126,1.78929 0.0129,1.79188 0.0117,1.7955 0.009,1.79999 0.003,1.80525 -0.005,1.8111 -0.0172,1.81728 -0.0326,1.82361 -0.0521,1.82978 -0.0759,1.83556 -0.10413,1.84062 -0.13707,1.84467 -0.17474,1.84741 -0.21721,1.84853 -0.26443,1.84774 -0.31642,1.84473 -0.37293,1.83923 -0.43379,1.83098 -0.49881,1.81973 -0.5676,1.80532 -0.63989,1.78744 -0.71526,1.7661 -0.79332,1.74101 -0.87353,1.71224 -0.95552,1.67962 -1.03874,1.64318 -1.12267,1.60298 -1.20683,1.559 -1.29065,1.51142 -1.37366,1.46029 -1.45538,1.40586 -1.53525,1.3482 -1.61288,1.28768 -1.68779,1.22441 -1.75963,1.15872 -1.82797,1.0909 -1.89249,1.02118 -1.95293,0.94992 -2.00903,0.87739 -2.06055,0.80394 -2.10733,0.72986 -2.14931,0.65541 -2.18632,0.58096 -2.21837,0.50673 -2.24548,0.43299 -2.26766,0.36 -2.28494,0.28797 -2.29753,0.21714 -2.3055,0.14763 -2.309,0.0796 -2.30821,0.0133 -2.30338,-0.0513 -2.29463,-0.11411 -2.28227,-0.175 -2.26647,-0.23401 -2.24748,-0.29104 -2.22553,-0.34617 -2.20082,-0.39938 -2.1736,-0.45071 -2.14405,-0.50023 -2.1124,-0.54799 -2.07878,-0.59403 -2.04341,-0.63842 -2.00646,-0.68128 -1.96802,-0.72261 -1.9282,-0.76254 -1.88722,-0.80104 -1.8451,-0.83827 -1.80188,-0.87419 -1.75772,-0.90888 -1.71261,-0.94232 -1.66669,-0.97453 -1.61989,-1.0055 -1.57236,-1.03521 -1.52406,-1.06365 -1.47507,-1.0907 -1.42538,-1.11635 -1.37511,-1.14053 -1.32419,-1.16315 -1.27278,-1.18408 -1.22088,-1.20328 -1.16857,-1.22059 -1.1159,-1.23599 -1.06302,-1.24927 -1.00992,-1.26038 -0.95682,-1.26922 -0.90378,-1.27572 -0.85085,-1.27972 -0.79835,-1.28126 -0.74625,-1.28017 -0.69476,-1.27646 -0.64405,-1.27011 -0.59427,-1.26109 -0.54557,-1.24938 -0.49807,-1.23506 -0.45201,-1.21812 -0.40754,-1.19863 -0.36465,-1.17671 -0.32372,-1.15242 -0.28468,-1.12588 -0.2478,-1.09725 -0.21305,-1.06665 -0.18064,-1.03426 -0.15061,-1.00021 -0.12298,-0.96475 -0.09786,-0.92806 -0.07525,-0.8903 -0.05518,-0.85169 -0.03764,-0.81247 -0.0226,-0.77276 -0.01007,-0.7329 9e-5,-0.69293 0.0078,-0.65318 0.01333,-0.61379 0.01662,-0.57487 0.01782,-0.5367 0.01701,-0.49936 0.01441,-0.46301 0.01,-0.4278 0.004,-0.39381 -0.0035,-0.36118 L 13.7451,78.73372 13.72272,78.43346 13.68916,78.16135 13.64352,77.91579 13.58498,77.69511 13.51279,77.4977 13.42639,77.32185 13.32533,77.16592 13.20921,77.02821 13.07779,76.90715 12.93086,76.80106 12.76836,76.7084 12.59032,76.62758 12.39677,76.55716 12.1879,76.49564 11.9639,76.4416 11.72507,76.39369 11.47179,76.35059 11.20442,76.31104 10.92345,76.2738 10.6294,76.23773 10.32285,76.20169 10.00446,76.16461 9.67488,76.12546 9.33488,76.08328 8.9853,76.03711 8.62697,75.9861 8.26082,75.92937 7.88786,75.86617 7.50912,75.79573 7.12573,75.71739 6.73888,75.63051 6.34975,75.53448 5.95964,75.42882 5.56993,75.31305 5.18196,75.18678 4.79723,75.0497 4.41713,74.9015 4.0432,74.74205 3.67699,74.57123 3.31998,74.38899 2.97375,74.19539 2.63988,73.99055 2.3198,73.77473 2.01505,73.54819 1.72708,73.3113 1.45726,73.06453 1.20695,72.80843 0.97739,72.5436 0.76974,72.27072 0.58508,71.99054 0.42435,71.70389 0.28838,71.41164 0.17789,71.11465 0.09344,70.81392 0.03548,70.51044 0.00427,70.20515 0,69.89914 0.00427,69.59312 0.03548,69.28786 0.09344,68.98436 0.17789,68.68362 0.28838,68.38666 0.42435,68.09439 0.58508,67.80774 0.76974,67.52757 0.97739,67.2547 1.20695,66.98987 1.45726,66.73376 1.72708,66.487 2.01505,66.2501 2.3198,66.02356 2.63988,65.80771 2.97375,65.6029 3.31998,65.4093 3.67699,65.22707 4.0432,65.05621 4.41713,64.89679 4.79723,64.7486 5.18196,64.6115 5.56993,64.48523 5.95964,64.36946 6.34975,64.26381 6.73888,64.16779 7.12573,64.08089 7.50912,64.00256 7.88786,63.93213 8.26082,63.86891 8.62697,63.8122 8.9853,63.76117 l 0.34958,-0.04616 0.34,-0.04221 0.32958,-0.03913 0.31839,-0.03708 0.30655,-0.03604 0.29405,-0.03607 0.28097,-0.03724 0.26737,-0.03956 0.25328,-0.04308 0.23883,-0.04791 0.224,-0.05403 0.20887,-0.06154 0.19355,-0.07044 0.17804,-0.08079 0.1625,-0.09267 0.14693,-0.10608 0.13142,-0.12109 0.11612,-0.13768 0.10106,-0.15594 0.0864,-0.17585 0.07219,-0.19742 0.05854,-0.22066 0.04564,-0.24557 0.03356,-0.27209 0.02238,-0.30026 0.01235,-0.32998 0.0035,-0.36117 -0.004,-0.39382 -0.01,-0.42778 -0.01441,-0.46303 -0.01701,-0.49935 -0.01782,-0.53669 -0.01662,-0.5749 -0.01333,-0.61376 -0.0078,-0.65318 -9e-5,-0.69296 0.01007,-0.73286 0.0226,-0.77279 0.03764,-0.81245 0.05518,-0.85168 0.07525,-0.89031 0.09786,-0.92805 0.12298,-0.96477 0.15061,-1.00022 0.18064,-1.03423 0.21305,-1.06666 0.2478,-1.09724 0.28468,-1.1259 0.32372,-1.1524 0.36465,-1.17672 0.40754,-1.19865 0.45201,-1.2181 0.49807,-1.23506 0.54557,-1.24939 0.59427,-1.26108 0.64405,-1.2701 0.69476,-1.27646 0.74625,-1.28019 0.79835,-1.28125 0.85085,-1.27974 0.90378,-1.27569 0.95682,-1.26923 1.00992,-1.2604 1.06302,-1.24926 1.1159,-1.23598 1.16857,-1.22059 1.22088,-1.20328 1.27278,-1.1841 1.32419,-1.16313 1.37511,-1.14053 1.42538,-1.11637 1.47507,-1.0907 1.52406,-1.06362 1.57236,-1.03522 1.61989,-1.00551 1.66669,-0.97453 1.71261,-0.94231 1.75772,-0.90887 1.80188,-0.87419 1.8451,-0.83827 1.88722,-0.80108 1.9282,-0.76251 1.96802,-0.72262 2.00646,-0.68127 2.04341,-0.63844 2.07878,-0.59401 2.1124,-0.54798 2.14405,-0.50023 2.1736,-0.45073 2.20082,-0.39937 2.22553,-0.34616 2.24748,-0.29106 2.26647,-0.234 2.28227,-0.175 2.29463,-0.1141 L 84.0528,0 l 2.30821,0.01328 2.309,0.07963 2.3055,0.14764 2.29753,0.21712 2.28494,0.28798 2.26766,0.36 2.24548,0.433 2.21837,0.50673 2.18632,0.58095 2.14931,0.65542 2.10733,0.72986 2.06055,0.80394 2.00903,0.8774 1.95293,0.94992 1.89249,1.02116 1.82797,1.09088 1.75963,1.15874 1.68779,1.22441 1.61288,1.28766 1.53525,1.34824 1.45538,1.40584 1.37366,1.46029 1.29065,1.51141 1.20683,1.55903 1.12267,1.60296 1.03874,1.64319 0.95552,1.67962 0.87353,1.71223 0.79332,1.74102 0.71526,1.76609 0.63989,1.78746 0.5676,1.8053 0.49881,1.81974 0.43379,1.83096 0.37293,1.83925 0.31642,1.84472 0.26443,1.84774 0.21721,1.84854 0.17474,1.84742 0.13707,1.84466 0.10413,1.84061 0.0759,1.83556 0.0521,1.82978 0.0326,1.82361 0.0172,1.81729 0.005,1.81108 -0.003,1.80527 -0.009,1.79999 -0.0117,1.79548 -0.0129,1.79188 -0.0126,1.78932 -0.0114,1.78784"
       style="display:inline;fill:#0072b2;fill-opacity:0.15;fill-rule:nonzero;stroke:#0072b2;stroke-width:0.99628;stroke-linecap:butt;stroke-linejoin:miter;stroke-miterlimit:10;stroke-dasharray:none;stroke-opacity:1"
       transform="matrix(1.33333,0,0,-1.33333,262.199,204.679)"
       clip-path="url(#clipPath5)" />
    <path
       id="path6"
       d="m 22.4217,69.89914 c 0,1.10048 -0.89207,1.99256 -1.99255,1.99256 -1.10046,0 -1.99255,-0.89208 -1.99255,-1.99256 0,-1.10046 0.89209,-1.99255 1.99255,-1.99255 1.10048,0 1.99255,0.89209 1.99255,1.99255 z"
       style="fill:#0072b2;fill-opacity:1;fill-rule:nonzero;stroke:#0072b2;stroke-width:0.99628;stroke-linecap:butt;stroke-linejoin:miter;stroke-miterlimit:10;stroke-dasharray:none;stroke-opacity:1"
       transform="matrix(1.3333333,0,0,-1.3333333,262.19867,204.67867)" />
    <text
       x="0"
       y="0"
       id="text15"
       style="display:inline"><textPath
         style="font-style:normal;font-weight:normal;font-size:12px;text-align:center;text-anchor:start;fill:#000000;fill-opacity:1;stroke:none"
         xlink:href="#path4"
         startOffset="50%"
         dy="100"
         id="textPath15">605.16 px</textPath></text>
    <text
       x="0"
       y="0"
       id="text16"><textPath
         style="font-style:normal;font-weight:normal;font-size:12px;text-align:center;text-anchor:start;fill:#000000;fill-opacity:1;stroke:none"
         xlink:href="#path4"
         startOffset="50%"
         dy="10"
         id="textPath16">605.16 px</textPath></text>
    <text
       x="0"
       y="0"
       id="text17"><textPath
         style="font-style:normal;font-weight:normal;font-size:12px;text-align:center;text-anchor:middle;fill:#000000;fill-opacity:1;stroke:none"
         xlink:href="#path4"
         startOffset="50%"
         dy="10"
         id="textPath17">605.16 px</textPath></text>
  </g>
  <g
     id="g6"
     inkscape:groupmode="layer"
     inkscape:label="3">
    <path
       id="path7"
       d="m 139.77193,69.90363 0.007,1.21967 0.007,1.22068 0.008,1.22242 0.007,1.22489 0.005,1.22795 0.002,1.23157 -0.003,1.23552 -0.0101,1.23976 -0.0191,1.24406 -0.0305,1.24828 -0.0445,1.25224 -0.061,1.25566 -0.0803,1.25844 -0.10234,1.26032 -0.12718,1.26106 -0.15485,1.26055 -0.18529,1.25846 -0.21837,1.25473 -0.254,1.2491 -0.29209,1.24144 -0.33237,1.23157 -0.37471,1.21942 -0.41883,1.20483 -0.46453,1.18773 -0.51152,1.16809 -0.55952,1.14583 -0.60827,1.121 -0.65739,1.09354 -0.70667,1.06357 -0.75575,1.03108 -0.80438,0.99623 -0.85222,0.95906 -0.89899,0.91979 -0.94446,0.87843 -0.98832,0.8353 -1.03037,0.79048 -1.0704,0.74422 -1.10818,0.69664 -1.14357,0.64804 -1.17643,0.59855 -1.2066,0.54847 -1.23396,0.49789 -1.25857,0.44713 -1.28025,0.39634 -1.299,0.34569 -1.31488,0.29538 -1.32785,0.24561 -1.338,0.19644 -1.34536,0.14815 -1.35002,0.1007 -1.35207,0.0543 -1.35162,0.009 -1.34879,-0.035 -1.34366,-0.0778 -1.33641,-0.1194 -1.32718,-0.15961 -1.31605,-0.19856 -1.30319,-0.23615 -1.28873,-0.27246 -1.2728,-0.30748 -1.25548,-0.34126 -1.23695,-0.37385 -1.21727,-0.40525 -1.19655,-0.43553 -1.17491,-0.46477 -1.1524,-0.49297 -1.12911,-0.5202 -1.1051,-0.54648 -1.08042,-0.57187 -1.05513,-0.59639 -1.02926,-0.62002 -1.00284,-0.64285 -0.97597,-0.66483 -0.94856,-0.68596 -0.9207,-0.70622 -0.89246,-0.72562 -0.86373,-0.74408 -0.83468,-0.76156 -0.8052,-0.7781 -0.77541,-0.7935 -0.74528,-0.80778 L 74.5111,102.6825 73.82684,101.8498 73.1727,101.00667 72.55023,100.1544 71.95885,99.29457 71.39856,98.4287 70.86935,97.5584 70.37111,96.68536 69.90363,95.8113 69.46664,94.93796 69.05981,94.06714 68.68268,93.20067 68.3347,92.34036 68.01524,91.48802 67.72357,90.64546 67.4589,89.81447 67.22026,88.99675 67.00673,88.194 66.81717,87.4078 66.65047,86.63972 66.50537,85.8912 66.3806,85.16353 66.27483,84.45796 66.18665,83.7756 66.11462,83.11743 66.05731,82.48431 66.01326,81.87695 65.98094,81.29593 65.9589,80.74167 l -0.01322,-0.52719 -0.0059,-0.49997 5e-5,-0.47273 0.0046,-0.44562 0.0078,-0.4187 0.0098,-0.3922 0.01042,-0.36612 0.01,-0.34067 0.0084,-0.31587 0.0058,-0.29184 0.0023,-0.26866 -0.0021,-0.2464 -0.0072,-0.2251 L 65.97653,75.72575 65.95689,75.54013 65.93017,75.3726 65.89588,75.22208 65.85362,75.08739 65.80303,74.96742 65.74385,74.86104 65.67585,74.7671 65.5989,74.6845 65.51286,74.61214 65.4177,74.54892 65.31343,74.4938 65.20011,74.44576 65.0778,74.40378 64.94664,74.36691 64.80679,74.33423 64.65848,74.30482 64.5019,74.27783 64.33738,74.25244 64.1652,74.22783 l -0.1795,-0.02458 -0.18645,-0.0253 -0.19297,-0.0267 -0.19912,-0.02878 -0.2047,-0.0315 -0.20982,-0.03482 -0.21442,-0.03868 -0.21838,-0.04312 -0.22177,-0.04805 -0.2245,-0.05345 -0.22654,-0.05927 -0.22787,-0.0655 -0.22842,-0.0721 -0.22821,-0.07896 -0.22716,-0.08614 -0.22531,-0.09352 -0.22257,-0.10111 -0.21896,-0.10878 -0.21445,-0.11653 -0.20903,-0.12433 -0.20274,-0.13208 -0.19553,-0.13972 -0.18742,-0.14725 -0.17845,-0.15454 -0.16863,-0.16162 -0.15799,-0.16835 -0.14657,-0.17471 -0.13442,-0.18067 -0.1216,-0.18616 -0.10814,-0.19113 -0.09411,-0.19554 -0.07962,-0.19938 -0.0647,-0.20261 -0.04944,-0.20515 -0.03395,-0.20705 -0.01828,-0.20825 -0.0025,-0.20877 0.0025,-0.20878 0.01828,-0.20825 0.03395,-0.20704 0.04944,-0.20516 0.0647,-0.20259 0.07962,-0.19939 0.09411,-0.19554 0.10814,-0.19113 0.1216,-0.18617 0.13442,-0.18067 0.14657,-0.17471 0.15799,-0.16835 0.16863,-0.1616 0.17845,-0.15455 0.18742,-0.14724 0.19553,-0.13974 0.20274,-0.13208 0.20903,-0.12432 0.21445,-0.11654 0.21896,-0.10878 0.22257,-0.10109 0.22531,-0.09352 0.22716,-0.08614 0.22821,-0.07898 0.22842,-0.0721 0.22787,-0.06549 0.22654,-0.05928 0.2245,-0.05345 0.22177,-0.04805 0.21838,-0.04312 0.21442,-0.0387 0.20982,-0.03478 0.2047,-0.0315 0.19912,-0.02878 0.19297,-0.02672 0.18645,-0.0253 0.1795,-0.02458 0.17218,-0.02461 0.16452,-0.02539 0.15658,-0.02699 0.14831,-0.02941 0.13985,-0.03268 0.13116,-0.03687 0.12231,-0.04196 0.11332,-0.04806 0.10427,-0.0551 0.09516,-0.06324 0.08604,-0.07235 0.07695,-0.08261 0.068,-0.09394 0.05918,-0.10638 0.05059,-0.11995 0.04226,-0.13469 0.03429,-0.15053 0.02672,-0.16752 0.01964,-0.18564 0.01312,-0.20485 0.0072,-0.2251 0.0021,-0.24638 -0.0023,-0.26867 -0.0058,-0.29185 -0.0084,-0.31587 -0.01,-0.34065 -0.01042,-0.36613 -0.0098,-0.39219 -0.0078,-0.41871 -0.0046,-0.44562 -5e-5,-0.47274 0.0059,-0.49995 0.01322,-0.52719 0.02204,-0.55428 0.03232,-0.58101 0.04405,-0.60737 0.05731,-0.63312 0.07203,-0.65816 0.08818,-0.68236 0.10577,-0.70556 0.12477,-0.72768 0.1451,-0.74853 0.1667,-0.76809 0.18956,-0.78617 0.21353,-0.80277 0.23864,-0.8177 0.26467,-0.83101 0.29167,-0.84255 0.31946,-0.85235 0.34798,-0.86029 0.37713,-0.86649 0.40683,-0.87081 0.43699,-0.87334 0.46748,-0.87407 0.49824,-0.87305 0.52921,-0.87028 0.56029,-0.86588 0.59138,-0.85983 0.62247,-0.85225 0.65344,-0.84319 0.68426,-0.8327 0.71493,-0.82088 0.74528,-0.80778 0.77541,-0.7935 0.8052,-0.77808 0.83468,-0.76157 0.86373,-0.74408 0.89246,-0.72563 0.9207,-0.70622 0.94856,-0.68596 0.97597,-0.66483 1.00284,-0.64283 1.02926,-0.62003 1.05513,-0.59639 1.08042,-0.57187 1.1051,-0.54649 1.12911,-0.52019 1.1524,-0.49296 1.17491,-0.46479 1.19655,-0.43553 1.21727,-0.40526 1.23695,-0.37382 1.25548,-0.34126 1.2728,-0.30748 1.28873,-0.27246 1.30319,-0.23617 1.31605,-0.19855 1.32718,-0.15961 1.33641,-0.1194 1.34366,-0.07786 1.34879,-0.035 1.35162,0.0091 1.35207,0.05432 1.35002,0.10072 1.34536,0.14815 1.338,0.19642 1.32785,0.24561 1.31488,0.29539 1.299,0.34568 1.28025,0.39634 1.25857,0.44713 1.23396,0.49791 1.2066,0.54845 1.17643,0.59857 1.14357,0.64803 1.10818,0.69664 1.0704,0.74421 1.03037,0.7905 0.98832,0.83528 0.94446,0.87845 0.89899,0.91978 0.85222,0.95906 0.80438,0.99624 0.75575,1.03106 0.70667,1.06359 0.65739,1.09353 0.60827,1.12099 0.55952,1.14584 0.51152,1.16809 0.46453,1.18773 0.41883,1.20484 0.37471,1.2194 0.33237,1.23157 0.29209,1.24144 0.254,1.2491 0.21837,1.25473 0.18529,1.25848 0.15485,1.26053 0.12718,1.26106 0.10234,1.26034 0.0803,1.25843 0.061,1.25567 0.0445,1.25222 0.0305,1.24829 0.0191,1.24407 0.0101,1.23974 0.003,1.23554 -0.002,1.23155 -0.005,1.22795 -0.007,1.22488 -0.008,1.22245 -0.007,1.22067 -0.007,1.21967"
       style="display:inline;fill:#0072b2;fill-opacity:0.15;fill-rule:nonzero;stroke:#0072b2;stroke-width:0.99628;stroke-linecap:butt;stroke-linejoin:miter;stroke-miterlimit:10;stroke-dasharray:none;stroke-opacity:1"
       transform="matrix(1.33333,0,0,-1.33333,505.889,204.691)"
       clip-path="url(#clipPath8)" />
    <path
       id="path9"
       d="m 69.90363,139.77193 -1.21967,0.007 -1.22067,0.007 -1.22245,0.008 -1.22488,0.007 -1.22795,0.005 -1.23155,0.002 -1.23554,-0.003 -1.23974,-0.0101 -1.24407,-0.0191 -1.24829,-0.0305 -1.25222,-0.0445 -1.25567,-0.061 -1.25843,-0.0803 -1.26034,-0.10234 -1.26106,-0.12718 -1.26053,-0.15485 -1.25848,-0.18529 -1.25473,-0.21837 -1.2491,-0.254 -1.24144,-0.29209 -1.23157,-0.33237 -1.2194,-0.37471 -1.20484,-0.41883 -1.18773,-0.46453 -1.16809,-0.51152 -1.14584,-0.55952 -1.12099,-0.60827 -1.09353,-0.65739 -1.06359,-0.70667 -1.03106,-0.75575 -0.99624,-0.80438 -0.95906,-0.85222 -0.91978,-0.89899 -0.87845,-0.94446 -0.83528,-0.98832 -0.7905,-1.03037 -0.74421,-1.0704 -0.69664,-1.10818 -0.64803,-1.14357 -0.59857,-1.17643 -0.54845,-1.2066 -0.49791,-1.23396 -0.44713,-1.25857 -0.39634,-1.28025 -0.34568,-1.299 -0.29539,-1.31488 -0.24561,-1.32785 -0.19642,-1.338 -0.14815,-1.34536 -0.10072,-1.35002 -0.05432,-1.35207 -0.0091,-1.35162 0.035,-1.34879 0.07786,-1.34366 0.1194,-1.33641 0.15961,-1.32718 0.19855,-1.31605 0.23617,-1.30319 0.27246,-1.28873 0.30748,-1.2728 0.34126,-1.25548 0.37382,-1.23695 0.40526,-1.21727 0.43553,-1.19655 0.46479,-1.17491 0.49296,-1.1524 0.52019,-1.12911 0.54649,-1.1051 0.57187,-1.08042 0.59639,-1.05513 0.62003,-1.02926 0.64283,-1.00284 0.66483,-0.97597 0.68596,-0.94856 0.70622,-0.9207 0.72563,-0.89246 0.74408,-0.86373 0.76157,-0.83468 0.77808,-0.8052 0.7935,-0.77541 0.80778,-0.74528 0.82088,-0.71493 0.8327,-0.68426 0.84319,-0.65344 0.85225,-0.62247 0.85983,-0.59138 0.86588,-0.56029 0.87028,-0.52921 0.87305,-0.49824 0.87407,-0.46748 0.87334,-0.43699 0.87081,-0.40683 0.86649,-0.37713 0.86029,-0.34798 0.85235,-0.31946 0.84255,-0.29167 0.83101,-0.26467 0.8177,-0.23864 0.80277,-0.21353 0.78617,-0.18956 0.76809,-0.1667 0.74853,-0.1451 0.72768,-0.12477 0.70556,-0.10577 0.68236,-0.08818 0.65816,-0.07203 0.63312,-0.05731 0.60737,-0.04405 0.58101,-0.03232 0.55428,-0.02204 0.52719,-0.01322 0.49995,-0.0059 0.47274,5e-5 0.44562,0.0046 0.41871,0.0078 0.39219,0.0098 0.36613,0.01042 0.34065,0.01 0.31587,0.0084 0.29185,0.0058 0.26867,0.0023 0.24638,-0.0021 0.2251,-0.0072 0.20485,-0.01312 0.18564,-0.01964 0.16752,-0.02672 0.15053,-0.03429 0.13469,-0.04226 0.11995,-0.05059 0.10638,-0.05918 0.09394,-0.068 0.08261,-0.07695 0.07235,-0.08604 0.06324,-0.09516 0.0551,-0.10427 0.04806,-0.11332 0.04196,-0.12231 0.03687,-0.13116 0.03268,-0.13985 0.02941,-0.14831 0.02699,-0.15658 0.02539,-0.16452 0.02461,-0.17218 0.02458,-0.1795 0.0253,-0.18645 0.02672,-0.19297 0.02878,-0.19912 0.0315,-0.2047 0.03478,-0.20982 0.0387,-0.21442 0.04312,-0.21838 0.04805,-0.22177 0.05345,-0.2245 0.05928,-0.22654 0.06549,-0.22787 0.0721,-0.22842 0.07898,-0.22821 0.08614,-0.22716 0.09352,-0.22531 0.10109,-0.22257 0.10878,-0.21896 0.11654,-0.21445 0.12432,-0.20903 0.13208,-0.20274 0.13974,-0.19553 0.14724,-0.18742 0.15455,-0.17845 0.1616,-0.16863 0.16835,-0.15799 0.17471,-0.14657 0.18067,-0.13442 0.18617,-0.1216 0.19113,-0.10814 0.19554,-0.09411 0.19939,-0.07962 0.20259,-0.0647 0.20516,-0.04944 0.20704,-0.03395 0.20825,-0.01828 0.20878,-0.0025 0.20877,0.0025 0.20825,0.01828 0.20705,0.03395 0.20515,0.04944 0.20261,0.0647 0.19938,0.07962 0.19554,0.09411 0.19113,0.10814 0.18616,0.1216 0.18067,0.13442 0.17471,0.14657 0.16835,0.15799 0.16162,0.16863 0.15454,0.17845 0.14725,0.18742 0.13972,0.19553 0.13208,0.20274 0.12433,0.20903 0.11653,0.21445 0.10878,0.21896 0.10111,0.22257 0.09352,0.22531 0.08614,0.22716 0.07896,0.22821 0.0721,0.22842 0.0655,0.22787 0.05927,0.22654 0.05345,0.2245 0.04805,0.22177 0.04312,0.21838 0.03868,0.21442 0.03482,0.20982 0.0315,0.2047 0.02878,0.19912 0.0267,0.19297 0.0253,0.18645 0.02458,0.1795 0.02461,0.17218 0.02539,0.16452 0.02699,0.15658 0.02941,0.14831 0.03268,0.13985 0.03687,0.13116 0.04198,0.12231 0.04804,0.11332 0.05512,0.10427 0.06322,0.09516 0.07236,0.08604 0.0826,0.07695 0.09394,0.068 0.10638,0.05918 0.11997,0.05059 0.13469,0.04226 0.15052,0.03429 0.16753,0.02672 0.18562,0.01964 0.20485,0.01312 0.2251,0.0072 0.2464,0.0021 0.26866,-0.0023 0.29184,-0.0058 0.31587,-0.0084 0.34067,-0.01 0.36612,-0.01042 0.3922,-0.0098 0.4187,-0.0078 0.44562,-0.0046 0.47273,-5e-5 0.49997,0.0059 0.52719,0.01322 0.55426,0.02204 0.58102,0.03232 0.60736,0.04405 0.63312,0.05731 0.65817,0.07203 0.68236,0.08818 0.70557,0.10577 0.72767,0.12477 0.74852,0.1451 0.76808,0.1667 0.7862,0.18956 0.80275,0.21353 0.81772,0.23864 0.83099,0.26467 0.84256,0.29167 0.85234,0.31946 0.86031,0.34798 0.86647,0.37713 0.87082,0.40683 0.87334,0.43699 0.87406,0.46748 0.87304,0.49824 0.8703,0.52921 0.86587,0.56029 0.85983,0.59138 0.85227,0.62247 0.84317,0.65344 0.8327,0.68426 0.82088,0.71493 0.80778,0.74528 0.7935,0.77541 0.7781,0.8052 0.76156,0.83468 0.74408,0.86373 0.72562,0.89246 0.70622,0.9207 0.68596,0.94856 0.66483,0.97597 0.64285,1.00284 0.62002,1.02926 0.59639,1.05513 0.57187,1.08042 0.54648,1.1051 0.5202,1.12911 0.49297,1.1524 0.46477,1.17491 0.43553,1.19655 0.40525,1.21727 0.37385,1.23695 0.34126,1.25548 0.30748,1.2728 0.27246,1.28873 0.23615,1.30319 0.19856,1.31605 0.15961,1.32718 0.1194,1.33641 0.0778,1.34366 0.035,1.34879 -0.009,1.35162 -0.0543,1.35207 -0.1007,1.35002 -0.14815,1.34536 -0.19644,1.338 -0.24561,1.32785 -0.29538,1.31488 -0.34569,1.299 -0.39634,1.28025 -0.44713,1.25857 -0.49789,1.23396 -0.54847,1.2066 -0.59855,1.17643 -0.64804,1.14357 -0.69664,1.10818 -0.74422,1.0704 -0.79048,1.03037 -0.8353,0.98832 -0.87843,0.94446 -0.91979,0.89899 -0.95906,0.85222 -0.99623,0.80438 -1.03108,0.75575 -1.06357,0.70667 -1.09354,0.65739 -1.121,0.60827 -1.14583,0.55952 -1.16809,0.51152 -1.18773,0.46453 -1.20483,0.41883 -1.21942,0.37471 -1.23157,0.33237 -1.24144,0.29209 -1.2491,0.254 -1.25473,0.21837 -1.25846,0.18529 -1.26055,0.15485 -1.26106,0.12718 -1.26032,0.10234 -1.25844,0.0803 -1.25566,0.061 -1.25224,0.0445 -1.24828,0.0305 -1.24406,0.0191 -1.23976,0.0101 -1.23552,0.003 -1.23157,-0.002 -1.22795,-0.005 -1.22489,-0.007 -1.22242,-0.008 -1.22068,-0.007 -1.21967,-0.007"
       style="display:inline;fill:#d55e00;fill-opacity:0.15;fill-rule:nonzero;stroke:#d55e00;stroke-width:0.99628;stroke-linecap:butt;stroke-linejoin:miter;stroke-miterlimit:10;stroke-dasharray:none;stroke-opacity:1"
       transform="matrix(1.3333333,0,0,-1.3333333,505.88933,204.69067)"
       clip-path="url(#clipPath10)" />
    <path
       id="path11"
       d="M 0.03534,69.90363 0.02867,68.68396 0.02129,67.46329 0.01372,66.24084 0.00684,65.01596 0.00179,63.78801 0,62.55646 0.00316,61.32092 0.01321,60.08118 0.03233,58.83711 0.06285,57.58882 0.1073,56.3366 0.16827,55.08093 0.24854,53.8225 0.35086,52.56216 0.47804,51.3011 l 0.15485,-1.26053 0.18529,-1.25848 0.21838,-1.25473 0.254,-1.2491 0.2921,-1.24144 0.33235,-1.23157 0.37472,-1.2194 0.41883,-1.20484 0.46452,-1.18773 0.51152,-1.16809 0.55953,-1.14584 0.60826,-1.12099 0.65739,-1.09353 0.70668,-1.06359 0.75575,-1.03106 0.80439,-0.99624 0.8522,-0.95906 0.899,-0.91978 0.94446,-0.87845 0.98833,-0.83528 1.03035,-0.7905 1.0704,-0.74421 1.1082,-0.69664 1.14357,-0.64803 1.17642,-0.59857 1.20657,-0.54845 1.234,-0.49791 1.25856,-0.44713 1.28024,-0.39634 1.29901,-0.34568 1.31489,-0.29539 1.32784,-0.24561 1.338,-0.19642 1.34536,-0.14815 1.35003,-0.10072 1.35207,-0.05432 1.3516,-0.0091 1.34879,0.035 1.34366,0.07786 1.33642,0.1194 1.32718,0.15961 1.31606,0.19855 1.30318,0.23617 1.28874,0.27246 1.27278,0.30748 1.25549,0.34126 1.23696,0.37382 1.21727,0.40526 1.19653,0.43553 1.17493,0.46479 1.1524,0.49296 1.12911,0.52019 1.10508,0.54649 1.08043,0.57187 1.05512,0.59639 1.02927,0.62003 1.00285,0.64283 0.97596,0.66483 0.94854,0.68596 0.92073,0.70622 0.89244,0.72563 0.86375,0.74408 0.83466,0.76157 0.8052,0.77808 0.77541,0.7935 0.7453,0.80778 0.71492,0.82088 0.68426,0.8327 0.65345,0.84319 0.62245,0.85225 0.5914,0.85983 0.56027,0.86588 0.52922,0.87028 0.49825,0.87305 0.46747,0.87407 0.43697,0.87334 0.40685,0.87081 0.37712,0.86649 0.34799,0.86029 0.31946,0.85235 0.29166,0.84255 0.26469,0.83101 0.23862,0.8177 0.21355,0.80277 0.18954,0.78617 0.16672,0.76809 0.1451,0.74853 0.12474,0.72768 0.1058,0.70556 0.08818,0.68236 0.07201,0.65816 0.05731,0.63312 0.04405,0.60737 0.03233,0.58101 0.02204,0.55428 0.01323,0.52719 0.0059,0.49995 -6e-5,0.47274 -0.0046,0.44562 -0.0078,0.41871 -0.0098,0.39219 -0.01043,0.36613 -0.01,0.34065 -0.0084,0.31587 -0.0059,0.29185 -0.0023,0.26867 0.002,0.24638 0.0072,0.2251 0.0131,0.20485 0.01966,0.18564 0.0267,0.16752 0.0343,0.15053 0.04225,0.13469 0.0506,0.11995 0.05918,0.10638 0.06801,0.09394 0.07694,0.08261 0.08605,0.07235 0.09515,0.06324 0.10426,0.0551 0.11332,0.04806 0.12231,0.04196 0.13117,0.03687 0.13986,0.03268 0.14831,0.02941 0.15656,0.02699 0.16453,0.02539 0.17218,0.02461 0.17951,0.02458 0.18643,0.0253 0.19299,0.02672 0.1991,0.02878 0.2047,0.0315 0.20983,0.03478 0.2144,0.0387 0.2184,0.04312 0.22176,0.04805 0.2245,0.05345 0.22655,0.05928 0.22786,0.06549 0.22843,0.0721 0.2282,0.07898 0.22718,0.08614 0.22529,0.09352 0.22258,0.10109 0.21895,0.10878 0.21445,0.11654 0.20905,0.12432 0.20274,0.13208 0.19551,0.13974 0.18742,0.14724 0.17846,0.15455 0.16862,0.1616 0.15799,0.16835 0.14659,0.17471 0.13442,0.18067 0.12159,0.18617 0.10813,0.19113 0.09411,0.19554 0.07964,0.19939 0.0647,0.20259 0.04943,0.20516 0.03395,0.20704 0.01827,0.20825 0.0025,0.20878 -0.0025,0.20877 -0.01827,0.20825 -0.03395,0.20705 -0.04943,0.20515 -0.0647,0.20261 -0.07964,0.19938 -0.09411,0.19554 -0.10813,0.19113 -0.12159,0.18616 -0.13442,0.18067 -0.14659,0.17471 -0.15799,0.16835 -0.16862,0.16162 -0.17846,0.15454 -0.18742,0.14725 -0.19551,0.13972 -0.20274,0.13208 -0.20905,0.12433 -0.21445,0.11653 -0.21895,0.10878 -0.22258,0.10111 -0.22529,0.09352 -0.22718,0.08614 -0.2282,0.07896 -0.22843,0.0721 -0.22786,0.0655 -0.22655,0.05927 -0.2245,0.05345 -0.22176,0.04805 -0.2184,0.04312 -0.2144,0.03868 -0.20983,0.03482 -0.2047,0.0315 -0.1991,0.02878 -0.19299,0.0267 -0.18643,0.0253 -0.17951,0.02458 -0.17218,0.02461 -0.16453,0.02539 -0.15656,0.02699 -0.14831,0.02941 -0.13986,0.03268 -0.13117,0.03687 -0.12231,0.04198 -0.11332,0.04804 -0.10426,0.05512 -0.09515,0.06322 -0.08605,0.07236 -0.07694,0.0826 -0.06801,0.09394 -0.05918,0.10638 -0.0506,0.11997 -0.04225,0.13469 -0.0343,0.15052 -0.0267,0.16753 -0.01966,0.18562 -0.0131,0.20485 -0.0072,0.2251 -0.002,0.2464 0.0023,0.26866 0.0059,0.29184 0.0084,0.31587 0.01,0.34067 0.01043,0.36612 0.0098,0.3922 0.0078,0.4187 0.0046,0.44562 6e-5,0.47273 -0.0059,0.49997 -0.01323,0.52719 -0.02204,0.55426 -0.03233,0.58102 -0.04405,0.60736 -0.05731,0.63312 -0.07201,0.65817 -0.08818,0.68236 -0.1058,0.70557 -0.12474,0.72767 -0.1451,0.74852 -0.16672,0.76808 -0.18954,0.7862 -0.21355,0.80275 -0.23862,0.81772 -0.26469,0.83099 -0.29166,0.84256 -0.31946,0.85234 -0.34799,0.86031 -0.37712,0.86647 -0.40685,0.87082 -0.43697,0.87334 -0.46747,0.87406 -0.49825,0.87304 -0.52922,0.8703 -0.56027,0.86587 -0.5914,0.85983 -0.62245,0.85227 -0.65345,0.84317 -0.68426,0.8327 -0.71492,0.82088 -0.7453,0.80778 -0.77541,0.7935 -0.8052,0.7781 -0.83466,0.76156 -0.86375,0.74408 -0.89244,0.72562 -0.92073,0.70622 -0.94854,0.68596 -0.97596,0.66483 -1.00285,0.64285 -1.02927,0.62002 -1.05512,0.59639 -1.08043,0.57187 -1.10508,0.54648 -1.12911,0.5202 -1.1524,0.49297 -1.17493,0.46477 -1.19653,0.43553 -1.21727,0.40525 -1.23696,0.37385 -1.25549,0.34126 -1.27278,0.30748 -1.28874,0.27246 -1.30318,0.23615 -1.31606,0.19856 -1.32718,0.15961 -1.33642,0.1194 -1.34366,0.0778 -1.34879,0.035 -1.3516,-0.009 -1.35207,-0.0543 -1.35003,-0.1007 -1.34536,-0.14815 -1.338,-0.19644 -1.32784,-0.24561 -1.31489,-0.29538 -1.29901,-0.34569 -1.28024,-0.39634 -1.25856,-0.44713 -1.234,-0.49789 -1.20657,-0.54847 -1.17642,-0.59855 -1.14357,-0.64804 -1.1082,-0.69664 -1.0704,-0.74422 -1.03035,-0.79048 -0.98833,-0.8353 L 9.5278,109.11217 8.6288,108.19238 7.7766,107.23332 6.97221,106.23709 6.21646,105.20601 5.50978,104.14244 4.85239,103.0489 4.24413,101.9279 3.6846,100.78207 3.17308,99.61398 2.70856,98.42625 2.28973,97.22142 1.91501,96.002 1.58266,94.77043 1.29056,93.52899 1.03656,92.27989 0.81818,91.02516 0.63289,89.7667 0.47804,88.50615 0.35086,87.24509 0.24854,85.98477 0.16827,84.72633 0.1073,83.47067 0.06285,82.21843 0.03233,80.97015 0.01321,79.72609 0.00316,78.48633 0,77.25081 0.00179,76.01924 0.00684,74.79129 0.01372,73.5664 0.02129,72.34398 0.02867,71.1233 0.03534,69.90363"
       style="display:inline;fill:#009e73;fill-opacity:0.15;fill-rule:nonzero;stroke:#009e73;stroke-width:0.99628;stroke-linecap:butt;stroke-linejoin:miter;stroke-miterlimit:10;stroke-dasharray:none;stroke-opacity:1"
       transform="matrix(1.3333333,0,0,-1.3333333,505.88933,204.69067)"
       clip-path="url(#clipPath12)" />
    <path
       id="path13"
       d="M 69.90363,0.03534 71.1233,0.02867 72.34398,0.02129 73.5664,0.01372 74.79129,0.00684 76.01924,0.00179 77.25081,0 l 1.23552,0.00316 1.23976,0.01005 1.24406,0.01912 1.24828,0.03052 1.25224,0.04445 1.25566,0.06097 1.25844,0.08027 1.26032,0.10232 1.26106,0.12718 1.26055,0.15485 1.25846,0.18529 1.25473,0.21838 1.2491,0.254 1.24144,0.2921 1.23157,0.33235 1.21942,0.37472 1.20483,0.41883 1.18773,0.46452 1.16809,0.51152 1.14583,0.55953 1.121,0.60826 1.09354,0.65739 1.06357,0.70668 1.03108,0.75575 0.99623,0.80439 0.95906,0.8522 0.91979,0.899 0.87843,0.94446 0.8353,0.98833 0.79048,1.03035 0.74422,1.0704 0.69664,1.1082 0.64804,1.14357 0.59855,1.17642 0.54847,1.20657 0.49789,1.234 0.44713,1.25856 0.39634,1.28024 0.34569,1.29901 0.29538,1.31489 0.24561,1.32784 0.19644,1.338 0.14815,1.34536 0.1007,1.35003 0.0543,1.35207 0.009,1.3516 -0.035,1.34879 -0.0778,1.34366 -0.1194,1.33642 -0.15961,1.32718 -0.19856,1.31606 -0.23615,1.30318 -0.27246,1.28874 -0.30748,1.27278 -0.34126,1.25549 -0.37385,1.23696 -0.40525,1.21727 -0.43553,1.19653 -0.46477,1.17493 -0.49297,1.1524 -0.5202,1.12911 -0.54648,1.10508 -0.57187,1.08043 -0.59639,1.05512 -0.62002,1.02927 -0.64285,1.00285 -0.66483,0.97596 -0.68596,0.94854 -0.70622,0.92073 -0.72562,0.89244 -0.74408,0.86375 -0.76156,0.83466 -0.7781,0.8052 -0.7935,0.77541 -0.80778,0.7453 -0.82088,0.71492 -0.8327,0.68426 -0.84317,0.65345 -0.85227,0.62245 -0.85983,0.5914 -0.86587,0.56027 -0.8703,0.52922 -0.87304,0.49825 -0.87406,0.46747 -0.87334,0.43697 -0.87082,0.40685 -0.86647,0.37712 -0.86031,0.34799 -0.85234,0.31946 -0.84256,0.29166 -0.83099,0.26469 -0.81772,0.23862 -0.80275,0.21355 -0.7862,0.18954 -0.76808,0.16672 -0.74852,0.1451 -0.72767,0.12474 -0.70557,0.1058 -0.68236,0.08818 -0.65817,0.07201 -0.63312,0.05731 -0.60736,0.04405 -0.58102,0.03233 -0.55426,0.02204 -0.52719,0.01323 -0.49997,0.0059 -0.47273,-6e-5 -0.44562,-0.0046 -0.4187,-0.0078 -0.3922,-0.0098 -0.36612,-0.01043 -0.34067,-0.01 -0.31587,-0.0084 -0.29184,-0.0059 -0.26866,-0.0023 -0.2464,0.002 -0.2251,0.0072 -0.20485,0.0131 -0.18562,0.01966 -0.16753,0.0267 -0.15052,0.0343 -0.13469,0.04225 -0.11997,0.0506 -0.10638,0.05918 -0.09394,0.06801 -0.0826,0.07694 -0.07236,0.08605 -0.06322,0.09515 -0.05512,0.10426 -0.04804,0.11332 -0.04198,0.12231 -0.03687,0.13117 -0.03268,0.13986 -0.02941,0.14831 -0.02699,0.15656 -0.02539,0.16453 -0.02461,0.17218 -0.02458,0.17951 -0.0253,0.18643 -0.0267,0.19299 -0.02878,0.1991 -0.0315,0.2047 -0.03482,0.20983 -0.03868,0.2144 -0.04312,0.2184 -0.04805,0.22176 -0.05345,0.2245 -0.05927,0.22655 -0.0655,0.22786 -0.0721,0.22843 -0.07896,0.2282 -0.08614,0.22718 -0.09352,0.22529 -0.10111,0.22258 -0.10878,0.21895 -0.11653,0.21445 -0.12433,0.20905 -0.13208,0.20274 -0.13972,0.19551 -0.14725,0.18742 -0.15454,0.17846 -0.16162,0.16862 -0.16835,0.15799 -0.17471,0.14659 -0.18067,0.13442 -0.18616,0.12159 -0.19113,0.10813 -0.19554,0.09411 -0.19938,0.07964 -0.20261,0.0647 -0.20515,0.04943 -0.20705,0.03395 -0.20825,0.01827 -0.20877,0.0025 -0.20878,-0.0025 L 69.4866,81.8455 69.27956,81.81155 69.0744,81.76212 68.87181,81.69742 68.67242,81.61778 68.47688,81.52367 68.28575,81.41554 68.09958,81.29395 67.91891,81.15953 67.7442,81.01294 67.57585,80.85495 67.41425,80.68633 67.2597,80.50787 67.11246,80.32045 66.97272,80.12494 66.84064,79.9222 66.71632,79.71315 66.59978,79.4987 66.491,79.27975 66.38991,79.05717 66.29639,78.83188 66.21025,78.6047 66.13127,78.3765 66.05917,78.14807 65.99368,77.92021 65.9344,77.69366 65.88095,77.46916 65.8329,77.2474 65.78978,77.029 65.75108,76.8146 65.7163,76.60477 65.6848,76.40007 65.65602,76.20097 65.6293,76.00798 65.604,75.82155 65.57942,75.64204 65.55481,75.46986 65.52942,75.30533 65.50243,75.14877 65.47302,75.00046 65.44034,74.8606 65.40347,74.72943 65.36151,74.60712 65.31345,74.4938 l -0.0551,-0.10426 -0.06324,-0.09515 -0.07235,-0.08605 -0.08261,-0.07694 -0.09394,-0.06801 -0.10638,-0.05918 -0.11995,-0.0506 -0.13469,-0.04225 -0.15053,-0.0343 -0.16752,-0.0267 -0.18564,-0.01966 -0.20485,-0.0131 -0.2251,-0.0072 -0.24638,-0.002 -0.26867,0.0023 -0.29185,0.0059 -0.31587,0.0084 -0.34065,0.01 -0.36613,0.01043 -0.39219,0.0098 -0.41871,0.0078 -0.44562,0.0046 -0.47274,6e-5 -0.49995,-0.0059 L 59.0656,73.84836 58.51132,73.82632 57.93031,73.79399 57.32294,73.74994 56.68982,73.69263 56.03166,73.62062 55.3493,73.53244 54.64374,73.42664 53.91606,73.3019 53.16753,73.1568 52.39944,72.99008 51.61327,72.80054 50.8105,72.58699 49.9928,72.34837 49.16179,72.08368 48.31924,71.79202 47.46689,71.47256 46.6066,71.12457 45.74011,70.74745 44.8693,70.3406 43.99596,69.90363 43.12189,69.43616 42.24884,68.93791 41.37856,68.40869 40.51268,67.84842 39.65285,67.25702 38.8006,66.63457 37.95741,65.98112 37.12471,65.29686 36.30383,64.58194 35.49605,63.83664 34.70255,63.06123 33.92447,62.25603 33.1629,61.42137 32.41882,60.55762 31.69319,59.66518 30.98697,58.74445 30.30101,57.79591 29.63618,56.81995 28.99335,55.8171 28.37332,54.78783 27.77693,53.73271 27.20506,52.65228 26.65857,51.5472 26.13838,50.41809 25.64542,49.26569 25.18063,48.09076 24.7451,46.89423 24.33984,45.67696 23.96602,44.44 23.62476,43.18451 23.31728,41.91173 23.04482,40.62299 22.80865,39.31981 22.6101,38.00375 l -0.15961,-1.32718 -0.1194,-1.33642 -0.07786,-1.34366 -0.035,-1.34879 0.0091,-1.3516 0.05432,-1.35207 0.10072,-1.35003 0.14815,-1.34536 0.19642,-1.338 0.24561,-1.32784 0.29539,-1.31489 0.34568,-1.29901 0.39634,-1.28024 0.44713,-1.25856 0.49791,-1.234 0.54845,-1.20657 0.59857,-1.17642 0.64803,-1.14357 0.69664,-1.1082 0.74421,-1.0704 0.7905,-1.03035 0.83528,-0.98833 0.87845,-0.94446 0.91978,-0.899 0.95906,-0.8522 0.99624,-0.80439 1.03106,-0.75575 1.06359,-0.70668 1.09353,-0.65739 1.12099,-0.60826 1.14584,-0.55953 1.16809,-0.51152 1.18773,-0.46452 1.20484,-0.41883 1.2194,-0.37472 1.23157,-0.33235 1.24144,-0.2921 1.2491,-0.254 1.2547,-0.21838 L 50.04057,0.63289 51.3011,0.47804 52.56216,0.35086 53.8225,0.24854 55.08093,0.16827 56.3366,0.1073 57.58882,0.06285 58.83711,0.03233 60.08118,0.01321 61.32092,0.00316 62.55646,0 l 1.23155,0.00179 1.22795,0.00505 1.22488,0.00688 1.22245,0.00757 1.22067,0.00738 1.21967,0.00667"
       style="display:inline;fill:#e69f00;fill-opacity:0.15;fill-rule:nonzero;stroke:#e69f00;stroke-width:0.99628;stroke-linecap:butt;stroke-linejoin:miter;stroke-miterlimit:10;stroke-dasharray:none;stroke-opacity:1"
       transform="matrix(1.3333333,0,0,-1.3333333,505.88933,204.69067)"
       clip-path="url(#clipPath14)" />
    <path
       id="arrow_line"
       d="M 744.19578,85.927678 599.25682,111.483"
       style="display:inline;fill:none;stroke:#d9d9d9;stroke-width:1.41468;stroke-linecap:butt;stroke-linejoin:miter;stroke-miterlimit:10;stroke-dasharray:5.30513, 5.30513;stroke-dashoffset:0;stroke-opacity:0.5" />
    <path
       id="ds_1"
       d="m 694.42632,95.032286 c 0,-1.203888 -0.97592,-2.1798 -2.1798,-2.1798 -1.20389,0 -2.17981,0.975912 -2.17981,2.1798 0,1.20389 0.97592,2.179802 2.17981,2.179802 1.20388,0 2.1798,-0.975912 2.1798,-2.179802 z"
       style="display:inline;fill:#00507d;fill-opacity:1;fill-rule:nonzero;stroke:#0072b2;stroke-width:0.726605;stroke-linecap:butt;stroke-linejoin:miter;stroke-miterlimit:10;stroke-dasharray:none;stroke-opacity:0" />
    <path
       id="ds_2"
       d="m 647.30106,103.45552 c 0,-1.20388 -0.97591,-2.17979 -2.17979,-2.17979 -1.20389,0 -2.1798,0.97591 -2.1798,2.17979 0,1.2039 0.97591,2.1798 2.1798,2.1798 1.20388,0 2.17979,-0.9759 2.17979,-2.1798 z"
       style="display:inline;fill:#954200;fill-opacity:1;fill-rule:nonzero;stroke:#d55e00;stroke-width:0.726604;stroke-linecap:butt;stroke-linejoin:miter;stroke-miterlimit:10;stroke-dasharray:none;stroke-opacity:0" />
    <path
       id="ds_3"
       d="m 616.08278,109.05594 c 0,-1.20389 -0.97592,-2.17979 -2.17979,-2.17979 -1.20389,0 -2.1798,0.9759 -2.1798,2.17979 0,1.20389 0.97591,2.1798 2.1798,2.1798 1.20387,0 2.17979,-0.97591 2.17979,-2.1798 z"
       style="display:inline;fill:#006f50;fill-opacity:1;fill-rule:nonzero;stroke:#009e73;stroke-width:0.726604;stroke-linecap:butt;stroke-linejoin:miter;stroke-miterlimit:10;stroke-dasharray:none;stroke-opacity:0" />
    <path
       id="ds_4"
       d="m 625.40067,107.3396 c 0,-1.20387 -0.97592,-2.17979 -2.17979,-2.17979 -1.20389,0 -2.1798,0.97592 -2.1798,2.17979 0,1.20389 0.97591,2.17979 2.1798,2.17979 1.20387,0 2.17979,-0.9759 2.17979,-2.17979 z"
       style="display:inline;fill:#a16f00;fill-opacity:1;fill-rule:nonzero;stroke:#e69f00;stroke-width:0.726604;stroke-linecap:butt;stroke-linejoin:miter;stroke-miterlimit:10;stroke-dasharray:none;stroke-opacity:0" />
    <path
       id="path15"
       d="m 71.89618,69.90363 c 0,1.10047 -0.89208,1.99255 -1.99255,1.99255 -1.10047,0 -1.99256,-0.89208 -1.99256,-1.99255 0,-1.10047 0.89209,-1.99256 1.99256,-1.99256 1.10047,0 1.99255,0.89209 1.99255,1.99256 z"
       style="display:inline;fill:#0072b2;fill-opacity:1;fill-rule:nonzero;stroke:#0072b2;stroke-width:0.99628;stroke-linecap:butt;stroke-linejoin:miter;stroke-miterlimit:10;stroke-dasharray:none;stroke-opacity:1"
       transform="matrix(1.3333333,0,0,-1.3333333,505.88933,204.69067)" />
  </g>
</svg>
