<?xml version="1.0" encoding="UTF-8" standalone="no"?>
<!-- Created with Inkscape (http://www.inkscape.org/) -->

<svg
   version="1.1"
   id="svg1"
   width="872.14133"
   height="400.80298"
   viewBox="0 0 272.14134 140.80297"
   xmlns="http://www.w3.org/2000/svg"
   xmlns:svg="http://www.w3.org/2000/svg">
  <defs
     id="defs1">
    <clipPath
       clipPathUnits="userSpaceOnUse"
       id="clipPath16">
      <path
         d="m -13.98149,-13.98149 h 167.7695 v 167.7695 h -167.7695 z"
         transform="translate(3.3333333e-6)"
         id="path16" />
    </clipPath>
    <clipPath
       clipPathUnits="userSpaceOnUse"
       id="clipPath18">
      <path
         d="m -13.98149,-13.98149 h 167.7695 v 167.7695 h -167.7695 z"
         transform="translate(3.3333333e-6)"
         id="path18" />
    </clipPath>
    <clipPath
       clipPathUnits="userSpaceOnUse"
       id="clipPath20">
      <path
         d="m -13.98149,-13.98149 h 167.7695 v 167.7695 h -167.7695 z"
         transform="translate(3.3333333e-6)"
         id="path20" />
    </clipPath>
    <clipPath
       clipPathUnits="userSpaceOnUse"
       id="clipPath22">
      <path
         d="m -13.98149,-13.98149 h 167.7695 v 167.7695 h -167.7695 z"
         transform="translate(3.3333333e-6)"
         id="path22" />
    </clipPath>
  </defs>
  <g
     id="g14"
     transform="translate(-323.28818,-13.123834)">
    <path
       id="dir_ses_1"
       d="m 57.93712,70.1121 -0.0025,-0.20886 0.01323,-0.20868 0.02889,-0.2078 0.04437,-0.20623 0.0596,-0.20399 0.07445,-0.20113 0.08888,-0.1976 0.10281,-0.19351 0.11617,-0.18887 0.12892,-0.18372 0.14096,-0.1781 0.15225,-0.17207 0.16275,-0.16568 0.17247,-0.15896 0.18131,-0.15199 0.18927,-0.14483 0.19637,-0.13753 0.20254,-0.13013 0.20786,-0.12269 0.21224,-0.11528 0.21581,-0.10795 0.21845,-0.1007 0.22027,-0.09366 0.2213,-0.08679 0.22151,-0.08023 0.22099,-0.07393 0.21974,-0.06797 0.21778,-0.0624 0.21524,-0.05721 0.21203,-0.05247 0.20826,-0.04819 0.20396,-0.04444 0.19914,-0.04115 0.1939,-0.03846 0.18817,-0.03637 0.18208,-0.03485 0.1756,-0.03395 0.16878,-0.03378 0.16168,-0.03427 0.15427,-0.03548 0.14662,-0.03746 0.13873,-0.04022 0.13066,-0.0438 0.12244,-0.04826 0.11405,-0.0536 0.10557,-0.05989 0.09704,-0.0671 0.08844,-0.07531 0.07987,-0.08456 0.07138,-0.09486 0.06295,-0.10621 0.05468,-0.1187 0.04664,-0.1323 0.03883,-0.14698 0.03141,-0.16286 0.02434,-0.17983 0.01771,-0.19792 0.01169,-0.21713 0.0062,-0.23741 0.0015,-0.25871 -0.0025,-0.28101 -0.0056,-0.30428 -0.0078,-0.32836 -0.009,-0.35326 -0.0091,-0.37888 -0.008,-0.40507 -0.0058,-0.43179 -0.0022,-0.4589 0.0027,-0.48624 0.0089,-0.51374 0.01662,-0.54125 0.02574,-0.5686 0.03642,-0.59569 0.04849,-0.62234 0.06211,-0.64843 0.07724,-0.67379 0.09381,-0.69832 0.11182,-0.72186 0.13127,-0.74427 0.15208,-0.76542 0.17418,-0.78524 0.19754,-0.80357 0.22206,-0.82034 0.24771,-0.83547 0.27433,-0.84883 0.30189,-0.86046 0.33028,-0.87024 0.35939,-0.87815 0.38916,-0.88416 0.41946,-0.88832 0.45021,-0.89056 0.4813,-0.8909 0.51266,-0.88948 0.54419,-0.88619 0.57579,-0.88116 0.60741,-0.87442 0.63896,-0.8661 0.67038,-0.85612 0.70161,-0.84472 0.73259,-0.83187 0.76327,-0.81769 0.7936,-0.8022 0.82358,-0.78553 0.8531,-0.76775 0.88224,-0.74884 0.91086,-0.72894 0.93899,-0.70809 0.96661,-0.68626 0.99373,-0.66356 1.02022,-0.64001 1.04614,-0.61559 1.07145,-0.59029 1.0961,-0.56413 1.12001,-0.53712 1.1432,-0.5092 1.16559,-0.48038 1.1871,-0.45062 1.20769,-0.41985 1.22723,-0.38806 1.2457,-0.35521 1.26297,-0.32127 1.27893,-0.28618 1.2935,-0.24994 1.30652,-0.2125 1.3179,-0.17384 1.32755,-0.13396 1.33528,-0.09289 1.34099,-0.05059 1.34457,-0.0071 1.34589,0.03746 1.34485,0.08313 1.34131,0.12979 1.33522,0.17737 1.32647,0.22572 1.31497,0.27477 1.30074,0.32437 1.28366,0.37434 1.26375,0.42457 1.24107,0.4748 1.21558,0.52493 1.18736,0.57473 1.15645,0.624 1.12303,0.67252 1.08719,0.72014 1.04906,0.76658 1.00882,0.81173 0.96669,0.85534 0.92286,0.89723 0.87761,0.93725 0.83118,0.97526 0.78377,1.01108 0.73576,1.04461 0.68736,1.07575 0.63895,1.10445 0.59071,1.13058 0.54306,1.15416 0.4962,1.17522 0.45044,1.19366 0.40607,1.20968 0.36333,1.2232 0.32243,1.23439 0.28363,1.24339 0.24712,1.2502 0.21299,1.25512 0.18147,1.25825 0.1526,1.25975 0.12645,1.25982 0.1031,1.25872 0.0825,1.25656 0.0646,1.25361 0.0494,1.25008 0.0368,1.24613 0.0265,1.24197 0.0185,1.23779 0.0126,1.23378 0.008,1.23006 0.006,1.22676 0.005,1.22406 0.004,1.222 0.005,1.22064 0.006,1.22006 -0.006,1.22006 -0.005,1.22065 -0.004,1.22198 -0.005,1.22408 -0.006,1.22676 -0.008,1.23006 -0.0126,1.23377 -0.0185,1.2378 -0.0265,1.24196 -0.0368,1.24614 -0.0494,1.25007 -0.0646,1.25362 -0.0825,1.25656 -0.1031,1.25871 -0.12645,1.25982 -0.1526,1.25976 -0.18147,1.25824 -0.21299,1.25511 -0.24712,1.25021 -0.28363,1.2434 -0.32243,1.23437 -0.36333,1.22323 -0.40607,1.20965 -0.45044,1.19368 -0.4962,1.1752 -0.54306,1.15417 -0.59071,1.13059 -0.63895,1.10443 -0.68736,1.07576 -0.73576,1.04462 -0.78377,1.01106 -0.83118,0.97527 -0.87761,0.93725 -0.92286,0.89724 -0.96669,0.85534 -1.00882,0.81172 -1.04906,0.76659 -1.08719,0.72014 -1.12303,0.67251 -1.15645,0.624 -1.18736,0.57472 -1.21558,0.52495 -1.24107,0.47481 -1.26375,0.42456 -1.28366,0.37434 -1.30074,0.32437 -1.31497,0.27477 -1.32647,0.22572 -1.33522,0.17737 -1.34131,0.12979 -1.34485,0.0831 -1.34589,0.0375 -1.34457,-0.007 -1.34099,-0.0506 -1.33528,-0.0929 -1.32755,-0.13395 -1.3179,-0.17386 -1.30652,-0.21248 -1.2935,-0.24994 -1.27893,-0.28617 -1.26297,-0.3213 -1.2457,-0.3552 -1.22723,-0.38805 -1.20769,-0.41986 -1.1871,-0.45061 -1.16559,-0.48039 -1.1432,-0.50919 -1.12001,-0.53712 -1.0961,-0.56414 -1.07145,-0.5903 -1.04614,-0.61557 -1.02022,-0.64001 -0.99373,-0.66358 -0.96661,-0.68626 -0.93899,-0.70807 -0.91086,-0.72895 -0.88224,-0.74883 -0.8531,-0.76775 -0.82358,-0.78554 -0.7936,-0.8022 -0.76327,-0.81768 -0.73259,-0.83187 -0.70161,-0.84473 -0.67038,-0.85613 -0.63896,-0.86609 -0.60741,-0.87441 -0.57579,-0.88118 -0.54419,-0.88618 -0.51266,-0.88947 -0.4813,-0.89091 -0.45021,-0.89057 -0.41946,-0.8883 -0.389,-0.8843 -0.35939,-0.87816 -0.33028,-0.87024 -0.30189,-0.86045 -0.27433,-0.84885 -0.24771,-0.83545 -0.22206,-0.82034 -0.19754,-0.80358 -0.17418,-0.78523 -0.15208,-0.76543 -0.13127,-0.74426 -0.11182,-0.72186 -0.09381,-0.69832 -0.07724,-0.6738 -0.06211,-0.64843 -0.04849,-0.62233 -0.03642,-0.59569 -0.02574,-0.56861 -0.01662,-0.54124 -0.0089,-0.51376 -0.0027,-0.48624 0.0022,-0.45888 0.0058,-0.43179 0.008,-0.40508 0.0091,-0.37887 0.009,-0.35326 0.0078,-0.32837 0.0056,-0.30427 0.0025,-0.28101 -0.0015,-0.25873 -0.0062,-0.23741 L 65.80026,75.98615 65.78255,75.78822 65.75821,75.6084 65.7268,75.44554 65.68797,75.29855 65.64133,75.16624 65.58665,75.04755 65.5237,74.94133 65.45232,74.84648 65.37245,74.76192 65.28401,74.68661 65.18697,74.6195 65.0814,74.55963 64.96735,74.50603 64.84491,74.45776 64.71425,74.41397 64.57552,74.37373 64.4289,74.33629 64.27463,74.3008 64.11295,74.26654 63.94417,74.23276 63.76857,74.19879 63.58649,74.16396 63.39832,74.1276 63.20442,74.08913 63.00528,74.04796 62.80132,74.00354 62.59306,73.95535 62.38103,73.90288 62.16579,73.84567 61.94801,73.78326 61.72827,73.7153 61.50728,73.64137 61.28577,73.56114 61.06447,73.47435 60.8442,73.38069 60.62575,73.27997 60.40994,73.17204 60.1977,73.05676 59.98984,72.93407 59.7873,72.80394 59.59093,72.66641 59.40166,72.52158 59.22035,72.36957 59.04788,72.21062 58.88513,72.04495 58.73288,71.87288 58.59192,71.69478 58.463,71.51106 58.34683,71.32219 58.24402,71.12866 58.15514,70.93108 58.08069,70.72995 58.02109,70.52596 57.97672,70.31972 57.94783,70.11191 57.9346,69.90324 57.9371,69.69438"
       style="fill:#0072b2;fill-opacity:0.15;fill-rule:nonzero;stroke:#0072b2;stroke-width:0.99628;stroke-linecap:butt;stroke-linejoin:miter;stroke-miterlimit:10;stroke-dasharray:none;stroke-opacity:1"
       transform="matrix(1,0,0,-1,323.78633,153.42867)"
       clip-path="url(#clipPath16)" />
    <path
       id="dir_ses_2"
       d="m 69.69438,57.93712 0.20886,-0.0025 0.20867,0.01323 0.20781,0.02889 0.20624,0.04437 0.20399,0.0596 0.20113,0.07445 0.19758,0.08888 0.19353,0.10281 0.18887,0.11617 0.18372,0.12892 0.1781,0.14096 0.17207,0.15225 0.16567,0.16275 0.15895,0.17247 0.15201,0.18131 0.14483,0.18927 0.13753,0.19637 0.13013,0.20254 0.12269,0.20786 0.11528,0.21224 0.10793,0.21581 0.10072,0.21845 0.09366,0.22027 0.08679,0.2213 0.08023,0.22151 0.07393,0.22099 0.06796,0.21974 0.06241,0.21778 0.05721,0.21524 0.05247,0.21203 0.04819,0.20826 0.04442,0.20396 0.04117,0.19914 0.03847,0.1939 0.03636,0.18817 0.03483,0.18208 0.03397,0.1756 0.03378,0.16878 0.03426,0.16168 0.03549,0.15427 0.03744,0.14662 0.04024,0.13873 0.04379,0.13066 0.04827,0.12244 0.0536,0.11405 0.05987,0.10557 0.06711,0.09704 0.07531,0.08844 0.08456,0.07987 0.09485,0.07138 0.10622,0.06295 0.11869,0.05468 0.13231,0.04664 0.14699,0.03883 0.16286,0.03141 0.17982,0.02434 0.19793,0.01771 0.21711,0.01169 0.23741,0.0062 0.25873,0.0015 0.28101,-0.0025 0.30427,-0.0056 0.32837,-0.0078 0.35326,-0.009 0.37887,-0.0091 0.40508,-0.008 0.43179,-0.0058 0.45888,-0.0022 0.48624,0.0027 0.51376,0.0089 0.54124,0.01662 0.56861,0.02574 0.59569,0.03642 0.62233,0.04849 0.64843,0.06211 0.6738,0.07724 0.69832,0.09381 0.72186,0.11182 0.74426,0.13127 0.76543,0.15208 0.78523,0.17418 0.80358,0.19754 0.82034,0.22206 0.83545,0.24771 0.84885,0.27433 0.86045,0.30189 0.87024,0.33028 0.87816,0.35939 0.88416,0.38916 0.8883,0.41946 0.89057,0.45021 0.89091,0.4813 0.88947,0.51266 0.88618,0.54419 0.88118,0.57579 0.87441,0.60741 0.86609,0.63896 0.85613,0.67038 0.84473,0.70161 0.83187,0.73259 0.81768,0.76327 0.8022,0.7936 0.78554,0.82358 0.76775,0.8531 0.74883,0.88224 0.72895,0.91086 0.70807,0.93899 0.68626,0.96661 0.66358,0.99373 0.64001,1.02022 0.61557,1.04614 0.5903,1.07145 0.56414,1.0961 0.53712,1.12001 0.50919,1.1432 0.48039,1.16559 0.45061,1.1871 0.41986,1.20769 0.38805,1.22723 0.3552,1.2457 0.3213,1.26297 0.28617,1.27893 0.24994,1.2935 0.21248,1.30652 0.17386,1.3179 0.13395,1.32755 0.0929,1.33528 0.0506,1.34099 0.007,1.34457 -0.0375,1.34589 -0.0831,1.34485 -0.12979,1.34131 -0.17737,1.33522 -0.22572,1.32647 -0.27477,1.31497 -0.32437,1.30074 -0.37434,1.28366 -0.42456,1.26375 -0.47481,1.24107 -0.52495,1.21558 -0.57472,1.18736 -0.624,1.15645 -0.67251,1.12303 -0.72014,1.08719 -0.76659,1.04906 -0.81172,1.00882 -0.85534,0.96669 -0.89724,0.92286 -0.93725,0.87761 -0.97527,0.83118 -1.01106,0.78377 -1.04462,0.73576 -1.07576,0.68736 -1.10443,0.63895 -1.13059,0.59071 -1.15417,0.54306 -1.1752,0.4962 -1.19368,0.45044 -1.20965,0.40607 -1.22323,0.36333 -1.23437,0.32243 -1.2434,0.28363 -1.25021,0.24712 -1.25511,0.21299 -1.25824,0.18147 -1.25976,0.1526 -1.25982,0.12645 -1.25871,0.1031 -1.25656,0.0825 -1.25362,0.0646 -1.25007,0.0494 -1.24614,0.0368 -1.24196,0.0265 -1.2378,0.0185 -1.23377,0.0126 -1.23006,0.008 -1.22676,0.006 -1.22408,0.005 -1.22198,0.004 -1.22065,0.005 -1.22006,0.006 -1.22006,-0.006 -1.22064,-0.005 -1.222,-0.004 -1.22406,-0.005 -1.22676,-0.006 -1.23006,-0.008 -1.23378,-0.0126 -1.23779,-0.0185 -1.24197,-0.0265 -1.24613,-0.0368 -1.25008,-0.0494 -1.25361,-0.0646 -1.25656,-0.0825 -1.25872,-0.1031 -1.25982,-0.12645 -1.25975,-0.1526 -1.25825,-0.18147 -1.25512,-0.21299 -1.2502,-0.24712 -1.24339,-0.28363 -1.23439,-0.32243 -1.2232,-0.36333 -1.20968,-0.40607 -1.19366,-0.45044 -1.17522,-0.4962 -1.15416,-0.54306 -1.13058,-0.59071 -1.10445,-0.63895 -1.07575,-0.68736 -1.04461,-0.73576 -1.01108,-0.78377 -0.97526,-0.83118 -0.93725,-0.87761 -0.89723,-0.92286 -0.85534,-0.96669 -0.81173,-1.00882 -0.76658,-1.04906 -0.72014,-1.08719 -0.67252,-1.12303 -0.624,-1.15645 -0.57473,-1.18736 -0.52493,-1.21558 -0.4748,-1.24107 -0.42457,-1.26375 -0.37434,-1.28366 -0.32437,-1.30074 -0.27477,-1.31497 -0.22572,-1.32647 -0.17737,-1.33522 -0.12979,-1.34131 -0.08313,-1.34485 -0.03746,-1.34589 0.0071,-1.34457 0.05059,-1.34099 0.09289,-1.33528 0.13396,-1.32755 0.17384,-1.3179 0.2125,-1.30652 0.24994,-1.2935 0.28618,-1.27893 0.32127,-1.26297 0.35521,-1.2457 0.38806,-1.22723 0.41985,-1.20769 0.45062,-1.1871 0.48038,-1.16559 0.5092,-1.1432 0.53712,-1.12001 0.56413,-1.0961 0.59029,-1.07145 0.61559,-1.04614 0.64001,-1.02022 0.66356,-0.99373 0.68626,-0.96661 0.70809,-0.93899 0.72894,-0.91086 0.74884,-0.88224 0.76775,-0.8531 0.78553,-0.82358 0.8022,-0.7936 0.81769,-0.76327 0.83187,-0.73259 0.84472,-0.70161 0.85612,-0.67038 0.8661,-0.63896 0.87442,-0.60741 0.88116,-0.57579 0.88619,-0.54419 0.88948,-0.51266 0.8909,-0.4813 0.89056,-0.45021 0.88832,-0.41946 0.88416,-0.38916 0.87815,-0.35939 0.87024,-0.33028 0.86046,-0.30189 0.84883,-0.27433 0.83547,-0.24771 0.82034,-0.22206 0.80357,-0.19754 0.78524,-0.17418 0.76542,-0.15208 0.74427,-0.13127 0.72186,-0.11182 0.69832,-0.09381 0.67379,-0.07724 0.64843,-0.06211 0.62234,-0.04849 0.59569,-0.03642 0.5686,-0.02574 0.54125,-0.01662 0.51374,-0.0089 0.48624,-0.0027 0.4589,0.0022 0.43179,0.0058 0.40507,0.008 0.37888,0.0091 0.35326,0.009 0.32836,0.0078 0.30428,0.0056 0.28101,0.0025 0.25871,-0.0015 0.23741,-0.0062 0.21713,-0.01169 0.19792,-0.01771 0.17983,-0.02434 0.16286,-0.03141 0.14698,-0.03883 0.1323,-0.04664 0.1187,-0.05468 0.10621,-0.06295 0.09486,-0.07138 0.08456,-0.07987 0.07531,-0.08844 0.0671,-0.09704 0.05989,-0.10557 0.0536,-0.11405 0.04826,-0.12244 0.0438,-0.13066 0.04022,-0.13873 0.03746,-0.14662 0.03548,-0.15427 0.03427,-0.16168 0.03378,-0.16878 0.03395,-0.1756 0.03485,-0.18208 0.03637,-0.18817 0.03846,-0.1939 0.04115,-0.19914 0.04444,-0.20396 0.04819,-0.20826 0.05247,-0.21203 0.05721,-0.21524 0.0624,-0.21778 0.06797,-0.21974 0.07393,-0.22099 0.08023,-0.22151 0.08679,-0.2213 0.09366,-0.22027 0.1007,-0.21845 0.10795,-0.21581 0.11528,-0.21224 0.12269,-0.20786 0.13013,-0.20254 0.13753,-0.19637 0.14483,-0.18927 0.15199,-0.18131 0.15896,-0.17247 0.16568,-0.16275 0.17207,-0.15225 0.1781,-0.14096 0.18372,-0.12892 0.18887,-0.11617 0.19351,-0.10281 0.1976,-0.08888 0.20113,-0.07445 0.20399,-0.0596 0.20623,-0.04437 0.2078,-0.02889 0.20868,-0.01323 0.20886,0.0025"
       style="fill:#d55e00;fill-opacity:0.15;fill-rule:nonzero;stroke:#d55e00;stroke-width:0.99628;stroke-linecap:butt;stroke-linejoin:miter;stroke-miterlimit:10;stroke-dasharray:none;stroke-opacity:1"
       transform="matrix(1,0,0,-1,323.78633,153.42867)"
       clip-path="url(#clipPath18)" />
    <path
       id="dir_ses_3"
       d="m 81.86937,69.69438 0.0025,0.20886 -0.01325,0.20867 -0.02888,0.20781 -0.04437,0.20624 -0.05959,0.20399 -0.07445,0.20113 -0.08888,0.19758 -0.10281,0.19353 -0.11617,0.18887 -0.12892,0.18372 -0.14096,0.1781 -0.15225,0.17207 -0.16276,0.16567 -0.17246,0.15895 -0.18132,0.15201 -0.18926,0.14483 -0.19636,0.13753 -0.20256,0.13013 -0.20786,0.12269 -0.21225,0.11528 -0.21579,0.10793 -0.21844,0.10072 -0.22028,0.09366 -0.2213,0.08679 -0.22151,0.08023 -0.22099,0.07393 -0.21975,0.06796 -0.21778,0.06241 -0.21523,0.05721 -0.21204,0.05247 -0.20825,0.04819 -0.20396,0.04442 -0.19914,0.04117 -0.1939,0.03847 -0.18818,0.03636 -0.18207,0.03483 -0.1756,0.03397 -0.16879,0.03378 -0.16167,0.03426 -0.15426,0.03549 -0.14663,0.03744 -0.13873,0.04024 -0.13066,0.04379 -0.12244,0.04827 -0.11407,0.0536 -0.10557,0.05987 -0.09702,0.06711 -0.08844,0.07531 -0.07988,0.08456 -0.07137,0.09485 -0.06296,0.10622 -0.05467,0.11869 -0.04664,0.13231 -0.03884,0.14699 -0.0314,0.16286 -0.02434,0.17982 -0.01773,0.19793 -0.01169,0.21711 -0.0062,0.23741 -0.0015,0.25873 0.0025,0.28101 0.0056,0.30427 0.0078,0.32837 0.009,0.35326 0.0091,0.37887 0.008,0.40508 0.0058,0.43179 0.0022,0.45888 -0.0027,0.48624 -0.0089,0.51376 -0.01661,0.54124 -0.02576,0.56861 -0.03641,0.59569 -0.04849,0.62233 -0.06212,0.64843 -0.07722,0.6738 -0.09381,0.69832 -0.11182,0.72186 -0.13127,0.74426 -0.15209,0.76543 -0.17417,0.78523 -0.19754,0.80358 -0.22208,0.82034 -0.2477,0.83545 -0.27432,0.84885 -0.30189,0.86045 -0.33028,0.87024 -0.35939,0.87816 -0.38918,0.88416 -0.41945,0.8883 -0.45021,0.89057 -0.4813,0.89091 -0.51265,0.88947 -0.54419,0.88618 -0.5758,0.88118 -0.6074,0.87441 -0.63898,0.86609 -0.67036,0.85613 -0.70163,0.84473 -0.73258,0.83187 -0.76325,0.81768 -0.79362,0.8022 -0.82358,0.78554 -0.8531,0.76775 -0.88223,0.74883 -0.91086,0.72895 -0.93899,0.70807 -0.96662,0.68626 -0.99373,0.66358 -1.02021,0.64001 -1.04615,0.61557 -1.07145,0.5903 -1.09609,0.56414 -1.12001,0.53712 -1.1432,0.50919 -1.16559,0.48039 -1.18712,0.45061 -1.20767,0.41986 -1.22723,0.38805 -1.2457,0.3552 -1.26297,0.3213 -1.27895,0.28617 -1.29348,0.24994 -1.30652,0.21248 -1.3179,0.17386 -1.32755,0.13395 -1.33528,0.0929 -1.341,0.0506 -1.34456,0.007 -1.3459,-0.0375 -1.34484,-0.0831 -1.34132,-0.12979 -1.33522,-0.17737 -1.32646,-0.22572 -1.31498,-0.27477 -1.30073,-0.32437 -1.28366,-0.37434 -1.26375,-0.42456 -1.24108,-0.47481 -1.21559,-0.52495 -1.18734,-0.57472 -1.15647,-0.624 -1.12303,-0.67251 -1.08717,-0.72014 -1.04906,-0.76659 -1.00882,-0.81172 -0.9667,-0.85534 L 9.35875,109.22128 8.48114,108.28403 7.64998,107.30876 6.86621,106.2977 6.13045,105.25308 5.44307,104.17732 4.80414,103.07289 4.21342,101.9423 3.67036,100.78813 3.17416,99.61293 2.72371,98.41925 2.31766,97.2096 1.95433,95.98637 1.6319,94.752 1.34825,93.5086 1.10115,92.25839 0.88815,91.00328 0.70668,89.74504 0.5541,88.48528 0.42764,87.22546 0.32454,85.96675 0.24205,84.71019 0.17744,83.45657 0.12804,82.2065 0.0913,80.96036 0.0648,79.7184 0.04631,78.4806 0.03375,77.24683 0.02533,76.01677 0.01949,74.79001 0.01488,73.56593 0.01053,72.34395 0.00569,71.1233 0,69.90324 0.00569,68.68318 0.01053,67.46254 0.01488,66.24054 0.01949,65.01648 0.02533,63.78972 0.03375,62.55966 0.04631,61.32588 0.0648,60.08809 0.0913,58.84612 0.12804,57.59999 0.17744,56.34991 0.24205,55.0963 0.32454,53.83974 0.42764,52.58102 0.5541,51.3212 0.70668,50.06145 0.88815,48.8032 l 0.213,-1.25512 0.2471,-1.2502 0.28365,-1.24339 0.32243,-1.23439 0.36333,-1.2232 0.40605,-1.20968 0.45045,-1.19366 0.4962,-1.17522 0.54306,-1.15416 0.59072,-1.13058 0.63893,-1.10445 0.68738,-1.07575 0.73576,-1.04461 0.78377,-1.01108 0.83116,-0.97526 0.87761,-0.93725 0.92287,-0.89723 0.9667,-0.85534 1.00882,-0.81173 1.04906,-0.76658 1.08717,-0.72014 1.12303,-0.67252 1.15647,-0.624 1.18734,-0.57473 1.21559,-0.52493 1.24108,-0.4748 1.26375,-0.42457 1.28366,-0.37434 1.30073,-0.32437 1.31498,-0.27477 1.32646,-0.22572 1.33522,-0.17737 1.34132,-0.12979 1.34484,-0.08313 1.3459,-0.03746 1.34456,0.0071 1.341,0.05059 1.33528,0.09289 1.32755,0.13396 1.3179,0.17384 1.30652,0.2125 1.29348,0.24994 1.27895,0.28618 1.26297,0.32127 1.2457,0.35521 1.22723,0.38806 1.20767,0.41985 1.18712,0.45062 1.16559,0.48038 1.1432,0.5092 1.12001,0.53712 1.09609,0.56413 1.07145,0.59029 1.04615,0.61559 1.02021,0.64001 0.99373,0.66356 0.96662,0.68626 0.93899,0.70809 0.91086,0.72894 0.88223,0.74884 0.8531,0.76775 0.82358,0.78553 0.79362,0.8022 0.76325,0.81769 0.73258,0.83187 0.70163,0.84472 0.67036,0.85612 0.63898,0.8661 0.6074,0.87442 0.5758,0.88116 0.54419,0.88619 0.51265,0.88948 0.4813,0.8909 0.45021,0.89056 0.41945,0.88832 0.38918,0.88416 0.35939,0.87815 0.33028,0.87024 0.30189,0.86046 0.27432,0.84883 0.2477,0.83547 0.22208,0.82034 0.19754,0.80357 0.17417,0.78524 0.15209,0.76542 0.13127,0.74427 0.11182,0.72186 0.09381,0.69832 0.07722,0.67379 0.06212,0.64843 0.04849,0.62234 0.03641,0.59569 0.02576,0.5686 0.01661,0.54125 0.0089,0.51374 0.0027,0.48624 -0.0022,0.4589 -0.0058,0.43179 -0.008,0.40507 -0.0091,0.37888 -0.009,0.35326 -0.0078,0.32836 -0.0056,0.30428 -0.0025,0.28101 0.0015,0.25871 0.0062,0.23741 0.01169,0.21713 0.01773,0.19792 0.02434,0.17983 0.0314,0.16286 0.03884,0.14698 0.04664,0.1323 0.05467,0.1187 0.06296,0.10621 0.07137,0.09486 0.07988,0.08456 0.08844,0.07531 0.09702,0.0671 0.10557,0.05989 0.11407,0.0536 0.12244,0.04826 0.13066,0.0438 0.13873,0.04022 0.14663,0.03746 0.15426,0.03548 0.16167,0.03427 0.16879,0.03378 0.1756,0.03395 0.18207,0.03485 0.18818,0.03637 0.1939,0.03846 0.19914,0.04115 0.20396,0.04444 0.20825,0.04819 0.21204,0.05247 0.21523,0.05721 0.21778,0.0624 0.21975,0.06797 0.22099,0.07393 0.22151,0.08023 0.2213,0.08679 0.22028,0.09366 0.21844,0.1007 0.21579,0.10795 0.21225,0.11528 0.20786,0.12269 0.20256,0.13013 0.19636,0.13753 0.18926,0.14483 0.18132,0.15199 0.17246,0.15896 0.16276,0.16568 0.15225,0.17207 0.14096,0.1781 0.12892,0.18372 0.11617,0.18887 0.10281,0.19351 0.08888,0.1976 0.07445,0.20113 0.05959,0.20399 0.04437,0.20623 0.02888,0.2078 0.01325,0.20868 -0.0025,0.20886"
       style="fill:#009e73;fill-opacity:0.15;fill-rule:nonzero;stroke:#009e73;stroke-width:0.99628;stroke-linecap:butt;stroke-linejoin:miter;stroke-miterlimit:10;stroke-dasharray:none;stroke-opacity:1"
       transform="matrix(1,0,0,-1,323.78633,153.42867)"
       clip-path="url(#clipPath20)" />
    <path
       id="dir_ses_4"
       d="m 70.1121,81.86937 -0.20886,0.0025 -0.20868,-0.01325 -0.2078,-0.02888 L 69.28053,81.78539 69.07654,81.7258 68.87541,81.65135 68.67781,81.56247 68.4843,81.45966 68.29543,81.34349 68.11171,81.21457 67.93361,81.07361 67.76154,80.92136 67.59586,80.7586 67.4369,80.58614 67.28491,80.40482 67.14008,80.21556 67.00255,80.0192 66.87242,79.81664 66.74973,79.60878 66.63445,79.39653 66.5265,79.18074 66.4258,78.9623 l -0.09366,-0.22028 -0.08679,-0.2213 -0.08023,-0.22151 -0.07393,-0.22099 -0.06797,-0.21975 -0.0624,-0.21778 -0.05721,-0.21523 -0.05247,-0.21204 -0.04819,-0.20825 -0.04444,-0.20396 -0.04115,-0.19914 -0.03846,-0.1939 -0.03637,-0.18818 -0.03485,-0.18207 -0.03395,-0.1756 -0.03378,-0.16879 -0.03427,-0.16167 -0.03548,-0.15426 -0.03746,-0.14663 -0.04022,-0.13873 -0.0438,-0.13066 -0.04826,-0.12244 -0.0536,-0.11407 -0.05989,-0.10557 -0.0671,-0.09702 -0.07531,-0.08844 -0.08456,-0.07988 -0.09486,-0.07137 -0.10621,-0.06296 -0.1187,-0.05467 -0.1323,-0.04664 -0.14698,-0.03884 -0.16286,-0.0314 -0.17983,-0.02434 -0.19792,-0.01773 -0.21713,-0.01169 -0.23741,-0.0062 -0.25871,-0.0015 -0.28101,0.0025 -0.30428,0.0056 -0.32836,0.0078 -0.35326,0.009 -0.37888,0.0091 -0.40507,0.008 -0.43179,0.0058 -0.4589,0.0022 -0.48624,-0.0027 -0.51374,-0.0089 -0.54125,-0.01661 -0.5686,-0.02576 -0.59569,-0.03641 -0.62234,-0.04849 -0.64843,-0.06212 -0.67379,-0.07722 -0.69832,-0.09381 -0.72186,-0.11182 -0.74427,-0.13127 -0.76542,-0.15209 -0.78524,-0.17417 -0.80357,-0.19754 -0.82034,-0.22208 -0.83547,-0.2477 -0.84883,-0.27432 -0.86046,-0.30189 -0.87024,-0.33028 -0.87815,-0.35939 -0.88416,-0.38918 -0.88832,-0.41945 -0.89056,-0.45021 -0.8909,-0.4813 L 41.43987,68.90929 40.55368,68.3651 39.67252,67.7893 38.7981,67.1819 37.932,66.54292 37.07588,65.87256 36.23116,65.17093 35.39929,64.43835 34.5816,63.6751 33.7794,62.88148 32.99387,62.0579 32.22612,61.2048 31.47728,60.32257 30.74834,59.41171 30.04025,58.47272 29.35399,57.5061 l -0.66356,-0.99373 -0.64001,-1.02021 -0.61559,-1.04615 -0.59029,-1.07145 -0.56413,-1.09609 -0.53712,-1.12001 -0.5092,-1.1432 -0.48038,-1.16559 -0.45062,-1.18712 -0.41985,-1.20767 -0.38806,-1.22723 -0.35521,-1.2457 -0.32127,-1.26297 -0.28618,-1.27895 -0.24994,-1.29348 -0.2125,-1.30652 -0.17384,-1.3179 -0.13396,-1.32755 -0.09289,-1.33528 -0.05059,-1.341 -0.0071,-1.34456 0.03746,-1.3459 0.08313,-1.34484 0.12979,-1.34132 0.17737,-1.33522 0.22572,-1.32646 0.27477,-1.31498 0.32437,-1.30073 0.37434,-1.28366 0.42457,-1.26375 0.4748,-1.24108 0.52493,-1.21559 0.57473,-1.18734 0.624,-1.15647 0.67252,-1.12303 0.72014,-1.08717 0.76658,-1.04906 0.81173,-1.00882 0.85534,-0.9667 L 30.5852,9.35875 31.52245,8.48114 32.49771,7.64998 33.50879,6.86621 34.5534,6.13045 35.62915,5.44307 36.7336,4.80414 37.86418,4.21342 39.01834,3.67036 40.19356,3.17416 41.38722,2.72371 42.5969,2.31766 43.8201,1.95433 45.05449,1.6319 46.29788,1.34825 47.54808,1.10115 48.8032,0.88815 50.06145,0.70668 51.3212,0.5541 52.58102,0.42764 53.83974,0.32454 55.0963,0.24205 56.34991,0.17744 57.59999,0.12804 58.84612,0.0913 60.08809,0.0648 61.32588,0.04631 62.55966,0.03375 63.78972,0.02533 65.01648,0.01949 66.24054,0.01488 67.46254,0.01053 68.68318,0.00569 69.90324,0 l 1.22006,0.00569 1.22065,0.00484 1.22198,0.00435 1.22408,0.00461 1.22676,0.00584 1.23006,0.00842 1.23377,0.01256 1.2378,0.01849 1.24196,0.0265 1.24614,0.03674 1.25007,0.0494 1.25362,0.06461 1.25656,0.08249 1.25871,0.1031 1.25982,0.12646 1.25976,0.15258 1.25824,0.18147 1.25511,0.213 1.25021,0.2471 1.2434,0.28365 1.23437,0.32243 1.22323,0.36333 1.20965,0.40605 1.19368,0.45045 1.1752,0.4962 1.15417,0.54306 1.13059,0.59072 1.10443,0.63893 1.07576,0.68738 1.04462,0.73576 1.01106,0.78377 0.97527,0.83116 0.93725,0.87761 0.89724,0.92287 0.85534,0.9667 0.81172,1.00882 0.76659,1.04906 0.72014,1.08717 0.67251,1.12303 0.624,1.15647 0.57472,1.18734 0.52495,1.21559 0.47481,1.24108 0.42456,1.26375 0.37434,1.28366 0.32437,1.30073 0.27477,1.31498 0.22572,1.32646 0.17737,1.33522 0.12979,1.34132 0.0831,1.34484 0.0375,1.3459 -0.007,1.34456 -0.0506,1.341 -0.0929,1.33528 -0.13395,1.32755 -0.17386,1.3179 -0.21248,1.30652 -0.24994,1.29348 -0.28617,1.27895 -0.3213,1.26297 -0.3552,1.2457 -0.38805,1.22723 -0.41986,1.20767 -0.45061,1.18712 -0.48039,1.16559 -0.50919,1.1432 -0.53712,1.12001 -0.56414,1.09609 -0.5903,1.07145 -0.61557,1.04615 -0.64001,1.02021 -0.66358,0.99373 -0.68626,0.96662 -0.70807,0.93899 -0.72895,0.91086 -0.74883,0.88223 -0.76775,0.8531 -0.78554,0.82358 -0.8022,0.79362 -0.81768,0.76325 -0.83187,0.73258 -0.84473,0.70163 -0.85613,0.67036 -0.86609,0.63898 -0.87441,0.6074 -0.88118,0.5758 -0.88618,0.54419 -0.88947,0.51265 -0.89091,0.4813 -0.89057,0.45021 -0.8883,0.41945 -0.88416,0.38918 -0.87816,0.35939 -0.87024,0.33028 -0.86045,0.30189 -0.84885,0.27432 -0.83545,0.2477 -0.82034,0.22208 -0.80358,0.19754 -0.78523,0.17417 -0.76543,0.15209 -0.74426,0.13127 -0.72186,0.11182 -0.69832,0.09381 -0.6738,0.07722 -0.64843,0.06212 -0.62233,0.04849 -0.59569,0.03641 -0.56861,0.02576 -0.54124,0.01661 -0.51376,0.0089 -0.48624,0.0027 -0.45888,-0.0022 -0.43179,-0.0058 -0.40508,-0.008 -0.37887,-0.0091 -0.35326,-0.009 -0.32837,-0.0078 -0.30427,-0.0056 -0.28101,-0.0025 -0.25873,0.0015 -0.23741,0.0062 -0.21711,0.01169 -0.19793,0.01773 -0.17982,0.02434 -0.16286,0.0314 -0.14699,0.03884 -0.13231,0.04664 -0.11869,0.05467 -0.10622,0.06296 -0.09485,0.07137 -0.08456,0.07988 -0.07531,0.08844 -0.06711,0.09702 -0.05987,0.10557 -0.0536,0.11407 -0.04827,0.12244 -0.04379,0.13066 -0.04024,0.13873 -0.03744,0.14663 -0.03549,0.15426 -0.03426,0.16167 -0.03378,0.16879 -0.03397,0.1756 -0.03483,0.18207 -0.03636,0.18818 -0.03847,0.1939 -0.04117,0.19914 -0.04442,0.20396 -0.04819,0.20825 -0.05247,0.21204 -0.05721,0.21523 -0.06241,0.21778 -0.06796,0.21975 -0.07393,0.22099 -0.08023,0.22151 -0.08679,0.2213 -0.09366,0.22028 -0.10072,0.21844 -0.10793,0.21579 -0.11528,0.21225 -0.12269,0.20786 -0.13013,0.20256 -0.13753,0.19636 -0.14483,0.18926 -0.15201,0.18132 -0.15895,0.17246 -0.16567,0.16276 -0.17207,0.15225 -0.1781,0.14096 -0.18372,0.12892 -0.18887,0.11617 -0.19353,0.10281 -0.19758,0.08888 -0.20113,0.07445 -0.20399,0.05959 -0.20624,0.04437 -0.20781,0.02888 -0.20867,0.01325 -0.20886,-0.0025"
       style="fill:#e69f00;fill-opacity:0.15;fill-rule:nonzero;stroke:#e69f00;stroke-width:0.99628;stroke-linecap:butt;stroke-linejoin:miter;stroke-miterlimit:10;stroke-dasharray:none;stroke-opacity:1"
       transform="matrix(1,0,0,-1,323.78633,153.42867)"
       clip-path="url(#clipPath22)" />
    <path
       id="arrow_line"
      fill="none"
      stroke="#d9d9d9"
      stroke-width="0.79701"
      stroke-linecap="butt"
      stroke-linejoin="miter"
      stroke-miterlimit="10"
      stroke-dasharray="2.98883, 2.98883"
      stroke-dashoffset="0"
      stroke-opacity="0.5"
       d="M 502.48804,64.382967 393.61276,83.57962"
       />
    <path
       id="arrow_head"
       d="M -1.55415,2.0722 C -1.42464,1.29512 0,0.1295 0.38852,0 0,-0.1295 -1.42464,-1.29512 -1.55415,-2.0722"
       style="fill:none;stroke:#d9d9d9;stroke-width:0.6376;stroke-linecap:round;stroke-linejoin:round;stroke-miterlimit:10;stroke-dasharray:none;stroke-opacity:0.5"
       transform="matrix(-1.3130667,0.23150667,0.23150667,1.3130667,394.64075,83.340333)" />
    <path
       id="speaker"
       d="m 172.00069,97.33633 5.18995,-29.43452 6.81122,7.27089 -3.11396,17.6607 z m 12.00251,-22.16463 5.8869,1.038 -3.11395,17.6607 -5.88745,-1.03552"
       style="display:inline;fill:#cccccc;fill-opacity:1;fill-rule:nonzero;stroke:#000000;stroke-width:0.3985;stroke-linecap:butt;stroke-linejoin:miter;stroke-miterlimit:10;stroke-dasharray:none;stroke-opacity:1"
       transform="matrix(1.3333333,0,0,-1.3333333,309.80533,167.41067)" />
    <path
       id="ds_1"
       d="m 142.66728,82.2065 c 0,1.65071 -1.33813,2.98883 -2.98883,2.98883 -1.65071,0 -2.98883,-1.33812 -2.98883,-2.98883 0,-1.65071 1.33812,-2.98883 2.98883,-2.98883 1.6507,0 2.98883,1.33812 2.98883,2.98883 z"
       style="fill:#00507d;fill-opacity:1;fill-rule:nonzero;stroke:#0072b2;stroke-width:0.99628;stroke-linecap:butt;stroke-linejoin:miter;stroke-miterlimit:10;stroke-dasharray:none;stroke-opacity:0"
       transform="matrix(1,0,0,-1,323.78633,153.42867)" />
    <path
       id="ds_2"
       d="m 108.21371,76.1314 c 0,1.6507 -1.33813,2.98882 -2.98883,2.98882 -1.65071,0 -2.98883,-1.33812 -2.98883,-2.98882 0,-1.65072 1.33812,-2.98884 2.98883,-2.98884 1.6507,0 2.98883,1.33812 2.98883,2.98884 z"
       style="fill:#954200;fill-opacity:1;fill-rule:nonzero;stroke:#d55e00;stroke-width:0.99628;stroke-linecap:butt;stroke-linejoin:miter;stroke-miterlimit:10;stroke-dasharray:none;stroke-opacity:0"
       transform="matrix(1,0,0,-1,323.78633,153.42867)" />
    <path
       id="ds_3"
       d="m 84.06244,71.87288 c 0,1.65071 -1.33814,2.98883 -2.98883,2.98883 -1.65071,0 -2.98883,-1.33812 -2.98883,-2.98883 0,-1.65071 1.33812,-2.98883 2.98883,-2.98883 1.65069,0 2.98883,1.33812 2.98883,2.98883 z"
       style="fill:#006f50;fill-opacity:1;fill-rule:nonzero;stroke:#009e73;stroke-width:0.99628;stroke-linecap:butt;stroke-linejoin:miter;stroke-miterlimit:10;stroke-dasharray:none;stroke-opacity:0"
       transform="matrix(1,0,0,-1,323.78633,153.42867)" />
    <path
       id="ds_4"
       d="m 90.99496,73.09528 c 0,1.65069 -1.33813,2.98882 -2.98883,2.98882 -1.65071,0 -2.98883,-1.33813 -2.98883,-2.98882 0,-1.65072 1.33812,-2.98883 2.98883,-2.98883 1.6507,0 2.98883,1.33811 2.98883,2.98883 z"
       style="fill:#a16f00;fill-opacity:1;fill-rule:nonzero;stroke:#e69f00;stroke-width:0.99628;stroke-linecap:butt;stroke-linejoin:miter;stroke-miterlimit:10;stroke-dasharray:none;stroke-opacity:0"
       transform="matrix(1,0,0,-1,323.78633,153.42867)" />
    <path
       id="wave_1"
       d="m 167.62968,87.49677 c -2.6939,-3.84727 -1.75889,-9.15015 2.08837,-11.84406"
       style="fill:none;stroke:#d9d9d9;stroke-width:0.3985;stroke-linecap:butt;stroke-linejoin:miter;stroke-miterlimit:10;stroke-dasharray:none;stroke-opacity:1"
       transform="matrix(1.3333333,0,0,-1.3333333,309.80533,167.41067)" />
    <path
       id="wave_2"
       d="M 161.82468,91.56151 C 156.88583,84.50822 158.6,74.78632 165.65329,69.84749"
       style="fill:none;stroke:#d9d9d9;stroke-width:0.3985;stroke-linecap:butt;stroke-linejoin:miter;stroke-miterlimit:10;stroke-dasharray:none;stroke-opacity:1"
       transform="matrix(1.3333333,0,0,-1.3333333,309.80533,167.41067)" />
    <path
       id="wave_3"
       d="M 156.01968,95.62625 C 148.83597,85.36696 151.3293,71.22604 161.58861,64.04233"
       style="fill:none;stroke:#d9d9d9;stroke-width:0.3985;stroke-linecap:butt;stroke-linejoin:miter;stroke-miterlimit:10;stroke-dasharray:none;stroke-opacity:1"
       transform="matrix(1.3333333,0,0,-1.3333333,309.80533,167.41067)" />
    <path
       id="source_text"
       d="M 3.4810313,-3.8671719 2.2036875,-4.1718594 C 1.5825938,-4.3242031 1.195875,-4.8632656 1.195875,-5.4374844 c 0,-0.703125 0.5390625,-1.3007812 1.3125,-1.3007812 1.6640625,0 1.8867188,1.6289062 1.9453125,2.0742187 0.011719,0.058594 0.011719,0.1171875 0.1171875,0.1171875 0.1289063,0 0.1289063,-0.046875 0.1289063,-0.234375 v -2.0039062 c 0,-0.1640625 0,-0.234375 -0.1054688,-0.234375 -0.070312,0 -0.082031,0.011719 -0.1523437,0.1289062 l -0.3515625,0.5625 c -0.2929688,-0.28125 -0.703125,-0.6914062 -1.59375,-0.6914062 -1.1015625,0 -1.9335938,0.8789062 -1.9335938,1.9335937 0,0.8203125 0.5273438,1.546875 1.3007813,1.8164063 0.1054687,0.046875 0.6210937,0.1640625 1.3125,0.328125 0.2695312,0.070312 0.5742187,0.140625 0.84375,0.515625 0.2109375,0.2578125 0.3164062,0.5859375 0.3164062,0.9140625 0,0.70312498 -0.5039062,1.41796873 -1.3359375,1.41796873 -0.2929687,0 -1.0429687,-0.046875 -1.5703125,-0.5390625 C 0.8443125,-1.1601406 0.820875,-1.8046719 0.80915625,-2.1562344 c -0.0117188,-0.1054687 -0.09375,-0.1054687 -0.1171875,-0.1054687 -0.12890625,0 -0.12890625,0.070312 -0.12890625,0.2460937 v 1.99218753 c 0,0.17578125 0,0.24609375 0.10546875,0.24609375 0.0703125,0 0.0820313,-0.0234375 0.15234375,-0.12890625 0,-0.01171875 0.0234375,-0.046875 0.3515625,-0.57421875 0.3164063,0.33984375 0.9492188,0.703125 1.8398438,0.703125 1.1601562,0 1.9570312,-0.984375 1.9570312,-2.07421878 0,-0.9960937 -0.65625,-1.8164062 -1.4882812,-2.015625 z m 6.7412107,1.734375 c 0,-1.2773437 -0.9960936,-2.3320312 -2.1914061,-2.3320312 -1.2539062,0 -2.2148437,1.0898437 -2.2148437,2.3320312 0,1.28906253 1.03125,2.23828128 2.203125,2.23828128 1.2070312,0 2.2031248,-0.97265625 2.2031248,-2.23828128 z m -2.1914061,1.99218753 c -0.4335937,0 -0.8671875,-0.2109375 -1.1367187,-0.66796875 C 6.6363047,-1.2421719 6.6363047,-1.8515469 6.6363047,-2.2148281 c 0,-0.3867188 0,-0.9257813 0.2460937,-1.359375 0.2695313,-0.4570313 0.7382813,-0.6679688 1.1367188,-0.6679688 0.4335937,0 0.8671875,0.2226563 1.125,0.6445313 0.2578125,0.4335937 0.2578125,1.0078125 0.2578125,1.3828125 0,0.3632812 0,0.9023437 -0.2226563,1.33593748 -0.2226562,0.4453125 -0.65625,0.73828125 -1.1484375,0.73828125 z m 6.3750001,-0.64453125 v 0.890625 L 15.847242,1.5625e-5 V -0.30467187 c -0.703125,0 -0.785156,-0.0703125 -0.785156,-0.5625 V -4.4062344 l -1.453125,0.1171875 v 0.3046875 c 0.691406,0 0.773437,0.070312 0.773437,0.5625 v 1.7695313 c 0,0.86718748 -0.480468,1.54687498 -1.207031,1.54687498 -0.832031,0 -0.878906,-0.46875 -0.878906,-0.99609378 v -3.3046875 l -1.464844,0.1171875 v 0.3046875 c 0.785156,0 0.785156,0.035156 0.785156,0.9140625 v 1.5 c 0,0.77343753 0,1.67578128 1.511719,1.67578128 0.550781,0 0.996094,-0.26953125 1.277344,-0.890625 z m 3.310547,-2.51953128 v -1.1015625 l -1.382813,0.1171875 v 0.3046875 c 0.691407,0 0.773438,0.070312 0.773438,0.5625 v 2.66015628 c 0,0.45703125 -0.105469,0.45703125 -0.773438,0.45703125 V 1.5625e-5 c 0.386719,-0.011718745 0.855469,-0.035156245 1.136719,-0.035156245 0.398438,0 0.867188,0 1.265625,0.035156245 V -0.30467187 h -0.210937 c -0.738282,0 -0.761719,-0.1171875 -0.761719,-0.46875 V -2.3085781 c 0,-0.984375 0.421875,-1.875 1.183594,-1.875 0.05859,0 0.08203,0 0.105468,0.011719 -0.03516,0.011719 -0.234375,0.1289063 -0.234375,0.3867188 0,0.28125 0.210938,0.4335937 0.433594,0.4335937 0.175781,0 0.421875,-0.1289062 0.421875,-0.4453125 0,-0.3164062 -0.304687,-0.609375 -0.726562,-0.609375 -0.738282,0 -1.089844,0.6679688 -1.230469,1.1015622 z m 3.398437,1.1367188 c 0,-1.6289063 0.820313,-2.0507813 1.347657,-2.0507813 0.09375,0 0.714843,0.011719 1.066406,0.375 -0.410156,0.023437 -0.46875,0.328125 -0.46875,0.4570313 0,0.2578125 0.1875,0.4570312 0.457031,0.4570312 0.257813,0 0.457031,-0.1640625 0.457031,-0.46875 0,-0.6796875 -0.75,-1.0664062 -1.523437,-1.0664062 -1.242188,0 -2.15625,1.078125 -2.15625,2.3085937 0,1.27734378 0.984375,2.26171878 2.144531,2.26171878 1.335938,0 1.652344,-1.19531248 1.652344,-1.28906248 0,-0.1054688 -0.105469,-0.1054688 -0.128906,-0.1054688 -0.09375,0 -0.117188,0.046875 -0.128907,0.1054688 -0.292968,0.92578123 -0.9375,1.04296873 -1.3125,1.04296873 -0.527343,0 -1.40625,-0.421875 -1.40625,-2.02734373 z m 4.379883,-0.3398438 c 0.05859,-1.4882812 0.902344,-1.734375 1.242188,-1.734375 1.019531,0 1.125,1.3476563 1.125,1.734375 z m -0.01172,0.2109375 h 2.789063 c 0.210937,0 0.246094,0 0.246094,-0.2109375 0,-0.984375 -0.539063,-1.9570312 -1.78125,-1.9570312 -1.160157,0 -2.074219,1.03125 -2.074219,2.2734375 0,1.33593748 1.042969,2.29687498 2.191406,2.29687498 1.21875,0 1.664063,-1.1015625 1.664063,-1.28906248 0,-0.1054688 -0.08203,-0.1171875 -0.128907,-0.1171875 -0.09375,0 -0.117187,0.058594 -0.128906,0.140625 -0.351562,1.01953123 -1.253906,1.01953123 -1.347656,1.01953123 -0.503906,0 -0.902344,-0.29296875 -1.125,-0.66796875 C 25.482984,-1.2890469 25.482984,-1.9452969 25.482983,-2.2968594 Z m 0,0"
       style="fill:#d9d9d9;fill-opacity:1;fill-rule:nonzero;stroke:none"
       aria-label="Source"
       transform="matrix(1.3333333,0,0,1.3333333,557.40533,31.554667)" />
  </g>
  <path
     id="middle"
     d="m 72.994566,70.399428 c 0,-1.421876 -1.152622,-2.574498 -2.574494,-2.574498 -1.421882,0 -2.574514,1.152622 -2.574514,2.574498 0,1.421874 1.152632,2.57451 2.574514,2.57451 1.421872,0 2.574494,-1.152636 2.574494,-2.57451 z"
     style="opacity:0.599634;fill:#d9d9d9;fill-opacity:1;fill-rule:nonzero;stroke:#d9d9d9;stroke-width:1.28725;stroke-linecap:butt;stroke-linejoin:miter;stroke-miterlimit:10;stroke-dasharray:none;stroke-opacity:1" />
</svg>
