<?xml version="1.0" encoding="UTF-8" standalone="no"?>
<!-- Created with Inkscape (http://www.inkscape.org/) -->

<svg
   version="1.1"
   id="svg1"
   width="418.98801"
   height="231.884"
   viewBox="0 0 418.98801 231.884"
   xmlns="http://www.w3.org/2000/svg"
   xmlns:svg="http://www.w3.org/2000/svg">
  <defs
     id="defs1">
    <clipPath
       clipPathUnits="userSpaceOnUse"
       id="clipPath108">
      <path
         d="M 0,0 H 238.63214 V 114.61075 H 0 Z"
         transform="translate(2.5e-6)"
         id="path108" />
    </clipPath>
  </defs>
  <g
     id="g77"
     transform="translate(-391.168)">
    <path
       id="path78"
       d="M 0,0 V 114.61075 M 29.82901,0 V 114.61075 M 59.65804,0 V 114.61075 M 89.48705,0 V 114.61075 M 119.31607,0 V 114.61075 M 149.14508,0 V 114.61075 M 178.9741,0 V 114.61075 M 208.80312,0 V 114.61075 M 238.63214,0 v 114.61075"
       style="fill:none;stroke:#bfbfbf;stroke-width:0.3985;stroke-linecap:butt;stroke-linejoin:miter;stroke-miterlimit:10;stroke-dasharray:none;stroke-opacity:1"
       transform="matrix(1.3333333,0,0,-1.3333333,448.59733,188.13467)" />
    <path
       id="path79"
       d="M 0,0 H 238.63214 M 0,28.65268 H 238.63214 M 0,57.30537 H 238.63214 M 0,85.95805 H 238.63214 M 0,114.61075 h 238.63214"
       style="fill:none;stroke:#bfbfbf;stroke-width:0.3985;stroke-linecap:butt;stroke-linejoin:miter;stroke-miterlimit:10;stroke-dasharray:none;stroke-opacity:1"
       transform="matrix(1.3333333,0,0,-1.3333333,448.59733,188.13467)" />
    <path
       id="path80"
       d="M 0,0 V 4.25192 M 29.82901,0 V 4.25192 M 59.65804,0 V 4.25192 M 89.48705,0 V 4.25192 M 119.31607,0 V 4.25192 M 149.14508,0 V 4.25192 M 178.9741,0 V 4.25192 M 208.80312,0 V 4.25192 M 238.63214,0 V 4.25192 M 0,114.61075 v -4.25195 m 29.82901,4.25195 v -4.25195 m 29.82903,4.25195 v -4.25195 m 29.82901,4.25195 v -4.25195 m 29.82902,4.25195 v -4.25195 m 29.82901,4.25195 v -4.25195 m 29.82902,4.25195 v -4.25195 m 29.82902,4.25195 v -4.25195 m 29.82902,4.25195 v -4.25195"
       style="fill:none;stroke:#808080;stroke-width:0.19925;stroke-linecap:butt;stroke-linejoin:miter;stroke-miterlimit:10;stroke-dasharray:none;stroke-opacity:1"
       transform="matrix(1.3333333,0,0,-1.3333333,448.59733,188.13467)" />
    <path
       id="path81"
       d="M 0,0 H 4.25194 M 0,28.65268 H 4.25194 M 0,57.30537 H 4.25194 M 0,85.95805 H 4.25194 M 0,114.61075 h 4.25194"
       style="fill:none;stroke:#338eca;stroke-width:0.19925;stroke-linecap:butt;stroke-linejoin:miter;stroke-miterlimit:10;stroke-dasharray:none;stroke-opacity:1"
       transform="matrix(1.3333333,0,0,-1.3333333,448.59733,188.13467)" />
    <path
       id="path82"
       d="M 0,0 H 238.63214"
       style="fill:none;stroke:#c3c3c3;stroke-width:1.0959;stroke-linecap:butt;stroke-linejoin:miter;stroke-miterlimit:10;stroke-dasharray:none;stroke-opacity:1"
       transform="matrix(1.3333333,0,0,-1.3333333,448.59733,188.13467)" />
    <path
       id="path83"
       d="M 0,114.61075 H 238.63214"
       style="fill:none;stroke:#c3c3c3;stroke-width:1.0959;stroke-linecap:butt;stroke-linejoin:miter;stroke-miterlimit:10;stroke-dasharray:none;stroke-opacity:1"
       transform="matrix(1.3333333,0,0,-1.3333333,448.59733,188.13467)" />
    <path
       id="path84"
       d="M 0,0 V 114.61075"
       style="fill:none;stroke:#338eca;stroke-width:1.0959;stroke-linecap:butt;stroke-linejoin:miter;stroke-miterlimit:10;stroke-dasharray:none;stroke-opacity:1"
       transform="matrix(1.3333333,0,0,-1.3333333,448.59733,188.13467)" />
    <path
       id="path85"
       d="M 2.7553359,-1.8643672 V -2.4385859 H 0.10689844 v 0.5742187 z m 3.4951172,-4.5117187 c 0,-0.234375 0,-0.2578125 -0.234375,-0.2578125 -0.609375,0.6328125 -1.4882812,0.6328125 -1.8046875,0.6328125 v 0.3164062 c 0.1992188,0 0.7851563,0 1.3007813,-0.2578125 v 5.15625001 c 0,0.3515625 -0.035156,0.48046875 -0.9257813,0.48046875 H 4.2699844 v 0.3046875 c 0.3515625,-0.03515625 1.2070312,-0.03515625 1.6054687,-0.03515625 0.3984375,0 1.265625,0 1.6171875,0.03515625 v -0.3046875 H 7.1762344 c -0.9023438,0 -0.9257813,-0.1171875 -0.9257813,-0.48046875 z m 3.6796875,1.828125 c -0.46875,-0.3046875 -0.5039062,-0.6445313 -0.5039062,-0.8085938 0,-0.609375 0.6445316,-1.03125 1.3593746,-1.03125 0.726563,0 1.359375,0.515625 1.359375,1.2421875 0,0.5625 -0.386718,1.0429688 -0.984375,1.3945313 z m 1.4531254,0.9375 c 0.714843,-0.3632813 1.207031,-0.8789063 1.207031,-1.5351563 0,-0.9257812 -0.890625,-1.4882812 -1.792969,-1.4882812 -0.9960936,0 -1.8046874,0.7382812 -1.8046874,1.6640625 0,0.1757812 0.011719,0.6210937 0.4335938,1.0898437 0.1054687,0.1289063 0.4804687,0.375 0.7265626,0.5390625 -0.5742189,0.2929688 -1.4296876,0.84375 -1.4296876,1.8398438 0,1.05468746 1.0078125,1.72265621 2.0624996,1.72265621 1.125,0 2.0625,-0.83203125 2.0625,-1.89843751 0,-0.3515625 -0.105468,-0.8085937 -0.480468,-1.21875 -0.1875,-0.2109375 -0.351563,-0.3164062 -0.984375,-0.7148437 z m -0.996094,0.421875 1.21875,0.7734375 c 0.28125,0.1875 0.75,0.4921875 0.75,1.1015625 0,0.73828121 -0.75,1.25390621 -1.558594,1.25390621 -0.8671874,0 -1.5820311,-0.62109375 -1.5820311,-1.44140621 0,-0.5859375 0.3164062,-1.21875 1.1718751,-1.6875 z m 7.476562,0 c 0,-0.796875 -0.04687,-1.59375 -0.398437,-2.3320313 -0.457031,-0.9609375 -1.277344,-1.1132812 -1.6875,-1.1132812 -0.597656,0 -1.335938,0.2578125 -1.734375,1.1835937 -0.328125,0.6914063 -0.375,1.4648438 -0.375,2.2617188 0,0.75 0.04687,1.640625 0.445312,2.40234371 0.433594,0.80859375 1.160157,1.0078125 1.652344,1.0078125 0.539063,0 1.289063,-0.2109375 1.734375,-1.16015625 0.316406,-0.69140626 0.363281,-1.46484376 0.363281,-2.24999996 z m -2.097656,3.18749996 c -0.386719,0 -0.984375,-0.24609375 -1.160156,-1.20703126 -0.105469,-0.5976562 -0.105469,-1.5117187 -0.105469,-2.0976562 0,-0.6445313 0,-1.3007813 0.08203,-1.8398438 0.1875,-1.1835937 0.925782,-1.265625 1.183594,-1.265625 0.328125,0 0.984375,0.1757813 1.171875,1.1601563 0.09375,0.5625 0.09375,1.3125 0.09375,1.9453125 0,0.75 0,1.4179687 -0.105469,2.0625 -0.152343,0.93749996 -0.714843,1.24218746 -1.160156,1.24218746 z m 0,0"
       style="fill:#d9d9d9;fill-opacity:1;fill-rule:nonzero;stroke:none"
       aria-label="-180"
       transform="matrix(1.3333333,0,0,1.3333333,436.42,202.45067)" />
    <path
       id="path86"
       d="M 2.7547969,-1.8643672 V -2.4385859 H 0.10635938 v 0.5742187 z m 4.2216797,-1.3007812 v 0.3164062 c 0,2.33203126 -1.03125,2.78906251 -1.6171875,2.78906251 -0.1640625,0 -0.703125,-0.0234375 -0.9726563,-0.36328125 0.4335938,0 0.515625,-0.28125 0.515625,-0.45703125 0,-0.30468751 -0.234375,-0.45703121 -0.4570312,-0.45703121 -0.1640625,0 -0.4570313,0.09375 -0.4570313,0.48046871 0,0.66796875 0.5390625,1.078125 1.3828125,1.078125 1.2890625,0 2.4960938,-1.35937501 2.4960938,-3.50390621 0,-2.671875 -1.1367188,-3.3515625 -2.0273438,-3.3515625 -0.5507812,0 -1.03125,0.1757812 -1.4648437,0.6210937 -0.4101563,0.4570313 -0.6328125,0.8671875 -0.6328125,1.6171875 0,1.2421875 0.8789062,2.2265625 1.9921875,2.2265625 0.609375,0 1.0078125,-0.421875 1.2421875,-0.9960937 z m -1.2304688,0.7617187 c -0.1640625,0 -0.6210937,0 -0.9257812,-0.6210937 -0.1875,-0.375 -0.1875,-0.8671875 -0.1875,-1.359375 0,-0.5390625 0,-1.0078125 0.2109375,-1.3710938 0.2695312,-0.5039062 0.6445312,-0.6328125 0.9960937,-0.6328125 0.4570313,0 0.7851563,0.3398438 0.9609375,0.7851563 0.1171875,0.3164062 0.1523438,0.9492187 0.1523438,1.40625 0,0.8320312 -0.3398438,1.7929687 -1.2070313,1.7929687 z m 7.1367192,-0.7851562 c 0,-0.796875 -0.04687,-1.59375 -0.398438,-2.3320313 -0.457031,-0.9609375 -1.277344,-1.1132812 -1.6875,-1.1132812 -0.597656,0 -1.3359374,0.2578125 -1.7343749,1.1835937 -0.328125,0.6914063 -0.375,1.4648438 -0.375,2.2617188 0,0.75 0.046875,1.640625 0.4453125,2.40234371 0.4335937,0.80859375 1.1601564,1.0078125 1.6523434,1.0078125 0.539063,0 1.289063,-0.2109375 1.734375,-1.16015625 0.316407,-0.69140626 0.363282,-1.46484376 0.363282,-2.24999996 z m -2.097657,3.18749996 c -0.386718,0 -0.9843747,-0.24609375 -1.1601559,-1.20703126 -0.1054688,-0.5976562 -0.1054688,-1.5117187 -0.1054688,-2.0976562 0,-0.6445313 0,-1.3007813 0.082031,-1.8398438 0.1875,-1.1835937 0.9257817,-1.265625 1.1835937,-1.265625 0.328125,0 0.984375,0.1757813 1.171875,1.1601563 0.09375,0.5625 0.09375,1.3125 0.09375,1.9453125 0,0.75 0,1.4179687 -0.105468,2.0625 -0.152344,0.93749996 -0.714844,1.24218746 -1.160157,1.24218746 z m 0,0"
       style="fill:#d9d9d9;fill-opacity:1;fill-rule:nonzero;stroke:none"
       aria-label="-90"
       transform="matrix(1.3333333,0,0,1.3333333,519.284,202.45067)" />
    <path
       id="path87"
       d="m 4.5825156,-3.1885859 c 0,-0.796875 -0.046875,-1.59375 -0.3984375,-2.3320313 -0.4570312,-0.9609375 -1.2773437,-1.1132812 -1.6875,-1.1132812 -0.5976562,0 -1.3359375,0.2578125 -1.73437497,1.1835937 -0.328125,0.6914063 -0.375,1.4648438 -0.375,2.2617188 0,0.75 0.046875,1.640625 0.4453125,2.40234371 0.43359377,0.80859375 1.16015627,1.0078125 1.65234377,1.0078125 0.5390625,0 1.2890625,-0.2109375 1.734375,-1.16015625 C 4.5356406,-1.6299922 4.5825156,-2.4034297 4.5825156,-3.1885859 Z m -2.0976562,3.18749996 c -0.3867188,0 -0.984375,-0.24609375 -1.1601563,-1.20703126 -0.1054687,-0.5976562 -0.1054687,-1.5117187 -0.1054687,-2.0976562 0,-0.6445313 0,-1.3007813 0.082031,-1.8398438 0.1875,-1.1835937 0.9257813,-1.265625 1.1835938,-1.265625 0.328125,0 0.984375,0.1757813 1.171875,1.1601563 0.09375,0.5625 0.09375,1.3125 0.09375,1.9453125 0,0.75 0,1.4179687 -0.1054688,2.0625 -0.1523437,0.93749996 -0.7148437,1.24218746 -1.160156,1.24218746 z m 0,0"
       style="fill:#d9d9d9;fill-opacity:1;fill-rule:nonzero;stroke:none"
       aria-label="0"
       transform="matrix(1.3333333,0,0,1.3333333,604.36267,202.45067)" />
    <path
       id="path88"
       d="m 3.6547969,-3.1651484 v 0.3164062 c 0,2.33203126 -1.03125,2.78906251 -1.6171875,2.78906251 -0.1640625,0 -0.703125,-0.0234375 -0.9726563,-0.36328125 0.4335938,0 0.515625,-0.28125 0.515625,-0.45703125 0,-0.30468751 -0.234375,-0.45703121 -0.4570312,-0.45703121 -0.16406253,0 -0.45703128,0.09375 -0.45703128,0.48046871 0,0.66796875 0.53906248,1.078125 1.38281248,1.078125 1.2890625,0 2.4960938,-1.35937501 2.4960938,-3.50390621 0,-2.671875 -1.1367188,-3.3515625 -2.0273438,-3.3515625 -0.5507812,0 -1.03125,0.1757812 -1.4648437,0.6210937 -0.41015628,0.4570313 -0.63281253,0.8671875 -0.63281253,1.6171875 0,1.2421875 0.87890623,2.2265625 1.99218753,2.2265625 0.609375,0 1.0078125,-0.421875 1.2421875,-0.9960937 z m -1.2304688,0.7617187 c -0.1640625,0 -0.6210937,0 -0.9257812,-0.6210937 -0.1875,-0.375 -0.1875,-0.8671875 -0.1875,-1.359375 0,-0.5390625 0,-1.0078125 0.2109375,-1.3710938 0.2695312,-0.5039062 0.6445312,-0.6328125 0.9960937,-0.6328125 0.4570313,0 0.7851563,0.3398438 0.9609375,0.7851563 0.1171875,0.3164062 0.1523438,0.9492187 0.1523438,1.40625 0,0.8320312 -0.3398438,1.7929687 -1.2070313,1.7929687 z m 7.1396485,-0.7851562 c 0,-0.796875 -0.046875,-1.59375 -0.3984375,-2.3320313 -0.4570313,-0.9609375 -1.2773438,-1.1132812 -1.6875,-1.1132812 -0.5976563,0 -1.3359375,0.2578125 -1.734375,1.1835937 -0.328125,0.6914063 -0.375,1.4648438 -0.375,2.2617188 0,0.75 0.046875,1.640625 0.4453125,2.40234371 0.4335937,0.80859375 1.1601562,1.0078125 1.6523437,1.0078125 0.5390625,0 1.2890625,-0.2109375 1.734375,-1.16015625 C 9.5171016,-1.6299922 9.5639766,-2.4034297 9.5639766,-3.1885859 Z m -2.0976563,3.18749996 c -0.3867187,0 -0.984375,-0.24609375 -1.1601562,-1.20703126 -0.1054688,-0.5976562 -0.1054688,-1.5117187 -0.1054688,-2.0976562 0,-0.6445313 0,-1.3007813 0.082031,-1.8398438 0.1875,-1.1835937 0.9257812,-1.265625 1.1835937,-1.265625 0.328125,0 0.984375,0.1757813 1.171875,1.1601563 0.09375,0.5625 0.09375,1.3125 0.09375,1.9453125 0,0.75 0,1.4179687 -0.1054687,2.0625 -0.1523438,0.93749996 -0.7148438,1.24218746 -1.160156,1.24218746 z m 0,0"
       style="fill:#d9d9d9;fill-opacity:1;fill-rule:nonzero;stroke:none"
       aria-label="90"
       transform="matrix(1.3333333,0,0,1.3333333,680.584,202.45067)" />
    <path
       id="path89"
       d="m 2.9282266,-6.3760859 c 0,-0.234375 0,-0.2578125 -0.234375,-0.2578125 -0.609375,0.6328125 -1.4882813,0.6328125 -1.80468754,0.6328125 v 0.3164062 c 0.19921874,0 0.78515624,0 1.30078124,-0.2578125 v 5.15625001 c 0,0.3515625 -0.035156,0.48046875 -0.9257812,0.48046875 H 0.94775781 v 0.3046875 C 1.2993203,-0.03624219 2.1547891,-0.03624219 2.5532266,-0.03624219 c 0.3984375,0 1.265625,0 1.6171875,0.03515625 v -0.3046875 H 3.8540078 c -0.9023437,0 -0.9257812,-0.1171875 -0.9257812,-0.48046875 z m 3.6826172,1.828125 c -0.46875,-0.3046875 -0.5039063,-0.6445313 -0.5039063,-0.8085938 0,-0.609375 0.6445313,-1.03125 1.359375,-1.03125 0.7265625,0 1.359375,0.515625 1.359375,1.2421875 0,0.5625 -0.3867187,1.0429688 -0.984375,1.3945313 z m 1.453125,0.9375 C 8.7788125,-3.9737422 9.271,-4.4893672 9.271,-5.1456172 c 0,-0.9257812 -0.890625,-1.4882812 -1.7929687,-1.4882812 -0.9960938,0 -1.8046875,0.7382812 -1.8046875,1.6640625 0,0.1757812 0.011719,0.6210937 0.4335937,1.0898437 0.1054688,0.1289063 0.4804688,0.375 0.7265625,0.5390625 -0.5742187,0.2929688 -1.4296875,0.84375 -1.4296875,1.8398438 0,1.05468746 1.0078125,1.72265621 2.0625,1.72265621 1.125,0 2.0625,-0.83203125 2.0625,-1.89843751 0,-0.3515625 -0.1054687,-0.8085937 -0.4804687,-1.21875 -0.1875,-0.2109375 -0.3515625,-0.3164062 -0.984375,-0.7148437 z m -0.9960938,0.421875 1.21875,0.7734375 c 0.28125,0.1875 0.75,0.4921875 0.75,1.1015625 0,0.73828121 -0.75,1.25390621 -1.5585937,1.25390621 -0.8671875,0 -1.5820313,-0.62109375 -1.5820313,-1.44140621 0,-0.5859375 0.3164063,-1.21875 1.171875,-1.6875 z m 7.476563,0 c 0,-0.796875 -0.04687,-1.59375 -0.398438,-2.3320313 -0.457031,-0.9609375 -1.277344,-1.1132812 -1.6875,-1.1132812 -0.597656,0 -1.335937,0.2578125 -1.734375,1.1835937 -0.328125,0.6914063 -0.375,1.4648438 -0.375,2.2617188 0,0.75 0.04687,1.640625 0.445313,2.40234371 0.433593,0.80859375 1.160156,1.0078125 1.652343,1.0078125 0.539063,0 1.289063,-0.2109375 1.734375,-1.16015625 0.316407,-0.69140626 0.363282,-1.46484376 0.363282,-2.24999996 z m -2.097657,3.18749996 c -0.386718,0 -0.984375,-0.24609375 -1.160156,-1.20703126 -0.105469,-0.5976562 -0.105469,-1.5117187 -0.105469,-2.0976562 0,-0.6445313 0,-1.3007813 0.08203,-1.8398438 0.1875,-1.1835937 0.925781,-1.265625 1.183593,-1.265625 0.328125,0 0.984375,0.1757813 1.171875,1.1601563 0.09375,0.5625 0.09375,1.3125 0.09375,1.9453125 0,0.75 0,1.4179687 -0.105468,2.0625 -0.152344,0.93749996 -0.714844,1.24218746 -1.160157,1.24218746 z m 0,0"
       style="fill:#d9d9d9;fill-opacity:1;fill-rule:nonzero;stroke:none"
       aria-label="180"
       transform="matrix(1.3333333,0,0,1.3333333,756.80667,202.45067)" />
    <g
       id="g89"
       aria-label="1.4"
       transform="matrix(1.3333333,0,0,1.3333333,425.868,192.41467)">
      <path
         id="path90"
         d="m 2.9291016,-6.3754531 c 0,-0.234375 0,-0.2578125 -0.234375,-0.2578125 -0.609375,0.6328125 -1.4882813,0.6328125 -1.80468754,0.6328125 v 0.3164062 c 0.19921874,0 0.78515624,0 1.30078124,-0.2578125 v 5.15625003 c 0,0.3515625 -0.035156,0.48046875 -0.9257812,0.48046875 H 0.94863281 V -4.53125e-4 C 1.3001953,-0.03560937 2.1556641,-0.03560937 2.5541016,-0.03560937 c 0.3984375,0 1.265625,0 1.6171875,0.035156245 V -0.30514062 H 3.8548828 c -0.9023437,0 -0.9257812,-0.1171875 -0.9257812,-0.48046875 z m 0,0"
         style="fill:#338eca;fill-opacity:1;fill-rule:nonzero;stroke:none" />
      <path
         id="path91"
         d="m 6.8900391,-0.52779687 c 0,-0.29296875 -0.234375,-0.52734373 -0.5273438,-0.52734373 -0.28125,0 -0.5273437,0.23437498 -0.5273437,0.52734373 0,0.29296875 0.2460937,0.527343745 0.5273437,0.527343745 0.2929688,0 0.5273438,-0.234374995 0.5273438,-0.527343745 z m 0,0"
         style="fill:#338eca;fill-opacity:1;fill-rule:nonzero;stroke:none" />
      <path
         id="path92"
         d="m 10.678125,-1.6410781 v 0.86718748 c 0,0.3515625 -0.02344,0.46875 -0.7617188,0.46875 H 9.7054687 V -4.53125e-4 C 10.115625,-0.03560937 10.642969,-0.03560937 11.053125,-0.03560937 c 0.421875,0 0.949219,0 1.359375,0.035156245 V -0.30514062 h -0.210938 c -0.738281,0 -0.761718,-0.1171875 -0.761718,-0.46875 V -1.6410781 h 0.996093 v -0.3164063 h -0.996093 v -4.5234375 c 0,-0.1992187 0,-0.2578125 -0.152344,-0.2578125 -0.09375,0 -0.117188,0 -0.199219,0.1171875 l -3.0585935,4.6640625 v 0.3164063 z m 0.05859,-0.3164063 H 8.3109375 l 2.4257815,-3.7148437 z m 0,0"
         style="fill:#338eca;fill-opacity:1;fill-rule:nonzero;stroke:none" />
    </g>
    <g
       id="g92"
       aria-label="1.6"
       transform="matrix(1.3333333,0,0,1.3333333,425.868,154.212)">
      <path
         id="path93"
         d="m 2.9291016,-6.3757969 c 0,-0.234375 0,-0.2578125 -0.234375,-0.2578125 -0.609375,0.6328125 -1.4882813,0.6328125 -1.80468754,0.6328125 v 0.3164063 c 0.19921874,0 0.78515624,0 1.30078124,-0.2578125 v 5.15624998 c 0,0.3515625 -0.035156,0.48046875 -0.9257812,0.48046875 H 0.94863281 V -7.96875e-4 C 1.3001953,-0.03595312 2.1556641,-0.03595312 2.5541016,-0.03595312 c 0.3984375,0 1.265625,0 1.6171875,0.035156245 V -0.30548437 H 3.8548828 c -0.9023437,0 -0.9257812,-0.1171875 -0.9257812,-0.48046875 z m 0,0"
         style="fill:#338eca;fill-opacity:1;fill-rule:nonzero;stroke:none" />
      <path
         id="path94"
         d="m 6.8900391,-0.52814062 c 0,-0.29296875 -0.234375,-0.52734378 -0.5273438,-0.52734378 -0.28125,0 -0.5273437,0.23437503 -0.5273437,0.52734378 0,0.29296875 0.2460937,0.527343745 0.5273437,0.527343745 0.2929688,0 0.5273438,-0.234374995 0.5273438,-0.527343745 z m 0,0"
         style="fill:#338eca;fill-opacity:1;fill-rule:nonzero;stroke:none" />
      <path
         id="path95"
         d="m 9.0609375,-3.2703281 v -0.234375 c 0,-2.5195313 1.2421875,-2.8828125 1.7460935,-2.8828125 0.234375,0 0.65625,0.058594 0.878906,0.3984375 -0.152343,0 -0.550781,0 -0.550781,0.4453125 0,0.3164062 0.234375,0.4570312 0.457031,0.4570312 0.164063,0 0.457032,-0.082031 0.457032,-0.46875 0,-0.5976562 -0.433594,-1.078125 -1.265625,-1.078125 -1.277344,0 -2.6132815,1.2890625 -2.6132815,3.4804688 0,2.66015623 1.1484375,3.37499998 2.0742185,3.37499998 1.113281,0 2.050781,-0.9375 2.050781,-2.24999998 0,-1.265625 -0.878906,-2.2265625 -1.992187,-2.2265625 -0.6679688,0 -1.0429688,0.5039062 -1.2421875,0.984375 z m 1.1835935,3.21093748 c -0.6210935,0 -0.925781,-0.59765625 -0.9843748,-0.75 C 9.084375,-1.2781406 9.084375,-2.0750156 9.084375,-2.2507969 c 0,-0.7734375 0.3164062,-1.7695312 1.21875,-1.7695312 0.152344,0 0.609375,0 0.925781,0.609375 0.175781,0.375 0.175781,0.8789062 0.175781,1.3710937 0,0.4804688 0,0.9726563 -0.164062,1.33593753 -0.304688,0.59765625 -0.761719,0.64453125 -0.996094,0.64453125 z m 0,0"
         style="fill:#338eca;fill-opacity:1;fill-rule:nonzero;stroke:none" />
    </g>
    <g
       id="g95"
       aria-label="1.8"
       transform="matrix(1.3333333,0,0,1.3333333,425.868,116.008)">
      <path
         id="path96"
         d="m 2.9291016,-6.3751406 c 0,-0.234375 0,-0.2578125 -0.234375,-0.2578125 -0.609375,0.6328125 -1.4882813,0.6328125 -1.80468754,0.6328125 v 0.3164062 c 0.19921874,0 0.78515624,0 1.30078124,-0.2578125 v 5.15625003 c 0,0.3515625 -0.035156,0.48046875 -0.9257812,0.48046875 H 0.94863281 V -1.40625e-4 C 1.3001953,-0.03529687 2.1556641,-0.03529687 2.5541016,-0.03529687 c 0.3984375,0 1.265625,0 1.6171875,0.035156245 V -0.30482812 H 3.8548828 c -0.9023437,0 -0.9257812,-0.1171875 -0.9257812,-0.48046875 z m 0,0"
         style="fill:#338eca;fill-opacity:1;fill-rule:nonzero;stroke:none" />
      <path
         id="path97"
         d="m 6.8900391,-0.52748437 c 0,-0.29296875 -0.234375,-0.52734373 -0.5273438,-0.52734373 -0.28125,0 -0.5273437,0.23437498 -0.5273437,0.52734373 0,0.29296875 0.2460937,0.527343745 0.5273437,0.527343745 0.2929688,0 0.5273438,-0.234374995 0.5273438,-0.527343745 z m 0,0"
         style="fill:#338eca;fill-opacity:1;fill-rule:nonzero;stroke:none" />
      <path
         id="path98"
         d="m 9.3773437,-4.5470156 c -0.46875,-0.3046875 -0.5039062,-0.6445313 -0.5039062,-0.8085938 0,-0.609375 0.6445312,-1.03125 1.3593745,-1.03125 0.726563,0 1.359375,0.515625 1.359375,1.2421875 0,0.5625 -0.386718,1.0429688 -0.984375,1.3945313 z m 1.4531253,0.9375 c 0.714843,-0.3632813 1.207031,-0.8789063 1.207031,-1.5351563 0,-0.9257812 -0.890625,-1.4882812 -1.792969,-1.4882812 -0.9960935,0 -1.8046873,0.7382812 -1.8046873,1.6640625 0,0.1757812 0.011719,0.6210937 0.4335938,1.0898437 0.1054687,0.1289063 0.4804687,0.375 0.7265625,0.5390625 -0.5742188,0.2929688 -1.4296875,0.84375 -1.4296875,1.8398438 0,1.05468748 1.0078125,1.72265623 2.0624995,1.72265623 1.125,0 2.0625,-0.83203125 2.0625,-1.89843753 0,-0.3515625 -0.105468,-0.8085937 -0.480468,-1.21875 -0.1875,-0.2109375 -0.351563,-0.3164062 -0.984375,-0.7148437 z m -0.996094,0.421875 1.21875,0.7734375 c 0.28125,0.1875 0.75,0.4921875 0.75,1.1015625 0,0.73828123 -0.75,1.25390623 -1.558594,1.25390623 -0.8671873,0 -1.582031,-0.62109375 -1.582031,-1.44140623 0,-0.5859375 0.3164062,-1.21875 1.171875,-1.6875 z m 0,0"
         style="fill:#338eca;fill-opacity:1;fill-rule:nonzero;stroke:none" />
    </g>
    <path
       id="path99"
       d="M 1.2650625,-0.76220312 2.31975,-1.7934531 c 1.5585937,-1.3710938 2.15625,-1.9101563 2.15625,-2.90625 0,-1.1367188 -0.9023438,-1.9335938 -2.1210938,-1.9335938 -1.125,0 -1.85156245,0.9140625 -1.85156245,1.8046875 0,0.5507813 0.4921875,0.5507813 0.52734375,0.5507813 0.1640625,0 0.515625,-0.1171875 0.515625,-0.5273438 0,-0.2578125 -0.1875,-0.515625 -0.5273438,-0.515625 -0.0820312,0 -0.1054687,0 -0.1289062,0.011719 0.2226562,-0.6445313 0.7617187,-1.0195313 1.3359375,-1.0195313 0.9140625,0 1.3359375,0.8085938 1.3359375,1.6289063 0,0.796875 -0.4921875,1.5820312 -1.0429688,2.203125 L 0.6088125,-0.36376562 C 0.50334375,-0.25829687 0.50334375,-0.23485937 0.50334375,-4.84375e-4 H 4.19475 L 4.476,-1.7348594 H 4.2181875 C 4.1713125,-1.4301719 4.101,-0.99657812 4.00725,-0.84423437 c -0.070312,0.0820313 -0.7265625,0.0820313 -0.9492188,0.0820313 z m 0,0"
       style="fill:#338eca;fill-opacity:1;fill-rule:nonzero;stroke:none"
       aria-label="2"
       transform="matrix(1.3333333,0,0,1.3333333,436.2,77.805333)" />
    <g
       id="g99"
       aria-label="2.2"
       transform="matrix(1.3333333,0,0,1.3333333,425.868,39.602667)">
      <path
         id="path100"
         d="M 1.2650391,-0.76254687 2.3197266,-1.7937969 c 1.5585937,-1.3710937 2.15625,-1.9101562 2.15625,-2.90625 0,-1.1367187 -0.9023438,-1.9335937 -2.1210938,-1.9335937 -1.125,0 -1.85156249,0.9140625 -1.85156249,1.8046875 0,0.5507812 0.4921875,0.5507812 0.52734379,0.5507812 0.1640625,0 0.515625,-0.1171875 0.515625,-0.5273437 0,-0.2578125 -0.1875,-0.515625 -0.5273438,-0.515625 -0.0820312,0 -0.10546874,0 -0.12890624,0.011719 0.22265624,-0.6445312 0.76171874,-1.0195312 1.33593754,-1.0195312 0.9140625,0 1.3359375,0.8085937 1.3359375,1.6289062 0,0.796875 -0.4921875,1.5820313 -1.0429688,2.203125 L 0.60878906,-0.36410937 C 0.50332031,-0.25864062 0.50332031,-0.23520312 0.50332031,-8.28125e-4 H 4.1947266 L 4.4759766,-1.7352031 H 4.2181641 c -0.046875,0.3046875 -0.1171875,0.73828123 -0.2109375,0.89062498 -0.070312,0.0820313 -0.7265625,0.0820313 -0.9492188,0.0820313 z m 0,0"
         style="fill:#338eca;fill-opacity:1;fill-rule:nonzero;stroke:none" />
      <path
         id="path101"
         d="m 6.8900391,-0.52817187 c 0,-0.29296875 -0.234375,-0.52734373 -0.5273438,-0.52734373 -0.28125,0 -0.5273437,0.23437498 -0.5273437,0.52734373 0,0.29296875 0.2460937,0.527343745 0.5273437,0.527343745 0.2929688,0 0.5273438,-0.234374995 0.5273438,-0.527343745 z m 0,0"
         style="fill:#338eca;fill-opacity:1;fill-rule:nonzero;stroke:none" />
      <path
         id="path102"
         d="M 9.0140625,-0.76254687 10.06875,-1.7937969 c 1.558594,-1.3710937 2.15625,-1.9101562 2.15625,-2.90625 0,-1.1367187 -0.902344,-1.9335937 -2.121094,-1.9335937 -1.1249998,0 -1.8515623,0.9140625 -1.8515623,1.8046875 0,0.5507812 0.4921875,0.5507812 0.5273438,0.5507812 0.1640625,0 0.515625,-0.1171875 0.515625,-0.5273437 0,-0.2578125 -0.1875,-0.515625 -0.5273438,-0.515625 -0.082031,0 -0.1054687,0 -0.1289062,0.011719 0.2226562,-0.6445312 0.7617187,-1.0195312 1.3359375,-1.0195312 0.914062,0 1.335937,0.8085937 1.335937,1.6289062 0,0.796875 -0.492187,1.5820313 -1.042968,2.203125 L 8.3578125,-0.36410937 C 8.2523437,-0.25864062 8.2523437,-0.23520312 8.2523437,-8.28125e-4 H 11.94375 L 12.225,-1.7352031 h -0.257813 c -0.04687,0.3046875 -0.117187,0.73828123 -0.210937,0.89062498 -0.07031,0.0820313 -0.726563,0.0820313 -0.949219,0.0820313 z m 0,0"
         style="fill:#338eca;fill-opacity:1;fill-rule:nonzero;stroke:none" />
    </g>
    <g
       id="g102"
       aria-label="·10&#10;−2"
       transform="matrix(1.3333333,0,0,1.3333333,449.92533,30.008)">
      <path
         id="path103"
         d="m 1.9105156,-2.4962344 c 0,-0.28125 -0.234375,-0.5273437 -0.5273437,-0.5273437 -0.28125,0 -0.52734377,0.2460937 -0.52734377,0.5273437 0,0.2929688 0.24609377,0.5390625 0.52734377,0.5390625 0.2929687,0 0.5273437,-0.2460937 0.5273437,-0.5390625 z m 0,0"
         style="fill:#338eca;fill-opacity:1;fill-rule:nonzero;stroke:none" />
      <path
         id="path104"
         d="m 5.6986016,-6.3751406 c 0,-0.234375 0,-0.2578125 -0.234375,-0.2578125 -0.609375,0.6328125 -1.4882813,0.6328125 -1.8046875,0.6328125 v 0.3164062 c 0.1992187,0 0.7851562,0 1.3007812,-0.2578125 v 5.15625003 c 0,0.3515625 -0.035156,0.48046875 -0.9257812,0.48046875 H 3.7181328 V -1.40625e-4 C 4.0696953,-0.03529687 4.9251641,-0.03529687 5.3236016,-0.03529687 c 0.3984375,0 1.265625,0 1.6171875,0.035156245 V -0.30482812 H 6.6243828 c -0.9023437,0 -0.9257812,-0.1171875 -0.9257812,-0.48046875 z m 6.6328124,3.1875 c 0,-0.796875 -0.04687,-1.59375 -0.398437,-2.3320313 -0.457032,-0.9609375 -1.277344,-1.1132812 -1.6875,-1.1132812 -0.5976567,0 -1.3359379,0.2578125 -1.7343754,1.1835937 -0.328125,0.6914063 -0.375,1.4648438 -0.375,2.2617188 0,0.75 0.046875,1.640625 0.4453125,2.40234373 0.4335937,0.80859375 1.1601562,1.0078125 1.6523439,1.0078125 0.539062,0 1.289062,-0.2109375 1.734375,-1.16015625 0.316406,-0.69140628 0.363281,-1.46484378 0.363281,-2.24999998 z m -2.097656,3.187499975 c -0.3867189,0 -0.9843752,-0.246093745 -1.1601564,-1.207031275 -0.1054688,-0.5976562 -0.1054688,-1.5117187 -0.1054688,-2.0976562 0,-0.6445313 0,-1.3007813 0.082031,-1.8398438 0.1875,-1.1835937 0.9257812,-1.265625 1.1835942,-1.265625 0.328125,0 0.984375,0.1757813 1.171875,1.1601563 0.09375,0.5625 0.09375,1.3125 0.09375,1.9453125 0,0.75 0,1.4179687 -0.105469,2.0625 -0.152344,0.93749998 -0.714844,1.242187475 -1.160156,1.242187475 z m 0,0"
         style="fill:#338eca;fill-opacity:1;fill-rule:nonzero;stroke:none" />
      <path
         id="path105"
         d="m 17.921258,-5.1856875 c 0.105469,0 0.269531,0 0.269531,-0.1757812 0,-0.1757813 -0.152344,-0.1757813 -0.269531,-0.1757813 h -4.160156 c -0.105469,0 -0.28125,0 -0.28125,0.1757813 0,0.1757812 0.164062,0.1757812 0.28125,0.1757812 z m 0,0"
         style="fill:#338eca;fill-opacity:1;fill-rule:nonzero;stroke:none" />
      <path
         id="path106"
         d="m 22.473992,-4.881 h -0.234375 c -0.02344,0.1523438 -0.08203,0.5625 -0.175781,0.6328125 -0.05859,0.035156 -0.597656,0.035156 -0.691406,0.035156 h -1.289063 c 0.738281,-0.6445313 0.984375,-0.84375 1.394531,-1.171875 0.515625,-0.4101563 0.996094,-0.84375 0.996094,-1.5 0,-0.84375 -0.738281,-1.359375 -1.628906,-1.359375 -0.867188,0 -1.453125,0.609375 -1.453125,1.2421875 0,0.3632812 0.304687,0.3984375 0.375,0.3984375 0.164062,0 0.375,-0.1171875 0.375,-0.375 0,-0.1289063 -0.05859,-0.3632813 -0.421875,-0.3632813 0.222656,-0.5039062 0.691406,-0.65625 1.019531,-0.65625 0.703125,0 1.066406,0.5507813 1.066406,1.1132813 0,0.609375 -0.433593,1.0898437 -0.65625,1.3359375 l -1.6875,1.6640625 c -0.07031,0.058594 -0.07031,0.070312 -0.07031,0.2695312 h 2.882812 z m 0,0"
         style="fill:#338eca;fill-opacity:1;fill-rule:nonzero;stroke:none" />
    </g>
    <path
       id="path107"
       d="m 0,103.70033 0.37978,0.52599 0.37979,0.0438 0.37979,-0.43742 0.37979,-0.9094 0.37981,-1.36442 0.37979,-1.79555 0.3798,-2.19644 0.3798,-2.56201 0.37979,-2.88828 0.37979,-3.17238 0.37979,-3.41278 0.37979,-3.60896 0.37981,-3.7614 0.37979,-3.87146 0.37979,-3.94122 0.3798,-3.97322 0.3798,-3.97046 0.37979,-3.93611 0.37979,-3.87349 0.37979,-3.78589 0.37981,-3.67651 0.37979,-3.54839 0.37979,-3.40443 0.37981,-3.24723 0.37979,-3.07916 0.37979,-2.90231 0.37979,-2.71863 0.37979,-2.52966 0.37979,-2.33686 0.37981,-2.14134 0.37979,-1.94415 0.37981,-1.74608 0.37979,-1.54779 0.37979,-1.34979 0.37981,-1.15253 0.37978,-0.95625 0.3798,-0.7612 0.37979,-0.56755 0.37979,-0.37533 0.37979,-0.18461 0.37981,0.0046 0.37979,0.1923 0.37981,0.37856 0.37979,0.56338 0.37979,0.74684 0.37979,0.9289 0.37979,1.1096 0.37979,1.28887 0.37981,1.46667 0.37979,1.64284 0.37979,1.81723 0.37981,1.98958 0.37979,2.15951 0.37979,2.32663 0.37979,2.49044 0.3798,2.65019 0.3798,2.80522 0.37979,2.95456 0.37979,3.09715 0.37981,3.23183 0.37979,3.35715 0.37978,3.47158 0.37979,3.57349 0.37979,3.66095 0.37981,3.73198 0.37979,3.78442 0.37979,3.81613 0.3798,3.82482 0.3798,3.80818 0.37979,3.76407 0.3798,3.69043 0.37979,3.58546 0.37979,3.44762 0.3798,3.27589 0.37979,3.06968 0.37981,2.82904 0.37979,2.55473 0.37979,2.24826 0.3798,1.91194 0.3798,1.54887 0.37979,1.16294 0.37979,0.75871 0.37979,0.34146 0.37979,-0.0832 0.37981,-0.50933 0.37979,-0.93075 0.37979,-1.34152 0.37981,-1.73589 0.37979,-2.10852 0.37979,-2.45479 0.37979,-2.77063 0.37979,-3.05293 0.3798,-3.29932 0.3798,-3.50831 0.37979,-3.67925 0.37981,-3.81216 0.37979,-3.90786 0.37979,-3.9676 0.37981,-3.99323 0.37979,-3.98684 0.37979,-3.95084 0.37979,-3.88776 0.37979,-3.80024 0.37981,-3.69089 0.37979,-3.56224 0.37979,-3.41673 0.37981,-3.25664 0.37979,-3.08408 0.37979,-2.90103 0.37979,-2.70914 0.37979,-2.51005 0.37981,-2.30504 0.37979,-2.09535 0.37979,-1.88199 0.3798,-1.66582 0.3798,-1.44758 0.37979,-1.22791 0.37979,-1.00728 0.37979,-0.78618 0.37979,-0.56494 0.37981,-0.3439 0.37979,-0.12334 0.37981,0.09655 0.37977,0.31538 0.37979,0.53299 0.3798,0.74908 0.37979,0.96329 0.37979,1.17524 0.37981,1.38448 0.37978,1.59047 0.3798,1.79261 0.3798,1.99009 0.3798,2.18205 0.3798,2.36751 0.3798,2.54532 0.37978,2.71413 0.3798,2.87248 0.37979,3.01877 0.37979,3.15117 0.3798,3.2678 0.3798,3.36662 0.37979,3.44547 0.3798,3.50214 0.37979,3.53444 0.3798,3.54019 0.37979,3.51733 0.37979,3.4641 0.37981,3.3788 0.37979,3.26031 0.37979,3.10788 0.3798,2.9213 0.37979,2.701 0.3798,2.44811 0.37979,2.16444 0.37979,1.85259 0.37979,1.51584 0.37981,1.15817 0.37979,0.7841 0.3798,0.3987 0.3798,0.0072 0.37979,-0.38472 0.3798,-0.77164 0.3798,-1.14816 0.37979,-1.50929 0.37979,-1.85042 0.37979,-2.16756 0.37979,-2.45738 0.37981,-2.71724 0.37979,-2.94528 0.3798,-3.14035 0.3798,-3.30191 0.37978,-3.43016 0.3798,-3.52576 0.37979,-3.58986 0.37979,-3.62397 0.37981,-3.62996 0.37979,-3.60979 0.37979,-3.56561 0.37981,-3.49959 0.37979,-3.41391 0.37979,-3.31073 0.37979,-3.19209 0.37979,-3.05986 0.37981,-2.91591 0.37977,-2.76184 0.3798,-2.59908 0.3798,-2.42906 0.37979,-2.25289 0.37979,-2.07157 0.3798,-1.88608 0.37979,-1.69713 0.37981,-1.50537 0.37978,-1.31134 0.3798,-1.11553 0.3798,-0.91826 0.37979,-0.71987 0.37979,-0.52062 0.37981,-0.32074 0.37979,-0.12034 0.37979,0.0803 0.3798,0.28115 0.37979,0.48194 0.37979,0.68258 0.3798,0.88275 0.3798,1.08229 0.3798,1.28085 0.37979,1.47806 0.37979,1.67349 0.37979,1.86658 0.3798,2.05665 0.37979,2.24294 0.37981,2.42459 0.37979,2.60051 0.37979,2.76947 0.3798,2.93019 0.3798,3.08109 0.37979,3.22049 0.37979,3.34652 0.37979,3.45723 0.37981,3.55042 0.37979,3.62394 0.37979,3.67542 0.3798,3.70256 0.3798,3.70316 0.37979,3.67497 0.37979,3.61612 0.3798,3.5249 0.3798,3.40001 0.37978,3.24068 0.3798,3.0466 0.3798,2.81814 0.3798,2.55652 0.37979,2.26347 0.37981,1.94164 0.37979,1.59441 0.37979,1.2258 0.37979,0.8405 0.37979,0.44366 0.37981,0.0408 0.37979,-0.36241 0.37979,-0.76033 0.3798,-1.14738 0.3798,-1.51841 0.37979,-1.86871 0.37979,-2.1942 0.37979,-2.49142 0.37978,-2.75774 0.3798,-2.99121 0.3798,-3.19067 0.3798,-3.35564 0.37979,-3.48627 0.37979,-3.58328 0.37979,-3.64793 0.37979,-3.68174 0.3798,-3.68657 0.3798,-3.6645 0.37979,-3.61772 0.3798,-3.54845 0.3798,-3.45889 0.37979,-3.35126 0.37979,-3.22754 0.37981,-3.08977 0.37979,-2.93965 0.37979,-2.77885 0.37979,-2.6089 0.37979,-2.43106 0.37981,-2.24645 0.37979,-2.05615 0.3798,-1.86095 0.3798,-1.66162 0.3798,-1.45875 0.37978,-1.25284 0.3798,-1.0443 0.37979,-0.83345 0.3798,-0.62055 0.37979,-0.40582 0.3798,-0.18939 0.3798,0.02855 0.37979,0.2479 0.37979,0.46849 0.3798,0.69021 0.37979,0.91287 0.37979,1.13617 0.3798,1.35988 0.3798,1.58357 0.3798,1.80675 0.37979,2.02875 0.37979,2.24886 0.3798,2.46607 0.37979,2.67934 0.37981,2.88721 0.37979,3.08815 0.37979,3.28034 0.37979,3.46168 0.3798,3.6298 0.3798,3.78211 0.3798,3.91569 0.37979,4.02749 0.37979,4.11418 0.3798,4.17244 0.37979,4.19879 0.37979,4.18989 0.37981,4.14261 0.37979,4.05409 0.37979,3.92208 0.3798,3.74485 0.3798,3.5217 0.37977,3.25274 0.37979,2.93928 0.37979,2.58382 0.37981,2.19006 0.37979,1.76297 0.37979,1.3085 0.37981,0.83371 0.37979,0.34621 0.37979,-0.14577 0.37979,-0.634 0.37979,-1.11034 0.3798,-1.56711 0.3798,-1.99737 0.37979,-2.39514 0.37981,-2.75556 0.37979,-3.07489 0.37979,-3.35074 0.37981,-3.58169 0.37979,-3.76768 0.37979,-3.90941 0.3798,-4.0085 0.37978,-4.06713 0.3798,-4.08813 0.3798,-4.07451 0.37979,-4.02956 0.37981,-3.95662 0.37979,-3.85897 0.37979,-3.73989 0.37979,-3.60231 0.37979,-3.44909 0.3798,-3.2828 0.3798,-3.10575 0.37979,-2.92002 0.3798,-2.72734 0.3798,-2.52933 0.37979,-2.32734 0.37979,-2.12245 0.37979,-1.91562 0.3798,-1.70758 0.3798,-1.49898 0.3798,-1.29027 0.37979,-1.08183 0.3798,-0.87398 0.37979,-0.66685 0.37979,-0.46064 0.3798,-0.25535 0.37979,-0.05115 0.3798,0.152 0.37979,0.35407 0.3798,0.55503 0.3798,0.75482 0.37979,0.95335 0.3798,1.15058 0.3798,1.34632 0.37979,1.54032 0.37979,1.73233 0.3798,1.92193 0.37978,2.10871 0.37981,2.29199 0.37979,2.47107 0.3798,2.64516 0.3798,2.81311 0.37978,2.97384 0.37979,3.12603 0.37979,3.26802 0.37979,3.39822 0.37979,3.51471 0.37981,3.61543 0.37979,3.69817 0.37979,3.76065 0.37981,3.80041 0.37979,3.81507 0.37979,3.8022 0.37979,3.75949 0.37979,3.68483 0.37981,3.57649 0.37979,3.43291 0.3798,3.25329 0.3798,3.0373 0.37979,2.78532 0.37979,2.49852 0.37981,2.17895 0.37979,1.82947 0.37979,1.4538 0.37979,1.05644 0.37979,0.64253 0.37981,0.21794 0.37979,-0.21128 0.37979,-0.63884 0.37981,-1.05835 0.37979,-1.46375 0.37979,-1.84933 0.37979,-2.21007 0.37979,-2.5415 0.37981,-2.8401 0.37979,-3.10316 0.37979,-3.32892 0.37981,-3.51637 0.37979,-3.66542 0.37979,-3.77663 0.37979,-3.85116 0.37979,-3.89078 0.3798,-3.89752 0.3798,-3.87383 0.37979,-3.82214 0.37981,-3.74524 0.37979,-3.64572 0.37979,-3.52618 0.37979,-3.38913 0.3798,-3.2369 0.37979,-3.07171 0.3798,-2.89551 0.37979,-2.71016 0.3798,-2.5172 0.3798,-2.31811 0.37979,-2.11405 0.37981,-1.90614 0.37979,-1.69528 0.37979,-1.48222 0.3798,-1.26764 0.37979,-1.05208 0.37979,-0.83592 0.3798,-0.61962 0.37978,-0.40346 0.37979,-0.1877 0.37981,0.02738 0.37979,0.24159 0.37979,0.45465 0.37979,0.6664 0.37979,0.87648 0.37981,1.0846 0.37979,1.29043 0.37979,1.49353 0.37981,1.69336 0.37979,1.88936 0.37979,2.08076 0.37979,2.26683 0.37979,2.44653 0.37979,2.61881 0.37981,2.78252 0.37979,2.93622 0.37981,3.07841 0.37979,3.20749 0.37979,3.32172 0.37979,3.41913 0.37981,3.49786 0.37979,3.55583 0.37979,3.59107 0.37979,3.60154 0.37979,3.5854 0.37981,3.54092 0.37979,3.46655 0.37981,3.3612 0.37979,3.22403 0.37979,3.05477 0.37979,2.85359 0.3798,2.62134 0.37978,2.35945 0.37981,2.07001 0.37979,1.75579 0.37979,1.42014 0.37981,1.06699 0.37979,0.70066 0.37979,0.32595 0.37979,-0.0522 0.37979,-0.42873 0.37981,-0.79861 0.37979,-1.15714 0.37979,-1.49974 0.37981,-1.82249 0.37979,-2.12181 0.37979,-2.39493 0.37979,-2.63947 0.37979,-2.85391 0.37981,-3.03725 0.37979,-3.18913 0.3798,-3.30972 0.3798,-3.39961 0.37979,-3.45995 0.37979,-3.492 0.37981,-3.49749 0.37979,-3.47816 0.37979,-3.43598 0.37979,-3.37287 0.37979,-3.29088 0.37978,-3.19192 0.37981,-3.07781 0.37979,-2.95043 0.3798,-2.81136 0.3798,-2.66215 0.37979,-2.50422 0.37979,-2.33881 0.37979,-2.16705 0.37979,-1.99001 0.37981,-1.80846 0.37979,-1.62327 0.37979,-1.43508 0.37981,-1.24444 0.37979,-1.0519 0.37979,-0.85786 0.37979,-0.66272 0.37979,-0.4668 0.37981,-0.27038 0.37979,-0.07378 0.37979,0.12276 0.37981,0.31895 0.37979,0.51453 0.37979,0.70919 0.37979,0.90256 0.37981,1.09426 0.37979,1.28381 0.37979,1.47073 0.37979,1.65442 0.37981,1.83411 0.37979,2.00908 0.37979,2.17834 0.37981,2.34096 0.37979,2.49571 0.37979,2.64133 0.37979,2.77644 0.37979,2.89951 0.37981,3.00888 0.37979,3.10287 0.37979,3.17966 0.37981,3.23741 0.37979,3.27428 0.37979,3.28847 0.37979,3.27824 0.37979,3.24205 0.37979,3.17851 0.37981,3.08657 0.37979,2.96547 0.37981,2.81493 0.37979,2.63508 0.37979,2.42654 0.37979,2.19066 0.37979,1.92909 0.37979,1.64432 0.37981,1.33913 0.37979,1.01698 0.37979,0.68169 0.37981,0.33732 0.37979,-0.01165 0.37979,-0.36092 0.37981,-0.70596 0.37979,-1.04253 0.37978,-1.36656 0.37979,-1.67446 0.37979,-1.9629 0.37981,-2.22922 0.37978,-2.47117 0.3798,-2.68714 0.3798,-2.87593 0.3798,-3.03707 0.37979,-3.1703 0.37979,-3.27609 0.37979,-3.35502 0.37981,-3.40812 0.37979,-3.43663 0.37979,-3.44194 0.3798,-3.42567 0.3798,-3.38939 0.37979,-3.33474 0.37979,-3.26342 0.37979,-3.177 0.37979,-3.077 0.37981,-2.9649 0.37979,-2.84203 0.37981,-2.70961 0.37979,-2.56883 0.37979,-2.42066 0.37979,-2.26597 0.37979,-2.10561 0.37979,-1.94021 0.37981,-1.77043 0.37979,-1.59668 0.37979,-1.41942 0.37981,-1.239 0.37979,-1.05565 0.37981,-0.86963 0.37979,-0.68108 0.37979,-0.49012 0.37979,-0.29692 0.37979,-0.10146 0.37979,0.09613 0.37981,0.29576 0.37979,0.49742 0.37979,0.70095 0.37981,0.9062 0.37979,1.11302 0.37979,1.32114 0.37979,1.53021 0.37979,1.73984 0.37981,1.94942 0.37979,2.15835 0.37979,2.36569 0.37981,2.57058 0.37979,2.77163 0.37979,2.96758 0.37979,3.15666 0.37979,3.33702 0.37979,3.50647 0.37981,3.66257 0.37979,3.80266 0.37981,3.92378 0.37979,4.02279 0.37979,4.09647 0.37981,4.14133 0.37977,4.15404 0.37979,4.13132 0.3798,4.07012 0.37979,3.96781 0.37979,3.82231 0.3798,3.6322 0.3798,3.39705 0.3798,3.11728 0.37979,2.79463 0.3798,2.43191 0.37979,2.03322 0.37979,1.60378 0.37979,1.14982"
       style="fill:none;stroke:#338eca;stroke-width:1.99255;stroke-linecap:butt;stroke-linejoin:miter;stroke-miterlimit:10;stroke-dasharray:none;stroke-opacity:1"
       transform="matrix(1.3333333,0,0,-1.3333333,448.59733,188.13467)"
       clip-path="url(#clipPath108)" />
    <g
       id="g108"
       aria-label="DirectionofArrival[&#10;◦&#10;]"
       transform="matrix(1.3333333,0,0,1.3333333,531.792,223.77867)">
      <path
         id="path109"
         d="m 1.4655938,-6.3642734 v 5.89453121 H 0.38746875 V -9.921875e-4 H 4.68825 c 1.9570313,0 3.4453125,-1.2304687125 3.4453125,-3.3515625125 0,-2.1914062 -1.4882812,-3.4804687 -3.4570312,-3.4804687 H 0.38746875 v 0.46875 z m 1.359375,5.89453121 V -6.3642734 h 1.453125 c 0.65625,0 1.4765625,0.1875 1.96875,0.8789062 0.3515625,0.515625 0.4335937,1.1953125 0.4335937,2.1210938 0,1.078125 -0.1289062,1.6054687 -0.4453125,2.0625 -0.4804687,0.66796871 -1.3476562,0.83203121 -1.9570312,0.83203121 z m 8.1884762,-4.01953121 -1.7226559,0.082031 v 0.46875 c 0.5859375,0 0.65625,0 0.65625,0.3867188 v 3.08203121 H 9.2556328 V -9.921875e-4 C 9.5603203,-0.01271094 10.052508,-0.03614844 10.474383,-0.03614844 c 0.292969,0 0.808594,0.0234375 1.160156,0.0351562525 V -0.46974219 h -0.621094 z m 0.105469,-1.6523438 c 0,-0.4453125 -0.363281,-0.7851562 -0.773437,-0.7851562 -0.4335942,0 -0.7851567,0.3515625 -0.7851567,0.7851562 0,0.421875 0.3515625,0.7734375 0.7851567,0.7734375 0.410156,0 0.773437,-0.3398437 0.773437,-0.7734375 z m 2.876953,2.7890625 v -1.1367187 l -1.664062,0.082031 v 0.46875 c 0.621093,0 0.691406,0 0.691406,0.3867188 v 3.08203121 H 12.331805 V -9.921875e-4 C 12.683367,-0.01271094 13.12868,-0.03614844 13.59743,-0.03614844 c 0.375,0 1.007812,0 1.371093,0.0351562525 V -0.46974219 H 14.101336 V -2.2158359 c 0,-0.6914063 0.246094,-1.9101563 1.242187,-1.9101563 -0.01172,0.011719 -0.1875,0.1757813 -0.1875,0.4570313 0,0.4101562 0.316407,0.609375 0.609375,0.609375 0.292969,0 0.609375,-0.2109375 0.609375,-0.609375 0,-0.5273438 -0.539062,-0.8203125 -1.054687,-0.8203125 -0.703125,0 -1.101563,0.5039062 -1.324219,1.1367187 z m 7.294922,1.1835938 c 0.210938,0 0.316406,0 0.316406,-0.2695313 0,-0.3164062 -0.05859,-1.0429687 -0.5625,-1.5351562 -0.363281,-0.3632813 -0.890625,-0.5390625 -1.582031,-0.5390625 -1.59375,0 -2.460937,1.0195312 -2.460937,2.2734375 0,1.33593746 0.996093,2.29687496 2.601562,2.29687496 1.570313,0 2.003906,-1.0546875 2.003906,-1.21874996 0,-0.1875 -0.1875,-0.1875 -0.234375,-0.1875 -0.175781,0 -0.199218,0.046875 -0.257812,0.2109375 -0.210938,0.48046871 -0.773438,0.79687496 -1.417969,0.79687496 -1.40625,0 -1.417969,-1.32421876 -1.417969,-1.82812496 z m -3.011719,-0.328125 c 0.02344,-0.3984375 0.03516,-0.8085938 0.234375,-1.1367188 0.269532,-0.3984375 0.667969,-0.515625 0.949219,-0.515625 1.171875,0 1.183594,1.3007813 1.195313,1.6523438 z m 7.245118,-1.5585938 c -0.175782,0.1640625 -0.199219,0.3632813 -0.199219,0.4570313 0,0.4453125 0.351562,0.6328125 0.621094,0.6328125 0.304687,0 0.621093,-0.2109375 0.621093,-0.6328125 0,-0.8554688 -1.148437,-0.9140625 -1.734375,-0.9140625 -1.78125,0 -2.519531,1.1484375 -2.519531,2.296875 0,1.32421871 0.9375,2.27343746 2.472656,2.27343746 1.617188,0 1.910157,-1.16015626 1.910157,-1.21874996 0,-0.140625 -0.140625,-0.140625 -0.234375,-0.140625 -0.175782,0 -0.1875,0.011719 -0.234375,0.140625 -0.269532,0.63281246 -0.738282,0.82031246 -1.253907,0.82031246 -1.382812,0 -1.382812,-1.46484376 -1.382812,-1.92187496 0,-0.5625 0,-1.8515625 1.289062,-1.8515625 0.351563,0 0.515625,0.023437 0.644532,0.058594 z m 2.537109,0.1054688 v 2.71875 c 0,1.06640621 0.867187,1.28906246 1.570312,1.28906246 0.75,0 1.207032,-0.5625 1.207032,-1.28906246 v -0.5273438 h -0.46875 v 0.5039063 c 0,0.67968746 -0.316407,0.91406246 -0.597657,0.91406246 -0.585937,0 -0.585937,-0.6328125 -0.585937,-0.86718746 v -2.7421875 h 1.464844 v -0.46875 h -1.464844 v -1.9101563 h -0.457031 c -0.01172,0.9960938 -0.503907,1.9804688 -1.488282,2.015625 v 0.3632813 z m 5.651367,-0.5390625 -1.722656,0.082031 v 0.46875 c 0.585937,0 0.65625,0 0.65625,0.3867188 v 3.08203121 h -0.691406 v 0.4687500025 c 0.304687,-0.0117187525 0.796875,-0.0351562525 1.21875,-0.0351562525 0.292968,0 0.808593,0.0234375 1.160156,0.0351562525 V -0.46974219 h -0.621094 z m 0.105469,-1.6523438 c 0,-0.4453125 -0.363281,-0.7851562 -0.773438,-0.7851562 -0.433593,0 -0.785156,0.3515625 -0.785156,0.7851562 0,0.421875 0.351563,0.7734375 0.785156,0.7734375 0.410157,0 0.773438,-0.3398437 0.773438,-0.7734375 z m 6.251953,3.9726563 c 0,-1.3359375 -0.914063,-2.34375 -2.542969,-2.34375 -1.628906,0 -2.542969,1.0195312 -2.542969,2.34375 0,1.23046871 0.878907,2.22656246 2.542969,2.22656246 1.675781,0 2.542969,-1.0078125 2.542969,-2.22656246 z m -2.542969,1.82812496 c -1.265625,0 -1.265625,-1.07812496 -1.265625,-1.94531246 0,-0.4453125 0,-0.9492188 0.164063,-1.2890625 0.199218,-0.375 0.609375,-0.5742188 1.101562,-0.5742188 0.421875,0 0.832031,0.1523438 1.054688,0.5039063 0.210937,0.3398437 0.210937,0.890625 0.210937,1.359375 0,0.8671875 0,1.94531246 -1.265625,1.94531246 z M 41.532,-3.5517734 v 3.08203121 H 40.840594 V -9.921875e-4 C 41.121844,-0.01271094 41.7195,-0.03614844 42.0945,-0.03614844 c 0.398438,0 0.984375,0.0234375 1.253906,0.0351562525 V -0.46974219 H 42.668719 V -2.5556797 c 0,-1.078125 0.855469,-1.5703125 1.476562,-1.5703125 0.339844,0 0.550782,0.2109375 0.550782,0.9726563 v 2.68359371 H 44.016375 V -9.921875e-4 C 44.285906,-0.01271094 44.883563,-0.03614844 45.270281,-0.03614844 c 0.386719,0 0.972657,0.0234375 1.253907,0.0351562525 V -0.46974219 H 45.832781 V -3.0478672 c 0,-1.0429687 -0.539062,-1.4414062 -1.535156,-1.4414062 -0.949219,0 -1.476562,0.5742187 -1.746094,1.078125 v -1.078125 l -1.710937,0.082031 v 0.46875 c 0.621094,0 0.691406,0 0.691406,0.386719 z m 14.446289,1.3828125 c 0,-1.3359375 -0.914062,-2.34375 -2.542969,-2.34375 -1.628906,0 -2.542968,1.0195312 -2.542968,2.34375 0,1.23046871 0.878906,2.22656246 2.542968,2.22656246 1.675782,0 2.542969,-1.0078125 2.542969,-2.22656246 z m -2.542969,1.82812496 c -1.265625,0 -1.265625,-1.07812496 -1.265625,-1.94531246 0,-0.4453125 0,-0.9492188 0.164063,-1.2890625 0.199219,-0.375 0.609375,-0.5742188 1.101562,-0.5742188 0.421875,0 0.832032,0.1523438 1.054688,0.5039063 0.210937,0.3398437 0.210937,0.890625 0.210937,1.359375 0,0.8671875 0,1.94531246 -1.265625,1.94531246 z m 4.028321,-4.07812496 h -0.738282 v 0.46875 h 0.738282 v 3.48046871 H 56.783953 V -9.921875e-4 C 57.135516,-0.01271094 57.580828,-0.03614844 58.037859,-0.03614844 c 0.375,0 1.019532,0 1.371094,0.0351562525 V -0.46974219 H 58.541766 V -3.9502109 h 1.148437 v -0.46875 h -1.207031 v -1.0078125 c 0,-1.1015625 0.761719,-1.1835938 1.007812,-1.1835938 0.04687,0 0.105469,0 0.164063,0.011719 -0.140625,0.1171875 -0.222656,0.3046875 -0.222656,0.4921875 0,0.421875 0.351562,0.6210937 0.609375,0.6210937 0.292968,0 0.609375,-0.2109375 0.609375,-0.6210937 0,-0.421875 -0.351563,-0.8671875 -1.125,-0.8671875 -0.984375,0 -2.0625,0.421875 -2.0625,1.546875 z m 10.889648,-2.2734375 c -0.105469,-0.2578125 -0.234375,-0.2578125 -0.398437,-0.2578125 -0.28125,0 -0.316407,0.070312 -0.386719,0.2578125 l -2.472656,5.98828121 c -0.05859,0.15234375 -0.09375,0.234375 -0.84375,0.234375 h -0.210938 v 0.4687500025 c 0.375,-0.0117187525 0.855469,-0.0351562525 1.160156,-0.0351562525 0.386719,0 0.949219,0 1.324219,0.0351562525 V -0.46974219 c -0.02344,0 -0.890625,0 -0.890625,-0.12890625 0,-0.0117188 0.02344,-0.10546875 0.03516,-0.1171875 l 0.503907,-1.20703126 h 2.671875 l 0.597656,1.45312501 h -0.949219 v 0.4687500025 c 0.375,-0.0351562525 1.324219,-0.0351562525 1.746094,-0.0351562525 0.398437,0 1.277344,0 1.628906,0.0351562525 V -0.46974219 h -0.960937 z m -0.84375,1.5351562 1.136719,2.765625 H 66.37282 Z m 6.811524,1.8046875 V -4.4892734 L 72.657,-4.4072422 v 0.46875 c 0.621094,0 0.691406,0 0.691406,0.3867188 v 3.08203121 H 72.657 V -9.921875e-4 C 73.008563,-0.01271094 73.453875,-0.03614844 73.922625,-0.03614844 c 0.375,0 1.007813,0 1.371094,0.0351562525 V -0.46974219 H 74.426531 V -2.2158359 c 0,-0.6914063 0.246094,-1.9101563 1.242188,-1.9101563 -0.01172,0.011719 -0.1875,0.1757813 -0.1875,0.4570313 0,0.4101562 0.316406,0.609375 0.609375,0.609375 0.292969,0 0.609375,-0.2109375 0.609375,-0.609375 0,-0.5273438 -0.539063,-0.8203125 -1.054688,-0.8203125 -0.703125,0 -1.101562,0.5039062 -1.324218,1.1367187 z m 4.716796,0 v -1.1367187 l -1.664062,0.082031 v 0.46875 c 0.621094,0 0.691406,0 0.691406,0.3867188 v 3.08203121 H 77.373797 V -9.921875e-4 C 77.725359,-0.01271094 78.170672,-0.03614844 78.639422,-0.03614844 c 0.375,0 1.007812,0 1.371094,0.0351562525 V -0.46974219 H 79.143328 V -2.2158359 c 0,-0.6914063 0.246094,-1.9101563 1.242188,-1.9101563 -0.01172,0.011719 -0.1875,0.1757813 -0.1875,0.4570313 0,0.4101562 0.316406,0.609375 0.609375,0.609375 0.292968,0 0.609375,-0.2109375 0.609375,-0.609375 0,-0.5273438 -0.539063,-0.8203125 -1.054688,-0.8203125 -0.703125,0 -1.101562,0.5039062 -1.324219,1.1367187 z m 4.918946,-1.1367187 -1.722657,0.082031 v 0.46875 c 0.585938,0 0.65625,0 0.65625,0.3867188 v 3.08203121 H 82.198992 V -9.921875e-4 C 82.50368,-0.01271094 82.995867,-0.03614844 83.417742,-0.03614844 c 0.292969,0 0.808594,0.0234375 1.160156,0.0351562525 V -0.46974219 h -0.621093 z m 0.105468,-1.6523438 c 0,-0.4453125 -0.363281,-0.7851562 -0.773437,-0.7851562 -0.433594,0 -0.785156,0.3515625 -0.785156,0.7851562 0,0.421875 0.351562,0.7734375 0.785156,0.7734375 0.410156,0 0.773437,-0.3398437 0.773437,-0.7734375 z m 5.888672,2.390625 c 0.05859,-0.140625 0.105469,-0.1992187 0.738282,-0.1992187 v -0.46875 c -0.246094,0.011719 -0.539063,0.023437 -0.785157,0.023437 -0.246093,0 -0.703125,-0.023437 -0.902343,-0.023437 v 0.46875 c 0.1875,0 0.46875,0.023437 0.46875,0.1054687 0,0.011719 -0.01172,0.023437 -0.04687,0.1171875 l -1.160157,2.4960938 -1.253906,-2.71875 h 0.527344 v -0.46875 c -0.328125,0.011719 -1.21875,0.023437 -1.230469,0.023437 -0.28125,0 -0.726562,-0.023437 -1.136719,-0.023437 v 0.46875 h 0.644532 l 1.734375,3.73828121 c 0.117187,0.24609375 0.257812,0.24609375 0.386718,0.24609375 0.164063,0 0.269532,-0.0234375 0.363282,-0.234375 z m 4.095703,2.98828126 c 0,0.3046875 0,0.7617187525 1.03125,0.7617187525 h 0.480469 c 0.199219,0 0.316406,0 0.316406,-0.2343750025 0,-0.234375 -0.128906,-0.234375 -0.257812,-0.234375 -0.609375,-0.0117188 -0.609375,-0.140625 -0.609375,-0.36328125 V -2.9775547 c 0,-0.890625 -0.703125,-1.5351562 -2.191406,-1.5351562 -0.5625,0 -1.78125,0.035156 -1.78125,0.9140625 0,0.4453125 0.351562,0.6328125 0.621093,0.6328125 0.304688,0 0.621094,-0.2109375 0.621094,-0.6328125 0,-0.2929688 -0.1875,-0.46875 -0.210937,-0.4921875 0.28125,-0.058594 0.597656,-0.058594 0.714843,-0.058594 0.75,0 1.089844,0.4101563 1.089844,1.171875 v 0.3398438 c -0.703125,0.023437 -3.234375,0.1171875 -3.234375,1.5585937 0,0.96093751 1.242188,1.13671876 1.921875,1.13671876 0.796875,0 1.265625,-0.41015625 1.488281,-0.8203123 z M 93.870867,-2.3330234 v 0.9492187 c 0,0.94921876 -0.914062,1.07812501 -1.160156,1.07812501 -0.503906,0 -0.902344,-0.33984375 -0.902344,-0.78515621 0,-1.0664063 1.570313,-1.2070313 2.0625,-1.2421875 z m 4.245117,-4.5820313 -1.757812,0.082031 v 0.46875 c 0.621094,0 0.691406,0 0.691406,0.3867187 v 5.50781251 H 96.358172 V -9.921875e-4 C 96.674578,-0.01271094 97.155047,-0.03614844 97.588641,-0.03614844 c 0.421875,0 0.878906,0.0234375 1.21875,0.0351562525 V -0.46974219 h -0.691407 z m 7.687496,9.4101563 v -0.609375 h -1.03125 v -8.7539063 h 1.03125 v -0.609375 h -1.64062 v 9.9726563 z m 0,0"
         style="fill:#d9d9d9;fill-opacity:1;fill-rule:nonzero;stroke:none" />
      <path
         id="path110"
         d="m 109.61208,-5.3623203 c 0,-0.84375 -0.67969,-1.5 -1.5,-1.5 -0.84375,0 -1.5,0.6796875 -1.5,1.5 0,0.84375 0.67969,1.5 1.5,1.5 0.83203,0 1.5,-0.6796875 1.5,-1.5 z m -1.5,1.1484375 c -0.65625,0 -1.16016,-0.5273438 -1.16016,-1.1484375 0,-0.6445313 0.51563,-1.1601563 1.16016,-1.1601563 0.65625,0 1.16015,0.5390625 1.16015,1.1601563 0,0.6445312 -0.52734,1.1484375 -1.16015,1.1484375 z m 0,0"
         style="fill:#d9d9d9;fill-opacity:1;fill-rule:nonzero;stroke:none" />
      <path
         id="path111"
         d="m 112.55348,-7.4775547 h -1.65234 v 0.609375 h 1.04297 v 8.7539063 h -1.04297 v 0.609375 h 1.65234 z m 0,0"
         style="fill:#d9d9d9;fill-opacity:1;fill-rule:nonzero;stroke:none" />
    </g>
    <g
       id="g111"
       aria-label="CRLB[&#10;◦&#10;]"
       transform="matrix(0,-1.3333333,1.3333333,0,405.42533,142.84267)">
      <path
         id="path112"
         d="m 7.6280937,-6.6676094 c 0,-0.1875 0,-0.2695312 -0.1757812,-0.2695312 -0.09375,0 -0.1171875,0.011719 -0.1875,0.082031 l -0.65625,0.5859375 C 5.9874687,-6.7613594 5.3195,-6.9371406 4.6398125,-6.9371406 c -2.484375,0 -4.0078125,1.4765625 -4.0078125,3.515625 0,2.0507812 1.5234375,3.52734373 4.0078125,3.52734373 1.8632812,0 2.9882812,-1.21875003 2.9882812,-2.36718753 0,-0.1992187 -0.070312,-0.2109375 -0.234375,-0.2109375 -0.1289062,0 -0.2226562,0 -0.234375,0.1757813 -0.070312,1.33593748 -1.2773437,1.93359373 -2.2734375,1.93359373 -0.7851562,0 -1.6171875,-0.234375 -2.1328125,-0.84375003 -0.46875,-0.5625 -0.5976562,-1.3125 -0.5976562,-2.2148437 0,-0.5507813 0.035156,-1.6289063 0.6679687,-2.2851563 0.6445313,-0.65625 1.5117188,-0.7734375 2.0273438,-0.7734375 1.078125,0 2.0273437,0.7617188 2.2382812,2.0273438 0.035156,0.1875 0.046875,0.2109375 0.2695313,0.2109375 0.2578125,0 0.2695312,-0.023437 0.2695312,-0.28125 z m 3.4716793,3.0703125 v -2.765625 h 1.171875 c 1.605469,0 1.617188,0.7734375 1.617188,1.3828125 0,0.5625 0,1.3828125 -1.640625,1.3828125 z m 2.660157,0.2109375 c 1.148437,-0.3046875 1.652343,-0.9492187 1.652343,-1.6054687 0,-1.0078125 -1.089843,-1.8398438 -2.964843,-1.8398438 H 8.6622734 v 0.46875 h 1.078125 v 5.89453128 H 8.6622734 V 3.59375e-4 C 9.0255547,-0.03479687 9.9982109,-0.03479687 10.420086,-0.03479687 c 0.410156,0 1.394531,0 1.746094,0.035156245 V -0.46839062 H 11.099773 V -3.2340156 h 1.160157 c 0.140625,0 0.574218,0 0.890625,0.3398437 0.316406,0.3398438 0.316406,0.5390625 0.316406,1.265625 0,0.65625003 0,1.13671878 0.691406,1.47656253 0.445313,0.22265625 1.054688,0.2578125 1.464844,0.2578125 1.066406,0 1.195312,-0.890625 1.195312,-1.0546875 0,-0.21093753 -0.140625,-0.21093753 -0.234375,-0.21093753 -0.210937,0 -0.222656,0.09375 -0.234375,0.22265628 -0.04687,0.46875 -0.339843,0.69140625 -0.632812,0.69140625 -0.597656,0 -0.691406,-0.71484375 -0.738281,-1.12500003 -0.02344,-0.1171875 -0.09375,-0.796875 -0.105469,-0.8554687 -0.140625,-0.6914063 -0.691406,-0.9960938 -1.113281,-1.1601563 z m 9.518554,0.65625 h -0.46875 c -0.08203,0.6914063 -0.257812,2.26171878 -2.039062,2.26171878 H 19.751141 V -6.3629219 h 1.335937 v -0.46875 c -0.433594,0.023437 -1.523437,0.023437 -2.003906,0.023437 -0.445313,0 -1.453125,0 -1.828125,-0.023437 v 0.46875 h 1.078125 v 5.89453128 H 17.255047 V 3.59375e-4 h 5.707031 z m 3.246094,-1.0078125 v -2.625 h 1.816406 c 1.007813,0 1.183594,0.7851563 1.183594,1.2421875 0,0.7734375 -0.480469,1.3828125 -1.441406,1.3828125 z m 2.695313,0.1757813 c 1.078125,-0.1875 1.722656,-0.7851563 1.722656,-1.5585938 0,-0.9140625 -0.867188,-1.7109375 -2.472656,-1.7109375 h -4.324219 v 0.46875 h 1.078125 v 5.89453128 H 24.145672 V 3.59375e-4 h 4.628906 c 1.652344,0 2.484375,-0.878906245 2.484375,-1.851562475 0,-0.9609375 -0.855469,-1.6289063 -2.039062,-1.7109375 z m -0.855469,3.09374998 H 26.524578 V -3.3746406 h 1.933594 c 0.199219,0 0.667969,0 1.007812,0.421875 0.328125,0.421875 0.328125,0.984375 0.328125,1.0898437 0,0.1171875 0,1.39453128 -1.429687,1.39453128 z M 38.641766,2.4964531 v -0.609375 h -1.03125 v -8.7539062 h 1.03125 v -0.609375 h -1.640625 v 9.9726562 z m 0,0"
         style="fill:#338eca;fill-opacity:1;fill-rule:nonzero;stroke:none" />
      <path
         id="path113"
         d="m 42.450359,-5.3609687 c 0,-0.84375 -0.679687,-1.5 -1.5,-1.5 -0.84375,0 -1.5,0.6796875 -1.5,1.5 0,0.84375 0.679688,1.5 1.5,1.5 0.832032,0 1.5,-0.6796875 1.5,-1.5 z m -1.5,1.1484375 c -0.65625,0 -1.160156,-0.5273438 -1.160156,-1.1484375 0,-0.6445313 0.515625,-1.1601563 1.160156,-1.1601563 0.65625,0 1.160157,0.5390625 1.160157,1.1601563 0,0.6445312 -0.527344,1.1484375 -1.160157,1.1484375 z m 0,0"
         style="fill:#338eca;fill-opacity:1;fill-rule:nonzero;stroke:none" />
      <path
         id="path114"
         d="m 45.388836,-7.4762031 h -1.652344 v 0.609375 h 1.042969 v 8.7539062 h -1.042969 v 0.609375 h 1.652344 z m 0,0"
         style="fill:#338eca;fill-opacity:1;fill-rule:nonzero;stroke:none" />
    </g>
    <path
       id="path115"
       d="m 7.6288516,-6.6692422 c 0,-0.1875 0,-0.2695312 -0.1757813,-0.2695312 -0.09375,0 -0.1171875,0.011719 -0.1875,0.082031 l -0.65625,0.5859375 c -0.6210937,-0.4921875 -1.2890625,-0.6679687 -1.96875,-0.6679687 -2.484375,0 -4.00781249,1.4765625 -4.00781249,3.515625 0,2.0507812 1.52343749,3.52734371 4.00781249,3.52734371 1.8632813,0 2.9882813,-1.21875001 2.9882813,-2.36718751 0,-0.1992187 -0.070312,-0.2109375 -0.234375,-0.2109375 -0.1289063,0 -0.2226563,0 -0.234375,0.1757813 -0.070312,1.33593746 -1.2773438,1.93359371 -2.2734375,1.93359371 -0.7851563,0 -1.6171875,-0.234375 -2.1328125,-0.84375001 -0.46875,-0.5625 -0.5976563,-1.3125 -0.5976563,-2.2148437 0,-0.5507813 0.035156,-1.6289063 0.6679688,-2.2851563 0.6445312,-0.65625 1.5117187,-0.7734375 2.0273437,-0.7734375 1.078125,0 2.0273438,0.7617188 2.2382813,2.0273438 0.035156,0.1875 0.046875,0.2109375 0.2695312,0.2109375 0.2578125,0 0.2695313,-0.023437 0.2695313,-0.28125 z m 3.4716794,3.0703125 v -2.765625 h 1.171875 c 1.605469,0 1.617188,0.7734375 1.617188,1.3828125 0,0.5625 0,1.3828125 -1.640625,1.3828125 z m 2.660157,0.2109375 c 1.148437,-0.3046875 1.652343,-0.9492187 1.652343,-1.6054687 0,-1.0078125 -1.089843,-1.8398438 -2.964843,-1.8398438 H 8.6630313 v 0.46875 h 1.078125 v 5.89453126 h -1.078125 v 0.46875 c 0.3632812,-0.03515625 1.3359375,-0.03515625 1.7578127,-0.03515625 0.410156,0 1.394531,0 1.746094,0.03515625 v -0.46875 H 11.100531 V -3.2356484 h 1.160157 c 0.140625,0 0.574218,0 0.890625,0.3398437 0.316406,0.3398438 0.316406,0.5390625 0.316406,1.265625 0,0.65625001 0,1.13671876 0.691406,1.47656251 0.445313,0.22265625 1.054688,0.2578125 1.464844,0.2578125 1.066406,0 1.195312,-0.890625 1.195312,-1.0546875 0,-0.21093751 -0.140625,-0.21093751 -0.234375,-0.21093751 -0.210937,0 -0.222656,0.09375 -0.234375,0.22265626 -0.04687,0.46875 -0.339843,0.69140625 -0.632812,0.69140625 -0.597656,0 -0.691406,-0.71484375 -0.738281,-1.12500001 -0.02344,-0.1171875 -0.09375,-0.796875 -0.105469,-0.8554687 -0.140625,-0.6914063 -0.691406,-0.9960938 -1.113281,-1.1601563 z m 9.518554,0.65625 h -0.46875 c -0.08203,0.6914063 -0.257812,2.26171876 -2.039062,2.26171876 H 19.751898 V -6.3645547 h 1.335938 v -0.46875 c -0.433594,0.023437 -1.523438,0.023437 -2.003906,0.023437 -0.445313,0 -1.453125,0 -1.828125,-0.023437 v 0.46875 h 1.078125 v 5.89453126 h -1.078125 v 0.46875 h 5.707031 z m 3.246094,-1.0078125 v -2.625 h 1.816406 c 1.007813,0 1.183594,0.7851563 1.183594,1.2421875 0,0.7734375 -0.480469,1.3828125 -1.441406,1.3828125 z m 2.695312,0.1757813 c 1.078125,-0.1875 1.722657,-0.7851563 1.722657,-1.5585938 0,-0.9140625 -0.867188,-1.7109375 -2.472657,-1.7109375 H 24.14643 v 0.46875 h 1.078125 v 5.89453126 H 24.14643 v 0.46875 h 4.628906 c 1.652344,0 2.484375,-0.87890625 2.484375,-1.85156246 0,-0.9609375 -0.855469,-1.6289063 -2.039063,-1.7109375 z M 28.36518,-0.47002344 H 26.525336 V -3.3762734 h 1.933594 c 0.199218,0 0.667968,0 1.007812,0.421875 0.328125,0.421875 0.328125,0.984375 0.328125,1.0898437 0,0.1171875 0,1.39453126 -1.429687,1.39453126 z M 40.763617,-3.7512734 c 0.05859,-0.140625 0.105469,-0.1992188 0.738281,-0.1992188 v -0.46875 c -0.246093,0.011719 -0.539062,0.023437 -0.785156,0.023437 -0.246094,0 -0.703125,-0.023437 -0.902344,-0.023437 v 0.46875 c 0.1875,0 0.46875,0.023437 0.46875,0.1054688 0,0.011719 -0.01172,0.023437 -0.04687,0.1171875 l -1.160156,2.4960937 -1.253906,-2.71875 h 0.527344 v -0.46875 c -0.328125,0.011719 -1.21875,0.023437 -1.230469,0.023437 -0.28125,0 -0.726563,-0.023437 -1.136719,-0.023437 v 0.46875 h 0.644531 l 1.734375,3.73828126 c 0.117188,0.24609375 0.257813,0.24609375 0.386719,0.24609375 0.164063,0 0.269531,-0.0234375 0.363281,-0.234375 z m 3.105469,0.8203125 c -0.363281,-0.070312 -1.007813,-0.1757813 -1.007813,-0.6445313 0,-0.6210937 0.925782,-0.6210937 1.113282,-0.6210937 0.75,0 1.125,0.2929687 1.171875,0.84375 0.01172,0.140625 0.02344,0.1992187 0.234375,0.1992187 0.234375,0 0.234375,-0.058594 0.234375,-0.28125 v -0.796875 c 0,-0.1875 0,-0.28125 -0.175782,-0.28125 -0.04687,0 -0.05859,0 -0.445312,0.1875 -0.269531,-0.1289062 -0.609375,-0.1875 -1.007813,-0.1875 -0.304687,0 -1.839843,0 -1.839843,1.3007813 0,0.3984375 0.199218,0.6679687 0.398437,0.84375 0.398438,0.3398437 0.785156,0.4101562 1.546875,0.5390625 0.363281,0.070312 1.101563,0.1992187 1.101563,0.7851562 0,0.73828126 -0.914063,0.73828126 -1.125,0.73828126 -1.066407,0 -1.324219,-0.72656246 -1.441407,-1.14843746 -0.04687,-0.140625 -0.09375,-0.140625 -0.234375,-0.140625 -0.246093,0 -0.246093,0.058594 -0.246093,0.2929687 v 1.07812501 c 0,0.1875 0,0.28125 0.1875,0.28125 0.07031,0 0.08203,0 0.292968,-0.15234375 0.01172,0 0.234375,-0.140625 0.257813,-0.1640625 0.457031,0.31640625 0.984375,0.31640625 1.183594,0.31640625 0.304687,0 1.839843,0 1.839843,-1.45312501 0,-0.4335937 -0.199218,-0.7734375 -0.550781,-1.0546875 -0.386719,-0.2929687 -0.703125,-0.3515625 -1.488281,-0.4804687 z m 11.683594,1.6171875 -2.390625,-5.2734375 c -0.105469,-0.2460938 -0.222657,-0.2460938 -0.433594,-0.2460938 h -2.214844 v 0.46875 h 1.078125 v 5.60156251 c 0,0.22265625 -0.01172,0.234375 -0.292969,0.2578125 -0.234375,0.0351562 -0.257812,0.0351562 -0.539062,0.0351562 h -0.246094 v 0.46875 c 0.375,-0.03515625 0.949219,-0.03515625 1.335938,-0.03515625 0.421875,0 0.9375,0 1.347656,0.03515625 v -0.46875 h -0.257813 c -0.175781,0 -0.339843,-0.0117188 -0.527343,-0.0351562 -0.28125,-0.0234375 -0.292969,-0.0351563 -0.292969,-0.2578125 V -6.2356484 h 0.01172 l 2.707031,5.98828121 c 0.09375,0.19921875 0.210937,0.24609375 0.316406,0.24609375 0.199219,0 0.28125,-0.15234375 0.316406,-0.234375 l 2.777344,-6.12890626 h 0.01172 v 5.89453126 h -1.066406 v 0.46875 c 0.351562,-0.03515625 1.277343,-0.03515625 1.6875,-0.03515625 0.410156,0 1.347656,0 1.699218,0.03515625 v -0.46875 H 59.513617 V -6.3645547 h 1.066406 v -0.46875 h -2.191406 c -0.222656,0 -0.339844,0 -0.445312,0.2460938 z m 9.448242,-2.8125 -1.453125,-0.3046875 c -0.398438,-0.09375 -0.949219,-0.4335938 -0.949219,-1.0429688 0,-0.421875 0.28125,-1.0429687 1.277344,-1.0429687 0.796875,0 1.804687,0.3398437 2.027344,1.6992187 0.03516,0.234375 0.03516,0.2578125 0.246093,0.2578125 0.246094,0 0.246094,-0.058594 0.246094,-0.28125 v -1.828125 c 0,-0.1875 0,-0.2695312 -0.1875,-0.2695312 -0.07031,0 -0.08203,0 -0.199219,0.1054687 l -0.445312,0.4335938 c -0.574219,-0.4570313 -1.21875,-0.5390625 -1.699219,-0.5390625 -1.511719,0 -2.238281,0.9492187 -2.238281,1.9921875 0,0.65625 0.328125,1.1132812 0.539062,1.3242187 0.492188,0.4921875 0.832032,0.5625 1.921875,0.796875 0.867188,0.1992188 1.042969,0.2226563 1.253907,0.4335938 0.152343,0.1523437 0.398437,0.4101562 0.398437,0.8671875 0,0.4804687 -0.257812,1.16015621 -1.289062,1.16015621 -0.761719,0 -2.273438,-0.19921875 -2.355469,-1.67578121 0,-0.1875 0,-0.234375 -0.222656,-0.234375 -0.246094,0 -0.246094,0.058594 -0.246094,0.2929687 v 1.81640626 c 0,0.1875 0,0.26953125 0.1875,0.26953125 0.08203,0 0.105469,-0.01171875 0.1875,-0.08203125 l 0.457031,-0.45703125 c 0.65625,0.48046875 1.582031,0.5390625 1.992188,0.5390625 1.640625,0 2.261718,-1.12500001 2.261718,-2.13281251 0,-1.1015625 -0.808593,-1.9101562 -1.710937,-2.0976562 z m 9.5625,1.3945312 h -0.46875 c -0.222656,1.3710938 -0.503906,2.26171876 -2.34375,2.26171876 H 70.239203 V -3.2825234 h 0.539063 c 0.960937,0 1.066406,0.4335937 1.066406,1.171875 h 0.457031 v -2.8007813 h -0.457031 c 0,0.7382813 -0.09375,1.1601563 -1.066406,1.1601563 h -0.539063 v -2.5546875 h 1.511719 c 1.605469,0 1.863281,0.7265625 2.015625,1.9335937 h 0.46875 l -0.304688,-2.4023437 h -6.1875 v 0.46875 h 1.078125 v 5.83593746 h -1.078125 v 0.46875 h 6.351563 z m 5.296875,-1.6875 h -0.738281 v 0.46875 h 0.738281 v 3.48046876 h -0.679688 v 0.46875 c 0.351563,-0.01171875 0.796875,-0.03515625 1.253907,-0.03515625 0.375,0 1.019531,0 1.371093,0.03515625 v -0.46875 H 80.938422 V -3.9504922 h 1.148437 v -0.46875 h -1.207031 v -1.0078125 c 0,-1.1015625 0.761719,-1.1835937 1.007813,-1.1835937 0.04687,0 0.105468,0 0.164062,0.011719 -0.140625,0.1171875 -0.222656,0.3046875 -0.222656,0.4921875 0,0.421875 0.351562,0.6210938 0.609375,0.6210938 0.292969,0 0.609375,-0.2109375 0.609375,-0.6210938 0,-0.421875 -0.351563,-0.8671875 -1.125,-0.8671875 -0.984375,0 -2.0625,0.421875 -2.0625,1.546875 z m 7.743164,2.25 c 0,-1.3359375 -0.914063,-2.34375 -2.542969,-2.34375 -1.628906,0 -2.542969,1.0195313 -2.542969,2.34375 0,1.23046876 0.878907,2.22656251 2.542969,2.22656251 1.675781,0 2.542969,-1.0078125 2.542969,-2.22656251 z m -2.542969,1.82812501 c -1.265625,0 -1.265625,-1.07812501 -1.265625,-1.94531251 0,-0.4453125 0,-0.9492187 0.164063,-1.2890625 0.199218,-0.375 0.609375,-0.5742187 1.101562,-0.5742187 0.421875,0 0.832031,0.1523437 1.054688,0.5039062 0.210937,0.3398438 0.210937,0.890625 0.210937,1.359375 0,0.8671875 0,1.94531251 -1.265625,1.94531251 z M 89.956,-3.3528359 v -1.1367188 l -1.664062,0.082031 v 0.46875 c 0.621093,0 0.691406,0 0.691406,0.3867187 v 3.08203126 h -0.691406 v 0.46875 c 0.351562,-0.01171875 0.796875,-0.03515625 1.265625,-0.03515625 0.375,0 1.007812,0 1.371093,0.03515625 v -0.46875 H 90.061469 V -2.2161172 c 0,-0.6914062 0.246094,-1.9101562 1.242187,-1.9101562 -0.01172,0.011719 -0.1875,0.1757812 -0.1875,0.4570312 0,0.4101563 0.316407,0.609375 0.609375,0.609375 0.292969,0 0.609375,-0.2109375 0.609375,-0.609375 0,-0.5273437 -0.539062,-0.8203125 -1.054687,-0.8203125 -0.703125,0 -1.101563,0.5039063 -1.324219,1.1367188 z m 13.84277,-0.3984375 c 0.0586,-0.1289063 0.0937,-0.1992188 0.67969,-0.1992188 v -0.46875 c -0.22266,0.011719 -0.52734,0.023437 -0.76172,0.023437 -0.26953,0 -0.73828,-0.023437 -0.96094,-0.023437 v 0.46875 c 0.0937,0 0.58594,0 0.58594,0.1171875 0,0.023437 -0.0352,0.082031 -0.0469,0.1171875 l -1.04297,2.5546875 -1.13672,-2.7890625 h 0.5625 v -0.46875 c -0.32813,0 -0.84375,0.023437 -1.13672,0.023437 -0.42187,0 -0.843749,-0.023437 -0.996093,-0.023437 v 0.46875 h 0.585933 c 0.21094,0.4921875 0.21094,0.515625 0.21094,0.5273438 0,0.035156 -0.0352,0.09375 -0.0469,0.1289062 l -0.785159,1.9101563 -1.042969,-2.5664063 h 0.550781 v -0.46875 c -0.398437,0.011719 -0.808593,0.023437 -1.21875,0.023437 -0.304687,0 -0.75,-0.023437 -1.089843,-0.023437 v 0.46875 h 0.585937 l 1.523438,3.71484376 c 0.07031,0.17578125 0.117187,0.26953125 0.363281,0.26953125 0.246094,0 0.292969,-0.09375 0.363281,-0.26953125 l 1.054683,-2.57812496 1.05469,2.57812496 c 0.0703,0.17578125 0.10547,0.26953125 0.35156,0.26953125 0.25782,0 0.29297,-0.09375 0.36329,-0.26953125 z m 3.167,-0.7382813 -1.72266,0.082031 v 0.46875 c 0.58594,0 0.65625,0 0.65625,0.3867187 v 3.08203126 h -0.69141 v 0.46875 c 0.30469,-0.01171875 0.79688,-0.03515625 1.21875,-0.03515625 0.29297,0 0.8086,0.0234375 1.16016,0.03515625 v -0.46875 h -0.62109 z m 0.10546,-1.6523437 c 0,-0.4453125 -0.36328,-0.7851563 -0.77343,-0.7851563 -0.4336,0 -0.78516,0.3515625 -0.78516,0.7851563 0,0.421875 0.35156,0.7734375 0.78516,0.7734375 0.41015,0 0.77343,-0.3398438 0.77343,-0.7734375 z m 5.00977,5.70703121 v 0.4921875 l 1.82813,-0.05859375 v -0.46875 c -0.6211,0 -0.69141,0 -0.69141,-0.38671875 V -6.9153359 l -1.75781,0.082031 v 0.46875 c 0.60937,0 0.67968,0 0.67968,0.3867188 v 1.9453125 c -0.49218,-0.3867188 -1.00781,-0.4570313 -1.33593,-0.4570313 -1.45313,0 -2.50782,0.8789063 -2.50782,2.2851563 0,1.31249996 0.92579,2.26171871 2.39063,2.26171871 0.60937,0 1.08984,-0.234375 1.39453,-0.4921873 z m 0,-3.08203121 v 2.484375 c -0.12891,0.18749996 -0.53906,0.72656246 -1.28906,0.72656246 -1.21875,0 -1.21875,-1.19531246 -1.21875,-1.89843746 0,-0.4804688 0,-1.0195313 0.25781,-1.40625 0.29297,-0.4101563 0.76172,-0.515625 1.06641,-0.515625 0.57422,0 0.97265,0.3164062 1.18359,0.609375 z m 6.81152,1.3476562 c 0.21094,0 0.31641,0 0.31641,-0.2695312 0,-0.3164063 -0.0586,-1.0429688 -0.5625,-1.5351563 -0.36328,-0.3632812 -0.89063,-0.5390625 -1.58203,-0.5390625 -1.59375,0 -2.46094,1.0195313 -2.46094,2.2734375 0,1.33593751 0.99609,2.29687501 2.60156,2.29687501 1.57032,0 2.00391,-1.0546875 2.00391,-1.21875001 0,-0.1875 -0.1875,-0.1875 -0.23438,-0.1875 -0.17578,0 -0.19921,0.046875 -0.25781,0.2109375 -0.21094,0.48046876 -0.77344,0.79687501 -1.41797,0.79687501 -1.40625,0 -1.41797,-1.32421871 -1.41797,-1.82812501 z m -3.01172,-0.328125 c 0.0234,-0.3984375 0.0352,-0.8085937 0.23438,-1.1367187 0.26953,-0.3984375 0.66797,-0.515625 0.94922,-0.515625 1.17187,0 1.18359,1.3007812 1.19531,1.6523437 z m 5.78907,-1.5 v -2.9179687 l -1.76953,0.082031 v 0.46875 c 0.62109,0 0.6914,0 0.6914,0.3867188 v 5.97656246 h 0.46875 l 0.49219,-0.5625 c 0.082,0.0820312 0.5625,0.62109375 1.45312,0.62109375 1.47657,0 2.50782,-0.890625 2.50782,-2.28515621 0,-1.3242188 -0.9375,-2.2617188 -2.37891,-2.2617188 -0.72656,0 -1.23047,0.2929688 -1.46484,0.4921877 z m 0.0586,3.01171876 V -3.4934609 c 0.26953,-0.3398438 0.75,-0.6328125 1.30078,-0.6328125 1.20703,0 1.20703,1.2070312 1.20703,1.8984375 0,0.46875 0,1.0195312 -0.25781,1.40624996 -0.29297,0.41015625 -0.75,0.515625 -1.06641,0.515625 -0.6914,0 -1.07812,-0.52734375 -1.18359,-0.6796875 z m 7.90137,0.22265625 c 0,0.3046875 0,0.76171875 1.03125,0.76171875 h 0.48047 c 0.19922,0 0.3164,0 0.3164,-0.234375 0,-0.234375 -0.1289,-0.234375 -0.25781,-0.234375 -0.60937,-0.0117188 -0.60937,-0.140625 -0.60937,-0.36328125 V -2.9778359 c 0,-0.890625 -0.70313,-1.5351563 -2.19141,-1.5351563 -0.5625,0 -1.78125,0.035156 -1.78125,0.9140625 0,0.4453125 0.35156,0.6328125 0.62109,0.6328125 0.30469,0 0.6211,-0.2109375 0.6211,-0.6328125 0,-0.2929687 -0.1875,-0.46875 -0.21094,-0.4921875 0.28125,-0.058594 0.59766,-0.058594 0.71484,-0.058594 0.75,0 1.08985,0.4101562 1.08985,1.171875 v 0.3398437 c -0.70313,0.023437 -3.23438,0.1171875 -3.23438,1.5585938 0,0.96093746 1.24219,1.13671871 1.92188,1.13671871 0.79687,0 1.26562,-0.41015625 1.48828,-0.8203122 z m -0.17578,-1.57031251 v 0.9492188 c 0,0.94921871 -0.91407,1.07812496 -1.16016,1.07812496 -0.50391,0 -0.90234,-0.33984375 -0.90234,-0.78515626 0,-1.0664062 1.57031,-1.2070312 2.0625,-1.2421875 z m 3.15527,-1.21875 v 3.08203126 h -0.69141 v 0.46875 c 0.28125,-0.01171875 0.87891,-0.03515625 1.25391,-0.03515625 0.39844,0 0.98438,0.0234375 1.25391,0.03515625 v -0.46875 h -0.67969 V -2.5559609 c 0,-1.078125 0.85547,-1.5703125 1.47656,-1.5703125 0.33985,0 0.55078,0.2109375 0.55078,0.9726562 v 2.68359376 h -0.67968 v 0.46875 c 0.26953,-0.01171875 0.86718,-0.03515625 1.2539,-0.03515625 0.38672,0 0.97266,0.0234375 1.25391,0.03515625 v -0.46875 H 136.9101 V -3.0481484 c 0,-1.0429688 -0.53906,-1.4414063 -1.53515,-1.4414063 -0.94922,0 -1.47657,0.5742188 -1.7461,1.078125 v -1.078125 l -1.71094,0.082031 v 0.46875 c 0.6211,0 0.69141,0 0.69141,0.3867187 z m 9.38672,3.11718751 v 0.4921875 l 1.82812,-0.05859375 v -0.46875 c -0.62109,0 -0.6914,0 -0.6914,-0.38671875 V -6.9153359 l -1.75781,0.082031 v 0.46875 c 0.60937,0 0.67968,0 0.67968,0.3867188 v 1.9453125 c -0.49218,-0.3867188 -1.00781,-0.4570313 -1.33593,-0.4570313 -1.45313,0 -2.50782,0.8789063 -2.50782,2.2851563 0,1.31249996 0.92578,2.26171871 2.39063,2.26171871 0.60937,0 1.08984,-0.234375 1.39453,-0.4921873 z m 0,-3.08203121 v 2.484375 c -0.12891,0.18749996 -0.53906,0.72656246 -1.28906,0.72656246 -1.21875,0 -1.21875,-1.19531246 -1.21875,-1.89843746 0,-0.4804688 0,-1.0195313 0.25781,-1.40625 0.29297,-0.4101563 0.76172,-0.515625 1.06641,-0.515625 0.57421,0 0.97265,0.3164062 1.18359,0.609375 z m 7.15723,-0.035156 v 3.08203126 h -0.69141 v 0.46875 c 0.28125,-0.01171875 0.87891,-0.03515625 1.25391,-0.03515625 0.39843,0 0.98437,0.0234375 1.2539,0.03515625 v -0.46875 h -0.67969 V -2.5559609 c 0,-1.078125 0.85547,-1.5703125 1.47657,-1.5703125 0.33984,0 0.55078,0.2109375 0.55078,0.9726562 v 2.68359376 h -0.67969 v 0.46875 c 0.26953,-0.01171875 0.86719,-0.03515625 1.25391,-0.03515625 0.38672,0 0.97265,0.0234375 1.2539,0.03515625 v -0.46875 h -0.6914 V -3.0481484 c 0,-1.0429688 -0.53907,-1.4414063 -1.53516,-1.4414063 -0.94922,0 -1.47656,0.5742188 -1.74609,1.078125 v -1.078125 l -1.71094,0.082031 v 0.46875 c 0.62109,0 0.69141,0 0.69141,0.3867193 z m 10.63183,1.3828125 c 0,-1.3359375 -0.91406,-2.34375 -2.54297,-2.34375 -1.6289,0 -2.54297,1.0195313 -2.54297,2.34375 0,1.23046876 0.87891,2.22656251 2.54297,2.22656251 1.67578,0 2.54297,-1.0078125 2.54297,-2.22656251 z m -2.54297,1.82812501 c -1.26562,0 -1.26562,-1.07812501 -1.26562,-1.94531251 0,-0.4453125 0,-0.9492187 0.16406,-1.2890625 0.19922,-0.375 0.60938,-0.5742187 1.10156,-0.5742187 0.42188,0 0.83203,0.1523437 1.05469,0.5039062 0.21094,0.3398438 0.21094,0.890625 0.21094,1.359375 0,0.8671875 0,1.94531251 -1.26563,1.94531251 z m 5.09473,-4.14843751 -1.72266,0.082031 v 0.46875 c 0.58594,0 0.65625,0 0.65625,0.3867187 v 3.08203126 h -0.6914 v 0.46875 c 0.30468,-0.01171875 0.79687,-0.03515625 1.21875,-0.03515625 0.29297,0 0.80859,0.0234375 1.16015,0.03515625 v -0.46875 h -0.62109 z m 0.10547,-1.6523437 c 0,-0.4453125 -0.36328,-0.7851563 -0.77344,-0.7851563 -0.43359,0 -0.78516,0.3515625 -0.78516,0.7851563 0,0.421875 0.35157,0.7734375 0.78516,0.7734375 0.41016,0 0.77344,-0.3398438 0.77344,-0.7734375 z m 2.95898,3.2109375 c -0.36328,-0.070312 -1.00781,-0.1757813 -1.00781,-0.6445313 0,-0.6210937 0.92578,-0.6210937 1.11328,-0.6210937 0.75,0 1.125,0.2929687 1.17188,0.84375 0.0117,0.140625 0.0234,0.1992187 0.23437,0.1992187 0.23438,0 0.23438,-0.058594 0.23438,-0.28125 v -0.796875 c 0,-0.1875 0,-0.28125 -0.17578,-0.28125 -0.0469,0 -0.0586,0 -0.44532,0.1875 -0.26953,-0.1289062 -0.60937,-0.1875 -1.00781,-0.1875 -0.30469,0 -1.83984,0 -1.83984,1.3007813 0,0.3984375 0.19922,0.6679687 0.39843,0.84375 0.39844,0.3398437 0.78516,0.4101562 1.54688,0.5390625 0.36328,0.070312 1.10156,0.1992187 1.10156,0.7851562 0,0.73828126 -0.91406,0.73828126 -1.125,0.73828126 -1.0664,0 -1.32422,-0.72656246 -1.4414,-1.14843746 -0.0469,-0.140625 -0.0937,-0.140625 -0.23438,-0.140625 -0.24609,0 -0.24609,0.058594 -0.24609,0.2929687 v 1.07812501 c 0,0.1875 0,0.28125 0.1875,0.28125 0.0703,0 0.082,0 0.29297,-0.15234375 0.0117,0 0.23437,-0.140625 0.25781,-0.1640625 0.45703,0.31640625 0.98437,0.31640625 1.18359,0.31640625 0.30469,0 1.83985,0 1.83985,-1.45312501 0,-0.4335937 -0.19922,-0.7734375 -0.55079,-1.0546875 -0.38671,-0.2929687 -0.70312,-0.3515625 -1.48828,-0.4804687 z m 7.02539,0.7617187 c 0.21094,0 0.31641,0 0.31641,-0.2695312 0,-0.3164063 -0.0586,-1.0429688 -0.5625,-1.5351563 -0.36328,-0.3632812 -0.89063,-0.5390625 -1.58203,-0.5390625 -1.59375,0 -2.46094,1.0195313 -2.46094,2.2734375 0,1.33593751 0.99609,2.29687501 2.60156,2.29687501 1.57032,0 2.00391,-1.0546875 2.00391,-1.21875001 0,-0.1875 -0.1875,-0.1875 -0.23438,-0.1875 -0.17578,0 -0.19921,0.046875 -0.25781,0.2109375 -0.21094,0.48046876 -0.77344,0.79687501 -1.41797,0.79687501 -1.40625,0 -1.41797,-1.32421871 -1.41797,-1.82812501 z m -3.01172,-0.328125 c 0.0234,-0.3984375 0.0352,-0.8085937 0.23438,-1.1367187 0.26953,-0.3984375 0.66797,-0.515625 0.94922,-0.515625 1.17187,0 1.18359,1.3007812 1.19531,1.6523437 z m 9.57129,-0.4335937 c -0.36328,-0.070312 -1.00781,-0.1757813 -1.00781,-0.6445313 0,-0.6210937 0.92578,-0.6210937 1.11328,-0.6210937 0.75,0 1.125,0.2929687 1.17188,0.84375 0.0117,0.140625 0.0234,0.1992187 0.23437,0.1992187 0.23438,0 0.23438,-0.058594 0.23438,-0.28125 v -0.796875 c 0,-0.1875 0,-0.28125 -0.17578,-0.28125 -0.0469,0 -0.0586,0 -0.44532,0.1875 -0.26953,-0.1289062 -0.60937,-0.1875 -1.00781,-0.1875 -0.30469,0 -1.83984,0 -1.83984,1.3007813 0,0.3984375 0.19922,0.6679687 0.39843,0.84375 0.39844,0.3398437 0.78516,0.4101562 1.54688,0.5390625 0.36328,0.070312 1.10156,0.1992187 1.10156,0.7851562 0,0.73828126 -0.91406,0.73828126 -1.125,0.73828126 -1.0664,0 -1.32422,-0.72656246 -1.4414,-1.14843746 -0.0469,-0.140625 -0.0937,-0.140625 -0.23438,-0.140625 -0.24609,0 -0.24609,0.058594 -0.24609,0.2929687 v 1.07812501 c 0,0.1875 0,0.28125 0.1875,0.28125 0.0703,0 0.082,0 0.29297,-0.15234375 0.0117,0 0.23437,-0.140625 0.25781,-0.1640625 0.45703,0.31640625 0.98437,0.31640625 1.18359,0.31640625 0.30469,0 1.83985,0 1.83985,-1.45312501 0,-0.4335937 -0.19922,-0.7734375 -0.55079,-1.0546875 -0.38671,-0.2929687 -0.70312,-0.3515625 -1.48828,-0.4804687 z m 4.64942,-1.5585938 -1.72266,0.082031 v 0.46875 c 0.58594,0 0.65625,0 0.65625,0.3867187 v 3.08203126 h -0.6914 v 0.46875 c 0.30468,-0.01171875 0.79687,-0.03515625 1.21875,-0.03515625 0.29296,0 0.80859,0.0234375 1.16015,0.03515625 v -0.46875 h -0.62109 z m 0.10547,-1.6523437 c 0,-0.4453125 -0.36328,-0.7851563 -0.77344,-0.7851563 -0.43359,0 -0.78516,0.3515625 -0.78516,0.7851563 0,0.421875 0.35157,0.7734375 0.78516,0.7734375 0.41016,0 0.77344,-0.3398438 0.77344,-0.7734375 z m 3.39257,4.2421875 c -0.8789,0 -0.8789,-0.65625 -0.8789,-1.1132813 0,-0.4453125 0,-1.1132812 0.8789,-1.1132812 0.87891,0 0.87891,0.6679687 0.87891,1.1132812 0,0.4570313 0,1.1132813 -0.87891,1.1132813 z m -1.21875,0.1054687 c 0.45704,0.234375 0.97266,0.2578125 1.21875,0.2578125 1.42969,0 1.98047,-0.7734375 1.98047,-1.4765625 0,-0.46875 -0.24609,-0.796875 -0.39843,-0.9492187 0.29296,-0.1640625 0.5039,-0.1875 0.62109,-0.1875 -0.0234,0.046875 -0.0469,0.1289062 -0.0469,0.1992187 0,0.2460938 0.17579,0.421875 0.4336,0.421875 0.25781,0 0.42187,-0.1875 0.42187,-0.421875 0,-0.234375 -0.16406,-0.5859375 -0.62109,-0.5859375 -0.15234,0 -0.62109,0.035156 -1.05469,0.3867188 -0.1875,-0.1289063 -0.59765,-0.3398438 -1.33594,-0.3398438 -1.4414,0 -1.98046,0.7851563 -1.98046,1.4765625 0,0.4101563 0.19921,0.8203125 0.51562,1.0546875 -0.28125,0.3398438 -0.33984,0.6679688 -0.33984,0.8789063 0,0.15234371 0.0352,0.64453121 0.43359,0.96093746 -0.12891,0.0234375 -0.85547,0.234375 -0.85547,0.8671875 0,0.50390624 0.55078,1.25390624 2.54297,1.25390624 1.75781,0 2.54297,-0.5859375 2.54297,-1.28906249 0,-0.29296875 -0.082,-0.92578125 -0.75,-1.265625 -0.5625,-0.28125 -1.16016,-0.28125 -2.10938,-0.28125 -0.25781,0 -0.71484,0 -0.77343,0 -0.4336,-0.0703125 -0.53907,-0.45703121 -0.53907,-0.63281251 0,-0.09375 0.0352,-0.2460937 0.0937,-0.328125 z m 0.6211,1.92187501 h 1.16015 c 0.31641,0 1.44141,0 1.44141,0.62109375 0,0.35156254 -0.39844,0.89062504 -1.6875,0.89062504 -1.19531,0 -1.6875,-0.4570313 -1.6875,-0.91406254 0,-0.59765625 0.63281,-0.59765625 0.77344,-0.59765625 z m 4.91894,-3.67968751 v 3.08203126 h -0.6914 v 0.46875 c 0.28125,-0.01171875 0.8789,-0.03515625 1.2539,-0.03515625 0.39844,0 0.98438,0.0234375 1.25391,0.03515625 v -0.46875 h -0.67969 V -2.5559609 c 0,-1.078125 0.85547,-1.5703125 1.47656,-1.5703125 0.33985,0 0.55079,0.2109375 0.55079,0.9726562 v 2.68359376 h -0.67969 v 0.46875 c 0.26953,-0.01171875 0.86719,-0.03515625 1.2539,-0.03515625 0.38672,0 0.97266,0.0234375 1.25391,0.03515625 v -0.46875 H 195.7558 V -3.0481484 c 0,-1.0429688 -0.53906,-1.4414063 -1.53515,-1.4414063 -0.94922,0 -1.47656,0.5742188 -1.7461,1.078125 v -1.078125 l -1.71093,0.082031 v 0.46875 c 0.62109,0 0.6914,0 0.6914,0.3867187 z m 8.95606,2.78906251 c 0,0.3046875 0,0.76171875 1.03125,0.76171875 h 0.48047 c 0.19922,0 0.3164,0 0.3164,-0.234375 0,-0.234375 -0.1289,-0.234375 -0.25781,-0.234375 -0.60937,-0.0117188 -0.60937,-0.140625 -0.60937,-0.36328125 V -2.9778359 c 0,-0.890625 -0.70313,-1.5351563 -2.19141,-1.5351563 -0.5625,0 -1.78125,0.035156 -1.78125,0.9140625 0,0.4453125 0.35156,0.6328125 0.62109,0.6328125 0.30469,0 0.6211,-0.2109375 0.6211,-0.6328125 0,-0.2929687 -0.1875,-0.46875 -0.21094,-0.4921875 0.28125,-0.058594 0.59766,-0.058594 0.71484,-0.058594 0.75,0 1.08985,0.4101562 1.08985,1.171875 v 0.3398437 c -0.70313,0.023437 -3.23438,0.1171875 -3.23438,1.5585938 0,0.96093746 1.24219,1.13671871 1.92188,1.13671871 0.79687,0 1.26562,-0.41015625 1.48828,-0.8203119 z M 200.2353,-2.3333047 v 0.9492188 c 0,0.94921871 -0.91407,1.07812496 -1.16016,1.07812496 -0.50391,0 -0.90234,-0.33984375 -0.90234,-0.78515626 0,-1.0664062 1.57031,-1.2070312 2.0625,-1.2421875 z m 4.24511,-4.5820312 -1.75781,0.082031 v 0.46875 c 0.6211,0 0.69141,0 0.69141,0.3867188 v 5.50781246 h -0.69141 v 0.46875 c 0.31641,-0.01171875 0.79688,-0.03515625 1.23047,-0.03515625 0.42188,0 0.87891,0.0234375 1.21875,0.03515625 v -0.46875 h -0.69141 z m 0,0"
       style="fill:#d9d9d9;fill-opacity:1;fill-rule:nonzero;stroke:none"
       aria-label="CRLBvsMSEforwidebandnoisesignal"
       transform="matrix(1.3333333,0,0,1.3333333,470.72667,13.294667)" />
    <path
       id="path116"
       d="m 238.63214,0 h -4.25197 m 4.25197,45.84612 h -4.25197 m 4.25197,45.84613 h -4.25197"
       style="fill:none;stroke:#d95319;stroke-width:0.19925;stroke-linecap:butt;stroke-linejoin:miter;stroke-miterlimit:10;stroke-dasharray:none;stroke-opacity:1"
       transform="matrix(1.3333333,0,0,-1.3333333,448.59733,188.13467)" />
    <path
       id="path117"
       d="M 238.63214,0 V 114.61531"
       style="fill:none;stroke:#d95319;stroke-width:1.0959;stroke-linecap:butt;stroke-linejoin:miter;stroke-miterlimit:10;stroke-dasharray:none;stroke-opacity:1"
       transform="matrix(1.3333333,0,0,-1.3333333,448.59733,188.13467)" />
    <path
       id="path118"
       d="m 4.5806328,-3.1879531 c 0,-0.796875 -0.046875,-1.59375 -0.3984375,-2.3320313 -0.4570312,-0.9609375 -1.2773437,-1.1132812 -1.6875,-1.1132812 -0.5976562,0 -1.3359375,0.2578125 -1.73437499,1.1835937 -0.328125,0.6914063 -0.375,1.4648438 -0.375,2.2617188 0,0.75 0.046875,1.640625 0.4453125,2.40234373 0.43359379,0.80859375 1.16015629,1.0078125 1.65234379,1.0078125 0.5390625,0 1.2890625,-0.2109375 1.734375,-1.16015625 C 4.5337578,-1.6293594 4.5806328,-2.4027969 4.5806328,-3.1879531 Z M 2.4829766,-4.53125e-4 c -0.3867188,0 -0.984375,-0.246093745 -1.1601563,-1.207031275 -0.1054687,-0.5976562 -0.1054687,-1.5117187 -0.1054687,-2.0976562 0,-0.6445313 0,-1.3007813 0.082031,-1.8398438 0.1875,-1.1835937 0.9257813,-1.265625 1.1835938,-1.265625 0.328125,0 0.984375,0.1757813 1.171875,1.1601563 0.09375,0.5625 0.09375,1.3125 0.09375,1.9453125 0,0.75 0,1.4179687 -0.1054688,2.0625 -0.1523437,0.93749998 -0.7148437,1.242187475 -1.160156,1.242187475 z m 0,0"
       style="fill:#d95319;fill-opacity:1;fill-rule:nonzero;stroke:none"
       aria-label="0"
       transform="matrix(1.3333333,0,0,1.3333333,772.52533,192.41467)" />
    <path
       id="path119"
       d="m 2.9282891,-6.3742031 c 0,-0.234375 0,-0.2578125 -0.234375,-0.2578125 -0.609375,0.6328125 -1.4882813,0.6328125 -1.80468754,0.6328125 v 0.3164062 c 0.19921874,0 0.78515624,0 1.30078124,-0.2578125 v 5.15625002 c 0,0.3515625 -0.035156,0.48046875 -0.9257812,0.48046875 H 0.94782031 V 7.96875e-4 C 1.2993828,-0.03435938 2.1548516,-0.03435938 2.5532891,-0.03435938 c 0.3984375,0 1.265625,0 1.6171875,0.035156255 V -0.30389063 H 3.8540703 c -0.9023437,0 -0.9257812,-0.1171875 -0.9257812,-0.48046875 z m 6.6357422,3.1875 c 0,-0.796875 -0.046875,-1.59375 -0.3984375,-2.3320313 -0.4570313,-0.9609375 -1.2773438,-1.1132812 -1.6875,-1.1132812 -0.5976563,0 -1.3359375,0.2578125 -1.734375,1.1835937 -0.328125,0.6914063 -0.375,1.4648438 -0.375,2.2617188 0,0.75 0.046875,1.640625 0.4453125,2.40234372 0.4335937,0.80859375 1.1601562,1.0078125 1.6523437,1.0078125 0.5390625,0 1.2890625,-0.2109375 1.734375,-1.16015625 C 9.5171563,-1.6281094 9.5640313,-2.4015469 9.5640313,-3.1867031 Z M 7.466375,7.96875e-4 C 7.0796563,7.96875e-4 6.482,-0.24529688 6.3062188,-1.2062344 6.20075,-1.8038906 6.20075,-2.7179531 6.20075,-3.3038906 c 0,-0.6445313 0,-1.3007813 0.082031,-1.8398438 0.1875,-1.1835937 0.9257812,-1.265625 1.1835937,-1.265625 0.328125,0 0.984375,0.1757813 1.171875,1.1601563 0.09375,0.5625 0.09375,1.3125 0.09375,1.9453125 0,0.75 0,1.4179687 -0.1054687,2.0625 C 8.4741875,-0.30389063 7.9116875,7.96875e-4 7.466375,7.96875e-4 Z m 0,0"
       style="fill:#d95319;fill-opacity:1;fill-rule:nonzero;stroke:none"
       aria-label="10"
       transform="matrix(1.3333333,0,0,1.3333333,772.52533,131.288)" />
    <path
       id="path120"
       d="M 1.2642266,-0.76160156 2.3189141,-1.7928516 c 1.5585937,-1.3710937 2.15625,-1.9101562 2.15625,-2.90625 0,-1.1367187 -0.9023438,-1.9335937 -2.1210938,-1.9335937 -1.125,0 -1.85156249,0.9140625 -1.85156249,1.8046875 0,0.5507812 0.4921875,0.5507812 0.52734379,0.5507812 0.1640625,0 0.515625,-0.1171875 0.515625,-0.5273437 0,-0.2578125 -0.1875,-0.515625 -0.5273438,-0.515625 -0.0820312,0 -0.10546874,0 -0.12890624,0.011719 0.22265624,-0.6445312 0.76171874,-1.0195312 1.33593754,-1.0195312 0.9140625,0 1.3359375,0.8085937 1.3359375,1.6289062 0,0.796875 -0.4921875,1.5820313 -1.0429688,2.203125 L 0.60797656,-0.36316406 C 0.50250781,-0.25769531 0.50250781,-0.23425781 0.50250781,1.171875e-4 H 4.1939141 L 4.4751641,-1.7342578 H 4.2173516 c -0.046875,0.3046875 -0.1171875,0.73828124 -0.2109375,0.89062499 -0.070312,0.0820313 -0.7265625,0.0820313 -0.9492188,0.0820313 z M 9.5640313,-3.1873828 c 0,-0.796875 -0.046875,-1.59375 -0.3984375,-2.3320313 -0.4570313,-0.9609375 -1.2773438,-1.1132812 -1.6875,-1.1132812 -0.5976563,0 -1.3359375,0.2578125 -1.734375,1.1835937 -0.328125,0.6914063 -0.375,1.4648438 -0.375,2.2617188 0,0.75 0.046875,1.640625 0.4453125,2.40234374 0.4335937,0.80859375 1.1601562,1.0078125 1.6523437,1.0078125 0.5390625,0 1.2890625,-0.2109375 1.734375,-1.16015625 C 9.5171563,-1.6287891 9.5640313,-2.4022266 9.5640313,-3.1873828 Z M 7.466375,1.171875e-4 C 7.0796563,1.171875e-4 6.482,-0.24597656 6.3062188,-1.2069141 6.20075,-1.8045703 6.20075,-2.7186328 6.20075,-3.3045703 c 0,-0.6445313 0,-1.3007813 0.082031,-1.8398438 0.1875,-1.1835937 0.9257812,-1.265625 1.1835937,-1.265625 0.328125,0 0.984375,0.1757813 1.171875,1.1601563 0.09375,0.5625 0.09375,1.3125 0.09375,1.9453125 0,0.75 0,1.4179687 -0.1054687,2.0625 C 8.4741875,-0.30457031 7.9116875,1.171875e-4 7.466375,1.171875e-4 Z m 0,0"
       style="fill:#d95319;fill-opacity:1;fill-rule:nonzero;stroke:none"
       aria-label="20"
       transform="matrix(1.3333333,0,0,1.3333333,772.52533,70.16)" />
    <path
       id="path121"
       d="m 119.31607,16.48845 v 5.97766 m 2.58841,-1.49441 -5.17682,-2.98884 m 5.17682,0 -5.17682,2.98884"
       style="fill:none;stroke:#d95319;stroke-width:1.49442;stroke-linecap:butt;stroke-linejoin:miter;stroke-miterlimit:10;stroke-dasharray:none;stroke-opacity:1"
       transform="matrix(1.3333333,0,0,-1.3333333,448.59733,188.13467)" />
    <path
       id="path122"
       d="m 95.45285,39.34183 v 5.97766 m 2.58841,-1.49442 -5.17682,-2.98883 m 5.17682,0 -5.17682,2.98883"
       style="fill:none;stroke:#d95319;stroke-width:1.49442;stroke-linecap:butt;stroke-linejoin:miter;stroke-miterlimit:10;stroke-dasharray:none;stroke-opacity:1"
       transform="matrix(1.3333333,0,0,-1.3333333,448.59733,188.13467)" />
    <path
       id="path123"
       d="m 71.58963,27.74977 v 5.97766 m 2.58841,-1.49441 -5.17682,-2.98883 m 5.17682,0 -5.17682,2.98883"
       style="fill:none;stroke:#d95319;stroke-width:1.49442;stroke-linecap:butt;stroke-linejoin:miter;stroke-miterlimit:10;stroke-dasharray:none;stroke-opacity:1"
       transform="matrix(1.3333333,0,0,-1.3333333,448.59733,188.13467)" />
    <path
       id="path124"
       d="m 47.72643,100.90828 v 5.97766 m 2.5884,-1.49441 -5.17681,-2.98883 m 5.17681,0 -5.17681,2.98883"
       style="fill:none;stroke:#d95319;stroke-width:1.49442;stroke-linecap:butt;stroke-linejoin:miter;stroke-miterlimit:10;stroke-dasharray:none;stroke-opacity:1"
       transform="matrix(1.3333333,0,0,-1.3333333,448.59733,188.13467)" />
    <path
       id="path125"
       d="m 23.8632,82.40854 v 5.97766 m 2.58841,-1.49442 -5.17681,-2.98883 m 5.17681,0 -5.17681,2.98883"
       style="fill:none;stroke:#d95319;stroke-width:1.49442;stroke-linecap:butt;stroke-linejoin:miter;stroke-miterlimit:10;stroke-dasharray:none;stroke-opacity:1"
       transform="matrix(1.3333333,0,0,-1.3333333,448.59733,188.13467)" />
    <path
       id="path126"
       d="m 0,17.32016 v 5.97766 M 2.58841,21.8034 -2.58841,18.81458 m 5.17682,0 -5.17682,2.98882"
       style="fill:none;stroke:#d95319;stroke-width:1.49442;stroke-linecap:butt;stroke-linejoin:miter;stroke-miterlimit:10;stroke-dasharray:none;stroke-opacity:1"
       transform="matrix(1.3333333,0,0,-1.3333333,448.59733,188.13467)" />
    <path
       id="path127"
       d="m 214.76892,9.61505 v 5.97766 m 2.58841,-1.49441 -5.17682,-2.98883 m 5.17682,0 -5.17682,2.98883"
       style="fill:none;stroke:#d95319;stroke-width:1.49442;stroke-linecap:butt;stroke-linejoin:miter;stroke-miterlimit:10;stroke-dasharray:none;stroke-opacity:1"
       transform="matrix(1.3333333,0,0,-1.3333333,448.59733,188.13467)" />
    <path
       id="path128"
       d="m 190.9057,36.02527 v 5.97766 m 2.58841,-1.49442 -5.17682,-2.98883 m 5.17682,0 -5.17682,2.98883"
       style="fill:none;stroke:#d95319;stroke-width:1.49442;stroke-linecap:butt;stroke-linejoin:miter;stroke-miterlimit:10;stroke-dasharray:none;stroke-opacity:1"
       transform="matrix(1.3333333,0,0,-1.3333333,448.59733,188.13467)" />
    <path
       id="path129"
       d="m 167.0425,91.56583 v 5.97766 m 2.5884,-1.49442 -5.17681,-2.98883 m 5.17681,0 -5.17681,2.98883"
       style="fill:none;stroke:#d95319;stroke-width:1.49442;stroke-linecap:butt;stroke-linejoin:miter;stroke-miterlimit:10;stroke-dasharray:none;stroke-opacity:1"
       transform="matrix(1.3333333,0,0,-1.3333333,448.59733,188.13467)" />
    <path
       id="path130"
       d="m 143.17928,49.47345 v 5.97766 m 2.5884,-1.49441 -5.17681,-2.98884 m 5.17681,0 -5.17681,2.98884"
       style="fill:none;stroke:#d95319;stroke-width:1.49442;stroke-linecap:butt;stroke-linejoin:miter;stroke-miterlimit:10;stroke-dasharray:none;stroke-opacity:1"
       transform="matrix(1.3333333,0,0,-1.3333333,448.59733,188.13467)" />
    <g
       id="g130"
       aria-label="MSE[&#10;◦&#10;]"
       transform="matrix(0,-1.3333333,1.3333333,0,802.276,138.08)">
      <path
         id="path131"
         d="M 5.4389062,-1.3114688 3.0482812,-6.5849063 C 2.9428125,-6.831 2.825625,-6.831 2.6146875,-6.831 H 0.39984375 v 0.46875 H 1.4779687 v 5.6015625 c 0,0.22265625 -0.011719,0.234375 -0.2929687,0.2578125 -0.234375,0.0351562 -0.2578125,0.0351562 -0.5390625,0.0351562 H 0.39984375 v 0.46875 c 0.375,-0.0351562 0.94921875,-0.0351562 1.33593745,-0.0351562 0.421875,0 0.9375,0 1.3476563,0.03515625 v -0.46875 H 2.825625 c -0.1757813,0 -0.3398438,-0.0117188 -0.5273438,-0.0351562 -0.28125,-0.0234375 -0.2929687,-0.0351563 -0.2929687,-0.2578125 V -6.2333437 h 0.011719 l 2.7070313,5.98828125 c 0.09375,0.19921875 0.2109375,0.24609375 0.3164062,0.24609375 0.1992188,0 0.28125,-0.15234375 0.3164063,-0.234375 L 8.1342187,-6.36225 h 0.011719 v 5.89453125 H 7.0795312 v 0.46875 C 7.4310937,-0.034125 8.356875,-0.034125 8.7670312,-0.034125 c 0.4101563,0 1.3476558,0 1.6992188,0.03515625 v -0.46875 H 9.3998437 V -6.36225 H 10.46625 V -6.831 H 8.2748437 c -0.2226562,0 -0.3398437,0 -0.4453125,0.2460937 z m 9.4453128,-2.8125 -1.453125,-0.3046875 c -0.398438,-0.09375 -0.949219,-0.4335937 -0.949219,-1.0429687 0,-0.421875 0.28125,-1.0429688 1.277344,-1.0429688 0.796875,0 1.804687,0.3398438 2.027343,1.6992188 0.03516,0.234375 0.03516,0.2578125 0.246094,0.2578125 0.246094,0 0.246094,-0.058594 0.246094,-0.28125 v -1.828125 c 0,-0.1875 0,-0.2695313 -0.1875,-0.2695313 -0.07031,0 -0.08203,0 -0.199219,0.1054688 l -0.445312,0.4335937 C 14.8725,-6.8544375 14.227969,-6.9364688 13.7475,-6.9364688 c -1.511719,0 -2.238281,0.9492188 -2.238281,1.9921875 0,0.65625 0.328125,1.1132813 0.539062,1.3242188 0.492188,0.4921875 0.832031,0.5625 1.921875,0.796875 0.867188,0.1992187 1.042969,0.2226562 1.253906,0.4335937 0.152344,0.1523438 0.398438,0.4101563 0.398438,0.8671875 0,0.4804688 -0.257813,1.1601563 -1.289063,1.1601563 -0.761718,0 -2.273437,-0.19921875 -2.355468,-1.6757813 0,-0.1875 0,-0.234375 -0.222657,-0.234375 -0.246093,0 -0.246093,0.058594 -0.246093,0.2929688 v 1.81640625 c 0,0.1875 0,0.26953125 0.1875,0.26953125 0.08203,0 0.105468,-0.01171875 0.1875,-0.08203125 L 12.34125,-0.4325625 C 12.9975,0.04790625 13.923281,0.1065 14.333437,0.1065 c 1.640625,0 2.261719,-1.125 2.261719,-2.1328125 0,-1.1015625 -0.808594,-1.9101563 -1.710937,-2.0976563 z m 9.565429,1.3945313 h -0.46875 c -0.222656,1.3710937 -0.503906,2.26171875 -2.34375,2.26171875 H 20.12543 V -3.2802188 h 0.539062 c 0.960938,0 1.066406,0.4335938 1.066406,1.171875 H 22.18793 V -4.909125 h -0.457032 c 0,0.7382812 -0.09375,1.1601562 -1.066406,1.1601562 H 20.12543 v -2.5546875 h 1.511718 c 1.605469,0 1.863282,0.7265625 2.015625,1.9335938 h 0.46875 l -0.304687,-2.4023438 h -6.1875 v 0.46875 h 1.078125 v 5.83593755 h -1.078125 v 0.46875 h 6.351562 z M 31.501406,2.497125 V 1.88775 h -1.03125 v -8.7539063 h 1.03125 v -0.609375 H 29.860781 V 2.497125 Z m 0,0"
         style="fill:#d95319;fill-opacity:1;fill-rule:nonzero;stroke:none" />
      <path
         id="path132"
         d="m 35.31,-5.3602969 c 0,-0.84375 -0.679688,-1.5 -1.5,-1.5 -0.84375,0 -1.5,0.6796875 -1.5,1.5 0,0.84375 0.679687,1.5 1.5,1.5 0.832031,0 1.5,-0.6796875 1.5,-1.5 z m -1.5,1.1484375 c -0.65625,0 -1.160156,-0.5273437 -1.160156,-1.1484375 0,-0.6445312 0.515625,-1.1601562 1.160156,-1.1601562 0.65625,0 1.160156,0.5390625 1.160156,1.1601562 0,0.6445313 -0.527344,1.1484375 -1.160156,1.1484375 z m 0,0"
         style="fill:#d95319;fill-opacity:1;fill-rule:nonzero;stroke:none" />
      <path
         id="path133"
         d="m 38.248477,-7.4755313 h -1.652344 v 0.609375 h 1.042969 V 1.88775 h -1.042969 v 0.609375 h 1.652344 z m 0,0"
         style="fill:#d95319;fill-opacity:1;fill-rule:nonzero;stroke:none" />
    </g>
    <path
       id="path134"
       d="m 7.4896797,-6.3638984 h 1.078125 v -0.46875 c -0.375,0.023437 -1.359375,0.023437 -1.78125,0.023437 -0.4335938,0 -1.40625,0 -1.78125,-0.023437 v 0.46875 h 1.078125 v 2.578125 H 2.8842109 v -2.578125 h 1.0664063 v -0.46875 c -0.375,0.023437 -1.3476563,0.023437 -1.78125,0.023437 -0.421875,0 -1.40625001,0 -1.78125001,-0.023437 v 0.46875 H 1.4662422 v 5.89453121 H 0.38811719 V -6.171875e-4 C 0.76311719,-0.03577344 1.7474922,-0.03577344 2.1693672,-0.03577344 c 0.4335937,0 1.40625,0 1.78125,0.0351562525 V -0.46936719 H 2.8842109 V -3.3170234 h 3.1992188 v 2.84765621 h -1.078125 v 0.4687500025 c 0.375,-0.0351562525 1.3476562,-0.0351562525 1.78125,-0.0351562525 0.421875,0 1.40625,0 1.78125,0.0351562525 V -0.46936719 h -1.078125 z m 5.9531253,2.3671875 c 0.07031,-0.1054688 0.09375,-0.1289063 0.09375,-0.2226563 0,-0.1992187 -0.140625,-0.1992187 -0.316407,-0.1992187 H 9.5638984 l -0.1171875,1.734375 h 0.46875 c 0.058594,-1.0195313 0.3632811,-1.3828125 1.3945311,-1.3828125 h 0.84375 l -2.7773436,3.63281246 c -0.09375,0.10546875 -0.09375,0.12890625 -0.09375,0.2109375 0,0.2226562525 0.1289063,0.2226562525 0.3164063,0.2226562525 h 3.7851563 l 0.1875,-2.0156250125 h -0.46875 c -0.09375,1.0078125 -0.246094,1.61718751 -1.570313,1.61718751 H 10.67718 Z m 0,0"
       style="fill:#d9d9d9;fill-opacity:0;fill-rule:nonzero;stroke:none"
       aria-label="Hz"
       transform="matrix(1.3333333,0,0,1.3333333,598.31067,21.590667)" />
  </g>
</svg>
