<?xml version="1.0" encoding="UTF-8" standalone="no"?>
<!-- Created with Inkscape (http://www.inkscape.org/) -->

<svg
   version="1.1"
   id="svg1"
   width="435.71371"
   height="152.24561"
   viewBox="0 0 435.71373 152.2456"
   xmlns="http://www.w3.org/2000/svg"
   xmlns:svg="http://www.w3.org/2000/svg">
  <defs
     id="defs1" />
  <g
     id="g57"
     transform="translate(-801.27575,0.35800396)">
    <path
       id="path58"
       d="M 17.00824,0 C 17.00824,9.39351 9.39351,17.00824 0,17.00824 -9.39351,17.00824 -17.00824,9.39351 -17.00824,0 c 0,-9.39351 7.61473,-17.00824 17.00824,-17.00824 9.39351,0 17.00824,7.61473 17.00824,17.00824 z"
       style="fill:#999999;fill-opacity:1;fill-rule:nonzero;stroke:#d9d9d9;stroke-width:0.79701;stroke-linecap:butt;stroke-linejoin:miter;stroke-miterlimit:10;stroke-dasharray:none;stroke-opacity:1"
       transform="matrix(1.3333333,0,0,-1.3333333,1066.3773,94.662667)" />
    <path
       id="path59"
       d="m 0,0 v 40.37367 c 0,2.75118 2.2302,4.98139 4.98138,4.98139 h 51.71224"
       style="fill:none;stroke:#d9d9d9;stroke-width:0.79701;stroke-linecap:butt;stroke-linejoin:miter;stroke-miterlimit:10;stroke-dasharray:none;stroke-opacity:1"
       transform="matrix(1.3333333,0,0,-1.3333333,1066.3773,94.662667)" />
    <path
       id="path60"
       d="m 85.04042,53.85875 v 3.52275 c 0,2.75118 -2.23021,4.98138 -4.98138,4.98138 h -245.15851 c -2.75118,0 -4.98139,-2.2302 -4.98139,-4.98138 V 4.98138 C -170.08086,2.2302 -167.85065,0 -165.09947,0 h 9.19203"
       style="fill:none;stroke:#d9d9d9;stroke-width:0.79701;stroke-linecap:butt;stroke-linejoin:miter;stroke-miterlimit:10;stroke-dasharray:none;stroke-opacity:1"
       transform="matrix(1.3333333,0,0,-1.3333333,1066.3773,94.662667)" />
    <path
       id="path61"
       d="m 113.38724,-5.66927 h 9.192 c 2.75119,0 4.98138,2.23021 4.98138,4.98139 v 41.06155 c 0,2.75118 -2.23019,4.98139 -4.98138,4.98139 h -9.192"
       style="fill:none;stroke:#d9d9d9;stroke-width:0.79701;stroke-linecap:butt;stroke-linejoin:miter;stroke-miterlimit:10;stroke-dasharray:none;stroke-opacity:1"
       transform="matrix(1.3333333,0,0,-1.3333333,1066.3773,94.662667)" />
    <path
       id="path62"
       d="m 10.47476,4.33878 -6.13598,6.13598 h -8.67756 l -6.13598,-6.13598 v -8.67756 l 6.13598,-6.13598 h 8.67756 l 6.13598,6.13598 z"
       style="fill:#d9d9d9;fill-opacity:1;fill-rule:nonzero;stroke:#000000;stroke-width:1.59404;stroke-linecap:butt;stroke-linejoin:miter;stroke-miterlimit:10;stroke-dasharray:none;stroke-opacity:1"
       transform="matrix(1.3333333,0,0,-1.3333333,1066.3773,94.662667)" />
    <path
       id="path63"
       d="M -16.25908,-23.22037 C -6.4988,-30.0546 6.4988,-30.0546 14.13731,-24.70604"
       style="fill:none;stroke:#d9d9d9;stroke-width:0.79701;stroke-linecap:butt;stroke-linejoin:miter;stroke-miterlimit:10;stroke-dasharray:none;stroke-opacity:1"
       transform="matrix(1.3333333,0,0,-1.3333333,1066.3773,94.662667)" />
    <path
       id="path64"
       d="M 2.59026,0 -1.55415,2.0722 0,0 -1.55415,-2.0722"
       style="fill:#d9d9d9;fill-opacity:1;fill-rule:nonzero;stroke:none"
       transform="matrix(1.0921867,-0.76474667,-0.76474667,-1.0921867,1085.2271,127.60405)" />
    <path
       id="path65"
       d="M -2.59026,28.3468 H -139.14378"
       style="fill:none;stroke:#d9d9d9;stroke-width:0.79701;stroke-linecap:butt;stroke-linejoin:miter;stroke-miterlimit:10;stroke-dasharray:2.98883, 2.98883;stroke-dashoffset:0;stroke-opacity:1"
       transform="matrix(1.3333333,0,0,-1.3333333,1066.3773,94.662667)" />
    <path
       id="path66"
       d="M 2.59026,0 -1.55415,2.0722 0,0 -1.55415,-2.0722"
       style="fill:#d9d9d9;fill-opacity:1;fill-rule:nonzero;stroke:none"
       transform="matrix(1.3333333,0,0,-1.3333333,1062.9237,56.866933)" />
    <path
       id="path67"
       d="M 2.59026,0 -1.55415,2.0722 0,0 -1.55415,-2.0722"
       style="fill:#d9d9d9;fill-opacity:1;fill-rule:nonzero;stroke:none"
       transform="matrix(-1.3333333,0,0,1.3333333,880.85229,56.866933)" />
    <path
       id="path68"
       d="m 4.4772813,-2.0034609 c 0,-1.1835938 -0.8203125,-2.1796875 -1.8984375,-2.1796875 -0.4804688,0 -0.9023438,0.1640625 -1.265625,0.5039062 v -1.9335937 c 0.1992187,0.058594 0.5273437,0.1289062 0.84375,0.1289062 1.2304687,0 1.9335937,-0.9140625 1.9335937,-1.0429687 0,-0.058594 -0.035156,-0.1054688 -0.1054687,-0.1054688 -0.011719,0 -0.035156,0 -0.082031,0.023437 -0.1992187,0.09375 -0.6796875,0.2929688 -1.3476562,0.2929688 -0.3984375,0 -0.8554688,-0.070312 -1.3242188,-0.28125 -0.082031,-0.023437 -0.1054687,-0.023437 -0.1289062,-0.023437 -0.09375,0 -0.09375,0.082031 -0.09375,0.234375 v 2.953125 c 0,0.1757812 0,0.2578125 0.140625,0.2578125 0.070312,0 0.082031,-0.035156 0.1289062,-0.09375 0.1054688,-0.1523438 0.4804688,-0.6914063 1.2773438,-0.6914063 0.5273437,0 0.7734375,0.4570313 0.8554687,0.6328125 0.1523438,0.375 0.1757813,0.7617188 0.1757813,1.2539063 0,0.3515625 0,0.9492187 -0.234375,1.37109371 -0.2460938,0.38671875 -0.609375,0.64453125 -1.0664063,0.64453125 -0.7265625,0 -1.30078125,-0.52734375 -1.46484375,-1.11328126 0.0234375,0.011719 0.0585938,0.011719 0.1640625,0.011719 0.32812505,0 0.50390625,-0.2460938 0.50390625,-0.4804688 0,-0.2460937 -0.1757812,-0.4921875 -0.50390625,-0.4921875 -0.140625,0 -0.48046875,0.070312 -0.48046875,0.5273438 0,0.85546871 0.6796875,1.82812496 1.7929688,1.82812496 1.1601562,0 2.1796875,-0.9609375 2.1796872,-2.22656266 z m 3.2695312,-1.4179688 v 2.66015626 c 0,0.45703125 -0.1171875,0.45703125 -0.7851562,0.45703125 V 4.453125e-4 C 7.3132188,-0.01127344 7.817125,-0.03471094 8.0866563,-0.03471094 c 0.2578125,0 0.7851562,0.0234375 1.1132812,0.0351562525 V -0.30424219 c -0.65625,0 -0.7734375,0 -0.7734375,-0.45703125 V -2.5893984 c 0,-1.03125 0.7148438,-1.59375 1.3476563,-1.59375 0.6210937,0 0.7382817,0.5390625 0.7382817,1.1015625 v 2.32031246 c 0,0.45703125 -0.117188,0.45703125 -0.773438,0.45703125 V 4.453125e-4 C 10.078844,-0.01127344 10.594469,-0.03471094 10.864,-0.03471094 c 0.257813,0 0.773438,0.0234375 1.113281,0.0351562525 V -0.30424219 c -0.667968,0 -0.785156,0 -0.785156,-0.45703125 V -2.5893984 c 0,-1.03125 0.714844,-1.59375 1.347656,-1.59375 0.632813,0 0.738282,0.5390625 0.738282,1.1015625 v 2.32031246 c 0,0.45703125 -0.105469,0.45703125 -0.773438,0.45703125 V 4.453125e-4 c 0.351563,-0.0117187525 0.855469,-0.0351562525 1.125,-0.0351562525 0.257813,0 0.773438,0.0234375 1.113281,0.0351562525 V -0.30424219 c -0.515625,0 -0.761718,0 -0.773437,-0.3046875 V -2.5073672 c 0,-0.8554687 0,-1.171875 -0.316406,-1.5234375 -0.128907,-0.1757812 -0.46875,-0.375 -1.042969,-0.375 -0.832031,0 -1.277344,0.5976563 -1.441406,0.984375 -0.140625,-0.8671875 -0.878907,-0.984375 -1.3242192,-0.984375 -0.7265625,0 -1.1953125,0.4335938 -1.4765625,1.0546875 v -1.0546875 l -1.40625,0.1171875 v 0.3046875 c 0.703125,0 0.7851562,0.070312 0.7851562,0.5625 z m 0,0"
       style="fill:#d9d9d9;fill-opacity:1;fill-rule:nonzero;stroke:none"
       aria-label="5m"
       transform="matrix(1.3333333,0,0,1.3333333,961.92667,49.808)" />
    <path
       id="path69"
       d="M 42.5202,65.88562 V -37.53882 c 0,-2.75118 -2.2302,-4.98138 -4.98138,-4.98138 h -230.98509 c -2.75118,0 -4.98139,2.2302 -4.98139,4.98138 V 65.88562 c 0,2.75119 2.23021,4.98138 4.98139,4.98138 H 37.53882 c 2.75118,0 4.98138,-2.23019 4.98138,-4.98138 z"
       style="fill:none;stroke:#d9d9d9;stroke-width:0.79701;stroke-linecap:butt;stroke-linejoin:miter;stroke-miterlimit:10;stroke-dasharray:2.98883, 2.98883;stroke-dashoffset:0;stroke-opacity:1"
       transform="matrix(1.3333333,0,0,-1.3333333,1066.3773,94.662667)" />
    <path
       id="path70"
       d="m 56.69362,38.99747 v 12.71476 c 0,2.75118 2.23019,4.98139 4.98138,4.98139 h 46.73085 c 2.75118,0 4.98139,-2.23021 4.98139,-4.98139 V 38.99747 c 0,-2.75119 -2.23021,-4.98139 -4.98139,-4.98139 H 61.675 c -2.75119,0 -4.98138,2.2302 -4.98138,4.98139 z"
       style="fill:#d9d9d9;fill-opacity:1;fill-rule:nonzero;stroke:none"
       transform="matrix(1.3333333,0,0,-1.3333333,1066.3773,94.662667)" />
    <path
       id="path71"
       d="m 5.802125,-2.2979531 c 0,1.40624998 -0.9726562,2.20312498 -1.9101562,2.20312498 -0.46875,0 -1.6523438,-0.24609375 -1.6523438,-2.13281248 v -3.796875 c 0,-0.3632813 0.023437,-0.46875 0.7851563,-0.46875 H 3.270875 v -0.3164063 c -0.3515625,0.035156 -1.0898437,0.035156 -1.4648437,0.035156 -0.375,0 -1.12500005,0 -1.47656255,-0.035156 v 0.3164063 h 0.234375 c 0.77343755,0 0.79687505,0.1054687 0.79687505,0.46875 v 3.75 c 0,1.40624998 1.1484375,2.49609373 2.5078125,2.49609373 1.1484375,0 2.0390625,-0.92578125 2.2148437,-2.06250003 0.023437,-0.1992187 0.023437,-0.2929687 0.023437,-0.6914062 v -3.1875 c 0,-0.328125 0,-0.7734375 1.03125,-0.7734375 v -0.3164063 c -0.3632812,0.011719 -0.84375,0.035156 -1.1835937,0.035156 -0.3398438,0 -0.8203125,-0.023437 -1.1835938,-0.035156 v 0.3164063 c 1.03125,0 1.03125,0.46875 1.03125,0.7382812 z M 9.8743906,-6.5870156 C 9.7806406,-6.8096719 9.7572031,-6.8096719 9.5228281,-6.8096719 h -1.6875 v 0.3164063 h 0.2460938 c 0.7617187,0 0.7851562,0.1054687 0.7851562,0.46875 v 4.9804687 c 0,0.26953128 0,0.73828128 -1.03125,0.73828128 v 0.3046875 c 0.3515625,-0.01171875 0.84375,-0.03515625 1.171875,-0.03515625 0.328125,0 0.8203125,0.0234375 1.1601559,0.03515625 v -0.3046875 c -1.0195309,0 -1.0195309,-0.46875 -1.0195309,-0.73828128 v -5.3671875 h 0.011719 l 2.4023439,6.18750003 c 0.04687,0.12890625 0.09375,0.22265625 0.199218,0.22265625 0.105469,0 0.128907,-0.08203125 0.175782,-0.1875 l 2.449218,-6.30468748 h 0.01172 v 5.71874998 c 0,0.3515625 -0.02344,0.46875 -0.785156,0.46875 h -0.246094 v 0.3046875 c 0.375,-0.03515625 1.042969,-0.03515625 1.441406,-0.03515625 0.386719,0 1.054688,0 1.417969,0.03515625 v -0.3046875 h -0.234375 c -0.773437,0 -0.785156,-0.1171875 -0.785156,-0.46875 V -6.0245156 c 0,-0.3632813 0.01172,-0.46875 0.785156,-0.46875 h 0.234375 v -0.3164063 h -1.675781 c -0.269531,0 -0.269531,0.011719 -0.339844,0.1992188 l -2.179687,5.6015625 z m 7.2919924,3.1757812 c 0,2.0625 1.605469,3.63281253 3.457031,3.63281253 1.628906,0 2.601563,-1.38281253 2.601563,-2.54296873 0,-0.1054688 0,-0.1757813 -0.128907,-0.1757813 -0.105468,0 -0.105468,0.070312 -0.117187,0.1640625 -0.08203,1.42968753 -1.148438,2.23828128 -2.226563,2.23828128 -0.609375,0 -2.566406,-0.33984375 -2.566406,-3.30468748 0,-2.9765625 1.945313,-3.3164063 2.554688,-3.3164063 1.078125,0 1.96875,0.9023438 2.167968,2.3671875 0.02344,0.1289063 0.02344,0.1640625 0.164063,0.1640625 0.152344,0 0.152344,-0.035156 0.152344,-0.234375 v -2.3671875 c 0,-0.1640625 0,-0.234375 -0.105469,-0.234375 -0.03516,0 -0.08203,0 -0.164063,0.1171875 l -0.492187,0.7382813 c -0.375,-0.3632813 -0.878906,-0.8554688 -1.839844,-0.8554688 -1.863281,0 -3.457031,1.5820313 -3.457031,3.609375 z m 9.5625,-2.9648437 c 0,-0.234375 0,-0.2578125 -0.234375,-0.2578125 -0.609375,0.6328125 -1.488281,0.6328125 -1.804688,0.6328125 v 0.3164062 c 0.199219,0 0.785157,0 1.300782,-0.2578125 v 5.15625003 c 0,0.3515625 -0.03516,0.48046875 -0.925782,0.48046875 h -0.316406 v 0.3046875 c 0.351563,-0.03515625 1.207031,-0.03515625 1.605469,-0.03515625 0.398437,0 1.265625,0 1.617187,0.03515625 v -0.3046875 h -0.316406 c -0.902344,0 -0.925781,-0.1171875 -0.925781,-0.48046875 z m 3.679687,1.828125 c -0.46875,-0.3046875 -0.503906,-0.6445313 -0.503906,-0.8085938 0,-0.609375 0.644531,-1.03125 1.359375,-1.03125 0.726563,0 1.359375,0.515625 1.359375,1.2421875 0,0.5625 -0.386719,1.0429688 -0.984375,1.3945313 z m 1.453125,0.9375 c 0.714844,-0.3632813 1.207032,-0.8789063 1.207032,-1.5351563 0,-0.9257812 -0.890625,-1.4882812 -1.792969,-1.4882812 -0.996094,0 -1.804688,0.7382812 -1.804688,1.6640625 0,0.1757812 0.01172,0.6210937 0.433594,1.0898437 0.105469,0.1289063 0.480469,0.375 0.726563,0.5390625 -0.574219,0.2929688 -1.429688,0.84375 -1.429688,1.8398438 0,1.05468748 1.007813,1.72265623 2.0625,1.72265623 1.125,0 2.0625,-0.83203125 2.0625,-1.89843753 0,-0.3515625 -0.105469,-0.8085937 -0.480469,-1.21875 -0.1875,-0.2109375 -0.351562,-0.3164062 -0.984375,-0.7148437 z m -0.996093,0.421875 1.21875,0.7734375 c 0.28125,0.1875 0.75,0.4921875 0.75,1.1015625 0,0.73828123 -0.75,1.25390623 -1.558594,1.25390623 -0.867188,0 -1.582031,-0.62109375 -1.582031,-1.44140623 0,-0.5859375 0.316406,-1.21875 1.171875,-1.6875 z m 4.163086,2.42578123 1.054687,-1.03125003 c 1.558594,-1.3710937 2.15625,-1.9101562 2.15625,-2.90625 0,-1.1367187 -0.902344,-1.9335937 -2.121094,-1.9335937 -1.125,0 -1.851562,0.9140625 -1.851562,1.8046875 0,0.5507812 0.492187,0.5507812 0.527344,0.5507812 0.164062,0 0.515625,-0.1171875 0.515625,-0.5273437 0,-0.2578125 -0.1875,-0.515625 -0.527344,-0.515625 -0.08203,0 -0.105469,0 -0.128906,0.011719 0.222656,-0.6445312 0.761718,-1.0195312 1.335937,-1.0195312 0.914063,0 1.335938,0.8085937 1.335938,1.6289062 0,0.796875 -0.492188,1.5820313 -1.042969,2.203125 l -1.910156,2.13281253 c -0.105469,0.10546875 -0.105469,0.12890625 -0.105469,0.36328125 h 3.691406 l 0.28125,-1.73437498 h -0.257812 c -0.04687,0.3046875 -0.117188,0.73828123 -0.210938,0.89062498 -0.07031,0.0820313 -0.726562,0.0820313 -0.949219,0.0820313 z m 8.296875,-2.42578123 c 0,-0.796875 -0.04687,-1.59375 -0.398438,-2.3320313 -0.457031,-0.9609375 -1.277344,-1.1132812 -1.6875,-1.1132812 -0.597656,0 -1.335937,0.2578125 -1.734375,1.1835937 -0.328125,0.6914063 -0.375,1.4648438 -0.375,2.2617188 0,0.75 0.04687,1.640625 0.445313,2.40234373 0.433593,0.80859375 1.160156,1.0078125 1.652343,1.0078125 0.539063,0 1.289063,-0.2109375 1.734375,-1.16015625 0.316407,-0.69140628 0.363282,-1.46484378 0.363282,-2.24999998 z m -2.097657,3.18749998 c -0.386718,0 -0.984375,-0.24609375 -1.160156,-1.20703128 -0.105469,-0.5976562 -0.105469,-1.5117187 -0.105469,-2.0976562 0,-0.6445313 0,-1.3007813 0.08203,-1.8398438 0.1875,-1.1835937 0.925781,-1.265625 1.183593,-1.265625 0.328125,0 0.984375,0.1757813 1.171875,1.1601563 0.09375,0.5625 0.09375,1.3125 0.09375,1.9453125 0,0.75 0,1.4179687 -0.105468,2.0625 -0.152344,0.93749998 -0.714844,1.24218748 -1.160157,1.24218748 z m 0,0"
       style="fill:#000000;fill-opacity:1;fill-rule:nonzero;stroke:none"
       aria-label="UMC1820"
       transform="matrix(1.3333333,0,0,1.3333333,1150.6133,38.728)" />
    <path
       id="path72"
       d="m -141.73404,-14.94415 v 29.8883 l -7.97021,-5.97766 V -8.96649 Z m -7.97021,23.91064 h -5.97767 V -8.96649 h 5.97767"
       style="fill:#cccccc;fill-opacity:1;fill-rule:nonzero;stroke:#000000;stroke-width:0.3985;stroke-linecap:butt;stroke-linejoin:miter;stroke-miterlimit:10;stroke-dasharray:none;stroke-opacity:1"
       transform="matrix(1.3333333,0,0,-1.3333333,1066.3773,94.662667)" />
    <path
       id="path73"
       d="m -135.7209,-6.01314 c 3.32101,3.32102 3.32101,8.70563 0,12.02664"
       style="fill:none;stroke:#d9d9d9;stroke-width:0.3985;stroke-linecap:butt;stroke-linejoin:miter;stroke-miterlimit:10;stroke-dasharray:none;stroke-opacity:1"
       transform="matrix(1.3333333,0,0,-1.3333333,1066.3773,94.662667)" />
    <path
       id="path74"
       d="m -130.70995,-11.0241 c 6.08851,6.0885 6.08851,15.96027 0,22.04876"
       style="fill:none;stroke:#d9d9d9;stroke-width:0.3985;stroke-linecap:butt;stroke-linejoin:miter;stroke-miterlimit:10;stroke-dasharray:none;stroke-opacity:1"
       transform="matrix(1.3333333,0,0,-1.3333333,1066.3773,94.662667)" />
    <path
       id="path75"
       d="m -125.69899,-16.03503 c 8.85597,8.85597 8.85597,23.21489 0,32.07086"
       style="fill:none;stroke:#d9d9d9;stroke-width:0.3985;stroke-linecap:butt;stroke-linejoin:miter;stroke-miterlimit:10;stroke-dasharray:none;stroke-opacity:1"
       transform="matrix(1.3333333,0,0,-1.3333333,1066.3773,94.662667)" />
    <path
       id="path76"
       d="m 56.69362,0 v -22.67752 h 56.69362 V 0 Z"
       style="fill:#d9d9d9;fill-opacity:1;fill-rule:nonzero;stroke:none"
       transform="matrix(1.3333333,0,0,-1.3333333,1066.3773,94.662667)" />
    <path
       id="path77"
       d="m 0.56319531,-3.4106484 c 0,2.0625 1.60546879,3.63281246 3.45703129,3.63281246 1.6289062,0 2.6015625,-1.38281246 2.6015625,-2.54296876 0,-0.1054687 0,-0.1757812 -0.1289063,-0.1757812 -0.1054687,0 -0.1054687,0.070312 -0.1171875,0.1640625 -0.082031,1.42968746 -1.1484375,2.23828121 -2.2265625,2.23828121 -0.609375,0 -2.5664062,-0.33984375 -2.5664062,-3.30468751 0,-2.9765625 1.9453125,-3.3164062 2.5546875,-3.3164062 1.078125,0 1.96875,0.9023437 2.1679687,2.3671875 0.023437,0.1289062 0.023437,0.1640625 0.1640625,0.1640625 0.1523438,0 0.1523438,-0.035156 0.1523438,-0.234375 v -2.3671875 c 0,-0.1640625 0,-0.234375 -0.1054688,-0.234375 -0.035156,0 -0.082031,0 -0.1640625,0.1171875 l -0.4921875,0.7382812 c -0.375,-0.3632812 -0.8789062,-0.8554687 -1.8398437,-0.8554687 -1.8632813,0 -3.45703129,1.5820312 -3.45703129,3.609375 z M 11.883508,-2.1333047 c 0,-1.2773437 -0.996094,-2.3320312 -2.1914064,-2.3320312 -1.2539063,0 -2.2148438,1.0898437 -2.2148438,2.3320312 0,1.28906251 1.03125,2.23828126 2.203125,2.23828126 1.2070312,0 2.2031252,-0.97265625 2.2031252,-2.23828126 z m -2.1914064,1.99218751 c -0.4335938,0 -0.8671875,-0.2109375 -1.1367188,-0.66796875 C 8.2975703,-1.2426797 8.2975703,-1.8520547 8.2975703,-2.2153359 c 0,-0.3867188 0,-0.9257813 0.2460938,-1.359375 0.2695312,-0.4570313 0.7382812,-0.6679688 1.1367187,-0.6679688 0.4335942,0 0.8671872,0.2226563 1.1250002,0.6445313 0.257812,0.4335937 0.257812,1.0078125 0.257812,1.3828125 0,0.3632812 0,0.9023437 -0.222656,1.33593746 -0.222656,0.4453125 -0.65625,0.73828125 -1.1484374,0.73828125 z M 13.278039,-3.4223672 v 2.66015626 c 0,0.45703125 -0.117187,0.45703125 -0.785156,0.45703125 v 0.3046875025 c 0.351562,-0.0117187525 0.855469,-0.0351562525 1.125,-0.0351562525 0.257812,0 0.785156,0.0234375 1.113281,0.0351562525 V -0.30517969 c -0.65625,0 -0.773437,0 -0.773437,-0.45703125 V -2.5903359 c 0,-1.03125 0.714843,-1.59375 1.347656,-1.59375 0.621094,0 0.738281,0.5390625 0.738281,1.1015625 v 2.32031246 c 0,0.45703125 -0.117187,0.45703125 -0.773437,0.45703125 v 0.3046875025 c 0.339843,-0.0117187525 0.855468,-0.0351562525 1.125,-0.0351562525 0.257812,0 0.773437,0.0234375 1.113281,0.0351562525 V -0.30517969 c -0.667969,0 -0.785156,0 -0.785156,-0.45703125 V -2.5903359 c 0,-1.03125 0.714843,-1.59375 1.347656,-1.59375 0.632812,0 0.738281,0.5390625 0.738281,1.1015625 v 2.32031246 c 0,0.45703125 -0.105469,0.45703125 -0.773437,0.45703125 v 0.3046875025 c 0.351562,-0.0117187525 0.855468,-0.0351562525 1.125,-0.0351562525 0.257812,0 0.773437,0.0234375 1.113281,0.0351562525 V -0.30517969 c -0.515625,0 -0.761719,0 -0.773438,-0.3046875 V -2.5083047 c 0,-0.8554687 0,-1.171875 -0.316406,-1.5234375 -0.128906,-0.1757812 -0.46875,-0.375 -1.042969,-0.375 -0.832031,0 -1.277343,0.5976563 -1.441406,0.984375 -0.140625,-0.8671875 -0.878906,-0.984375 -1.324219,-0.984375 -0.726562,0 -1.195312,0.4335938 -1.476562,1.0546875 v -1.0546875 l -1.40625,0.1171875 v 0.3046875 c 0.703125,0 0.785156,0.070312 0.785156,0.5625 z m 8.912109,-0.328125 v -0.65625 l -1.429687,0.1171875 v 0.3046875 c 0.703125,0 0.773437,0.058594 0.773437,0.4921875 v 4.6640625 c 0,0.4570313 -0.105468,0.4570313 -0.773437,0.4570313 v 0.3046875 c 0.339844,-0.011719 0.855469,-0.035156 1.113281,-0.035156 0.269531,0 0.773438,0.023437 1.125,0.035156 V 1.6284141 c -0.667969,0 -0.773437,0 -0.773437,-0.4570313 v -1.75781249 c 0.04687,0.15234375 0.46875,0.69140625 1.21875,0.69140625 1.183593,0 2.226562,-0.97265625 2.226562,-2.26171876 0,-1.265625 -0.972656,-2.25 -2.085937,-2.25 -0.773438,0 -1.195313,0.4453125 -1.394532,0.65625 z m 0.03516,2.6132813 v -2.2148438 c 0.28125,-0.515625 0.773437,-0.796875 1.277343,-0.796875 0.726563,0 1.335938,0.8671875 1.335938,1.9921875 0,1.20703126 -0.691406,2.05078126 -1.429688,2.05078126 -0.398437,0 -0.773437,-0.19921875 -1.042968,-0.609375 -0.140625,-0.2109375 -0.140625,-0.22265625 -0.140625,-0.42187496 z m 7.678711,0.35156246 v 0.890625 L 31.345422,-4.921875e-4 V -0.30517969 c -0.703125,0 -0.785156,-0.0703125 -0.785156,-0.5625 V -4.4067422 l -1.453125,0.1171875 v 0.3046875 c 0.691406,0 0.773437,0.070312 0.773437,0.5625 v 1.7695313 c 0,0.86718746 -0.480469,1.54687496 -1.207031,1.54687496 -0.832031,0 -0.878906,-0.46875 -0.878906,-0.99609376 v -3.3046875 l -1.464844,0.1171875 v 0.3046875 c 0.785156,0 0.785156,0.035156 0.785156,0.9140625 v 1.5 c 0,0.77343751 0,1.67578126 1.511719,1.67578126 0.550781,0 0.996094,-0.26953125 1.277344,-0.890625 z M 33.27023,-3.9848672 h 1.429687 V -4.2895547 H 33.27023 v -1.8398437 h -0.246094 c -0.01172,0.8203125 -0.316406,1.8867187 -1.289063,1.921875 v 0.2226562 h 0.84375 v 2.7539063 c 0,1.21874996 0.925782,1.33593746 1.289063,1.33593746 0.703125,0 0.984375,-0.703125 0.984375,-1.33593746 v -0.5742188 h -0.246094 v 0.5507813 c 0,0.73828121 -0.304687,1.11328121 -0.667969,1.11328121 -0.667968,0 -0.667968,-0.90234371 -0.667968,-1.07812501 z m 3.266601,1.4765625 c 0.05859,-1.4882812 0.902344,-1.734375 1.242188,-1.734375 1.019531,0 1.125,1.3476563 1.125,1.734375 z m -0.01172,0.2109375 h 2.789063 c 0.210937,0 0.246094,0 0.246094,-0.2109375 0,-0.984375 -0.539063,-1.9570312 -1.78125,-1.9570312 -1.160157,0 -2.074219,1.03125 -2.074219,2.2734375 0,1.33593746 1.042969,2.29687496 2.191406,2.29687496 1.21875,0 1.664063,-1.1015625 1.664063,-1.28906246 0,-0.1054688 -0.08203,-0.1171875 -0.128907,-0.1171875 -0.09375,0 -0.117187,0.058594 -0.128906,0.140625 -0.351562,1.01953121 -1.253906,1.01953121 -1.347656,1.01953121 -0.503906,0 -0.902344,-0.29296875 -1.125,-0.66796875 -0.30469,-0.48046876 -0.30469,-1.13671876 -0.30469,-1.48828126 z m 4.989258,-1.0078125 v -1.1015625 l -1.382812,0.1171875 v 0.3046875 c 0.691406,0 0.773437,0.070312 0.773437,0.5625 v 2.66015626 c 0,0.45703125 -0.105469,0.45703125 -0.773437,0.45703125 V -4.921875e-4 C 40.518273,-0.01221094 40.987023,-0.03564844 41.268273,-0.03564844 c 0.398438,0 0.867188,0 1.265625,0.0351562525 V -0.30517969 h -0.210937 c -0.738281,0 -0.761719,-0.1171875 -0.761719,-0.46875 V -2.3090859 c 0,-0.984375 0.421875,-1.875 1.183594,-1.875 0.05859,0 0.08203,0 0.105469,0.011719 -0.03516,0.011719 -0.234375,0.1289063 -0.234375,0.3867188 0,0.28125 0.210937,0.4335937 0.433593,0.4335937 0.175782,0 0.421875,-0.1289062 0.421875,-0.4453125 0,-0.3164062 -0.304687,-0.609375 -0.726562,-0.609375 -0.738281,0 -1.089844,0.6679688 -1.230469,1.1015625 z m 0,0"
       style="fill:#000000;fill-opacity:1;fill-rule:nonzero;stroke:none"
       aria-label="Computer"
       transform="matrix(1.3333333,0,0,1.3333333,1150.5947,113.028)" />
    <path
       id="path78"
       d="m 56.69362,0 5.66926,22.67752 H 119.0565 L 113.38724,0 Z"
       style="fill:#808080;fill-opacity:1;fill-rule:nonzero;stroke:#000000;stroke-width:0.3985;stroke-linecap:butt;stroke-linejoin:miter;stroke-miterlimit:10;stroke-dasharray:none;stroke-opacity:1"
       transform="matrix(1.3333333,0,0,-1.3333333,1066.3773,94.662667)" />
  </g>
</svg>
