<?xml version="1.0" encoding="UTF-8" standalone="no"?>
<!-- Created with Inkscape (http://www.inkscape.org/) -->

<svg
   version="1.1"
   id="svg1"
   width="400"
   height="400"
   viewBox="0 0 200 200"
   xmlns="http://www.w3.org/2000/svg"
   xmlns:svg="http://www.w3.org/2000/svg">
  <defs
     id="defs1">
    <clipPath
       clipPathUnits="userSpaceOnUse"
       id="clipPath2">
      <path
         d="M -13.98152,-13.98116 H 153.78853 V 153.78442 H -13.98152 Z"
         id="path2" />
    </clipPath>
  </defs>
  <g
     id="g1">
    <path
       id="dir_sens"
       fill-opacity="0.15"
       fill="#0072b2"
       fill-rule="nonzero"
       stroke="#0072b2"
       stroke-width="0.99628"
       stroke-linecap="butt"
       stroke-linejoin="miter"
       stroke-miterlimit="10"
       stroke-opacity="1"
       d="m 0,69.90163 0.02257,-0.30208 0.04934,-0.3008 0.07576,-0.29851 0.10175,-0.29528 0.12714,-0.29111 0.15178,-0.28605 0.17556,-0.2801 0.19841,-0.27339 0.22014,-0.26593 0.24069,-0.2578 0.25998,-0.24907 0.27794,-0.23981 0.29451,-0.2301 0.3096,-0.22001 0.32321,-0.20964 0.33532,-0.19907 0.34588,-0.18837 0.35494,-0.17758 0.36244,-0.16687 0.3685,-0.15624 0.37303,-0.14576 0.37616,-0.13558 0.37787,-0.12564 0.37826,-0.11614 0.37738,-0.107 0.37524,-0.0984 0.37191,-0.09031 0.36752,-0.08281 0.36207,-0.07596 0.35563,-0.06976 0.3483,-0.06428 0.34009,-0.05959 0.33105,-0.05569 0.32135,-0.05262 0.31093,-0.05043 0.29985,-0.04918 0.28822,-0.04889 0.2761,-0.04958 0.26342,-0.05137 0.25037,-0.05421 0.23692,-0.05823 0.22312,-0.06343 0.20907,-0.06986 0.19477,-0.07759 0.18028,-0.08665 0.16568,-0.09711 0.15105,-0.10904 0.13638,-0.12239 0.12189,-0.1373 0.10748,-0.15376 0.09338,-0.17181 0.07965,-0.1915 0.06633,-0.21277 0.05361,-0.23573 0.04153,-0.26029 0.03029,-0.2865 0.01996,-0.3143 0.01065,-0.34362 0.0026,-0.3745 -0.0042,-0.40677 -0.0096,-0.44041 -0.01328,-0.47532 -0.01532,-0.51134 -0.01547,-0.54842 -0.0137,-0.58635 -0.0098,-0.62502 -0.0038,-0.66423 0.0046,-0.70384 0.01525,-0.74364 0.02838,-0.78345 0.04397,-0.82304 0.06215,-0.86224 0.08282,-0.90082 0.10609,-0.93861 0.13186,-0.97532 0.1602,-1.01082 0.19095,-1.04487 0.22417,-1.07732 0.25969,-1.10795 0.29745,-1.13663 0.3373,-1.16316 0.37923,-1.18743 0.42297,-1.20932 0.46844,-1.22869 0.51554,-1.24552 0.56398,-1.25964 0.61371,-1.27112 0.66455,-1.27985 0.71629,-1.28581 0.76878,-1.28906 0.82189,-1.28961 0.87542,-1.28749 0.92928,-1.28275 0.98325,-1.27547 1.03723,-1.26573 1.09111,-1.25363 1.14476,-1.23927 1.1981,-1.22272 1.25098,-1.20412 1.30338,-1.18358 1.35517,-1.1612 1.40638,-1.13706 1.45678,-1.11127 1.50652,-1.08397 1.5554,-1.05514 1.60347,-1.02492 1.65064,-0.99338 L 43.30467,10.2464 45.04681,9.32 46.83325,8.42896 48.66289,7.57452 50.5346,6.75793 52.44719,5.98047 54.39934,5.24338 56.38976,4.54803 58.4169,3.89578 60.47914,3.28807 62.57481,2.72636 64.70203,2.21219 66.8587,1.74716 69.04265,1.3329 71.25145,0.97112 73.48253,0.66353 75.73303,0.4119 77.99995,0.21797 80.28014,0.08353 82.57005,0.0103 84.86609,0 l 2.29829,0.05421 2.29648,0.12034 2.2905,0.18788 2.28006,0.25671 2.26509,0.32675 2.24549,0.39772 2.22118,0.46952 2.19202,0.54188 2.15804,0.61453 2.11929,0.68729 2.07576,0.75984 2.02754,0.8319 1.97481,0.90323 1.91776,0.97346 1.85648,1.04239 1.7914,1.10963 1.72269,1.17498 1.65076,1.23808 1.57591,1.29873 1.49866,1.35668 1.41929,1.41168 1.33843,1.46353 1.25639,1.51207 1.17378,1.55715 1.09107,1.59866 1.00874,1.6365 0.92732,1.67066 0.84734,1.70108 0.76918,1.72784 0.69342,1.75098 0.62041,1.77058 0.55063,1.78679 0.48432,1.79976 0.42198,1.80969 0.36373,1.81678 0.30987,1.82129 0.26056,1.82347 0.21596,1.82361 0.17604,1.82194 0.14084,1.81888 0.11035,1.81462 0.0844,1.80945 0.0627,1.80377 0.0452,1.79773 0.0316,1.79172 0.0214,1.78587 0.0144,1.78049 0.01,1.77576 0.008,1.7718 0.007,1.76881 0.008,1.76686 0.01,1.76606 -0.01,1.76602 -0.008,1.76687 -0.007,1.7688 -0.008,1.77182 -0.01,1.77575 -0.0144,1.78048 -0.0214,1.78589 -0.0316,1.7917 -0.0452,1.79775 -0.0627,1.80375 -0.0844,1.80947 -0.11035,1.81462 -0.14084,1.81886 -0.17604,1.82196 -0.21596,1.8236 -0.26056,1.82348 -0.30987,1.82129 -0.36373,1.81677 -0.42198,1.80968 -0.48432,1.79977 -0.55063,1.78678 -0.62041,1.77058 -0.69342,1.75099 -0.76918,1.72783 -0.84734,1.7011 -0.92732,1.67066 -1.00874,1.6365 -1.09107,1.59865 -1.17378,1.55715 -1.25639,1.51208 -1.33843,1.46352 -1.41929,1.41167 -1.49866,1.35668 -1.57591,1.29875 -1.65076,1.23808 -1.72269,1.17496 -1.7914,1.10963 -1.85648,1.04239 -1.91776,0.97348 -1.97481,0.90322 -2.02754,0.83192 -2.07576,0.75983 -2.11929,0.68727 -2.15804,0.61455 -2.19202,0.54187 -2.22118,0.46951 -2.24549,0.39775 -2.26509,0.32674 -2.28006,0.25671 -2.2905,0.18789 -2.29648,0.12031 -2.29829,0.0542 -2.29604,-0.0103 -2.28991,-0.0732 -2.28019,-0.13445 -2.26692,-0.19391 -2.2505,-0.25163 -2.23108,-0.30759 -2.2088,-0.3618 -2.18395,-0.41423 -2.15667,-0.46504 -2.12722,-0.51416 -2.09567,-0.56174 -2.06224,-0.60771 -2.02714,-0.65224 -1.99042,-0.69536 -1.95215,-0.73707 -1.91259,-0.77748 -1.87171,-0.81659 -1.82964,-0.85443 -1.78644,-0.89104 -1.74214,-0.92641 -1.69691,-0.96051 -1.65064,-0.99337 -1.60347,-1.02494 -1.5554,-1.05514 -1.50652,-1.08394 -1.45678,-1.11128 -1.40638,-1.13706 -1.35517,-1.16119 -1.30338,-1.18359 -1.25098,-1.20412 -1.1981,-1.22273 -1.14476,-1.23926 -1.09111,-1.25363 -1.03723,-1.26574 -0.98325,-1.27548 -0.92928,-1.28274 -0.87542,-1.28748 -0.82189,-1.28961 -0.76878,-1.28908 -0.71629,-1.28581 -0.66455,-1.27982 -0.61371,-1.27111 -0.56398,-1.25968 -0.51554,-1.24551 -0.46844,-1.2287 -0.42297,-1.2093 -0.37923,-1.18745 -0.3373,-1.16314 -0.29745,-1.13661 -0.25969,-1.10798 -0.22417,-1.07731 -0.19095,-1.04488 -0.1602,-1.01082 -0.13186,-0.97532 -0.10609,-0.93859 -0.08282,-0.90083 -0.06215,-0.86224 -0.04397,-0.82306 -0.02838,-0.78345 -0.01525,-0.74364 -0.0046,-0.70382 0.0038,-0.66425 0.0098,-0.62501 0.0137,-0.58635 0.01547,-0.54842 0.01532,-0.51133 0.01328,-0.47532 0.0096,-0.44041 0.0042,-0.40679 -0.0026,-0.37448 -0.01065,-0.34364 -0.01996,-0.3143 L 13.4013,78.42008 13.35977,78.15978 13.30621,77.92406 13.23988,77.71127 13.16023,77.51979 13.06685,77.34796 12.95937,77.19421 12.83748,77.0569 12.7011,76.93451 12.55005,76.82549 12.38437,76.72838 12.20409,76.64171 12.00932,76.56412 11.80025,76.49426 11.57713,76.43085 11.34021,76.37262 11.08984,76.31839 10.82642,76.26704 10.55032,76.21745 10.2621,76.16856 9.96225,76.11938 9.65132,76.06894 9.32997,76.01633 8.99892,75.96065 8.65883,75.90105 8.31053,75.83676 7.9549,75.767 7.59283,75.69106 7.22531,75.60825 6.8534,75.51793 6.47816,75.41953 6.10078,75.31253 5.72252,75.1964 5.34465,75.07076 4.96849,74.93518 4.59546,74.78941 4.22696,74.63318 3.86452,74.46631 3.50958,74.28871 3.1637,74.10036 2.82838,73.90129 2.50517,73.69165 2.19557,73.47162 1.90106,73.24153 1.62312,73.00172 1.36314,72.75266 1.12245,72.49486 0.90231,72.22893 0.7039,71.95554 0.52834,71.67542 0.37656,71.38937 0.24942,71.09828 0.14767,70.803 0.07191,70.50447 0.02257,70.20369 0,69.90163"
       transform="matrix(1.3333333,0,0,-1.3333333,18.509333,204.68533)"
       clip-path="url(#clipPath2)" />
    <path
       id="middle"
       d="m 22.43056,69.90163 c 0,1.10046 -0.89209,1.99255 -1.99256,1.99255 -1.10046,0 -1.99255,-0.89209 -1.99255,-1.99255 0,-1.10048 0.89209,-1.99256 1.99255,-1.99256 1.10047,0 1.99256,0.89208 1.99256,1.99256 z"
       style="fill:#0072b2;fill-opacity:1;fill-rule:nonzero;stroke:#0072b2;stroke-width:0.99628;stroke-linecap:butt;stroke-linejoin:miter;stroke-miterlimit:10;stroke-dasharray:none;stroke-opacity:1"
       transform="matrix(1.3333333,0,0,-1.3333333,18.509333,204.68533)" />
  </g>
</svg>
