<?xml version="1.0" encoding="UTF-8" standalone="no"?>
<!-- Created with Inkscape (http://www.inkscape.org/) -->

<svg
   version="1.1"
   id="svg1"
   width="440"
   height="440"
   viewBox="0 0 220 220"
   xmlns="http://www.w3.org/2000/svg"
   xmlns:svg="http://www.w3.org/2000/svg">
  <defs
     id="defs1">
    <clipPath
       clipPathUnits="userSpaceOnUse"
       id="clipPath2">
      <path
         d="m -13.98149,-13.98149 h 167.7695 v 167.7695 h -167.7695 z"
         id="path2" />
    </clipPath>
  </defs>
  <g
     id="g1">
    <path
       id="dir_sens"
       fill-opacity="0.15"
       fill="#0072b2"
       fill-rule="nonzero"
       stroke="#0072b2"
       stroke-width="0.99628"
       stroke-linecap="butt"
       stroke-linejoin="miter"
       stroke-miterlimit="10"
       stroke-opacity="1"
       d="M 0.01064,71.12323 0,69.90324 l 0.01064,-1.21998 0.03192,-1.21961 0.05322,-1.21887 0.07449,-1.21774 0.09571,-1.21628 0.11694,-1.2144 0.13812,-1.21217 0.15924,-1.2096 0.18033,-1.20662 0.20136,-1.20331 0.22233,-1.1996 0.24323,-1.19552 0.26407,-1.1911 0.28482,-1.18633 0.30546,-1.18117 0.32604,-1.17566 0.34649,-1.16976 0.36689,-1.16358 0.38711,-1.15697 0.40726,-1.15005 0.42724,-1.14276 0.44716,-1.13513 0.46689,-1.12717 0.48647,-1.11882 0.50593,-1.11018 0.52526,-1.10119 0.54437,-1.09184 0.56335,-1.08218 0.58213,-1.07218 0.60078,-1.06186 0.6192,-1.05121 0.63747,-1.04023 0.65553,-1.02897 0.67337,-1.01737 0.69103,-1.00545 0.70846,-0.99324 0.72571,-0.98073 0.74271,-0.96791 0.75947,-0.9548 0.77603,-0.94141 0.79235,-0.9277 0.80842,-0.91376 0.82424,-0.89949 0.83982,-0.88498 0.85511,-0.87019 0.87019,-0.85511 0.88498,-0.83982 0.89949,-0.82424 0.91376,-0.80842 0.9277,-0.79235 0.94141,-0.77603 0.9548,-0.75947 0.96791,-0.74271 0.98073,-0.72571 0.99324,-0.70846 1.00545,-0.69103 1.01737,-0.67337 1.02897,-0.65553 1.04023,-0.63747 1.05121,-0.6192 1.06186,-0.60078 1.07218,-0.58213 1.08218,-0.56335 1.09184,-0.54437 1.10119,-0.52526 1.11018,-0.50593 1.11882,-0.48647 1.12717,-0.46689 1.13513,-0.44716 1.14276,-0.42724 1.15005,-0.40726 1.15697,-0.38711 1.16358,-0.36689 1.16976,-0.34649 1.17566,-0.32604 1.18117,-0.30546 1.18633,-0.28482 1.1911,-0.26407 1.19552,-0.24323 1.1996,-0.22233 1.20331,-0.20136 1.20662,-0.18033 1.2096,-0.15924 1.21217,-0.13812 1.2144,-0.11694 L 65.02704,0.17027 66.24478,0.09578 67.46365,0.04256 68.68326,0.01064 69.90324,0 l 1.21999,0.01064 1.2196,0.03192 1.21886,0.05322 1.21776,0.07449 1.21626,0.09571 1.21442,0.11694 1.21217,0.13812 1.2096,0.15924 1.20662,0.18033 1.20329,0.20136 1.19961,0.22233 1.19553,0.24323 1.1911,0.26407 1.18633,0.28482 1.18115,0.30546 1.17566,0.32604 1.16978,0.34649 1.16358,0.36689 1.15696,0.38711 1.15006,0.40726 1.14276,0.42724 1.13513,0.44716 1.12717,0.46689 1.11882,0.48647 1.11018,0.50593 1.10117,0.52526 1.09186,0.54437 1.08218,0.56335 1.07216,0.58213 1.06187,0.60078 1.05121,0.6192 1.04024,0.63747 1.02896,0.65553 1.01738,0.67337 1.00545,0.69103 0.99322,0.70846 0.98075,0.72571 0.96791,0.74271 0.95479,0.75947 0.94142,0.77603 0.9277,0.79235 0.91376,0.80842 0.89947,0.82424 0.885,0.83982 0.87019,0.85511 0.8551,0.87019 0.83982,0.88498 0.82425,0.89949 0.80842,0.91376 0.79235,0.9277 0.77603,0.94141 0.75947,0.9548 0.74271,0.96791 0.72571,0.98073 0.70845,0.99324 0.69104,1.00545 0.67337,1.01737 0.65553,1.02897 0.63747,1.04023 0.6192,1.05121 0.60078,1.06186 0.58213,1.07218 0.56335,1.08218 0.54437,1.09184 0.52524,1.10119 0.50594,1.11018 0.48648,1.11882 0.46689,1.12717 0.44714,1.13513 0.42726,1.14276 0.40726,1.15005 0.38712,1.15697 0.36686,1.16358 0.3465,1.16976 0.32604,1.17566 0.30547,1.18117 0.28483,1.18633 0.26405,1.1911 0.24324,1.19552 0.22231,1.1996 0.20138,1.20331 0.18032,1.20662 0.15925,1.2096 0.13812,1.21217 0.11693,1.2144 0.0957,1.21628 0.0745,1.21774 0.0532,1.21887 0.0319,1.21961 0.0106,1.21998 -0.0106,1.21999 -0.0319,1.2196 -0.0532,1.21886 -0.0745,1.21776 -0.0957,1.21626 -0.11693,1.21442 -0.13812,1.21217 -0.15925,1.2096 -0.18032,1.20662 -0.20138,1.20329 -0.22231,1.19961 -0.24324,1.19553 -0.26405,1.1911 -0.28483,1.18633 -0.30547,1.18115 -0.32604,1.17566 -0.3465,1.16978 -0.36686,1.16358 -0.38712,1.15696 -0.40726,1.15006 -0.42726,1.14276 -0.44714,1.13513 -0.46689,1.12717 -0.48648,1.11882 -0.50594,1.11018 -0.52524,1.10117 -0.54437,1.09186 -0.56335,1.08218 -0.58213,1.07216 -0.60078,1.06187 -0.6192,1.05121 -0.63747,1.04024 -0.65553,1.02896 -0.67337,1.01738 -0.69104,1.00545 -0.70845,0.99322 -0.72571,0.98075 -0.74271,0.96791 -0.75947,0.95479 -0.77603,0.94142 -0.79235,0.9277 -0.80842,0.91376 -0.82425,0.89947 -0.83982,0.885 -0.8551,0.87019 -0.87019,0.8551 -0.885,0.83982 -0.89947,0.82425 -0.91376,0.80842 -0.9277,0.79235 -0.94142,0.77603 -0.95479,0.75947 -0.96791,0.74271 -0.98075,0.72571 -0.99322,0.70845 -1.00545,0.69104 -1.01738,0.67337 -1.02896,0.65553 -1.04024,0.63747 -1.05121,0.6192 -1.06187,0.60078 -1.07216,0.58213 -1.08218,0.56335 -1.09186,0.54437 -1.10117,0.52524 -1.11018,0.50594 -1.11882,0.48648 -1.12717,0.46689 -1.13513,0.44714 -1.14276,0.42726 -1.15006,0.40726 -1.15696,0.38712 -1.16358,0.36686 -1.16978,0.3465 -1.17566,0.32604 -1.18115,0.30547 -1.18633,0.28483 -1.1911,0.26405 -1.19553,0.24324 -1.19961,0.22231 -1.20329,0.20138 -1.20662,0.18032 -1.2096,0.15925 -1.21217,0.13812 -1.21442,0.11693 -1.21626,0.0957 -1.21776,0.0745 -1.21886,0.0532 -1.2196,0.0319 -1.21999,0.0106 -1.21998,-0.0106 -1.21961,-0.0319 -1.21887,-0.0532 -1.21774,-0.0745 -1.21628,-0.0957 -1.2144,-0.11693 -1.21217,-0.13812 -1.2096,-0.15925 -1.20662,-0.18032 -1.20331,-0.20138 -1.1996,-0.22231 -1.19552,-0.24324 -1.1911,-0.26405 -1.18633,-0.28483 -1.18117,-0.30547 -1.17566,-0.32604 -1.16976,-0.3465 -1.16358,-0.36686 -1.15697,-0.38712 -1.15005,-0.40726 -1.14276,-0.42726 -1.13513,-0.44714 -1.12717,-0.46689 -1.11882,-0.48648 -1.11018,-0.50594 -1.10119,-0.52524 -1.09184,-0.54437 -1.08218,-0.56335 -1.07218,-0.58213 -1.06186,-0.60078 -1.05121,-0.6192 -1.04023,-0.63747 -1.02897,-0.65553 -1.01737,-0.67337 -1.00545,-0.69104 -0.99324,-0.70845 -0.98073,-0.72571 -0.96791,-0.74271 -0.9548,-0.75947 -0.94141,-0.77603 -0.9277,-0.79235 -0.91376,-0.80842 -0.89949,-0.82425 -0.88498,-0.83982 -0.87019,-0.8551 -0.85511,-0.87019 -0.83982,-0.885 -0.82424,-0.89947 -0.80842,-0.91376 -0.79235,-0.9277 -0.77603,-0.94142 -0.75947,-0.95479 -0.74271,-0.96791 -0.72571,-0.98075 -0.70846,-0.99322 -0.69103,-1.00545 -0.67337,-1.01738 -0.65553,-1.02896 -0.63747,-1.04024 -0.6192,-1.05121 L 8.76447,103.793 8.18234,102.72084 7.61899,101.63866 7.07462,100.5468 6.54936,99.44563 6.04343,98.33545 5.55696,97.21663 5.09007,96.08946 4.64291,94.95433 4.21567,93.81157 3.80841,92.66151 3.4213,91.50455 3.05441,90.34097 2.70792,89.17119 2.38188,87.99553 2.07642,86.81438 1.7916,85.62805 1.52753,84.43695 1.2843,83.24142 1.06197,82.04181 0.86061,80.83852 0.68028,79.6319 0.52104,78.4223 0.38292,77.21013 0.26598,75.99571 0.17027,74.77945 0.09578,73.56169 0.04256,72.34283 0.01064,71.12323 0,69.90324 0.01064,68.68326"
       transform="matrix(1.3333333,0,0,-1.3333333,18.509333,204.68933)"
       clip-path="url(#clipPath2)" />
    <path
       id="middle"
       d="m 71.8958,69.90324 c 0,1.10048 -0.89208,1.99256 -1.99256,1.99256 -1.10046,0 -1.99255,-0.89208 -1.99255,-1.99256 0,-1.10046 0.89209,-1.99255 1.99255,-1.99255 1.10048,0 1.99256,0.89209 1.99256,1.99255 z"
       style="fill:#0072b2;fill-opacity:1;fill-rule:nonzero;stroke:#0072b2;stroke-width:0.99628;stroke-linecap:butt;stroke-linejoin:miter;stroke-miterlimit:10;stroke-dasharray:none;stroke-opacity:1"
       transform="matrix(1.3333333,0,0,-1.3333333,18.509333,204.68933)" />
  </g>
</svg>
