<?xml version="1.0" encoding="UTF-8" standalone="no"?>
<!-- Created with Inkscape (http://www.inkscape.org/) -->

<svg
   version="1.1"
   id="svg1"
   width="362.65332"
   height="272.21332"
   viewBox="0 0 362.65332 272.21332"
   xmlns="http://www.w3.org/2000/svg"
   xmlns:svg="http://www.w3.org/2000/svg">
  <defs
     id="defs1" />
  <g
     id="g1">
    <g
       id="g2"
       aria-label="+...+"
       transform="matrix(1.3333333,0,0,1.3333333,77.705333,40.549333)">
      <path
         id="path2"
         d="m 4.0793984,-2.2957891 h 2.7773438 c 0.140625,0 0.328125,0 0.328125,-0.1992187 0,-0.1992188 -0.1875,-0.1992188 -0.328125,-0.1992188 H 4.0793984 v -2.7890625 c 0,-0.1289062 0,-0.328125 -0.1992187,-0.328125 -0.1992188,0 -0.1992188,0.1992188 -0.1992188,0.328125 v 2.7890625 H 0.89189844 c -0.140625,0 -0.328125,0 -0.328125,0.1992188 0,0.1992187 0.1875,0.1992187 0.328125,0.1992187 H 3.6809609 v 2.80078129 c 0,0.12890625 0,0.328125 0.1992188,0.328125 0.1992187,0 0.1992187,-0.19921875 0.1992187,-0.328125 z m 0,0"
         style="fill:#d9d9d9;fill-opacity:1;fill-rule:nonzero;stroke:none" />
      <path
         id="path3"
         d="m 14.087211,-0.52625781 c 0,-0.29296875 -0.234375,-0.52734379 -0.527344,-0.52734379 -0.28125,0 -0.527344,0.23437504 -0.527344,0.52734379 0,0.29296875 0.246094,0.52734375 0.527344,0.52734375 0.292969,0 0.527344,-0.234375 0.527344,-0.52734375 z m 4.432617,0 c 0,-0.29296875 -0.234375,-0.52734379 -0.527344,-0.52734379 -0.28125,0 -0.527343,0.23437504 -0.527343,0.52734379 0,0.29296875 0.246093,0.52734375 0.527343,0.52734375 0.292969,0 0.527344,-0.234375 0.527344,-0.52734375 z m 4.420899,0 c 0,-0.29296875 -0.234375,-0.52734379 -0.527344,-0.52734379 -0.28125,0 -0.527344,0.23437504 -0.527344,0.52734379 0,0.29296875 0.246094,0.52734375 0.527344,0.52734375 0.292969,0 0.527344,-0.234375 0.527344,-0.52734375 z m 0,0"
         style="fill:#d9d9d9;fill-opacity:1;fill-rule:nonzero;stroke:none" />
      <path
         id="path4"
         d="m 32.306938,-2.2957891 h 2.777343 c 0.140625,0 0.328125,0 0.328125,-0.1992187 0,-0.1992188 -0.1875,-0.1992188 -0.328125,-0.1992188 h -2.777343 v -2.7890625 c 0,-0.1289062 0,-0.328125 -0.199219,-0.328125 -0.199219,0 -0.199219,0.1992188 -0.199219,0.328125 v 2.7890625 h -2.789062 c -0.140625,0 -0.328125,0 -0.328125,0.1992188 0,0.1992187 0.1875,0.1992187 0.328125,0.1992187 H 31.9085 v 2.80078129 c 0,0.12890625 0,0.328125 0.199219,0.328125 0.199219,0 0.199219,-0.19921875 0.199219,-0.328125 z m 0,0"
         style="fill:#d9d9d9;fill-opacity:1;fill-rule:nonzero;stroke:none" />
    </g>
    <g
       id="g4"
       aria-label="+...+"
       transform="matrix(1.3333333,0,0,1.3333333,182.776,40.549333)">
      <path
         id="path5"
         d="m 4.0791328,-2.2957891 h 2.7773438 c 0.140625,0 0.328125,0 0.328125,-0.1992187 0,-0.1992188 -0.1875,-0.1992188 -0.328125,-0.1992188 H 4.0791328 v -2.7890625 c 0,-0.1289062 0,-0.328125 -0.1992187,-0.328125 -0.1992188,0 -0.1992188,0.1992188 -0.1992188,0.328125 v 2.7890625 H 0.89163281 c -0.140625,0 -0.328125,0 -0.328125,0.1992188 0,0.1992187 0.1875,0.1992187 0.328125,0.1992187 H 3.6806953 v 2.80078129 c 0,0.12890625 0,0.328125 0.1992188,0.328125 0.1992187,0 0.1992187,-0.19921875 0.1992187,-0.328125 z m 0,0"
         style="fill:#d9d9d9;fill-opacity:1;fill-rule:nonzero;stroke:none" />
      <path
         id="path6"
         d="m 14.086945,-0.52625781 c 0,-0.29296875 -0.234375,-0.52734379 -0.527343,-0.52734379 -0.28125,0 -0.527344,0.23437504 -0.527344,0.52734379 0,0.29296875 0.246094,0.52734375 0.527344,0.52734375 0.292968,0 0.527343,-0.234375 0.527343,-0.52734375 z m 4.432618,0 c 0,-0.29296875 -0.234375,-0.52734379 -0.527344,-0.52734379 -0.28125,0 -0.527344,0.23437504 -0.527344,0.52734379 0,0.29296875 0.246094,0.52734375 0.527344,0.52734375 0.292969,0 0.527344,-0.234375 0.527344,-0.52734375 z m 4.420898,0 c 0,-0.29296875 -0.234375,-0.52734379 -0.527344,-0.52734379 -0.28125,0 -0.527344,0.23437504 -0.527344,0.52734379 0,0.29296875 0.246094,0.52734375 0.527344,0.52734375 0.292969,0 0.527344,-0.234375 0.527344,-0.52734375 z m 0,0"
         style="fill:#d9d9d9;fill-opacity:1;fill-rule:nonzero;stroke:none" />
      <path
         id="path7"
         d="m 32.306672,-2.2957891 h 2.777344 c 0.140625,0 0.328125,0 0.328125,-0.1992187 0,-0.1992188 -0.1875,-0.1992188 -0.328125,-0.1992188 h -2.777344 v -2.7890625 c 0,-0.1289062 0,-0.328125 -0.199219,-0.328125 -0.199219,0 -0.199219,0.1992188 -0.199219,0.328125 v 2.7890625 h -2.789062 c -0.140625,0 -0.328125,0 -0.328125,0.1992188 0,0.1992187 0.1875,0.1992187 0.328125,0.1992187 h 2.789062 v 2.80078129 c 0,0.12890625 0,0.328125 0.199219,0.328125 0.199219,0 0.199219,-0.19921875 0.199219,-0.328125 z m 0,0"
         style="fill:#d9d9d9;fill-opacity:1;fill-rule:nonzero;stroke:none" />
    </g>
    <path
       id="path8"
       d="m 6.8451484,-3.2577656 c 0.1523438,0 0.3398438,0 0.3398438,-0.1992188 0,-0.1992187 -0.1875,-0.1992187 -0.328125,-0.1992187 H 0.89202344 c -0.140625,0 -0.328125,0 -0.328125,0.1992187 0,0.1992188 0.1875,0.1992188 0.33984375,0.1992188 z m 0.011719,1.9335937 c 0.140625,0 0.328125,0 0.328125,-0.1992187 0,-0.1992188 -0.1875,-0.1992188 -0.3398438,-0.1992188 H 0.90374219 c -0.15234375,0 -0.33984375,0 -0.33984375,0.1992188 0,0.1992187 0.1875,0.1992187 0.328125,0.1992187 z m 0,0"
       style="fill:#d9d9d9;fill-opacity:1;fill-rule:nonzero;stroke:none"
       aria-label="="
       transform="matrix(1.3333333,0,0,1.3333333,303.64267,39.664)" />
    <path
       id="path9"
       d="M 234.85341,197.43541 V 185.3868"
       style="fill:none;stroke:#d9d9d9;stroke-width:0.79701;stroke-linecap:butt;stroke-linejoin:miter;stroke-miterlimit:10;stroke-dasharray:none;stroke-opacity:1"
       transform="matrix(1.3333333,0,0,-1.3333333,29.878667,328.81867)" />
    <path
       id="path10"
       d="M -1.55415,2.0722 C -1.42464,1.29512 0,0.1295 0.38852,0 0,-0.1295 -1.42464,-1.29512 -1.55415,-2.0722"
       style="fill:none;stroke:#d9d9d9;stroke-width:0.6376;stroke-linecap:round;stroke-linejoin:round;stroke-miterlimit:10;stroke-dasharray:none;stroke-opacity:1"
       transform="matrix(0,1.3333333,1.3333333,0,343.01655,81.636267)" />
    <g
       id="g10"
       aria-label="V(ψ)"
       transform="matrix(1.3333333,0,0,1.3333333,327.932,99.132)">
      <path
         id="path11"
         d="m 6.2590078,-5.6712656 c 0.4804688,-0.7734375 0.9023438,-0.8085938 1.2773438,-0.8203125 0.1171875,-0.011719 0.1289062,-0.1875 0.1289062,-0.1875 0,-0.082031 -0.058594,-0.1289063 -0.1289062,-0.1289063 -0.2578125,0 -0.5507813,0.035156 -0.8203125,0.035156 -0.328125,0 -0.6679688,-0.035156 -0.984375,-0.035156 -0.058594,0 -0.1875,0 -0.1875,0.1992188 0,0.1054687 0.082031,0.1171875 0.1523437,0.1171875 0.2695313,0.011719 0.4570313,0.1171875 0.4570313,0.328125 0,0.1523437 -0.140625,0.3632812 -0.140625,0.375 L 2.9543203,-0.92517187 2.2746328,-6.1986094 c 0,-0.1640625 0.2226563,-0.2929687 0.6796875,-0.2929687 0.140625,0 0.2578125,0 0.2578125,-0.1992188 0,-0.09375 -0.082031,-0.1171875 -0.140625,-0.1171875 -0.3984375,0 -0.8320312,0.035156 -1.2421875,0.035156 -0.1757812,0 -0.3632812,-0.011719 -0.5390625,-0.011719 -0.1875,0 -0.37499999,-0.023437 -0.53906249,-0.023437 -0.0703125,0 -0.1875,0 -0.1875,0.1992188 0,0.1171875 0.0820313,0.1171875 0.24609375,0.1171875 0.55078124,0 0.56250004,0.082031 0.59765624,0.3398437 l 0.7851563,6.14062503 c 0.035156,0.19921875 0.070312,0.234375 0.1992187,0.234375 0.1640625,0 0.1992188,-0.0585938 0.28125,-0.1875 z m 0,0"
         style="fill:#d9d9d9;fill-opacity:1;fill-rule:nonzero;stroke:none" />
      <path
         id="path12"
         d="m 11.318578,2.3912344 c 0,-0.035156 0,-0.046875 -0.164062,-0.2226563 -1.2421879,-1.25390622 -1.5703129,-3.12890622 -1.5703129,-4.6640625 0,-1.7226562 0.3867188,-3.4570312 1.6054689,-4.7109375 0.128906,-0.1171875 0.128906,-0.1289062 0.128906,-0.1640625 0,-0.070312 -0.03516,-0.1054687 -0.09375,-0.1054687 -0.105469,0 -0.996094,0.6796875 -1.5820311,1.9453125 -0.515625,1.1015625 -0.6328125,2.203125 -0.6328125,3.0351562 0,0.7851563 0.1171875,1.99218753 0.65625,3.11718753 0.5976566,1.21874997 1.4531246,1.87499997 1.5585936,1.87499997 0.05859,0 0.09375,-0.035156 0.09375,-0.1054687 z m 0,0"
         style="fill:#d9d9d9;fill-opacity:1;fill-rule:nonzero;stroke:none" />
      <path
         id="path13"
         d="m 16.703344,-6.6556406 c 0.01172,-0.035156 0.02344,-0.09375 0.02344,-0.1523438 0,-0.09375 -0.07031,-0.1054687 -0.117187,-0.1054687 -0.09375,0 -0.105469,0.023437 -0.152344,0.1992187 l -1.652344,6.58593753 c -0.75,-0.09375 -1.136718,-0.45703125 -1.136718,-1.11328123 0,-0.1992188 0,-0.4570313 0.539062,-1.8515625 0.04687,-0.1289063 0.117188,-0.2929688 0.117188,-0.4921875 0,-0.4453125 -0.328125,-0.8203125 -0.820313,-0.8203125 -0.949219,0 -1.3125,1.453125 -1.3125,1.5351562 0,0.1054688 0.09375,0.1054688 0.117188,0.1054688 0.09375,0 0.105468,-0.023437 0.152343,-0.1875 0.269532,-0.9375 0.667969,-1.2304688 1.007813,-1.2304688 0.08203,0 0.257812,0 0.257812,0.3164063 0,0.2578125 -0.105468,0.515625 -0.234375,0.8554687 -0.480468,1.2539063 -0.480468,1.5117188 -0.480468,1.6875 0,0.94921878 0.785156,1.35937503 1.734375,1.41796878 -0.08203,0.3515625 -0.08203,0.375 -0.222657,0.90234375 C 14.500219,1.1021719 14.301,1.9107656 14.301,1.9459219 c 0,0.011719 0,0.09375 0.117188,0.09375 0.02344,0 0.07031,0 0.09375,-0.035156 0.02344,-0.023437 0.08203,-0.2695312 0.117187,-0.4101562 l 0.375,-1.48828127 c 0.375,0 1.242188,0 2.179688,-1.06640625 0.410156,-0.45703128 0.621093,-0.89062498 0.726562,-1.19531248 0.09375,-0.2460938 0.316406,-1.1132813 0.316406,-1.546875 0,-0.5625 -0.269531,-0.703125 -0.445312,-0.703125 -0.246094,0 -0.492188,0.2578125 -0.492188,0.4804687 0,0.1289063 0.05859,0.1875 0.152344,0.2695313 0.105469,0.1054687 0.351563,0.3632812 0.351563,0.84375 0,0.6445312 -0.515625,1.453125 -0.867188,1.81640623 -0.878906,0.890625 -1.511719,0.890625 -1.875,0.890625 z m 0,0"
         style="fill:#d9d9d9;fill-opacity:1;fill-rule:nonzero;stroke:none" />
      <path
         id="path14"
         d="m 21.631078,-2.4954844 c 0,-0.7734375 -0.117187,-1.9804687 -0.65625,-3.1054687 -0.597656,-1.21875 -1.464844,-1.875 -1.558594,-1.875 -0.05859,0 -0.105468,0.046875 -0.105468,0.1054687 0,0.035156 0,0.046875 0.199218,0.234375 0.972657,0.984375 1.535157,2.5664063 1.535157,4.640625 0,1.71093753 -0.363282,3.45703128 -1.59375,4.7226563 -0.140625,0.1171875 -0.140625,0.1289062 -0.140625,0.1640625 0,0.058594 0.04687,0.1054687 0.105468,0.1054687 0.09375,0 0.996094,-0.6796875 1.582032,-1.94531247 0.503906,-1.1015625 0.632812,-2.20312503 0.632812,-3.04687503 z m 0,0"
         style="fill:#d9d9d9;fill-opacity:1;fill-rule:nonzero;stroke:none" />
    </g>
    <path
       id="path15"
       d="M -22.11046,160.58447 H 240.94788"
       style="fill:none;stroke:#d9d9d9;stroke-width:0.79701;stroke-linecap:butt;stroke-linejoin:miter;stroke-miterlimit:10;stroke-dasharray:0.79701, 1.99255;stroke-dashoffset:0;stroke-opacity:1"
       transform="matrix(1.3333333,0,0,-1.3333333,29.878667,328.81867)" />
    <path
       id="path16"
       d="M 7.08669,73.70186 V 60.23582"
       style="fill:none;stroke:#d9d9d9;stroke-width:0.79701;stroke-linecap:butt;stroke-linejoin:miter;stroke-miterlimit:10;stroke-dasharray:none;stroke-opacity:1"
       transform="matrix(1.3333333,0,0,-1.3333333,29.878667,328.81867)" />
    <path
       id="path17"
       d="M -1.55415,2.0722 C -1.42464,1.29512 0,0.1295 0.38852,0 0,-0.1295 -1.42464,-1.29512 -1.55415,-2.0722"
       style="fill:none;stroke:#d9d9d9;stroke-width:0.6376;stroke-linecap:round;stroke-linejoin:round;stroke-miterlimit:10;stroke-dasharray:none;stroke-opacity:1"
       transform="matrix(0,1.3333333,1.3333333,0,39.327587,248.50424)" />
    <path
       id="path18"
       d="M 93.54454,73.70186 V 60.23582"
       style="fill:none;stroke:#d9d9d9;stroke-width:0.79701;stroke-linecap:butt;stroke-linejoin:miter;stroke-miterlimit:10;stroke-dasharray:none;stroke-opacity:1"
       transform="matrix(1.3333333,0,0,-1.3333333,29.878667,328.81867)" />
    <path
       id="path19"
       d="M -1.55415,2.0722 C -1.42464,1.29512 0,0.1295 0.38852,0 0,-0.1295 -1.42464,-1.29512 -1.55415,-2.0722"
       style="fill:none;stroke:#d9d9d9;stroke-width:0.6376;stroke-linecap:round;stroke-linejoin:round;stroke-miterlimit:10;stroke-dasharray:none;stroke-opacity:1"
       transform="matrix(0,1.3333333,1.3333333,0,154.60472,248.50424)" />
    <path
       id="path20"
       d="M 184.25424,73.70186 V 60.23582"
       style="fill:none;stroke:#d9d9d9;stroke-width:0.79701;stroke-linecap:butt;stroke-linejoin:miter;stroke-miterlimit:10;stroke-dasharray:none;stroke-opacity:1"
       transform="matrix(1.3333333,0,0,-1.3333333,29.878667,328.81867)" />
    <path
       id="path21"
       d="M -1.55415,2.0722 C -1.42464,1.29512 0,0.1295 0.38852,0 0,-0.1295 -1.42464,-1.29512 -1.55415,-2.0722"
       style="fill:none;stroke:#d9d9d9;stroke-width:0.6376;stroke-linecap:round;stroke-linejoin:round;stroke-miterlimit:10;stroke-dasharray:none;stroke-opacity:1"
       transform="matrix(0,1.3333333,1.3333333,0,275.55099,248.50424)" />
    <g
       id="g21"
       aria-label="w&#10;1&#10;V&#10;1&#10;(ψ)+...+w&#10;n&#10;V&#10;n&#10;(ψ)+...+w&#10;F&#10;V&#10;F&#10;(ψ)=V(ψ)"
       transform="matrix(1.3333333,0,0,1.3333333,17.386667,264.108)">
      <path
         id="path22"
         d="m 4.6055078,-3.3739687 c 0.046875,-0.2226563 0.140625,-0.5859375 0.140625,-0.6445313 0,-0.1875 -0.1289062,-0.2695312 -0.28125,-0.2695312 -0.1171875,0 -0.3046875,0.070312 -0.375,0.2695312 -0.023437,0.070313 -0.4921875,1.9804688 -0.5625,2.2382813 -0.070312,0.2929687 -0.09375,0.4804687 -0.09375,0.65625 0,0.1054687 0,0.1289062 0.011719,0.1757812 -0.2226563,0.52734375 -0.5273438,0.84375 -0.9140625,0.84375 -0.796875,0 -0.796875,-0.73828125 -0.796875,-0.9140625 0,-0.3164062 0.046875,-0.703125 0.515625,-1.9335937 0.1054687,-0.2929688 0.1757812,-0.4335938 0.1757812,-0.6328125 0,-0.4453125 -0.328125,-0.8203125 -0.8203125,-0.8203125 -0.94921874,0 -1.31249999,1.453125 -1.31249999,1.5351562 0,0.1054688 0.09375,0.1054688 0.1171875,0.1054688 0.09375,0 0.10546875,-0.023437 0.15234375,-0.1875 0.26953125,-0.9257813 0.66796874,-1.2304688 1.00781254,-1.2304688 0.09375,0 0.2578125,0.011719 0.2578125,0.328125 0,0.2460938 -0.1171875,0.5273438 -0.1875,0.703125 -0.4335938,1.171875 -0.5507813,1.6289063 -0.5507813,2.0039063 0,0.91406245 0.6679688,1.2539062 1.40625,1.2539062 0.1757813,0 0.6445313,0 1.0429688,-0.69140625 C 3.7969141,0.04790625 4.4883203,0.1065 4.7812891,0.1065 c 0.75,0 1.1835937,-0.62109375 1.4414062,-1.21875 0.3398438,-0.7851562 0.65625,-2.109375 0.65625,-2.5898437 0,-0.5507813 -0.2695312,-0.703125 -0.4335937,-0.703125 -0.2460938,0 -0.5039063,0.2578125 -0.5039063,0.4804687 0,0.1289063 0.070312,0.1875 0.1523438,0.2695313 0.1171875,0.1054687 0.3632812,0.3632812 0.3632812,0.84375 0,0.3398437 -0.2929687,1.3125 -0.5507812,1.82812495 C 5.6484766,-0.456 5.2969141,-0.1044375 4.8164453,-0.1044375 c -0.46875,0 -0.7382812,-0.3046875 -0.7382812,-0.8671875 0,-0.28125 0.070312,-0.5859375 0.1054687,-0.7265625 z m 0,0"
         style="fill:#d9d9d9;fill-opacity:1;fill-rule:nonzero;stroke:none" />
      <path
         id="path23"
         d="m 9.4629297,-2.9345156 c 0,-0.1875 -0.011719,-0.1992188 -0.2109375,-0.1992188 -0.4453125,0.4335938 -1.078125,0.4453125 -1.359375,0.4453125 v 0.2460938 c 0.1640625,0 0.6210937,0 1.0078125,-0.1875 v 3.55078123 c 0,0.23437497 0,0.32812497 -0.6914063,0.32812497 H 7.9394922 v 0.2460938 c 0.1289062,-0.011719 0.984375,-0.023437 1.2421875,-0.023437 0.2109375,0 1.0898433,0.011719 1.2421873,0.023437 V 1.2490781 h -0.257812 c -0.7031253,0 -0.7031253,-0.09375 -0.7031253,-0.32812497 z m 0,0"
         style="fill:#d9d9d9;fill-opacity:1;fill-rule:nonzero;stroke:none" />
      <path
         id="path24"
         d="m 17.859414,-5.6708437 c 0.480469,-0.7734375 0.902344,-0.8085938 1.277344,-0.8203125 0.117187,-0.011719 0.128906,-0.1875 0.128906,-0.1875 0,-0.082031 -0.05859,-0.1289063 -0.128906,-0.1289063 -0.257813,0 -0.550781,0.035156 -0.820313,0.035156 -0.328125,0 -0.667968,-0.035156 -0.984375,-0.035156 -0.05859,0 -0.1875,0 -0.1875,0.1992188 0,0.1054687 0.08203,0.1171875 0.152344,0.1171875 0.269531,0.011719 0.457031,0.1171875 0.457031,0.328125 0,0.1523437 -0.140625,0.3632812 -0.140625,0.375 L 14.554727,-0.92475 13.875039,-6.1981875 c 0,-0.1640625 0.222656,-0.2929687 0.679688,-0.2929687 0.140625,0 0.257812,0 0.257812,-0.1992188 0,-0.09375 -0.08203,-0.1171875 -0.140625,-0.1171875 -0.398437,0 -0.832031,0.035156 -1.242187,0.035156 -0.175782,0 -0.363282,-0.011719 -0.539063,-0.011719 -0.1875,0 -0.375,-0.023437 -0.539062,-0.023437 -0.07031,0 -0.1875,0 -0.1875,0.1992188 0,0.1171875 0.08203,0.1171875 0.246093,0.1171875 0.550782,0 0.5625,0.082031 0.597657,0.3398437 l 0.785156,6.140625 c 0.03516,0.19921875 0.07031,0.234375 0.199219,0.234375 0.164062,0 0.199218,-0.0585938 0.28125,-0.1875 z m 0,0"
         style="fill:#d9d9d9;fill-opacity:1;fill-rule:nonzero;stroke:none" />
      <path
         id="path25"
         d="m 19.746133,-2.9345156 c 0,-0.1875 -0.01172,-0.1992188 -0.210938,-0.1992188 -0.445312,0.4335938 -1.078125,0.4453125 -1.359375,0.4453125 v 0.2460938 c 0.164063,0 0.621094,0 1.007813,-0.1875 v 3.55078123 c 0,0.23437497 0,0.32812497 -0.691406,0.32812497 h -0.269532 v 0.2460938 c 0.128907,-0.011719 0.984375,-0.023437 1.242188,-0.023437 0.210937,0 1.089844,0.011719 1.242187,0.023437 V 1.2490781 h -0.257812 c -0.703125,0 -0.703125,-0.09375 -0.703125,-0.32812497 z m 0,0"
         style="fill:#d9d9d9;fill-opacity:1;fill-rule:nonzero;stroke:none" />
      <path
         id="path26"
         d="m 25.174844,2.3916563 c 0,-0.035156 0,-0.046875 -0.164063,-0.2226563 -1.242187,-1.25390625 -1.570312,-3.12890625 -1.570312,-4.6640625 0,-1.7226562 0.386718,-3.4570312 1.605468,-4.7109375 0.128907,-0.1171875 0.128907,-0.1289062 0.128907,-0.1640625 0,-0.070312 -0.03516,-0.1054687 -0.09375,-0.1054687 -0.105469,0 -0.996094,0.6796875 -1.582032,1.9453125 -0.515625,1.1015625 -0.632812,2.203125 -0.632812,3.0351562 0,0.7851563 0.117187,1.9921875 0.65625,3.1171875 0.597656,1.21875 1.453125,1.875 1.558594,1.875 0.05859,0 0.09375,-0.035156 0.09375,-0.1054687 z m 0,0"
         style="fill:#d9d9d9;fill-opacity:1;fill-rule:nonzero;stroke:none" />
      <path
         id="path27"
         d="m 30.562539,-6.6552187 c 0.01172,-0.035156 0.02344,-0.09375 0.02344,-0.1523438 0,-0.09375 -0.07031,-0.1054687 -0.117188,-0.1054687 -0.09375,0 -0.105469,0.023437 -0.152344,0.1992187 l -1.652343,6.5859375 c -0.75,-0.09375 -1.136719,-0.45703125 -1.136719,-1.1132812 0,-0.1992188 0,-0.4570313 0.539062,-1.8515625 0.04687,-0.1289063 0.117188,-0.2929688 0.117188,-0.4921875 0,-0.4453125 -0.328125,-0.8203125 -0.820313,-0.8203125 -0.949218,0 -1.3125,1.453125 -1.3125,1.5351562 0,0.1054688 0.09375,0.1054688 0.117188,0.1054688 0.09375,0 0.105469,-0.023437 0.152344,-0.1875 0.269531,-0.9375 0.667968,-1.2304688 1.007812,-1.2304688 0.08203,0 0.257813,0 0.257813,0.3164063 0,0.2578125 -0.105469,0.515625 -0.234375,0.8554687 -0.480469,1.2539063 -0.480469,1.5117188 -0.480469,1.6875 0,0.94921875 0.785156,1.359375 1.734375,1.41796875 -0.08203,0.3515625 -0.08203,0.375 -0.222656,0.90234375 -0.02344,0.1054688 -0.222657,0.9140625 -0.222657,0.9492188 0,0.011719 0,0.09375 0.117188,0.09375 0.02344,0 0.07031,0 0.09375,-0.035156 C 28.39457,1.9815 28.453164,1.7354063 28.48832,1.5947813 L 28.86332,0.1065 c 0.375,0 1.242188,0 2.179688,-1.06640625 0.410156,-0.45703125 0.621094,-0.89062495 0.726562,-1.19531245 0.09375,-0.2460938 0.316407,-1.1132813 0.316407,-1.546875 0,-0.5625 -0.269532,-0.703125 -0.445313,-0.703125 -0.246094,0 -0.492187,0.2578125 -0.492187,0.4804687 0,0.1289063 0.05859,0.1875 0.152343,0.2695313 0.105469,0.1054687 0.351563,0.3632812 0.351563,0.84375 0,0.6445312 -0.515625,1.453125 -0.867188,1.8164062 -0.878906,0.890625 -1.511718,0.890625 -1.875,0.890625 z m 0,0"
         style="fill:#d9d9d9;fill-opacity:1;fill-rule:nonzero;stroke:none" />
      <path
         id="path28"
         d="m 35.487344,-2.4950625 c 0,-0.7734375 -0.117188,-1.9804687 -0.65625,-3.1054687 -0.597657,-1.21875 -1.464844,-1.875 -1.558594,-1.875 -0.05859,0 -0.105469,0.046875 -0.105469,0.1054687 0,0.035156 0,0.046875 0.199219,0.234375 0.972656,0.984375 1.535156,2.5664063 1.535156,4.640625 0,1.7109375 -0.363281,3.45703125 -1.59375,4.7226563 -0.140625,0.1171875 -0.140625,0.1289062 -0.140625,0.1640625 0,0.058594 0.04687,0.1054687 0.105469,0.1054687 0.09375,0 0.996094,-0.6796875 1.582031,-1.9453125 0.503906,-1.1015625 0.632813,-2.203125 0.632813,-3.046875 z m 10.051758,0.1992188 h 2.777343 c 0.140625,0 0.328125,0 0.328125,-0.1992188 0,-0.1992187 -0.1875,-0.1992187 -0.328125,-0.1992187 h -2.777343 v -2.7890625 c 0,-0.1289063 0,-0.328125 -0.199219,-0.328125 -0.199219,0 -0.199219,0.1992187 -0.199219,0.328125 v 2.7890625 h -2.789062 c -0.140625,0 -0.328125,0 -0.328125,0.1992187 0,0.1992188 0.1875,0.1992188 0.328125,0.1992188 h 2.789062 v 2.8007812 c 0,0.12890625 0,0.328125 0.199219,0.328125 0.199219,0 0.199219,-0.19921875 0.199219,-0.328125 z m 0,0"
         style="fill:#d9d9d9;fill-opacity:1;fill-rule:nonzero;stroke:none" />
      <path
         id="path29"
         d="m 56.097695,-0.5263125 c 0,-0.29296875 -0.234375,-0.5273437 -0.527343,-0.5273437 -0.28125,0 -0.527344,0.23437495 -0.527344,0.5273437 0,0.29296875 0.246094,0.52734375 0.527344,0.52734375 0.292968,0 0.527343,-0.234375 0.527343,-0.52734375 z m 4.432617,0 c 0,-0.29296875 -0.234375,-0.5273437 -0.527343,-0.5273437 -0.28125,0 -0.527344,0.23437495 -0.527344,0.5273437 0,0.29296875 0.246094,0.52734375 0.527344,0.52734375 0.292968,0 0.527343,-0.234375 0.527343,-0.52734375 z m 4.420899,0 c 0,-0.29296875 -0.234375,-0.5273437 -0.527344,-0.5273437 -0.28125,0 -0.527344,0.23437495 -0.527344,0.5273437 0,0.29296875 0.246094,0.52734375 0.527344,0.52734375 0.292969,0 0.527344,-0.234375 0.527344,-0.52734375 z m 0,0"
         style="fill:#d9d9d9;fill-opacity:1;fill-rule:nonzero;stroke:none" />
      <path
         id="path30"
         d="m 74.871133,-2.2958437 h 2.777344 c 0.140625,0 0.328125,0 0.328125,-0.1992188 0,-0.1992187 -0.1875,-0.1992187 -0.328125,-0.1992187 h -2.777344 v -2.7890625 c 0,-0.1289063 0,-0.328125 -0.199219,-0.328125 -0.199219,0 -0.199219,0.1992187 -0.199219,0.328125 v 2.7890625 h -2.789062 c -0.140625,0 -0.328125,0 -0.328125,0.1992187 0,0.1992188 0.1875,0.1992188 0.328125,0.1992188 h 2.789062 v 2.8007812 c 0,0.12890625 0,0.328125 0.199219,0.328125 0.199219,0 0.199219,-0.19921875 0.199219,-0.328125 z m 0,0"
         style="fill:#d9d9d9;fill-opacity:1;fill-rule:nonzero;stroke:none" />
      <path
         id="path31"
         d="m 88.130898,-3.3739687 c 0.04687,-0.2226563 0.140625,-0.5859375 0.140625,-0.6445313 0,-0.1875 -0.128906,-0.2695312 -0.28125,-0.2695312 -0.117187,0 -0.304687,0.070312 -0.375,0.2695312 -0.02344,0.070313 -0.492187,1.9804688 -0.5625,2.2382813 -0.07031,0.2929687 -0.09375,0.4804687 -0.09375,0.65625 0,0.1054687 0,0.1289062 0.01172,0.1757812 -0.222656,0.52734375 -0.527344,0.84375 -0.914062,0.84375 -0.796875,0 -0.796875,-0.73828125 -0.796875,-0.9140625 0,-0.3164062 0.04687,-0.703125 0.515625,-1.9335937 0.105468,-0.2929688 0.175781,-0.4335938 0.175781,-0.6328125 0,-0.4453125 -0.328125,-0.8203125 -0.820313,-0.8203125 -0.949218,0 -1.3125,1.453125 -1.3125,1.5351562 0,0.1054688 0.09375,0.1054688 0.117188,0.1054688 0.09375,0 0.105469,-0.023437 0.152344,-0.1875 0.269531,-0.9257813 0.667968,-1.2304688 1.007812,-1.2304688 0.09375,0 0.257813,0.011719 0.257813,0.328125 0,0.2460938 -0.117188,0.5273438 -0.1875,0.703125 -0.433594,1.171875 -0.550782,1.6289063 -0.550782,2.0039063 0,0.91406245 0.667969,1.2539062 1.40625,1.2539062 0.175782,0 0.644532,0 1.042969,-0.69140625 C 87.322305,0.04790625 88.013711,0.1065 88.30668,0.1065 c 0.75,0 1.183593,-0.62109375 1.441406,-1.21875 0.339844,-0.7851562 0.65625,-2.109375 0.65625,-2.5898437 0,-0.5507813 -0.269531,-0.703125 -0.433594,-0.703125 -0.246094,0 -0.503906,0.2578125 -0.503906,0.4804687 0,0.1289063 0.07031,0.1875 0.152344,0.2695313 0.117187,0.1054687 0.363281,0.3632812 0.363281,0.84375 0,0.3398437 -0.292969,1.3125 -0.550781,1.82812495 -0.257813,0.52734375 -0.609375,0.87890625 -1.089844,0.87890625 -0.46875,0 -0.738281,-0.3046875 -0.738281,-0.8671875 0,-0.28125 0.07031,-0.5859375 0.105468,-0.7265625 z m 0,0"
         style="fill:#d9d9d9;fill-opacity:1;fill-rule:nonzero;stroke:none" />
      <path
         id="path32"
         d="m 91.511758,1.0615781 c -0.03516,0.082031 -0.07031,0.2578125 -0.07031,0.28125 0,0.1523438 0.117188,0.2226563 0.234375,0.2226563 0.128907,0 0.234375,-0.09375 0.269532,-0.1523438 0.03516,-0.058594 0.09375,-0.2929687 0.128906,-0.43359372 0.03516,-0.12890625 0.105469,-0.45703125 0.152344,-0.6328125 0.03516,-0.15234375 0.08203,-0.3046875 0.117187,-0.45703125 0.08203,-0.29296875 0.09375,-0.3515625 0.292969,-0.6328125 0.199219,-0.28125003 0.527344,-0.64453123 1.042969,-0.64453123 0.410156,0 0.410156,0.3632812 0.410156,0.49218748 0,0.421875 -0.292969,1.1953125 -0.410156,1.48828125 -0.07031,0.1875 -0.105469,0.2578125 -0.105469,0.375 0,0.36328127 0.304687,0.59765627 0.667969,0.59765627 0.691406,0 1.007812,-0.96093752 1.007812,-1.06640627 0,-0.09375 -0.09375,-0.09375 -0.117187,-0.09375 -0.09375,0 -0.105469,0.046875 -0.128907,0.1171875 -0.164062,0.56249997 -0.46875,0.84374997 -0.738281,0.84374997 -0.152344,0 -0.175781,-0.09375 -0.175781,-0.2460937 0,-0.15234377 0.03516,-0.24609377 0.152344,-0.56250002 0.09375,-0.2109375 0.375,-0.94921875 0.375,-1.34765625 0,-0.66796873 -0.539063,-0.78515623 -0.902344,-0.78515623 -0.585938,0 -0.972656,0.3515625 -1.183594,0.63281248 -0.04687,-0.48046878 -0.457031,-0.63281248 -0.75,-0.63281248 -0.292969,0 -0.457031,0.2109375 -0.550781,0.375 -0.152344,0.25781248 -0.246094,0.65624998 -0.246094,0.69140623 0,0.0820313 0.09375,0.0820313 0.117188,0.0820313 0.09375,0 0.105468,-0.0117188 0.152343,-0.19921875 0.105469,-0.42187508 0.234375,-0.76171878 0.515625,-0.76171878 0.175782,0 0.222657,0.1523437 0.222657,0.3398437 0,0.14062508 -0.05859,0.39843758 -0.105469,0.58593758 -0.04687,0.1875 -0.117188,0.46875 -0.152344,0.62109375 z m 0,0"
         style="fill:#d9d9d9;fill-opacity:1;fill-rule:nonzero;stroke:none" />
      <path
         id="path33"
         d="m 102.33695,-5.6708437 c 0.48047,-0.7734375 0.90235,-0.8085938 1.27735,-0.8203125 0.11718,-0.011719 0.1289,-0.1875 0.1289,-0.1875 0,-0.082031 -0.0586,-0.1289063 -0.1289,-0.1289063 -0.25782,0 -0.55078,0.035156 -0.82032,0.035156 -0.32812,0 -0.66796,-0.035156 -0.98437,-0.035156 -0.0586,0 -0.1875,0 -0.1875,0.1992188 0,0.1054687 0.082,0.1171875 0.15234,0.1171875 0.26953,0.011719 0.45703,0.1171875 0.45703,0.328125 0,0.1523437 -0.14062,0.3632812 -0.14062,0.375 L 99.032266,-0.92475 98.352578,-6.1981875 c 0,-0.1640625 0.222656,-0.2929687 0.679688,-0.2929687 0.140625,0 0.257812,0 0.257812,-0.1992188 0,-0.09375 -0.08203,-0.1171875 -0.140625,-0.1171875 -0.398437,0 -0.832031,0.035156 -1.242187,0.035156 -0.175782,0 -0.363282,-0.011719 -0.539063,-0.011719 -0.1875,0 -0.375,-0.023437 -0.539062,-0.023437 -0.07031,0 -0.1875,0 -0.1875,0.1992188 0,0.1171875 0.08203,0.1171875 0.246093,0.1171875 0.550782,0 0.5625,0.082031 0.597657,0.3398437 l 0.785156,6.140625 c 0.03516,0.19921875 0.07031,0.234375 0.199219,0.234375 0.164062,0 0.199218,-0.0585938 0.28125,-0.1875 z m 0,0"
         style="fill:#d9d9d9;fill-opacity:1;fill-rule:nonzero;stroke:none" />
      <path
         id="path34"
         d="m 102.74711,1.0615781 c -0.0352,0.082031 -0.0703,0.2578125 -0.0703,0.28125 0,0.1523438 0.11718,0.2226563 0.23437,0.2226563 0.12891,0 0.23438,-0.09375 0.26953,-0.1523438 0.0352,-0.058594 0.0937,-0.2929687 0.12891,-0.43359372 0.0352,-0.12890625 0.10547,-0.45703125 0.15234,-0.6328125 0.0352,-0.15234375 0.082,-0.3046875 0.11719,-0.45703125 0.082,-0.29296875 0.0937,-0.3515625 0.29297,-0.6328125 0.19922,-0.28125003 0.52734,-0.64453123 1.04297,-0.64453123 0.41015,0 0.41015,0.3632812 0.41015,0.49218748 0,0.421875 -0.29296,1.1953125 -0.41015,1.48828125 -0.0703,0.1875 -0.10547,0.2578125 -0.10547,0.375 0,0.36328127 0.30469,0.59765627 0.66797,0.59765627 0.6914,0 1.00781,-0.96093752 1.00781,-1.06640627 0,-0.09375 -0.0937,-0.09375 -0.11719,-0.09375 -0.0937,0 -0.10547,0.046875 -0.1289,0.1171875 -0.16407,0.56249997 -0.46875,0.84374997 -0.73828,0.84374997 -0.15235,0 -0.17579,-0.09375 -0.17579,-0.2460937 0,-0.15234377 0.0352,-0.24609377 0.15235,-0.56250002 0.0937,-0.2109375 0.375,-0.94921875 0.375,-1.34765625 0,-0.66796873 -0.53906,-0.78515623 -0.90235,-0.78515623 -0.58593,0 -0.97265,0.3515625 -1.18359,0.63281248 -0.0469,-0.48046878 -0.45703,-0.63281248 -0.75,-0.63281248 -0.29297,0 -0.45703,0.2109375 -0.55078,0.375 -0.15234,0.25781248 -0.24609,0.65624998 -0.24609,0.69140623 0,0.0820313 0.0937,0.0820313 0.11718,0.0820313 0.0937,0 0.10547,-0.0117188 0.15235,-0.19921875 0.10547,-0.42187508 0.23437,-0.76171878 0.51562,-0.76171878 0.17578,0 0.22266,0.1523437 0.22266,0.3398437 0,0.14062508 -0.0586,0.39843758 -0.10547,0.58593758 -0.0469,0.1875 -0.11719,0.46875 -0.15234,0.62109375 z m 0,0"
         style="fill:#d9d9d9;fill-opacity:1;fill-rule:nonzero;stroke:none" />
      <path
         id="path35"
         d="m 110.60746,2.3916563 c 0,-0.035156 0,-0.046875 -0.16406,-0.2226563 -1.24219,-1.25390625 -1.57031,-3.12890625 -1.57031,-4.6640625 0,-1.7226562 0.38671,-3.4570312 1.60546,-4.7109375 0.12891,-0.1171875 0.12891,-0.1289062 0.12891,-0.1640625 0,-0.070312 -0.0352,-0.1054687 -0.0937,-0.1054687 -0.10547,0 -0.99609,0.6796875 -1.58203,1.9453125 -0.51563,1.1015625 -0.63281,2.203125 -0.63281,3.0351562 0,0.7851563 0.11718,1.9921875 0.65625,3.1171875 0.59765,1.21875 1.45312,1.875 1.55859,1.875 0.0586,0 0.0937,-0.035156 0.0937,-0.1054687 z m 0,0"
         style="fill:#d9d9d9;fill-opacity:1;fill-rule:nonzero;stroke:none" />
      <path
         id="path36"
         d="m 115.99223,-6.6552187 c 0.0117,-0.035156 0.0234,-0.09375 0.0234,-0.1523438 0,-0.09375 -0.0703,-0.1054687 -0.11718,-0.1054687 -0.0937,0 -0.10547,0.023437 -0.15235,0.1992187 l -1.65234,6.5859375 c -0.75,-0.09375 -1.13672,-0.45703125 -1.13672,-1.1132812 0,-0.1992188 0,-0.4570313 0.53906,-1.8515625 0.0469,-0.1289063 0.11719,-0.2929688 0.11719,-0.4921875 0,-0.4453125 -0.32812,-0.8203125 -0.82031,-0.8203125 -0.94922,0 -1.3125,1.453125 -1.3125,1.5351562 0,0.1054688 0.0937,0.1054688 0.11719,0.1054688 0.0937,0 0.10546,-0.023437 0.15234,-0.1875 0.26953,-0.9375 0.66797,-1.2304688 1.00781,-1.2304688 0.082,0 0.25781,0 0.25781,0.3164063 0,0.2578125 -0.10546,0.515625 -0.23437,0.8554687 -0.48047,1.2539063 -0.48047,1.5117188 -0.48047,1.6875 0,0.94921875 0.78516,1.359375 1.73438,1.41796875 -0.082,0.3515625 -0.082,0.375 -0.22266,0.90234375 -0.0234,0.1054688 -0.22266,0.9140625 -0.22266,0.9492188 0,0.011719 0,0.09375 0.11719,0.09375 0.0234,0 0.0703,0 0.0937,-0.035156 0.0234,-0.023437 0.082,-0.2695312 0.11719,-0.4101562 l 0.375,-1.4882813 c 0.375,0 1.24219,0 2.17969,-1.06640625 0.41015,-0.45703125 0.62109,-0.89062495 0.72656,-1.19531245 0.0937,-0.2460938 0.3164,-1.1132813 0.3164,-1.546875 0,-0.5625 -0.26953,-0.703125 -0.44531,-0.703125 -0.24609,0 -0.49219,0.2578125 -0.49219,0.4804687 0,0.1289063 0.0586,0.1875 0.15235,0.2695313 0.10547,0.1054687 0.35156,0.3632812 0.35156,0.84375 0,0.6445312 -0.51562,1.453125 -0.86719,1.8164062 -0.8789,0.890625 -1.51172,0.890625 -1.875,0.890625 z m 0,0"
         style="fill:#d9d9d9;fill-opacity:1;fill-rule:nonzero;stroke:none" />
      <path
         id="path37"
         d="m 120.91703,-2.4950625 c 0,-0.7734375 -0.11719,-1.9804687 -0.65625,-3.1054687 -0.59765,-1.21875 -1.46484,-1.875 -1.55859,-1.875 -0.0586,0 -0.10547,0.046875 -0.10547,0.1054687 0,0.035156 0,0.046875 0.19922,0.234375 0.97265,0.984375 1.53515,2.5664063 1.53515,4.640625 0,1.7109375 -0.36328,3.45703125 -1.59375,4.7226563 -0.14062,0.1171875 -0.14062,0.1289062 -0.14062,0.1640625 0,0.058594 0.0469,0.1054687 0.10547,0.1054687 0.0937,0 0.99609,-0.6796875 1.58203,-1.9453125 0.50391,-1.1015625 0.63281,-2.203125 0.63281,-3.046875 z m 10.05176,0.1992188 h 2.77734 c 0.14063,0 0.32813,0 0.32813,-0.1992188 0,-0.1992187 -0.1875,-0.1992187 -0.32813,-0.1992187 h -2.77734 v -2.7890625 c 0,-0.1289063 0,-0.328125 -0.19922,-0.328125 -0.19922,0 -0.19922,0.1992187 -0.19922,0.328125 v 2.7890625 h -2.78906 c -0.14063,0 -0.32813,0 -0.32813,0.1992187 0,0.1992188 0.1875,0.1992188 0.32813,0.1992188 h 2.78906 v 2.8007812 c 0,0.12890625 0,0.328125 0.19922,0.328125 0.19922,0 0.19922,-0.19921875 0.19922,-0.328125 z m 0,0"
         style="fill:#d9d9d9;fill-opacity:1;fill-rule:nonzero;stroke:none" />
      <path
         id="path38"
         d="m 141.53031,-0.5263125 c 0,-0.29296875 -0.23437,-0.5273437 -0.52734,-0.5273437 -0.28125,0 -0.52735,0.23437495 -0.52735,0.5273437 0,0.29296875 0.2461,0.52734375 0.52735,0.52734375 0.29297,0 0.52734,-0.234375 0.52734,-0.52734375 z m 4.43262,0 c 0,-0.29296875 -0.23438,-0.5273437 -0.52734,-0.5273437 -0.28125,0 -0.52735,0.23437495 -0.52735,0.5273437 0,0.29296875 0.2461,0.52734375 0.52735,0.52734375 0.29296,0 0.52734,-0.234375 0.52734,-0.52734375 z m 4.4209,0 c 0,-0.29296875 -0.23438,-0.5273437 -0.52735,-0.5273437 -0.28125,0 -0.52734,0.23437495 -0.52734,0.5273437 0,0.29296875 0.24609,0.52734375 0.52734,0.52734375 0.29297,0 0.52735,-0.234375 0.52735,-0.52734375 z m 0,0"
         style="fill:#d9d9d9;fill-opacity:1;fill-rule:nonzero;stroke:none" />
      <path
         id="path39"
         d="m 160.30375,-2.2958437 h 2.77734 c 0.14063,0 0.32813,0 0.32813,-0.1992188 0,-0.1992187 -0.1875,-0.1992187 -0.32813,-0.1992187 h -2.77734 v -2.7890625 c 0,-0.1289063 0,-0.328125 -0.19922,-0.328125 -0.19922,0 -0.19922,0.1992187 -0.19922,0.328125 v 2.7890625 h -2.78906 c -0.14063,0 -0.32813,0 -0.32813,0.1992187 0,0.1992188 0.1875,0.1992188 0.32813,0.1992188 h 2.78906 v 2.8007812 c 0,0.12890625 0,0.328125 0.19922,0.328125 0.19922,0 0.19922,-0.19921875 0.19922,-0.328125 z m 0,0"
         style="fill:#d9d9d9;fill-opacity:1;fill-rule:nonzero;stroke:none" />
      <path
         id="path40"
         d="m 173.56059,-3.3739687 c 0.0469,-0.2226563 0.14062,-0.5859375 0.14062,-0.6445313 0,-0.1875 -0.12891,-0.2695312 -0.28125,-0.2695312 -0.11719,0 -0.30469,0.070312 -0.375,0.2695312 -0.0234,0.070313 -0.49219,1.9804688 -0.5625,2.2382813 -0.0703,0.2929687 -0.0937,0.4804687 -0.0937,0.65625 0,0.1054687 0,0.1289062 0.0117,0.1757812 -0.22266,0.52734375 -0.52734,0.84375 -0.91406,0.84375 -0.79688,0 -0.79688,-0.73828125 -0.79688,-0.9140625 0,-0.3164062 0.0469,-0.703125 0.51563,-1.9335937 0.10547,-0.2929688 0.17578,-0.4335938 0.17578,-0.6328125 0,-0.4453125 -0.32813,-0.8203125 -0.82031,-0.8203125 -0.94922,0 -1.3125,1.453125 -1.3125,1.5351562 0,0.1054688 0.0937,0.1054688 0.11718,0.1054688 0.0937,0 0.10547,-0.023437 0.15235,-0.1875 0.26953,-0.9257813 0.66797,-1.2304688 1.00781,-1.2304688 0.0937,0 0.25781,0.011719 0.25781,0.328125 0,0.2460938 -0.11719,0.5273438 -0.1875,0.703125 -0.43359,1.171875 -0.55078,1.6289063 -0.55078,2.0039063 0,0.91406245 0.66797,1.2539062 1.40625,1.2539062 0.17578,0 0.64453,0 1.04297,-0.69140625 0.25781,0.6328125 0.94922,0.69140625 1.24219,0.69140625 0.75,0 1.18359,-0.62109375 1.4414,-1.21875 0.33985,-0.7851562 0.65625,-2.109375 0.65625,-2.5898437 0,-0.5507813 -0.26953,-0.703125 -0.43359,-0.703125 -0.24609,0 -0.50391,0.2578125 -0.50391,0.4804687 0,0.1289063 0.0703,0.1875 0.15235,0.2695313 0.11718,0.1054687 0.36328,0.3632812 0.36328,0.84375 0,0.3398437 -0.29297,1.3125 -0.55078,1.82812495 -0.25782,0.52734375 -0.60938,0.87890625 -1.08985,0.87890625 -0.46875,0 -0.73828,-0.3046875 -0.73828,-0.8671875 0,-0.28125 0.0703,-0.5859375 0.10547,-0.7265625 z m 0,0"
         style="fill:#d9d9d9;fill-opacity:1;fill-rule:nonzero;stroke:none" />
      <path
         id="path41"
         d="m 178.46488,-0.75482812 h 0.75 c 0.52735,0 0.6211,0.09375 0.6211,0.31640625 0,0.10546875 0,0.1171875 -0.0469,0.31640625 -0.0117,0.046875 -0.0234,0.05859375 -0.0234,0.08203125 0,0.0703125 0.0469,0.10546875 0.11719,0.10546875 0.0937,0 0.10547,-0.03515625 0.14063,-0.1640625 l 0.375,-1.47656248 c 0,-0.023437 0.0234,-0.1289063 0.0234,-0.140625 0,-0.070312 -0.0469,-0.1054688 -0.11718,-0.1054688 -0.0937,0 -0.10547,0.046875 -0.14063,0.1757813 -0.14062,0.5390625 -0.33984,0.6445312 -0.9375,0.6445312 h -0.6914 l 0.43359,-1.7460937 c 0.0586,-0.2226563 0.0703,-0.2460938 0.36328,-0.2460938 h 1.06641 c 0.92578,0 1.10156,0.2226563 1.10156,0.8085938 0,0.2226562 -0.0352,0.375 -0.0352,0.4335937 0,0.046875 0.0234,0.1171875 0.11719,0.1171875 0.10547,0 0.11719,-0.070312 0.12891,-0.1875 l 0.1289,-1.2070312 c 0.0234,-0.2109375 -0.0351,-0.2109375 -0.19922,-0.2109375 h -3.72656 c -0.1289,0 -0.22265,0 -0.22265,0.1523437 0,0.09375 0.082,0.09375 0.22265,0.09375 0,0 0.14063,0 0.26953,0.023437 0.14063,0.011719 0.15235,0.023437 0.15235,0.09375 0,0.046875 -0.0234,0.1171875 -0.0234,0.1523438 l -0.91406,3.64453123 c -0.0703,0.26953127 -0.082,0.32812497 -0.6211,0.32812497 -0.11718,0 -0.21093,0 -0.21093,0.140625 0,0.070312 0.0469,0.1054688 0.11718,0.1054688 0.19922,0 0.71485,-0.023437 0.91407,-0.023437 h 0.53906 c 0.17578,0 0.375,0.023437 0.55078,0.023437 0.0469,0 0.15234,0 0.15234,-0.1523438 0,-0.09375 -0.082,-0.09375 -0.24609,-0.09375 -0.0117,0 -0.1875,0 -0.36328,-0.023437 -0.14063,-0.011719 -0.21094,-0.011719 -0.21094,-0.1171875 0,-0.023437 0,-0.046875 0.0234,-0.11718747 z m 0,0"
         style="fill:#d9d9d9;fill-opacity:1;fill-rule:nonzero;stroke:none" />
      <path
         id="path42"
         d="m 188.96781,-5.6708437 c 0.48047,-0.7734375 0.90235,-0.8085938 1.27735,-0.8203125 0.11718,-0.011719 0.1289,-0.1875 0.1289,-0.1875 0,-0.082031 -0.0586,-0.1289063 -0.1289,-0.1289063 -0.25782,0 -0.55079,0.035156 -0.82032,0.035156 -0.32812,0 -0.66797,-0.035156 -0.98437,-0.035156 -0.0586,0 -0.1875,0 -0.1875,0.1992188 0,0.1054687 0.082,0.1171875 0.15234,0.1171875 0.26953,0.011719 0.45703,0.1171875 0.45703,0.328125 0,0.1523437 -0.14062,0.3632812 -0.14062,0.375 l -3.0586,4.8632812 -0.67968,-5.2734375 c 0,-0.1640625 0.22265,-0.2929687 0.67968,-0.2929687 0.14063,0 0.25782,0 0.25782,-0.1992188 0,-0.09375 -0.082,-0.1171875 -0.14063,-0.1171875 -0.39844,0 -0.83203,0.035156 -1.24219,0.035156 -0.17578,0 -0.36328,-0.011719 -0.53906,-0.011719 -0.1875,0 -0.375,-0.023437 -0.53906,-0.023437 -0.0703,0 -0.1875,0 -0.1875,0.1992188 0,0.1171875 0.082,0.1171875 0.24609,0.1171875 0.55078,0 0.5625,0.082031 0.59766,0.3398437 l 0.78516,6.140625 c 0.0351,0.19921875 0.0703,0.234375 0.19921,0.234375 0.16407,0 0.19922,-0.0585938 0.28125,-0.1875 z m 0,0"
         style="fill:#d9d9d9;fill-opacity:1;fill-rule:nonzero;stroke:none" />
      <path
         id="path43"
         d="m 190.90141,-0.75482812 h 0.75 c 0.52734,0 0.62109,0.09375 0.62109,0.31640625 0,0.10546875 0,0.1171875 -0.0469,0.31640625 -0.0117,0.046875 -0.0234,0.05859375 -0.0234,0.08203125 0,0.0703125 0.0469,0.10546875 0.11718,0.10546875 0.0937,0 0.10547,-0.03515625 0.14063,-0.1640625 l 0.375,-1.47656248 c 0,-0.023437 0.0234,-0.1289063 0.0234,-0.140625 0,-0.070312 -0.0469,-0.1054688 -0.11719,-0.1054688 -0.0937,0 -0.10547,0.046875 -0.14063,0.1757813 -0.14062,0.5390625 -0.33984,0.6445312 -0.9375,0.6445312 h -0.6914 l 0.43359,-1.7460937 c 0.0586,-0.2226563 0.0703,-0.2460938 0.36328,-0.2460938 h 1.06641 c 0.92578,0 1.10156,0.2226563 1.10156,0.8085938 0,0.2226562 -0.0351,0.375 -0.0351,0.4335937 0,0.046875 0.0234,0.1171875 0.11718,0.1171875 0.10547,0 0.11719,-0.070312 0.12891,-0.1875 l 0.12891,-1.2070312 c 0.0234,-0.2109375 -0.0352,-0.2109375 -0.19922,-0.2109375 h -3.72657 c -0.1289,0 -0.22265,0 -0.22265,0.1523437 0,0.09375 0.082,0.09375 0.22265,0.09375 0,0 0.14063,0 0.26954,0.023437 0.14062,0.011719 0.15234,0.023437 0.15234,0.09375 0,0.046875 -0.0234,0.1171875 -0.0234,0.1523438 L 189.835,0.92095313 c -0.0703,0.26953127 -0.082,0.32812497 -0.62109,0.32812497 -0.11719,0 -0.21094,0 -0.21094,0.140625 0,0.070312 0.0469,0.1054688 0.11719,0.1054688 0.19921,0 0.71484,-0.023437 0.91406,-0.023437 h 0.53906 c 0.17578,0 0.375,0.023437 0.55078,0.023437 0.0469,0 0.15235,0 0.15235,-0.1523438 0,-0.09375 -0.082,-0.09375 -0.2461,-0.09375 -0.0117,0 -0.1875,0 -0.36328,-0.023437 -0.14062,-0.011719 -0.21094,-0.011719 -0.21094,-0.1171875 0,-0.023437 0,-0.046875 0.0234,-0.11718747 z m 0,0"
         style="fill:#d9d9d9;fill-opacity:1;fill-rule:nonzero;stroke:none" />
      <path
         id="path44"
         d="m 198.43656,2.3916563 c 0,-0.035156 0,-0.046875 -0.16406,-0.2226563 -1.24219,-1.25390625 -1.57031,-3.12890625 -1.57031,-4.6640625 0,-1.7226562 0.38672,-3.4570312 1.60547,-4.7109375 0.1289,-0.1171875 0.1289,-0.1289062 0.1289,-0.1640625 0,-0.070312 -0.0351,-0.1054687 -0.0937,-0.1054687 -0.10547,0 -0.99609,0.6796875 -1.58203,1.9453125 -0.51562,1.1015625 -0.63281,2.203125 -0.63281,3.0351562 0,0.7851563 0.11719,1.9921875 0.65625,3.1171875 0.59765,1.21875 1.45312,1.875 1.55859,1.875 0.0586,0 0.0937,-0.035156 0.0937,-0.1054687 z m 0,0"
         style="fill:#d9d9d9;fill-opacity:1;fill-rule:nonzero;stroke:none" />
      <path
         id="path45"
         d="m 203.82426,-6.6552187 c 0.0117,-0.035156 0.0234,-0.09375 0.0234,-0.1523438 0,-0.09375 -0.0703,-0.1054687 -0.11719,-0.1054687 -0.0937,0 -0.10547,0.023437 -0.15235,0.1992187 l -1.65234,6.5859375 c -0.75,-0.09375 -1.13672,-0.45703125 -1.13672,-1.1132812 0,-0.1992188 0,-0.4570313 0.53906,-1.8515625 0.0469,-0.1289063 0.11719,-0.2929688 0.11719,-0.4921875 0,-0.4453125 -0.32812,-0.8203125 -0.82031,-0.8203125 -0.94922,0 -1.3125,1.453125 -1.3125,1.5351562 0,0.1054688 0.0937,0.1054688 0.11719,0.1054688 0.0937,0 0.10547,-0.023437 0.15234,-0.1875 0.26953,-0.9375 0.66797,-1.2304688 1.00781,-1.2304688 0.082,0 0.25782,0 0.25782,0.3164063 0,0.2578125 -0.10547,0.515625 -0.23438,0.8554687 -0.48047,1.2539063 -0.48047,1.5117188 -0.48047,1.6875 0,0.94921875 0.78516,1.359375 1.73438,1.41796875 -0.082,0.3515625 -0.082,0.375 -0.22266,0.90234375 -0.0234,0.1054688 -0.22266,0.9140625 -0.22266,0.9492188 0,0.011719 0,0.09375 0.11719,0.09375 0.0234,0 0.0703,0 0.0937,-0.035156 0.0234,-0.023437 0.082,-0.2695312 0.11719,-0.4101562 l 0.375,-1.4882813 c 0.375,0 1.24219,0 2.17969,-1.06640625 0.41015,-0.45703125 0.62109,-0.89062495 0.72656,-1.19531245 0.0937,-0.2460938 0.31641,-1.1132813 0.31641,-1.546875 0,-0.5625 -0.26954,-0.703125 -0.44532,-0.703125 -0.24609,0 -0.49218,0.2578125 -0.49218,0.4804687 0,0.1289063 0.0586,0.1875 0.15234,0.2695313 0.10547,0.1054687 0.35156,0.3632812 0.35156,0.84375 0,0.6445312 -0.51562,1.453125 -0.86719,1.8164062 -0.8789,0.890625 -1.51171,0.890625 -1.875,0.890625 z m 0,0"
         style="fill:#d9d9d9;fill-opacity:1;fill-rule:nonzero;stroke:none" />
      <path
         id="path46"
         d="m 208.74906,-2.4950625 c 0,-0.7734375 -0.11719,-1.9804687 -0.65625,-3.1054687 -0.59765,-1.21875 -1.46484,-1.875 -1.55859,-1.875 -0.0586,0 -0.10547,0.046875 -0.10547,0.1054687 0,0.035156 0,0.046875 0.19922,0.234375 0.97265,0.984375 1.53515,2.5664063 1.53515,4.640625 0,1.7109375 -0.36328,3.45703125 -1.59375,4.7226563 -0.14062,0.1171875 -0.14062,0.1289062 -0.14062,0.1640625 0,0.058594 0.0469,0.1054687 0.10547,0.1054687 0.0937,0 0.99609,-0.6796875 1.58203,-1.9453125 0.50391,-1.1015625 0.63281,-2.203125 0.63281,-3.046875 z m 13.37403,-0.7617187 c 0.15234,0 0.33984,0 0.33984,-0.1992188 0,-0.1992187 -0.1875,-0.1992187 -0.32813,-0.1992187 h -5.96484 c -0.14062,0 -0.32812,0 -0.32812,0.1992187 0,0.1992188 0.1875,0.1992188 0.33984,0.1992188 z m 0.0117,1.9335937 c 0.14063,0 0.32813,0 0.32813,-0.1992187 0,-0.1992188 -0.1875,-0.1992188 -0.33984,-0.1992188 h -5.94141 c -0.15234,0 -0.33984,0 -0.33984,0.1992188 0,0.1992187 0.1875,0.1992187 0.32812,0.1992187 z m 0,0"
         style="fill:#d9d9d9;fill-opacity:1;fill-rule:nonzero;stroke:none" />
      <path
         id="path47"
         d="m 234.81742,-5.6708437 c 0.48047,-0.7734375 0.90235,-0.8085938 1.27735,-0.8203125 0.11718,-0.011719 0.1289,-0.1875 0.1289,-0.1875 0,-0.082031 -0.0586,-0.1289063 -0.1289,-0.1289063 -0.25782,0 -0.55079,0.035156 -0.82032,0.035156 -0.32812,0 -0.66797,-0.035156 -0.98437,-0.035156 -0.0586,0 -0.1875,0 -0.1875,0.1992188 0,0.1054687 0.082,0.1171875 0.15234,0.1171875 0.26953,0.011719 0.45703,0.1171875 0.45703,0.328125 0,0.1523437 -0.14062,0.3632812 -0.14062,0.375 l -3.0586,4.8632812 -0.67968,-5.2734375 c 0,-0.1640625 0.22265,-0.2929687 0.67968,-0.2929687 0.14063,0 0.25782,0 0.25782,-0.1992188 0,-0.09375 -0.082,-0.1171875 -0.14063,-0.1171875 -0.39844,0 -0.83203,0.035156 -1.24219,0.035156 -0.17578,0 -0.36328,-0.011719 -0.53906,-0.011719 -0.1875,0 -0.375,-0.023437 -0.53906,-0.023437 -0.0703,0 -0.1875,0 -0.1875,0.1992188 0,0.1171875 0.082,0.1171875 0.24609,0.1171875 0.55078,0 0.5625,0.082031 0.59766,0.3398437 l 0.78516,6.140625 c 0.0351,0.19921875 0.0703,0.234375 0.19921,0.234375 0.16407,0 0.19922,-0.0585938 0.28125,-0.1875 z m 0,0"
         style="fill:#d9d9d9;fill-opacity:1;fill-rule:nonzero;stroke:none" />
      <path
         id="path48"
         d="m 239.87699,2.3916563 c 0,-0.035156 0,-0.046875 -0.16406,-0.2226563 -1.24219,-1.25390625 -1.57031,-3.12890625 -1.57031,-4.6640625 0,-1.7226562 0.38672,-3.4570312 1.60547,-4.7109375 0.1289,-0.1171875 0.1289,-0.1289062 0.1289,-0.1640625 0,-0.070312 -0.0352,-0.1054687 -0.0937,-0.1054687 -0.10547,0 -0.99609,0.6796875 -1.58203,1.9453125 -0.51562,1.1015625 -0.63281,2.203125 -0.63281,3.0351562 0,0.7851563 0.11719,1.9921875 0.65625,3.1171875 0.59765,1.21875 1.45312,1.875 1.55859,1.875 0.0586,0 0.0937,-0.035156 0.0937,-0.1054687 z m 0,0"
         style="fill:#d9d9d9;fill-opacity:1;fill-rule:nonzero;stroke:none" />
      <path
         id="path49"
         d="m 245.26469,-6.6552187 c 0.0117,-0.035156 0.0234,-0.09375 0.0234,-0.1523438 0,-0.09375 -0.0703,-0.1054687 -0.11718,-0.1054687 -0.0937,0 -0.10547,0.023437 -0.15235,0.1992187 l -1.65234,6.5859375 c -0.75,-0.09375 -1.13672,-0.45703125 -1.13672,-1.1132812 0,-0.1992188 0,-0.4570313 0.53906,-1.8515625 0.0469,-0.1289063 0.11719,-0.2929688 0.11719,-0.4921875 0,-0.4453125 -0.32812,-0.8203125 -0.82031,-0.8203125 -0.94922,0 -1.3125,1.453125 -1.3125,1.5351562 0,0.1054688 0.0937,0.1054688 0.11719,0.1054688 0.0937,0 0.10546,-0.023437 0.15234,-0.1875 0.26953,-0.9375 0.66797,-1.2304688 1.00781,-1.2304688 0.082,0 0.25781,0 0.25781,0.3164063 0,0.2578125 -0.10546,0.515625 -0.23437,0.8554687 -0.48047,1.2539063 -0.48047,1.5117188 -0.48047,1.6875 0,0.94921875 0.78516,1.359375 1.73438,1.41796875 -0.082,0.3515625 -0.082,0.375 -0.22266,0.90234375 -0.0234,0.1054688 -0.22266,0.9140625 -0.22266,0.9492188 0,0.011719 0,0.09375 0.11719,0.09375 0.0234,0 0.0703,0 0.0937,-0.035156 0.0234,-0.023437 0.082,-0.2695312 0.11719,-0.4101562 l 0.375,-1.4882813 c 0.375,0 1.24219,0 2.17969,-1.06640625 0.41015,-0.45703125 0.62109,-0.89062495 0.72656,-1.19531245 0.0937,-0.2460938 0.3164,-1.1132813 0.3164,-1.546875 0,-0.5625 -0.26953,-0.703125 -0.44531,-0.703125 -0.24609,0 -0.49219,0.2578125 -0.49219,0.4804687 0,0.1289063 0.0586,0.1875 0.15235,0.2695313 0.10547,0.1054687 0.35156,0.3632812 0.35156,0.84375 0,0.6445312 -0.51562,1.453125 -0.86719,1.8164062 -0.8789,0.890625 -1.51172,0.890625 -1.875,0.890625 z m 0,0"
         style="fill:#d9d9d9;fill-opacity:1;fill-rule:nonzero;stroke:none" />
      <path
         id="path50"
         d="m 250.18949,-2.4950625 c 0,-0.7734375 -0.11719,-1.9804687 -0.65625,-3.1054687 -0.59765,-1.21875 -1.46484,-1.875 -1.55859,-1.875 -0.0586,0 -0.10547,0.046875 -0.10547,0.1054687 0,0.035156 0,0.046875 0.19922,0.234375 0.97265,0.984375 1.53515,2.5664063 1.53515,4.640625 0,1.7109375 -0.36328,3.45703125 -1.59375,4.7226563 -0.14062,0.1171875 -0.14062,0.1289062 -0.14062,0.1640625 0,0.058594 0.0469,0.1054687 0.10547,0.1054687 0.0937,0 0.99609,-0.6796875 1.58203,-1.9453125 0.50391,-1.1015625 0.63281,-2.203125 0.63281,-3.046875 z m 0,0"
         style="fill:#d9d9d9;fill-opacity:1;fill-rule:nonzero;stroke:none" />
    </g>
    <path
       id="path51"
       d="m -18.03595,219.04202 0.0048,-0.39958 0.02211,-0.39908 0.0394,-0.39798 0.05662,-0.39616 0.0737,-0.39372 0.09058,-0.39063 0.10722,-0.38692 0.12356,-0.38259 0.13958,-0.37761 0.15523,-0.37217 0.17049,-0.36608 0.18528,-0.35949 0.19965,-0.3524 0.2135,-0.34483 0.22684,-0.33678 0.23963,-0.3284 0.25193,-0.3195 0.26363,-0.31035 0.27474,-0.30078 0.28531,-0.29093 0.29535,-0.2808 0.30474,-0.27037 0.31364,-0.25975 0.32193,-0.24884 0.32973,-0.23781 0.33693,-0.22657 0.34363,-0.21519 0.34976,-0.20361 0.35544,-0.19193 0.36062,-0.18016 0.36524,-0.16827 0.36943,-0.1563 0.37315,-0.14427 0.37636,-0.1322 0.37915,-0.12004 0.38144,-0.10794 0.3833,-0.0957 0.38467,-0.0837 0.38559,-0.0715 0.38608,-0.0595 0.38609,-0.0475 0.38561,-0.0356 0.38466,-0.0239 0.38327,-0.0124 0.38131,-9.9e-4 0.379,0.0101 0.37609,0.021 0.37272,0.0315 0.36887,0.0417 0.3645,0.0515 0.35971,0.0607 0.35436,0.0696 0.34858,0.0779 0.34234,0.0857 0.33563,0.0927 0.32855,0.0992 0.321,0.10485 0.31317,0.10982 0.30498,0.11397 0.29641,0.11731 0.28766,0.1198 0.27863,0.12136 0.26948,0.12209 0.26021,0.1218 0.25081,0.12069 0.24144,0.11858 0.2321,0.11557 0.22283,0.11162 0.21371,0.10679 0.20485,0.10111 0.19623,0.0945 0.18789,0.0871 0.18002,0.079 0.17254,0.0701 0.1655,0.0606 0.15907,0.0504 0.15314,0.0397 0.1479,0.0286 0.1432,0.0171 0.13928,0.005 0.13604,-0.007 0.13351,-0.0191 0.13168,-0.0315 0.13065,-0.0437 0.13031,-0.056 0.13071,-0.068 0.13192,-0.0797 0.13372,-0.0911 0.13632,-0.10212 0.13948,-0.11266 0.14334,-0.1226 0.14781,-0.13199 0.1528,-0.14065 0.15833,-0.1486 0.16432,-0.1558 0.17067,-0.1622 0.17749,-0.16776 0.18459,-0.17244 0.19194,-0.17627 0.19954,-0.17915 0.20724,-0.18122 0.21509,-0.18232 0.22302,-0.18259 0.23091,-0.18192 0.2388,-0.18046 0.24658,-0.17813 0.25423,-0.17502 0.26175,-0.17107 0.26908,-0.16641 0.27609,-0.16112 0.28296,-0.15506 0.28944,-0.14842 0.29564,-0.14124 0.30154,-0.13346 0.30706,-0.12524 0.31224,-0.11661 0.31707,-0.10752 0.32149,-0.0981 0.32555,-0.0884 0.32921,-0.0784 0.33253,-0.0682 0.33542,-0.0577 0.33795,-0.0472 0.34017,-0.0365 0.34193,-0.0257 0.34343,-0.0148 0.34453,-0.004 0.34527,0.007 0.34572,0.0179 0.3458,0.0287 0.34561,0.0396 0.34509,0.0505 0.34424,0.0612 0.34312,0.0719 0.34166,0.0825 0.33997,0.093 0.33795,0.10339 0.33569,0.11367 0.33309,0.1239 0.33023,0.13403 0.3271,0.14394 0.32369,0.15388 0.32002,0.16357 0.316,0.17318 0.31179,0.18264 0.30724,0.19204 0.30247,0.20118 0.29738,0.21028 0.29202,0.21914 0.28641,0.22789 0.2805,0.23643 0.27439,0.24484 0.26797,0.25306 0.26126,0.26106 0.25434,0.26886 0.24719,0.27648 0.23976,0.28387 0.2321,0.29106 0.2243,0.29799 0.21619,0.30465 0.2079,0.31118 0.19947,0.3173 0.19082,0.32329 0.18198,0.32895 0.17302,0.33437 0.1639,0.33946 0.15469,0.34431 0.14527,0.34885 0.13582,0.35313 0.12625,0.3571 0.11661,0.3608 0.10687,0.36416 0.09709,0.36725 0.08727,0.37008 0.07738,0.3725 0.06749,0.37476 0.05756,0.37664 0.0476,0.37825 0.0377,0.37956 0.02776,0.3806 0.01781,0.38133 -0.01781,0.38133 -0.02776,0.3806 -0.0377,0.37957 -0.0476,0.37825 -0.05756,0.37663 -0.06749,0.37475 -0.07738,0.37252 -0.08727,0.37005 -0.09709,0.36725 -0.10687,0.36418 -0.11661,0.3608 -0.12625,0.35708 -0.13582,0.35315 -0.14527,0.34883 -0.15469,0.34433 -0.1639,0.33947 -0.17302,0.33436 -0.18198,0.32894 -0.19082,0.32328 -0.19947,0.31733 -0.2079,0.31116 -0.21619,0.30466 -0.2243,0.29799 -0.2321,0.29107 -0.23976,0.28385 -0.24719,0.27648 -0.25434,0.26886 -0.26126,0.26106 -0.26797,0.25307 -0.27439,0.24484 -0.2805,0.23644 -0.28641,0.22788 -0.29202,0.21914 -0.29738,0.21028 -0.30247,0.20117 -0.30724,0.19203 -0.31179,0.18267 -0.316,0.17317 -0.32002,0.16357 -0.32369,0.15387 -0.3271,0.14395 -0.33023,0.13402 -0.33309,0.12392 -0.33569,0.11366 -0.33795,0.10339 -0.33997,0.093 -0.34166,0.0825 -0.34312,0.0718 -0.34424,0.0612 -0.34509,0.0505 -0.34561,0.0396 -0.3458,0.0288 -0.34572,0.0179 -0.34527,0.007 -0.34453,-0.004 -0.34343,-0.0148 -0.34193,-0.0257 -0.34017,-0.0365 -0.33795,-0.0472 -0.33542,-0.0577 -0.33253,-0.0682 -0.32921,-0.0784 -0.32555,-0.0884 -0.32149,-0.0981 -0.31707,-0.10751 -0.31224,-0.11661 -0.30706,-0.12525 -0.30154,-0.13346 -0.29564,-0.14124 -0.28944,-0.14844 -0.28296,-0.15506 -0.27609,-0.1611 -0.26908,-0.16641 -0.26175,-0.17107 -0.25423,-0.17503 -0.24658,-0.17812 -0.2388,-0.18046 -0.23091,-0.18192 -0.22302,-0.1826 -0.21509,-0.18231 -0.20724,-0.18122 -0.19954,-0.17916 -0.19194,-0.17626 -0.18459,-0.17244 -0.17749,-0.16775 -0.17067,-0.1622 -0.16432,-0.15581 -0.15833,-0.14859 -0.1528,-0.14066 -0.14781,-0.13199 -0.14334,-0.1226 -0.13948,-0.11266 -0.13632,-0.10212 -0.13372,-0.0911 -0.13192,-0.0797 -0.13071,-0.0679 -0.13031,-0.056 -0.13065,-0.0437 -0.13168,-0.0315 -0.13351,-0.0191 -0.13604,-0.007 -0.13928,0.005 -0.1432,0.0171 -0.1479,0.0286 -0.15314,0.0397 -0.15907,0.0505 -0.1655,0.0606 -0.17254,0.0701 -0.18002,0.079 -0.18789,0.0871 -0.19623,0.0945 -0.20485,0.10109 -0.21371,0.1068 -0.22283,0.11163 -0.2321,0.11557 -0.24144,0.11858 -0.25081,0.1207 -0.26021,0.12179 -0.26948,0.12207 -0.27863,0.12139 -0.28766,0.11979 -0.29641,0.11731 -0.30498,0.11397 -0.31317,0.10982 -0.321,0.10486 -0.32855,0.0991 -0.33563,0.0927 -0.34234,0.0856 -0.34858,0.0779 -0.35436,0.0696 -0.35971,0.0608 -0.3645,0.0515 -0.36887,0.0417 -0.37272,0.0315 -0.37609,0.021 -0.379,0.0101 -0.38131,-9.9e-4 -0.38327,-0.0124 -0.38466,-0.0239 -0.38561,-0.0356 -0.38609,-0.0475 -0.38608,-0.0594 -0.38559,-0.0715 -0.38467,-0.0836 -0.3833,-0.0957 -0.38144,-0.10793 -0.37915,-0.12004 -0.37636,-0.1322 -0.37315,-0.14427 -0.36943,-0.1563 -0.36524,-0.16829 -0.36062,-0.18014 -0.35544,-0.19193 -0.34976,-0.20362 -0.34363,-0.21518 -0.33693,-0.22657 -0.32973,-0.23781 -0.32193,-0.24883 L -14.3121,226 l -0.30474,-0.27036 -0.29535,-0.28082 -0.28531,-0.29091 -0.27474,-0.30079 -0.26363,-0.31035 -0.25193,-0.31949 -0.23963,-0.3284 -0.22684,-0.33679 -0.2135,-0.34482 -0.19965,-0.35242 -0.18528,-0.35948 -0.17049,-0.36607 -0.15523,-0.37216 -0.13958,-0.37761 -0.12356,-0.38262 -0.10722,-0.3869 -0.09058,-0.39062 -0.0737,-0.39373 -0.05662,-0.39616 -0.0394,-0.39798 -0.02211,-0.39908 -0.0048,-0.39958"
       style="fill:#338ec1;fill-opacity:0.2;fill-rule:nonzero;stroke:#338ec1;stroke-width:0.99628;stroke-linecap:butt;stroke-linejoin:miter;stroke-miterlimit:10;stroke-dasharray:none;stroke-opacity:1"
       transform="matrix(1.3333333,0,0,-1.3333333,29.878667,328.81867)" />
    <path
       id="path52"
       d="m 82.21317,218.6844 -0.006,-0.042 -0.0027,-0.0421 4.8e-4,-0.0421 0.0037,-0.042 0.007,-0.0417 0.01024,-0.0413 0.01349,-0.0407 0.01671,-0.04 0.01996,-0.0391 0.02314,-0.0381 0.02633,-0.0369 0.02943,-0.0356 0.03248,-0.0342 0.0355,-0.0326 0.0384,-0.0309 0.04122,-0.0291 0.04387,-0.0272 0.0464,-0.0251 0.04881,-0.023 0.05104,-0.0208 0.05304,-0.0185 0.05482,-0.0162 0.05642,-0.0138 0.05772,-0.0115 0.05876,-0.009 0.05954,-0.007 0.06002,-0.005 0.06013,-0.003 0.06004,-5.8e-4 0.05951,0.001 0.05872,0.003 0.05756,0.004 0.0561,0.006 0.05432,0.007 0.05217,0.007 0.04985,0.008 0.04711,0.007 0.04416,0.007 0.04101,0.006 0.0376,0.005 0.034,0.004 0.03026,0.002 0.0264,-5.8e-4 0.0224,-0.003 0.01843,-0.007 0.01437,-0.0101 0.0104,-0.0141 0.0064,-0.0185 0.0026,-0.0232 -0.0011,-0.0283 -0.0046,-0.0336 -0.0079,-0.0393 -0.01096,-0.0452 -0.0137,-0.0514 -0.01619,-0.0577 -0.01831,-0.0642 -0.02009,-0.0707 -0.02146,-0.0774 -0.02244,-0.084 -0.02307,-0.0906 -0.02324,-0.0972 -0.02298,-0.10362 -0.02233,-0.10993 -0.02121,-0.11607 -0.01973,-0.12198 -0.01777,-0.12762 -0.01548,-0.13303 -0.01282,-0.13807 -0.0097,-0.14287 -0.0064,-0.14727 -0.0027,-0.15136 0.0014,-0.15503 0.0056,-0.15837 0.01017,-0.1613 0.01493,-0.16396 0.0199,-0.16611 0.02498,-0.16801 0.03027,-0.16953 0.03569,-0.17071 0.04114,-0.17165 0.04679,-0.17225 0.05236,-0.17266 0.05812,-0.17276 0.06386,-0.17267 0.0696,-0.17245 0.07538,-0.17204 0.08122,-0.17153 0.08703,-0.17091 0.09285,-0.17021 0.09865,-0.16948 0.10457,-0.16872 0.11038,-0.16797 0.11634,-0.1672 0.12226,-0.16652 0.12825,-0.16582 0.13433,-0.16515 0.14046,-0.16456 0.14662,-0.164 0.15292,-0.16349 0.15935,-0.16303 0.16585,-0.16254 0.17246,-0.16213 0.17922,-0.16162 0.18611,-0.16115 0.19313,-0.16056 0.20027,-0.15998 0.20755,-0.15916 0.21492,-0.15831 0.22246,-0.15725 0.23009,-0.15592 0.23778,-0.15441 0.24554,-0.15262 0.25339,-0.15054 0.26126,-0.14805 0.2691,-0.1453 0.27694,-0.14206 0.28468,-0.13841 0.29239,-0.13439 0.29995,-0.1298 0.30736,-0.12479 0.31458,-0.11928 0.32158,-0.11322 0.32829,-0.10666 0.33469,-0.0996 0.34071,-0.092 0.34648,-0.0839 0.35173,-0.0753 0.35655,-0.0662 0.36095,-0.0566 0.36478,-0.0466 0.36812,-0.0361 0.37087,-0.0252 0.37313,-0.014 0.3747,-0.002 0.37571,0.009 0.37613,0.0216 0.3759,0.034 0.37505,0.0465 0.37361,0.0593 0.37147,0.0721 0.36878,0.085 0.36549,0.0979 0.3616,0.1108 0.35716,0.12361 0.35215,0.13635 0.34659,0.14893 0.34059,0.16137 0.33407,0.17357 0.32717,0.18558 0.31978,0.19725 0.31204,0.20873 0.30392,0.21978 0.29556,0.23058 0.28684,0.24097 0.27794,0.25101 0.26878,0.26067 0.25942,0.26992 0.2499,0.27877 0.24032,0.28724 0.2306,0.29528 0.22078,0.30285 0.211,0.31013 0.20111,0.31696 0.19119,0.32334 0.18138,0.32938 0.17151,0.33507 0.16176,0.34033 0.15195,0.34526 0.14227,0.34982 0.1326,0.35408 0.12302,0.35798 0.11346,0.36157 0.10396,0.3649 0.0945,0.36784 0.0851,0.37059 0.0757,0.37299 0.0664,0.37516 0.057,0.37707 0.0476,0.37866 0.0382,0.38004 0.0287,0.38114 -0.0287,0.38113 -0.0382,0.38006 -0.0476,0.37866 -0.057,0.37706 -0.0664,0.37517 -0.0757,0.37298 -0.0851,0.37059 -0.0945,0.36785 -0.10396,0.36488 -0.11346,0.36158 -0.12302,0.35798 -0.1326,0.35406 -0.14227,0.34984 -0.15195,0.34526 -0.16176,0.34033 -0.17151,0.33507 -0.18138,0.32938 -0.19119,0.32335 -0.20111,0.31693 -0.211,0.31014 -0.22078,0.30286 -0.2306,0.29529 -0.24032,0.28723 -0.2499,0.27876 -0.25942,0.26993 -0.26878,0.26066 -0.27794,0.25103 -0.28684,0.24096 -0.29556,0.23056 -0.30392,0.21981 -0.31204,0.20871 -0.31978,0.19726 -0.32717,0.18558 -0.33407,0.17357 -0.34059,0.16137 -0.34659,0.14893 -0.35215,0.13635 -0.35716,0.1236 -0.3616,0.1108 -0.36549,0.0979 -0.36878,0.085 -0.37147,0.0721 -0.37361,0.0593 -0.37505,0.0465 -0.3759,0.034 -0.37613,0.0216 -0.37571,0.009 -0.3747,-0.002 -0.37313,-0.014 -0.37087,-0.0253 -0.36812,-0.0361 -0.36478,-0.0466 -0.36095,-0.0566 -0.35655,-0.0662 -0.35173,-0.0753 -0.34648,-0.0839 -0.34071,-0.092 -0.33469,-0.0996 -0.32829,-0.10664 -0.32158,-0.11324 -0.31458,-0.11926 -0.30736,-0.12479 -0.29995,-0.1298 -0.29239,-0.13438 -0.28468,-0.13842 -0.27694,-0.14208 -0.2691,-0.14527 -0.26126,-0.14807 -0.25339,-0.15053 -0.24554,-0.15262 -0.23778,-0.15442 -0.23009,-0.15591 -0.22246,-0.15725 -0.21492,-0.15831 -0.20755,-0.15916 -0.20027,-0.15997 -0.19313,-0.16059 -0.18611,-0.16113 -0.17922,-0.16164 -0.17246,-0.16211 -0.16585,-0.16253 -0.15935,-0.16304 -0.15292,-0.16349 -0.14662,-0.164 -0.14046,-0.16458 -0.13433,-0.16513 -0.12825,-0.16583 -0.12226,-0.16651 -0.11634,-0.1672 -0.11038,-0.16798 -0.10457,-0.16871 -0.09865,-0.16948 -0.09285,-0.17021 -0.08703,-0.17091 -0.08122,-0.17152 -0.07538,-0.17205 -0.0696,-0.17245 -0.06386,-0.17269 -0.05812,-0.17274 -0.05236,-0.17265 -0.04679,-0.17226 -0.04114,-0.17165 -0.03569,-0.17071 -0.03027,-0.16954 -0.02498,-0.168 -0.0199,-0.16612 -0.01493,-0.16396 -0.01017,-0.16128 -0.0056,-0.15838 -0.0014,-0.15502 0.0027,-0.15137 0.0064,-0.14727 0.0097,-0.14286 0.01282,-0.13808 0.01548,-0.13302 0.01777,-0.12763 0.01973,-0.12199 0.02121,-0.11606 0.02233,-0.10992 0.02298,-0.10363 0.02324,-0.0972 0.02307,-0.0906 0.02244,-0.084 0.02146,-0.0774 0.02009,-0.0707 0.01831,-0.0642 0.01619,-0.0577 0.0137,-0.0514 0.01096,-0.0452 0.0079,-0.0393 0.0046,-0.0337 0.0011,-0.0283 -0.0026,-0.0232 -0.0064,-0.0185 -0.0104,-0.0141 -0.01437,-0.0101 -0.01843,-0.006 -0.0224,-0.003 -0.0264,-5.8e-4 -0.03026,0.002 -0.034,0.004 -0.0376,0.005 -0.04101,0.006 -0.04416,0.007 -0.04711,0.007 -0.04985,0.008 -0.05217,0.007 -0.05432,0.006 -0.0561,0.006 -0.05756,0.004 -0.05872,0.003 -0.05951,0.001 -0.06004,-5.8e-4 -0.06013,-0.003 -0.06002,-0.005 -0.05954,-0.007 -0.05876,-0.009 -0.05772,-0.0115 -0.05642,-0.0138 -0.05482,-0.0162 -0.05304,-0.0185 -0.05104,-0.0208 -0.04881,-0.023 -0.0464,-0.0251 -0.04387,-0.0272 -0.04122,-0.0291 -0.0384,-0.0309 -0.0355,-0.0326 -0.03248,-0.0342 -0.02943,-0.0356 -0.02633,-0.037 -0.02314,-0.0381 -0.01996,-0.0392 -0.01671,-0.04 -0.01349,-0.0407 -0.01024,-0.0413 -0.007,-0.0417 -0.0037,-0.042 -4.8e-4,-0.0421 0.0027,-0.0421 0.006,-0.042"
       style="fill:#338ec1;fill-opacity:0.7;fill-rule:nonzero;stroke:#338ec1;stroke-width:0.99628;stroke-linecap:butt;stroke-linejoin:miter;stroke-miterlimit:10;stroke-dasharray:none;stroke-opacity:1"
       transform="matrix(1.3333333,0,0,-1.3333333,29.878667,328.81867)" />
    <path
       id="path53"
       d="m 162.4829,218.67554 -0.003,-0.0331 0.004,-0.0331 0.0106,-0.0327 0.0171,-0.032 0.0233,-0.0311 0.0292,-0.0298 0.0346,-0.0284 0.0394,-0.0266 0.0436,-0.0248 0.0471,-0.0228 0.0499,-0.0208 0.0518,-0.0188 0.0529,-0.0169 0.0531,-0.0151 0.0525,-0.0136 0.0511,-0.0122 0.0488,-0.0111 0.0459,-0.0105 0.0423,-0.0101 0.0381,-0.0102 0.0334,-0.0107 0.0282,-0.0117 0.0228,-0.013 0.0171,-0.0148 0.0113,-0.017 0.006,-0.0196 -1.7e-4,-0.0225 -0.006,-0.0257 -0.0109,-0.0291 -0.0157,-0.0327 -0.02,-0.0364 -0.0239,-0.0402 -0.0272,-0.0439 -0.0298,-0.0476 -0.0319,-0.0511 -0.0333,-0.0544 -0.0341,-0.0575 -0.0343,-0.0604 -0.0339,-0.0629 -0.0329,-0.0651 -0.0316,-0.0669 -0.0298,-0.0685 -0.0276,-0.0697 -0.0252,-0.0706 -0.0226,-0.0714 -0.0199,-0.072 -0.0173,-0.0724 -0.0146,-0.073 -0.0122,-0.0736 -0.01,-0.0743 -0.008,-0.0755 -0.007,-0.077 -0.005,-0.0791 -0.005,-0.0819 -0.004,-0.0855 -0.004,-0.0899 -0.005,-0.0954 -0.006,-0.10193 -0.007,-0.10963 -0.008,-0.11861 -0.01,-0.1288 -0.0116,-0.14033 -0.0134,-0.15319 -0.015,-0.16731 -0.0165,-0.18275 -0.0176,-0.19939 -0.0183,-0.2171 -0.0185,-0.23589 -0.018,-0.25558 -0.0168,-0.27603 -0.0146,-0.29711 -0.0115,-0.31857 -0.007,-0.34029 -0.002,-0.36203 0.004,-0.38365 0.0118,-0.40486 0.0207,-0.42544 0.0307,-0.44533 0.0419,-0.46417 0.0543,-0.48183 0.0678,-0.49807 0.0824,-0.51283 0.098,-0.52589 0.11446,-0.53713 0.13166,-0.5465 0.14965,-0.55385 0.16807,-0.55918 0.187,-0.56248 0.20624,-0.56372 0.2257,-0.56297 0.24518,-0.56025 0.26462,-0.5556 0.28402,-0.54932 0.30312,-0.54133 0.32192,-0.53189 0.34036,-0.52118 0.3584,-0.50931 0.37593,-0.49654 0.39304,-0.48306 0.40966,-0.46896 0.42575,-0.45459 0.44156,-0.44005 0.45682,-0.42554 0.47189,-0.41122 0.48659,-0.39721 0.50116,-0.38369 0.51563,-0.37077 0.53004,-0.3584 0.54451,-0.34673 0.55916,-0.3358 0.57391,-0.32551 0.58902,-0.31588 0.60442,-0.30679 0.6201,-0.29816 0.63615,-0.28984 0.6525,-0.28172 0.66917,-0.27353 0.68602,-0.26521 0.70302,-0.25638 0.71996,-0.24695 0.73677,-0.2366 0.75325,-0.22516 0.76921,-0.21242 0.7843,-0.19804 0.79846,-0.18199 0.81127,-0.16391 0.82251,-0.14376 0.83182,-0.12136 0.83897,-0.0966 0.84355,-0.0694 0.84537,-0.0398 0.84402,-0.008 0.83934,0.0267 0.83095,0.0634 0.81863,0.10229 0.80227,0.14308 0.78158,0.18567 0.7565,0.22972 0.72701,0.27495 0.69294,0.32101 0.65442,0.36757 0.61155,0.41423 0.5643,0.46057 0.51315,0.5062 0.45817,0.5507 0.39968,0.59363 0.33812,0.63462 0.27394,0.67318 0.20758,0.70905 0.13953,0.74176 0.0705,0.77109 8.9e-4,0.79664 -0.0685,0.81835 -0.13703,0.83581 -0.20404,0.84906 -0.26898,0.85796 -0.33103,0.86238 -0.38962,0.86247 -0.44407,0.85835 -0.49387,0.85 -0.53836,0.83775 -0.5771,0.82185 -0.6096,0.80255 -0.63544,0.78025 -0.6544,0.75532 -0.66616,0.72824 -0.67051,0.6994 -0.66744,0.66932 -0.65697,0.63847 -0.63908,0.60747 -0.61406,0.57669 -0.58211,0.54673 -0.54358,0.51807 -0.49888,0.49104 -0.4485,0.46634 -0.39307,0.44413 -0.33319,0.42486 -0.26947,0.40889 -0.20273,0.39641 -0.13374,0.38766 -0.0633,0.38274 0.0633,0.38274 0.13374,0.38766 0.20273,0.39641 0.26947,0.40887 0.33319,0.42487 0.39307,0.44414 0.4485,0.46632 0.49888,0.49106 0.54358,0.51805 0.58211,0.54674 0.61406,0.5767 0.63908,0.60746 0.65697,0.63849 0.66744,0.66931 0.67051,0.6994 0.66616,0.72822 0.6544,0.75533 0.63544,0.78024 0.6096,0.80257 0.5771,0.82185 0.53836,0.83774 0.49387,0.85001 0.44407,0.85835 0.38962,0.86247 0.33103,0.86238 0.26898,0.85794 0.20404,0.84906 0.13703,0.83584 0.0685,0.81832 -8.9e-4,0.79667 -0.0705,0.77107 -0.13953,0.74178 -0.20758,0.70904 -0.27394,0.67319 -0.33812,0.63461 -0.39968,0.59361 -0.45817,0.55071 -0.51315,0.50621 -0.5643,0.46057 -0.61155,0.41421 -0.65442,0.36759 -0.69294,0.32101 -0.72701,0.27493 -0.7565,0.22974 -0.78158,0.18567 -0.80227,0.14308 -0.81863,0.10228 -0.83095,0.0634 -0.83934,0.0266 -0.84402,-0.008 -0.84537,-0.0398 -0.84355,-0.0694 -0.83897,-0.0966 -0.83182,-0.12139 -0.82251,-0.14374 -0.81127,-0.16391 -0.79846,-0.182 -0.7843,-0.19803 -0.76921,-0.21242 -0.75325,-0.22516 -0.73677,-0.2366 -0.71996,-0.24696 -0.70302,-0.25638 -0.68602,-0.2652 -0.66917,-0.27353 -0.6525,-0.28172 -0.63615,-0.28985 -0.6201,-0.29815 -0.60442,-0.30681 -0.58902,-0.31585 -0.57391,-0.32554 -0.55916,-0.33578 -0.54451,-0.34673 -0.53004,-0.35841 -0.51563,-0.37076 -0.50116,-0.3837 -0.48659,-0.39721 -0.47189,-0.41121 -0.45682,-0.42555 -0.44156,-0.44004 -0.42575,-0.4546 -0.40966,-0.46896 -0.39304,-0.48305 -0.37593,-0.49654 -0.3584,-0.50931 -0.34036,-0.52118 -0.32192,-0.53189 -0.30312,-0.54135 -0.28402,-0.5493 -0.26462,-0.5556 -0.24518,-0.56026 -0.2257,-0.56296 -0.20624,-0.56372 -0.187,-0.56248 -0.16807,-0.55918 -0.14965,-0.55384 -0.13166,-0.54653 -0.11446,-0.53711 -0.098,-0.52589 -0.0824,-0.51285 -0.0678,-0.49806 -0.0543,-0.48183 -0.0419,-0.46416 -0.0307,-0.44532 -0.0207,-0.42546 -0.0118,-0.40487 -0.004,-0.38365 0.002,-0.36201 0.007,-0.3403 0.0115,-0.31858 0.0146,-0.29709 0.0168,-0.27603 0.018,-0.2556 0.0185,-0.23587 0.0183,-0.21711 0.0176,-0.19938 0.0165,-0.18275 0.015,-0.16731 0.0134,-0.1532 0.0116,-0.14032 0.01,-0.12882 0.008,-0.1186 0.007,-0.10962 0.006,-0.10193 0.005,-0.0954 0.004,-0.0899 0.004,-0.0855 0.005,-0.0819 0.005,-0.0791 0.007,-0.077 0.008,-0.0755 0.01,-0.0743 0.0122,-0.0736 0.0146,-0.073 0.0173,-0.0724 0.0199,-0.072 0.0226,-0.0714 0.0252,-0.0706 0.0276,-0.0697 0.0298,-0.0685 0.0316,-0.0669 0.0329,-0.0651 0.0339,-0.0629 0.0343,-0.0604 0.0341,-0.0575 0.0333,-0.0545 0.0319,-0.0511 0.0298,-0.0476 0.0272,-0.0439 0.0239,-0.0402 0.02,-0.0364 0.0157,-0.0327 0.0109,-0.0291 0.006,-0.0257 1.7e-4,-0.0225 -0.006,-0.0196 -0.0113,-0.017 -0.0171,-0.0148 -0.0228,-0.013 -0.0282,-0.0117 -0.0334,-0.0107 -0.0381,-0.0102 -0.0423,-0.0102 -0.0459,-0.0105 -0.0488,-0.0112 -0.0511,-0.0122 -0.0525,-0.0135 -0.0531,-0.0151 -0.0529,-0.0169 -0.0518,-0.0188 -0.0499,-0.0208 -0.0471,-0.0228 -0.0436,-0.0248 -0.0394,-0.0266 -0.0346,-0.0284 -0.0292,-0.0298 -0.0233,-0.0311 -0.0171,-0.0321 -0.0106,-0.0327 -0.004,-0.0331 0.003,-0.0331"
       style="fill:#338ec1;fill-opacity:0.4;fill-rule:nonzero;stroke:#338ec1;stroke-width:0.99628;stroke-linecap:butt;stroke-linejoin:miter;stroke-miterlimit:10;stroke-dasharray:none;stroke-opacity:1"
       transform="matrix(1.3333333,0,0,-1.3333333,29.878667,328.81867)" />
    <path
       id="path54"
       d="m -18.03595,108.30338 0.0048,-0.39957 0.02211,-0.3991 0.0394,-0.39797 0.05662,-0.39617 0.0737,-0.39372 0.09058,-0.39063 0.10722,-0.3869 0.12356,-0.38261 0.13958,-0.37761 0.15523,-0.37216 0.17049,-0.36608 0.18528,-0.35948 0.19965,-0.35242 0.2135,-0.34483 0.22684,-0.33678 0.23963,-0.3284 0.25193,-0.31948 0.26363,-0.31035 0.27474,-0.3008 0.28531,-0.29091 0.29535,-0.28082 0.30474,-0.27036 0.31364,-0.25976 0.32193,-0.24884 0.32973,-0.23781 0.33693,-0.22656 0.34363,-0.21518 0.34976,-0.20363 0.35544,-0.19193 0.36062,-0.18014 0.36524,-0.16829 0.36943,-0.15629 0.37315,-0.14428 0.37636,-0.1322 0.37915,-0.12004 0.38144,-0.10793 0.3833,-0.09575 0.38467,-0.08364 0.38559,-0.07152 0.38608,-0.05945 0.38609,-0.04752 0.38561,-0.03563 0.38466,-0.02391 0.38327,-0.01239 0.38131,-9.9e-4 0.379,0.01012 0.37609,0.02096 0.37272,0.03151 0.36887,0.04168 0.3645,0.05146 0.35971,0.06075 0.35436,0.06964 0.34858,0.07793 0.34234,0.08564 0.33563,0.09275 0.32855,0.09915 0.321,0.10486 0.31317,0.10981 0.30498,0.11397 0.29641,0.11731 0.28766,0.1198 0.27863,0.12138 0.26948,0.12207 0.26021,0.1218 0.25081,0.1207 0.24144,0.11857 0.2321,0.11557 0.22283,0.11163 0.21371,0.1068 0.20485,0.10109 0.19623,0.09448 0.18789,0.08713 0.18002,0.07898 0.17254,0.0701 0.1655,0.0606 0.15907,0.0504 0.15314,0.0397 0.1479,0.0286 0.1432,0.017 0.13928,0.005 0.13604,-0.007 0.13351,-0.0191 0.13168,-0.0315 0.13065,-0.0437 0.13031,-0.0559 0.13071,-0.068 L 4.30215,99.99692 4.43587,99.90578 4.57219,99.80365 4.71167,99.691 4.85501,99.56839 5.00282,99.4364 5.15562,99.29575 5.31395,99.14716 5.47827,98.99135 5.64894,98.82915 5.82643,98.66139 6.01102,98.48895 6.20296,98.3127 6.4025,98.13353 6.60974,97.95232 6.82483,97.76999 7.04785,97.5874 7.27876,97.40549 7.51756,97.22502 7.76414,97.0469 8.01837,96.87187 8.28012,96.7008 8.5492,96.5344 8.82529,96.37329 9.10825,96.21823 9.39769,96.0698 l 0.29564,-0.14124 0.30154,-0.13347 0.30706,-0.12524 0.31224,-0.11661 0.31707,-0.10752 0.32149,-0.09811 0.32555,-0.08839 0.32921,-0.07839 0.33253,-0.06817 0.33542,-0.05776 0.33795,-0.0472 0.34017,-0.0365 0.34193,-0.02569 0.34343,-0.01483 0.34453,-0.004 0.34527,0.007 0.34572,0.0179 0.3458,0.02875 0.34561,0.03962 0.34509,0.05046 0.34424,0.06119 0.34312,0.07186 0.34166,0.08247 0.33997,0.09297 0.33795,0.10339 0.33569,0.11367 0.33309,0.12391 0.33023,0.13402 0.3271,0.14394 0.32369,0.15388 0.32002,0.16358 0.316,0.17317 0.31179,0.18266 0.30724,0.19203 0.30247,0.20118 0.29738,0.21028 0.29202,0.21913 0.28641,0.22789 0.2805,0.23643 0.27439,0.24485 0.26797,0.25305 0.26126,0.26108 0.25434,0.26886 0.24719,0.27647 0.23976,0.28386 0.2321,0.29106 0.2243,0.29799 0.21619,0.30467 0.2079,0.31116 0.19947,0.31732 0.19082,0.32328 0.18198,0.32894 0.17302,0.33437 0.1639,0.33946 0.15469,0.34433 0.14527,0.34883 0.13582,0.35315 0.12625,0.35709 0.11661,0.36079 0.10687,0.36418 0.09709,0.36725 0.08727,0.37006 0.07738,0.37251 0.06749,0.37476 0.05756,0.37663 0.0476,0.37825 0.0377,0.37956 0.02776,0.3806 0.01781,0.38135 -0.01781,0.38132 -0.02776,0.3806 -0.0377,0.37956 -0.0476,0.37825 -0.05756,0.37663 -0.06749,0.37476 -0.07738,0.37251 -0.08727,0.37006 -0.09709,0.36726 -0.10687,0.36417 -0.11661,0.36079 -0.12625,0.3571 -0.13582,0.35314 -0.14527,0.34884 -0.15469,0.34432 -0.1639,0.33946 -0.17302,0.33436 -0.18198,0.32896 -0.19082,0.32328 -0.19947,0.31731 -0.2079,0.31117 -0.21619,0.30466 -0.2243,0.29798 -0.2321,0.29107 -0.23976,0.28386 -0.24719,0.27647 -0.25434,0.26888 -0.26126,0.26106 -0.26797,0.25305 -0.27439,0.24484 -0.2805,0.23644 -0.28641,0.22789 -0.29202,0.21913 -0.29738,0.21028 -0.30247,0.20119 -0.30724,0.19203 -0.31179,0.18265 -0.316,0.17317 -0.32002,0.16357 -0.32369,0.15389 -0.3271,0.14393 -0.33023,0.13404 -0.33309,0.1239 -0.33569,0.11366 -0.33795,0.1034 -0.33997,0.093 -0.34166,0.0825 -0.34312,0.0719 -0.34424,0.0612 -0.34509,0.0504 -0.34561,0.0396 -0.3458,0.0288 -0.34572,0.0179 -0.34527,0.007 -0.34453,-0.004 -0.34343,-0.0148 -0.34193,-0.0257 -0.34017,-0.0365 -0.33795,-0.0472 -0.33542,-0.0578 -0.33253,-0.0682 -0.32921,-0.0784 -0.32555,-0.0884 -0.32149,-0.0981 -0.31707,-0.10751 -0.31224,-0.11661 L 9.99487,120.0125 9.69333,119.87903 9.39769,119.7378 9.10825,119.58937 8.82529,119.43431 8.5492,119.2732 8.28012,119.10678 8.01837,118.93571 7.76414,118.7607 7.51756,118.58257 7.27876,118.4021 7.04785,118.22018 6.82483,118.0376 6.60974,117.85527 6.4025,117.67406 6.20296,117.4949 6.01102,117.31863 5.82643,117.1462 l -0.17749,-0.16776 -0.17067,-0.1622 -0.16432,-0.15581 -0.15833,-0.14859 -0.1528,-0.14065 -0.14781,-0.13199 -0.14334,-0.1226 -0.13948,-0.11266 -0.13632,-0.10213 -0.13372,-0.0911 -0.13192,-0.0797 -0.13071,-0.068 -0.13031,-0.0559 -0.13065,-0.0437 -0.13168,-0.0315 -0.13351,-0.0191 -0.13604,-0.007 -0.13928,0.005 -0.1432,0.0171 -0.1479,0.0286 -0.15314,0.0397 -0.15907,0.0504 -0.1655,0.0606 -0.17254,0.0701 -0.18002,0.079 -0.18789,0.0871 -0.19623,0.0945 -0.20485,0.1011 -0.21371,0.10678 -0.22283,0.11163 -0.2321,0.11558 -0.24144,0.11857 -0.25081,0.1207 -0.26021,0.12179 -0.26948,0.12209 -0.27863,0.12137 -0.28766,0.1198 -0.29641,0.1173 -0.30498,0.11397 -0.31317,0.10982 -0.321,0.10486 -0.32855,0.0991 -0.33563,0.0927 -0.34234,0.0857 -0.34858,0.0779 -0.35436,0.0696 -0.35971,0.0607 -0.3645,0.0515 -0.36887,0.0417 -0.37272,0.0315 -0.37609,0.021 -0.379,0.0101 -0.38131,-9.9e-4 -0.38327,-0.0124 -0.38466,-0.0239 -0.38561,-0.0356 -0.38609,-0.0475 -0.38608,-0.0595 -0.38559,-0.0715 -0.38467,-0.0837 -0.3833,-0.0957 -0.38144,-0.10795 -0.37915,-0.12003 -0.37636,-0.13221 -0.37315,-0.14426 -0.36943,-0.1563 -0.36524,-0.16828 -0.36062,-0.18016 -0.35544,-0.19192 -0.34976,-0.20362 -0.34363,-0.21519 -0.33693,-0.22656 -0.32973,-0.23781 -0.32193,-0.24884 -0.31364,-0.25975 -0.30474,-0.27037 -0.29535,-0.28081 -0.28531,-0.29092 -0.27474,-0.30079 -0.26363,-0.31034 -0.25193,-0.31951 -0.23963,-0.3284 -0.22684,-0.33677 -0.2135,-0.34484 -0.19965,-0.35242 -0.18528,-0.35946 -0.17049,-0.36609 -0.15523,-0.37216 -0.13958,-0.37761 -0.12356,-0.38262 -0.10722,-0.3869 -0.09058,-0.39062 -0.0737,-0.39372 -0.05662,-0.39617 -0.0394,-0.39798 -0.02211,-0.39906 -0.0048,-0.3996"
       style="fill:#338ec1;fill-opacity:0.2;fill-rule:nonzero;stroke:#338ec1;stroke-width:0.99628;stroke-linecap:butt;stroke-linejoin:miter;stroke-miterlimit:10;stroke-dasharray:none;stroke-opacity:1"
       transform="matrix(1.3333333,0,0,-1.3333333,29.878667,328.81867)" />
    <path
       id="path55"
       d="m 82.21317,107.94576 -0.006,-0.042 -0.0027,-0.0421 4.8e-4,-0.0421 0.0037,-0.042 0.007,-0.0417 0.01024,-0.0413 0.01349,-0.0407 0.01671,-0.04 0.01996,-0.0391 0.02314,-0.0381 0.02633,-0.0369 0.02943,-0.0357 0.03248,-0.0342 0.0355,-0.0326 0.0384,-0.0309 0.04122,-0.0291 0.04387,-0.0272 0.0464,-0.0251 0.04881,-0.023 0.05104,-0.0208 0.05304,-0.0185 0.05482,-0.0162 0.05642,-0.0138 0.05772,-0.0115 0.05876,-0.009 0.05954,-0.007 0.06002,-0.005 0.06013,-0.003 0.06004,-5.8e-4 0.05951,10e-4 0.05872,0.003 0.05756,0.004 0.0561,0.006 0.05432,0.007 0.05217,0.007 0.04985,0.008 0.04711,0.007 0.04416,0.007 0.04101,0.006 0.0376,0.005 0.034,0.004 0.03026,0.002 0.0264,-5.8e-4 0.0224,-0.003 0.01843,-0.007 0.01437,-0.0101 0.0104,-0.0141 0.0064,-0.0185 0.0026,-0.0232 -0.0011,-0.0283 -0.0046,-0.0337 -0.0079,-0.0393 -0.01096,-0.0452 -0.0137,-0.0514 -0.01619,-0.0577 -0.01831,-0.0642 -0.02009,-0.0707 -0.02146,-0.0774 -0.02244,-0.084 -0.02307,-0.0906 -0.02324,-0.0972 -0.02298,-0.10362 -0.02233,-0.10992 -0.02121,-0.11606 -0.01973,-0.12199 -0.01777,-0.12763 -0.01548,-0.13303 -0.01282,-0.13807 -0.0097,-0.14287 -0.0064,-0.14727 -0.0027,-0.15136 0.0014,-0.15503 0.0056,-0.15837 0.01017,-0.1613 0.01493,-0.16394 0.0199,-0.16612 0.02498,-0.16802 0.03027,-0.16952 0.03569,-0.17072 0.04114,-0.17165 0.04679,-0.17225 0.05236,-0.17265 0.05812,-0.17275 0.06386,-0.17268 0.0696,-0.17246 0.07538,-0.17204 0.08122,-0.17152 0.08703,-0.17092 0.09285,-0.17021 0.09865,-0.16948 0.10457,-0.1687 0.11038,-0.16798 0.11634,-0.16721 0.12226,-0.1665 0.12825,-0.16584 0.13433,-0.16513 0.14046,-0.16458 0.14662,-0.164 0.15292,-0.16348 0.15935,-0.16304 0.16585,-0.16254 0.17246,-0.16211 0.17922,-0.16164 0.18611,-0.16113 0.19313,-0.16058 0.20027,-0.15998 0.20755,-0.15916 0.21492,-0.15831 0.22246,-0.15724 0.23009,-0.15592 0.23778,-0.15441 0.24554,-0.15263 0.25339,-0.15052 0.26126,-0.14807 0.2691,-0.1453 0.27694,-0.14206 0.28468,-0.13841 0.29239,-0.13438 0.29995,-0.12981 0.30736,-0.12479 0.31458,-0.11926 0.32158,-0.11323 0.32829,-0.10667 0.33469,-0.09957 0.34071,-0.09203 0.34648,-0.08389 0.35173,-0.07527 0.35655,-0.06618 0.36095,-0.05659 0.36478,-0.04657 0.36812,-0.0361 0.37087,-0.02526 0.37313,-0.01398 0.3747,-0.0024 0.37571,0.0095 0.37613,0.02161 0.3759,0.034 0.37505,0.04654 0.37361,0.05928 0.37147,0.07209 0.36878,0.08503 0.36549,0.09788 0.3616,0.11078 0.35716,0.12361 0.35215,0.13635 0.34659,0.14893 0.34059,0.16138 0.33407,0.17357 0.32717,0.18557 0.31978,0.19727 0.31204,0.20871 0.30392,0.2198 0.29556,0.23056 0.28684,0.24097 0.27794,0.25102 0.26878,0.26067 0.25942,0.26992 0.2499,0.27877 0.24032,0.28723 0.2306,0.29529 0.22078,0.30286 0.211,0.31013 0.20111,0.31694 0.19119,0.32335 0.18138,0.32938 0.17151,0.33506 0.16176,0.34034 0.15195,0.34525 0.14227,0.34983 0.1326,0.35408 0.12302,0.35797 0.11346,0.36159 0.10396,0.36488 0.0945,0.36784 0.0851,0.37059 0.0757,0.37299 0.0664,0.37517 0.057,0.37706 0.0476,0.37866 0.0382,0.38005 0.0287,0.38115 -0.0287,0.38112 -0.0382,0.38005 -0.0476,0.37866 -0.057,0.37706 -0.0664,0.37517 -0.0757,0.37298 -0.0851,0.37059 -0.0945,0.36785 -0.10396,0.3649 -0.11346,0.36157 -0.12302,0.35797 -0.1326,0.35408 -0.14227,0.34982 -0.15195,0.34527 -0.16176,0.34033 -0.17151,0.33507 -0.18138,0.32937 -0.19119,0.32335 -0.20111,0.31695 -0.211,0.31014 -0.22078,0.30284 -0.2306,0.29529 -0.24032,0.28723 -0.2499,0.27876 -0.25942,0.26993 -0.26878,0.26068 -0.27794,0.25101 -0.28684,0.24097 -0.29556,0.23057 -0.30392,0.21979 -0.31204,0.20872 -0.31978,0.19725 -0.32717,0.18558 -0.33407,0.17357 -0.34059,0.16138 -0.34659,0.14892 -0.35215,0.13636 -0.35716,0.12361 -0.3616,0.11079 -0.36549,0.0979 -0.36878,0.085 -0.37147,0.0721 -0.37361,0.0593 -0.37505,0.0465 -0.3759,0.034 -0.37613,0.0216 -0.37571,0.009 -0.3747,-0.002 -0.37313,-0.014 -0.37087,-0.0252 -0.36812,-0.0361 -0.36478,-0.0466 -0.36095,-0.0566 -0.35655,-0.0662 -0.35173,-0.0753 -0.34648,-0.0839 -0.34071,-0.092 -0.33469,-0.0996 -0.32829,-0.10666 -0.32158,-0.11322 -0.31458,-0.11928 -0.30736,-0.12478 -0.29995,-0.12981 -0.29239,-0.13439 -0.28468,-0.13841 -0.27694,-0.14206 -0.2691,-0.14529 -0.26126,-0.14806 -0.25339,-0.15054 -0.24554,-0.15262 -0.23778,-0.1544 -0.23009,-0.15593 -0.22246,-0.15724 -0.21492,-0.15831 -0.20755,-0.15917 -0.20027,-0.15997 -0.19313,-0.16057 -0.18611,-0.16115 -0.17922,-0.16162 -0.17246,-0.16212 -0.16585,-0.16254 -0.15935,-0.16304 -0.15292,-0.16348 -0.14662,-0.164 -0.14046,-0.16457 -0.13433,-0.16515 -0.12825,-0.16581 -0.12226,-0.16652 -0.11634,-0.16721 -0.11038,-0.16798 -0.10457,-0.1687 -0.09865,-0.16948 -0.09285,-0.17021 -0.08703,-0.17092 -0.08122,-0.17152 -0.07538,-0.17205 -0.0696,-0.17245 -0.06386,-0.17267 -0.05812,-0.17276 -0.05236,-0.17265 -0.04679,-0.17226 -0.04114,-0.17164 -0.03569,-0.17072 -0.03027,-0.16952 -0.02498,-0.16802 -0.0199,-0.16611 -0.01493,-0.16395 -0.01017,-0.1613 -0.0056,-0.15837 -0.0014,-0.15503 0.0027,-0.15137 0.0064,-0.14726 0.0097,-0.14287 0.01282,-0.13808 0.01548,-0.13302 0.01777,-0.12763 0.01973,-0.12198 0.02121,-0.11607 0.02233,-0.10993 0.02298,-0.10362 0.02324,-0.0972 0.02307,-0.0906 0.02244,-0.084 0.02146,-0.0774 0.02009,-0.0707 0.01831,-0.0642 0.01619,-0.0577 0.0137,-0.0514 0.01096,-0.0452 0.0079,-0.0393 0.0046,-0.0337 0.0011,-0.0283 -0.0026,-0.0232 -0.0064,-0.0185 -0.0104,-0.0141 -0.01437,-0.0101 -0.01843,-0.007 -0.0224,-0.003 -0.0264,-5.9e-4 -0.03026,0.002 -0.034,0.004 -0.0376,0.005 -0.04101,0.006 -0.04416,0.007 -0.04711,0.007 -0.04985,0.008 -0.05217,0.007 -0.05432,0.007 -0.0561,0.006 -0.05756,0.004 -0.05872,0.003 -0.05951,10e-4 -0.06004,-5.8e-4 -0.06013,-0.003 -0.06002,-0.005 -0.05954,-0.007 -0.05876,-0.009 -0.05772,-0.0115 -0.05642,-0.0138 -0.05482,-0.0162 -0.05304,-0.0185 -0.05104,-0.0208 -0.04881,-0.023 -0.0464,-0.0251 -0.04387,-0.0272 -0.04122,-0.0291 -0.0384,-0.0309 -0.0355,-0.0326 -0.03248,-0.0343 -0.02943,-0.0356 -0.02633,-0.037 -0.02314,-0.0381 -0.01996,-0.0391 -0.01671,-0.04 -0.01349,-0.0407 -0.01024,-0.0413 -0.007,-0.0417 -0.0037,-0.042 -4.8e-4,-0.0421 0.0027,-0.0421 0.006,-0.042"
       style="fill:#338ec1;fill-opacity:0.7;fill-rule:nonzero;stroke:#338ec1;stroke-width:0.99628;stroke-linecap:butt;stroke-linejoin:miter;stroke-miterlimit:10;stroke-dasharray:none;stroke-opacity:1"
       transform="matrix(1.3333333,0,0,-1.3333333,29.878667,328.81867)" />
    <path
       id="path56"
       d="m 162.4829,107.93689 -0.003,-0.0331 0.004,-0.0331 0.0106,-0.0327 0.0171,-0.0321 0.0233,-0.0311 0.0292,-0.0298 0.0346,-0.0284 0.0394,-0.0266 0.0436,-0.0248 0.0471,-0.0228 0.0499,-0.0208 0.0518,-0.0188 0.0529,-0.0169 0.0531,-0.0151 0.0525,-0.0136 0.0511,-0.0122 0.0488,-0.0111 0.0459,-0.0105 0.0423,-0.0101 0.0381,-0.0102 0.0334,-0.0107 0.0282,-0.0117 0.0228,-0.013 0.0171,-0.0148 0.0113,-0.017 0.006,-0.0196 -1.7e-4,-0.0225 -0.006,-0.0257 -0.0109,-0.0291 -0.0157,-0.0327 -0.02,-0.0364 -0.0239,-0.0402 -0.0272,-0.0439 -0.0298,-0.0476 -0.0319,-0.0511 -0.0333,-0.0545 -0.0341,-0.0575 -0.0343,-0.0604 -0.0339,-0.0629 -0.0329,-0.0651 -0.0316,-0.0669 -0.0298,-0.0685 -0.0276,-0.0697 -0.0252,-0.0706 -0.0226,-0.0714 -0.0199,-0.072 -0.0173,-0.0724 -0.0146,-0.073 -0.0122,-0.0736 -0.01,-0.0743 -0.008,-0.0755 -0.007,-0.077 -0.005,-0.0791 -0.005,-0.0819 -0.004,-0.0855 -0.004,-0.0899 -0.005,-0.0954 -0.006,-0.10192 -0.007,-0.10962 -0.008,-0.11861 -0.01,-0.12881 -0.0116,-0.14032 -0.0134,-0.1532 -0.015,-0.16732 -0.0165,-0.18275 -0.0176,-0.19937 -0.0183,-0.21712 -0.0185,-0.23587 -0.018,-0.2556 -0.0168,-0.27603 -0.0146,-0.29709 -0.0115,-0.31857 -0.007,-0.3403 -0.002,-0.36202 0.004,-0.38365 0.0118,-0.40486 0.0207,-0.42546 0.0307,-0.44533 0.0419,-0.46416 0.0543,-0.48182 0.0678,-0.49807 0.0824,-0.51284 0.098,-0.5259 0.11446,-0.53711 0.13166,-0.54652 0.14965,-0.55385 0.16807,-0.55917 0.187,-0.56249 0.20624,-0.56372 0.2257,-0.56296 0.24518,-0.56025 0.26462,-0.55561 0.28402,-0.5493 0.30312,-0.54135 0.32192,-0.53189 0.34036,-0.52118 0.3584,-0.50931 0.37593,-0.49653 0.39304,-0.48305 0.40966,-0.46898 0.42575,-0.45459 0.44156,-0.44003 0.45682,-0.42555 0.47189,-0.41121 0.48659,-0.39722 0.50116,-0.3837 0.51563,-0.37076 0.53004,-0.35841 0.54451,-0.34673 0.55916,-0.33578 0.57391,-0.32553 0.58902,-0.31586 0.60442,-0.30681 0.6201,-0.29815 0.63615,-0.28984 0.6525,-0.28173 0.66917,-0.27353 0.68602,-0.26519 0.70302,-0.2564 0.71996,-0.24694 0.73677,-0.23661 0.75325,-0.22516 0.76921,-0.21241 0.7843,-0.19803 0.79846,-0.18201 0.81127,-0.16391 0.82251,-0.14374 0.83182,-0.12138 0.83897,-0.09662 0.84355,-0.06943 0.84537,-0.03982 0.84402,-0.0077 0.83934,0.02664 0.83095,0.0634 0.81863,0.10228 0.80227,0.14308 0.78158,0.18567 0.7565,0.22974 0.72701,0.27493 0.69294,0.32102 0.65442,0.36758 0.61155,0.41422 0.5643,0.46057 0.51315,0.50619 0.45817,0.55072 0.39968,0.59362 0.33812,0.63461 0.27394,0.67319 0.20758,0.70904 0.13953,0.74178 0.0705,0.77107 8.9e-4,0.79666 -0.0685,0.81833 -0.13703,0.83583 -0.20404,0.84906 -0.26898,0.85794 -0.33103,0.86238 -0.38962,0.86247 -0.44407,0.85836 -0.49387,0.85 -0.53836,0.83774 -0.5771,0.82185 -0.6096,0.80257 -0.63544,0.78024 -0.6544,0.75533 -0.66616,0.72822 -0.67051,0.69941 -0.66744,0.66931 -0.65697,0.63849 -0.63908,0.60745 -0.61406,0.57671 -0.58211,0.54673 -0.54358,0.51805 -0.49888,0.49106 -0.4485,0.46632 -0.39307,0.44414 -0.33319,0.42486 -0.26947,0.40888 -0.20273,0.39641 -0.13374,0.38767 -0.0633,0.38275 0.0633,0.38272 0.13374,0.38767 0.20273,0.3964 0.26947,0.40889 0.33319,0.42487 0.39307,0.44412 0.4485,0.46634 0.49888,0.49104 0.54358,0.51805 0.58211,0.54676 0.61406,0.57669 0.63908,0.60746 0.65697,0.63848 0.66744,0.66931 0.67051,0.6994 0.66616,0.72824 0.6544,0.75533 0.63544,0.78024 0.6096,0.80255 0.5771,0.82186 0.53836,0.83775 0.49387,0.84999 0.44407,0.85835 0.38962,0.86248 0.33103,0.86238 0.26898,0.85795 0.20404,0.84906 0.13703,0.83581 0.0685,0.81835 -8.9e-4,0.79665 -0.0705,0.77109 -0.13953,0.74176 -0.20758,0.70904 -0.27394,0.67319 -0.33812,0.63461 -0.39968,0.59363 -0.45817,0.5507 -0.51315,0.5062 -0.5643,0.46057 -0.61155,0.41421 -0.65442,0.36759 -0.69294,0.32101 -0.72701,0.27494 -0.7565,0.22973 -0.78158,0.18567 -0.80227,0.14308 -0.81863,0.1023 -0.83095,0.0634 -0.83934,0.0267 -0.84402,-0.008 -0.84537,-0.0399 -0.84355,-0.0694 -0.83897,-0.0966 -0.83182,-0.12137 -0.82251,-0.14375 -0.81127,-0.16392 -0.79846,-0.18198 -0.7843,-0.19805 -0.76921,-0.21242 -0.75325,-0.22515 -0.73677,-0.23661 -0.71996,-0.24695 -0.70302,-0.25639 -0.68602,-0.2652 -0.66917,-0.27353 -0.6525,-0.28172 -0.63615,-0.28984 -0.6201,-0.29816 -0.60442,-0.30679 -0.58902,-0.31587 -0.57391,-0.32552 -0.55916,-0.3358 -0.54451,-0.34672 -0.53004,-0.3584 -0.51563,-0.37078 -0.50116,-0.38369 -0.48659,-0.3972 -0.47189,-0.41123 -0.45682,-0.42554 -0.44156,-0.44004 -0.42575,-0.45459 -0.40966,-0.46897 -0.39304,-0.48306 -0.37593,-0.49654 -0.3584,-0.5093 -0.34036,-0.52118 -0.32192,-0.53189 -0.30312,-0.54134 -0.28402,-0.54932 -0.26462,-0.5556 -0.24518,-0.56026 -0.2257,-0.56295 -0.20624,-0.56372 -0.187,-0.56249 -0.16807,-0.55917 -0.14965,-0.55385 -0.13166,-0.54651 -0.11446,-0.53713 -0.098,-0.52589 -0.0824,-0.51283 -0.0678,-0.49806 -0.0543,-0.48183 -0.0419,-0.46417 -0.0307,-0.44533 -0.0207,-0.42546 -0.0118,-0.40485 -0.004,-0.38365 0.002,-0.36203 0.007,-0.34029 0.0115,-0.31857 0.0146,-0.2971 0.0168,-0.27603 0.018,-0.25559 0.0185,-0.23588 0.0183,-0.21711 0.0176,-0.19938 0.0165,-0.18276 0.015,-0.16731 0.0134,-0.15318 0.0116,-0.14034 0.01,-0.1288 0.008,-0.11861 0.007,-0.10963 0.006,-0.10193 0.005,-0.0954 0.004,-0.0899 0.004,-0.0855 0.005,-0.0819 0.005,-0.0791 0.007,-0.077 0.008,-0.0755 0.01,-0.0743 0.0122,-0.0736 0.0146,-0.073 0.0173,-0.0724 0.0199,-0.072 0.0226,-0.0714 0.0252,-0.0706 0.0276,-0.0696 0.0298,-0.0685 0.0316,-0.0669 0.0329,-0.0651 0.0339,-0.0629 0.0343,-0.0604 0.0341,-0.0575 0.0333,-0.0545 0.0319,-0.0511 0.0298,-0.0476 0.0272,-0.0439 0.0239,-0.0402 0.02,-0.0364 0.0157,-0.0327 0.0109,-0.0291 0.006,-0.0257 1.7e-4,-0.0225 -0.006,-0.0196 -0.0113,-0.017 -0.0171,-0.0148 -0.0228,-0.013 -0.0282,-0.0117 -0.0334,-0.0107 -0.0381,-0.0102 -0.0423,-0.0101 -0.0459,-0.0105 -0.0488,-0.0111 -0.0511,-0.0122 -0.0525,-0.0135 -0.0531,-0.0151 -0.0529,-0.0169 -0.0518,-0.0188 -0.0499,-0.0208 -0.0471,-0.0228 -0.0436,-0.0248 -0.0394,-0.0266 -0.0346,-0.0284 -0.0292,-0.0298 -0.0233,-0.0311 -0.0171,-0.0321 -0.0106,-0.0327 -0.004,-0.0331 0.003,-0.0331"
       style="fill:#338ec1;fill-opacity:0.4;fill-rule:nonzero;stroke:#338ec1;stroke-width:0.99628;stroke-linecap:butt;stroke-linejoin:miter;stroke-miterlimit:10;stroke-dasharray:none;stroke-opacity:1"
       transform="matrix(1.3333333,0,0,-1.3333333,29.878667,328.81867)" />
    <path
       id="path57"
       d="m 220.09767,218.70776 -8.1e-4,-0.0653 0.004,-0.0653 0.009,-0.065 0.0139,-0.0645 0.0187,-0.0638 0.0233,-0.0629 0.0278,-0.0618 0.0322,-0.0605 0.0363,-0.0591 0.0403,-0.0575 0.0441,-0.0557 0.0476,-0.0538 0.0509,-0.0518 0.0539,-0.0497 0.0567,-0.0475 0.0592,-0.0453 0.0614,-0.043 0.0634,-0.0407 0.065,-0.0384 0.0664,-0.036 0.0675,-0.0338 0.0683,-0.0315 0.0689,-0.0293 0.0692,-0.0272 0.0693,-0.0251 0.0692,-0.0231 0.0687,-0.0212 0.0681,-0.0195 0.0673,-0.0179 0.0663,-0.0164 0.0651,-0.0151 0.0638,-0.0139 0.0623,-0.0129 0.0607,-0.012 0.0588,-0.0114 0.057,-0.0109 0.0549,-0.0106 0.0528,-0.0106 0.0506,-0.0107 0.0482,-0.0111 0.0459,-0.0117 0.0434,-0.0126 0.0409,-0.0137 0.0383,-0.0151 0.0357,-0.0168 0.033,-0.0187 0.0304,-0.021 0.0276,-0.0236 0.025,-0.0265 0.0223,-0.0297 0.0197,-0.0332 0.0171,-0.0371 0.0146,-0.0414 0.0121,-0.046 0.01,-0.051 0.008,-0.0563 0.006,-0.0619 0.004,-0.0679 0.002,-0.0743 4.7e-4,-0.0809 -7.7e-4,-0.0879 -0.002,-0.0952 -0.002,-0.10269 -0.003,-0.11051 -0.003,-0.1185 -0.003,-0.12671 -0.002,-0.13505 -7.1e-4,-0.14352 8.4e-4,-0.15209 0.003,-0.16067 0.005,-0.16933 0.008,-0.17784 0.0114,-0.1863 0.0152,-0.19467 0.0194,-0.2028 0.0241,-0.21074 0.0293,-0.21843 0.035,-0.22577 0.0411,-0.2328 0.0475,-0.2394 0.0545,-0.24562 0.0618,-0.25134 0.0695,-0.2566 0.0775,-0.26129 0.0858,-0.26548 0.0944,-0.26915 0.10327,-0.27221 0.11244,-0.27467 0.1217,-0.27653 0.13123,-0.27785 0.14078,-0.27853 0.15056,-0.27868 0.16033,-0.27819 0.17023,-0.27718 0.18007,-0.27562 0.19002,-0.2735 0.19983,-0.2709 0.20969,-0.26779 0.21945,-0.2642 0.22914,-0.2602 0.23872,-0.25576 0.24822,-0.2509 0.2576,-0.24568 0.26683,-0.24014 0.27597,-0.23424 0.28488,-0.228 0.29368,-0.22146 0.30237,-0.21465 0.31081,-0.20755 0.31909,-0.20018 0.32723,-0.19255 0.33511,-0.18463 0.34283,-0.17645 0.3503,-0.16799 0.35759,-0.15927 0.36459,-0.15025 0.37128,-0.14093 0.37772,-0.13133 0.38386,-0.12139 0.38965,-0.11108 0.39504,-0.10051 0.4,-0.0895 0.40459,-0.0782 0.40866,-0.0664 0.41219,-0.0544 0.41522,-0.0419 0.41766,-0.0291 0.41944,-0.0158 0.42056,-0.002 0.42096,0.0117 0.42064,0.026 0.41952,0.0406 0.41764,0.0555 0.41488,0.0706 0.4113,0.0859 0.40684,0.10146 0.40153,0.11709 0.39526,0.13278 0.38817,0.14852 0.3802,0.16418 0.37139,0.17977 0.36171,0.19516 0.35127,0.21039 0.34003,0.22521 0.32814,0.23978 0.31555,0.25389 0.30232,0.26753 0.28868,0.28064 0.27451,0.29314 0.25996,0.30506 0.24513,0.31622 0.23015,0.32675 0.21498,0.33647 0.19985,0.34541 0.18475,0.35365 0.16989,0.36102 0.1552,0.36755 0.14088,0.37335 0.12702,0.37836 0.11361,0.3826 0.10088,0.38611 0.0887,0.3889 0.0773,0.39103 0.0666,0.39258 0.0567,0.39353 0.0477,0.39405 0.0395,0.39403 0.0323,0.39372 0.0258,0.39301 0.0202,0.3921 0.0154,0.39101 0.0115,0.38975 0.008,0.38848 0.006,0.38713 0.004,0.38591 0.003,0.38474 0.002,0.38372 10e-4,0.38283 0.001,0.38223 0.001,0.38181 0.002,0.38159 -0.002,0.38159 -0.001,0.38179 -0.001,0.38225 -10e-4,0.38283 -0.002,0.38373 -0.003,0.38473 -0.004,0.3859 -0.006,0.38714 -0.008,0.38846 -0.0115,0.38977 -0.0154,0.39101 -0.0202,0.3921 -0.0258,0.39301 -0.0323,0.39371 -0.0395,0.39404 -0.0477,0.39404 -0.0567,0.39354 -0.0666,0.39258 -0.0773,0.39104 -0.0887,0.3889 -0.10088,0.38609 -0.11361,0.38261 -0.12702,0.37836 -0.14088,0.37335 -0.1552,0.36754 -0.16989,0.36102 -0.18475,0.35364 -0.19985,0.34543 -0.21498,0.33646 -0.23015,0.32675 -0.24513,0.31624 -0.25996,0.30504 -0.27451,0.29313 -0.28868,0.28066 -0.30232,0.26753 -0.31555,0.25389 -0.32814,0.23976 -0.34003,0.22524 -0.35127,0.21038 -0.36171,0.19516 -0.37139,0.17977 -0.3802,0.16418 -0.38817,0.14852 -0.39526,0.13278 -0.40153,0.11709 -0.40684,0.10146 -0.4113,0.0859 -0.41488,0.0706 -0.41764,0.0555 -0.41952,0.0406 -0.42064,0.026 -0.42096,0.0117 -0.42056,-0.002 -0.41944,-0.0158 -0.41766,-0.0291 -0.41522,-0.0419 -0.41219,-0.0544 -0.40866,-0.0664 -0.40459,-0.0782 -0.4,-0.0895 -0.39504,-0.10051 -0.38965,-0.1111 -0.38386,-0.12137 -0.37772,-0.13134 -0.37128,-0.14092 -0.36459,-0.15025 -0.35759,-0.15927 -0.3503,-0.16799 -0.34283,-0.17645 -0.33511,-0.18463 -0.32723,-0.19256 -0.31909,-0.20019 -0.31081,-0.20753 -0.30237,-0.21465 -0.29368,-0.22146 -0.28488,-0.228 -0.27597,-0.23424 -0.26683,-0.24014 -0.2576,-0.24568 -0.24822,-0.25091 -0.23872,-0.25576 -0.22914,-0.26019 -0.21945,-0.26419 -0.20969,-0.26781 -0.19983,-0.27089 -0.19002,-0.2735 -0.18007,-0.27562 -0.17023,-0.27717 -0.16033,-0.2782 -0.15056,-0.27869 -0.14078,-0.27852 -0.13123,-0.27784 -0.1217,-0.27656 -0.11244,-0.27466 -0.10327,-0.27221 -0.0944,-0.26913 -0.0858,-0.26549 -0.0775,-0.26129 -0.0695,-0.2566 -0.0618,-0.25134 -0.0545,-0.24562 -0.0475,-0.23941 -0.0411,-0.23281 -0.035,-0.22575 -0.0293,-0.21843 -0.0241,-0.21074 -0.0194,-0.2028 -0.0152,-0.19467 -0.0114,-0.1863 -0.008,-0.17785 -0.005,-0.16931 -0.003,-0.16068 -8.4e-4,-0.1521 7.1e-4,-0.14351 0.002,-0.13506 0.003,-0.1267 0.003,-0.1185 0.003,-0.1105 0.002,-0.1027 0.002,-0.0952 7.7e-4,-0.0879 -4.7e-4,-0.0809 -0.002,-0.0743 -0.004,-0.0679 -0.006,-0.0619 -0.008,-0.0563 -0.01,-0.0509 -0.0121,-0.046 -0.0146,-0.0414 -0.0171,-0.0371 -0.0197,-0.0332 -0.0223,-0.0297 -0.025,-0.0265 -0.0276,-0.0236 -0.0304,-0.021 -0.033,-0.0187 -0.0357,-0.0168 -0.0383,-0.0151 -0.0409,-0.0137 -0.0434,-0.0126 -0.0459,-0.0117 -0.0482,-0.0111 -0.0506,-0.0107 -0.0528,-0.0106 -0.0549,-0.0106 -0.057,-0.0109 -0.0588,-0.0114 -0.0607,-0.012 -0.0623,-0.0129 -0.0638,-0.0139 -0.0651,-0.0151 -0.0663,-0.0164 -0.0673,-0.0179 -0.0681,-0.0195 -0.0687,-0.0213 -0.0692,-0.0231 -0.0693,-0.0251 -0.0692,-0.0272 -0.0689,-0.0293 -0.0683,-0.0315 -0.0675,-0.0338 -0.0664,-0.0361 -0.065,-0.0384 -0.0634,-0.0407 -0.0614,-0.0431 -0.0592,-0.0453 -0.0567,-0.0476 -0.0539,-0.0497 -0.0509,-0.0518 -0.0476,-0.0538 -0.0441,-0.0557 -0.0403,-0.0574 -0.0363,-0.0591 -0.0322,-0.0605 -0.0278,-0.0618 -0.0233,-0.0629 -0.0187,-0.0638 -0.0139,-0.0645 -0.009,-0.065 -0.004,-0.0653 8.1e-4,-0.0653"
       style="fill:#d96e19;fill-opacity:0.15;fill-rule:nonzero;stroke:#d96e19;stroke-width:0.99628;stroke-linecap:butt;stroke-linejoin:miter;stroke-miterlimit:10;stroke-dasharray:none;stroke-opacity:1"
       transform="matrix(1.3333333,0,0,-1.3333333,29.878667,328.81867)" />
    <path
       id="path58"
       d="m 5.35315,218.64244 c 0,0.27512 -0.22302,0.49814 -0.49814,0.49814 -0.2751,0 -0.49814,-0.22302 -0.49814,-0.49814 0,-0.2751 0.22304,-0.49814 0.49814,-0.49814 0.27512,0 0.49814,0.22304 0.49814,0.49814 z"
       style="fill:#d9d9d9;fill-opacity:1;fill-rule:nonzero;stroke:#d9d9d9;stroke-width:0.99628;stroke-linecap:butt;stroke-linejoin:miter;stroke-miterlimit:10;stroke-dasharray:none;stroke-opacity:1"
       transform="matrix(1.3333333,0,0,-1.3333333,29.878667,328.81867)" />
    <path
       id="path59"
       d="m 85.11522,218.64244 c 0,0.27512 -0.22304,0.49814 -0.49814,0.49814 -0.27512,0 -0.49814,-0.22302 -0.49814,-0.49814 0,-0.2751 0.22302,-0.49814 0.49814,-0.49814 0.2751,0 0.49814,0.22304 0.49814,0.49814 z"
       style="fill:#d9d9d9;fill-opacity:1;fill-rule:nonzero;stroke:#d9d9d9;stroke-width:0.99628;stroke-linecap:butt;stroke-linejoin:miter;stroke-miterlimit:10;stroke-dasharray:none;stroke-opacity:1"
       transform="matrix(1.3333333,0,0,-1.3333333,29.878667,328.81867)" />
    <path
       id="path60"
       d="m 164.8777,218.64244 c 0,0.27512 -0.22302,0.49814 -0.49814,0.49814 -0.27511,0 -0.49814,-0.22302 -0.49814,-0.49814 0,-0.2751 0.22303,-0.49814 0.49814,-0.49814 0.27512,0 0.49814,0.22304 0.49814,0.49814 z"
       style="fill:#d9d9d9;fill-opacity:1;fill-rule:nonzero;stroke:#d9d9d9;stroke-width:0.99628;stroke-linecap:butt;stroke-linejoin:miter;stroke-miterlimit:10;stroke-dasharray:none;stroke-opacity:1"
       transform="matrix(1.3333333,0,0,-1.3333333,29.878667,328.81867)" />
    <path
       id="path61"
       d="m 5.35315,107.90381 c 0,0.2751 -0.22302,0.49814 -0.49814,0.49814 -0.2751,0 -0.49814,-0.22304 -0.49814,-0.49814 0,-0.27511 0.22304,-0.49814 0.49814,-0.49814 0.27512,0 0.49814,0.22303 0.49814,0.49814 z"
       style="fill:#d9d9d9;fill-opacity:1;fill-rule:nonzero;stroke:#d9d9d9;stroke-width:0.99628;stroke-linecap:butt;stroke-linejoin:miter;stroke-miterlimit:10;stroke-dasharray:none;stroke-opacity:1"
       transform="matrix(1.3333333,0,0,-1.3333333,29.878667,328.81867)" />
    <path
       id="path62"
       d="m 85.11522,107.90381 c 0,0.2751 -0.22304,0.49814 -0.49814,0.49814 -0.27512,0 -0.49814,-0.22304 -0.49814,-0.49814 0,-0.27511 0.22302,-0.49814 0.49814,-0.49814 0.2751,0 0.49814,0.22303 0.49814,0.49814 z"
       style="fill:#d9d9d9;fill-opacity:1;fill-rule:nonzero;stroke:#d9d9d9;stroke-width:0.99628;stroke-linecap:butt;stroke-linejoin:miter;stroke-miterlimit:10;stroke-dasharray:none;stroke-opacity:1"
       transform="matrix(1.3333333,0,0,-1.3333333,29.878667,328.81867)" />
    <path
       id="path63"
       d="m 164.8777,107.90381 c 0,0.2751 -0.22302,0.49814 -0.49814,0.49814 -0.27511,0 -0.49814,-0.22304 -0.49814,-0.49814 0,-0.27511 0.22303,-0.49814 0.49814,-0.49814 0.27512,0 0.49814,0.22303 0.49814,0.49814 z"
       style="fill:#d9d9d9;fill-opacity:1;fill-rule:nonzero;stroke:#d9d9d9;stroke-width:0.99628;stroke-linecap:butt;stroke-linejoin:miter;stroke-miterlimit:10;stroke-dasharray:none;stroke-opacity:1"
       transform="matrix(1.3333333,0,0,-1.3333333,29.878667,328.81867)" />
    <path
       id="path64"
       d="m 224.33855,218.64244 c 0,0.27512 -0.22303,0.49814 -0.49814,0.49814 -0.27511,0 -0.49814,-0.22302 -0.49814,-0.49814 0,-0.2751 0.22303,-0.49814 0.49814,-0.49814 0.27511,0 0.49814,0.22304 0.49814,0.49814 z"
       style="fill:#d9d9d9;fill-opacity:1;fill-rule:nonzero;stroke:#d9d9d9;stroke-width:0.99628;stroke-linecap:butt;stroke-linejoin:miter;stroke-miterlimit:10;stroke-dasharray:none;stroke-opacity:1"
       transform="matrix(1.3333333,0,0,-1.3333333,29.878667,328.81867)" />
  </g>
</svg>
